<svg width="240" height="51" viewBox="0 0 240 51" fill="none" xmlns="http://www.w3.org/2000/svg">
<path d="M62.87 12.0377C58.1159 5.21983 50.6989 1.14562 41.4268 0.178658C26.587 -1.37005 8.97335 7.06334 8.97335 28.8691L13.0734 28.9104C13.0734 7.85735 30.2651 3.1955 40.7001 4.3531C68.9808 7.49376 65.4661 40.2564 58.6145 44.3346C47.6385 50.8694 44.8365 38.2577 44.8365 38.2577H40.8192C40.8192 38.2577 39.291 46.7402 31.5349 45.447C26.4598 44.6019 25.0103 39.3426 24.6167 37.4872C35.9217 31.6128 35.4695 18.5706 35.4695 18.5706L25.6583 15.6638C25.6583 15.6638 19.2508 25.6931 19.6626 35.1052C9.82325 37.9039 3.0362 31.1686 3.00996 31.143L0 33.8611C0.119106 33.985 8.25871 42.8468 20.4924 39.0477C20.9607 40.8716 23.1672 48.3164 30.794 49.588C37.4095 50.6906 41.2593 46.9348 42.5412 44.9871C44.2612 47.7681 47.5558 50.1206 52.3685 50.3349C52.5037 50.3408 52.639 50.3368 52.7762 50.3447C59.2968 50.6356 66.8207 45.0814 68.0259 32.959C68.7728 25.4356 66.8934 17.81 62.87 12.0377ZM27.7417 20.5694L31.0363 21.5245C30.8142 23.0123 30.1703 29.1502 24.114 32.9531C24.3886 27.5444 26.5022 22.9828 27.7417 20.5694Z" fill="#EC9A29"/>
<path d="M19.4482 16.8091L15.9688 20.1367L18.6398 22.7839L22.1192 19.4562L19.4482 16.8091Z" fill="#EC9A29"/>
<path d="M96.454 22.6121L93.2549 25.7412L95.7107 28.2305L98.9098 25.1013L96.454 22.6121Z" fill="#EC9A29"/>
<path d="M76.5146 24.4419H81.0861V39.105C81.0861 43.1727 84.7964 45.9708 89.4051 45.9708H91.6156V50.5227H89.1044C82.1348 50.5227 76.5127 45.5235 76.5127 39.3286V24.4419H76.5146Z" fill="white"/>
<path d="M98.3645 31.8677V50.5245H93.793V31.8677H98.3645Z" fill="white"/>
<path d="M101.486 28.0991H106.058V34.1074H108.757V38.5854H106.058V42.4277C106.058 44.4052 107.706 46.0463 109.692 46.0463H110.817V50.5243H109.692C105.158 50.5243 101.484 46.793 101.484 42.3149V28.0991H101.486Z" fill="white"/>
<path d="M112.872 28.0991H117.444V34.1074H120.142V38.5854H117.444V42.4277C117.444 44.4052 119.092 46.0463 121.078 46.0463H122.203V50.5243H121.078C116.543 50.5243 112.87 46.793 112.87 42.3149V28.0991H112.872Z" fill="white"/>
<path d="M124.101 50.5244V24.4048H128.709V50.5244H124.101Z" fill="white"/>
<path d="M141.707 30.8604C142.494 30.8604 143.207 30.9343 143.881 31.084L144.256 31.1579C144.369 31.1949 144.518 31.2318 144.631 31.2706C148.79 32.4645 151.825 36.2329 151.825 40.7109C151.825 40.9715 151.788 41.2339 151.788 41.4945C151.714 42.2411 151.563 42.949 151.339 43.6217C149.651 42.8011 147.779 42.3908 145.793 42.3908C143.807 42.3908 141.932 42.8011 140.172 43.5847V39.2194C142.272 38.6225 144.182 38.4358 145.756 38.4358C146.093 38.4358 146.392 38.4728 146.73 38.4728C146.017 36.8686 144.219 35.3384 141.709 35.3384C138.675 35.3384 136.2 37.7631 136.2 40.7109C136.2 43.6956 138.749 46.0464 141.709 46.0464C143.246 46.0464 144.557 45.5234 145.644 44.4423C146.431 45.2998 147.781 46.7561 148.792 47.8373C147.031 49.4784 144.558 50.5245 141.709 50.5245C136.013 50.5245 131.629 46.0464 131.629 40.7109C131.627 35.2256 136.124 30.8604 141.707 30.8604Z" fill="white"/>
<path d="M154.902 23.8818H159.424V39.554C159.424 43.0248 162.277 46.0465 166.02 46.0465C169.69 46.0465 172.617 43.1726 172.617 39.554V23.8818H177.138V39.554C177.138 43.0248 179.954 46.0465 183.698 46.0465C187.367 46.0465 190.294 43.1726 190.294 39.554V23.8818H194.816V39.554C194.816 45.7101 189.776 50.5245 183.698 50.5245C180.102 50.5245 176.915 48.8834 174.878 46.1962C172.802 48.8834 169.616 50.5245 166.02 50.5245C159.869 50.5245 154.902 45.6362 154.902 39.554V23.8818Z" fill="white"/>
<path d="M206.984 30.8604C207.771 30.8604 208.484 30.9343 209.157 31.084L209.532 31.1579C209.645 31.1949 209.794 31.2318 209.907 31.2706C214.067 32.4645 217.101 36.2329 217.101 40.7109C217.101 40.9715 217.064 41.2339 217.064 41.4945C216.99 42.2411 216.84 42.949 216.615 43.6217C214.928 42.8011 213.055 42.3908 211.069 42.3908C209.083 42.3908 207.208 42.8011 205.449 43.5847V39.2194C207.548 38.6225 209.458 38.4358 211.032 38.4358C211.37 38.4358 211.669 38.4728 212.006 38.4728C211.294 36.8686 209.495 35.3384 206.986 35.3384C203.951 35.3384 201.477 37.7631 201.477 40.7109C201.477 43.6956 204.025 46.0464 206.986 46.0464C208.523 46.0464 209.833 45.5234 210.921 44.4423C211.708 45.2998 213.057 46.7561 214.068 47.8373C212.307 49.4784 209.835 50.5245 206.986 50.5245C201.289 50.5245 196.905 46.0464 196.905 40.7109C196.903 35.2256 201.401 30.8604 206.984 30.8604Z" fill="white"/>
<path d="M224.374 23.9575V40.6739C224.374 44.1059 226.735 46.4567 229.883 46.4567C233.068 46.4567 235.392 43.5459 235.392 40.6739C235.392 37.8388 233.181 34.8911 229.883 34.8911C229.096 34.8911 228.346 35.0408 227.673 35.3014C227.372 34.5917 226.323 32.0172 226.136 31.533C227.298 31.0858 228.534 30.8621 229.883 30.8621C235.691 30.8621 240.001 35.3771 240.001 40.6757C240.001 46.1979 235.392 50.5263 229.883 50.5263C224.3 50.5263 219.803 46.161 219.803 40.6757V23.9594H224.374V23.9575Z" fill="white"/>
</svg>
