<svg width="240" height="51" fill="none" xmlns="http://www.w3.org/2000/svg">
    <path d="M62.87 12.038C58.116 5.22 50.699 1.146 41.427.178 26.587-1.37 8.973 7.064 8.973 28.87l4.1.041c0-21.053 17.192-25.715 27.627-24.557 28.28 3.14 24.766 35.903 17.914 39.982-10.975 6.534-13.777-6.077-13.777-6.077h-4.018s-1.528 8.482-9.284 7.189c-5.075-.845-6.525-6.104-6.918-7.96 11.305-5.874 10.852-18.916 10.852-18.916l-9.81-2.907s-6.408 10.03-5.996 19.441C9.823 37.904 3.036 31.17 3.01 31.143L0 33.861c.12.124 8.259 8.986 20.492 5.187.469 1.824 2.675 9.268 10.302 10.54 6.616 1.103 10.465-2.653 11.747-4.6 1.72 2.78 5.015 5.133 9.828 5.347.135.006.27.002.407.01 6.52.29 14.045-5.264 15.25-17.386.747-7.523-1.133-15.149-5.156-20.921Zm-35.128 8.531 3.294.956c-.222 1.487-.866 7.625-6.922 11.428.275-5.409 2.388-9.97 3.628-12.384Z" fill="#EC9A29"/>
    <path d="m19.448 16.81-3.48 3.327 2.672 2.647 3.48-3.328-2.672-2.647ZM96.454 22.612l-3.2 3.13 2.457 2.488 3.199-3.129-2.456-2.489Z" fill="#EC9A29"/>
    <path d="M76.515 24.442h4.571v14.663c0 4.068 3.71 6.866 8.32 6.866h2.21v4.552h-2.512c-6.97 0-12.591-5-12.591-11.194V24.442h.002ZM98.365 31.868v18.657h-4.572V31.868h4.572ZM101.486 28.1h4.572v6.007h2.699v4.478h-2.699v3.843c0 1.977 1.648 3.618 3.634 3.618h1.125v4.478h-1.125c-4.534 0-8.208-3.731-8.208-8.21V28.1h.002ZM112.872 28.1h4.572v6.007h2.698v4.478h-2.698v3.843c0 1.977 1.648 3.618 3.634 3.618h1.125v4.478h-1.125c-4.535 0-8.208-3.731-8.208-8.21V28.1h.002ZM124.101 50.524v-26.12h4.608v26.12h-4.608ZM141.707 30.86c.787 0 1.5.074 2.174.224l.375.074c.113.037.262.074.375.113 4.159 1.194 7.194 4.962 7.194 9.44 0 .26-.037.523-.037.784a9.752 9.752 0 0 1-.449 2.127c-1.688-.82-3.56-1.231-5.546-1.231-1.986 0-3.861.41-5.621 1.194v-4.366c2.1-.596 4.01-.783 5.584-.783.337 0 .636.037.974.037-.713-1.604-2.511-3.135-5.021-3.135-3.034 0-5.509 2.425-5.509 5.373 0 2.985 2.549 5.335 5.509 5.335 1.537 0 2.848-.523 3.935-1.604a586.35 586.35 0 0 0 3.148 3.395c-1.761 1.641-4.234 2.688-7.083 2.688-5.696 0-10.08-4.479-10.08-9.814-.002-5.485 4.495-9.85 10.078-9.85ZM154.902 23.882h4.522v15.672c0 3.47 2.853 6.492 6.596 6.492 3.67 0 6.597-2.873 6.597-6.492V23.882h4.521v15.672c0 3.47 2.816 6.492 6.56 6.492 3.669 0 6.596-2.873 6.596-6.492V23.882h4.522v15.672c0 6.156-5.04 10.97-11.118 10.97-3.596 0-6.783-1.64-8.82-4.328-2.076 2.687-5.262 4.329-8.858 4.329-6.151 0-11.118-4.889-11.118-10.971V23.882ZM206.984 30.86c.787 0 1.5.074 2.173.224l.375.074c.113.037.262.074.375.113 4.16 1.194 7.194 4.962 7.194 9.44 0 .26-.037.523-.037.784a9.694 9.694 0 0 1-.449 2.127c-1.687-.82-3.56-1.231-5.546-1.231-1.986 0-3.861.41-5.62 1.194v-4.366a20.415 20.415 0 0 1 5.583-.783c.338 0 .637.037.974.037-.712-1.604-2.511-3.135-5.02-3.135-3.035 0-5.509 2.425-5.509 5.373 0 2.985 2.548 5.335 5.509 5.335 1.537 0 2.847-.523 3.935-1.604a583.77 583.77 0 0 0 3.147 3.395c-1.761 1.641-4.233 2.688-7.082 2.688-5.697 0-10.081-4.479-10.081-9.814-.002-5.485 4.496-9.85 10.079-9.85ZM224.374 23.957v16.717c0 3.432 2.361 5.783 5.509 5.783 3.185 0 5.509-2.911 5.509-5.783 0-2.835-2.211-5.783-5.509-5.783-.787 0-1.537.15-2.21.41-.301-.71-1.35-3.284-1.537-3.768 1.162-.447 2.398-.67 3.747-.67 5.808 0 10.118 4.514 10.118 9.813 0 5.522-4.609 9.85-10.118 9.85-5.583 0-10.08-4.365-10.08-9.85V23.959h4.571v-.002Z" fill="#fff"/>
</svg>
