<svg width="56" height="56" fill="none" xmlns="http://www.w3.org/2000/svg">
    <circle cx="28" cy="28" r="27.5" stroke="#947BFB"/>
    <path d="M49.5 28c0 11.874-9.626 21.5-21.5 21.5S6.5 39.874 6.5 28 16.126 6.5 28 6.5 49.5 16.126 49.5 28Z" stroke="#947BFB"/>
    <path fill-rule="evenodd" clip-rule="evenodd" d="M20.884 17h14.209c2.154 0 3.895 1.786 3.895 3.996v14.008c0 2.21-1.741 3.996-3.895 3.996H20.884c-2.154 0-3.896-1.786-3.896-3.996V20.996c0-2.21 1.742-3.996 3.896-3.996Zm6.766 13.2h-3.41l-.696 2.21a.161.161 0 0 1-.175.131h-1.723c-.1 0-.128-.056-.1-.17l2.95-8.715.025-.084c.02-.07.042-.146.068-.226.036-.197.055-.404.055-.611-.01-.047.027-.094.073-.103h2.374c.073 0 .11.028.12.075l3.345 9.684c.028.103 0 .15-.092.15H28.55c-.065.01-.129-.038-.147-.103L27.65 30.2Zm-2.878-1.909H27.1a13.601 13.601 0 0 0-.21-.677 28.865 28.865 0 0 1-.248-.808 42.16 42.16 0 0 1-.133-.433c-.044-.143-.087-.286-.133-.432a20.61 20.61 0 0 1-.247-.837c-.033-.116-.064-.23-.093-.338-.038-.138-.073-.27-.11-.395h-.017c-.083.404-.184.809-.312 1.213l-.158.523c-.086.286-.173.577-.264.868-.128.48-.266.921-.403 1.316Zm6.966-4.38c.22.215.513.338.816.328.311.019.623-.103.834-.329.22-.235.33-.545.32-.865.01-.31-.1-.61-.302-.837-.201-.216-.476-.329-.834-.329-.302 0-.596.113-.816.33a1.12 1.12 0 0 0-.33.836c-.009.32.101.63.312.865Zm-.21 1.25V32.4c0 .094.045.15.137.15h1.796c.083 0 .12-.047.12-.15v-7.24c0-.084-.037-.131-.12-.131h-1.815c-.082 0-.119.038-.119.132Z" fill="#947BFB"/>
</svg>
