<svg width="44" height="44" fill="none" xmlns="http://www.w3.org/2000/svg">
    <path d="M49.5 28c0 11.874-9.626 21.5-21.5 21.5S6.5 39.874 6.5 28 16.126 6.5 28 6.5 49.5 16.126 49.5 28Z" stroke="#947BFB"/>
    <g clip-path="url(#a)">
        <path fill-rule="evenodd" clip-rule="evenodd" d="M27.977 16c-.892 0-1.762.091-2.608.274V27.99a2.607 2.607 0 0 0 2.608 2.608 2.607 2.607 0 0 0 2.608-2.608 2.62 2.62 0 0 0-2.425-2.609v-2.059a4.695 4.695 0 0 1 4.53 4.69 4.697 4.697 0 0 1-4.69 4.69 4.697 4.697 0 0 1-4.69-4.69v-11.05c-.298.137-.595.274-.87.412V28.01a5.566 5.566 0 0 0 5.56 5.56 5.566 5.566 0 0 0 5.56-5.56c0-2.997-2.403-5.468-5.4-5.56V20.37c4.141.091 7.481 3.5 7.481 7.641 0 4.21-3.432 7.642-7.641 7.642-4.21 0-7.642-3.432-7.642-7.642v-9.265a11.938 11.938 0 0 0-4.37 9.243c0 6.634 5.377 11.988 11.989 11.988 6.635 0 11.988-5.376 11.988-11.988C39.988 21.376 34.612 16 27.977 16Z" fill="#947BFB"/>
    </g>
    <defs>
        <clipPath id="a">
            <path fill="#fff" transform="translate(15.988 16)" d="M0 0h24v24H0z"/>
        </clipPath>
    </defs>
</svg>
