<svg width="56" height="56" fill="none" xmlns="http://www.w3.org/2000/svg">
    <circle cx="28" cy="28" r="27.5" stroke="#947BFB"/>
    <path d="M49.5 28c0 11.874-9.626 21.5-21.5 21.5S6.5 39.874 6.5 28 16.126 6.5 28 6.5 49.5 16.126 49.5 28Z" stroke="#947BFB"/>
    <path fill-rule="evenodd" clip-rule="evenodd" d="M38.419 26.715c0 6.47-5.245 11.715-11.715 11.715-6.07 0-11.062-4.616-11.657-10.53v.13c0 7.164 5.807 12.97 12.97 12.97s12.97-5.806 12.97-12.97c0-7.163-5.807-12.97-12.97-12.97l-.108.001c5.904.603 10.51 5.59 10.51 11.654Z" fill="#7362CF"/>
    <path fill-rule="evenodd" clip-rule="evenodd" d="M29.514 35.312c-.393.046-.792.07-1.197.07-5.612 0-10.16-4.55-10.16-10.16 0-5.612 4.548-10.162 10.16-10.162s10.16 4.55 10.16 10.161c0 .406-.023.807-.07 1.2a9.324 9.324 0 0 0-9.314-9.747 9.324 9.324 0 1 0 .42 18.638Z" fill="#10164A"/>
    <path d="M28.436 35.382a8.667 8.667 0 1 0 0-17.333 8.667 8.667 0 0 0 0 17.333Z" fill="#7362CF"/>
    <path d="M27.064 32.513a7.232 7.232 0 1 0 0-14.464 7.232 7.232 0 0 0 0 14.464Z" fill="#10164A"/>
    <path d="M28.198 30.18a6.097 6.097 0 1 0 0-12.193 6.097 6.097 0 0 0 0 12.194Z" fill="#7362CF"/>
    <path d="M28.972 30.242a5.32 5.32 0 1 0 0-10.64 5.32 5.32 0 0 0 0 10.64Z" fill="#10164A"/>
    <path d="M28.199 30.181a4.542 4.542 0 1 0 0-9.084 4.542 4.542 0 0 0 0 9.084Z" fill="#10164A"/>
    <path d="M30.832 24.363c.325-.723.221-1.473-.23-1.675-.452-.203-1.08.219-1.405.942-.324.723-.221 1.473.23 1.676.452.202 1.08-.22 1.405-.943Z" fill="#7362CF"/>
</svg>
