<svg width="56" height="56" fill="none" xmlns="http://www.w3.org/2000/svg">
    <circle cx="28" cy="28" r="27.5" stroke="#947BFB"/>
    <path d="M49.5 28c0 11.874-9.626 21.5-21.5 21.5S6.5 39.874 6.5 28 16.126 6.5 28 6.5 49.5 16.126 49.5 28Z" stroke="#947BFB"/>
    <path d="m35.117 36.075-7.23 1.946-7.23-1.946L18.988 18h17.797l-1.668 18.075Z" fill="#947BFB"/>
    <path d="M27.887 19.464v17.005l.016.004 5.85-1.575 1.351-15.434h-7.217Z" fill="#947BFB"/>
    <path d="m27.882 23.983-5.175 2.155.172 2.134 5.003-2.14 5.322-2.274.22-2.183-5.542 2.308Z" fill="#947BFB"/>
    <path d="m22.703 26.139.172 2.133 5.003-2.139v-2.15l-5.175 2.155ZM33.422 21.675l-5.543 2.308v2.15l5.322-2.275.22-2.183Z" fill="#10164A"/>
    <path d="m22.715 26.138.171 2.134 7.677.024-.172 2.845-2.526.712-2.428-.614-.147-1.765h-2.256l.294 3.409 4.562 1.348 4.537-1.324.589-6.769H22.715Z" fill="#10164A"/>
    <path opacity=".05" d="M27.882 26.138h-5.175l.172 2.134 5.003.016v-2.15Zm0 5.708-.025.006-2.428-.613-.147-1.765h-2.256l.294 3.409 4.562 1.348v-2.385Z" fill="#10164A"/>
    <path d="M22.238 21.675h11.184l-.221 2.183H22.508l-.27-2.183Z" fill="#10164A"/>
    <path opacity=".05" d="M27.879 21.675h-5.64l.269 2.183h5.371v-2.183Z" fill="#10164A"/>
</svg>
