<svg width="56" height="56" fill="none" xmlns="http://www.w3.org/2000/svg">
    <circle cx="28" cy="28" r="27.5" stroke="#947BFB"/>
    <path d="M49.5 28c0 11.874-9.626 21.5-21.5 21.5S6.5 39.874 6.5 28 16.126 6.5 28 6.5 49.5 16.126 49.5 28Z" stroke="#947BFB"/>
    <path d="M24.603 38.842c1.996 0 3.615-1.631 3.615-3.64V31.56h-3.615c-1.995 0-3.615 1.63-3.615 3.64 0 2.01 1.62 3.64 3.615 3.64Z" fill="#9D8DF0"/>
    <path d="M20.988 27.92c0-2.009 1.62-3.64 3.615-3.64h3.615v7.28h-3.615c-1.995 0-3.615-1.63-3.615-3.64Z" fill="#7362CF"/>
    <path d="M20.988 20.64c0-2.01 1.62-3.64 3.615-3.64h3.615v7.28h-3.615c-1.995 0-3.615-1.63-3.615-3.64Z" fill="#9D8DF0"/>
    <path d="M28.215 17h3.615c1.995 0 3.615 1.63 3.615 3.64 0 2.01-1.62 3.64-3.615 3.64h-3.615V17Z" fill="#7362CF"/>
    <path d="M35.445 27.92c0 2.01-1.62 3.64-3.615 3.64-1.996 0-3.615-1.63-3.615-3.64 0-2.009 1.62-3.64 3.615-3.64s3.615 1.631 3.615 3.64Z" fill="#9D8DF0"/>
</svg>
