<svg width="56" height="56" fill="none" xmlns="http://www.w3.org/2000/svg">
    <circle cx="28" cy="28" r="27.5" stroke="#947BFB"/>
    <path d="M49.5 28c0 11.874-9.626 21.5-21.5 21.5S6.5 39.874 6.5 28 16.126 6.5 28 6.5 49.5 16.126 49.5 28Z" stroke="#947BFB"/>
    <path d="M26.269 22.925c2.13.02 4.255.048 6.393.068V16.52h4.324v8.3h2.401c.055.164.02.28-.097.396-.858.835-1.709 1.683-2.56 2.523-.041.041-.083.09-.145.15.076.008.124.008.173.008.54 0 1.086-.007 1.626 0 .187.006.38.027.56.082a.495.495 0 0 1 .353.601c-.028.137-.07.28-.131.404-1.377 2.769-2.754 5.531-4.138 8.3-.401.807-1.065 1.183-1.972 1.183-5.078-.007-10.157-.007-15.235-.007-.215 0-.43 0-.637-.034-.45-.075-.637-.37-.477-.793.131-.356.31-.697.484-1.04 1.245-2.502 2.498-4.997 3.75-7.5.208-.417.484-.772.913-.991.035-.02.083-.075.083-.11.007-.266.007-.533.007-.806-.754.082-1.363.362-1.716 1.039-.519.978-1.024 1.962-1.536 2.94-.678 1.32-1.349 2.64-2.027 3.959a.123.123 0 0 1-.083.068v-11.61a.41.41 0 0 1 .131-.314c.277-.28.63-.41 1.01-.41 1.24-.007 2.478 0 3.716 0h.491v-1.573h-2.608c1.598-1.572 3.197-3.159 4.788-4.731 1.57 1.552 3.169 3.124 4.78 4.717h-2.614c-.007.554-.007 1.088-.007 1.655Zm5.563 12.628h.207c.353-.006.706 0 1.052-.034.498-.054.92-.26 1.141-.738.409-.903-.131-1.88-1.127-1.976-.678-.062-1.37-.034-2.055-.041-.021 0-.042.007-.076.014v4.369h.85c.007-.534.007-1.047.007-1.594Zm-8.137-2.782v4.382h.858v-1.805h1.792v-.745h-1.778v-1.1h2.082v-.732h-2.954Zm6.794 0h-3.611v.738h1.376v3.638h.865v-3.645h1.377c-.007-.253-.007-.485-.007-.731Zm2.616-4.875a21.287 21.287 0 0 0-.713-.684.448.448 0 0 0-.27-.11c-1.889-.013-3.778-.013-5.674-.02-.062 0-.124.007-.18.007v.807h6.837Z" fill="#947BFB"/>
    <path d="M31.852 33.425c.401 0 .787-.024 1.173.007.528.04.811.46.685.965-.07.296-.291.483-.661.506-.394.024-.78.008-1.19.008-.007-.498-.007-.98-.007-1.486Z" fill="#7362CF"/>
</svg>
