<svg width="45" height="44" fill="none" xmlns="http://www.w3.org/2000/svg">
    <path d="M43.51 22c0 11.874-9.625 21.5-21.5 21.5C10.138 43.5.51 33.874.51 22S10.138.5 22.01.5c11.875 0 21.5 9.626 21.5 21.5Z" stroke="#947BFB"/>
    <path fill-rule="evenodd" clip-rule="evenodd" d="M21.977 30.07c-1.564 0-2.773-.235-3.355-.375a6.452 6.452 0 0 1-.959-.297l.776 1.325.303 4.138c0 .464 1.474.84 3.292.84 1.818 0 3.292-.376 3.292-.84l.24-4.183.733-1.284a6.385 6.385 0 0 1-.968.3c-.58.14-1.79.376-3.354.376Zm4.348-13.467c-1.148.16-2.672.248-4.291.248-1.619 0-3.143-.088-4.291-.248-.569-.08-1.019-.174-1.337-.279a1.934 1.934 0 0 1-.33-.136l.712 6.547a6.408 6.408 0 0 1 .759-1.635c.129-.195.266-.375.412-.54.145-.164.295-.305.448-.424.154-.118.308-.21.465-.277.156-.067.31-.1.464-.1.177 0 .348.048.513.145.165.096.32.253.463.469a.375.375 0 0 1 .062.146c.01.05.014.096.014.14a.372.372 0 0 1-.075.245.222.222 0 0 1-.176.09c-.062 0-.12-.033-.173-.099a1.857 1.857 0 0 1-.18-.28.68.68 0 0 0-.205-.24.433.433 0 0 0-.243-.075c-.136 0-.28.057-.435.17a2.531 2.531 0 0 0-.459.446 4.9 4.9 0 0 0-.435.635 6.61 6.61 0 0 0-.369.73c-.106.25-.191.497-.254.74-.064.242-.095.46-.095.653 0 .064.004.13.013.198a.67.67 0 0 0 .05.185c.024.055.057.1.099.136a.235.235 0 0 0 .158.053.536.536 0 0 0 .245-.072c.091-.048.186-.112.284-.19.098-.078.196-.167.295-.265a4.721 4.721 0 0 0 .504-.592c.066-.093.116-.174.149-.243l.27-.81a.381.381 0 0 1 .13-.187.287.287 0 0 1 .165-.055c.027 0 .054.004.081.014a.204.204 0 0 1 .124.119.287.287 0 0 1 .019.108c0 .11-.01.214-.03.31-.018.097-.043.192-.073.284-.03.091-.064.184-.1.277-.038.093-.074.19-.109.292a.662.662 0 0 0-.042.108 18.98 18.98 0 0 0-.169.538l-.105.349a27.587 27.587 0 0 0-.192.657 70.171 70.171 0 0 0-.097.342.813.813 0 0 1-.122.25.464.464 0 0 1-.097.1.177.177 0 0 1-.108.04c-.062 0-.107-.021-.135-.063-.028-.041-.042-.117-.042-.227v-.049a1.223 1.223 0 0 1 .047-.259 20.296 20.296 0 0 1 .22-.74l.117-.367c-.103.115-.214.23-.335.344a3.61 3.61 0 0 1-.37.306 2.19 2.19 0 0 1-.381.223.904.904 0 0 1-.37.086.662.662 0 0 1-.402-.125l.396 4.15c.103.26 2.043.894 4.601.894 2.56 0 4.5-.636 4.601-.894l.569-4.934-.137.126a5.958 5.958 0 0 1-.462.392c-.144.109-.285.194-.423.253a1.1 1.1 0 0 1-.443.09.536.536 0 0 1-.342-.097.321.321 0 0 1-.121-.265v-.026c0-.008 0-.018.003-.03a.627.627 0 0 1 .09-.238c.053-.09.116-.182.19-.279a7.62 7.62 0 0 1 .235-.293c.084-.099.161-.193.232-.281.07-.089.13-.17.176-.243a.365.365 0 0 0 .07-.18c0-.027-.01-.05-.03-.065-.019-.016-.05-.024-.095-.024a.546.546 0 0 0-.24.06c-.083.04-.165.094-.245.162-.08.068-.16.146-.236.233a3.425 3.425 0 0 0-.399.557 3.995 3.995 0 0 0-.19.37 8.99 8.99 0 0 0-.07.156 9.523 9.523 0 0 1-.08.177 8.003 8.003 0 0 0-.078.173l-.063.145a2.139 2.139 0 0 0-.087.205 24.59 24.59 0 0 0-.169.445l-.09.242-.074.2a1.973 1.973 0 0 0-.041.117 1.26 1.26 0 0 1-.069.17.7.7 0 0 1-.09.139.413.413 0 0 1-.116.096.297.297 0 0 1-.147.036.288.288 0 0 1-.174-.05c-.045-.033-.068-.097-.068-.191 0-.046.006-.093.017-.141.012-.049.027-.097.044-.144.017-.047.035-.093.054-.137a4.43 4.43 0 0 0 .05-.13c.106-.23.212-.46.321-.692.109-.23.213-.46.313-.686l.06-.14-.017.018c-.127.122-.252.229-.378.322a2 2 0 0 1-.372.223.879.879 0 0 1-.36.082.464.464 0 0 1-.2-.037.333.333 0 0 1-.128-.104.413.413 0 0 1-.068-.155c-.005-.02-.008-.042-.01-.063a2.095 2.095 0 0 1-.458.282.786.786 0 0 1-.316.077.298.298 0 0 1-.227-.093c-.058-.062-.087-.168-.087-.317 0-.106.015-.229.046-.37-.05.09-.113.181-.189.273a1.655 1.655 0 0 1-.259.252 1.291 1.291 0 0 1-.326.185c-.12.047-.252.07-.393.07a.701.701 0 0 1-.185-.024.386.386 0 0 1-.264-.24.649.649 0 0 1-.029-.351 2.25 2.25 0 0 1 .074-.321c.042-.146.107-.335.194-.568.087-.232.21-.514.37-.845a.467.467 0 0 1 .141-.188.294.294 0 0 1 .34-.006c.025.017.045.039.06.065a.178.178 0 0 1 .024.091.24.24 0 0 1-.009.066c-.01.04-.03.09-.062.153l-.113.218-.135.264a3.745 3.745 0 0 0-.133.293c-.04.101-.075.204-.104.309a1.33 1.33 0 0 0-.05.305c0 .041.01.08.03.114.019.034.05.051.095.051a.608.608 0 0 0 .361-.124c.115-.082.22-.185.318-.308.097-.123.185-.256.264-.397.078-.142.144-.27.196-.388.037-.078.07-.162.098-.252.028-.09.058-.172.091-.248a.769.769 0 0 1 .114-.19.201.201 0 0 1 .16-.076c.07 0 .125.026.166.08.04.052.061.116.061.189a.543.543 0 0 1-.04.17 4.96 4.96 0 0 1-.098.25l-.13.297c-.046.106-.09.214-.13.323-.04.11-.072.216-.098.32a1.2 1.2 0 0 0-.04.292c0 .083.043.125.128.125.06 0 .135-.021.225-.063a1.527 1.527 0 0 0 .354-.232c.028-.113.06-.218.097-.313.068-.179.137-.357.207-.534l.192-.487.883-2.224a.373.373 0 0 1 .14-.19.338.338 0 0 1 .18-.055c.06 0 .115.02.164.058.05.04.075.103.075.19a.389.389 0 0 1-.025.131 1.59 1.59 0 0 1-.063.148c-.048.109-.106.24-.173.397a55.222 55.222 0 0 0-.451 1.085l-.236.581a69.508 69.508 0 0 0-.39.976 1.953 1.953 0 0 0-.062.185.682.682 0 0 0-.03.188c0 .034.006.062.017.083.012.02.034.03.067.03.041 0 .092-.014.153-.042.061-.03.127-.067.198-.114.071-.047.145-.101.221-.162a6.711 6.711 0 0 0 .631-.568.13.13 0 0 1 .045-.03c.033-.097.063-.193.089-.287l.064-.176c.027-.076.058-.15.093-.224a.957.957 0 0 1 .118-.192c.044-.054.09-.08.141-.08.078 0 .134.017.17.053.034.035.052.088.052.157a2.4 2.4 0 0 1-.04.255.433.433 0 0 1-.019.066c.072-.079.15-.156.233-.233a2.4 2.4 0 0 1 .26-.21c.089-.061.18-.112.274-.151a.678.678 0 0 1 .47-.03.55.55 0 0 1 .169.08c.05.036.09.08.12.135a.37.37 0 0 1 .047.188.744.744 0 0 1-.071.302 2.173 2.173 0 0 1-.18.322c-.071.108-.149.213-.232.316-.084.102-.162.195-.235.279-.073.084-.134.155-.183.214-.05.059-.076.098-.077.119 0 .027.008.05.026.067.017.017.046.026.087.026a.337.337 0 0 0 .146-.055c.064-.037.154-.1.27-.192.115-.09.261-.212.439-.365.122-.105.264-.23.425-.372l.77-7.133a1.924 1.924 0 0 1-.329.136c-.319.105-.768.2-1.337.279Zm-4.296-1.693c-3.33 0-6.029.373-6.029.832 0 .46 2.7.831 6.03.831 3.329 0 6.028-.372 6.028-.831 0-.46-2.699-.832-6.029-.832Zm2.408 1.075c0 .108-.321.195-.717.195-.396 0-.716-.087-.716-.195 0-.108.32-.195.716-.195.396 0 .717.087.717.195Z" fill="#947BFB"/>
    <path fill-rule="evenodd" clip-rule="evenodd" d="M23.15 15.899a.033.033 0 0 0-.005.017c0 .07.258.127.576.127.319 0 .577-.057.577-.127l.754-3.054 2.996-3.164a.05.05 0 0 0 .002-.003c.064-.071-.065-.293-.278-.484-.214-.19-.444-.255-.516-.182l-.002.002-3.196 3.363-.908 3.505Z" fill="#947BFB"/>
</svg>
