<svg width="56" height="56" fill="none" xmlns="http://www.w3.org/2000/svg">
    <circle cx="28" cy="28" r="27.5" stroke="#947BFB"/>
    <path d="M49.5 28c0 11.874-9.626 21.5-21.5 21.5S6.5 39.874 6.5 28 16.126 6.5 28 6.5 49.5 16.126 49.5 28Z" stroke="#947BFB"/>
    <path d="M38.378 22.27a11.947 11.947 0 0 0-4.367-4.367c-1.838-1.073-3.846-1.61-6.023-1.61-2.177 0-4.185.537-6.023 1.61a11.945 11.945 0 0 0-4.367 4.367c-1.073 1.838-1.61 3.846-1.61 6.023 0 2.615.763 4.966 2.29 7.054 1.525 2.089 3.497 3.534 5.913 4.336.282.053.49.016.625-.109a.611.611 0 0 0 .203-.468l-.008-.844a138.47 138.47 0 0 1-.008-1.39l-.359.062c-.23.041-.518.06-.867.054a6.617 6.617 0 0 1-1.086-.11 2.426 2.426 0 0 1-1.047-.468 1.982 1.982 0 0 1-.687-.96l-.157-.36a3.907 3.907 0 0 0-.492-.797c-.224-.291-.45-.49-.68-.593l-.109-.079a1.148 1.148 0 0 1-.203-.187.857.857 0 0 1-.14-.219c-.032-.073-.006-.133.078-.18.083-.047.234-.07.453-.07l.312.047c.209.042.466.166.774.375.307.208.56.479.758.812.24.427.528.753.867.977.338.224.68.335 1.023.335.344 0 .64-.026.89-.077.25-.052.485-.13.704-.235.093-.698.349-1.234.765-1.61a10.705 10.705 0 0 1-1.601-.28 6.371 6.371 0 0 1-1.469-.61 4.206 4.206 0 0 1-1.258-1.047c-.333-.417-.607-.964-.82-1.64-.213-.678-.32-1.459-.32-2.344 0-1.26.411-2.334 1.234-3.22-.385-.947-.349-2.01.11-3.186.302-.094.75-.024 1.343.21.594.235 1.029.436 1.305.602.276.167.497.308.664.422.969-.27 1.969-.406 3-.406s2.031.135 3 .406l.594-.375c.406-.25.885-.48 1.437-.687.552-.209.974-.266 1.266-.172.469 1.177.51 2.24.125 3.187.823.886 1.235 1.959 1.235 3.219 0 .885-.108 1.669-.32 2.351-.214.683-.49 1.23-.829 1.64-.338.413-.76.759-1.265 1.04a6.388 6.388 0 0 1-1.47.61c-.473.124-1.007.219-1.6.281.54.468.811 1.208.811 2.218v3.297c0 .187.066.344.196.469.13.124.336.161.617.109 2.417-.802 4.388-2.247 5.914-4.336 1.526-2.088 2.29-4.44 2.29-7.055-.001-2.176-.538-4.184-1.61-6.022Z" fill="#7362CF"/>
</svg>
