<svg width="56" height="56" fill="none" xmlns="http://www.w3.org/2000/svg">
    <circle cx="28" cy="28" r="27.5" stroke="#947BFB"/>
    <path d="M49.5 28c0 11.874-9.626 21.5-21.5 21.5S6.5 39.874 6.5 28 16.126 6.5 28 6.5 49.5 16.126 49.5 28Z" stroke="#947BFB"/>
    <path fill-rule="evenodd" clip-rule="evenodd" d="M27.99 40.833c7.087 0 12.833-5.745 12.833-12.833S35.077 15.166 27.99 15.166c-7.088 0-12.834 5.746-12.834 12.834 0 4.776 2.61 8.943 6.48 11.153l1.632-11.007h-1.112v-2.334h1.167v-4.666l4.667-2.917 4.666 2.917v4.666h1.167v2.334h-1.114l1.63 11.008a12.774 12.774 0 0 1-6.35 1.68Zm2.333-15.02v-3.374L27.99 20.98l-2.334 1.458v3.373h4.667Zm-5.211 5.808 5.489-1.784.606 4.09-6.763 2.197.668-4.503Z" fill="#7362CF"/>
    <g opacity=".1">
        <path opacity=".1" d="M27.99 15.3c7.065 0 12.795 5.71 12.832 12.767V28c0-7.088-5.745-12.834-12.832-12.834-7.088 0-12.834 5.746-12.834 12.834l.002.067C15.194 21.01 20.924 15.3 27.99 15.3Z" fill="#7362CF"/>
        <path opacity=".1" d="M40.822 27.933C40.785 34.99 35.054 40.7 27.99 40.7c-7.066 0-12.796-5.71-12.832-12.766l-.002.067c0 7.088 5.746 12.833 12.834 12.833 7.087 0 12.833-5.745 12.833-12.833l-.002-.067Z" fill="#263238"/>
    </g>
</svg>
