<svg width="56" height="56" fill="none" xmlns="http://www.w3.org/2000/svg">
    <path d="M49.5 28c0 11.874-9.626 21.5-21.5 21.5S6.5 39.874 6.5 28 16.126 6.5 28 6.5 49.5 16.126 49.5 28Z" stroke="#947BFB"/>
    <path d="M18.249 26.3c-.7.33-2.555 1.813-2.912 2.253-.371.44-.481-.248-.097-1.388.303-.92 1.072-2.17 2.363-3.241.755-.619 2.418-1.511 3.434-2.033.206-.11 2.871-1.237 5.248-1.8.206-.055-.248.343-.316.563-.358 1.044-7.487 5.522-7.487 5.522l-.233.124ZM28.29 38.896c.125.742.015.797-.755.893-.769.096-1.332-.192-1.538-.385-.206-.192-.247-.618-.041-1.002.123-.248.247-.33.316-.632.069-.289.123-.357.178-.467.055-.096.069-.193.083-.866.014-.673 0-1.937.068-2.472.07-.55 2.446.247 2.446.247s-.564 1.401-.715 1.744c-.15.344-.137 1.003-.137 1.14 0 .138-.055.413-.096.426-.041.014.137.371.055.577-.055.193.123.687.137.797ZM29.197 17.893c-.083-.522 0-1.552.11-1.717.343-.467 2.156-.522 2.54.028.166.247.152.824.124 1.195-.027.37-.123 1.167-.137 1.428-.014.193-2.006.495-2.445-.027-.124-.137-.192-.907-.192-.907ZM33.235 37.565c.838.604 1.484.714 1.91.934.425.22.316.645-.399.77-.577.109-1.483-.11-2.088-.11-.604 0-1.95.068-2.307-.18-.412-.288-.234-.824-.234-.824.11-.302.385-.975.302-1.524-.082-.55-.192-.852-.398-1.36-.206-.508-.357-1.758-.165-1.827.192-.069.137 0 .385.055.247.055.522.137 1.058.137.535 0 1.126-.082 1.332-.123.206-.042.37-.083.302.343-.069.426-.275 1.222-.288 1.84-.014.619-.014 1.333.027 1.457.041.123.344.26.563.412Z" fill="#947BFB"/>
    <path d="M30.296 19.266c-1.51 1.305-4.437 1.662-8.777 3.338-1.113.426-4.08 1.704-4.794 3.036 2.403-1.387 3.296.522 3.489 2.486.178 1.841 1.099 2.803 3.461 2.747 2.432-.054 3.173 1.36 3.846 3.023 1.305-6.36 3.393-7.597 4.74-8.682 2.857-2.321-.66-6.415-1.965-5.948Z" fill="#B3A0FF"/>
    <path d="M30.296 19.266c-3.627 1.263-7.212 1.58-11.429 4.176-1.003.618-3.118 2.019-3.53 4.697 1.538-1.703 5.096-3.846 9.45-5.206 2.198-.687 3.806-1.14 5.756-1.895-.137-.88-.137-1.223-.247-1.772Z" fill="#B3A0FF"/>
    <path d="M34.925 26.795s-.261.893-.783 1.182c0 0-.385.137-1.154-.289-.22-.123-.385-.55-.371-.687.014-.33.22-.48.22-.48s.22-.371.48-.358c.262.014.701.055.839-.068.123-.138.796.247.769.7ZM29.322 18.154s-.055.7-.151 1.14c-.014.083-.426.124-.729.247.577 1.649 4.053 1.635 4.506.825a5.993 5.993 0 0 0-.865-.467c-.206-.083-.193-.07-.206-.454-.014-.384-.042-1.099-.07-1.291-.027-.192-2.156-.192-2.485 0Z" fill="#947BFB"/>
    <path d="M29.458 18.154s0 .398-.041.783a3.228 3.228 0 0 1-.055.425c-.014.083.467.413.604 1.14.66 1.47 2.184.742 2.816.042a5.303 5.303 0 0 0-.989-.522c-.206-.083-.11-.261-.124-.646a15.486 15.486 0 0 0-.096-1.154c-.027-.206-1.786-.26-2.115-.068Z" fill="#D2CAFF"/>
    <path d="M29.32 18.154s-.013.247-.054.536c.178.178.412.426.59.577.124.11.426.096.7.096.248 0 .468.027.564-.028.22-.11.536-.384.714-.59-.013-.248-.027-.481-.04-.591-.015-.192-2.144-.192-2.474 0Z" fill="#947BFB"/>
    <path d="M30.57 19.198c-.164 0-.357-.014-.508-.041-.068-.014-.137-.055-.192-.083-.096-.069-.192-.15-.302-.233-.22-.165-.234-.261-.234-.302.096-.866-.027-1.594-.027-1.594s-.096-.37.426-.467c.522-.096.837-.11.837-.11s.33 0 .838.11c.522.096.426.467.426.467s-.123.728-.027 1.594c0 .04-.014.137-.234.302-.192.137-.343.288-.494.316a3.033 3.033 0 0 1-.508.04Z" fill="#947BFB"/>
    <path d="M30.571 16.012c-.907 0-1.085.247-1.346.522-.055.068-.014.48.082 1.36h.124s-.083-.248-.069-.536c.014-.289.069-.275.028-.343-.055-.083-.165-.22.082-.358.247-.137.632.11 1.099.124.467-.014.865-.261 1.113-.124.247.138.137.275.082.358-.055.082.014.054.028.343.013.288-.07.536-.07.536h.124c.083-.88.138-1.264.097-1.333-.234-.302-.467-.536-1.374-.55ZM34.925 26.836s-.261.838-.77 1.127c-.11-.055-.096-.138-.192-.261-.027-.042-.123-.07-.165-.11-.04-.041-.027-.11-.096-.165-.055-.055-.096-.014-.15-.055-.056-.055-.07-.124-.11-.165-.028-.027-.138-.041-.166-.069-.068-.068-.673-.192-.645-.33.055-.205.165-.356.165-.356s.26-.385.522-.371c.26.014.508.068.645-.055.151-.138 1.003.37.962.81Z" fill="#947BFB"/>
    <path d="M33.139 20.764s.865-.206 1.456.358c.59.576.55 1.29.37 1.73.152.179.427.673.22 1.264.907.77.509 1.95-.302 2.734 0 0-.192-.715-.961-.756.027-.275-.714-.495-.371-1.209-.522-.123-.508-.48-.59-.92-.07-.44.178-3.2.178-3.2Z" fill="#947BFB"/>
    <path d="M32.824 21.15s1.003-.509 1.593.068c.591.577.426 1.209.248 1.648.15.179.508.687.288 1.291-.041.138-.343.138-.563.495.55-.316.893-.234 1.016.165.193.618-.233 1.36-.604 1.772 0-.014-.014-.028-.014-.041-.055.206-.123.604-.536 1.044-.206.22-.37.192-.604.137-.275-.069-.37-.192-.756-.398-.22-.124-.096-.275-.096-.399 0-.027.028-.069.07-.123.026-.07.109-.179.233-.303 0 0 .178-.247.44-.233.26.014.535-.041.604-.11 0-.48-.55-.495-.358-1.319.014-.041.083-.11.303-.137-.33-.069-.481-.083-.715-.302a1.014 1.014 0 0 1-.33-.59c-.082-.427-.22-2.666-.22-2.666Z" fill="#D2CAFF"/>
    <path d="M29.924 20.284a2.484 2.484 0 0 0-1.319-.879c-.233-.069-.384.124-.618.261-.068-.041-.37-.179-.535-.082-.165.096-.275.192-.44.26-.082-.04-.302-.04-.48.028-.18.055-.454.178-.715.536-.165.59 2.912.15 2.912.15l1.195-.274Z" fill="#947BFB"/>
    <path d="M29.952 20.284c-.44-.151-.37-.66-1.346-.742-.192-.014-.316.137-.453.233a.856.856 0 0 1 .178.289c-.123-.137-.343-.316-.563-.357-.206-.041-.343.11-.563.22.041.04.082.11.137.192-.192-.124-.33-.165-.59-.069a1.517 1.517 0 0 0-.783.577c-.165.59 2.774-.069 2.774-.069l1.21-.274Z" fill="#B3A0FF"/>
    <path d="M32.535 20.503s0-.15-.014-.288c0-.027-.11-.096-.11-.123l-.027-.028s.22-.124.384-.055c.179.055.275.288.275.288.316-.11.343.014.495.18.33-.07.37.054.577.356 0 0-.248-.041-.729.041-.467.069-.851-.384-.851-.37Z" fill="#947BFB"/>
    <path d="M32.48 20.434s.083-.069.056-.083c.15-.082.357-.178.453.083.316-.11.357.04.508.206.385-.179.412.041.44.137-.124 0-.302.014-.55.041-.467.07-.92-.398-.906-.384Z" fill="#B3A0FF"/>
    <path d="M27.81 20.09s.783.276 1.443.234c.66-.055 1.785-.11 2.39.248 0 0 .618-.22 1.195-.07.577.152 1.635 1.141 1.319 2.185-.028.069-.206.178-.412.247 0 0 .11.467-.083.852-.192.37-.618 1.085-.632 2.074-.013.165-.04.508-.068.673-1.072-.041-2.72-.44-4.341-.412.014-.178.027-.288.041-.467h.041c-.082-.453-.11-.687-.192-1.03-.522-.33-1.072-.714-1.538-1.442-.454-.729.837-3.091.837-3.091ZM33.112 27.509s.852 3.05-.151 4.327c0 0 .15.59-.192 1.222-.055.275-.124.522-.165.797-.179 1.14-.481 1.62-.563 3.448l-.825-.014s-.096-1.319-.384-2.02c-.165-.397-.81-.933-.783-1.469.027-.412.11-.755.81-1.305.055-.797-.742-1.552-.618-4.52l2.87-.466Z" fill="#947BFB"/>
    <path d="M32.864 27.386c.22 1.4.728 3.475-.192 4.492.04.192.068.467.013.782a3.205 3.205 0 0 1-.15.536c-.138.33-.193.81-.234 1.1-.179 1.14-.179 1.194-.261 3.021l-.825-.014s-.096-1.318-.384-2.019c-.165-.398-.508-.742-.536-1.277-.027-.412.261-1.236.948-1.21-.041-1.661-.81-1.331-1.016-4.793l2.637-.618ZM27.81 20.09s.301.097.63.124c.33.028.688 0 1.004-.013.659-.055 1.593-.124 2.211.233 0 0 .344-.11.715-.082.164.014.33.15.522.206.604.15 1.18 1.154.92 2.06-.028.069-.22 0-.44.069a1.82 1.82 0 0 1-.15 1.099c-.234.467-.537 1.071-.482 2.225-1.442-.068-2.088-.165-3.516-.233-.124-.508-.206-1.017-.22-1.278a1.37 1.37 0 0 0 .453-.343c-.412.069-.577.041-.824-.096-.247-.138-.687-.577-.906-.866-.028-.027-.179.426-.522.44-.124-.179.398-.687.302-.88-.344-.7.302-2.664.302-2.664Z" fill="#D2CAFF"/>
    <path d="M32.975 26.245s.027.495.027.618c0 .138.11.55.124.742-.151.261-.81.852-2.006 1.071-1.181.248-2.747-1.607-2.747-1.607.041-.178.179-.7.275-.975a.435.435 0 0 0 .041-.124c.124-.178 4.286.275 4.286.275Z" fill="#947BFB"/>
    <path d="M32.672 26.286c0 .343.055.59.097.81.068.399.178.66.178.921 0 .797-1.044.66-1.923.687-1.181.247-2.184-1.607-2.184-1.607.082-.316.137-.673.26-.976.014-.165.042-.37.056-.467 1.676 0 2.857.096 3.544.165.027.151 0 .412-.028.467Z" fill="#D2CAFF"/>
    <path d="M31.354 28.058s-.728-1.62-2.912-1.14c-.522 1.47-1.223 3.16-.77 4.987-.453.618-.975.961-.975 2.101 0 1.14.055 1.333.055 1.333l1.607.082s.522-.673.728-1.4c.055-.207.11-.578.07-1.004.054-.082.288-.274.315-.645 0 0 .783-.412 1.236-1.415.426-.907.316-1.69.646-2.899Z" fill="#947BFB"/>
    <path d="M31.353 28.058c-.041-.15-.59-1.634-2.623-1.195-1.196 3.187-.756 4.506-.578 5.083-.81 1.03-1.18 1.25-1.016 3.338h1.072c.494-.783.604-1.072.631-2.102 0-.041-.15.082-.26.22.082-.426.315-.508.494-.77a.814.814 0 0 0 .151-.494c.962-.645 1.319-1.456 1.525-2.294.165-.577.357-1.525.604-1.786Z" fill="#D2CAFF"/>
    <path d="M27.96 25.848s.372.013.701.123c.316.11.316.179.44.316.124.138.426.344.37.55-.027.11-.095.137-.191.233-.042.041-.344.371-.413.412-.04.028-.096.069-.137.096l-.206.138c-.137.069-.233.11-.384.096 0 0-.344-.014-.564-.247 0 0-.027-.11.028-.165 0 0-.289-.247-.371-.412a.695.695 0 0 1-.028-.522c.028-.124.564-.467.756-.618ZM28.304 39.213l-.041.343s-.124.151-1.044.138c-.934-.014-1.181-.303-1.264-.454l-.055-.357s.179-.26.22-.26c.302.027 1.333.439 2.047.549.068 0 .082.027.137.04ZM30.296 38.512c0 .151-.014.151-.014.302.165.124.577.192 1.36.179 1.14-.028 2.198.343 3.49.123l.013-.247-.124-.014-4.574-.37-.151.027Z" fill="#947BFB"/>
    <path d="M31.3 38.993h.343c.742-.028 1.442.137 2.198.178.398-.013.893-.11.852-.398l-3.902-.33c-.233.261-.055.481.508.55ZM26.82 33.21c.124.082.962.577 2.322.508-.028.261-.014.77-.618 1.662-.303.44-.564 1.21-.618 2.184.013.22.137.413-.028.701.055.178.275.536.385.755.11.22.165.467-.564.481-.741.014-1.936-.068-1.772-.645.083-.303.317-.619.344-.742.027-.124.027-.495.26-.742.207-.687.138-1.346.097-1.964-.069-.646-.082-1.676.192-2.198ZM28.098 22.015c.975-1.305.15-2.35-1.415-2.033-.632.123-1.264.563-1.305 1.36-.206.027-.673.055-.907.906-.178.66-.274.783-.59 1.113-.206.233.014.714.165 1.058.508 1.18 2.074 1.29 3.131 2.184.358-.097.729-.495.838-.756-.893-1.058-.7-1.47-1.057-2.019.384-.137 1.264-.673 1.14-1.813Z" fill="#947BFB"/>
    <path d="M27.906 21.932c.055-.082.152-.261.193-.33.014-.014.165.247.178.234.371-.605.467-1.484.041-1.566a2.444 2.444 0 0 1-.425-.11c-.275-.096-.522-.096-.962-.014-.604.11-1.209.55-1.209 1.181 0 .042.426.165.55.674-.206-.289-.563-.605-.99-.33-.453.288-.22.948-.823 1.634-.207.234-.18.509.04 1.058.358.866 2.047 1.333 2.968 2.157.22-.096.37-.316.48-.48-.618-.646-.865-1.251-1.043-1.69-.22-.509-.468-.797-.948-1.182.247.096.44.192.55.275a.547.547 0 0 0 .466.041c.591-.206.907-1.03.934-1.552Z" fill="#D2CAFF"/>
    <path d="M33.88 22.152c-.04.522-.425.261-.63.165-.413-.179-.825-.302-1.306-.302-.48 0-1.099.04-1.634.178-.742.206-.962.193-1.292.028-.33-.179-.906-.619-.906-.619s-.014.138.123.317c.179.22.577.494 1.113.672.26.083.467.028.7-.027 1.223-.302 2.514-.357 3.6.302.054.028.247-.055.33-.178.109-.179-.097-.536-.097-.536ZM27.63 27.386c.11.069.248.11.4.233 0 0-.125 0-.18-.055a1.92 1.92 0 0 1-.22-.178Z" fill="#947BFB"/>
    <path d="M31.6 16.492c-.04-.124-.343-.344-1.043-.344-.756 0-.976.234-.99.358 0 .04-.054.48-.068.659 0 0 0 .22.014.55.013.22.068.343.096.631.027.302.11.495.26.742.07.041.125.082.193.096.275.055.756.069 1.017 0 .15-.041.343-.302.384-.536.055-.288.11-.494.124-.673.027-.178.041-.577.055-.686a2.886 2.886 0 0 0-.041-.797Z" fill="#D2CAFF"/>
    <path d="M30.159 33.47s.728.317 2.527.042c0 0-.508 2.555-.275 3.832 0 0 .234.33 1.965.962 0 0 .769.192.741.577 0 0 .028.082-.906.055-.934-.028-1.813-.193-2.432-.193-.618 0-1.277.028-1.387-.15-.123-.165.027-.591.206-.839.193-.26.137-.453.124-.92-.042-1.222-.976-2.486-.564-3.365Z" fill="#947BFB"/>
    <path d="M30.007 33.704c-.096.138.014.66.151 1.168.137.508.44.81.508 1.648.07.824.083.934-.15 1.415-.234.48-.303.92.508.934.81.014 1.25-.014 2.074.11.824.124 1.112.165 1.566.096.453-.068.55-.22.357-.357-.192-.137-.99-.288-1.333-.563-.33-.247-1.263-.66-1.277-.77-.041-.37-.055-1.716.014-2.156.068-.44.165-1.072.192-1.236.028-.165.165-.33-.069-.275-.233.055-1.112.178-1.772.137-.659-.04-.728-.192-.769-.15Z" fill="#B3A0FF"/>
    <path opacity=".3" d="M30.475 37.95c.233.11.577.192.838.192 0 0-.096.453.055.728.15.274-1.1.11-1.1.11l-.054-.976.26-.055ZM34.116 39.13c.22-.069.37-.316.192-.55-.192-.233-.357-.274-.11-.288.247-.014 1.154.536 1.154.536l-.467.426-.77-.124ZM29.966 34.24c.316.11.797.138 1.209.124.412-.014 1.03-.069 1.428-.206.399-.137.234.151.234.151l-.22.206s-.522.206-1.373.193c-1.003-.014-1.305-.124-1.305-.124l.027-.343ZM29.994 34.928c.316.11.797.137 1.209.123.412-.014.961-.014 1.36-.165.165-.055.069.179.069.179l-.07.123s-.535.193-1.373.179c-1.003-.014-1.181-.096-1.181-.096l-.014-.343Z" fill="#947BFB"/>
    <path d="M29.087 25.298c0 .096 1.071.632 1.662.742.59.11 1.827 0 2.02-.042l-.028.193s-1.47.22-2.596-.083c-1.127-.302-1.003-.37-1.003-.37l-.055-.44Z" fill="#947BFB"/>
    <path d="M26.794 37.014c.165.083.755.234 1.14.151.055-.013 0-.947.151-1.373.22-.591.577-1.072.742-2.116a8.614 8.614 0 0 1-1.58-.316c-.44 1.347-.288 2.5-.453 3.654ZM27.714 37.88c.096.027.165.137.192.068.055-.123-.096-.357-.11-.522v-.013c-.123-.11-.961-.124-.906-.07-.096.18-.248.152-.302.51-.028.178.192.027.398.013-.371.247-.797.563-.866.838-.082.384.055.494.468.7.357.083.782.097 1.112.083.371-.069.44-.247.33-.495a4.985 4.985 0 0 1-.316-1.112Z" fill="#D2CAFF"/>
    <path d="M27.864 20.035c.454.261 1.086.192 1.32.179.054 0 .604-.096.631-.083.055.014.055.055.055.055s-.206.11-.673.137c-.44.028-.962 0-1.25-.137-.343-.15-.082-.15-.082-.15ZM32.536 20.297c.082.055.618.261.851.509.206.22.097.206.055.15-.055-.068-.48-.356-.645-.425-.165-.069-.371-.192-.371-.22 0-.027.11-.014.11-.014Z" fill="#947BFB"/>
    <path d="M27.795 25.998c.398-.028.81.068 1.071.343.137.137.357.288.33.426 0 .041-.083.151-.151.233-.041.055-.165.179-.206.22-.055.041-.247.193-.289.22-.04.027-.096.096-.137.11-.137.069-.289.014-.426-.055s.028-.082-.123-.192c-.371-.261-.578-.44-.426-.948.013-.096.164-.206.357-.357Z" fill="#D2CAFF"/>
    <path opacity=".4" d="M24.293 22.853c-1.236.494-4.382 2.06-5.274 2.541.741.467 1.085 1.594 1.195 2.734l.04.316c.014.096.028.164.042.206 0 .013 0 .04.014.055.81-2.212 3.709-4.547 3.819-4.726.054-.082-.07-.44.123-.783.247-.44.728-.632.041-.343ZM27.232 33.223c.631-1.264.645-2.472.631-3.887 0-.59.426-1.429.207-1.195-.825.92-2.899 2.65-4.396 2.747 2.102-.069 2.926.989 3.558 2.335Z" fill="#947BFB"/>
    <path d="M17.809 26.56c.783-.563 4.835-2.72 5.81-3.022.975-.316.673-.686.673-.686s-3.956 1.703-6.319 3.173" fill="#947BFB"/>
    <path opacity=".4" d="M29.347 22.59c-.316-.123-.563.248-.48.605.082.357.824.756.782 2.06-.027 1.072-.26 1.512-.26 1.512l-.523-.66s-.082-1.483-.26-1.703c-.179-.22-.742-.618-.962-.824-.22-.206.247-.481.22-.866-.028-.37.233-1.112.233-1.112l1.25.989ZM31.257 28.442c-.027 1.03.206 2.555.303 3.284.096.727.22.782 0 1.112-.22.316-.509.838-.509.838l-.947-.082s.755-.962.796-1.14c.041-.18-.384-1.539-.384-1.539l.741-2.473ZM29.43 18.827c.192.425.425.618.796.741.22.083 1.085.193 1.429-.192.151-.178.055-.66.055-.66l-.783.633-1.058-.193-.123-.316-.316-.013Z" fill="#947BFB"/>
    <path d="M29.511 19.775c.357.234 1.25.454 1.498.495.247.055.645-.261.837-.343.207-.097.564-.152.976.22.04.04-.096.22-.096.22-.014-.015-.097-.015-.206-.07a.62.62 0 0 0-.371-.082c-.687.082-.797.316-1.402.178-.604-.137-.755-.247-1.346-.22" fill="#B3A0FF"/>
    <path d="M29.511 19.775c.357.234 1.25.454 1.498.495.247.055.645-.261.837-.343.207-.097.564-.152.976.22.04.04-.096.22-.096.22-.014-.015-.097-.015-.206-.07a.62.62 0 0 0-.371-.082c-.687.082-.797.316-1.402.178-.604-.137-.755-.247-1.346-.22" stroke="#947BFB" stroke-width="1.586" stroke-miterlimit="10" stroke-linejoin="round"/>
    <path d="M29.389 19.816c.453.193 1.332.399 1.58.454.247.055.645-.193.837-.316.344-.22.783-.041.99.192.137.151.192.247.192.289 0 .054-.165 0-.165 0-.096-.042-.206-.055-.289-.11-.11-.055-.22-.138-.384-.124-.687.082-.824.316-1.415.179-.59-.138-.742-.261-1.374-.22" fill="#B3A0FF"/>
    <path d="M27.26 32.646c-.028-.027.027-.055 0-.055-.179 0-.426-.137-.563-.33-.591-.85-1.456-1.414-3.022-1.373-2.35.055-3.284-.907-3.462-2.747-.096-1.003-.37-1.978-.934-2.528l-.33.206c.632.55.838 1.443.975 2.665.22 1.84 1.704 2.693 3.435 2.72 1.8.027 2.445.398 3.118 1.305.22.288.467.385.66.426l.123-.289Z" fill="#947BFB"/>
    <path opacity=".4" d="M33.633 23.814c.041.206.151.604.37.796.097.096.11.124.028.124s-.687-.028-.687-.028l-.164-.288.453-.604Z" fill="#947BFB"/>
    <circle cx="28" cy="28" r="27.5" stroke="#947BFB"/>
</svg>
