<svg width="56" height="56" fill="none" xmlns="http://www.w3.org/2000/svg">
    <circle cx="28" cy="28" r="27.5" stroke="#947BFB"/>
    <path d="M49.5 28c0 11.874-9.626 21.5-21.5 21.5S6.5 39.874 6.5 28 16.126 6.5 28 6.5 49.5 16.126 49.5 28Z" stroke="#947BFB"/>
    <path fill-rule="evenodd" clip-rule="evenodd" d="M27.966 36.07c-1.564 0-2.773-.235-3.354-.375a6.452 6.452 0 0 1-.96-.297l.776 1.325.303 4.139c0 .464 1.474.84 3.292.84 1.818 0 3.292-.376 3.292-.84l.24-4.184.734-1.283a6.385 6.385 0 0 1-.968.3c-.582.14-1.79.375-3.355.375Zm4.348-13.467c-1.148.16-2.672.249-4.29.249-1.62 0-3.144-.089-4.292-.249-.569-.08-1.018-.173-1.337-.278a1.934 1.934 0 0 1-.33-.137l.712 6.547a6.408 6.408 0 0 1 .759-1.635c.129-.195.266-.375.412-.539.146-.164.295-.306.449-.424.153-.119.308-.211.464-.278.156-.067.311-.1.465-.1.176 0 .347.048.512.145.165.097.32.253.463.47a.375.375 0 0 1 .063.146c.008.05.013.096.013.14a.372.372 0 0 1-.074.244.222.222 0 0 1-.177.09c-.062 0-.12-.033-.173-.098a1.857 1.857 0 0 1-.179-.281.68.68 0 0 0-.205-.24.433.433 0 0 0-.243-.074c-.136 0-.282.056-.436.169a2.531 2.531 0 0 0-.459.446 4.9 4.9 0 0 0-.435.635 6.61 6.61 0 0 0-.368.731c-.107.25-.192.496-.255.739-.063.242-.095.46-.095.653 0 .065.005.13.013.198a.67.67 0 0 0 .05.185c.024.055.057.1.099.136a.235.235 0 0 0 .159.054.536.536 0 0 0 .244-.073c.091-.048.186-.111.284-.19.098-.078.197-.166.296-.265a4.721 4.721 0 0 0 .504-.591c.066-.094.115-.175.148-.244l.27-.81a.381.381 0 0 1 .13-.187.287.287 0 0 1 .165-.055c.027 0 .054.005.082.014a.204.204 0 0 1 .123.119.287.287 0 0 1 .02.109c0 .11-.01.213-.03.31-.02.097-.044.191-.074.283-.03.092-.064.184-.1.278-.038.093-.073.19-.108.291a.662.662 0 0 0-.043.109 18.98 18.98 0 0 0-.169.538l-.104.348a27.587 27.587 0 0 0-.192.657 70.171 70.171 0 0 0-.098.342.813.813 0 0 1-.122.25.464.464 0 0 1-.096.1.177.177 0 0 1-.108.04c-.062 0-.107-.021-.136-.062-.028-.042-.042-.118-.042-.228v-.048a1.223 1.223 0 0 1 .047-.259 20.296 20.296 0 0 1 .22-.74l.118-.367c-.103.115-.215.23-.335.343a3.61 3.61 0 0 1-.37.307 2.19 2.19 0 0 1-.382.222.904.904 0 0 1-.37.087.662.662 0 0 1-.35-.09l-.052-.035.396 4.15c.103.258 2.043.893 4.601.893 2.56 0 4.5-.635 4.601-.893l.569-4.935-.137.127a5.958 5.958 0 0 1-.461.391c-.145.11-.286.194-.424.253a1.1 1.1 0 0 1-.443.09.536.536 0 0 1-.342-.096.321.321 0 0 1-.12-.266v-.026c0-.008 0-.018.002-.03a.627.627 0 0 1 .09-.237c.053-.09.116-.183.19-.28a7.62 7.62 0 0 1 .236-.293c.083-.099.16-.192.231-.28.071-.09.13-.17.176-.244a.365.365 0 0 0 .07-.18c0-.027-.01-.049-.029-.065-.02-.016-.051-.024-.096-.024a.546.546 0 0 0-.24.06c-.083.04-.164.095-.245.162-.08.068-.16.146-.236.233a3.425 3.425 0 0 0-.399.557 3.995 3.995 0 0 0-.19.371 8.99 8.99 0 0 0-.07.155 9.523 9.523 0 0 1-.08.178 8.003 8.003 0 0 0-.078.172l-.062.145a2.139 2.139 0 0 0-.087.205 24.59 24.59 0 0 0-.17.446l-.09.241-.074.2a1.973 1.973 0 0 0-.041.117 1.26 1.26 0 0 1-.068.17.7.7 0 0 1-.09.14.413.413 0 0 1-.117.096.297.297 0 0 1-.147.036.288.288 0 0 1-.173-.05c-.046-.033-.069-.097-.069-.192 0-.046.006-.093.018-.14.011-.05.026-.097.043-.144l.054-.138a4.43 4.43 0 0 0 .051-.13c.105-.23.212-.46.32-.691.11-.231.213-.46.314-.687l.06-.14-.018.018c-.127.122-.252.23-.377.322a2 2 0 0 1-.373.223.879.879 0 0 1-.36.083.464.464 0 0 1-.2-.038.333.333 0 0 1-.127-.104.413.413 0 0 1-.069-.155c-.005-.02-.007-.042-.01-.063a2.095 2.095 0 0 1-.458.282.786.786 0 0 1-.315.078.298.298 0 0 1-.227-.093c-.059-.062-.088-.168-.088-.318 0-.105.016-.229.047-.369-.05.09-.114.18-.19.273a1.655 1.655 0 0 1-.259.252 1.291 1.291 0 0 1-.326.184c-.12.047-.251.07-.393.07a.701.701 0 0 1-.185-.023.386.386 0 0 1-.264-.24.649.649 0 0 1-.029-.352 2.25 2.25 0 0 1 .075-.32c.041-.147.106-.336.193-.568.088-.232.211-.514.37-.845a.467.467 0 0 1 .141-.188.294.294 0 0 1 .34-.007c.025.017.045.04.06.066a.178.178 0 0 1 .024.09.24.24 0 0 1-.009.066c-.01.04-.03.09-.062.154l-.112.217-.136.264a3.745 3.745 0 0 0-.132.293c-.041.102-.076.204-.105.309a1.33 1.33 0 0 0-.05.305c0 .042.01.08.03.114.019.035.051.052.096.052a.608.608 0 0 0 .36-.124c.115-.083.221-.186.318-.309s.185-.255.264-.397c.078-.141.144-.27.196-.388.037-.078.07-.162.098-.252.028-.09.059-.172.092-.248a.769.769 0 0 1 .113-.19.201.201 0 0 1 .16-.076c.07 0 .126.027.166.08.041.053.062.116.062.19a.543.543 0 0 1-.04.17 4.96 4.96 0 0 1-.099.249l-.13.298c-.046.106-.09.213-.129.323-.04.109-.073.216-.099.32a1.2 1.2 0 0 0-.04.292c0 .083.043.124.129.124.06 0 .135-.02.224-.062a1.527 1.527 0 0 0 .355-.233c.027-.113.06-.217.096-.312.068-.18.137-.358.207-.535l.192-.486.883-2.225a.373.373 0 0 1 .141-.19.338.338 0 0 1 .18-.055c.06 0 .114.02.164.059.05.039.074.102.074.19a.389.389 0 0 1-.025.13 1.59 1.59 0 0 1-.062.149 55.222 55.222 0 0 0-.625 1.482l-.236.58a69.508 69.508 0 0 0-.389.977 1.953 1.953 0 0 0-.062.184.682.682 0 0 0-.03.188c0 .035.005.062.017.083.011.02.034.031.067.031.04 0 .091-.014.152-.043.062-.029.128-.067.198-.114.071-.047.145-.101.222-.162a6.711 6.711 0 0 0 .63-.567.13.13 0 0 1 .045-.03c.033-.098.063-.194.09-.288l.063-.176c.027-.076.059-.15.093-.224a.957.957 0 0 1 .118-.191c.044-.054.091-.081.142-.081.077 0 .134.017.169.053s.052.088.052.157a2.4 2.4 0 0 1-.04.255.433.433 0 0 1-.018.066c.072-.078.15-.156.233-.233a2.4 2.4 0 0 1 .259-.209c.09-.062.18-.112.274-.152a.678.678 0 0 1 .47-.03.55.55 0 0 1 .169.08c.05.036.09.081.12.135a.37.37 0 0 1 .047.188.744.744 0 0 1-.071.302 2.173 2.173 0 0 1-.18.322c-.07.108-.149.214-.232.316l-.234.28-.184.213c-.05.059-.075.099-.077.12 0 .027.009.05.026.067.018.017.047.025.087.025a.337.337 0 0 0 .146-.055c.064-.037.154-.1.27-.191.115-.091.262-.213.44-.366.121-.105.264-.23.424-.372l.77-7.133a1.924 1.924 0 0 1-.329.137c-.318.105-.768.199-1.337.278Zm-4.296-1.692c-3.33 0-6.029.372-6.029.831 0 .46 2.7.832 6.03.832s6.029-.372 6.029-.832c0-.459-2.7-.831-6.03-.831Zm2.408 1.074c0 .108-.32.195-.717.195-.395 0-.716-.087-.716-.195 0-.107.32-.195.716-.195.396 0 .717.088.717.195Z" fill="#947BFB"/>
    <path fill-rule="evenodd" clip-rule="evenodd" d="M29.14 21.899a.033.033 0 0 0-.006.017c0 .07.258.127.577.127.318 0 .576-.057.576-.127l.754-3.054 2.996-3.164a.077.077 0 0 0 .003-.003c.063-.071-.066-.293-.28-.484-.213-.19-.443-.255-.515-.182l-.001.002-3.197 3.363-.908 3.505Z" fill="#947BFB"/>
</svg>
