<svg width="56" height="56" fill="none" xmlns="http://www.w3.org/2000/svg">
    <circle cx="28" cy="28" r="27.5" stroke="#947BFB"/>
    <path d="M49.5 28c0 11.874-9.626 21.5-21.5 21.5S6.5 39.874 6.5 28 16.126 6.5 28 6.5 49.5 16.126 49.5 28Z" stroke="#947BFB"/>
    <path d="M20.604 36.007 19 18h17.637l-1.604 17.997L27.804 38" fill="#947BFB"/>
    <path d="M27.82 36.468v-16.99h7.21L33.654 34.84" fill="#AD9AFC"/>
    <path d="M22.277 21.68h5.542v2.207H24.7l.203 2.26h2.917v2.203H22.88l-.603-6.67Zm.7 7.779h2.217l.156 1.764 2.47.661v2.305l-4.532-1.264" fill="#10164A"/>
    <path d="M33.34 21.68H27.81v2.207h5.328l.204-2.207Zm-.403 4.468H27.81v2.207h2.722l-.258 2.868-2.464.661v2.295l4.52-1.254" fill="#10164A"/>
</svg>
