<svg width="56" height="56" fill="none" xmlns="http://www.w3.org/2000/svg">
    <path d="M49.5 28c0 11.874-9.626 21.5-21.5 21.5S6.5 39.874 6.5 28 16.126 6.5 28 6.5 49.5 16.126 49.5 28Z" stroke="#947BFB"/>
    <path fill-rule="evenodd" clip-rule="evenodd" d="M34.62 29.378a1.55 1.55 0 0 0 1.547-1.547 1.55 1.55 0 0 0-1.547-1.548 1.55 1.55 0 0 0-1.547 1.548 1.55 1.55 0 0 0 1.547 1.547Zm-.594-4.024L36.52 18H25.964l2.485 7.332c.113.023.223.053.33.09l2.47-4.995 2.463 5.024c.102-.039.207-.072.315-.097Zm-4.529 2.477a1.55 1.55 0 0 0-1.547-1.548 1.55 1.55 0 0 0-1.548 1.548 1.55 1.55 0 0 0 1.548 1.547 1.55 1.55 0 0 0 1.547-1.547Zm-6.695.014a1.55 1.55 0 0 0-1.548-1.547 1.55 1.55 0 0 0-1.547 1.547 1.55 1.55 0 0 0 1.547 1.548 1.55 1.55 0 0 0 1.548-1.548Zm12.08 6.058a3 3 0 0 0 1.47-2.079 3.108 3.108 0 0 0-.28-1.902 2.533 2.533 0 0 1-1.452.456 2.55 2.55 0 0 1-2.547-2.51l-1.576-.023a2.55 2.55 0 0 1-2.929 2.505 9.486 9.486 0 0 1-1.507 1.822 8.665 8.665 0 0 1-3.044 1.888l-.204.073-.192-.1c-1.407-.722-2.077-2.25-1.65-3.656a2.527 2.527 0 0 1-.66-.166c-.068.145-.138.29-.21.44-.42.86-.852 1.748-1.012 2.713-.173 1.042-.241 2.943 1.241 3.97 2.024 1.404 4.17.338 6.656-.897 1.242-.617 2.526-1.255 3.852-1.582a15.588 15.588 0 0 1 1.512-.27c.926-.133 1.801-.259 2.532-.682Z" fill="#947BFB"/>
    <circle cx="28" cy="28" r="27.5" stroke="#947BFB"/>
</svg>
