<svg width="56" height="56" fill="none" xmlns="http://www.w3.org/2000/svg">
    <circle cx="28" cy="28" r="27.5" stroke="#947BFB"/>
    <path d="M49.5 28c0 11.874-9.626 21.5-21.5 21.5S6.5 39.874 6.5 28 16.126 6.5 28 6.5 49.5 16.126 49.5 28Z" stroke="#947BFB"/>
    <path d="M37.988 18h-20v20h20V18Z" fill="#947BFB"/>
    <path d="M31.423 33.625c.403.658.927 1.142 1.854 1.142.779 0 1.276-.39 1.276-.927 0-.645-.511-.873-1.368-1.248l-.47-.201c-1.356-.578-2.257-1.302-2.257-2.832 0-1.41 1.074-2.483 2.752-2.483 1.195 0 2.054.416 2.673 1.505l-1.463.94c-.323-.578-.67-.806-1.21-.806-.55 0-.9.35-.9.806 0 .563.35.792 1.156 1.14l.47.202c1.597.685 2.499 1.383 2.499 2.953 0 1.692-1.33 2.619-3.115 2.619-1.745 0-2.873-.832-3.425-1.922l1.528-.888Zm-6.64.163c.296.524.565.967 1.21.967.618 0 1.007-.242 1.007-1.181v-6.39h1.88v6.415c0 1.946-1.141 2.832-2.807 2.832-1.505 0-2.376-.779-2.82-1.716l1.53-.927Z" fill="#10164A"/>
</svg>
