<svg width="56" height="56" fill="none" xmlns="http://www.w3.org/2000/svg">
    <circle cx="28" cy="28" r="27.5" stroke="#947BFB"/>
    <path d="M49.5 28c0 11.874-9.626 21.5-21.5 21.5S6.5 39.874 6.5 28 16.126 6.5 28 6.5 49.5 16.126 49.5 28Z" stroke="#947BFB"/>
    <path d="M17.844 17.17h21.443c.448 0 .878.177 1.195.49.317.312.496.736.496 1.179v1.678H16.152v-1.675a1.652 1.652 0 0 1 .495-1.181 1.695 1.695 0 0 1 1.196-.49h.001Z" fill="#7362CF"/>
    <path d="M39.287 17.17H17.844a1.708 1.708 0 0 0-1.195.492 1.664 1.664 0 0 0-.497 1.18v.133c.003-.442.182-.865.499-1.177a1.709 1.709 0 0 1 1.193-.489h21.443c.448.002.878.178 1.194.491.317.313.496.737.497 1.18v-.133c0-.444-.177-.869-.495-1.183a1.709 1.709 0 0 0-1.196-.493Z" fill="#fff" fill-opacity=".2"/>
    <path d="M16.152 20.517h24.826v.133H16.152v-.133Z" fill="#fff" fill-opacity=".1"/>
    <path fill-rule="evenodd" clip-rule="evenodd" d="M40.98 36.665V20.517H16.151v16.15c0 .444.18.868.497 1.18.317.313.747.489 1.196.489h21.443a1.713 1.713 0 0 0 1.196-.49 1.669 1.669 0 0 0 .495-1.18ZM25.108 26.203a9.117 9.117 0 0 1 3.449-.677v-.001a9.068 9.068 0 0 1 5.502 1.848l-2.833 2.797a5.13 5.13 0 0 0-5.14-.109 5.051 5.051 0 0 0-1.904 1.838 4.966 4.966 0 0 0-.701 2.535c-.01.186-.01.372 0 .558h-3.938c-.007-.094-.005-.227-.003-.36l.003-.198v-.011c0-2.36.95-4.623 2.64-6.292a9.021 9.021 0 0 1 2.924-1.928Z" fill="#7362CF"/>
    <path d="m34.058 27.368-2.835 2.798a5.04 5.04 0 0 1 1.771 1.822 4.96 4.96 0 0 1 .647 2.443c.01.185.01.371 0 .557h3.95c.012-.133 0-.37 0-.557a8.803 8.803 0 0 0-.931-3.939 8.923 8.923 0 0 0-2.602-3.124Z" fill="#7362CF"/>
    <path d="M18.408 19.4a.56.56 0 0 0 .565-.558.56.56 0 0 0-.565-.557.56.56 0 0 0-.564.557.56.56 0 0 0 .564.557ZM20.666 19.4a.56.56 0 0 0 .565-.558.56.56 0 0 0-.565-.557.56.56 0 0 0-.564.557.56.56 0 0 0 .564.557Z" fill="#10164A"/>
    <path d="M39.292 38.195h-21.45a1.709 1.709 0 0 1-1.197-.491 1.664 1.664 0 0 1-.497-1.18v.133c.002.443.18.867.497 1.18.318.313.747.49 1.196.49h21.45a1.708 1.708 0 0 0 1.194-.491c.316-.313.495-.737.496-1.18v-.132c-.001.442-.18.866-.496 1.179-.316.313-.745.49-1.193.492Z" fill="#fff" fill-opacity=".1"/>
    <path d="M34.084 27.707a.271.271 0 0 0 .054-.163.278.278 0 0 0-.083-.197.285.285 0 0 0-.2-.081.275.275 0 0 0-.173.06L27.53 32a1.674 1.674 0 0 0-.658 1.262 1.65 1.65 0 0 0 .564 1.306 1.696 1.696 0 0 0 1.378.406 1.703 1.703 0 0 0 1.197-.787l4.072-6.48h.001Z" fill="#7362CF"/>
    <path opacity=".2" d="m27.53 32.14 6.15-4.672a.28.28 0 0 1 .445.145.258.258 0 0 0 .011-.066.278.278 0 0 0-.083-.197.285.285 0 0 0-.2-.082.276.276 0 0 0-.173.061l-6.15 4.673a1.646 1.646 0 0 0-.66 1.322v.075a1.652 1.652 0 0 1 .66-1.258Z" fill="#7362CF"/>
    <path opacity=".2" d="m34.086 27.707-4.072 6.483c-.188.306-.47.544-.806.68-.336.135-.707.16-1.058.072a1.693 1.693 0 0 1-.893-.564 1.657 1.657 0 0 1-.378-.978v.064c0 .365.12.72.343 1.01.223.291.537.502.893.6.356.099.735.079 1.079-.055.343-.135.633-.377.824-.689l4.072-6.483a.272.272 0 0 0 .043-.235.293.293 0 0 1-.047.095Z" fill="#10164A"/>
</svg>
