<svg width="56" height="56" fill="none" xmlns="http://www.w3.org/2000/svg">
    <circle cx="28" cy="28" r="27.5" stroke="#947BFB"/>
    <path d="M49.5 28c0 11.874-9.626 21.5-21.5 21.5S6.5 39.874 6.5 28 16.126 6.5 28 6.5 49.5 16.126 49.5 28Z" stroke="#947BFB"/>
    <path fill-rule="evenodd" clip-rule="evenodd" d="M20.884 17h14.209c2.154 0 3.895 1.786 3.895 3.996v14.008c0 2.21-1.741 3.996-3.895 3.996H20.884c-2.154 0-3.896-1.786-3.896-3.996V20.996c0-2.21 1.742-3.996 3.896-3.996Zm1.053 15.428v-9.674c0-.066.028-.104.092-.104.156 0 .303 0 .514-.009.113-.005.229-.007.348-.01.112-.002.228-.004.348-.009.128-.005.261-.007.399-.01.129-.002.261-.004.399-.009.284-.009.559-.009.834-.009.752 0 1.375.094 1.888.291.459.16.88.423 1.229.771.293.301.522.668.669 1.072.137.395.21.8.21 1.222 0 .809-.183 1.477-.55 2.003a3.15 3.15 0 0 1-1.475 1.147c-.624.235-1.311.32-2.063.32-.22 0-.366 0-.458-.01-.092-.01-.22-.01-.394-.01v3.019a.116.116 0 0 1-.101.131h-1.779c-.073 0-.11-.037-.11-.122Zm1.999-7.963v3.159l.027.002c.118.009.228.017.33.017h.486c.358 0 .715-.057 1.054-.17.294-.084.55-.263.752-.498.192-.235.284-.555.284-.968a1.579 1.579 0 0 0-.21-.837 1.337 1.337 0 0 0-.642-.536 2.629 2.629 0 0 0-1.082-.188c-.238 0-.45 0-.623.01-.184-.01-.312 0-.376.009Zm9.772 2.266c.312.066.605.169.88.32.037.018.082.018.165 0a.117.117 0 0 0 .046-.095v-1.532a.481.481 0 0 0-.018-.113c-.019-.038-.056-.075-.092-.085a3.164 3.164 0 0 0-.788-.216 7.696 7.696 0 0 0-1.137-.085c-.651 0-1.192.104-1.623.33a2.279 2.279 0 0 0-.962.865 2.254 2.254 0 0 0-.312 1.137c-.009.33.064.658.211.96.174.319.413.591.697.798.403.282.834.508 1.301.677.45.179.752.32.899.442.146.122.22.244.22.376 0 .17-.101.33-.248.395-.165.085-.412.132-.76.132-.367 0-.734-.047-1.082-.141a3.864 3.864 0 0 1-1.137-.461c-.027-.019-.055-.028-.082-.01-.028.02-.037.057-.037.085v1.636c-.01.075.037.141.1.179.294.14.615.244.936.3.412.085.825.123 1.246.123.66 0 1.21-.104 1.66-.301.412-.17.77-.46 1.026-.837a2.23 2.23 0 0 0 .358-1.25 2.074 2.074 0 0 0-.211-.969 2.164 2.164 0 0 0-.724-.78 6.568 6.568 0 0 0-1.412-.686 8.283 8.283 0 0 1-.65-.31c-.12-.066-.23-.151-.312-.254a.424.424 0 0 1-.092-.245c0-.084.027-.178.073-.254a.47.47 0 0 1 .284-.188 1.8 1.8 0 0 1 .55-.066c.349 0 .688.047 1.027.123Z" fill="#947BFB"/>
</svg>
