<svg width="56" height="56" fill="none" xmlns="http://www.w3.org/2000/svg">
    <path d="M49.5 28c0 11.874-9.626 21.5-21.5 21.5S6.5 39.874 6.5 28 16.126 6.5 28 6.5 49.5 16.126 49.5 28Z" stroke="#947BFB"/>
    <path d="M16.97 24.892h3.694c1.083.009 1.869.321 2.356.937.487.615.648 1.456.482 2.521a4.838 4.838 0 0 1-.427 1.433 4.262 4.262 0 0 1-.882 1.268c-.46.478-.95.781-1.474.91a6.788 6.788 0 0 1-1.626.193h-1.654l-.524 2.618H15l1.97-9.88Zm1.613 1.57-.827 4.134c.055.01.11.014.165.014h.193c.882.01 1.617-.078 2.205-.261.588-.193.983-.864 1.185-2.012.165-.965 0-1.52-.496-1.668-.487-.147-1.098-.216-1.833-.207-.11.01-.216.014-.317.014h-.289l.014-.014M25.684 22.26h1.902l-.537 2.632h1.709c.937.018 1.635.211 2.094.579.468.367.606 1.065.413 2.094l-.923 4.589h-1.929l.882-4.382c.092-.46.064-.786-.083-.979-.147-.192-.464-.289-.95-.289l-1.53-.014-1.13 5.664H23.7l1.985-9.894ZM33.307 24.892h3.694c1.083.009 1.869.321 2.356.937.487.615.648 1.456.482 2.521a4.835 4.835 0 0 1-.427 1.433 4.262 4.262 0 0 1-.882 1.268c-.46.478-.95.781-1.474.91a6.788 6.788 0 0 1-1.626.193h-1.654l-.524 2.618h-1.915l1.97-9.88Zm1.613 1.57-.827 4.134c.055.01.11.014.165.014h.193c.882.01 1.617-.078 2.205-.261.588-.193.983-.864 1.185-2.012.165-.965 0-1.52-.496-1.668-.487-.147-1.098-.216-1.833-.207a3.86 3.86 0 0 1-.317.014h-.29l.015-.014" fill="#947BFB"/>
    <circle cx="28" cy="28" r="27.5" stroke="#947BFB"/>
</svg>
