<svg width="56" height="56" fill="none" xmlns="http://www.w3.org/2000/svg">
    <circle cx="28" cy="28" r="27.5" stroke="#947BFB"/>
    <path d="M49.5 28c0 11.874-9.626 21.5-21.5 21.5S6.5 39.874 6.5 28 16.126 6.5 28 6.5 49.5 16.126 49.5 28Z" stroke="#947BFB"/>
    <path d="M38.346 24.048c-.049-1.082.099-2.04-.393-2.852C36.773 19.18 33.823 18 27.922 18v.172h-.123.123V18c-5.901 0-8.999 1.18-10.179 3.22-.467.837-.418 1.771-.492 2.853-.049.86-.442 1.77-.27 2.753.196 1.279.27 2.557.467 3.738.147.958 1.475 1.77 1.598 2.68.344 2.507 2.95 3.663 8.851 3.663v.197h-.147.172v-.197c5.9 0 8.408-1.156 8.728-3.664.123-.934 1.352-1.72 1.5-2.68.196-1.18.27-2.458.467-3.737.172-.983-.222-1.917-.27-2.778Z" fill="#947BFB"/>
    <path d="M27.826 24.933c1.058.025 1.795.689 2.484 1.303.811.713 2.188 1.205 2.753 1.82.566.614 1.303 1.229 1.574 2.188.27.959.344 2.188.344 2.508 0 .32.172.245.664 0 1.155-.566 2.434-2.09 2.434-2.09-.148.959-1.401 1.82-1.525 2.729-.294 2.508-2.729 3.712-8.752 3.712h-.025.148" fill="#947BFB"/>
    <path d="M31.708 23.016c.221.762 1.008 3.344-.517 2.483 0 0 .64.37 1.033 1.77.418 1.402 1.426 1.574 1.426 1.574s1.647.32 2.877-.738c1.032-.885 1.204-2.458.762-3.663-.443-1.18-1.23-1.549-2.385-1.795-1.156-.27-3.467-.491-3.196.37Z" fill="#947BFB"/>
    <path d="M34.636 27.982a2.164 2.164 0 1 0 0-4.327 2.164 2.164 0 0 0 0 4.327Z" fill="#10164A"/>
    <path d="M34.073 25.425a.566.566 0 1 0 0-1.13.566.566 0 0 0 0 1.13ZM31.338 25.72s1.943 1.328 3 2.63c1.057 1.304 1.033 1.55 1.033 1.55l-.763.344s-1.081-2.04-2.409-2.803c-1.352-.762-1.5-1.401-1.5-1.401l.64-.32ZM27.901 24.933c-1.057.025-1.844.689-2.557 1.303-.811.713-2.237 1.205-2.803 1.82-.565.614-1.327 1.229-1.598 2.188-.27.959-.369 2.188-.369 2.508 0 .32.05.344-.663 0-1.156-.541-2.434-2.09-2.434-2.09.147.959 1.401 1.82 1.524 2.729.344 2.508 2.778 3.712 8.802 3.712h.123" fill="#947BFB"/>
    <path d="M33.604 29.088c-1.18-1.45-3.073-2.802-5.704-2.802h-.024c-2.63 0-4.524 1.352-5.704 2.802-1.23 1.5-1.131 2.09-1.131 3.516 0 5.163 1.82 3.688 3.024 4.328 1.23.614 2.508.417 3.81.417h.025c1.328 0 2.582.173 3.811-.442 1.205-.615 3.024.91 3.024-4.253.025-1.427.099-2.066-1.13-3.566Z" fill="#947BFB"/>
    <path d="M27.774 27.564s-.172 2.385-.516 2.852l.64-.148-.124-2.704Z" fill="#10164A"/>
    <path d="M27.947 27.564s.172 2.385.517 2.852l-.64-.148.123-2.704Z" fill="#10164A"/>
    <path d="M25.88 26.999c-.245-.566.64-1.475 2.041-1.5 1.402 0 2.287.91 2.041 1.5s-1.13.762-2.04.787c-.886-.025-1.795-.197-2.041-.787Z" fill="#947BFB"/>
    <path d="M27.922 27.564c0-.098.836-.123 1.278-.418 0 0-.91.295-1.106.172-.197-.098-.246-.393-.246-.393s-.074.295-.221.393c-.172.099-1.205-.172-1.205-.172s1.377.344 1.377.418c0 .074-.025.32-.025.492 0 .614 0 2.139.098 2.262.148.221.099-1.648.099-2.262-.025-.197-.025-.394-.05-.492Z" fill="#10164A"/>
    <path d="M27.97 30.859c.418 0 1.156.295 1.82.762-.64-.713-1.402-1.205-1.82-1.205-.442 0-1.377.54-2.04 1.328.688-.541 1.573-.885 2.04-.885Z" fill="#10164A"/>
    <path d="M27.8 35.21c-.934 0-1.844-.295-2.68-.516-.172-.05-.344.074-.516.024-1.549-.491-2.803-1.327-3.565-2.384v.245c0 5.164 1.82 3.713 3.024 4.328 1.23.614 2.508.418 3.811.418h.025c1.327 0 2.581.172 3.81-.443 1.205-.615 3.025.885 3.025-4.278 0-.197 0-.393.024-.565-.713 1.155-2.016 2.065-3.639 2.606-.147.049-.491-.074-.639-.05-.885.296-1.672.615-2.68.615Z" fill="#947BFB"/>
    <path d="M25.465 32.432s-.614 1.844-.196 2.655l-.566-.245s.418-1.869.762-2.41ZM30.332 32.432s.615 1.844.197 2.655l.565-.245s-.442-1.869-.762-2.41Z" fill="#10164A"/>
    <path d="M23.892 23.016c-.222.762-1.008 3.344.516 2.483 0 0-.64.37-1.033 1.77-.393 1.402-1.426 1.574-1.426 1.574s-1.647.32-2.876-.738c-1.033-.885-1.205-2.458-.762-3.663.442-1.205 1.229-1.549 2.384-1.795 1.156-.27 3.443-.491 3.197.37Z" fill="#947BFB"/>
    <path d="M27.898 30.416c.664 0 2.73 1.426 2.754 3.172v-.098c0-1.82-1.672-3.27-2.754-3.27s-2.753 1.475-2.753 3.27v.098c.024-1.746 2.09-3.172 2.753-3.172ZM28.441 27.012c.106-.027.15-.209.099-.406-.051-.197-.178-.335-.283-.308-.105.027-.149.209-.098.406.05.197.177.335.282.308ZM27.173 27.008c.103.032.236-.1.297-.294.06-.194.025-.378-.079-.41-.104-.032-.237.1-.297.294-.06.194-.025.378.079.41ZM21.09 27.982a2.164 2.164 0 1 0 0-4.327 2.164 2.164 0 0 0 0 4.327Z" fill="#10164A"/>
    <path d="M21.655 25.425a.565.565 0 1 0 0-1.13.565.565 0 0 0 0 1.13Z" fill="#947BFB"/>
    <path d="M28.54 25.843c0-.025-.566.246-.714.27-.147-.024-.713-.295-.713-.27h1.426Z" fill="#10164A"/>
    <path d="M24.235 25.72s-1.942 1.328-3 2.63c-1.056 1.304-1.032 1.55-1.032 1.55l.762.344s1.082-2.04 2.41-2.803c1.328-.762 1.5-1.401 1.5-1.401l-.64-.32ZM19.983 21.787s-.664 1.819-2.14 2.581c0 0 2.312-.27 2.14-2.581ZM35.497 21.787s.664 1.819 2.14 2.581c0 0-2.312-.27-2.14-2.581ZM31.291 25.179s-1.45-1.524-3.393-1.573h.05c-1.967.049-3.393 1.573-3.393 1.573 1.696-1.18 3.147-1.155 3.393-1.155-.025 0 1.647-.025 3.343 1.155ZM29.591 21.983s-.738-1.033-1.721-1.057h.049c-.738.024-1.696 1.057-1.696 1.057.836-.811 1.696-.787 1.696-.787s.811-.024 1.672.787Z" fill="#947BFB"/>
    <path d="M21.091 29.531s-1.155.566-1.991.221h-.025c-.738-.418-1.106-1.671-1.106-1.671s.737 2.212 3.122 1.45ZM34.563 29.531s1.155.566 1.991.221c.983-.418 1.131-1.671 1.131-1.671s-.738 2.212-3.123 1.45ZM22.414 21.663c.64-.123 1.696-.147 2.532.123 1.058.37.197 1.721.418 1.795.222.074.517-.934 2.484-.836 1.991.098 2.212.984 2.483.836.27-.148-.27-2.459 2.704-1.918 0 0-3.122-.836-2.975 1.426 0 0-1.794-1.377-4.302-.147.024 0 .664-2.115-3.344-1.279ZM33.309 21.663c.049 0 .073.025.098.025.025 0-.025-.025-.098-.025Z" fill="#947BFB"/>
    <path d="M21.557 18.64s-2.656 3.343-3.049 4.621c-.393 1.303-.688 6.639-1.033 7.4l-1.229-5.26 2.262-5.483 3.049-1.279ZM34.047 18.64s2.655 3.343 3.049 4.621c.393 1.303.688 6.639 1.032 7.4l1.23-5.26-2.262-5.483-3.05-1.279Z" fill="#947BFB"/>
    <path d="M33.926 18.64s2.852 2.384 3.688 5.138c.836 2.754.492 6.097 1.131 6.515.91.59 1.943-2.925 2.287-3.294.54-.59 2.336-2.09 2.459-2.36.123-.271-3.64-4.377-5.286-5.188-1.992-.934-4.45-1.008-4.279-.812Z" fill="#947BFB"/>
    <path d="M36.36 20.114s3.368 4.303 3.319 9.663l1.352-2.754c-.025 0-1.205-3.516-4.672-6.909ZM21.555 18.64s-2.852 2.384-3.688 5.138c-.836 2.754-.491 6.097-1.13 6.515-.91.59-1.943-2.925-2.287-3.294-.541-.59-2.336-2.09-2.459-2.36-.123-.271 3.639-4.377 5.286-5.188 1.992-.934 4.45-1.008 4.278-.812Z" fill="#947BFB"/>
    <path d="M19.12 20.114s-3.369 4.303-3.32 9.663l-1.327-2.754s1.18-3.516 4.646-6.909ZM17.3 29.875s.247 1.328.64 1.746c.393.418.123-.32.123-.32s-.418-.221-.344-1.917c.073-1.697-.418.491-.418.491ZM38.275 29.875s-.246 1.328-.64 1.746c-.393.418-.122-.32-.122-.32s.418-.221.344-1.917c-.074-1.697.418.491.418.491Z" fill="#947BFB"/>
    <path d="M25.345 29.064a.197.197 0 1 0 0-.393.197.197 0 0 0 0 .393ZM24.216 30.244a.197.197 0 1 0 0-.393.197.197 0 0 0 0 .393ZM23.845 29.064a.197.197 0 1 0 0-.393.197.197 0 0 0 0 .393ZM30.134 29.064a.197.197 0 1 0 0-.393.197.197 0 0 0 0 .393ZM31.267 30.244a.197.197 0 1 0 0-.393.197.197 0 0 0 0 .393ZM31.634 29.064a.197.197 0 1 0 0-.393.197.197 0 0 0 0 .393Z" fill="#10164A"/>
</svg>
