<svg width="56" height="56" fill="none" xmlns="http://www.w3.org/2000/svg">
    <circle cx="28" cy="28" r="27.5" stroke="#947BFB"/>
    <path d="M49.5 28c0 11.874-9.626 21.5-21.5 21.5S6.5 39.874 6.5 28 16.126 6.5 28 6.5 49.5 16.126 49.5 28Z" stroke="#947BFB"/>
    <path d="M38.082 29.069a5.79 5.79 0 0 0-2.536.588c-.26-.517-.52-.977-.567-1.315-.051-.393-.112-.634-.051-1.104.061-.47.337-1.14.332-1.192-.005-.051-.061-.292-.623-.297-.563-.005-1.048.108-1.104.256a6.17 6.17 0 0 0-.236.834c-.097.511-1.124 2.337-1.712 3.293-.189-.373-.353-.7-.388-.961-.051-.394-.113-.634-.051-1.105.06-.47.337-1.14.332-1.191-.005-.052-.062-.292-.624-.297-.562-.005-1.048.107-1.104.256-.056.148-.117.496-.235.833-.117.338-1.482 3.386-1.84 4.174a23.43 23.43 0 0 1-.455.946s-.005.015-.02.04c-.098.19-.154.292-.154.292v.005c-.076.139-.158.266-.2.266-.03 0-.086-.368.011-.87.205-1.058.69-2.705.685-2.76 0-.032.092-.318-.317-.466-.399-.149-.542.097-.577.097-.036 0-.062.087-.062.087s.445-1.852-.848-1.852c-.808 0-1.922.885-2.474 1.683-.348.19-1.089.593-1.881 1.028-.302.169-.613.337-.905.496-.02-.02-.04-.046-.061-.066-1.564-1.673-4.457-2.854-4.335-5.1.046-.818.328-2.966 5.556-5.574 4.304-2.123 7.729-1.535 8.322-.23.848 1.861-1.835 5.319-6.282 5.82-1.697.19-2.587-.466-2.811-.711-.236-.256-.271-.271-.358-.22-.143.077-.051.307 0 .44.133.348.68.961 1.605 1.263.818.266 2.806.414 5.213-.516 2.694-1.044 4.8-3.944 4.181-6.373-.618-2.465-4.707-3.278-8.576-1.903-2.3.819-4.795 2.107-6.589 3.785-2.131 1.995-2.469 3.729-2.33 4.455.495 2.577 4.047 4.255 5.468 5.498l-.194.107c-.71.353-3.42 1.77-4.094 3.268-.767 1.698.123 2.916.71 3.08 1.825.506 3.701-.405 4.708-1.908 1.007-1.504.884-3.458.42-4.353-.006-.01-.011-.02-.021-.03l.557-.328c.363-.215.72-.414 1.027-.578-.174.476-.301 1.044-.363 1.862-.076.961.317 2.21.833 2.7.23.215.501.22.675.22.603 0 .874-.501 1.176-1.094.368-.727.7-1.57.7-1.57s-.414 2.28.71 2.28c.41 0 .823-.531 1.008-.802v.005l.03-.051.067-.108v-.01c.163-.286.531-.936 1.078-2.015.706-1.391 1.385-3.13 1.385-3.13s.062.424.271 1.13c.123.414.378.87.583 1.31-.164.23-.266.358-.266.358l.005.005c-.133.174-.276.363-.434.547-.557.665-1.222 1.427-1.314 1.647-.107.26-.082.45.123.603.148.113.414.128.685.113.5-.036.853-.159 1.027-.236.271-.097.588-.245.884-.465.547-.404.88-.982.849-1.744-.015-.42-.153-.839-.322-1.233.05-.071.097-.143.148-.214.864-1.264 1.533-2.65 1.533-2.65s.062.425.271 1.13c.103.359.312.747.496 1.126-.813.66-1.314 1.427-1.492 1.928-.322.93-.072 1.35.403 1.447.215.046.522-.056.747-.153.286-.092.623-.25.945-.486.547-.404 1.074-.967 1.043-1.729a3.27 3.27 0 0 0-.235-1.023c.69-.286 1.58-.444 2.714-.311 2.433.286 2.913 1.805 2.822 2.444-.093.64-.604.987-.772 1.095-.169.107-.225.143-.21.22.02.112.102.107.245.087.2-.036 1.278-.517 1.324-1.693.077-1.504-1.354-3.146-3.884-3.13ZM19.312 35.4c-.807.88-1.931 1.212-2.417.931-.521-.302-.317-1.6.675-2.532.603-.567 1.38-1.094 1.896-1.416.118-.072.291-.174.501-.302l.056-.03.123-.077c.363 1.33.015 2.5-.833 3.426Zm5.879-4c-.281.686-.87 2.44-1.227 2.343-.307-.082-.496-1.411-.061-2.726.22-.66.685-1.447.956-1.754.44-.491.925-.655 1.042-.455.148.26-.536 2.163-.71 2.593Zm4.85 2.323c-.117.061-.23.102-.28.071-.036-.02.05-.102.05-.102s.609-.655.849-.951c.138-.174.302-.379.475-.609v.067c0 .782-.756 1.309-1.094 1.524Zm3.742-.854c-.087-.062-.072-.266.22-.906.112-.25.378-.67.833-1.074.051.164.087.323.082.47-.005.988-.71 1.356-1.135 1.51Z" fill="#947BFB"/>
</svg>
