<svg width="56" height="56" fill="none" xmlns="http://www.w3.org/2000/svg">
    <circle cx="28" cy="28" r="27.5" stroke="#947BFB"/>
    <path d="M49.5 28c0 11.874-9.626 21.5-21.5 21.5S6.5 39.874 6.5 28 16.126 6.5 28 6.5 49.5 16.126 49.5 28Z" stroke="#947BFB"/>
    <path d="M22.343 19.592 27.968 19l5.625.592 4.355 5.823-9.98 11.576-9.98-11.576 4.355-5.823Z" fill="#7362CF"/>
    <path d="m22.03 25.416 5.938 11.575-9.98-11.575h4.043ZM33.907 25.416 27.97 36.99l9.98-11.575h-4.043Z" fill="#9D8DF0"/>
    <path d="M22.031 25.416h11.875L27.97 36.99 22.03 25.416Z" fill="#7362CF"/>
    <path d="m27.969 19-5.625.592-.313 5.823L27.97 19Z" fill="#C7BAFF"/>
    <path d="m27.969 19 5.625.592.312 5.823L27.97 19Z" fill="#C7BAFF"/>
    <path d="m37.95 25.415-4.355-5.823.312 5.823h4.043ZM17.988 25.415l4.355-5.823-.312 5.823h-4.043Z" fill="#7362CF"/>
    <path d="m27.969 19-5.938 6.415h11.875L27.97 19Z" fill="#9D8DF0"/>
</svg>
