<svg width="56" height="56" fill="none" xmlns="http://www.w3.org/2000/svg">
    <circle cx="28" cy="28" r="27.5" stroke="#947BFB"/>
    <path d="M49.5 28c0 11.874-9.626 21.5-21.5 21.5S6.5 39.874 6.5 28 16.126 6.5 28 6.5 49.5 16.126 49.5 28Z" stroke="#947BFB"/>
    <path d="m27.99 14 12 6.75v13.5l-12 6.75-12-6.75v-13.5l12-6.75Z" fill="#947BFB"/>
    <path d="m37.846 33.785-9.46 5.322v-4.144l5.894-3.225 3.566 2.047Zm.648-.582V22.075l-3.46 1.989v7.153l3.46 1.986Zm-20.4.582 9.46 5.322v-4.144l-5.897-3.225-3.563 2.047Zm-.648-.582V22.075l3.46 1.989v7.153l-3.46 1.986Zm.406-11.85 9.703-5.457v4.006l-6.217 3.4-.05.028-3.436-1.976Zm20.236 0-9.702-5.457v4.006l6.217 3.397.05.028 3.435-1.973ZM27.556 34.02l-5.817-3.182v-6.3l5.817 3.34v6.142Zm.831 0 5.817-3.179v-6.302l-5.817 3.339v6.142ZM22.133 23.81l5.839-3.19 5.839 3.19-5.84 3.352-5.838-3.352Z" fill="#10164A"/>
</svg>
