<svg width="56" height="56" fill="none" xmlns="http://www.w3.org/2000/svg">
    <circle cx="28" cy="28" r="27.5" stroke="#947BFB"/>
    <path d="M49.5 28c0 11.874-9.626 21.5-21.5 21.5S6.5 39.874 6.5 28 16.126 6.5 28 6.5 49.5 16.126 49.5 28Z" stroke="#947BFB"/>
    <path d="m17.614 32.168-1.57.526-.083 4.283 5.432-1.82c-1.865-.574-3.225-1.583-3.78-2.989Z" fill="#7362CF"/>
    <path d="m18.434 27.639-5.446 1.825 3.055 3.232 1.57-.526c-.554-1.401-.212-2.983.821-4.531Z" fill="#B3A0FF"/>
    <path d="M27.595 21.458c-6.934 2.323-11.405 7.12-9.984 10.71l25.11-8.415c-1.42-3.591-8.192-4.62-15.126-2.295Z" fill="#7362CF"/>
    <path d="M32.735 34.465c6.934-2.324 11.413-7.099 9.984-10.711l-25.11 8.414c1.429 3.614 8.192 4.62 15.126 2.297Z" fill="#654FDC"/>
    <path d="m42.722 23.753-25.109 8.415c.491 1.245 2.367 1.858 4.997 1.858 2.566 0 5.849-.583 9.272-1.73 6.934-2.323 11.811-6.087 10.84-8.543Z" fill="#B3A0FF"/>
    <path d="M37.723 21.896c-2.564 0-5.848.583-9.271 1.73-6.934 2.323-11.812 6.086-10.84 8.542l25.11-8.415c-.493-1.245-2.367-1.857-4.999-1.857Z" fill="#D2CAFF"/>
    <path d="M36.338 37.204c-.74 0-1.829-.611-3.24-1.82-1.669-1.427-3.58-3.52-5.383-5.89-1.803-2.371-3.284-4.74-4.171-6.675-.966-2.106-1.105-3.4-.41-3.849.16-.1.351-.152.546-.147.564 0 1.666.385 3.702 2.224l.045.04-.007.057c-.013.133-.026.265-.037.397l-.022.26-.2-.185c-2.194-2.027-3.158-2.246-3.473-2.246-.09 0-.16.016-.211.05-.302.194-.322 1.145.615 3.187.872 1.898 2.331 4.232 4.11 6.572 1.78 2.34 3.662 4.401 5.302 5.805 1.768 1.512 2.564 1.676 2.825 1.676.09 0 .162-.017.217-.053.318-.204.318-1.223-.727-3.421l-.049-.1.105-.053c.105-.053.207-.105.302-.155l.126-.065.058.121c.74 1.558 1.434 3.537.525 4.123a.993.993 0 0 1-.548.147Zm0-.24v.12-.12Z" fill="#CCBFFF"/>
    <path d="m32.905 34.398-.01.12c-.176 1.99-.637 4.382-1.841 4.479-.025.002-.05.002-.074.002-.817 0-1.591-1.075-2.298-3.194-.67-2.006-1.19-4.698-1.463-7.58-.275-2.884-.27-5.618.01-7.7.307-2.27.89-3.454 1.736-3.522a.842.842 0 0 1 .076-.004c.593 0 1.487.616 2.402 3.487l-.597.105c-.306-.958-.638-1.738-.969-2.276-.305-.495-.603-.768-.836-.768h-.024c-.366.03-.9.845-1.196 3.045-.277 2.045-.28 4.739-.01 7.584.27 2.847.781 5.499 1.44 7.468.293.881.616 1.609.934 2.102.292.455.575.705.795.705h.023c.35-.028 1.01-.877 1.289-3.86l.613-.193Z" fill="#7362CF"/>
</svg>
