<?xml version="1.0" encoding="utf-8"?>
<!-- Generator: Adobe Illustrator 16.0.2, SVG Export Plug-In . SVG Version: 6.00 Build 0)  -->
<!DOCTYPE svg PUBLIC "-//W3C//DTD SVG 1.1//EN" "http://www.w3.org/Graphics/SVG/1.1/DTD/svg11.dtd">
<svg version="1.1" id="Слой_1" xmlns="http://www.w3.org/2000/svg" xmlns:xlink="http://www.w3.org/1999/xlink" x="0px" y="0px"
	 width="2000px" height="489.72px" viewBox="0 0 2000 489.72" enable-background="new 0 0 2000 489.72" xml:space="preserve">
<g>
	<g>
		<path fill="#80766C" d="M796.898,176.553c0,1.543-0.244,4.146-0.703,7.782c-0.466,3.65-1.087,7.575-1.857,11.754
			c-0.784,4.18-1.746,8.285-2.9,12.313c-1.168,4.039-2.53,7.139-4.083,9.317c-3.565,6.665-7.975,12.746-13.256,18.257
			c-5.267,5.503-11.155,10.194-17.672,14.041c-6.517,3.883-13.53,6.908-21.045,9.076c-7.516,2.182-15.313,3.262-23.368,3.262
			c-11.784,0-22.865-2.256-33.251-6.73c-10.394-4.498-19.5-10.653-27.326-18.494c-7.826-7.826-13.988-16.94-18.486-27.326
			c-4.49-10.386-6.747-21.534-6.747-33.48c0-11.795,2.256-22.865,6.747-33.258c4.498-10.39,10.66-19.496,18.486-27.337
			c7.827-7.815,16.933-13.981,27.326-18.482c10.386-4.49,21.467-6.743,33.251-6.743c8.056,0,15.808,1.095,23.257,3.263
			c7.435,2.167,14.373,5.148,20.809,8.954c6.436,3.799,12.28,8.363,17.562,13.711c5.267,5.359,9.765,11.274,13.485,17.795
			c-3.721,1.867-6.702,3.41-8.958,4.652c-2.249,1.247-4.417,2.36-6.51,3.37c-2.086,1.006-4.379,2.13-6.865,3.38
			c-2.478,1.247-5.733,2.867-9.757,4.882c-4.342-7.294-10.312-13.183-17.909-17.68c-7.604-4.498-15.979-6.743-25.114-6.743
			c-6.968,0-13.53,1.313-19.647,3.958c-6.132,2.63-11.429,6.195-15.934,10.696c-4.498,4.501-8.063,9.798-10.696,15.927
			c-2.641,6.121-3.958,12.675-3.958,19.655c0,6.972,1.316,13.511,3.958,19.647c2.633,6.121,6.199,11.473,10.696,16.038
			c4.505,4.579,9.802,8.151,15.934,10.7c6.118,2.556,12.679,3.847,19.647,3.847c9.298,0,17.835-2.338,25.587-6.987
			c7.738-4.649,13.863-10.7,18.36-18.127c-4.335-0.167-8.137-0.207-11.392-0.126c-3.255,0.085-6.783,0.126-10.585,0.126
			c-3.795,0-7.323,0.037-10.586,0.1c-3.24,0.089-5.962,0.126-8.137,0.126s-3.248-0.078-3.248-0.226v-25.118h19.181h21.401
			c7.36,0,14.802,0.041,22.318,0.111C782.436,176.52,789.767,176.553,796.898,176.553"/>
		<polygon fill="#80766C" points="817.818,93.533 865.25,93.533 903.161,208.647 941.294,93.533 989.437,93.533 989.437,259.574 
			958.508,259.574 958.508,141.908 958.042,141.908 917.356,259.574 889.209,259.574 848.517,143.066 848.043,143.066 
			848.043,259.574 817.818,259.574 		"/>
		<polygon fill="#80766C" points="1064.542,124.236 1011.762,124.45 1011.762,93.766 1153.385,93.766 1153.385,124.45 
			1101.063,124.236 1101.063,259.574 1064.542,259.574 		"/>
		<path fill="#80766C" d="M1314.344,240.371l-4.32,10.563c-16.807,8.552-34.745,12.842-53.823,12.842
			c-27.325,0-49.518-7.76-66.591-23.287c-17.073-15.505-25.609-35.792-25.609-60.858c0-17.258,4.261-32.337,12.782-45.243
			c8.507-12.916,19.751-22.562,33.718-28.968c13.966-6.388,29.648-9.595,47.062-9.595c10.075,0,20.024,1.058,29.87,3.188
			c9.832,2.119,18.05,4.657,24.634,7.608l0.791,1.128c-1.738,4.242-3.365,14.735-4.874,31.454l-0.8,0.91h-5.341l-0.902-0.91
			l-1.139-19.303c-5.519-4.394-12.206-7.812-20.04-10.268c-7.834-2.46-15.985-3.702-24.47-3.702
			c-12.791,0-24.264,2.748-34.406,8.244c-10.148,5.485-18.012,13.434-23.611,23.845c-5.607,10.405-8.404,23.15-8.404,38.196
			c0,15.154,3.3,28.428,9.876,39.857c6.591,11.437,15.571,20.217,26.964,26.354c11.398,6.125,24.707,9.202,39.916,9.202
			c6.731,0,13.211-0.658,19.425-1.938c6.199-1.287,11.37-2.885,15.49-4.778c4.128-1.887,8.078-4.187,11.873-6.909L1314.344,240.371z
			"/>
		<path fill="#80766C" d="M1325.011,99.92l0.909-0.792c18.782,0.607,29.598,0.903,32.468,0.903c2.589,0,13.448-0.296,32.601-0.903
			l0.902,0.792v5.674l-0.902,0.792c-5.23,0.163-9.255,0.388-12.103,0.688c-2.833,0.303-4.89,0.869-6.185,1.701
			c-1.294,0.829-2.13,2.778-2.56,5.852c-0.406,3.066-0.614,7.319-0.614,12.775l-0.236,26.112v50.191
			c0,12.561,0.074,21.341,0.236,26.338l0.563,19.647h23.169c18.464,0,29.989-0.229,34.575-0.68c4.571-0.459,8.988-1.554,13.227-3.3
			c0.836-1.879,2.027-6.243,3.58-13.057c1.539-6.798,2.353-10.748,2.441-11.81l1.014-0.906h5.57l0.791,0.906
			c-0.606,3.029-1.235,8.906-1.871,17.602c-0.651,8.714-0.97,15.756-0.97,21.126l-0.902,0.902
			c-14.388-0.443-33.266-0.68-56.656-0.68l-33.162-0.223c-7.575,0-15.29,0.289-23.161,0.902l-0.91-0.902v-3.742l0.91-1.146
			c4.689-2.435,7.264-3.914,7.715-4.432c0.459-0.525,0.925-5.415,1.421-14.65c0.495-9.229,0.739-20.354,0.739-33.37v-48.719
			l-0.229-22.14c-0.081-8.632-0.28-14.196-0.628-16.692c-0.334-2.497-0.866-4.169-1.584-5.001c-0.717-0.836-2.101-1.505-4.143-2.038
			c-2.049-0.528-7.079-0.95-15.105-1.257l-0.909-0.792V99.92z"/>
		<path fill="#80766C" d="M1469.555,99.129l14.188,0.448c9.321,0.3,15.416,0.455,18.286,0.455c2.574,0,13.441-0.296,32.593-0.903
			l0.903,0.792v5.674l-0.903,0.792c-5.222,0.163-9.254,0.388-12.095,0.688c-2.833,0.303-4.904,0.869-6.191,1.701
			c-1.279,0.829-2.145,2.778-2.552,5.852c-0.422,3.066-0.622,7.319-0.622,12.775l-0.236,26.112v52.577l0.126,22.14
			c0.073,8.559,0.296,14.077,0.673,16.578c0.377,2.5,0.925,4.149,1.649,4.985c0.718,0.844,2.116,1.531,4.15,2.116
			c2.049,0.555,7.071,0.999,15.098,1.302l0.903,0.681v5.681l-0.903,0.902c-0.385,0-7.034-0.222-19.987-0.68
			c-5.371-0.148-9.572-0.223-12.605-0.223c-2.345,0-13.167,0.289-32.475,0.902l-0.902-0.902v-5.681l0.902-0.681
			c7.043-0.303,11.732-0.681,14.078-1.132c2.345-0.451,3.928-1.043,4.727-1.769c0.784-0.709,1.42-2.248,1.923-4.601
			c0.496-2.338,0.784-7.56,0.851-15.667l0.111-23.953v-52.577l-0.222-22.14c-0.074-8.632-0.281-14.196-0.622-16.692
			c-0.354-2.497-0.88-4.169-1.598-5.001c-0.725-0.836-2.101-1.505-4.143-2.038c-2.041-0.528-7.086-0.95-15.105-1.257l-0.902-0.792
			V99.92L1469.555,99.129z"/>
		<path fill="#80766C" d="M1548.699,260.366l-1.014-1.028v-5.208l1.014-0.925c4.609-0.052,8.308-0.348,11.074-0.791
			c2.752-0.443,4.542-1.198,5.341-2.264c0.784-1.072,1.324-2.767,1.583-5.119c0.259-2.337,0.533-7.642,0.799-15.893
			c0.259-8.237,0.399-14.163,0.399-17.713v-91.753c0-3.857-0.71-6.713-2.108-8.566c-1.397-1.856-3.313-3.029-5.732-3.524
			c-2.427-0.492-6.555-0.78-12.369-0.847l-0.917-0.91v-5.334l0.917-1.028c10.445,0.377,17.296,0.566,20.535,0.566
			c7.656,0,13.938-0.188,18.856-0.566l36.225,47.018l53.246,66.765c6.437,8.096,12.99,15.782,19.655,23.046V148.41
			c0-2.726-0.141-8.533-0.399-17.432c-0.274-8.902-0.585-14.539-0.97-16.921c-0.385-2.386-1.035-3.999-1.982-4.831
			c-0.946-0.828-2.722-1.45-5.341-1.875c-2.618-0.41-6.154-0.654-10.607-0.736l-0.917-0.906v-5.219l0.917-1.028
			c6.125,0.377,14.861,0.566,26.224,0.566c10.371,0,17.895-0.188,22.599-0.566l1.021,1.028v5.219l-0.917,0.906
			c-4.985,0.082-8.854,0.366-11.577,0.858c-2.722,0.481-4.431,1.295-5.111,2.434c-0.673,1.14-1.146,2.808-1.42,5.001
			c-0.267,2.197-0.518,7.419-0.784,15.664c-0.267,8.263-0.399,14.191-0.399,17.838v53.934l0.111,31.217
			c0.141,10.234,0.303,20.479,0.451,30.777c-3.788-1.288-10.334-2.87-19.641-4.765l-8.063-9.542l-24.189-29.534l-76.984-96.162
			v87.089c0,3.48,0.133,9.688,0.399,18.62c0.267,8.936,0.584,14.351,0.962,16.237c0.377,1.901,0.872,3.211,1.479,3.921
			c0.6,0.718,1.901,1.384,3.921,1.997c1.997,0.6,6.147,0.954,12.428,1.006l0.917,0.925v5.326l-0.917,0.91
			c-3.936-0.532-10.29-0.792-19.07-0.792C1567.053,259.574,1557.17,259.833,1548.699,260.366"/>
		<path fill="#80766C" d="M1741.156,99.129l14.203,0.448c9.307,0.3,15.401,0.455,18.271,0.455c2.574,0,13.449-0.296,32.593-0.903
			l0.91,0.792v5.674l-0.91,0.792c-5.222,0.163-9.246,0.388-12.087,0.688c-2.841,0.303-4.897,0.869-6.199,1.701
			c-1.279,0.829-2.131,2.778-2.545,5.852c-0.422,3.066-0.629,7.319-0.629,12.775l-0.222,26.112v52.577l0.097,22.14
			c0.089,8.559,0.311,14.077,0.702,16.578c0.378,2.5,0.925,4.149,1.643,4.985c0.718,0.844,2.094,1.531,4.143,2.116
			c2.042,0.555,7.079,0.999,15.098,1.302l0.91,0.681v5.681l-0.91,0.902c-0.384,0-7.042-0.222-19.979-0.68
			c-5.379-0.148-9.58-0.223-12.613-0.223c-2.338,0-13.167,0.289-32.475,0.902l-0.902-0.902v-5.681l0.902-0.681
			c7.043-0.303,11.748-0.681,14.085-1.132c2.353-0.451,3.921-1.043,4.712-1.769c0.792-0.709,1.443-2.248,1.931-4.601
			c0.496-2.338,0.77-7.56,0.858-15.667l0.104-23.953v-52.577l-0.222-22.14c-0.074-8.632-0.281-14.196-0.622-16.692
			c-0.34-2.497-0.872-4.169-1.59-5.001c-0.718-0.836-2.101-1.505-4.143-2.038c-2.049-0.528-7.079-0.95-15.113-1.257l-0.902-0.792
			V99.92L1741.156,99.129z"/>
		<path fill="#80766C" d="M1971.215,240.371l-4.32,10.563c-16.799,8.552-34.745,12.842-53.823,12.842
			c-27.325,0-49.518-7.76-66.583-23.287c-17.081-15.505-25.603-35.792-25.603-60.858c0-17.258,4.246-32.337,12.768-45.243
			c8.507-12.916,19.751-22.562,33.725-28.968c13.959-6.388,29.642-9.595,47.055-9.595c10.075,0,20.032,1.058,29.87,3.188
			c9.839,2.119,18.05,4.657,24.634,7.608l0.799,1.128c-1.738,4.242-3.366,14.735-4.882,31.454l-0.792,0.91h-5.341l-0.91-0.91
			l-1.139-19.303c-5.519-4.394-12.191-7.812-20.032-10.268c-7.834-2.46-15.993-3.702-24.471-3.702
			c-12.798,0-24.264,2.748-34.413,8.244c-10.134,5.485-18.012,13.434-23.611,23.845c-5.607,10.405-8.404,23.15-8.404,38.196
			c0,15.154,3.3,28.428,9.883,39.857c6.584,11.437,15.572,20.217,26.964,26.354c11.399,6.125,24.7,9.202,39.916,9.202
			c6.731,0,13.204-0.658,19.411-1.938c6.206-1.287,11.377-2.885,15.505-4.778c4.12-1.887,8.07-4.187,11.872-6.909L1971.215,240.371z
			"/>
	</g>
	<g>
		<path fill="#80766C" d="M110.689,434.721c-14.884-12.486-27.836-26.505-38.822-41.551
			c-22.717-30.979-37.164-66.532-43.082-103.578c11.318,19.455,26.127,37.298,44.377,52.618
			c51.633,43.318,118.661,56.176,179.29,40.522c39.125-10.067,75.601-31.979,103.57-65.282
			c27.947-33.347,43.164-73.012,46.285-113.313c4.853-62.434-19.425-126.199-71.059-169.57
			C313.036,19.259,292.886,7.849,271.803,0.03c37.468-0.592,74.965,7.482,109.4,24.418c16.74,8.248,32.77,18.553,47.676,31.058
			c102.284,85.836,114.008,240.315,26.15,345.039C367.17,505.226,212.979,520.545,110.689,434.721"/>
		<path fill="#80766C" d="M235.364,159.983c6.436,5.396,12.043,11.448,16.807,17.972c9.816,13.389,16.045,28.779,18.626,44.769
			c-4.912-8.411-11.303-16.13-19.204-22.739c-22.34-18.734-51.323-24.304-77.517-17.524c-16.933,4.354-32.704,13.833-44.791,28.25
			c-12.102,14.38-18.671,31.553-20.017,48.966c-2.13,27.001,8.389,54.563,30.714,73.353c7.886,6.628,16.592,11.569,25.713,14.958
			c-16.193,0.236-32.401-3.248-47.321-10.608c-7.212-3.536-14.151-8.019-20.587-13.419C53.552,286.841,48.492,220.05,86.47,174.79
			C124.47,129.469,191.128,122.867,235.364,159.983"/>
		<path fill="#80766C" d="M336.397,295.703c-8.314,9.928-17.643,18.523-27.681,25.847c-20.631,15.091-44.37,24.655-69.099,28.539
			c12.975-7.523,24.893-17.354,35.071-29.516c28.835-34.339,37.275-79.048,26.689-119.549c-6.806-26.124-21.526-50.513-43.837-69.25
			c-22.303-18.715-48.867-28.946-75.793-31.121c-41.707-3.388-84.271,12.661-113.135,47.032
			c-10.157,12.132-17.798,25.555-22.954,39.609c-0.451-24.984,4.86-49.98,16.119-72.964c5.474-11.129,12.294-21.833,20.624-31.731
			c57.123-68.1,160.315-75.564,230.435-16.726C382.963,124.706,393.52,227.628,336.397,295.703"/>
	</g>
	<g>
		<path fill="#80766C" d="M632.299,398.49c-0.163,0.133-0.466,0.185-0.91,0.185h-3.943c-0.392,0-0.695-0.052-0.91-0.185
			c-0.222-0.134-0.333-0.43-0.333-0.918v-36.144c0-0.495,0.111-0.799,0.333-0.917c0.214-0.126,0.518-0.178,0.91-0.178h3.943
			c0.444,0,0.747,0.052,0.91,0.178c0.177,0.118,0.266,0.422,0.266,0.917v14.166h6.266c0.74,0,1.442-0.06,2.123-0.185
			c0.681-0.111,1.324-0.377,1.931-0.77c0.622-0.393,1.169-0.925,1.687-1.612c0.503-0.681,0.932-1.583,1.28-2.686l2.848-9.136
			c0.089-0.385,0.251-0.637,0.473-0.74c0.208-0.088,0.452-0.133,0.696-0.133h4.009c0.392,0,0.636,0.126,0.732,0.399
			c0.097,0.274,0.126,0.519,0.082,0.77l-2.781,9.564c-0.392,1.562-0.947,2.93-1.687,4.12c-0.725,1.184-1.739,2.087-3.063,2.664
			l-0.074,0.154c1.901,0.578,3.24,1.473,4.017,2.656c0.776,1.191,1.413,2.574,1.901,4.135l3.728,12.635
			c0.044,0.237,0.044,0.503,0,0.799c-0.059,0.281-0.34,0.444-0.873,0.444h-4.32c-0.192,0-0.414-0.037-0.651-0.111
			c-0.251-0.073-0.414-0.303-0.51-0.688l-3.573-12.058c-0.548-1.857-1.495-3.166-2.855-3.943c-1.369-0.784-2.796-1.176-4.306-1.176
			h-7.079v16.873C632.565,398.06,632.477,398.356,632.299,398.49z"/>
		<path fill="#80766C" d="M672.94,363.988c0.044-1.287,0.414-2.189,1.102-2.781c0.681-0.592,1.568-0.873,2.633-0.873h18.819
			c1.413,0,2.367,0.311,2.855,0.939c0.488,0.644,0.732,1.539,0.732,2.715v33.584c0,0.488-0.096,0.784-0.296,0.918
			c-0.2,0.133-0.569,0.185-1.109,0.185h-3.625c-0.437,0-0.769-0.052-0.984-0.185c-0.222-0.134-0.34-0.43-0.34-0.918v-31.697h-14.1
			l-0.437,5.467c-0.392,4.882-0.792,8.95-1.235,12.242c-0.444,3.299-1.073,6.007-1.894,8.145c-0.829,2.146-1.938,3.817-3.329,5.016
			c-1.391,1.19-3.195,2.123-5.43,2.796c-0.296,0.097-0.621,0.17-0.991,0.229c-0.37,0.037-0.621-0.17-0.769-0.666l-0.947-2.914
			c-0.252-0.681,0.044-1.229,0.865-1.613c1.317-0.576,2.404-1.287,3.262-2.107c0.843-0.836,1.568-2.057,2.145-3.662
			c0.584-1.605,1.065-3.743,1.42-6.429c0.37-2.67,0.725-6.184,1.065-10.519L672.94,363.988z"/>
		<path fill="#80766C" d="M712.967,361.428c0-0.495,0.089-0.813,0.281-0.962c0.207-0.133,0.488-0.207,0.888-0.207h3.995
			c0.444,0,0.754,0.074,0.925,0.207c0.17,0.148,0.251,0.467,0.251,0.962v28.185h0.303c1.154-1.85,2.212-3.544,3.166-5.075
			c0.939-1.523,2.027-3.188,3.24-4.927l10.992-17.021c0.488-0.82,0.947-1.405,1.376-1.76c0.444-0.333,1.146-0.496,2.116-0.496h1.894
			c0.829,0,1.524,0.236,2.086,0.732c0.548,0.488,0.829,1.213,0.829,2.183v34.397c0,0.437-0.089,0.71-0.251,0.844
			c-0.177,0.133-0.473,0.185-0.917,0.185h-4.017c-0.392,0-0.681-0.052-0.88-0.185c-0.185-0.134-0.281-0.407-0.281-0.844V369.75
			h-0.444c-0.577,0.873-1.11,1.687-1.568,2.448c-0.458,0.755-0.932,1.51-1.391,2.264c-0.458,0.762-0.932,1.517-1.42,2.301
			c-0.488,0.776-1.028,1.605-1.613,2.479l-11.392,17.229c-0.533,0.836-1.058,1.412-1.568,1.723c-0.51,0.318-1.176,0.481-2.005,0.481
			h-1.687c-0.873,0-1.576-0.237-2.108-0.703c-0.548-0.466-0.799-1.169-0.799-2.146V361.428z"/>
		<path fill="#80766C" d="M765.43,398.408c-0.215,0.178-0.563,0.267-1.036,0.267h-3.551c-0.474,0-0.843-0.089-1.08-0.267
			c-0.237-0.162-0.362-0.51-0.362-1.051v-35.78c0-0.54,0.125-0.896,0.362-1.028c0.237-0.148,0.606-0.215,1.08-0.215h3.551
			c0.473,0,0.821,0.066,1.036,0.215c0.214,0.133,0.325,0.488,0.325,1.028v13.804h18.908v-13.804c0-0.54,0.119-0.896,0.34-1.028
			c0.222-0.148,0.577-0.215,1.065-0.215h3.625c0.533,0,0.902,0.066,1.073,0.215c0.17,0.133,0.259,0.488,0.259,1.028v35.78
			c0,0.541-0.089,0.889-0.259,1.051c-0.17,0.178-0.54,0.267-1.073,0.267h-3.625c-0.488,0-0.843-0.089-1.065-0.267
			c-0.222-0.162-0.34-0.51-0.34-1.051V380.78h-18.908v16.577C765.755,397.898,765.644,398.246,765.43,398.408z"/>
		<path fill="#80766C" d="M805.042,361.428c0-0.495,0.104-0.813,0.296-0.962c0.192-0.133,0.496-0.207,0.895-0.207h3.987
			c0.437,0,0.747,0.074,0.924,0.207c0.163,0.148,0.252,0.467,0.252,0.962v28.185h0.296c1.168-1.85,2.219-3.544,3.166-5.075
			c0.947-1.523,2.027-3.188,3.24-4.927l10.993-17.021c0.488-0.82,0.947-1.405,1.391-1.76c0.437-0.333,1.139-0.496,2.116-0.496h1.879
			c0.829,0,1.524,0.236,2.079,0.732c0.57,0.488,0.836,1.213,0.836,2.183v34.397c0,0.437-0.082,0.71-0.251,0.844
			c-0.163,0.133-0.466,0.185-0.917,0.185h-4.009c-0.385,0-0.681-0.052-0.873-0.185c-0.207-0.134-0.296-0.407-0.296-0.844V369.75
			H830.6c-0.577,0.873-1.102,1.687-1.561,2.448c-0.458,0.755-0.925,1.51-1.391,2.264c-0.466,0.762-0.939,1.517-1.428,2.301
			c-0.488,0.776-1.021,1.605-1.598,2.479l-11.399,17.229c-0.533,0.836-1.058,1.412-1.568,1.723
			c-0.511,0.318-1.176,0.481-2.005,0.481h-1.679c-0.88,0-1.583-0.237-2.123-0.703c-0.533-0.466-0.806-1.169-0.806-2.146V361.428z"/>
		<path fill="#80766C" d="M857.445,398.49c-0.17,0.133-0.481,0.185-0.91,0.185h-3.95c-0.385,0-0.695-0.052-0.903-0.185
			c-0.222-0.134-0.34-0.43-0.34-0.918v-36.144c0-0.495,0.118-0.799,0.34-0.917c0.208-0.126,0.518-0.178,0.903-0.178h3.95
			c0.429,0,0.74,0.052,0.91,0.178c0.17,0.118,0.259,0.422,0.259,0.917v14.166h6.273c0.732,0,1.435-0.06,2.116-0.185
			c0.681-0.111,1.332-0.377,1.938-0.77c0.614-0.393,1.176-0.925,1.679-1.612c0.525-0.681,0.94-1.583,1.28-2.686l2.841-9.136
			c0.104-0.385,0.259-0.637,0.481-0.74c0.214-0.088,0.451-0.133,0.695-0.133h4.017c0.385,0,0.629,0.126,0.74,0.399
			c0.089,0.274,0.111,0.519,0.066,0.77l-2.774,9.564c-0.392,1.562-0.947,2.93-1.679,4.12c-0.732,1.184-1.753,2.087-3.063,2.664
			l-0.089,0.154c1.901,0.578,3.248,1.473,4.024,2.656c0.784,1.191,1.413,2.574,1.894,4.135l3.721,12.635
			c0.059,0.237,0.059,0.503,0,0.799c-0.044,0.281-0.333,0.444-0.873,0.444h-4.305c-0.192,0-0.415-0.037-0.651-0.111
			c-0.252-0.073-0.422-0.303-0.518-0.688l-3.573-12.058c-0.547-1.857-1.495-3.166-2.848-3.943c-1.361-0.784-2.804-1.176-4.32-1.176
			h-7.072v16.873C857.704,398.06,857.616,398.356,857.445,398.49z"/>
		<path fill="#80766C" d="M922.771,395.093c0,0.962-0.37,1.599-1.102,1.901c-2.19,0.962-4.564,1.636-7.116,1.968
			c-2.56,0.341-5.008,0.511-7.346,0.511c-3.166,0-5.755-0.333-7.775-0.991s-3.617-1.554-4.786-2.663
			c-1.168-1.124-1.982-2.434-2.441-3.892c-0.466-1.457-0.703-3.01-0.703-4.615c0-1.657,0.289-3.285,0.851-4.867
			c0.547-1.584,1.479-2.975,2.737-4.18c1.265-1.199,2.915-2.152,4.927-2.885c2.02-0.74,4.498-1.096,7.412-1.096h8.907v-1.598
			c0-1.169-0.104-2.212-0.326-3.114c-0.222-0.925-0.651-1.724-1.272-2.39c-0.636-0.68-1.524-1.198-2.67-1.568
			c-1.146-0.354-2.619-0.539-4.416-0.539c-1.702,0-3.521,0.147-5.452,0.451c-1.916,0.273-3.484,0.629-4.712,1.014
			c-0.385,0.141-0.695,0.191-0.932,0.141c-0.244-0.053-0.429-0.267-0.518-0.659l-0.88-3.136c-0.096-0.244-0.111-0.474-0.022-0.688
			c0.067-0.237,0.281-0.399,0.681-0.563c1.857-0.769,3.98-1.316,6.362-1.642c2.382-0.304,4.572-0.467,6.569-0.467
			c4.868,0,8.418,1.08,10.652,3.24c2.249,2.175,3.373,5.334,3.373,9.454V395.093z M916.269,379.833h-8.47
			c-0.873,0-1.894,0.051-3.033,0.17c-1.139,0.133-2.227,0.443-3.255,0.961c-1.006,0.511-1.886,1.258-2.596,2.257
			c-0.703,0.991-1.058,2.382-1.058,4.128c0,1.316,0.252,2.419,0.732,3.328c0.496,0.91,1.147,1.598,1.975,2.108
			c0.821,0.511,1.805,0.881,2.915,1.103c1.125,0.207,2.353,0.318,3.654,0.318c0.437,0,1.014,0,1.716-0.03
			c0.71-0.022,1.487-0.096,2.345-0.222c0.851-0.111,1.708-0.259,2.596-0.437c0.866-0.178,1.694-0.399,2.478-0.688V379.833z"/>
		<path fill="#80766C" d="M971.106,359.527c5.311,0,9.395,1.605,12.272,4.823c2.87,3.211,4.306,7.968,4.306,14.233
			c0,6.864-1.45,12.064-4.372,15.593c-2.929,3.528-7.235,5.297-12.931,5.297c-1.953,0-3.979-0.185-6.095-0.518
			s-4.039-1.014-5.741-1.997c-0.68-0.334-0.821-0.873-0.436-1.562l1.457-3.226c0.155-0.244,0.318-0.436,0.518-0.547
			c0.185-0.133,0.488-0.052,0.873,0.178c1.117,0.488,2.471,0.954,4.054,1.428c1.583,0.466,3.21,0.702,4.853,0.702
			c2.004,0,3.713-0.325,5.148-0.954c1.442-0.621,2.611-1.502,3.521-2.648c0.888-1.146,1.554-2.515,1.998-4.105
			c0.444-1.605,0.68-3.351,0.732-5.296h-14.61c-0.192,0-0.363-0.067-0.511-0.192c-0.141-0.119-0.222-0.377-0.222-0.762v-3.5
			c0-0.251,0.037-0.436,0.111-0.576c0.082-0.155,0.259-0.237,0.547-0.237h14.396c-0.208-3.21-1.11-5.755-2.715-7.626
			c-1.605-1.872-4.083-2.812-7.449-2.812c-1.598,0-3.159,0.185-4.668,0.555c-1.501,0.362-2.848,0.784-4.017,1.265
			c-0.444,0.252-0.74,0.318-0.947,0.193c-0.192-0.134-0.348-0.304-0.429-0.555l-1.25-2.989c-0.2-0.443-0.259-0.755-0.215-0.962
			c0.044-0.178,0.215-0.377,0.503-0.576c1.657-0.918,3.462-1.599,5.444-2.013C967.2,359.742,969.16,359.527,971.106,359.527z"/>
		<path fill="#80766C" d="M1015.949,393.932c1.649,0,3.27-0.229,4.852-0.665c1.584-0.437,2.915-0.925,3.98-1.465
			c0.437-0.229,0.754-0.311,0.954-0.178c0.192,0.111,0.362,0.303,0.503,0.547l1.465,3.085c0.393,0.644,0.273,1.169-0.362,1.546
			c-1.856,1.051-3.861,1.731-6.065,2.108c-2.183,0.378-4.276,0.563-6.273,0.563c-5.355,0-9.454-1.649-12.265-4.919
			c-2.833-3.307-4.246-8.175-4.246-14.662c0-3.106,0.406-5.91,1.205-8.433c0.807-2.501,1.946-4.646,3.44-6.421
			c1.479-1.775,3.299-3.145,5.437-4.091c2.138-0.954,4.55-1.421,7.228-1.421c1.945,0,3.81,0.2,5.592,0.585
			c1.769,0.385,3.492,1.043,5.149,1.96c0.681,0.407,0.828,0.925,0.429,1.539l-1.523,3.003c-0.148,0.289-0.311,0.488-0.481,0.622
			c-0.177,0.125-0.466,0.059-0.909-0.193c-1.177-0.524-2.434-0.961-3.803-1.309c-1.361-0.333-2.818-0.511-4.379-0.511
			c-1.953,0-3.617,0.399-5.016,1.206c-1.376,0.799-2.516,1.871-3.425,3.232c-0.896,1.361-1.554,2.922-1.968,4.66
			c-0.414,1.754-0.614,3.596-0.614,5.541s0.163,3.766,0.503,5.459c0.341,1.701,0.933,3.195,1.79,4.476
			c0.851,1.302,1.99,2.308,3.403,3.033C1011.954,393.562,1013.752,393.932,1015.949,393.932z"/>
		<path fill="#80766C" d="M1053.853,398.408c-0.192,0.178-0.54,0.267-1.021,0.267h-3.58c-0.488,0-0.829-0.089-1.036-0.267
			c-0.177-0.162-0.281-0.51-0.281-1.035v-31.498h-11.317c-0.533,0-0.888-0.097-1.065-0.326c-0.17-0.229-0.251-0.539-0.251-0.932
			v-2.878c0-0.443,0.081-0.791,0.251-1.043c0.178-0.236,0.532-0.362,1.065-0.362h29.353c0.592,0,0.962,0.126,1.095,0.362
			c0.148,0.252,0.222,0.6,0.222,1.043v2.878c0,0.393-0.073,0.703-0.222,0.932c-0.133,0.229-0.503,0.326-1.095,0.326h-11.828v31.498
			C1054.142,397.898,1054.045,398.246,1053.853,398.408z"/>
		<path fill="#80766C" d="M1090.44,359.527c2.773,0,5.163,0.4,7.19,1.154c2.02,0.777,3.676,1.894,4.971,3.336
			c1.279,1.428,2.249,3.137,2.877,5.112c0.637,1.975,0.955,4.143,0.955,6.531c0,1.161-0.148,2.116-0.444,2.849
			c-0.288,0.732-0.688,1.309-1.213,1.73c-0.503,0.399-1.08,0.71-1.738,0.865c-0.666,0.163-1.361,0.244-2.086,0.244h-21.031
			c0,2.294,0.318,4.254,0.962,5.852c0.629,1.605,1.472,2.922,2.529,3.913c1.044,0.991,2.257,1.717,3.654,2.153
			c1.392,0.436,2.893,0.665,4.513,0.665c1.599,0,3.196-0.222,4.757-0.636c1.561-0.407,2.863-0.881,3.884-1.436
			c0.592-0.317,1.05-0.207,1.391,0.378l1.538,3.077c0.326,0.681,0.186,1.154-0.443,1.449c-1.753,1.073-3.64,1.798-5.666,2.146
			c-2.02,0.378-3.995,0.563-5.955,0.563c-2.715,0-5.171-0.392-7.331-1.177c-2.167-0.776-3.995-1.967-5.519-3.572
			c-1.509-1.605-2.663-3.64-3.462-6.125s-1.206-5.459-1.206-8.922c0-3.203,0.422-6.058,1.28-8.573
			c0.858-2.508,2.034-4.616,3.536-6.317c1.509-1.709,3.291-3.003,5.341-3.913C1085.766,359.971,1087.999,359.527,1090.44,359.527z
			 M1100.441,376.246c0-1.51-0.148-2.952-0.443-4.343c-0.289-1.383-0.814-2.611-1.568-3.646c-0.77-1.051-1.783-1.879-3.078-2.479
			c-1.294-0.614-2.929-0.925-4.882-0.925c-1.605,0-3.033,0.318-4.275,0.947c-1.251,0.637-2.301,1.479-3.151,2.529
			c-0.858,1.044-1.531,2.249-2.027,3.61c-0.488,1.368-0.776,2.796-0.88,4.306H1100.441z"/>
		<path fill="#80766C" d="M1133.301,398.408c-0.192,0.178-0.533,0.267-1.021,0.267h-3.58c-0.48,0-0.813-0.089-1.021-0.267
			c-0.185-0.162-0.289-0.51-0.289-1.035v-31.498h-11.325c-0.532,0-0.88-0.097-1.058-0.326c-0.17-0.229-0.259-0.539-0.259-0.932
			v-2.878c0-0.443,0.089-0.791,0.259-1.043c0.178-0.236,0.525-0.362,1.058-0.362h29.354c0.599,0,0.961,0.126,1.109,0.362
			c0.141,0.252,0.222,0.6,0.222,1.043v2.878c0,0.393-0.081,0.703-0.222,0.932c-0.148,0.229-0.511,0.326-1.109,0.326h-11.821v31.498
			C1133.597,397.898,1133.485,398.246,1133.301,398.408z"/>
		<path fill="#80766C" d="M1156.669,361.428c0-0.495,0.104-0.813,0.296-0.962c0.199-0.133,0.495-0.207,0.888-0.207h3.987
			c0.443,0,0.754,0.074,0.924,0.207c0.186,0.148,0.26,0.467,0.26,0.962v28.185h0.296c1.169-1.85,2.219-3.544,3.166-5.075
			c0.946-1.523,2.026-3.188,3.239-4.927l10.993-17.021c0.495-0.82,0.946-1.405,1.391-1.76c0.444-0.333,1.14-0.496,2.108-0.496h1.894
			c0.828,0,1.517,0.236,2.079,0.732c0.547,0.488,0.836,1.213,0.836,2.183v34.397c0,0.437-0.082,0.71-0.26,0.844
			c-0.162,0.133-0.466,0.185-0.902,0.185h-4.023c-0.393,0-0.682-0.052-0.889-0.185c-0.177-0.134-0.281-0.407-0.281-0.844V369.75
			h-0.429c-0.592,0.873-1.116,1.687-1.583,2.448c-0.459,0.755-0.917,1.51-1.383,2.264c-0.467,0.762-0.939,1.517-1.428,2.301
			c-0.488,0.776-1.021,1.605-1.605,2.479l-11.399,17.229c-0.532,0.836-1.058,1.412-1.561,1.723
			c-0.511,0.318-1.184,0.481-2.013,0.481h-1.679c-0.873,0-1.583-0.237-2.116-0.703c-0.532-0.466-0.806-1.169-0.806-2.146V361.428z"
			/>
		<path fill="#80766C" d="M1209.064,398.49c-0.178,0.133-0.466,0.185-0.918,0.185h-3.935c-0.393,0-0.695-0.052-0.917-0.185
			c-0.223-0.134-0.326-0.43-0.326-0.918v-36.144c0-0.495,0.104-0.799,0.326-0.917c0.222-0.126,0.524-0.178,0.917-0.178h3.935
			c0.452,0,0.74,0.052,0.918,0.178c0.178,0.118,0.252,0.422,0.252,0.917v14.166h6.287c0.732,0,1.436-0.06,2.115-0.185
			c0.682-0.111,1.324-0.377,1.938-0.77c0.606-0.393,1.169-0.925,1.679-1.612c0.511-0.681,0.939-1.583,1.28-2.686l2.841-9.136
			c0.104-0.385,0.252-0.637,0.488-0.74c0.207-0.088,0.443-0.133,0.695-0.133h4.01c0.384,0,0.636,0.126,0.725,0.399
			c0.104,0.274,0.118,0.519,0.081,0.77l-2.774,9.564c-0.398,1.562-0.954,2.93-1.679,4.12c-0.732,1.184-1.753,2.087-3.069,2.664
			l-0.074,0.154c1.894,0.578,3.24,1.473,4.009,2.656c0.784,1.191,1.413,2.574,1.909,4.135l3.721,12.635
			c0.037,0.237,0.037,0.503,0,0.799c-0.052,0.281-0.341,0.444-0.881,0.444h-4.305c-0.2,0-0.414-0.037-0.651-0.111
			c-0.251-0.073-0.429-0.303-0.518-0.688l-3.58-12.058c-0.533-1.857-1.487-3.166-2.849-3.943c-1.368-0.784-2.796-1.176-4.305-1.176
			h-7.094v16.873C1209.316,398.06,1209.242,398.356,1209.064,398.49z"/>
		<path fill="#80766C" d="M1244.594,361.428c0-0.495,0.096-0.813,0.296-0.962c0.2-0.133,0.495-0.207,0.88-0.207h3.995
			c0.444,0,0.755,0.074,0.925,0.207c0.185,0.148,0.259,0.467,0.259,0.962v28.185h0.296c1.154-1.85,2.212-3.544,3.166-5.075
			c0.947-1.523,2.027-3.188,3.24-4.927l10.992-17.021c0.488-0.82,0.947-1.405,1.391-1.76c0.43-0.333,1.14-0.496,2.108-0.496h1.901
			c0.82,0,1.509,0.236,2.071,0.732c0.555,0.488,0.843,1.213,0.843,2.183v34.397c0,0.437-0.104,0.71-0.266,0.844
			c-0.17,0.133-0.474,0.185-0.91,0.185h-4.017c-0.399,0-0.681-0.052-0.873-0.185c-0.207-0.134-0.304-0.407-0.304-0.844V369.75
			h-0.436c-0.592,0.873-1.11,1.687-1.568,2.448c-0.459,0.755-0.925,1.51-1.377,2.264c-0.473,0.762-0.946,1.517-1.435,2.301
			c-0.488,0.776-1.028,1.605-1.598,2.479l-11.407,17.229c-0.525,0.836-1.05,1.412-1.561,1.723c-0.51,0.318-1.191,0.481-2.005,0.481
			h-1.687c-0.873,0-1.583-0.237-2.115-0.703c-0.533-0.466-0.807-1.169-0.807-2.146V361.428z"/>
		<path fill="#80766C" d="M1315.143,361.428c0-0.495,0.096-0.813,0.296-0.962c0.192-0.133,0.48-0.207,0.88-0.207h3.987
			c0.444,0,0.755,0.074,0.925,0.207c0.178,0.148,0.259,0.467,0.259,0.962v28.185h0.296c1.169-1.85,2.22-3.544,3.166-5.075
			c0.947-1.523,2.027-3.188,3.248-4.927l10.992-17.021c0.488-0.82,0.947-1.405,1.383-1.76c0.444-0.333,1.14-0.496,2.102-0.496h1.908
			c0.813,0,1.509,0.236,2.071,0.732c0.555,0.488,0.829,1.213,0.829,2.183v34.397c0,0.437-0.074,0.71-0.244,0.844
			c-0.171,0.133-0.481,0.185-0.918,0.185h-4.017c-0.385,0-0.688-0.052-0.873-0.185c-0.2-0.134-0.288-0.407-0.288-0.844V369.75
			h-0.444c-0.577,0.873-1.116,1.687-1.575,2.448c-0.459,0.755-0.918,1.51-1.376,2.264c-0.474,0.762-0.947,1.517-1.436,2.301
			c-0.488,0.776-1.021,1.605-1.604,2.479l-11.393,17.229c-0.532,0.836-1.051,1.412-1.568,1.723
			c-0.518,0.318-1.176,0.481-2.004,0.481h-1.688c-0.873,0-1.568-0.237-2.115-0.703c-0.532-0.466-0.799-1.169-0.799-2.146V361.428z"
			/>
		<path fill="#80766C" d="M1391.713,398.49c-0.17,0.133-0.48,0.185-0.91,0.185h-3.95c-0.392,0-0.695-0.052-0.91-0.185
			c-0.229-0.134-0.325-0.43-0.325-0.918v-36.144c0-0.495,0.096-0.799,0.325-0.917c0.215-0.126,0.519-0.178,0.91-0.178h3.95
			c0.43,0,0.74,0.052,0.91,0.178c0.162,0.118,0.251,0.422,0.251,0.917v14.166h6.28c0.726,0,1.436-0.06,2.116-0.185
			c0.681-0.111,1.331-0.377,1.938-0.77c0.605-0.393,1.176-0.925,1.671-1.612c0.519-0.681,0.947-1.583,1.288-2.686l2.84-9.136
			c0.104-0.385,0.259-0.637,0.488-0.74c0.207-0.088,0.443-0.133,0.681-0.133h4.017c0.385,0,0.637,0.126,0.732,0.399
			c0.104,0.274,0.118,0.519,0.082,0.77l-2.774,9.564c-0.399,1.562-0.947,2.93-1.687,4.12c-0.725,1.184-1.754,2.087-3.07,2.664
			l-0.066,0.154c1.894,0.578,3.226,1.473,4.017,2.656c0.776,1.191,1.413,2.574,1.901,4.135l3.713,12.635
			c0.053,0.237,0.053,0.503,0,0.799c-0.044,0.281-0.332,0.444-0.872,0.444h-4.306c-0.192,0-0.414-0.037-0.666-0.111
			c-0.236-0.073-0.414-0.303-0.503-0.688l-3.58-12.058c-0.532-1.857-1.494-3.166-2.855-3.943c-1.361-0.784-2.789-1.176-4.306-1.176
			h-7.079v16.873C1391.964,398.06,1391.875,398.356,1391.713,398.49z"/>
		<path fill="#80766C" d="M1457.039,395.093c0,0.962-0.37,1.599-1.103,1.901c-2.183,0.962-4.564,1.636-7.124,1.968
			c-2.552,0.341-4.993,0.511-7.338,0.511c-3.151,0-5.755-0.333-7.782-0.991c-2.012-0.658-3.609-1.554-4.778-2.663
			c-1.161-1.124-1.982-2.434-2.441-3.892c-0.466-1.457-0.695-3.01-0.695-4.615c0-1.657,0.281-3.285,0.844-4.867
			c0.555-1.584,1.465-2.975,2.736-4.18c1.266-1.199,2.907-2.152,4.927-2.885c2.02-0.74,4.498-1.096,7.412-1.096h8.914v-1.598
			c0-1.169-0.118-2.212-0.333-3.114c-0.222-0.925-0.65-1.724-1.272-2.39c-0.636-0.68-1.538-1.198-2.67-1.568
			c-1.146-0.354-2.619-0.539-4.424-0.539c-1.709,0-3.514,0.147-5.437,0.451c-1.924,0.273-3.5,0.629-4.713,1.014
			c-0.392,0.141-0.702,0.191-0.946,0.141c-0.244-0.053-0.422-0.267-0.511-0.659l-0.873-3.136c-0.104-0.244-0.118-0.474-0.044-0.688
			c0.073-0.237,0.311-0.399,0.695-0.563c1.849-0.769,3.972-1.316,6.354-1.642c2.389-0.304,4.578-0.467,6.576-0.467
			c4.867,0,8.418,1.08,10.659,3.24c2.241,2.175,3.366,5.334,3.366,9.454V395.093z M1450.529,379.833h-8.471
			c-0.865,0-1.886,0.051-3.025,0.17c-1.153,0.133-2.233,0.443-3.254,0.961c-1.021,0.511-1.879,1.258-2.59,2.257
			c-0.71,0.991-1.064,2.382-1.064,4.128c0,1.316,0.251,2.419,0.739,3.328c0.48,0.91,1.14,1.598,1.968,2.108s1.805,0.881,2.93,1.103
			c1.109,0.207,2.322,0.318,3.639,0.318c0.451,0,1.006,0,1.717-0.03c0.71-0.022,1.494-0.096,2.338-0.222
			c0.85-0.111,1.723-0.259,2.588-0.437c0.873-0.178,1.709-0.399,2.486-0.688V379.833z"/>
		<path fill="#80766C" d="M1468.786,361.428c0-0.495,0.104-0.799,0.296-0.917c0.191-0.126,0.473-0.178,0.857-0.178h4.047
			c0.385,0,0.673,0.052,0.865,0.178c0.192,0.118,0.281,0.422,0.281,0.917v8.537c0,1.856,0.192,3.358,0.563,4.534
			c0.362,1.161,0.924,2.086,1.687,2.737c0.754,0.65,1.73,1.124,2.929,1.391c1.199,0.259,2.604,0.399,4.217,0.399
			c1.272,0,2.737-0.118,4.401-0.326c1.665-0.222,3.122-0.576,4.394-1.064v-16.208c0-0.495,0.082-0.799,0.252-0.917
			c0.186-0.126,0.48-0.178,0.925-0.178h4.009c0.385,0,0.688,0.052,0.881,0.178c0.192,0.118,0.289,0.422,0.289,0.917v36.144
			c0,0.488-0.097,0.784-0.289,0.918c-0.192,0.133-0.496,0.185-0.881,0.185h-4.009c-0.444,0-0.739-0.052-0.925-0.185
			c-0.17-0.134-0.252-0.43-0.252-0.918v-14.528c-1.405,0.481-3.055,0.858-4.926,1.132c-1.872,0.267-3.499,0.399-4.854,0.399
			c-5.155,0-8.898-1.198-11.251-3.61c-2.337-2.418-3.506-6.125-3.506-11.14V361.428z"/>
		<path fill="#80766C" d="M1529.03,359.527c2.781,0,5.178,0.4,7.19,1.154c2.026,0.777,3.684,1.894,4.971,3.336
			c1.295,1.428,2.256,3.137,2.885,5.112c0.637,1.975,0.947,4.143,0.947,6.531c0,1.161-0.134,2.116-0.43,2.849
			s-0.695,1.309-1.213,1.73c-0.503,0.399-1.095,0.71-1.746,0.865c-0.658,0.163-1.354,0.244-2.086,0.244h-21.03
			c0,2.294,0.325,4.254,0.954,5.852c0.629,1.605,1.479,2.922,2.522,3.913c1.05,0.991,2.278,1.717,3.669,2.153
			c1.398,0.436,2.9,0.665,4.513,0.665c1.604,0,3.188-0.222,4.764-0.636c1.554-0.407,2.862-0.881,3.884-1.436
			c0.584-0.317,1.043-0.207,1.391,0.378l1.531,3.077c0.34,0.681,0.192,1.154-0.443,1.449c-1.754,1.073-3.641,1.798-5.66,2.146
			c-2.019,0.378-3.994,0.563-5.947,0.563c-2.736,0-5.178-0.392-7.346-1.177c-2.167-0.776-4.002-1.967-5.511-3.572
			s-2.663-3.64-3.477-6.125c-0.792-2.485-1.198-5.459-1.198-8.922c0-3.203,0.429-6.058,1.279-8.573
			c0.852-2.508,2.027-4.616,3.544-6.317c1.509-1.709,3.284-3.003,5.326-3.913C1524.362,359.971,1526.604,359.527,1529.03,359.527z
			 M1539.046,376.246c0-1.51-0.147-2.952-0.444-4.343c-0.295-1.383-0.813-2.611-1.575-3.646c-0.762-1.051-1.782-1.879-3.077-2.479
			c-1.295-0.614-2.922-0.925-4.875-0.925c-1.612,0-3.04,0.318-4.283,0.947c-1.25,0.637-2.301,1.479-3.158,2.529
			c-0.858,1.044-1.531,2.249-2.013,3.61c-0.487,1.368-0.784,2.796-0.88,4.306H1539.046z"/>
		<path fill="#80766C" d="M1573.362,393.932c1.649,0,3.27-0.229,4.86-0.665c1.583-0.437,2.899-0.925,3.979-1.465
			c0.429-0.229,0.755-0.311,0.946-0.178c0.193,0.111,0.355,0.303,0.511,0.547l1.458,3.085c0.392,0.644,0.266,1.169-0.363,1.546
			c-1.856,1.051-3.868,1.731-6.059,2.108c-2.189,0.378-4.29,0.563-6.287,0.563c-5.349,0-9.439-1.649-12.265-4.919
			c-2.818-3.307-4.231-8.175-4.231-14.662c0-3.106,0.399-5.91,1.198-8.433c0.807-2.501,1.953-4.646,3.447-6.421
			c1.479-1.775,3.284-3.145,5.43-4.091c2.138-0.954,4.557-1.421,7.234-1.421c1.938,0,3.802,0.2,5.585,0.585
			c1.775,0.385,3.484,1.043,5.148,1.96c0.674,0.407,0.829,0.925,0.437,1.539l-1.538,3.003c-0.134,0.289-0.296,0.488-0.474,0.622
			c-0.178,0.125-0.474,0.059-0.91-0.193c-1.176-0.524-2.434-0.961-3.795-1.309c-1.36-0.333-2.825-0.511-4.387-0.511
			c-1.945,0-3.617,0.399-5.008,1.206c-1.376,0.799-2.53,1.871-3.433,3.232s-1.553,2.922-1.953,4.66
			c-0.429,1.754-0.636,3.596-0.636,5.541s0.178,3.766,0.518,5.459c0.333,1.701,0.933,3.195,1.79,4.476
			c0.844,1.302,1.976,2.308,3.396,3.033C1569.36,393.562,1571.165,393.932,1573.362,393.932z"/>
		<path fill="#80766C" d="M1611.259,398.408c-0.192,0.178-0.532,0.267-1.021,0.267h-3.58c-0.481,0-0.814-0.089-1.021-0.267
			c-0.185-0.162-0.281-0.51-0.281-1.035v-31.498h-11.325c-0.54,0-0.888-0.097-1.058-0.326c-0.178-0.229-0.266-0.539-0.266-0.932
			v-2.878c0-0.443,0.088-0.791,0.266-1.043c0.17-0.236,0.518-0.362,1.058-0.362h29.36c0.584,0,0.947,0.126,1.095,0.362
			c0.148,0.252,0.215,0.6,0.215,1.043v2.878c0,0.393-0.066,0.703-0.215,0.932c-0.147,0.229-0.511,0.326-1.095,0.326h-11.836v31.498
			C1611.555,397.898,1611.451,398.246,1611.259,398.408z"/>
		<path fill="#80766C" d="M1660.555,378.08c2.338,0.777,3.995,2.027,4.972,3.766c0.976,1.716,1.457,3.588,1.457,5.578
			c0,1.701-0.325,3.239-0.983,4.594c-0.651,1.368-1.554,2.552-2.664,3.551c-1.124,0.99-2.44,1.768-3.979,2.308
			c-1.538,0.524-3.195,0.799-5,0.799h-16.659c-1.021,0-1.783-0.274-2.293-0.799c-0.518-0.54-0.762-1.251-0.762-2.131v-32.496
			c0-0.925,0.259-1.636,0.791-2.168c0.533-0.495,1.295-0.747,2.264-0.747h15.927c3.396,0,6.206,0.747,8.396,2.301
			c2.189,1.531,3.285,3.957,3.285,7.257c0,1.664-0.43,3.195-1.273,4.608c-0.857,1.42-1.997,2.456-3.402,3.137L1660.555,378.08z
			 M1640.981,375.743h12.354c0.481,0,1.051-0.082,1.709-0.252c0.658-0.178,1.25-0.444,1.798-0.836
			c0.532-0.392,0.991-0.909,1.376-1.568c0.399-0.644,0.592-1.479,0.592-2.508c0-1.294-0.466-2.403-1.391-3.313
			c-0.918-0.925-2.168-1.391-3.729-1.391h-12.709V375.743z M1660.422,387.045c0-1.894-0.637-3.417-1.864-4.586
			c-1.25-1.177-3.106-1.761-5.593-1.761h-11.983v13.004h11.91c1.554,0,2.818-0.222,3.802-0.65c0.977-0.451,1.738-0.999,2.293-1.657
			c0.563-0.651,0.933-1.361,1.133-2.152C1660.318,388.473,1660.422,387.734,1660.422,387.045z"/>
		<path fill="#80766C" d="M1709.274,395.093c0,0.962-0.37,1.599-1.11,1.901c-2.189,0.962-4.557,1.636-7.108,1.968
			c-2.552,0.341-5.008,0.511-7.346,0.511c-3.166,0-5.755-0.333-7.767-0.991c-2.027-0.658-3.618-1.554-4.794-2.663
			c-1.169-1.124-1.982-2.434-2.441-3.892c-0.466-1.457-0.688-3.01-0.688-4.615c0-1.657,0.273-3.285,0.836-4.867
			c0.555-1.584,1.464-2.975,2.737-4.18c1.257-1.199,2.899-2.152,4.926-2.885c2.02-0.74,4.49-1.096,7.412-1.096h8.906v-1.598
			c0-1.169-0.104-2.212-0.325-3.114c-0.222-0.925-0.636-1.724-1.272-2.39c-0.636-0.68-1.523-1.198-2.678-1.568
			c-1.139-0.354-2.604-0.539-4.408-0.539c-1.702,0-3.521,0.147-5.445,0.451c-1.923,0.273-3.498,0.629-4.704,1.014
			c-0.393,0.141-0.71,0.191-0.954,0.141c-0.244-0.053-0.414-0.267-0.511-0.659l-0.88-3.136c-0.097-0.244-0.111-0.474-0.037-0.688
			c0.074-0.237,0.311-0.399,0.702-0.563c1.857-0.769,3.958-1.316,6.347-1.642c2.39-0.304,4.572-0.467,6.577-0.467
			c4.867,0,8.418,1.08,10.667,3.24c2.233,2.175,3.358,5.334,3.358,9.454V395.093z M1702.771,379.833h-8.47
			c-0.888,0-1.894,0.051-3.032,0.17c-1.14,0.133-2.234,0.443-3.256,0.961c-1.021,0.511-1.879,1.258-2.589,2.257
			c-0.71,0.991-1.05,2.382-1.05,4.128c0,1.316,0.236,2.419,0.71,3.328c0.488,0.91,1.153,1.598,1.982,2.108
			c0.836,0.511,1.805,0.881,2.922,1.103c1.117,0.207,2.337,0.318,3.646,0.318c0.437,0,1.021,0,1.731-0.03
			c0.695-0.022,1.465-0.096,2.322-0.222c0.858-0.111,1.717-0.259,2.597-0.437s1.709-0.399,2.485-0.688V379.833z"/>
		<path fill="#80766C" d="M1767.321,380.699h-5.696c-1.509,0-2.943,0.392-4.305,1.176c-1.369,0.777-2.315,2.086-2.849,3.943
			l-3.58,12.058c-0.104,0.385-0.267,0.614-0.518,0.688c-0.237,0.074-0.459,0.111-0.658,0.111h-4.224
			c-0.533,0-0.844-0.163-0.918-0.444c-0.074-0.296-0.089-0.562-0.037-0.799l3.729-12.635c0.48-1.561,1.117-2.943,1.901-4.135
			c0.769-1.184,2.115-2.078,4.009-2.656l-0.074-0.154c-1.316-0.577-2.337-1.48-3.069-2.664c-0.718-1.19-1.294-2.559-1.679-4.12
			l-2.768-9.564c-0.059-0.251-0.021-0.495,0.074-0.77c0.089-0.273,0.355-0.399,0.799-0.399h3.936c0.244,0,0.48,0.045,0.695,0.133
			c0.223,0.104,0.385,0.355,0.48,0.74l2.849,9.136c0.34,1.103,0.755,2.005,1.243,2.686c0.473,0.688,1.035,1.22,1.649,1.612
			c0.599,0.393,1.265,0.658,1.968,0.77c0.702,0.125,1.428,0.185,2.152,0.185h4.89v-14.166c0-0.495,0.089-0.799,0.259-0.917
			c0.178-0.126,0.474-0.178,0.917-0.178h4.01c0.385,0,0.681,0.052,0.88,0.178c0.186,0.118,0.289,0.422,0.289,0.917v14.166h4.896
			c0.726,0,1.443-0.06,2.152-0.185c0.703-0.111,1.361-0.377,1.976-0.77c0.606-0.393,1.161-0.925,1.672-1.612
			c0.511-0.681,0.939-1.583,1.28-2.686l2.773-9.136c0.096-0.385,0.259-0.637,0.474-0.74c0.222-0.088,0.458-0.133,0.695-0.133h3.942
			c0.437,0,0.688,0.126,0.777,0.399c0.059,0.274,0.081,0.519,0.029,0.77l-2.707,9.564c-0.385,1.562-0.962,2.93-1.717,4.12
			c-0.754,1.184-1.76,2.087-3.018,2.664l-0.089,0.154c0.932,0.289,1.724,0.651,2.382,1.096c0.658,0.429,1.205,0.954,1.643,1.523
			c0.443,0.592,0.799,1.229,1.094,1.945c0.297,0.695,0.563,1.45,0.807,2.227l3.647,12.635c0.044,0.237,0.059,0.503,0.044,0.799
			c-0.029,0.281-0.311,0.444-0.844,0.444h-4.305c-0.207,0-0.414-0.037-0.666-0.111c-0.236-0.073-0.414-0.303-0.503-0.688
			l-3.58-12.058c-0.54-1.857-1.479-3.166-2.849-3.943c-1.368-0.784-2.803-1.176-4.305-1.176h-5.703v16.873
			c0,0.488-0.104,0.784-0.289,0.918c-0.199,0.133-0.495,0.185-0.88,0.185h-4.01c-0.443,0-0.739-0.052-0.917-0.185
			c-0.17-0.134-0.259-0.43-0.259-0.918V380.699z"/>
		<path fill="#80766C" d="M1807.563,361.428c0-0.495,0.097-0.813,0.289-0.962c0.199-0.133,0.495-0.207,0.888-0.207h3.994
			c0.444,0,0.755,0.074,0.933,0.207c0.162,0.148,0.251,0.467,0.251,0.962v28.185h0.281c1.177-1.85,2.227-3.544,3.181-5.075
			c0.947-1.523,2.02-3.188,3.226-4.927l11.007-17.021c0.481-0.82,0.947-1.405,1.376-1.76c0.444-0.333,1.147-0.496,2.116-0.496h1.9
			c0.821,0,1.517,0.236,2.064,0.732c0.563,0.488,0.844,1.213,0.844,2.183v34.397c0,0.437-0.09,0.71-0.26,0.844
			c-0.162,0.133-0.473,0.185-0.91,0.185h-4.009c-0.399,0-0.688-0.052-0.888-0.185c-0.192-0.134-0.281-0.407-0.281-0.844V369.75
			h-0.443c-0.585,0.873-1.109,1.687-1.576,2.448c-0.459,0.755-0.925,1.51-1.383,2.264c-0.459,0.762-0.933,1.517-1.421,2.301
			c-0.488,0.776-1.021,1.605-1.612,2.479l-11.393,17.229c-0.532,0.836-1.05,1.412-1.567,1.723c-0.503,0.318-1.184,0.481-2.013,0.481
			h-1.679c-0.88,0-1.575-0.237-2.108-0.703c-0.54-0.466-0.807-1.169-0.807-2.146V361.428z"/>
		<path fill="#80766C" d="M1873.569,378.435c2.294,0.592,4.105,1.672,5.46,3.255c1.331,1.575,1.997,3.462,1.997,5.659
			c0,1.693-0.341,3.284-1.021,4.741c-0.681,1.472-1.679,2.729-2.988,3.81c-1.316,1.059-2.959,1.908-4.897,2.537
			c-1.952,0.645-4.216,0.962-6.79,0.962c-2.382,0-4.883-0.192-7.486-0.584c-2.604-0.393-4.809-1.073-6.613-2.05
			c-0.636-0.392-0.829-0.828-0.585-1.316l1.605-3.277c0.148-0.311,0.341-0.436,0.592-0.398c0.237,0.021,0.504,0.088,0.799,0.244
			c1.169,0.547,2.745,1.064,4.75,1.545c1.997,0.474,3.994,0.726,5.984,0.726c3.75,0,6.442-0.695,8.07-2.086
			c1.627-1.368,2.456-3.077,2.456-5.075c0-1.849-0.881-3.344-2.604-4.49c-1.73-1.139-4.586-1.708-8.58-1.708
			c-0.829,0-1.436-0.134-1.835-0.407c-0.378-0.267-0.569-0.762-0.569-1.494v-1.25c0-1.266,0.776-1.879,2.337-1.879
			c6.621-0.155,9.92-2.013,9.92-5.6c0-1.591-0.702-2.849-2.115-3.773c-1.405-0.917-3.507-1.361-6.273-1.361
			c-1.657,0-3.417,0.193-5.252,0.614c-1.864,0.399-3.417,0.873-4.675,1.421c-0.252,0.096-0.518,0.162-0.77,0.185
			c-0.267,0.007-0.474-0.163-0.621-0.548l-1.317-3.158c-0.199-0.555-0.059-0.947,0.437-1.184c1.754-0.939,3.751-1.664,5.992-2.152
			c2.241-0.496,4.594-0.747,7.079-0.747c4.128,0,7.486,0.865,10.046,2.604c2.552,1.724,3.832,4.18,3.832,7.412
			c0,1.835-0.577,3.521-1.746,5.03s-2.715,2.707-4.616,3.58V378.435z"/>
		<path fill="#80766C" d="M1899.246,398.408c-0.215,0.178-0.555,0.267-1.043,0.267h-3.536c-0.474,0-0.844-0.089-1.088-0.267
			c-0.236-0.162-0.362-0.51-0.362-1.051v-35.78c0-0.54,0.126-0.896,0.362-1.028c0.244-0.148,0.614-0.215,1.088-0.215h3.536
			c0.488,0,0.828,0.066,1.043,0.215c0.222,0.133,0.332,0.488,0.332,1.028v13.804h18.908v-13.804c0-0.54,0.118-0.896,0.333-1.028
			c0.229-0.148,0.584-0.215,1.072-0.215h3.625c0.54,0,0.896,0.066,1.065,0.215c0.178,0.133,0.266,0.488,0.266,1.028v35.78
			c0,0.541-0.088,0.889-0.266,1.051c-0.17,0.178-0.525,0.267-1.065,0.267h-3.625c-0.488,0-0.843-0.089-1.072-0.267
			c-0.215-0.162-0.333-0.51-0.333-1.051V380.78h-18.908v16.577C1899.578,397.898,1899.468,398.246,1899.246,398.408z"/>
		<path fill="#80766C" d="M1938.866,361.428c0-0.495,0.096-0.813,0.288-0.962c0.207-0.133,0.496-0.207,0.896-0.207h3.987
			c0.437,0,0.754,0.074,0.917,0.207c0.178,0.148,0.259,0.467,0.259,0.962v28.185h0.304c1.153-1.85,2.204-3.544,3.166-5.075
			c0.946-1.523,2.026-3.188,3.239-4.927l10.993-17.021c0.48-0.82,0.939-1.405,1.376-1.76c0.443-0.333,1.154-0.496,2.115-0.496h1.895
			c0.82,0,1.523,0.236,2.086,0.732c0.555,0.488,0.828,1.213,0.828,2.183v34.397c0,0.437-0.082,0.71-0.259,0.844
			c-0.163,0.133-0.466,0.185-0.902,0.185h-4.017c-0.4,0-0.695-0.052-0.889-0.185c-0.191-0.134-0.295-0.407-0.295-0.844V369.75h-0.43
			c-0.592,0.873-1.109,1.687-1.568,2.448c-0.459,0.755-0.924,1.51-1.383,2.264c-0.467,0.762-0.947,1.517-1.428,2.301
			c-0.488,0.776-1.021,1.605-1.613,2.479l-11.392,17.229c-0.532,0.836-1.058,1.412-1.568,1.723
			c-0.518,0.318-1.184,0.481-1.997,0.481h-1.687c-0.88,0-1.583-0.237-2.123-0.703c-0.532-0.466-0.799-1.169-0.799-2.146V361.428z"/>
	</g>
</g>
</svg>
