<svg width="160" height="50" fill="none" xmlns="http://www.w3.org/2000/svg">
    <g clip-path="url(#a)">
        <path d="m7.837 8.66 1.68 6.145 2.891-1.583-4.571-4.563ZM35.732 34.823l-1.68-6.145-2.892 1.583 4.572 4.562ZM28.735 33.985l6.157 1.676-4.571-4.562-1.586 2.886ZM14.927 9.497l-6.25-1.676 4.57 4.563 1.68-2.887ZM34.892 7.821l-6.157 1.676 1.586 2.887 4.571-4.563ZM9.516 28.678l-1.68 6.145 4.572-4.562-2.892-1.583ZM34.052 14.898l1.68-6.239-4.572 4.563 2.892 1.676ZM8.676 35.661l6.158-1.676-1.586-2.886-4.572 4.562Z" fill="#9C1006"/>
        <path d="M9.35 26.974a.508.508 0 0 0-.058-.037l-7.363-4.09h17.2l-6.157 6.145-2.938-1.592-.015-.008-.333-.166-.337-.252ZM27.448 10l.016.03 1.67 2.832-6.243 6.23v-17.2l4.19 7.375.18.361.187.373ZM33.846 16.322c.024.018.05.034.077.047l.363.181 7.353 4.086h-17.2l6.158-6.145 2.905 1.574.344.257ZM10.02 16.09l.03-.016 2.838-1.667 6.241 6.229H1.9l7.385-4.18.362-.18.373-.186ZM33.55 27.392a.431.431 0 0 0-.03.017l-2.84 1.666-6.24-6.229h17.23l-7.386 4.18-.361.18-.373.186ZM27.029 34.15a.484.484 0 0 0-.037.057L22.89 41.56V24.38l6.245 6.154-1.675 2.924a.48.48 0 0 0-.013.025l-.166.332-.253.336ZM16.353 9.704a.507.507 0 0 0 .047-.076l.182-.362 4.096-7.343v17.17l-6.16-6.147 1.577-2.898.258-.344ZM16.12 33.482a.508.508 0 0 0-.016-.03l-1.669-2.832 6.243-6.23v17.2l-4.19-7.375-.18-.36-.188-.373Z" stroke="#9C1006" stroke-linejoin="round"/>
        <path d="M54.297 25.978V12.942c0-2.793-.653-3.165-2.612-3.165h-.56v.372c.28.093.747.652.747 3.073v12.755c0 2.98.56 3.446 2.612 3.446h.746v-.373c-.28-.093-.932-.652-.932-3.072Zm16.607-9.032c-1.4 0-2.986.652-3.918 1.862-.654-1.396-1.866-1.862-3.173-1.862-1.586 0-2.705.652-3.358 1.303h-.093c-.28-.651-.933-1.024-2.24-1.024H55.79v.466h.56c1.586 0 1.866 1.024 1.866 2.607v9.125h2.332v-9.87c.653-.745 1.586-1.397 2.612-1.397 1.307 0 2.053.931 2.053 3.539v7.82h2.332v-7.82c0-.56 0-1.397-.093-1.863.56-.745 1.68-1.676 2.706-1.676 1.306 0 2.052.931 2.052 3.539v7.82h2.332v-7.82c0-3.818-1.679-4.749-3.638-4.749Zm12.315 0c-1.96 0-2.986.745-3.545 1.397h-.094c-.28-.745-.933-1.21-2.239-1.21H75.01v.558h.56c1.586 0 1.865 1.024 1.865 2.607V34.45h2.333v-5.494a7.34 7.34 0 0 0 3.265.745c3.359 0 4.945-2.886 4.945-6.425-.094-3.445-1.68-6.331-4.758-6.331Zm-1.026 11.732c-.747 0-1.68-.373-2.52-.745v-8.38c.56-.745 1.307-1.583 2.706-1.583 2.053 0 2.986 2.328 2.986 5.308.093 3.072-.84 5.4-3.172 5.4Zm14.927-11.36c-.374-.279-1.027-.372-1.586-.372-1.586 0-2.613.745-3.172 1.397-.28-.745-.933-1.21-2.24-1.21H88.07v.558h.28c1.586 0 1.866 1.024 1.866 2.607v9.125h2.332v-9.59c.56-.745 1.4-1.304 2.52-1.304.932 0 1.678.28 2.052.745l1.026-.745c-.373-.559-.56-.931-1.026-1.21Zm6.157-.372c-3.265 0-5.131 2.886-5.131 6.425 0 3.538 1.866 6.424 5.504 6.424 1.959 0 3.545-.745 4.665-2.7l-.56-.372c-.933 1.303-1.959 2.048-3.638 2.048-2.239 0-3.545-2.049-3.545-4.935h7.743l.093-1.024c.094-3.818-1.586-5.866-5.131-5.866Zm-2.332 5.773c0-2.607 1.213-4.563 2.705-4.563 1.866 0 2.706 1.676 2.706 4.563h-5.411Zm14.74 0-1.586-.652c-1.306-.559-2.052-1.303-2.052-2.235 0-1.024.933-1.862 2.612-1.862 2.053 0 3.265 1.024 3.545 2.7h.56c0-1.303 0-2.048-.653-2.7-.653-.652-1.959-1.024-3.918-1.024-2.519 0-4.292 1.21-4.292 3.352 0 1.676 1.213 2.7 3.172 3.538l1.586.652c1.586.652 2.332 1.303 2.332 2.328 0 1.024-.933 1.862-2.892 1.862-2.239 0-3.358-1.024-3.638-2.7h-.56c0 1.303 0 2.048.653 2.7.653.652 1.959 1.024 4.012 1.024 2.612 0 4.571-1.21 4.571-3.352 0-1.862-1.213-2.793-3.452-3.631Zm10.636 0-1.586-.652c-1.306-.559-2.053-1.303-2.053-2.235 0-1.024.933-1.862 2.613-1.862 2.052 0 3.265 1.024 3.545 2.7h.56c0-1.303 0-2.048-.654-2.7-.653-.652-1.959-1.024-3.918-1.024-2.519 0-4.291 1.21-4.291 3.352 0 1.676 1.212 2.7 3.172 3.538l1.586.652c1.586.652 2.332 1.303 2.332 2.328 0 1.024-.933 1.862-2.892 1.862-2.239 0-3.359-1.024-3.639-2.7h-.559c0 1.303 0 2.048.653 2.7.653.652 1.959 1.024 4.011 1.024 2.613 0 4.572-1.21 4.572-3.352 0-1.862-1.213-2.793-3.452-3.631Zm6.81-7.077c.747 0 1.213-.465 1.213-1.21 0-.931-.653-1.676-1.493-1.676-.746 0-1.212.466-1.212 1.21 0 .932.653 1.677 1.492 1.677Zm-.839 1.583h-2.333v.466h.56c1.586 0 1.866 1.024 1.866 2.607v9.125h2.332v-9.125c-.093-2.607-.653-3.073-2.425-3.073Zm9.889-.279c-3.639 0-5.784 2.886-5.784 6.425 0 3.538 2.052 6.424 5.784 6.424 3.638 0 5.784-2.886 5.784-6.424 0-3.539-2.146-6.425-5.784-6.425Zm0 11.732c-1.959 0-3.265-2.328-3.265-5.307 0-2.98 1.306-5.308 3.265-5.308s3.265 2.328 3.265 5.308-1.306 5.307-3.265 5.307Zm13.434-11.732c-1.586 0-2.705.652-3.358 1.303h-.187c-.28-.651-.933-1.024-2.239-1.024h-2.332v.466h.559c1.586 0 1.866 1.024 1.866 2.607v9.125h2.333v-9.87c.653-.745 1.586-1.397 2.612-1.397 1.399 0 2.892.931 2.892 3.539v7.82h2.332v-7.82c-.093-3.818-2.332-4.749-4.478-4.749ZM55.79 40.13v.652h-3.359v2.7h1.306c.56 0 1.027.093 1.307.28.28.186.56.372.746.558.187.187.28.466.373.745.094.28.094.466.094.559 0 .372-.094.652-.187.93-.093.28-.28.466-.467.653-.186.186-.466.279-.84.372-.28.093-.652.093-1.026.093h-1.959V40.13h4.012Zm-3.359 6.89h1.12c.373 0 .746-.093.933-.186.28-.093.466-.186.56-.372.093-.186.186-.28.28-.466.093-.186.093-.372.093-.558 0-.187 0-.373-.093-.559-.094-.186-.187-.372-.28-.466a2.906 2.906 0 0 0-.56-.372c-.28-.093-.56-.093-.933-.093h-1.12v3.072ZM59.242 44.6c0-.373.093-.652.186-.931.094-.28.28-.56.467-.838.186-.187.466-.373.746-.56a3.36 3.36 0 0 1 1.026-.185c.187 0 .467 0 .654.093.186.093.466.093.653.186.186.093.373.186.466.372.187.187.28.373.373.56.093.185.187.465.28.744.093.28.093.559.093.838 0 .465-.093.838-.186 1.21-.093.373-.28.652-.56.931-.186.28-.466.466-.84.56-.373.092-.653.185-1.026.185-.466 0-.84-.093-1.12-.186-.28-.186-.56-.372-.746-.559-.186-.279-.373-.558-.466-.838-.093-.279-.187-.651-.187-.93h-.84v2.513h-.653v-5.493h.654v2.42h1.026V44.6Zm.84 1.117c.093.28.186.465.373.745l.56.558c.186.187.466.187.839.187.28 0 .56-.093.84-.187.186-.093.466-.279.56-.558.186-.186.28-.466.373-.745.093-.28.093-.559.093-.838 0-.28 0-.559-.093-.838-.094-.28-.187-.559-.373-.745l-.56-.559c-.28-.093-.467-.186-.84-.186-.28 0-.56.093-.84.186a.84.84 0 0 0-.56.56c-.186.185-.28.465-.373.744-.093.28-.093.559-.093.838 0 .28 0 .559.093.838ZM65.772 50v-7.821h.653v1.117c0-.093.094-.28.187-.372.093-.093.187-.28.373-.373.094-.093.28-.186.467-.28.186-.092.466-.092.746-.092.373 0 .747.093 1.026.186.28.093.56.28.747.559.186.279.373.558.466.93.094.373.187.746.187 1.211 0 .466-.093.931-.187 1.304-.093.372-.28.651-.56.838a2.034 2.034 0 0 1-.746.465c-.28.093-.56.187-.933.187s-.746-.094-1.026-.28c-.28-.186-.467-.465-.653-.745V50.186h-.747V50Zm.84-4.004c.093.28.28.559.467.745.186.186.373.28.56.373.186.093.373.093.56.093.186 0 .372 0 .559-.093.187-.093.373-.187.56-.373.186-.186.28-.372.466-.745.093-.28.187-.652.187-1.117 0-.466-.094-.745-.187-1.117a2.028 2.028 0 0 0-.466-.745c-.187-.187-.373-.28-.56-.373-.187-.093-.373-.093-.56-.093-.186 0-.373 0-.56.093-.186.093-.373.187-.56.373-.186.186-.28.372-.466.745-.093.279-.186.651-.186 1.117 0 .465 0 .838.186 1.117ZM71.65 43.762c.093-.373.28-.652.56-.931.186-.28.466-.466.84-.56a3.36 3.36 0 0 1 1.026-.185c.373 0 .746.093 1.026.186s.56.372.84.559c.186.279.373.558.56.93.093.373.186.745.186 1.211 0 .466-.093.838-.187 1.21-.093.373-.28.652-.56.932-.186.279-.466.465-.84.558a3.36 3.36 0 0 1-1.025.187 3.36 3.36 0 0 1-1.027-.187c-.28-.093-.56-.372-.84-.558a8.186 8.186 0 0 1-.559-.931c-.093-.373-.187-.745-.187-1.21 0-.466 0-.839.187-1.211Zm.56 1.955c.093.28.186.465.373.745l.56.558c.186.187.466.187.84.187.28 0 .56-.093.839-.187a.84.84 0 0 0 .56-.558c.186-.186.28-.466.373-.745.093-.28.093-.559.093-.838 0-.28 0-.559-.093-.838-.093-.28-.187-.559-.373-.745l-.56-.559c-.187-.186-.466-.186-.84-.186-.28 0-.56.093-.84.186a.84.84 0 0 0-.56.56c-.186.185-.279.465-.372.744-.094.28-.094.559-.094.838 0 .28.094.559.094.838ZM84.618 42.179v5.493h-.653v-4.935h-2.892v4.935h-.653V42.18h4.198ZM86.577 45.158c0 .186 0 .373.094.652 0 .28.093.466.28.652.093.186.28.372.56.558.28.187.56.187.932.187.28 0 .56 0 .84-.093.28 0 .56-.187.84-.28v.652l-.84.28c-.28 0-.56.093-.84.093-.746 0-1.4-.28-1.866-.745-.466-.466-.653-1.21-.653-2.142 0-.465.094-.838.187-1.117a1.8 1.8 0 0 1 .466-.838c.187-.28.467-.373.747-.559.28-.093.653-.186.933-.186.373 0 .653.093.84.186.28.093.466.186.652.373.187.186.28.372.374.558.093.186.186.373.186.652.094.186.094.372.094.652V45.438h-3.826v-.28Zm3.266-.651v-.466c0-.186-.094-.466-.187-.652s-.28-.372-.466-.559c-.187-.186-.467-.279-.84-.279-.28 0-.56.093-.746.186-.187.093-.374.28-.56.466-.187.186-.28.372-.28.652-.093.186-.093.465-.093.652h3.172ZM91.895 50v-7.821h.653v1.117c0-.093.093-.28.187-.372.093-.093.186-.28.373-.373.093-.093.28-.186.466-.28.187-.092.467-.092.747-.092.373 0 .746.093 1.026.186s.56.28.746.559c.187.279.373.558.467.93.093.373.186.746.186 1.211 0 .466-.093.931-.186 1.304-.094.372-.28.651-.56.838a2.034 2.034 0 0 1-.746.465c-.28.093-.56.187-.933.187s-.747-.094-1.027-.28c-.28-.186-.466-.465-.653-.745V50.186h-.746V50Zm.84-4.004c.093.28.28.559.466.745.187.186.373.28.56.373.187.093.373.093.56.093.186 0 .373 0 .56-.093.186-.093.373-.187.56-.373.186-.186.28-.372.466-.745.093-.28.186-.652.186-1.117 0-.466-.093-.745-.186-1.117a2.027 2.027 0 0 0-.467-.745c-.186-.187-.373-.28-.56-.373-.186-.093-.373-.093-.56-.093-.186 0-.372 0-.56.093-.186.093-.372.187-.559.373-.186.186-.28.372-.466.745-.094.279-.187.651-.187 1.117 0 .465 0 .838.187 1.117ZM98.239 45.158c0 .186 0 .373.093.652 0 .28.094.466.28.652.094.186.28.372.56.558.28.187.56.187.933.187.28 0 .56 0 .84-.093.279 0 .559-.187.839-.28v.652l-.839.28c-.28 0-.56.093-.84.093-.746 0-1.4-.28-1.866-.745-.467-.466-.653-1.21-.653-2.142 0-.465.093-.838.186-1.117a1.8 1.8 0 0 1 .467-.838c.187-.28.466-.373.746-.559.28-.093.653-.186.933-.186.373 0 .653.093.84.186.28.093.466.186.653.373.187.186.28.372.373.558.093.186.187.373.187.652.093.186.093.372.093.652V45.438h-3.825v-.28Zm3.172-.651v-.466c0-.186-.093-.466-.187-.652-.093-.186-.279-.372-.466-.559-.187-.186-.467-.279-.84-.279-.28 0-.56.093-.746.186-.187.093-.373.28-.56.466-.186.186-.28.372-.28.652-.093.186-.093.465-.093.652h3.172ZM105.609 42.179c.28 0 .56 0 .747.093l.559.28c.187.092.28.279.28.465.093.186.093.372.093.558 0 .28-.093.466-.186.652a.954.954 0 0 1-.56.466c.28.093.56.186.746.465.187.28.28.559.28.931 0 .28 0 .466-.093.652s-.187.28-.28.466c-.093.093-.28.186-.373.279-.187.093-.28.093-.466.093-.094 0-.28.093-.374.093h-2.519V42.18h2.146Zm-1.586 2.328h1.679c.094 0 .28 0 .374-.094.093-.093.28-.093.373-.279a.712.712 0 0 0 .186-.465v-.28c0-.093-.093-.186-.186-.28a1.29 1.29 0 0 0-.373-.279c-.094-.093-.28-.093-.56-.093h-1.493v1.77Zm0 2.607h1.586c.187 0 .373 0 .56-.093.187-.094.28-.094.373-.187.093-.093.187-.186.187-.28.093-.092.093-.278.093-.372 0-.093 0-.279-.093-.372 0-.093-.094-.28-.187-.372-.093-.094-.28-.187-.373-.187-.187-.093-.373-.093-.653-.093h-1.493v1.956ZM108.781 43.762c.094-.373.28-.652.56-.931.187-.28.467-.466.84-.56a3.36 3.36 0 0 1 1.026-.185c.373 0 .746.093 1.026.186s.56.372.84.559c.186.279.373.558.56.93.093.373.186.745.186 1.211 0 .466-.093.838-.186 1.21-.094.373-.28.652-.56.932-.187.279-.467.465-.84.558a3.36 3.36 0 0 1-1.026.187 3.36 3.36 0 0 1-1.026-.187c-.28-.093-.56-.372-.84-.558a8.185 8.185 0 0 1-.56-.931c-.093-.373-.186-.745-.186-1.21 0-.466.093-.839.186-1.211Zm.653 1.955c.094.28.187.465.374.745l.559.558c.187.187.467.187.84.187.373 0 .56-.093.84-.187a.838.838 0 0 0 .559-.558c.187-.186.28-.466.374-.745.093-.28.093-.559.093-.838 0-.28 0-.559-.093-.838-.094-.28-.187-.559-.374-.745l-.559-.559c-.187-.186-.467-.186-.84-.186-.373 0-.56.093-.84.186a.838.838 0 0 0-.559.56c-.187.185-.28.465-.374.744-.093.28-.093.559-.093.838 0 .28 0 .559.093.838ZM119.324 42.179v4.935h.839v2.048h-.653v-1.49h-4.571v1.49h-.653v-2.048h.559c.187-.28.28-.466.374-.652.093-.186.186-.466.279-.652.094-.186.094-.466.094-.745V42.18h3.732Zm-.654 4.935v-4.377h-2.332v2.421c0 .28-.093.466-.093.652-.093.186-.093.466-.187.652-.093.186-.186.465-.373.652h2.985ZM121.19 43.762c.093-.373.279-.652.559-.931.187-.28.467-.466.84-.56a3.36 3.36 0 0 1 1.026-.185c.373 0 .747.093 1.026.186.28.093.56.372.84.559.187.279.373.558.56.93.093.373.186.745.186 1.211 0 .466-.093.838-.186 1.21-.093.373-.28.652-.56.932-.187.279-.466.465-.84.558a3.354 3.354 0 0 1-1.026.187 3.36 3.36 0 0 1-1.026-.187c-.28-.093-.56-.372-.84-.558-.186-.28-.373-.56-.559-.931-.094-.373-.187-.745-.187-1.21 0-.466 0-.839.187-1.211Zm.559 1.955c.094.28.187.465.373.745l.56.558c.187.187.467.187.84.187.28 0 .56-.093.84-.187a.84.84 0 0 0 .559-.558c.187-.186.28-.466.373-.745.094-.28.094-.559.094-.838 0-.28 0-.559-.094-.838-.093-.28-.186-.559-.373-.745l-.559-.559c-.187-.186-.467-.186-.84-.186-.28 0-.56.093-.84.186a.842.842 0 0 0-.56.56c-.186.185-.279.465-.373.744-.093.28-.093.559-.093.838 0 .28.093.559.093.838ZM129.586 42.179c.28 0 .559 0 .746.093l.56.28c.186.092.28.279.28.465.093.186.093.372.093.558 0 .28-.093.466-.187.652a.952.952 0 0 1-.559.466c.28.093.559.186.746.465.187.28.28.559.28.931 0 .28 0 .466-.093.652-.094.186-.187.28-.28.466-.094.093-.28.186-.373.279-.187.093-.28.093-.467.093-.093 0-.28.093-.373.093H127.44V42.18h2.146Zm-1.493 2.328h1.679c.094 0 .28 0 .373-.094.094-.093.28-.093.374-.279a.712.712 0 0 0 .186-.465v-.28c0-.093-.093-.186-.186-.28-.094-.092-.187-.185-.374-.279-.093-.093-.279-.093-.559-.093h-1.493v1.77Zm0 2.607h1.586c.187 0 .373 0 .56-.093.186-.094.28-.094.373-.187.093-.093.187-.186.187-.28.093-.092.093-.278.093-.372 0-.093 0-.279-.093-.372 0-.093-.094-.28-.187-.372-.093-.094-.28-.187-.373-.187-.187-.093-.373-.093-.653-.093h-1.493v1.956Z" fill="#9C1006"/>
    </g>
    <defs>
        <clipPath id="a">
            <path fill="#fff" d="M0 0h160v50H0z"/>
        </clipPath>
    </defs>
</svg>
