<svg width="449" height="98" viewBox="0 0 449 98" fill="none" xmlns="http://www.w3.org/2000/svg">
<path d="M19.6961 26.1C19.6961 28.2529 19.4311 30.1941 18.9011 31.9235C18.3711 33.6529 17.5761 35.1265 16.5161 36.3441C15.4738 37.5618 14.1665 38.4971 12.5941 39.15C11.0218 39.8029 9.19329 40.1294 7.10862 40.1294C6.15462 40.1294 5.21829 40.0677 4.29963 39.9441C3.38096 39.8382 2.41813 39.6618 1.41113 39.4147C1.46413 38.7088 1.52596 38.0029 1.59663 37.2971C1.66729 36.5912 1.72913 35.8853 1.78213 35.1794C1.83513 34.7912 1.98529 34.4824 2.23263 34.2529C2.49763 34.0059 2.86863 33.8824 3.34563 33.8824C3.64596 33.8824 4.03463 33.9441 4.51163 34.0677C5.00629 34.1912 5.62463 34.2529 6.36663 34.2529C7.37363 34.2529 8.26579 34.1118 9.04313 33.8294C9.82046 33.5294 10.4653 33.0618 10.9776 32.4265C11.5076 31.7912 11.9051 30.9706 12.1701 29.9647C12.4351 28.9412 12.5676 27.7059 12.5676 26.2588V1.42941H19.6961V26.1ZM37.9857 12.1235C39.9997 12.1235 41.8282 12.45 43.4712 13.1029C45.1319 13.7559 46.5452 14.6824 47.7112 15.8824C48.8949 17.0824 49.8047 18.5471 50.4407 20.2765C51.0767 22.0059 51.3947 23.9382 51.3947 26.0735C51.3947 28.2265 51.0767 30.1677 50.4407 31.8971C49.8047 33.6265 48.8949 35.1 47.7112 36.3176C46.5452 37.5353 45.1319 38.4706 43.4712 39.1235C41.8282 39.7765 39.9997 40.1029 37.9857 40.1029C35.954 40.1029 34.1079 39.7765 32.4472 39.1235C30.7865 38.4706 29.3644 37.5353 28.1807 36.3176C27.0147 35.1 26.1049 33.6265 25.4512 31.8971C24.8152 30.1677 24.4972 28.2265 24.4972 26.0735C24.4972 23.9382 24.8152 22.0059 25.4512 20.2765C26.1049 18.5471 27.0147 17.0824 28.1807 15.8824C29.3644 14.6824 30.7865 13.7559 32.4472 13.1029C34.1079 12.45 35.954 12.1235 37.9857 12.1235ZM37.9857 35.0735C40.247 35.0735 41.9165 34.3147 42.9942 32.7971C44.0895 31.2794 44.6372 29.0559 44.6372 26.1265C44.6372 23.1971 44.0895 20.9647 42.9942 19.4294C41.9165 17.8941 40.247 17.1265 37.9857 17.1265C35.689 17.1265 33.9842 17.9029 32.8712 19.4559C31.7759 20.9912 31.2282 23.2147 31.2282 26.1265C31.2282 29.0382 31.7759 31.2618 32.8712 32.7971C33.9842 34.3147 35.689 35.0735 37.9857 35.0735ZM80.1547 12.5471L65.3412 47.1706C65.1469 47.6294 64.8907 47.9735 64.5727 48.2029C64.2724 48.45 63.8042 48.5735 63.1682 48.5735H58.2922L63.3802 37.6677L52.3827 12.5471H58.1332C58.6455 12.5471 59.043 12.6706 59.3257 12.9177C59.626 13.1647 59.8469 13.4471 59.9882 13.7647L65.7652 27.8471C65.9595 28.3235 66.1185 28.8 66.2422 29.2765C66.3835 29.7529 66.516 30.2382 66.6397 30.7324C66.7987 30.2382 66.9577 29.7529 67.1167 29.2765C67.2757 28.7824 67.4524 28.2971 67.6467 27.8206L73.1057 13.7647C73.247 13.4118 73.4767 13.1206 73.7947 12.8912C74.1304 12.6618 74.5014 12.5471 74.9077 12.5471H80.1547Z" fill="#222222"/>
<path d="M135.425 1.42941L123.527 39.7059H117.087L108.713 13.5529C108.484 12.9177 108.272 12.1412 108.077 11.2235C107.971 11.6647 107.865 12.0794 107.759 12.4677C107.653 12.8559 107.538 13.2177 107.415 13.5529L98.9613 39.7059H92.4953L80.6233 1.42941H86.5858C87.2041 1.42941 87.7165 1.57942 88.1228 1.87942C88.5468 2.16177 88.8295 2.55 88.9708 3.04412L95.4898 25.9412C95.6311 26.5059 95.7636 27.1235 95.8873 27.7941C96.0286 28.4471 96.17 29.1353 96.3113 29.8588C96.4526 29.1177 96.6028 28.4206 96.7618 27.7677C96.9385 27.1147 97.124 26.5059 97.3183 25.9412L104.844 3.04412C104.986 2.63824 105.259 2.26765 105.666 1.93236C106.09 1.59706 106.602 1.42941 107.203 1.42941H109.296C109.915 1.42941 110.418 1.57942 110.807 1.87942C111.195 2.17942 111.487 2.56765 111.681 3.04412L119.181 25.9412C119.552 27.0353 119.887 28.2971 120.188 29.7265C120.417 28.3324 120.674 27.0706 120.956 25.9412L127.475 3.04412C127.581 2.60294 127.846 2.22353 128.27 1.90589C128.712 1.58824 129.233 1.42941 129.834 1.42941H135.425ZM147.919 12.1235C149.933 12.1235 151.761 12.45 153.404 13.1029C155.065 13.7559 156.478 14.6824 157.644 15.8824C158.828 17.0824 159.738 18.5471 160.374 20.2765C161.01 22.0059 161.328 23.9382 161.328 26.0735C161.328 28.2265 161.01 30.1677 160.374 31.8971C159.738 33.6265 158.828 35.1 157.644 36.3176C156.478 37.5353 155.065 38.4706 153.404 39.1235C151.761 39.7765 149.933 40.1029 147.919 40.1029C145.888 40.1029 144.041 39.7765 142.381 39.1235C140.72 38.4706 139.298 37.5353 138.114 36.3176C136.948 35.1 136.038 33.6265 135.385 31.8971C134.749 30.1677 134.431 28.2265 134.431 26.0735C134.431 23.9382 134.749 22.0059 135.385 20.2765C136.038 18.5471 136.948 17.0824 138.114 15.8824C139.298 14.6824 140.72 13.7559 142.381 13.1029C144.041 12.45 145.888 12.1235 147.919 12.1235ZM147.919 35.0735C150.18 35.0735 151.849 34.3147 152.927 32.7971C154.022 31.2794 154.57 29.0559 154.57 26.1265C154.57 23.1971 154.022 20.9647 152.927 19.4294C151.849 17.8941 150.18 17.1265 147.919 17.1265C145.623 17.1265 143.918 17.9029 142.805 19.4559C141.709 20.9912 141.162 23.2147 141.162 26.1265C141.162 29.0382 141.709 31.2618 142.805 32.7971C143.918 34.3147 145.623 35.0735 147.919 35.0735ZM172.496 17.2588C173.344 15.6353 174.351 14.3647 175.517 13.4471C176.683 12.5118 178.061 12.0441 179.651 12.0441C180.905 12.0441 181.912 12.3177 182.672 12.8647L182.248 17.7618C182.16 18.0794 182.027 18.3088 181.85 18.45C181.691 18.5735 181.471 18.6353 181.188 18.6353C180.923 18.6353 180.525 18.5912 179.995 18.5029C179.483 18.4147 178.98 18.3706 178.485 18.3706C177.761 18.3706 177.116 18.4765 176.55 18.6882C175.985 18.9 175.473 19.2088 175.013 19.6147C174.572 20.0029 174.174 20.4794 173.821 21.0441C173.485 21.6088 173.167 22.2529 172.867 22.9765V39.7059H166.321V12.5471H170.164C170.835 12.5471 171.303 12.6706 171.568 12.9177C171.833 13.1471 172.01 13.5706 172.098 14.1882L172.496 17.2588ZM192.639 0.37059V22.8971H193.858C194.299 22.8971 194.644 22.8441 194.891 22.7382C195.156 22.6147 195.421 22.3765 195.686 22.0235L202.444 13.6853C202.726 13.3147 203.036 13.0324 203.371 12.8382C203.725 12.6441 204.175 12.5471 204.723 12.5471H210.712L202.258 22.6324C201.658 23.4265 201.004 24.0353 200.297 24.4588C200.668 24.7235 200.995 25.0324 201.278 25.3853C201.578 25.7382 201.861 26.1177 202.126 26.5235L211.189 39.7059H205.279C204.767 39.7059 204.325 39.6265 203.954 39.4677C203.583 39.2912 203.274 38.9824 203.027 38.5412L196.084 28.2441C195.836 27.8382 195.58 27.5735 195.315 27.45C195.05 27.3265 194.653 27.2647 194.123 27.2647H192.639V39.7059H186.093V0.37059H192.639Z" fill="#4CAF50"/>
<path d="M11.89 91.04C11.9967 91.04 12.09 91.0833 12.17 91.17L12.94 92C12.3533 92.68 11.64 93.21 10.8 93.59C9.96667 93.97 8.95667 94.16 7.77 94.16C6.74333 94.16 5.81 93.9833 4.97 93.63C4.13 93.27 3.41333 92.77 2.82 92.13C2.22667 91.4833 1.76667 90.71 1.44 89.81C1.11333 88.91 0.95 87.92 0.95 86.84C0.95 85.76 1.12 84.77 1.46 83.87C1.8 82.97 2.27667 82.1967 2.89 81.55C3.51 80.9033 4.25 80.4033 5.11 80.05C5.97 79.69 6.92 79.51 7.96 79.51C8.98 79.51 9.88 79.6733 10.66 80C11.44 80.3267 12.1267 80.77 12.72 81.33L12.08 82.22C12.04 82.2867 11.9867 82.3433 11.92 82.39C11.86 82.43 11.7767 82.45 11.67 82.45C11.55 82.45 11.4033 82.3867 11.23 82.26C11.0567 82.1267 10.83 81.98 10.55 81.82C10.27 81.66 9.92 81.5167 9.5 81.39C9.08 81.2567 8.56333 81.19 7.95 81.19C7.21 81.19 6.53333 81.32 5.92 81.58C5.30667 81.8333 4.77667 82.2033 4.33 82.69C3.89 83.1767 3.54667 83.77 3.3 84.47C3.05333 85.17 2.93 85.96 2.93 86.84C2.93 87.7333 3.05667 88.53 3.31 89.23C3.57 89.93 3.92 90.5233 4.36 91.01C4.80667 91.49 5.33 91.8567 5.93 92.11C6.53667 92.3633 7.19 92.49 7.89 92.49C8.31667 92.49 8.7 92.4667 9.04 92.42C9.38667 92.3667 9.70333 92.2867 9.99 92.18C10.2833 92.0733 10.5533 91.94 10.8 91.78C11.0533 91.6133 11.3033 91.4167 11.55 91.19C11.6633 91.09 11.7767 91.04 11.89 91.04ZM19.1594 86.61C19.7194 86.61 20.2127 86.5433 20.6394 86.41C21.0727 86.27 21.4327 86.0767 21.7194 85.83C22.0127 85.5767 22.2327 85.2767 22.3794 84.93C22.526 84.5833 22.5994 84.2 22.5994 83.78C22.5994 82.9267 22.3194 82.2833 21.7594 81.85C21.1994 81.4167 20.3594 81.2 19.2394 81.2H17.1194V86.61H19.1594ZM25.7794 94H24.0594C23.706 94 23.446 93.8633 23.2794 93.59L19.5594 88.47C19.446 88.31 19.3227 88.1967 19.1894 88.13C19.0627 88.0567 18.8627 88.02 18.5894 88.02H17.1194V94H15.1894V79.67H19.2394C20.146 79.67 20.9294 79.7633 21.5894 79.95C22.2494 80.13 22.7927 80.3933 23.2194 80.74C23.6527 81.0867 23.9727 81.5067 24.1794 82C24.386 82.4867 24.4894 83.0333 24.4894 83.64C24.4894 84.1467 24.4094 84.62 24.2494 85.06C24.0894 85.5 23.856 85.8967 23.5494 86.25C23.2494 86.5967 22.8794 86.8933 22.4394 87.14C22.006 87.3867 21.5127 87.5733 20.9594 87.7C21.206 87.84 21.4194 88.0433 21.5994 88.31L25.7794 94ZM42.6384 79.67V94H40.9384V83.47C40.9384 83.33 40.9418 83.18 40.9484 83.02C40.9618 82.86 40.9751 82.6967 40.9884 82.53L36.0684 91.49C35.9151 91.79 35.6818 91.94 35.3684 91.94H35.0884C34.7751 91.94 34.5418 91.79 34.3884 91.49L29.3684 82.49C29.4084 82.8433 29.4284 83.17 29.4284 83.47V94H27.7284V79.67H29.1584C29.3318 79.67 29.4651 79.6867 29.5584 79.72C29.6518 79.7533 29.7418 79.8467 29.8284 80L34.7784 88.82C34.8584 88.98 34.9351 89.1467 35.0084 89.32C35.0884 89.4933 35.1618 89.67 35.2284 89.85C35.2951 89.67 35.3651 89.4933 35.4384 89.32C35.5118 89.14 35.5918 88.97 35.6784 88.81L40.5384 80C40.6184 79.8467 40.7051 79.7533 40.7984 79.72C40.8984 79.6867 41.0351 79.67 41.2084 79.67H42.6384ZM59.6898 83.87V94H57.9098V87.12C57.9098 86.9867 57.9165 86.8433 57.9298 86.69C57.9432 86.5367 57.9598 86.3833 57.9798 86.23C57.9198 86.3633 57.8598 86.4867 57.7998 86.6C57.7398 86.7133 57.6765 86.8167 57.6098 86.91L52.7198 93.56C52.6465 93.6667 52.5532 93.77 52.4398 93.87C52.3332 93.9633 52.2132 94.01 52.0798 94.01H50.9998V83.88H52.7898V90.76C52.7898 90.8867 52.7832 91.0267 52.7698 91.18C52.7565 91.3267 52.7398 91.4767 52.7198 91.63C52.7798 91.5033 52.8398 91.3867 52.8998 91.28C52.9598 91.1667 53.0198 91.0633 53.0798 90.97L57.9698 84.32C58.0432 84.2133 58.1365 84.1133 58.2498 84.02C58.3632 83.92 58.4865 83.87 58.6198 83.87H59.6898ZM67.0009 81.33C67.5943 80.77 68.2809 80.3267 69.0609 80C69.8409 79.6733 70.7409 79.51 71.7609 79.51C72.8009 79.51 73.7509 79.69 74.6109 80.05C75.4709 80.4033 76.2076 80.9033 76.8209 81.55C77.4409 82.1967 77.9209 82.97 78.2609 83.87C78.6009 84.77 78.7709 85.76 78.7709 86.84C78.7709 87.92 78.6076 88.91 78.2809 89.81C77.9543 90.71 77.4943 91.4833 76.9009 92.13C76.3076 92.77 75.5909 93.27 74.7509 93.63C73.9109 93.9833 72.9776 94.16 71.9509 94.16C70.7643 94.16 69.7509 93.97 68.9109 93.59C68.0776 93.21 67.3676 92.68 66.7809 92L67.5509 91.17C67.6309 91.0833 67.7243 91.04 67.8309 91.04C67.9443 91.04 68.0576 91.09 68.1709 91.19C68.4176 91.4167 68.6643 91.6133 68.9109 91.78C69.1643 91.94 69.4343 92.0733 69.7209 92.18C70.0143 92.2867 70.3309 92.3667 70.6709 92.42C71.0109 92.4667 71.3976 92.49 71.8309 92.49C72.4909 92.49 73.1076 92.3767 73.6809 92.15C74.2543 91.9233 74.7609 91.5967 75.2009 91.17C75.6409 90.7367 75.9976 90.2067 76.2709 89.58C76.5443 88.9533 76.7109 88.24 76.7709 87.44H69.5409V85.97H76.7509C76.6709 85.2167 76.4909 84.5467 76.2109 83.96C75.9376 83.3667 75.5843 82.8667 75.1509 82.46C74.7176 82.0467 74.2143 81.7333 73.6409 81.52C73.0676 81.3 72.4443 81.19 71.7709 81.19C71.1576 81.19 70.6409 81.2567 70.2209 81.39C69.8009 81.5167 69.4509 81.66 69.1709 81.82C68.8909 81.98 68.6643 82.1267 68.4909 82.26C68.3176 82.3867 68.1709 82.45 68.0509 82.45C67.9443 82.45 67.8576 82.43 67.7909 82.39C67.7309 82.3433 67.6809 82.2867 67.6409 82.22L67.0009 81.33ZM87.0913 84.37C87.1846 84.2233 87.3079 84.1033 87.4613 84.01C87.6146 83.9167 87.7779 83.87 87.9513 83.87H89.3413L86.7113 87.73C86.5513 87.9767 86.3846 88.18 86.2113 88.34C86.0379 88.4933 85.8246 88.6133 85.5713 88.7C85.8913 88.7867 86.1613 88.9233 86.3813 89.11C86.6013 89.29 86.7979 89.5233 86.9713 89.81L89.6312 94H88.3913C88.0713 94 87.8246 93.9467 87.6513 93.84C87.4779 93.7333 87.3279 93.58 87.2013 93.38L85.2313 90.23C84.9179 89.71 84.4479 89.45 83.8213 89.45H82.7313V94.01H80.9413V83.87H82.7313V88.25H83.6913C84.2246 88.25 84.6413 88.0233 84.9413 87.57L87.0913 84.37ZM95.1722 83.71C95.9122 83.71 96.5789 83.8333 97.1722 84.08C97.7655 84.3267 98.2722 84.6767 98.6922 85.13C99.1122 85.5833 99.4322 86.1333 99.6522 86.78C99.8789 87.42 99.9922 88.1367 99.9922 88.93C99.9922 89.73 99.8789 90.45 99.6522 91.09C99.4322 91.73 99.1122 92.2767 98.6922 92.73C98.2722 93.1833 97.7655 93.5333 97.1722 93.78C96.5789 94.02 95.9122 94.14 95.1722 94.14C94.4255 94.14 93.7522 94.02 93.1522 93.78C92.5589 93.5333 92.0522 93.1833 91.6322 92.73C91.2122 92.2767 90.8889 91.73 90.6622 91.09C90.4422 90.45 90.3322 89.73 90.3322 88.93C90.3322 88.1367 90.4422 87.42 90.6622 86.78C90.8889 86.1333 91.2122 85.5833 91.6322 85.13C92.0522 84.6767 92.5589 84.3267 93.1522 84.08C93.7522 83.8333 94.4255 83.71 95.1722 83.71ZM95.1722 92.75C96.1722 92.75 96.9189 92.4167 97.4122 91.75C97.9055 91.0767 98.1522 90.14 98.1522 88.94C98.1522 87.7333 97.9055 86.7933 97.4122 86.12C96.9189 85.4467 96.1722 85.11 95.1722 85.11C94.6655 85.11 94.2222 85.1967 93.8422 85.37C93.4689 85.5433 93.1555 85.7933 92.9022 86.12C92.6555 86.4467 92.4689 86.85 92.3422 87.33C92.2222 87.8033 92.1622 88.34 92.1622 88.94C92.1622 90.14 92.4089 91.0767 92.9022 91.75C93.4022 92.4167 94.1589 92.75 95.1722 92.75ZM114.417 85.67C114.364 85.7433 114.31 85.8 114.257 85.84C114.204 85.88 114.13 85.9 114.037 85.9C113.937 85.9 113.827 85.86 113.707 85.78C113.587 85.6933 113.437 85.6 113.257 85.5C113.084 85.4 112.867 85.31 112.607 85.23C112.354 85.1433 112.04 85.1 111.667 85.1C111.167 85.1 110.727 85.19 110.347 85.37C109.967 85.5433 109.647 85.7967 109.387 86.13C109.134 86.4633 108.94 86.8667 108.807 87.34C108.68 87.8133 108.617 88.3433 108.617 88.93C108.617 89.5433 108.687 90.09 108.827 90.57C108.967 91.0433 109.164 91.4433 109.417 91.77C109.677 92.09 109.987 92.3367 110.347 92.51C110.714 92.6767 111.124 92.76 111.577 92.76C112.01 92.76 112.367 92.71 112.647 92.61C112.927 92.5033 113.157 92.3867 113.337 92.26C113.524 92.1333 113.677 92.02 113.797 91.92C113.924 91.8133 114.047 91.76 114.167 91.76C114.314 91.76 114.427 91.8167 114.507 91.93L115.007 92.58C114.787 92.8533 114.537 93.0867 114.257 93.28C113.977 93.4733 113.674 93.6367 113.347 93.77C113.027 93.8967 112.69 93.99 112.337 94.05C111.984 94.11 111.624 94.14 111.257 94.14C110.624 94.14 110.034 94.0233 109.487 93.79C108.947 93.5567 108.477 93.22 108.077 92.78C107.677 92.3333 107.364 91.7867 107.137 91.14C106.91 90.4933 106.797 89.7567 106.797 88.93C106.797 88.1767 106.9 87.48 107.107 86.84C107.32 86.2 107.627 85.65 108.027 85.19C108.434 84.7233 108.93 84.36 109.517 84.1C110.11 83.84 110.79 83.71 111.557 83.71C112.27 83.71 112.897 83.8267 113.437 84.06C113.984 84.2867 114.467 84.61 114.887 85.03L114.417 85.67ZM125.608 83.87V94H123.828V87.12C123.828 86.9867 123.834 86.8433 123.848 86.69C123.861 86.5367 123.878 86.3833 123.898 86.23C123.838 86.3633 123.778 86.4867 123.718 86.6C123.658 86.7133 123.594 86.8167 123.528 86.91L118.638 93.56C118.564 93.6667 118.471 93.77 118.358 93.87C118.251 93.9633 118.131 94.01 117.998 94.01H116.918V83.88H118.708V90.76C118.708 90.8867 118.701 91.0267 118.688 91.18C118.674 91.3267 118.658 91.4767 118.638 91.63C118.698 91.5033 118.758 91.3867 118.818 91.28C118.878 91.1667 118.938 91.0633 118.998 90.97L123.888 84.32C123.961 84.2133 124.054 84.1133 124.168 84.02C124.281 83.92 124.404 83.87 124.538 83.87H125.608ZM135.472 85.67C135.418 85.7433 135.365 85.8 135.312 85.84C135.258 85.88 135.185 85.9 135.092 85.9C134.992 85.9 134.882 85.86 134.762 85.78C134.642 85.6933 134.492 85.6 134.312 85.5C134.138 85.4 133.922 85.31 133.662 85.23C133.408 85.1433 133.095 85.1 132.722 85.1C132.222 85.1 131.782 85.19 131.402 85.37C131.022 85.5433 130.702 85.7967 130.442 86.13C130.188 86.4633 129.995 86.8667 129.862 87.34C129.735 87.8133 129.672 88.3433 129.672 88.93C129.672 89.5433 129.742 90.09 129.882 90.57C130.022 91.0433 130.218 91.4433 130.472 91.77C130.732 92.09 131.042 92.3367 131.402 92.51C131.768 92.6767 132.178 92.76 132.632 92.76C133.065 92.76 133.422 92.71 133.702 92.61C133.982 92.5033 134.212 92.3867 134.392 92.26C134.578 92.1333 134.732 92.02 134.852 91.92C134.978 91.8133 135.102 91.76 135.222 91.76C135.368 91.76 135.482 91.8167 135.562 91.93L136.062 92.58C135.842 92.8533 135.592 93.0867 135.312 93.28C135.032 93.4733 134.728 93.6367 134.402 93.77C134.082 93.8967 133.745 93.99 133.392 94.05C133.038 94.11 132.678 94.14 132.312 94.14C131.678 94.14 131.088 94.0233 130.542 93.79C130.002 93.5567 129.532 93.22 129.132 92.78C128.732 92.3333 128.418 91.7867 128.192 91.14C127.965 90.4933 127.852 89.7567 127.852 88.93C127.852 88.1767 127.955 87.48 128.162 86.84C128.375 86.2 128.682 85.65 129.082 85.19C129.488 84.7233 129.985 84.36 130.572 84.1C131.165 83.84 131.845 83.71 132.612 83.71C133.325 83.71 133.952 83.8267 134.492 84.06C135.038 84.2867 135.522 84.61 135.942 85.03L135.472 85.67ZM146.393 85.23H142.503V94H140.723V85.23H136.833V83.87H146.393V85.23ZM154.46 87.83C154.46 87.4167 154.4 87.04 154.28 86.7C154.166 86.3533 153.996 86.0567 153.77 85.81C153.55 85.5567 153.28 85.3633 152.96 85.23C152.64 85.09 152.276 85.02 151.87 85.02C151.016 85.02 150.34 85.27 149.84 85.77C149.346 86.2633 149.04 86.95 148.92 87.83H154.46ZM155.9 92.58C155.68 92.8467 155.416 93.08 155.11 93.28C154.803 93.4733 154.473 93.6333 154.12 93.76C153.773 93.8867 153.413 93.98 153.04 94.04C152.666 94.1067 152.296 94.14 151.93 94.14C151.23 94.14 150.583 94.0233 149.99 93.79C149.403 93.55 148.893 93.2033 148.46 92.75C148.033 92.29 147.7 91.7233 147.46 91.05C147.22 90.3767 147.1 89.6033 147.1 88.73C147.1 88.0233 147.206 87.3633 147.42 86.75C147.64 86.1367 147.953 85.6067 148.36 85.16C148.766 84.7067 149.263 84.3533 149.85 84.1C150.436 83.84 151.096 83.71 151.83 83.71C152.436 83.71 152.996 83.8133 153.51 84.02C154.03 84.22 154.476 84.5133 154.85 84.9C155.23 85.28 155.526 85.7533 155.74 86.32C155.953 86.88 156.06 87.52 156.06 88.24C156.06 88.52 156.03 88.7067 155.97 88.8C155.91 88.8933 155.796 88.94 155.63 88.94H148.86C148.88 89.58 148.966 90.1367 149.12 90.61C149.28 91.0833 149.5 91.48 149.78 91.8C150.06 92.1133 150.393 92.35 150.78 92.51C151.166 92.6633 151.6 92.74 152.08 92.74C152.526 92.74 152.91 92.69 153.23 92.59C153.556 92.4833 153.836 92.37 154.07 92.25C154.303 92.13 154.496 92.02 154.65 91.92C154.81 91.8133 154.946 91.76 155.06 91.76C155.206 91.76 155.32 91.8167 155.4 91.93L155.9 92.58ZM169.536 83.84V94H167.926V87.27C167.926 87.0833 167.936 86.8767 167.956 86.65C167.983 86.4167 168.016 86.2 168.056 86L164.536 92.17C164.483 92.27 164.413 92.35 164.326 92.41C164.239 92.47 164.139 92.5 164.026 92.5H163.826C163.713 92.5 163.609 92.47 163.516 92.41C163.429 92.35 163.359 92.27 163.306 92.17L159.726 85.98C159.759 86.18 159.789 86.4 159.816 86.64C159.843 86.8733 159.856 87.0833 159.856 87.27V94H158.246V83.84H159.676C159.803 83.84 159.926 83.87 160.046 83.93C160.166 83.9833 160.269 84.0867 160.356 84.24L163.516 89.52C163.669 89.8267 163.806 90.15 163.926 90.49C164.039 90.1367 164.173 89.8133 164.326 89.52L167.426 84.24C167.513 84.08 167.616 83.9733 167.736 83.92C167.856 83.8667 167.979 83.84 168.106 83.84H169.536ZM177.838 89.44C177.018 89.4667 176.318 89.5333 175.738 89.64C175.164 89.74 174.694 89.8733 174.328 90.04C173.968 90.2067 173.704 90.4033 173.538 90.63C173.378 90.8567 173.298 91.11 173.298 91.39C173.298 91.6567 173.341 91.8867 173.428 92.08C173.514 92.2733 173.631 92.4333 173.778 92.56C173.931 92.68 174.108 92.77 174.308 92.83C174.514 92.8833 174.734 92.91 174.968 92.91C175.281 92.91 175.568 92.88 175.828 92.82C176.088 92.7533 176.331 92.66 176.558 92.54C176.791 92.42 177.011 92.2767 177.218 92.11C177.431 91.9433 177.638 91.7533 177.838 91.54V89.44ZM172.088 85.3C172.648 84.76 173.251 84.3567 173.898 84.09C174.544 83.8233 175.261 83.69 176.048 83.69C176.614 83.69 177.118 83.7833 177.558 83.97C177.998 84.1567 178.368 84.4167 178.668 84.75C178.968 85.0833 179.194 85.4867 179.348 85.96C179.501 86.4333 179.578 86.9533 179.578 87.52V94H178.788C178.614 94 178.481 93.9733 178.388 93.92C178.294 93.86 178.221 93.7467 178.168 93.58L177.968 92.62C177.701 92.8667 177.441 93.0867 177.188 93.28C176.934 93.4667 176.668 93.6267 176.388 93.76C176.108 93.8867 175.808 93.9833 175.488 94.05C175.174 94.1233 174.824 94.16 174.438 94.16C174.044 94.16 173.674 94.1067 173.328 94C172.981 93.8867 172.678 93.72 172.418 93.5C172.164 93.28 171.961 93.0033 171.808 92.67C171.661 92.33 171.588 91.93 171.588 91.47C171.588 91.07 171.698 90.6867 171.918 90.32C172.138 89.9467 172.494 89.6167 172.988 89.33C173.481 89.0433 174.124 88.81 174.918 88.63C175.711 88.4433 176.684 88.3367 177.838 88.31V87.52C177.838 86.7333 177.668 86.14 177.328 85.74C176.988 85.3333 176.491 85.13 175.838 85.13C175.398 85.13 175.028 85.1867 174.728 85.3C174.434 85.4067 174.178 85.53 173.958 85.67C173.744 85.8033 173.558 85.9267 173.398 86.04C173.244 86.1467 173.091 86.2 172.938 86.2C172.818 86.2 172.714 86.17 172.628 86.11C172.541 86.0433 172.468 85.9633 172.407 85.87L172.088 85.3ZM194.386 92.7V85.27H191.176C191.109 86.31 191.016 87.23 190.896 88.03C190.776 88.83 190.636 89.5333 190.476 90.14C190.323 90.74 190.149 91.25 189.956 91.67C189.769 92.09 189.573 92.4333 189.366 92.7H194.386ZM197.966 92.65V96.94C197.966 97.1133 197.916 97.2467 197.816 97.34C197.723 97.44 197.599 97.49 197.446 97.49H196.356V94H187.836V96.98C187.836 97.1067 187.796 97.2233 187.716 97.33C187.643 97.4367 187.519 97.49 187.346 97.49H186.226V92.7H186.556C186.789 92.7 187.019 92.66 187.246 92.58C187.479 92.5 187.703 92.35 187.916 92.13C188.129 91.9033 188.329 91.5867 188.516 91.18C188.709 90.7733 188.883 90.2433 189.036 89.59C189.189 88.9367 189.323 88.1433 189.436 87.21C189.549 86.27 189.639 85.1567 189.706 83.87H196.116V92.65H197.966ZM208.649 94H206.869V85.27H203.669C203.589 86.5567 203.469 87.67 203.309 88.61C203.149 89.5433 202.956 90.34 202.729 91C202.509 91.6533 202.259 92.1867 201.979 92.6C201.706 93.0067 201.416 93.3233 201.109 93.55C200.809 93.7767 200.496 93.93 200.169 94.01C199.849 94.09 199.529 94.13 199.209 94.13C198.643 94.13 198.359 94.04 198.359 93.86V92.73H198.879C199.106 92.73 199.336 92.69 199.569 92.61C199.803 92.53 200.029 92.3767 200.249 92.15C200.476 91.9233 200.693 91.6067 200.899 91.2C201.106 90.7867 201.293 90.2533 201.459 89.6C201.633 88.94 201.779 88.1433 201.899 87.21C202.026 86.27 202.123 85.1567 202.189 83.87H208.649V94ZM216.799 88.6V85.07H215.099C214.719 85.07 214.399 85.1267 214.139 85.24C213.879 85.3467 213.669 85.4867 213.509 85.66C213.355 85.8267 213.245 86.0167 213.179 86.23C213.112 86.4367 213.079 86.6433 213.079 86.85C213.079 87.3967 213.279 87.8267 213.679 88.14C214.079 88.4467 214.625 88.6 215.319 88.6H216.799ZM218.499 83.87V94H216.799V89.73H216.019C215.832 89.73 215.675 89.7467 215.549 89.78C215.429 89.8067 215.322 89.8467 215.229 89.9C215.142 89.9533 215.065 90.0233 214.999 90.11C214.932 90.19 214.862 90.2833 214.789 90.39L212.569 93.38C212.455 93.5933 212.315 93.75 212.149 93.85C211.989 93.95 211.752 94 211.439 94H210.199L213.139 90.18C213.379 89.78 213.695 89.5133 214.089 89.38C213.575 89.3133 213.142 89.1933 212.789 89.02C212.435 88.8467 212.145 88.6433 211.919 88.41C211.699 88.17 211.539 87.9067 211.439 87.62C211.339 87.3333 211.289 87.0433 211.289 86.75C211.289 86.4033 211.355 86.0567 211.489 85.71C211.629 85.3633 211.849 85.0567 212.149 84.79C212.449 84.5167 212.835 84.2967 213.309 84.13C213.789 83.9567 214.369 83.87 215.049 83.87H218.499ZM231.939 89.44C231.119 89.4667 230.419 89.5333 229.839 89.64C229.266 89.74 228.796 89.8733 228.429 90.04C228.069 90.2067 227.806 90.4033 227.639 90.63C227.479 90.8567 227.399 91.11 227.399 91.39C227.399 91.6567 227.442 91.8867 227.529 92.08C227.616 92.2733 227.732 92.4333 227.879 92.56C228.032 92.68 228.209 92.77 228.409 92.83C228.616 92.8833 228.836 92.91 229.069 92.91C229.382 92.91 229.669 92.88 229.929 92.82C230.189 92.7533 230.432 92.66 230.659 92.54C230.892 92.42 231.112 92.2767 231.319 92.11C231.532 91.9433 231.739 91.7533 231.939 91.54V89.44ZM226.189 85.3C226.749 84.76 227.352 84.3567 227.999 84.09C228.646 83.8233 229.362 83.69 230.149 83.69C230.716 83.69 231.219 83.7833 231.659 83.97C232.099 84.1567 232.469 84.4167 232.769 84.75C233.069 85.0833 233.296 85.4867 233.449 85.96C233.602 86.4333 233.679 86.9533 233.679 87.52V94H232.889C232.716 94 232.582 93.9733 232.489 93.92C232.396 93.86 232.322 93.7467 232.269 93.58L232.069 92.62C231.802 92.8667 231.542 93.0867 231.289 93.28C231.036 93.4667 230.769 93.6267 230.489 93.76C230.209 93.8867 229.909 93.9833 229.589 94.05C229.276 94.1233 228.926 94.16 228.539 94.16C228.146 94.16 227.776 94.1067 227.429 94C227.082 93.8867 226.779 93.72 226.519 93.5C226.266 93.28 226.062 93.0033 225.909 92.67C225.762 92.33 225.689 91.93 225.689 91.47C225.689 91.07 225.799 90.6867 226.019 90.32C226.239 89.9467 226.596 89.6167 227.089 89.33C227.582 89.0433 228.226 88.81 229.019 88.63C229.812 88.4433 230.786 88.3367 231.939 88.31V87.52C231.939 86.7333 231.769 86.14 231.429 85.74C231.089 85.3333 230.592 85.13 229.939 85.13C229.499 85.13 229.129 85.1867 228.829 85.3C228.536 85.4067 228.279 85.53 228.059 85.67C227.846 85.8033 227.659 85.9267 227.499 86.04C227.346 86.1467 227.192 86.2 227.039 86.2C226.919 86.2 226.816 86.17 226.729 86.11C226.642 86.0433 226.569 85.9633 226.509 85.87L226.189 85.3ZM242.96 85.23H238.18V94H236.39V83.87H242.96V85.23ZM250.944 87.83C250.944 87.4167 250.884 87.04 250.764 86.7C250.651 86.3533 250.481 86.0567 250.254 85.81C250.034 85.5567 249.764 85.3633 249.444 85.23C249.124 85.09 248.761 85.02 248.354 85.02C247.501 85.02 246.824 85.27 246.324 85.77C245.831 86.2633 245.524 86.95 245.404 87.83H250.944ZM252.384 92.58C252.164 92.8467 251.901 93.08 251.594 93.28C251.287 93.4733 250.957 93.6333 250.604 93.76C250.257 93.8867 249.897 93.98 249.524 94.04C249.151 94.1067 248.781 94.14 248.414 94.14C247.714 94.14 247.067 94.0233 246.474 93.79C245.887 93.55 245.377 93.2033 244.944 92.75C244.517 92.29 244.184 91.7233 243.944 91.05C243.704 90.3767 243.584 89.6033 243.584 88.73C243.584 88.0233 243.691 87.3633 243.904 86.75C244.124 86.1367 244.437 85.6067 244.844 85.16C245.251 84.7067 245.747 84.3533 246.334 84.1C246.921 83.84 247.581 83.71 248.314 83.71C248.921 83.71 249.481 83.8133 249.994 84.02C250.514 84.22 250.961 84.5133 251.334 84.9C251.714 85.28 252.011 85.7533 252.224 86.32C252.437 86.88 252.544 87.52 252.544 88.24C252.544 88.52 252.514 88.7067 252.454 88.8C252.394 88.8933 252.281 88.94 252.114 88.94H245.344C245.364 89.58 245.451 90.1367 245.604 90.61C245.764 91.0833 245.984 91.48 246.264 91.8C246.544 92.1133 246.877 92.35 247.264 92.51C247.651 92.6633 248.084 92.74 248.564 92.74C249.011 92.74 249.394 92.69 249.714 92.59C250.041 92.4833 250.321 92.37 250.554 92.25C250.787 92.13 250.981 92.02 251.134 91.92C251.294 91.8133 251.431 91.76 251.544 91.76C251.691 91.76 251.804 91.8167 251.884 91.93L252.384 92.58ZM263.17 83.87V94H261.38V89.26H256.52V94H254.73V83.87H256.52V87.91H261.38V83.87H263.17ZM274.42 85.23H270.53V94H268.75V85.23H264.86V83.87H274.42V85.23ZM282.757 85.67C282.704 85.7433 282.65 85.8 282.597 85.84C282.544 85.88 282.47 85.9 282.377 85.9C282.277 85.9 282.167 85.86 282.047 85.78C281.927 85.6933 281.777 85.6 281.597 85.5C281.424 85.4 281.207 85.31 280.947 85.23C280.694 85.1433 280.38 85.1 280.007 85.1C279.507 85.1 279.067 85.19 278.687 85.37C278.307 85.5433 277.987 85.7967 277.727 86.13C277.474 86.4633 277.28 86.8667 277.147 87.34C277.02 87.8133 276.957 88.3433 276.957 88.93C276.957 89.5433 277.027 90.09 277.167 90.57C277.307 91.0433 277.504 91.4433 277.757 91.77C278.017 92.09 278.327 92.3367 278.687 92.51C279.054 92.6767 279.464 92.76 279.917 92.76C280.35 92.76 280.707 92.71 280.987 92.61C281.267 92.5033 281.497 92.3867 281.677 92.26C281.864 92.1333 282.017 92.02 282.137 91.92C282.264 91.8133 282.387 91.76 282.507 91.76C282.654 91.76 282.767 91.8167 282.847 91.93L283.347 92.58C283.127 92.8533 282.877 93.0867 282.597 93.28C282.317 93.4733 282.014 93.6367 281.687 93.77C281.367 93.8967 281.03 93.99 280.677 94.05C280.324 94.11 279.964 94.14 279.597 94.14C278.964 94.14 278.374 94.0233 277.827 93.79C277.287 93.5567 276.817 93.22 276.417 92.78C276.017 92.3333 275.704 91.7867 275.477 91.14C275.25 90.4933 275.137 89.7567 275.137 88.93C275.137 88.1767 275.24 87.48 275.447 86.84C275.66 86.2 275.967 85.65 276.367 85.19C276.774 84.7233 277.27 84.36 277.857 84.1C278.45 83.84 279.13 83.71 279.897 83.71C280.61 83.71 281.237 83.8267 281.777 84.06C282.324 84.2867 282.807 84.61 283.227 85.03L282.757 85.67ZM293.678 85.23H289.788V94H288.008V85.23H284.118V83.87H293.678V85.23ZM299.265 92.75C299.932 92.75 300.458 92.5967 300.845 92.29C301.232 91.9767 301.425 91.55 301.425 91.01C301.425 90.77 301.388 90.5533 301.315 90.36C301.242 90.16 301.122 89.9867 300.955 89.84C300.788 89.6933 300.565 89.58 300.285 89.5C300.012 89.42 299.675 89.38 299.275 89.38H297.085V92.75H299.265ZM297.085 85.07V88.25H299.035C299.328 88.25 299.598 88.21 299.845 88.13C300.098 88.0433 300.315 87.9267 300.495 87.78C300.675 87.6267 300.815 87.4467 300.915 87.24C301.015 87.0267 301.065 86.7933 301.065 86.54C301.065 86.3533 301.032 86.1733 300.965 86C300.898 85.82 300.785 85.6633 300.625 85.53C300.465 85.39 300.255 85.28 299.995 85.2C299.735 85.1133 299.415 85.07 299.035 85.07H297.085ZM299.085 83.87C299.712 83.87 300.248 83.9333 300.695 84.06C301.142 84.1867 301.508 84.36 301.795 84.58C302.082 84.7933 302.292 85.0467 302.425 85.34C302.558 85.6333 302.625 85.9467 302.625 86.28C302.625 86.5 302.595 86.73 302.535 86.97C302.475 87.21 302.368 87.44 302.215 87.66C302.068 87.88 301.865 88.08 301.605 88.26C301.352 88.4333 301.032 88.57 300.645 88.67C301.418 88.8033 302.015 89.0733 302.435 89.48C302.855 89.88 303.065 90.41 303.065 91.07C303.065 91.5633 302.965 91.9933 302.765 92.36C302.572 92.72 302.302 93.0233 301.955 93.27C301.615 93.5167 301.215 93.7 300.755 93.82C300.295 93.94 299.802 94 299.275 94H295.375V83.87H299.085ZM318.854 83.87V94H317.064V89.26H312.204V94H310.414V83.87H312.204V87.91H317.064V83.87H318.854ZM328.463 87.83C328.463 87.4167 328.403 87.04 328.283 86.7C328.17 86.3533 328 86.0567 327.773 85.81C327.553 85.5567 327.283 85.3633 326.963 85.23C326.643 85.09 326.28 85.02 325.873 85.02C325.02 85.02 324.343 85.27 323.843 85.77C323.35 86.2633 323.043 86.95 322.923 87.83H328.463ZM329.903 92.58C329.683 92.8467 329.42 93.08 329.113 93.28C328.807 93.4733 328.477 93.6333 328.123 93.76C327.777 93.8867 327.417 93.98 327.043 94.04C326.67 94.1067 326.3 94.14 325.933 94.14C325.233 94.14 324.587 94.0233 323.993 93.79C323.407 93.55 322.897 93.2033 322.463 92.75C322.037 92.29 321.703 91.7233 321.463 91.05C321.223 90.3767 321.103 89.6033 321.103 88.73C321.103 88.0233 321.21 87.3633 321.423 86.75C321.643 86.1367 321.957 85.6067 322.363 85.16C322.77 84.7067 323.267 84.3533 323.853 84.1C324.44 83.84 325.1 83.71 325.833 83.71C326.44 83.71 327 83.8133 327.513 84.02C328.033 84.22 328.48 84.5133 328.853 84.9C329.233 85.28 329.53 85.7533 329.743 86.32C329.957 86.88 330.063 87.52 330.063 88.24C330.063 88.52 330.033 88.7067 329.973 88.8C329.913 88.8933 329.8 88.94 329.633 88.94H322.863C322.883 89.58 322.97 90.1367 323.123 90.61C323.283 91.0833 323.503 91.48 323.783 91.8C324.063 92.1133 324.397 92.35 324.783 92.51C325.17 92.6633 325.603 92.74 326.083 92.74C326.53 92.74 326.913 92.69 327.233 92.59C327.56 92.4833 327.84 92.37 328.073 92.25C328.307 92.13 328.5 92.02 328.653 91.92C328.813 91.8133 328.95 91.76 329.063 91.76C329.21 91.76 329.323 91.8167 329.403 91.93L329.903 92.58ZM339.152 92.7V85.27H335.942C335.875 86.31 335.782 87.23 335.662 88.03C335.542 88.83 335.402 89.5333 335.242 90.14C335.088 90.74 334.915 91.25 334.722 91.67C334.535 92.09 334.338 92.4333 334.132 92.7H339.152ZM342.732 92.65V96.94C342.732 97.1133 342.682 97.2467 342.582 97.34C342.488 97.44 342.365 97.49 342.212 97.49H341.122V94H332.602V96.98C332.602 97.1067 332.562 97.2233 332.482 97.33C332.408 97.4367 332.285 97.49 332.112 97.49H330.992V92.7H331.322C331.555 92.7 331.785 92.66 332.012 92.58C332.245 92.5 332.468 92.35 332.682 92.13C332.895 91.9033 333.095 91.5867 333.282 91.18C333.475 90.7733 333.648 90.2433 333.802 89.59C333.955 88.9367 334.088 88.1433 334.202 87.21C334.315 86.27 334.405 85.1567 334.472 83.87H340.882V92.65H342.732ZM348.425 92.75C349.092 92.75 349.618 92.5967 350.005 92.29C350.392 91.9767 350.585 91.55 350.585 91.01C350.585 90.77 350.548 90.5533 350.475 90.36C350.402 90.16 350.282 89.9867 350.115 89.84C349.948 89.6933 349.725 89.58 349.445 89.5C349.172 89.42 348.835 89.38 348.435 89.38H346.245V92.75H348.425ZM346.245 85.07V88.25H348.195C348.488 88.25 348.758 88.21 349.005 88.13C349.258 88.0433 349.475 87.9267 349.655 87.78C349.835 87.6267 349.975 87.4467 350.075 87.24C350.175 87.0267 350.225 86.7933 350.225 86.54C350.225 86.3533 350.192 86.1733 350.125 86C350.058 85.82 349.945 85.6633 349.785 85.53C349.625 85.39 349.415 85.28 349.155 85.2C348.895 85.1133 348.575 85.07 348.195 85.07H346.245ZM348.245 83.87C348.872 83.87 349.408 83.9333 349.855 84.06C350.302 84.1867 350.668 84.36 350.955 84.58C351.242 84.7933 351.452 85.0467 351.585 85.34C351.718 85.6333 351.785 85.9467 351.785 86.28C351.785 86.5 351.755 86.73 351.695 86.97C351.635 87.21 351.528 87.44 351.375 87.66C351.228 87.88 351.025 88.08 350.765 88.26C350.512 88.4333 350.192 88.57 349.805 88.67C350.578 88.8033 351.175 89.0733 351.595 89.48C352.015 89.88 352.225 90.41 352.225 91.07C352.225 91.5633 352.125 91.9933 351.925 92.36C351.732 92.72 351.462 93.0233 351.115 93.27C350.775 93.5167 350.375 93.7 349.915 93.82C349.455 93.94 348.962 94 348.435 94H344.535V83.87H348.245ZM363.147 83.87V94H361.367V87.12C361.367 86.9867 361.374 86.8433 361.387 86.69C361.4 86.5367 361.417 86.3833 361.437 86.23C361.377 86.3633 361.317 86.4867 361.257 86.6C361.197 86.7133 361.134 86.8167 361.067 86.91L356.177 93.56C356.104 93.6667 356.01 93.77 355.897 93.87C355.79 93.9633 355.67 94.01 355.537 94.01H354.457V83.88H356.247V90.76C356.247 90.8867 356.24 91.0267 356.227 91.18C356.214 91.3267 356.197 91.4767 356.177 91.63C356.237 91.5033 356.297 91.3867 356.357 91.28C356.417 91.1667 356.477 91.0633 356.537 90.97L361.427 84.32C361.5 84.2133 361.594 84.1133 361.707 84.02C361.82 83.92 361.944 83.87 362.077 83.87H363.147ZM380.061 94H378.821C378.501 94 378.254 93.95 378.081 93.85C377.914 93.75 377.784 93.5933 377.691 93.38L375.721 90.23C375.394 89.71 374.924 89.45 374.311 89.45H373.291V94.01H371.561V89.45H370.551C370.251 89.45 369.977 89.5167 369.731 89.65C369.491 89.7833 369.294 89.9767 369.141 90.23L367.171 93.38C367.071 93.5933 366.934 93.75 366.761 93.85C366.594 93.95 366.351 94 366.031 94H364.801L367.461 89.81C367.634 89.5167 367.831 89.28 368.051 89.1C368.271 88.92 368.541 88.7833 368.861 88.69C368.607 88.61 368.391 88.4933 368.211 88.34C368.037 88.18 367.874 87.9767 367.721 87.73L365.081 83.87H366.481C366.654 83.87 366.811 83.9167 366.951 84.01C367.091 84.0967 367.201 84.2167 367.281 84.37L369.431 87.57C369.577 87.79 369.754 87.96 369.961 88.08C370.167 88.1933 370.411 88.25 370.691 88.25H371.561V83.87H373.291V88.25H374.141C374.707 88.25 375.134 88.0233 375.421 87.57L377.571 84.37C377.651 84.2167 377.761 84.0967 377.901 84.01C378.047 83.9167 378.207 83.87 378.381 83.87H379.781L377.141 87.73C376.987 87.9767 376.821 88.18 376.641 88.34C376.467 88.4933 376.254 88.61 376.001 88.69C376.321 88.7833 376.591 88.92 376.811 89.1C377.031 89.28 377.227 89.5167 377.401 89.81L380.061 94ZM390.412 83.87V94H388.633V87.12C388.633 86.9867 388.639 86.8433 388.653 86.69C388.666 86.5367 388.683 86.3833 388.703 86.23C388.643 86.3633 388.583 86.4867 388.523 86.6C388.463 86.7133 388.399 86.8167 388.333 86.91L383.443 93.56C383.369 93.6667 383.276 93.77 383.163 93.87C383.056 93.9633 382.936 94.01 382.803 94.01H381.723V83.88H383.513V90.76C383.513 90.8867 383.506 91.0267 383.493 91.18C383.479 91.3267 383.463 91.4767 383.443 91.63C383.503 91.5033 383.563 91.3867 383.623 91.28C383.683 91.1667 383.743 91.0633 383.803 90.97L388.693 84.32C388.766 84.2133 388.859 84.1133 388.973 84.02C389.086 83.92 389.209 83.87 389.343 83.87H390.412ZM404.516 83.84V94H402.906V87.27C402.906 87.0833 402.916 86.8767 402.936 86.65C402.963 86.4167 402.996 86.2 403.036 86L399.516 92.17C399.463 92.27 399.393 92.35 399.306 92.41C399.22 92.47 399.12 92.5 399.006 92.5H398.806C398.693 92.5 398.59 92.47 398.496 92.41C398.41 92.35 398.34 92.27 398.286 92.17L394.706 85.98C394.74 86.18 394.77 86.4 394.796 86.64C394.823 86.8733 394.836 87.0833 394.836 87.27V94H393.226V83.84H394.656C394.783 83.84 394.906 83.87 395.026 83.93C395.146 83.9833 395.25 84.0867 395.336 84.24L398.496 89.52C398.65 89.8267 398.786 90.15 398.906 90.49C399.02 90.1367 399.153 89.8133 399.306 89.52L402.406 84.24C402.493 84.08 402.596 83.9733 402.716 83.92C402.836 83.8667 402.96 83.84 403.086 83.84H404.516ZM411.598 83.71C412.338 83.71 413.005 83.8333 413.598 84.08C414.191 84.3267 414.698 84.6767 415.118 85.13C415.538 85.5833 415.858 86.1333 416.078 86.78C416.305 87.42 416.418 88.1367 416.418 88.93C416.418 89.73 416.305 90.45 416.078 91.09C415.858 91.73 415.538 92.2767 415.118 92.73C414.698 93.1833 414.191 93.5333 413.598 93.78C413.005 94.02 412.338 94.14 411.598 94.14C410.851 94.14 410.178 94.02 409.578 93.78C408.985 93.5333 408.478 93.1833 408.058 92.73C407.638 92.2767 407.315 91.73 407.088 91.09C406.868 90.45 406.758 89.73 406.758 88.93C406.758 88.1367 406.868 87.42 407.088 86.78C407.315 86.1333 407.638 85.5833 408.058 85.13C408.478 84.6767 408.985 84.3267 409.578 84.08C410.178 83.8333 410.851 83.71 411.598 83.71ZM411.598 92.75C412.598 92.75 413.345 92.4167 413.838 91.75C414.331 91.0767 414.578 90.14 414.578 88.94C414.578 87.7333 414.331 86.7933 413.838 86.12C413.345 85.4467 412.598 85.11 411.598 85.11C411.091 85.11 410.648 85.1967 410.268 85.37C409.895 85.5433 409.581 85.7933 409.328 86.12C409.081 86.4467 408.895 86.85 408.768 87.33C408.648 87.8033 408.588 88.34 408.588 88.94C408.588 90.14 408.835 91.0767 409.328 91.75C409.828 92.4167 410.585 92.75 411.598 92.75ZM425.726 85.67C425.672 85.7433 425.619 85.8 425.566 85.84C425.512 85.88 425.439 85.9 425.346 85.9C425.246 85.9 425.136 85.86 425.016 85.78C424.896 85.6933 424.746 85.6 424.566 85.5C424.392 85.4 424.176 85.31 423.916 85.23C423.662 85.1433 423.349 85.1 422.976 85.1C422.476 85.1 422.036 85.19 421.656 85.37C421.276 85.5433 420.956 85.7967 420.696 86.13C420.442 86.4633 420.249 86.8667 420.116 87.34C419.989 87.8133 419.926 88.3433 419.926 88.93C419.926 89.5433 419.996 90.09 420.136 90.57C420.276 91.0433 420.472 91.4433 420.726 91.77C420.986 92.09 421.296 92.3367 421.656 92.51C422.022 92.6767 422.432 92.76 422.886 92.76C423.319 92.76 423.676 92.71 423.956 92.61C424.236 92.5033 424.466 92.3867 424.646 92.26C424.832 92.1333 424.986 92.02 425.106 91.92C425.232 91.8133 425.356 91.76 425.476 91.76C425.622 91.76 425.736 91.8167 425.816 91.93L426.316 92.58C426.096 92.8533 425.846 93.0867 425.566 93.28C425.286 93.4733 424.982 93.6367 424.656 93.77C424.336 93.8967 423.999 93.99 423.646 94.05C423.292 94.11 422.932 94.14 422.566 94.14C421.932 94.14 421.342 94.0233 420.796 93.79C420.256 93.5567 419.786 93.22 419.386 92.78C418.986 92.3333 418.672 91.7867 418.446 91.14C418.219 90.4933 418.106 89.7567 418.106 88.93C418.106 88.1767 418.209 87.48 418.416 86.84C418.629 86.2 418.936 85.65 419.336 85.19C419.742 84.7233 420.239 84.36 420.826 84.1C421.419 83.84 422.099 83.71 422.866 83.71C423.579 83.71 424.206 83.8267 424.746 84.06C425.292 84.2867 425.776 84.61 426.196 85.03L425.726 85.67ZM436.646 85.23H432.756V94H430.976V85.23H427.086V83.87H436.646V85.23ZM447.034 83.87V94H445.254V87.12C445.254 86.9867 445.26 86.8433 445.274 86.69C445.287 86.5367 445.304 86.3833 445.324 86.23C445.264 86.3633 445.204 86.4867 445.144 86.6C445.084 86.7133 445.02 86.8167 444.954 86.91L440.064 93.56C439.99 93.6667 439.897 93.77 439.784 93.87C439.677 93.9633 439.557 94.01 439.424 94.01H438.344V83.88H440.134V90.76C440.134 90.8867 440.127 91.0267 440.114 91.18C440.1 91.3267 440.084 91.4767 440.064 91.63C440.124 91.5033 440.184 91.3867 440.244 91.28C440.304 91.1667 440.364 91.0633 440.424 90.97L445.314 84.32C445.387 84.2133 445.48 84.1133 445.594 84.02C445.707 83.92 445.83 83.87 445.964 83.87H447.034Z" fill="#242424"/>
</svg>
