<svg width="73" height="55" viewBox="0 0 73 55" fill="none" xmlns="http://www.w3.org/2000/svg">
<path d="M28.7947 6.95355C30.0665 7.378 31.2148 8.03802 32.297 8.81265C34.3592 10.2919 36.1402 12.0576 37.6848 14.0631C38.8075 15.519 39.8152 17.0491 40.7355 18.6387C40.8995 18.921 41.0763 19.1968 41.3533 19.6468C41.3597 19.6553 41.3746 19.6531 41.3746 19.6425C41.7346 16.1472 40.1368 11.1386 36.0763 7.49685C33.6562 5.32579 30.5309 4.08427 27.9084 3.68953C26.6792 3.50489 25.5607 3.50489 24.6788 3.6874C24.6745 3.68952 24.6702 3.69377 24.6702 3.69801C24.6617 4.04394 24.6979 4.40897 24.7001 4.77187C24.7171 8.09745 24.6852 11.423 24.7022 14.7486C24.7171 17.9044 24.7235 21.0623 24.7448 24.2181C24.7469 24.8166 25.2391 25.3132 25.8398 25.3238C26.1935 25.3302 26.5556 25.3408 26.9221 25.3302C27.5015 25.3132 27.9617 24.8399 27.9681 24.2627C27.9745 23.6939 27.9574 23.1336 27.9596 22.5733C27.9617 21.8327 27.9553 21.0899 27.951 20.3492C27.951 20.2092 27.9489 20.067 27.9489 19.9269C27.9446 19.044 27.9404 18.1612 27.9361 17.2804C27.9319 16.4315 27.9276 15.5826 27.9233 14.7359C27.9191 13.853 27.9148 12.9701 27.9106 12.0894C27.9106 11.9684 27.9084 11.8305 27.9084 11.6819V6.73071C28.0554 6.76255 28.5816 6.88139 28.7947 6.95355Z" fill="white"/>
<path d="M48.2988 30.2378C48.2818 25.346 48.3137 20.4584 48.2967 15.5688C48.2818 10.9274 48.2754 6.28602 48.2541 1.64465C48.2519 0.766033 47.7598 0.0338525 47.1591 0.0168744C46.8054 0.00626315 46.4432 -0.00859005 46.0768 0.00626574C45.4973 0.0317328 45.0777 0.729953 45.0734 1.57673C45.067 2.4129 45.0841 3.23634 45.0819 4.05977C45.0798 5.15061 45.0862 6.23933 45.0904 7.33016V7.32805V20.0764C45.0947 21.4389 45.099 23.3702 45.099 23.3702L45.0904 27.3558V28.7437C44.7432 28.6801 44.332 28.5994 44.2063 28.557C42.9345 28.1325 41.7862 27.4725 40.704 26.6979C38.6418 25.2187 36.8608 23.4529 35.3162 21.4474C34.1935 19.9915 33.1859 18.4614 32.2655 16.8718C32.1015 16.5896 31.9247 16.3137 31.6477 15.8638C31.6413 15.8553 31.6264 15.8574 31.6264 15.868C31.2664 19.3634 32.8642 24.3719 36.9247 28.0137C39.3214 30.1635 42.9153 31.5048 45.5314 31.9122C45.5421 31.9144 45.5527 31.9165 45.5634 31.9165C45.5783 31.9186 45.5932 31.9207 45.606 31.9229V31.9207C46.6307 32.0884 47.5638 32.0566 48.3222 31.8274C48.3265 31.8252 48.3308 31.8189 48.3308 31.8104C48.3372 31.3074 48.3009 30.7705 48.2988 30.2378Z" fill="white"/>
<path d="M10.8586 41.0645V54.0081H9.72733L1.3741 43.505V54.0081H0V41.0645H1.13124L9.50151 51.5675V41.0645H10.8586Z" fill="white"/>
<path d="M15.0449 41.0645H16.419V54.0081H15.0449V41.0645Z" fill="white"/>
<path d="M23.3974 42.2487H18.832V41.0645H29.3369V42.2487H24.7694V54.0081H23.3953V42.2487H23.3974Z" fill="white"/>
<path d="M31.749 41.0645H33.123V54.0081H31.749V41.0645Z" fill="white"/>
<path d="M38.3025 53.655C37.4184 53.3473 36.7346 52.9398 36.251 52.4347L36.79 51.3799C37.2608 51.8489 37.885 52.2267 38.6647 52.5175C39.4444 52.8082 40.2476 52.9525 41.0785 52.9525C42.2416 52.9525 43.113 52.7403 43.6967 52.3137C44.2804 51.8871 44.5702 51.3375 44.5702 50.6584C44.5702 50.1405 44.4125 49.7288 44.0972 49.419C43.7819 49.1112 43.3942 48.8735 42.9361 48.708C42.4781 48.5425 41.8411 48.36 41.0252 48.1626C40.0473 47.9164 39.2676 47.6787 38.686 47.4516C38.1044 47.2245 37.6059 46.8765 37.1926 46.4075C36.7772 45.9385 36.5705 45.3039 36.5705 44.5038C36.5705 43.8502 36.7431 43.2559 37.0904 42.719C37.4376 42.1821 37.9681 41.7555 38.686 41.4329C39.404 41.1125 40.2945 40.9512 41.3597 40.9512C42.1032 40.9512 42.8296 41.053 43.5412 41.2568C44.2527 41.4605 44.8684 41.7406 45.3882 42.0972L44.9238 43.188C44.3784 42.8315 43.7968 42.562 43.179 42.3837C42.5591 42.2054 41.954 42.1163 41.3597 42.1163C40.222 42.1163 39.3635 42.3349 38.7883 42.7721C38.2131 43.2092 37.9255 43.7738 37.9255 44.4635C37.9255 44.9813 38.0831 45.3973 38.3984 45.7114C38.7137 46.0255 39.11 46.2653 39.5872 46.4329C40.0644 46.5985 40.7035 46.781 41.5088 46.9784C42.4611 47.2118 43.2323 47.4431 43.8203 47.6724C44.4083 47.9016 44.9068 48.2454 45.3137 48.708C45.7227 49.1707 45.9272 49.7967 45.9272 50.5841C45.9272 51.2377 45.7504 51.832 45.3989 52.3689C45.0452 52.9058 44.5041 53.3303 43.7755 53.6444C43.0448 53.9585 42.1479 54.1155 41.0848 54.1155C40.1112 54.1176 39.1867 53.9648 38.3025 53.655Z" fill="white"/>
<path d="M57.7662 42.2469C58.7057 43.0364 59.1766 44.1208 59.1766 45.5003C59.1766 46.8819 58.7057 47.9621 57.7662 48.7452C56.8246 49.5284 55.5272 49.9188 53.8676 49.9188H50.378V54.0042H49.0039V41.0605H53.8676C55.5272 41.0627 56.8267 41.4574 57.7662 42.2469ZM56.782 47.8772C57.4616 47.317 57.8025 46.5254 57.8025 45.5003C57.8025 44.4519 57.4616 43.6476 56.782 43.0873C56.1003 42.527 55.1182 42.2469 53.8314 42.2469H50.378V48.7198H53.8314C55.1182 48.7177 56.1024 48.4375 56.782 47.8772Z" fill="white"/>
<path d="M72.3036 48.4328C72.768 48.9824 73.0002 49.687 73.0002 50.5508C73.0002 51.6607 72.5891 52.5139 71.7667 53.1123C70.9444 53.7108 69.7279 54.01 68.1195 54.01H62.1416V41.0664H67.7467C69.1953 41.0664 70.3181 41.3572 71.1148 41.9365C71.9137 42.5159 72.3121 43.3351 72.3121 44.3962C72.3121 45.1114 72.1353 45.7184 71.7838 46.2171C71.4323 46.7159 70.9444 47.0894 70.3266 47.3355C71.1809 47.5181 71.8391 47.8852 72.3036 48.4328ZM63.5136 42.1912V46.8878H67.6529C68.7053 46.8878 69.5149 46.6883 70.0837 46.2871C70.6525 45.886 70.938 45.3045 70.938 44.5405C70.938 43.7765 70.6525 43.1929 70.0837 42.7939C69.5149 42.3928 68.7032 42.1933 67.6529 42.1933H63.5136V42.1912ZM70.7356 52.2889C71.33 51.8942 71.6261 51.2787 71.6261 50.4404C71.6261 48.8254 70.4501 48.0189 68.1003 48.0189H63.5157V52.881H68.1003C69.2614 52.881 70.1412 52.6836 70.7356 52.2889Z" fill="white"/>
</svg>
