<svg width="76" height="76" viewBox="0 0 76 76" fill="none" xmlns="http://www.w3.org/2000/svg">
<path d="M7.54063 6.47187C6.05625 6.47187 4.86875 7.65937 4.86875 9.14375C4.86875 10.6281 6.05625 11.8156 7.54063 11.8156C9.025 11.8156 10.2125 10.6281 10.2125 9.14375C10.2125 7.65937 8.96562 6.47187 7.54063 6.47187ZM7.54063 10.6281C6.70937 10.6281 6.05625 9.975 6.05625 9.14375C6.05625 8.3125 6.70937 7.65937 7.54063 7.65937C8.37187 7.65937 9.025 8.3125 9.025 9.14375C9.025 9.975 8.3125 10.6281 7.54063 10.6281ZM14.9031 6.47187C13.4187 6.47187 12.2312 7.65937 12.2312 9.14375C12.2312 10.6281 13.4187 11.8156 14.9031 11.8156C16.3875 11.8156 17.575 10.6281 17.575 9.14375C17.575 7.65937 16.3875 6.47187 14.9031 6.47187ZM14.9031 10.6281C14.0719 10.6281 13.4187 9.975 13.4187 9.14375C13.4187 8.3125 14.0719 7.65937 14.9031 7.65937C15.7344 7.65937 16.3875 8.3125 16.3875 9.14375C16.3875 9.975 15.7344 10.6281 14.9031 10.6281ZM22.325 6.47187C20.8406 6.47187 19.6531 7.65937 19.6531 9.14375C19.6531 10.6281 20.8406 11.8156 22.325 11.8156C23.8094 11.8156 24.9969 10.6281 24.9969 9.14375C24.9969 7.65937 23.8094 6.47187 22.325 6.47187ZM22.325 10.6281C21.4937 10.6281 20.8406 9.975 20.8406 9.14375C20.8406 8.3125 21.4937 7.65937 22.325 7.65937C23.1562 7.65937 23.8094 8.3125 23.8094 9.14375C23.8094 9.975 23.1562 10.6281 22.325 10.6281ZM68.4594 6.47187H34.0812C32.5969 6.47187 31.4094 7.65937 31.4094 9.14375C31.4094 10.6281 32.5969 11.8156 34.0812 11.8156H68.4594C69.9437 11.8156 71.1312 10.6281 71.1312 9.14375C71.1312 7.65937 69.9437 6.47187 68.4594 6.47187ZM68.4594 10.6281H34.0812C33.25 10.6281 32.5969 9.975 32.5969 9.14375C32.5969 8.3125 33.25 7.65937 34.0812 7.65937H68.4594C69.2906 7.65937 69.9437 8.3125 69.9437 9.14375C69.9437 9.975 69.2906 10.6281 68.4594 10.6281ZM76 7.8375C76 4.9875 73.6844 2.67188 70.8344 2.67188H5.16563C2.31562 2.67188 0 4.9875 0 7.8375V68.1625C0 71.0125 2.31562 73.3281 5.16563 73.3281H70.8344C73.6844 73.3281 76 71.0125 76 68.1625C76 65.3125 76 82.5312 76 7.8375ZM1.1875 7.8375C1.1875 5.64062 2.96875 3.85938 5.16563 3.85938H70.8344C73.0312 3.85938 74.8125 5.64062 74.8125 7.8375V14.3688H1.1875V7.8375ZM74.8125 68.1625C74.8125 70.3594 73.0312 72.1406 70.8344 72.1406H5.16563C2.96875 72.1406 1.1875 70.3594 1.1875 68.1625V15.5563H74.8125V68.1625ZM8.37187 28.975H67.6281C67.9844 28.975 68.2219 28.7375 68.2219 28.3813V20.3656C68.2219 20.0094 67.925 19.7719 67.5687 19.7719H8.37187C8.01562 19.7719 7.77813 20.0094 7.77813 20.3656V28.3813C7.77813 28.6781 8.01562 28.975 8.37187 28.975ZM8.96562 20.9594H67.0344V27.7875H8.96562V20.9594ZM67.6281 38.5344H8.37187C8.01562 38.5344 7.77813 38.7719 7.77813 39.1281C7.77813 39.4844 8.01562 39.7219 8.37187 39.7219H67.6281C67.9844 39.7219 68.2219 39.4844 68.2219 39.1281C68.2219 38.7719 67.925 38.5344 67.6281 38.5344ZM8.37187 61.8094H25.4719C25.8281 61.8094 26.0656 61.5719 26.0656 61.2156V44.65C26.0656 44.2937 25.8281 44.0562 25.4719 44.0562H8.37187C8.01562 44.0562 7.77813 44.2937 7.77813 44.65V61.2156C7.77813 61.5719 8.01562 61.8094 8.37187 61.8094ZM8.96562 45.2437H24.8781V60.6219H8.96562V45.2437ZM67.6281 44.0562H50.5281C50.1719 44.0562 49.9344 44.2937 49.9344 44.65V61.2156C49.9344 61.5719 50.1719 61.8094 50.5281 61.8094H67.6281C67.9844 61.8094 68.2219 61.5719 68.2219 61.2156V44.65C68.2219 44.3531 67.925 44.0562 67.6281 44.0562ZM67.0344 60.6219H51.1219V45.2437H67.0344V60.6219ZM41.7406 45.2437C42.0969 45.2437 42.3344 45.0062 42.3344 44.65C42.3344 44.2937 42.0969 44.0562 41.7406 44.0562H34.2594C33.9031 44.0562 33.6656 44.2937 33.6656 44.65C33.6656 45.0062 33.9031 45.2437 34.2594 45.2437H41.7406ZM29.8656 50.1719C29.8656 50.5281 30.1031 50.7656 30.4594 50.7656H45.5406C45.8969 50.7656 46.1344 50.5281 46.1344 50.1719C46.1344 49.8156 45.8969 49.5781 45.5406 49.5781H30.4594C30.1031 49.5781 29.8656 49.875 29.8656 50.1719ZM30.4594 56.2875H45.5406C45.8969 56.2875 46.1344 56.05 46.1344 55.6938C46.1344 55.3375 45.8969 55.1 45.5406 55.1H30.4594C30.1031 55.1 29.8656 55.3375 29.8656 55.6938C29.8656 56.05 30.1031 56.2875 30.4594 56.2875ZM30.4594 61.8094H45.5406C45.8969 61.8094 46.1344 61.5719 46.1344 61.2156C46.1344 60.8594 45.8969 60.6219 45.5406 60.6219H30.4594C30.1031 60.6219 29.8656 60.8594 29.8656 61.2156C29.8656 61.5719 30.1031 61.8094 30.4594 61.8094ZM67.6281 66.1437H8.37187C8.01562 66.1437 7.77813 66.3813 7.77813 66.7375C7.77813 67.0938 8.01562 67.3313 8.37187 67.3313H67.6281C67.9844 67.3313 68.2219 67.0938 68.2219 66.7375C68.2219 66.3813 67.925 66.1437 67.6281 66.1437ZM67.6281 33.1313H8.37187C8.01562 33.1313 7.77813 33.3687 7.77813 33.725C7.77813 34.0812 8.01562 34.3188 8.37187 34.3188H67.6281C67.9844 34.3188 68.2219 34.0812 68.2219 33.725C68.2219 33.3687 67.925 33.1313 67.6281 33.1313Z" fill="#947BFB"/>
</svg>
