<svg width="76" height="76" viewBox="0 0 76 76" fill="none" xmlns="http://www.w3.org/2000/svg">
<path d="M5.99688 67.9249H45.1844C45.5406 67.9249 45.7781 67.6874 45.7781 67.3312V37.703C45.7781 37.3468 45.5406 37.1093 45.1844 37.1093H5.99688C5.64062 37.1093 5.40313 37.3468 5.40313 37.703V67.2718C5.40313 67.628 5.7 67.9249 5.99688 67.9249ZM6.59063 38.2968H44.5906V66.678H6.59063V38.2968ZM68.4594 6.59053H34.0812C32.5969 6.59053 31.4094 7.77803 31.4094 9.2624C31.4094 10.7468 32.5969 11.9343 34.0812 11.9343H68.4594C69.9437 11.9343 71.1312 10.7468 71.1312 9.2624C71.1312 7.77803 69.9437 6.59053 68.4594 6.59053ZM68.4594 10.7468H34.0812C33.25 10.7468 32.5969 10.0937 32.5969 9.2624C32.5969 8.43115 33.25 7.77803 34.0812 7.77803H68.4594C69.2906 7.77803 69.9437 8.43115 69.9437 9.2624C69.9437 10.0937 69.2906 10.7468 68.4594 10.7468ZM7.54063 6.59053C6.05625 6.59053 4.86875 7.77803 4.86875 9.2624C4.86875 10.7468 6.05625 11.9343 7.54063 11.9343C9.025 11.9343 10.2125 10.7468 10.2125 9.2624C10.2125 7.77803 8.96562 6.59053 7.54063 6.59053ZM7.54063 10.7468C6.70937 10.7468 6.05625 10.0937 6.05625 9.2624C6.05625 8.43115 6.70937 7.77803 7.54063 7.77803C8.37187 7.77803 9.025 8.43115 9.025 9.2624C9.025 10.0937 8.3125 10.7468 7.54063 10.7468ZM14.9031 6.59053C13.4187 6.59053 12.2312 7.77803 12.2312 9.2624C12.2312 10.7468 13.4187 11.9343 14.9031 11.9343C16.3875 11.9343 17.575 10.7468 17.575 9.2624C17.575 7.77803 16.3875 6.59053 14.9031 6.59053ZM14.9031 10.7468C14.0719 10.7468 13.4187 10.0937 13.4187 9.2624C13.4187 8.43115 14.0719 7.77803 14.9031 7.77803C15.7344 7.77803 16.3875 8.43115 16.3875 9.2624C16.3875 10.0937 15.7344 10.7468 14.9031 10.7468ZM22.325 6.59053C20.8406 6.59053 19.6531 7.77803 19.6531 9.2624C19.6531 10.7468 20.8406 11.9343 22.325 11.9343C23.8094 11.9343 24.9969 10.7468 24.9969 9.2624C24.9969 7.77803 23.8094 6.59053 22.325 6.59053ZM22.325 10.7468C21.4937 10.7468 20.8406 10.0937 20.8406 9.2624C20.8406 8.43115 21.4937 7.77803 22.325 7.77803C23.1562 7.77803 23.8094 8.43115 23.8094 9.2624C23.8094 10.0937 23.1562 10.7468 22.325 10.7468ZM76 7.95615C76 5.10615 73.6844 2.79053 70.8344 2.79053H5.16563C2.31562 2.79053 0 5.10615 0 7.95615V68.0437C0 70.8937 2.31562 73.2093 5.16563 73.2093H70.8344C73.6844 73.2093 76 70.8937 76 68.0437C76 65.1343 76 69.8249 76 7.95615ZM1.1875 7.95615C1.1875 5.75928 2.96875 3.97803 5.16563 3.97803H70.8344C73.0312 3.97803 74.8125 5.75928 74.8125 7.95615V14.4874H1.1875V7.95615ZM74.8125 68.0437C74.8125 70.2405 73.0312 72.0218 70.8344 72.0218H5.16563C2.96875 72.0218 1.1875 70.2405 1.1875 68.0437V15.6749H74.8125V68.0437ZM7.8375 32.8937H68.1625C69.4688 32.8937 70.5969 31.8249 70.5969 30.4593V23.0374C70.5969 21.7312 69.5281 20.603 68.1625 20.603H7.8375C6.53125 20.603 5.40313 21.6718 5.40313 23.0374V30.5187C5.40313 31.8249 6.53125 32.8937 7.8375 32.8937ZM69.4094 23.0374V30.5187C69.4094 31.1718 68.875 31.7655 68.1625 31.7655H18.4656V21.7905H68.1031C68.8156 21.7905 69.4094 22.3249 69.4094 23.0374ZM6.59063 23.0374C6.59063 22.3843 7.125 21.7905 7.8375 21.7905H17.2781V31.7062H7.8375C7.18437 31.7062 6.59063 31.1718 6.59063 30.4593V23.0374ZM13.0031 28.6187L14.25 29.8655C14.4875 30.103 14.8438 30.103 15.0813 29.8655C15.3187 29.628 15.3187 29.2718 15.0813 29.0343L13.8344 27.7874C14.5469 26.7187 14.3688 25.2937 13.4781 24.3437C12.4094 23.2749 10.6281 23.2749 9.55937 24.3437C8.49063 25.4124 8.49063 27.1937 9.55937 28.2624C10.45 29.153 11.875 29.3312 13.0031 28.6187ZM10.3906 25.1749C10.9844 24.5812 11.9938 24.5812 12.5875 25.1749C13.1813 25.7687 13.1813 26.778 12.5875 27.3718C11.9938 27.9655 10.9844 27.9655 10.3906 27.3718C9.79688 26.778 9.79688 25.7687 10.3906 25.1749ZM36.1 55.1593L39.7219 53.2593C40.1969 53.0218 40.1375 52.3093 39.6031 52.1312L27.0156 48.8655C26.8375 48.8062 26.6 48.8655 26.4219 49.0437C26.2437 49.2218 26.2437 49.3999 26.3031 49.6374L30.1031 62.0468C30.2812 62.5812 30.9937 62.6405 31.2312 62.1062L32.9531 58.4249L37.9406 63.1749C38.1781 63.4124 38.5344 63.4124 38.7719 63.1749L41.0875 60.7405C41.325 60.503 41.325 60.1468 41.0875 59.9093L36.1 55.1593ZM38.2969 61.928L33.1906 56.9999C32.8937 56.703 32.4188 56.8218 32.2406 57.178L30.8156 60.2655L27.7875 50.2905L37.8219 52.903L34.7938 54.4468C34.4375 54.6249 34.3781 55.0999 34.675 55.3968L39.8406 60.3249L38.2969 61.928ZM70.0031 37.1093H50.5875C50.2312 37.1093 49.9937 37.3468 49.9937 37.703V49.8155C49.9937 50.1718 50.2312 50.4093 50.5875 50.4093H69.9437C70.3 50.4093 70.5375 50.1718 70.5375 49.8155V37.703C70.5969 37.4062 70.3 37.1093 70.0031 37.1093ZM69.4094 49.2218H51.1812V38.2968H69.35V49.2218H69.4094ZM70.0031 54.6249H50.5875C50.2312 54.6249 49.9937 54.8624 49.9937 55.2187V67.3312C49.9937 67.6874 50.2312 67.9249 50.5875 67.9249H69.9437C70.3 67.9249 70.5375 67.6874 70.5375 67.3312V55.2187C70.5969 54.9218 70.3 54.6249 70.0031 54.6249ZM69.4094 66.7374H51.1812V55.8124H69.35V66.7374H69.4094Z" fill="#947BFB"/>
</svg>
