<svg width="45" height="44" viewBox="0 0 45 44" fill="none" xmlns="http://www.w3.org/2000/svg">
<path d="M43.5117 22C43.5117 33.8741 33.8858 43.5 22.0117 43.5C10.1376 43.5 0.511719 33.8741 0.511719 22C0.511719 10.1259 10.1376 0.5 22.0117 0.5C33.8858 0.5 43.5117 10.1259 43.5117 22Z" stroke="#947BFB"/>
<path d="M14.6043 30.0068L13 12H30.6373L29.0331 29.9971L21.8041 32" fill="#947BFB"/>
<path d="M21.8203 30.4684V13.4775H29.0298L27.6541 28.8398" fill="#AD9AFC"/>
<path d="M16.2773 15.6807H21.8194V17.8878H18.6983L18.9025 20.1483H21.8194V22.3506H16.8802L16.2773 15.6807ZM16.9774 23.459H19.1942L19.3498 25.2237L21.8194 25.8849V28.1892L17.2885 26.9252" fill="#10164A"/>
<path d="M27.3409 15.6807H21.8086V17.8878H27.1367L27.3409 15.6807ZM26.9374 20.1483H21.8086V22.3554H24.531L24.2733 25.2237L21.8086 25.8849V28.1795L26.3297 26.9252" fill="#10164A"/>
</svg>
