<svg width="77" height="76" viewBox="0 0 77 76" fill="none" xmlns="http://www.w3.org/2000/svg">
<path d="M72.7695 7.12455H71.582V9.49955H72.7695C73.4252 9.50008 73.9564 10.0313 73.957 10.687V72.437C73.9564 73.0928 73.4252 73.624 72.7695 73.6245H11.0195C10.3638 73.624 9.83256 73.0928 9.83203 72.437V71.2495H7.45703V72.437C7.45809 73.3817 7.83395 74.2872 8.50139 74.9552C9.16936 75.6226 10.0749 75.9985 11.0196 75.9995H72.7695C73.7142 75.9985 74.6197 75.6226 75.2877 74.9552C75.9551 74.2872 76.331 73.3817 76.332 72.437V10.687C76.331 9.74236 75.9551 8.83686 75.2877 8.16887C74.6197 7.50143 73.7142 7.12557 72.7695 7.12451L72.7695 7.12455Z" fill="#947BFB"/>
<path d="M69.207 65.312V3.56205C69.206 2.61736 68.8301 1.71186 68.1627 1.04387C67.4947 0.376431 66.5892 0.000570289 65.6445 -0.000488281H3.89457C2.94988 0.000571985 2.04438 0.376431 1.37639 1.04387C0.708951 1.71184 0.33309 2.61734 0.332031 3.56205V65.312C0.333091 66.2567 0.708951 67.1622 1.37639 67.8302C2.04436 68.4976 2.94986 68.8735 3.89457 68.8745H65.6445C66.5892 68.8735 67.4947 68.4976 68.1627 67.8302C68.8301 67.1622 69.206 66.2567 69.207 65.312ZM66.832 3.56205V9.49954H19.3321V2.37455H65.6445C66.3003 2.37508 66.8315 2.90628 66.832 3.56205ZM3.89461 2.37455H16.9571V9.49954H2.70711V3.56205C2.70764 2.90628 3.23884 2.37508 3.89461 2.37455ZM2.70711 65.312V11.8745H66.832V65.312C66.8315 65.9678 66.3003 66.499 65.6445 66.4995H3.89461C3.23884 66.499 2.70764 65.9678 2.70711 65.312Z" fill="#947BFB"/>
<path d="M8.64453 5.93701C8.64453 6.59278 8.1128 7.12451 7.45703 7.12451C6.80126 7.12451 6.26953 6.59278 6.26953 5.93701C6.26953 5.28124 6.80126 4.74951 7.45703 4.74951C8.1128 4.74951 8.64453 5.28124 8.64453 5.93701Z" fill="#947BFB"/>
<path d="M13.3945 5.93701C13.3945 6.59278 12.8628 7.12451 12.207 7.12451C11.5513 7.12451 11.0195 6.59278 11.0195 5.93701C11.0195 5.28124 11.5513 4.74951 12.207 4.74951C12.8628 4.74951 13.3945 5.28124 13.3945 5.93701Z" fill="#947BFB"/>
<path d="M24.082 7.12451H62.082C62.7378 7.12451 63.2695 6.59278 63.2695 5.93701C63.2695 5.28124 62.7378 4.74951 62.082 4.74951H24.082C23.4263 4.74951 22.8945 5.28124 22.8945 5.93701C22.8945 6.59278 23.4263 7.12451 24.082 7.12451Z" fill="#947BFB"/>
<path d="M60.8944 14.2495H8.6445C8.01471 14.25 7.41142 14.5008 6.96613 14.9461C6.52083 15.3914 6.27006 15.9947 6.26953 16.6245V33.2495C6.27006 33.8793 6.52082 34.4825 6.96613 34.9278C7.41143 35.3731 8.01473 35.6239 8.6445 35.6244H60.8944C61.5242 35.6239 62.1275 35.3731 62.5728 34.9278C63.0181 34.4825 63.2689 33.8792 63.2694 33.2495V16.6245C63.2689 15.9947 63.0181 15.3914 62.5728 14.9461C62.1275 14.5008 61.5242 14.25 60.8944 14.2495ZM8.6445 33.2495V16.6245H60.8944L60.896 33.2495H8.6445Z" fill="#947BFB"/>
<path d="M8.6445 59.3744H24.082C24.7118 59.3739 25.3156 59.1231 25.7604 58.6778C26.2057 58.2331 26.4564 57.6292 26.457 56.9995V40.3745C26.4564 39.7447 26.2057 39.1409 25.7604 38.6961C25.3156 38.2508 24.7118 38 24.082 37.9995H8.6445C8.01471 38 7.41089 38.2508 6.96613 38.6961C6.52082 39.1409 6.27006 39.7447 6.26953 40.3745V56.9995C6.27006 57.6293 6.52082 58.2331 6.96613 58.6778C7.4109 59.1231 8.01473 59.3739 8.6445 59.3744ZM8.6445 40.3745H24.082L24.0836 56.9994H8.64474L8.6445 40.3745Z" fill="#947BFB"/>
<path d="M62.082 37.9995H30.0195C29.3638 37.9995 28.832 38.5312 28.832 39.187C28.832 39.8428 29.3638 40.3745 30.0195 40.3745H62.082C62.7378 40.3745 63.2695 39.8428 63.2695 39.187C63.2695 38.5312 62.7378 37.9995 62.082 37.9995Z" fill="#947BFB"/>
<path d="M62.082 42.7495H30.0195C29.3638 42.7495 28.832 43.2812 28.832 43.937C28.832 44.5928 29.3638 45.1245 30.0195 45.1245H62.082C62.7378 45.1245 63.2695 44.5928 63.2695 43.937C63.2695 43.2812 62.7378 42.7495 62.082 42.7495Z" fill="#947BFB"/>
<path d="M62.082 47.4995H30.0195C29.3638 47.4995 28.832 48.0312 28.832 48.687C28.832 49.3428 29.3638 49.8745 30.0195 49.8745H62.082C62.7378 49.8745 63.2695 49.3428 63.2695 48.687C63.2695 48.0312 62.7378 47.4995 62.082 47.4995Z" fill="#947BFB"/>
<path d="M62.082 52.2495H30.0195C29.3638 52.2495 28.832 52.7812 28.832 53.437C28.832 54.0928 29.3638 54.6245 30.0195 54.6245H62.082C62.7378 54.6245 63.2695 54.0928 63.2695 53.437C63.2695 52.7812 62.7378 52.2495 62.082 52.2495Z" fill="#947BFB"/>
<path d="M62.082 56.9995H30.0195C29.3638 56.9995 28.832 57.5312 28.832 58.187C28.832 58.8428 29.3638 59.3745 30.0195 59.3745H62.082C62.7378 59.3745 63.2695 58.8428 63.2695 58.187C63.2695 57.5312 62.7378 56.9995 62.082 56.9995Z" fill="#947BFB"/>
<path d="M62.082 61.7495H7.45703C6.80126 61.7495 6.26953 62.2812 6.26953 62.937C6.26953 63.5928 6.80126 64.1245 7.45703 64.1245H62.082C62.7377 64.1245 63.2695 63.5928 63.2695 62.937C63.2695 62.2812 62.7377 61.7495 62.082 61.7495Z" fill="#947BFB"/>
</svg>
