<svg width="144" height="72" viewBox="0 0 144 72" fill="none" xmlns="http://www.w3.org/2000/svg">
<path d="M15.078 66.9542L15.6125 66.1091H15.6125L15.078 66.9542ZM4.56525 54.7712L3.65794 55.1917L3.66105 55.1984L3.66425 55.2051L4.56525 54.7712ZM4.56525 16.552L3.66217 16.1225L3.65993 16.1273L4.56525 16.552ZM15.078 4.27075L15.6125 5.11594L15.078 4.27075ZM45.5355 4.27075L45.001 5.11594L45.5355 4.27075ZM55.95 16.552L55.0427 16.9725L55.0458 16.9792L55.049 16.9858L55.95 16.552ZM55.95 54.7712L55.0469 54.3417L55.0447 54.3465L55.95 54.7712ZM45.5355 66.9542L45.001 66.1091L45.5355 66.9542ZM40.1318 52.315L39.302 51.7568L39.295 51.7673L40.1318 52.315ZM40.1318 18.91L39.295 19.4577L39.302 19.4682L40.1318 18.91ZM20.4818 18.91L19.652 18.3518L19.6451 18.3623L20.4818 18.91ZM20.4818 52.315L19.645 52.8627L19.652 52.8732L20.4818 52.315ZM30.3068 70.179C24.7814 70.179 19.8935 68.8162 15.6125 66.1091L14.5435 67.7994C19.1705 70.7253 24.4351 72.179 30.3068 72.179V70.179ZM15.6125 66.1091C11.3349 63.4041 7.94933 59.4946 5.46625 54.3374L3.66425 55.2051C6.29017 60.6589 9.91314 64.8714 14.5435 67.7994L15.6125 66.1091ZM5.47256 54.3508C3.05791 49.1402 1.83175 42.9041 1.83175 35.6125H-0.16825C-0.16825 43.1239 1.09459 49.6603 3.65794 55.1917L5.47256 54.3508ZM1.83175 35.6125C1.83175 28.3204 3.05808 22.1191 5.47058 16.9767L3.65993 16.1273C1.09442 21.5959 -0.16825 28.1016 -0.16825 35.6125H1.83175ZM5.46832 16.9815C7.9524 11.7585 11.338 7.81891 15.6125 5.11594L14.5435 3.42555C9.91 6.35558 6.2871 10.6034 3.66219 16.1225L5.46832 16.9815ZM15.6125 5.11594C19.8935 2.4088 24.7814 1.046 30.3068 1.046V-0.954001C24.4351 -0.954001 19.1705 0.499694 14.5435 3.42555L15.6125 5.11594ZM30.3068 1.046C35.8321 1.046 40.72 2.4088 45.001 5.11594L46.07 3.42555C41.443 0.499694 36.1784 -0.954001 30.3068 -0.954001V1.046ZM45.001 5.11594C49.273 7.81732 52.6243 11.7537 55.0427 16.9725L56.8573 16.1315C54.2977 10.6083 50.706 6.35717 46.07 3.42555L45.001 5.11594ZM55.049 16.9858C57.5238 22.1258 58.7818 28.3237 58.7818 35.6125H60.7818C60.7818 28.0983 59.4852 21.5892 56.851 16.1182L55.049 16.9858ZM58.7818 35.6125C58.7818 42.9008 57.524 49.1336 55.0469 54.3417L56.8531 55.2008C59.485 49.6669 60.7818 43.1272 60.7818 35.6125H58.7818ZM55.0447 54.3465C52.6273 59.4994 49.2761 63.4057 45.001 66.1091L46.07 67.7994C50.7029 64.8698 54.2947 60.6541 56.8553 55.196L55.0447 54.3465ZM45.001 66.1091C40.72 68.8162 35.8321 70.179 30.3068 70.179V72.179C36.1784 72.179 41.443 70.7253 46.07 67.7994L45.001 66.1091ZM30.3068 58.7188C34.847 58.7188 38.4317 56.7382 40.9685 52.8627L39.295 51.7673C37.1158 55.0968 34.1505 56.7188 30.3068 56.7188V58.7188ZM40.9615 52.8732C43.551 49.0239 44.767 43.2147 44.767 35.6125H42.767C42.767 43.0753 41.5595 48.4011 39.302 51.7568L40.9615 52.8732ZM44.767 35.6125C44.767 28.0103 43.551 22.2011 40.9615 18.3518L39.302 19.4682C41.5595 22.8239 42.767 28.1497 42.767 35.6125H44.767ZM40.9685 18.3623C38.4317 14.4868 34.847 12.5062 30.3068 12.5062V14.5062C34.1505 14.5062 37.1158 16.1282 39.295 19.4577L40.9685 18.3623ZM30.3068 12.5062C25.8272 12.5062 22.2498 14.4903 19.652 18.3518L21.3115 19.4682C23.5607 16.1247 26.5333 14.5062 30.3068 14.5062V12.5062ZM19.6451 18.3623C17.1272 22.2091 15.9448 28.0135 15.9448 35.6125H17.9448C17.9448 28.1465 19.1203 22.8159 21.3185 19.4577L19.6451 18.3623ZM15.9448 35.6125C15.9448 43.2115 17.1272 49.0159 19.6451 52.8627L21.3185 51.7673C19.1203 48.4091 17.9448 43.0785 17.9448 35.6125H15.9448ZM19.652 52.8732C22.2498 56.7347 25.8272 58.7188 30.3068 58.7188V56.7188C26.5333 56.7188 23.5607 55.1003 21.3115 51.7568L19.652 52.8732ZM98.6834 29.2262L97.9318 28.5666L96.7413 29.9228L98.5225 30.2132L98.6834 29.2262ZM112.537 36.0055L111.796 36.6775L111.802 36.6844L112.537 36.0055ZM114.207 60.0768L115.054 60.6083L115.059 60.6008L114.207 60.0768ZM104.578 68.1332L104.153 67.2281L104.148 67.2306L104.578 68.1332ZM74.5139 69.3122L74.2427 70.2748L74.2507 70.277L74.2587 70.2792L74.5139 69.3122ZM62.6256 63.8102L61.7341 63.3573L61.346 64.1212L62.0413 64.6218L62.6256 63.8102ZM68.8154 51.6273L69.4154 50.8272L68.4631 50.113L67.9238 51.1743L68.8154 51.6273ZM77.8544 56.245L77.5436 57.1955L77.5545 57.199L77.5654 57.2023L77.8544 56.245ZM97.8974 55.5573L98.4466 56.393L98.4548 56.3876L98.4629 56.382L97.8974 55.5573ZM81.1949 40.525H80.1949V41.525H81.1949V40.525ZM81.1949 30.0122L80.4454 29.3502L80.1949 29.6338V30.0122H81.1949ZM95.3429 13.9975L96.0923 14.6596L97.5607 12.9975H95.3429V13.9975ZM66.0644 13.9975H65.0644V14.9975H66.0644V13.9975ZM66.0644 1.225V0.224996H65.0644V1.225H66.0644ZM114.207 1.225H115.207V0.224996H114.207V1.225ZM114.207 11.5412L114.958 12.2009L115.207 11.9179V11.5412H114.207ZM98.5225 30.2132C104.388 31.1696 108.777 33.3499 111.796 36.6775L113.277 35.3335C109.878 31.5871 105.03 29.2479 98.8443 28.2393L98.5225 30.2132ZM111.802 36.6844C114.824 39.9529 116.351 44.0258 116.351 48.9745H118.351C118.351 43.5742 116.668 39.0011 113.271 35.3266L111.802 36.6844ZM116.351 48.9745C116.351 52.7848 115.354 56.3041 113.355 59.5527L115.059 60.6008C117.251 57.0374 118.351 53.1552 118.351 48.9745H116.351ZM113.36 59.5453C111.385 62.6919 108.34 65.2618 104.153 67.2281L105.004 69.0384C109.463 66.9437 112.836 64.1426 115.054 60.6082L113.36 59.5453ZM104.148 67.2306C100.061 69.18 94.9774 70.179 88.8584 70.179V72.179C95.1844 72.179 100.581 71.1475 105.009 69.0359L104.148 67.2306ZM88.8584 70.179C84.098 70.179 79.4023 69.568 74.769 68.3454L74.2587 70.2792C79.0575 71.5455 83.9247 72.179 88.8584 72.179V70.179ZM74.785 68.3497C70.2253 67.0653 66.3735 65.2765 63.2099 62.9987L62.0413 64.6218C65.4277 67.06 69.5014 68.9392 74.2427 70.2748L74.785 68.3497ZM63.5172 64.2632L69.7069 52.0802L67.9238 51.1743L61.7341 63.3573L63.5172 64.2632ZM68.2154 52.4272C70.9308 54.4638 74.0434 56.0512 77.5436 57.1955L78.1651 55.2945C74.8534 54.2118 71.94 52.7207 69.4154 50.8272L68.2154 52.4272ZM77.5654 57.2023C81.13 58.2784 84.7643 58.817 88.4654 58.817V56.817C84.9614 56.817 81.5218 56.3076 78.1434 55.2877L77.5654 57.2023ZM88.4654 58.817C92.5716 58.817 95.9324 58.0451 98.4466 56.393L97.3482 54.7215C95.2774 56.0824 92.3501 56.817 88.4654 56.817V58.817ZM98.4629 56.382C101.032 54.6206 102.336 52.1155 102.336 48.9745H100.336C100.336 51.4665 99.3481 53.3499 97.3318 54.7325L98.4629 56.382ZM102.336 48.9745C102.336 45.8601 101.125 43.4149 98.6672 41.8014C96.2828 40.2361 92.8332 39.525 88.4654 39.525V41.525C92.678 41.525 95.6638 42.2222 97.5696 43.4733C99.4021 44.6763 100.336 46.4559 100.336 48.9745H102.336ZM88.4654 39.525H81.1949V41.525H88.4654V39.525ZM82.1949 40.525V30.0122H80.1949V40.525H82.1949ZM81.9443 30.6743L96.0923 14.6596L94.5934 13.3354L80.4454 29.3502L81.9443 30.6743ZM95.3429 12.9975H66.0644V14.9975H95.3429V12.9975ZM67.0644 13.9975V1.225H65.0644V13.9975H67.0644ZM66.0644 2.22499H114.207V0.224996H66.0644V2.22499ZM113.207 1.225V11.5412H115.207V1.225H113.207ZM113.455 10.8816L97.9318 28.5666L99.4349 29.8859L114.958 12.2009L113.455 10.8816ZM126.959 68.035L127.667 67.3279L126.959 68.035ZM126.959 54.3783L127.64 55.111L127.647 55.1046L127.654 55.0981L126.959 54.3783ZM140.518 54.3783L139.824 55.0981L139.831 55.1046L139.837 55.111L140.518 54.3783ZM140.518 68.035L139.811 67.3279L140.518 68.035ZM133.739 69.786C131.308 69.786 129.306 68.9671 127.667 67.3279L126.252 68.7421C128.281 70.7709 130.798 71.786 133.739 71.786V69.786ZM127.667 67.3279C126.032 65.6937 125.208 63.6611 125.208 61.1575H123.208C123.208 64.1559 124.219 66.7083 126.252 68.7421L127.667 67.3279ZM125.208 61.1575C125.208 58.5806 126.036 56.6001 127.64 55.111L126.279 53.6455C124.215 55.5624 123.208 58.1014 123.208 61.1575H125.208ZM127.654 55.0981C129.29 53.5198 131.297 52.7255 133.739 52.7255V50.7255C130.81 50.7255 128.297 51.6997 126.265 53.6584L127.654 55.0981ZM133.739 52.7255C136.181 52.7255 138.187 53.5198 139.824 55.0981L141.212 53.6584C139.181 51.6997 136.668 50.7255 133.739 50.7255V52.7255ZM139.837 55.111C141.441 56.6001 142.269 58.5806 142.269 61.1575H144.269C144.269 58.1014 143.263 55.5624 141.198 53.6455L139.837 55.111ZM142.269 61.1575C142.269 63.6611 141.445 65.6937 139.811 67.3279L141.225 68.7421C143.259 66.7083 144.269 64.1559 144.269 61.1575H142.269ZM139.811 67.3279C138.172 68.9671 136.169 69.786 133.739 69.786V71.786C136.679 71.786 139.196 70.7709 141.225 68.7421L139.811 67.3279Z" fill="#8468F6"/>
</svg>
