<svg width="221" height="47" viewBox="0 0 221 47" fill="none" xmlns="http://www.w3.org/2000/svg">
<path d="M57.8928 11.1015C53.515 4.81387 46.6853 1.05652 38.1472 0.164763C24.4822 -1.2635 8.26296 6.51401 8.26296 26.6239L12.0385 26.6619C12.0385 7.24627 27.8692 2.94697 37.478 4.01455C63.5198 6.91095 60.2834 37.1256 53.9742 40.8866C43.8671 46.9132 41.2869 35.2823 41.2869 35.2823H37.5877C37.5877 35.2823 36.1804 43.1051 29.0384 41.9125C24.3651 41.1331 23.0303 36.2828 22.6679 34.5718C33.0779 29.1542 32.6615 17.1263 32.6615 17.1263L23.6271 14.4456C23.6271 14.4456 17.7268 23.6949 18.106 32.375C9.04558 34.956 2.79584 28.7445 2.77167 28.721L0 31.2277C0.109677 31.3419 7.6049 39.5145 18.87 36.0109C19.3013 37.6929 21.3331 44.5587 28.3562 45.7314C34.4479 46.7483 37.9929 43.2845 39.1733 41.4883C40.7571 44.053 43.7909 46.2226 48.2226 46.4202C48.3472 46.4256 48.4717 46.422 48.5981 46.4293C54.6025 46.6975 61.5307 41.5753 62.6405 30.3957C63.3283 23.4574 61.5977 16.4249 57.8928 11.1015ZM25.5455 18.9696L28.5793 19.8505C28.3748 21.2226 27.7818 26.8831 22.205 30.3903C22.4578 25.4023 24.4041 21.1954 25.5455 18.9696Z" fill="#EC9A29"/>
<path d="M17.9091 15.5015L14.7051 18.5703L17.1646 21.0116L20.3687 17.9428L17.9091 15.5015Z" fill="#EC9A29"/>
<path d="M88.8179 20.8525L85.8721 23.7383L88.1335 26.0339L91.0793 23.1482L88.8179 20.8525Z" fill="#EC9A29"/>
<path d="M70.4568 22.5391H74.6664V36.0618C74.6664 39.8131 78.083 42.3936 82.3268 42.3936H84.3624V46.5915H82.0499C75.6321 46.5915 70.4551 41.9811 70.4551 36.268V22.5391H70.4568Z" fill="white"/>
<path d="M90.5768 29.3867V46.5926H86.3672V29.3867H90.5768Z" fill="white"/>
<path d="M93.4509 25.9121H97.6606V31.4531H100.146V35.5829H97.6606V39.1263C97.6606 40.95 99.1783 42.4635 101.007 42.4635H102.043V46.5933H101.007C96.8316 46.5933 93.4492 43.1521 93.4492 39.0223V25.9121H93.4509Z" fill="white"/>
<path d="M103.935 25.9121H108.145V31.4531H110.63V35.5829H108.145V39.1263C108.145 40.95 109.663 42.4635 111.491 42.4635H112.527V46.5933H111.491C107.316 46.5933 103.934 43.1521 103.934 39.0223V25.9121H103.935Z" fill="white"/>
<path d="M114.275 46.5921V22.5039H118.519V46.5921H114.275Z" fill="white"/>
<path d="M130.489 28.457C131.213 28.457 131.87 28.5252 132.49 28.6633L132.835 28.7314C132.94 28.7655 133.076 28.7996 133.181 28.8354C137.011 29.9364 139.805 33.4117 139.805 37.5415C139.805 37.7818 139.771 38.0238 139.771 38.2641C139.703 38.9527 139.564 39.6055 139.357 40.2259C137.804 39.4691 136.079 39.0908 134.25 39.0908C132.422 39.0908 130.695 39.4691 129.075 40.1918V36.166C131.008 35.6155 132.767 35.4434 134.216 35.4434C134.527 35.4434 134.803 35.4774 135.114 35.4774C134.457 33.998 132.801 32.5868 130.49 32.5868C127.696 32.5868 125.418 34.823 125.418 37.5415C125.418 40.2941 127.764 42.4621 130.49 42.4621C131.906 42.4621 133.112 41.9797 134.114 40.9827C134.838 41.7735 136.081 43.1166 137.012 44.1136C135.39 45.6271 133.114 46.5918 130.49 46.5918C125.245 46.5918 121.208 42.4621 121.208 37.5415C121.206 32.4828 125.348 28.457 130.489 28.457Z" fill="white"/>
<path d="M142.639 22.0234H146.802V36.4767C146.802 39.6776 149.429 42.4643 152.876 42.4643C156.255 42.4643 158.951 39.8139 158.951 36.4767V22.0234H163.114V36.4767C163.114 39.6776 165.707 42.4643 169.154 42.4643C172.533 42.4643 175.229 39.8139 175.229 36.4767V22.0234H179.392V36.4767C179.392 42.1541 174.752 46.594 169.154 46.594C165.844 46.594 162.909 45.0805 161.032 42.6023C159.122 45.0805 156.187 46.594 152.876 46.594C147.212 46.594 142.639 42.0859 142.639 36.4767V22.0234Z" fill="white"/>
<path d="M190.597 28.457C191.322 28.457 191.978 28.5252 192.598 28.6633L192.944 28.7314C193.048 28.7655 193.185 28.7996 193.289 28.8354C197.119 29.9364 199.914 33.4117 199.914 37.5415C199.914 37.7818 199.879 38.0238 199.879 38.2641C199.811 38.9527 199.673 39.6055 199.466 40.2259C197.912 39.4691 196.188 39.0908 194.359 39.0908C192.53 39.0908 190.804 39.4691 189.184 40.1918V36.166C191.117 35.6155 192.875 35.4434 194.325 35.4434C194.636 35.4434 194.911 35.4774 195.222 35.4774C194.566 33.998 192.91 32.5868 190.599 32.5868C187.804 32.5868 185.526 34.823 185.526 37.5415C185.526 40.2941 187.873 42.4621 190.599 42.4621C192.014 42.4621 193.221 41.9797 194.222 40.9827C194.947 41.7735 196.189 43.1166 197.121 44.1136C195.499 45.6271 193.222 46.5918 190.599 46.5918C185.353 46.5918 181.316 42.4621 181.316 37.5415C181.315 32.4828 185.456 28.457 190.597 28.457Z" fill="white"/>
<path d="M206.611 22.0918V37.5081C206.611 40.6731 208.785 42.8411 211.684 42.8411C214.617 42.8411 216.756 40.1567 216.756 37.5081C216.756 34.8935 214.721 32.175 211.684 32.175C210.959 32.175 210.269 32.3131 209.648 32.5534C209.371 31.8989 208.406 29.5247 208.233 29.0781C209.303 28.6657 210.441 28.4594 211.684 28.4594C217.032 28.4594 221 32.6233 221 37.5098C221 42.6025 216.756 46.5942 211.684 46.5942C206.543 46.5942 202.401 42.5684 202.401 37.5098V22.0935H206.611V22.0918Z" fill="white"/>
</svg>
