<svg width="76" height="76" viewBox="0 0 76 76" fill="none" xmlns="http://www.w3.org/2000/svg">
<g clip-path="url(#clip0_252_68)">
<path d="M44.5309 43.2844H9.61836C9.26211 43.2844 9.02461 43.5219 9.02461 43.8781V70.5969C9.02461 70.9531 9.26211 71.1906 9.61836 71.1906H44.5309C44.8871 71.1906 45.1246 70.9531 45.1246 70.5969V43.8781C45.1246 43.5219 44.8871 43.2844 44.5309 43.2844ZM43.9371 69.9437H10.2121V44.4125H43.9371V69.9437ZM66.3809 43.2844H49.2809C48.9246 43.2844 48.6871 43.5219 48.6871 43.8781V70.5969C48.6871 70.9531 48.9246 71.1906 49.2809 71.1906H66.3809C66.7371 71.1906 66.9746 70.9531 66.9746 70.5969V43.8781C66.9746 43.5219 66.7371 43.2844 66.3809 43.2844ZM65.7871 69.9437H49.8746V44.4125H65.7871V69.9437ZM52.8434 52.25H62.8184C63.1746 52.25 63.4121 52.0125 63.4121 51.6562V47.3813C63.4121 47.025 63.1746 46.7875 62.8184 46.7875H52.8434C52.4871 46.7875 52.2496 47.025 52.2496 47.3813V51.6562C52.2496 52.0125 52.5465 52.25 52.8434 52.25ZM53.4371 48.0344H62.2246V51.0625H53.4371V48.0344ZM66.3809 33.0125H9.61836C9.26211 33.0125 9.02461 33.25 9.02461 33.6063V39.1281C9.02461 39.4844 9.26211 39.7219 9.61836 39.7219H66.4402C66.7965 39.7219 67.034 39.4844 67.034 39.1281V33.6063C66.9746 33.3094 66.7371 33.0125 66.3809 33.0125ZM65.7871 38.5344H10.2121V34.2H65.8465L65.7871 38.5344ZM64.3621 3.8C62.8777 3.8 61.6902 4.9875 61.6902 6.47187C61.6902 7.95625 62.8777 9.14375 64.3621 9.14375C65.8465 9.14375 67.034 7.95625 67.034 6.47187C67.034 4.9875 65.7871 3.8 64.3621 3.8ZM64.3621 7.95625C63.5309 7.95625 62.8777 7.30312 62.8777 6.47187C62.8777 5.64062 63.5309 4.9875 64.3621 4.9875C65.1934 4.9875 65.8465 5.64062 65.8465 6.47187C65.8465 7.30312 65.134 7.95625 64.3621 7.95625ZM57.534 3.8C56.0496 3.8 54.8621 4.9875 54.8621 6.47187C54.8621 7.95625 56.0496 9.14375 57.534 9.14375C59.0184 9.14375 60.2059 7.95625 60.2059 6.47187C60.2059 4.9875 59.0184 3.8 57.534 3.8ZM57.534 7.95625C56.7027 7.95625 56.0496 7.30312 56.0496 6.47187C56.0496 5.64062 56.7027 4.9875 57.534 4.9875C58.3652 4.9875 59.0184 5.64062 59.0184 6.47187C59.0184 7.30312 58.3652 7.95625 57.534 7.95625ZM50.7059 3.8C49.2215 3.8 48.034 4.9875 48.034 6.47187C48.034 7.95625 49.2215 9.14375 50.7059 9.14375C52.1902 9.14375 53.3777 7.95625 53.3777 6.47187C53.3777 4.9875 52.1902 3.8 50.7059 3.8ZM50.7059 7.95625C49.8746 7.95625 49.2215 7.30312 49.2215 6.47187C49.2215 5.64062 49.8746 4.9875 50.7059 4.9875C51.5371 4.9875 52.1902 5.64062 52.1902 6.47187C52.1902 7.30312 51.5371 7.95625 50.7059 7.95625ZM40.7309 3.8H11.6965C10.2121 3.8 9.02461 4.9875 9.02461 6.47187C9.02461 7.95625 10.2121 9.14375 11.6965 9.14375H40.7309C42.2152 9.14375 43.4027 7.95625 43.4027 6.47187C43.4027 4.9875 42.2152 3.8 40.7309 3.8ZM40.7309 7.95625H11.6965C10.8652 7.95625 10.2121 7.30312 10.2121 6.47187C10.2121 5.64062 10.8652 4.9875 11.6965 4.9875H40.7309C41.5621 4.9875 42.2152 5.64062 42.2152 6.47187C42.2152 7.30312 41.5621 7.95625 40.7309 7.95625ZM75.7027 21.6719L71.8434 12.1719V5.16563C71.8434 2.31562 69.5277 0 66.6777 0H9.32148C6.47148 0 4.15586 2.31562 4.15586 5.16563V12.1719L0.237109 21.6719C0.237109 21.7313 0.177734 21.7906 0.177734 21.9094V22.2656C0.177734 24.9969 1.78086 27.3125 4.09648 28.4406V70.8344C4.09648 73.6844 6.41211 76 9.26211 76H66.6184C69.4684 76 71.784 73.6844 71.784 70.8344V28.4406C74.0996 27.3719 75.7027 24.9969 75.7027 22.2656C75.7621 21.85 75.7621 21.85 75.7027 21.6719ZM49.7559 12.8844H59.7309L62.0465 21.3156H50.9434L49.7559 12.8844ZM25.0559 21.3156H14.0121L16.3277 12.8844H26.3027L25.0559 21.3156ZM26.3027 21.3156L27.4309 12.8844H37.4059V21.3156H26.3027ZM38.5934 12.8844H48.5684L49.6965 21.3156H38.5934V12.8844ZM5.16523 12.8844H15.0809L12.7652 21.3156H1.72148L5.16523 12.8844ZM24.9965 22.5031C24.8777 25.4719 22.384 27.8469 19.4152 27.8469C16.3871 27.8469 13.9527 25.4719 13.834 22.5031H24.9965ZM37.4059 22.5031C37.2871 25.4719 34.7934 27.8469 31.8246 27.8469C28.8559 27.8469 26.3621 25.4719 26.2434 22.5031H37.4059ZM49.8152 22.5031C49.6965 25.4719 47.2027 27.8469 44.234 27.8469C41.2059 27.8469 38.7715 25.4719 38.6527 22.5031H49.8152ZM62.1652 22.5031C62.0465 25.4719 59.5527 27.8469 56.584 27.8469C53.5559 27.8469 51.1215 25.4719 51.0027 22.5031H62.1652ZM63.234 21.3156L60.9184 12.8844H70.834L74.2777 21.3156H63.234ZM5.34336 5.16563C5.34336 2.96875 7.12461 1.1875 9.32148 1.1875H66.6777C68.8746 1.1875 70.6559 2.96875 70.6559 5.16563V11.6969H5.34336V5.16563ZM1.42461 22.5031H12.6465C12.5277 25.4719 10.034 27.8469 7.06523 27.8469C3.97773 27.8469 1.54336 25.4719 1.42461 22.5031ZM70.6559 70.8344C70.6559 73.0312 68.8746 74.8125 66.6777 74.8125H9.32148C7.12461 74.8125 5.34336 73.0312 5.34336 70.8344V28.8562C5.87773 28.975 6.41211 29.0938 7.00586 29.0938C9.79648 29.0938 12.1715 27.4312 13.1809 25.0562C14.2496 27.4312 16.6246 29.0938 19.3559 29.0938C22.1465 29.0938 24.5215 27.4312 25.5309 25.0562C26.5996 27.4312 28.9746 29.0938 31.7059 29.0938C34.4965 29.0938 36.8715 27.4312 37.8809 25.0562C38.9496 27.4312 41.3246 29.0938 44.0559 29.0938C46.8465 29.0938 49.2215 27.4312 50.2309 25.0562C51.2996 27.4312 53.6746 29.0938 56.4059 29.0938C59.1965 29.0938 61.5715 27.4312 62.5809 25.0562C63.6496 27.4312 66.0246 29.0938 68.7559 29.0938C69.3496 29.0938 69.884 29.0344 70.4184 28.8562V70.8344H70.6559ZM68.9934 27.8469C65.9652 27.8469 63.5309 25.4719 63.4121 22.5031H74.634C74.4559 25.4719 72.0215 27.8469 68.9934 27.8469ZM62.8184 55.0406C62.4621 55.0406 62.2246 55.2781 62.2246 55.6344V58.7812C62.2246 59.1375 62.4621 59.375 62.8184 59.375C63.1746 59.375 63.4121 59.1375 63.4121 58.7812V55.575C63.4121 55.2781 63.1746 55.0406 62.8184 55.0406Z" fill="#947BFB"/>
</g>
<defs>
<clipPath id="clip0_252_68">
<rect width="76" height="76" fill="white"/>
</clipPath>
</defs>
</svg>
