<svg width="70" height="70" viewBox="0 0 70 70" fill="none" xmlns="http://www.w3.org/2000/svg">
<path d="M36.6125 48.2055C23.2965 48.2055 15.7012 38.5805 15.3848 22.5645H22.055C22.274 34.3198 27.1915 39.2991 31.0865 40.3258V22.5645H37.3672V32.7028C41.2135 32.2665 45.2546 27.6465 46.6178 22.5645H52.8985C52.3848 25.2001 51.3608 27.6957 49.8905 29.895C48.4203 32.0944 46.5354 33.9502 44.3538 35.3465C46.789 36.6222 48.9399 38.428 50.6645 40.6446C52.3892 42.8611 53.6484 45.4381 54.3591 48.2055H47.4455C46.8075 45.8018 45.5109 43.6502 43.718 42.0202C41.9252 40.3902 39.716 39.3543 37.3672 39.0425V48.2055H36.6125Z" fill="white"/>
</svg>
