<svg width="145" height="72" viewBox="0 0 145 72" fill="none" xmlns="http://www.w3.org/2000/svg">
<path d="M15.078 66.9542L15.6125 66.1091H15.6125L15.078 66.9542ZM4.56525 54.7712L3.65794 55.1917L3.66105 55.1984L3.66425 55.2051L4.56525 54.7712ZM4.56525 16.552L3.66217 16.1225L3.65993 16.1273L4.56525 16.552ZM15.078 4.27075L15.6125 5.11594L15.078 4.27075ZM45.5355 4.27075L45.001 5.11594L45.5355 4.27075ZM55.95 16.552L55.0427 16.9725L55.0458 16.9792L55.049 16.9858L55.95 16.552ZM55.95 54.7712L55.0469 54.3417L55.0447 54.3465L55.95 54.7712ZM45.5355 66.9542L45.001 66.1091L45.5355 66.9542ZM40.1318 52.315L39.302 51.7568L39.295 51.7673L40.1318 52.315ZM40.1318 18.91L39.295 19.4577L39.302 19.4682L40.1318 18.91ZM20.4818 18.91L19.652 18.3518L19.6451 18.3623L20.4818 18.91ZM20.4818 52.315L19.645 52.8627L19.652 52.8732L20.4818 52.315ZM30.3068 70.179C24.7814 70.179 19.8935 68.8162 15.6125 66.1091L14.5435 67.7994C19.1705 70.7253 24.4351 72.179 30.3068 72.179V70.179ZM15.6125 66.1091C11.3349 63.4041 7.94933 59.4946 5.46625 54.3374L3.66425 55.2051C6.29017 60.6589 9.91314 64.8714 14.5435 67.7994L15.6125 66.1091ZM5.47256 54.3508C3.05791 49.1402 1.83175 42.9041 1.83175 35.6125H-0.16825C-0.16825 43.1239 1.09459 49.6603 3.65794 55.1917L5.47256 54.3508ZM1.83175 35.6125C1.83175 28.3204 3.05808 22.1191 5.47058 16.9767L3.65993 16.1273C1.09442 21.5959 -0.16825 28.1016 -0.16825 35.6125H1.83175ZM5.46832 16.9815C7.9524 11.7585 11.338 7.81891 15.6125 5.11594L14.5435 3.42555C9.91 6.35558 6.2871 10.6034 3.66219 16.1225L5.46832 16.9815ZM15.6125 5.11594C19.8935 2.4088 24.7814 1.046 30.3068 1.046V-0.954001C24.4351 -0.954001 19.1705 0.499694 14.5435 3.42555L15.6125 5.11594ZM30.3068 1.046C35.8321 1.046 40.72 2.4088 45.001 5.11594L46.07 3.42555C41.443 0.499694 36.1784 -0.954001 30.3068 -0.954001V1.046ZM45.001 5.11594C49.273 7.81732 52.6243 11.7537 55.0427 16.9725L56.8573 16.1315C54.2977 10.6083 50.706 6.35717 46.07 3.42555L45.001 5.11594ZM55.049 16.9858C57.5238 22.1258 58.7818 28.3237 58.7818 35.6125H60.7818C60.7818 28.0983 59.4852 21.5892 56.851 16.1182L55.049 16.9858ZM58.7818 35.6125C58.7818 42.9008 57.524 49.1336 55.0469 54.3417L56.8531 55.2008C59.485 49.6669 60.7818 43.1272 60.7818 35.6125H58.7818ZM55.0447 54.3465C52.6273 59.4994 49.2761 63.4057 45.001 66.1091L46.07 67.7994C50.7029 64.8698 54.2947 60.6541 56.8553 55.196L55.0447 54.3465ZM45.001 66.1091C40.72 68.8162 35.8321 70.179 30.3068 70.179V72.179C36.1784 72.179 41.443 70.7253 46.07 67.7994L45.001 66.1091ZM30.3068 58.7188C34.847 58.7188 38.4317 56.7382 40.9685 52.8627L39.295 51.7673C37.1158 55.0968 34.1505 56.7188 30.3068 56.7188V58.7188ZM40.9615 52.8732C43.551 49.0239 44.767 43.2147 44.767 35.6125H42.767C42.767 43.0753 41.5595 48.4011 39.302 51.7568L40.9615 52.8732ZM44.767 35.6125C44.767 28.0103 43.551 22.2011 40.9615 18.3518L39.302 19.4682C41.5595 22.8239 42.767 28.1497 42.767 35.6125H44.767ZM40.9685 18.3623C38.4317 14.4868 34.847 12.5062 30.3068 12.5062V14.5062C34.1505 14.5062 37.1158 16.1282 39.295 19.4577L40.9685 18.3623ZM30.3068 12.5062C25.8272 12.5062 22.2498 14.4903 19.652 18.3518L21.3115 19.4682C23.5607 16.1247 26.5333 14.5062 30.3068 14.5062V12.5062ZM19.6451 18.3623C17.1272 22.2091 15.9448 28.0135 15.9448 35.6125H17.9448C17.9448 28.1465 19.1203 22.8159 21.3185 19.4577L19.6451 18.3623ZM15.9448 35.6125C15.9448 43.2115 17.1272 49.0159 19.6451 52.8627L21.3185 51.7673C19.1203 48.4091 17.9448 43.0785 17.9448 35.6125H15.9448ZM19.652 52.8732C22.2498 56.7347 25.8272 58.7188 30.3068 58.7188V56.7188C26.5333 56.7188 23.5607 55.1003 21.3115 51.7568L19.652 52.8732ZM118.324 57.031H119.324V56.031H118.324V57.031ZM118.324 70V71H119.324V70H118.324ZM66.3499 70H65.3499V71H66.3499V70ZM66.3499 59.6837L65.6633 58.9567L65.3499 59.2527V59.6837H66.3499ZM92.8774 34.63L93.564 35.357L93.5675 35.3537L92.8774 34.63ZM98.5759 27.7525L99.4642 28.212L99.4703 28.1997L98.5759 27.7525ZM97.2004 15.6677L96.5657 16.4405L96.5806 16.4527L96.596 16.4644L97.2004 15.6677ZM80.8909 15.1765L81.3084 16.0852L81.3185 16.0806L81.3284 16.0757L80.8909 15.1765ZM74.7994 20.2855L74.2579 21.1262L75.0592 21.6423L75.6132 20.8667L74.7994 20.2855ZM63.2059 12.8185L62.376 12.2607L61.8071 13.107L62.6644 13.6592L63.2059 12.8185ZM74.3082 3.48475L74.7352 4.38905L74.7454 4.38411L74.3082 3.48475ZM103.881 2.60049L103.472 3.513L103.482 3.51722L103.491 3.52125L103.881 2.60049ZM112.822 9.6745L111.996 10.2373L112.002 10.2474L112.01 10.2574L112.822 9.6745ZM113.706 30.8965L114.608 31.3292L113.706 30.8965ZM104.569 42.097L103.889 41.3638L103.883 41.3699L104.569 42.097ZM88.7509 57.031L88.0644 56.3039L86.235 58.031H88.7509V57.031ZM117.324 57.031V70H119.324V57.031H117.324ZM118.324 69H66.3499V71H118.324V69ZM67.3499 70V59.6837H65.3499V70H67.3499ZM67.0365 60.4108L93.564 35.357L92.1908 33.903L65.6633 58.9567L67.0365 60.4108ZM93.5675 35.3537C96.4097 32.6437 98.4049 30.2598 99.4641 28.2119L97.6877 27.2931C96.782 29.0442 94.9781 31.2453 92.1873 33.9063L93.5675 35.3537ZM99.4703 28.1997C100.511 26.1176 101.05 24.0331 101.05 21.9557H99.0497C99.0497 23.6774 98.6054 25.4574 97.6815 27.3053L99.4703 28.1997ZM101.05 21.9557C101.05 18.9466 99.9941 16.5319 97.8048 14.8711L96.596 16.4644C98.2058 17.6856 99.0497 19.4629 99.0497 21.9557H101.05ZM97.8352 14.895C95.7501 13.1823 92.765 12.408 89.0457 12.408V14.408C92.5313 14.408 94.9827 15.1402 96.5657 16.4405L97.8352 14.895ZM89.0457 12.408C85.8991 12.408 83.0286 13.0245 80.4535 14.2773L81.3284 16.0757C83.6002 14.9705 86.1662 14.408 89.0457 14.408V12.408ZM80.4734 14.2678C77.8826 15.4582 75.7186 17.2782 73.9857 19.7043L75.6132 20.8667C77.1553 18.7078 79.0523 17.1218 81.3084 16.0852L80.4734 14.2678ZM75.3409 19.4448L63.7474 11.9778L62.6644 13.6592L74.2579 21.1262L75.3409 19.4448ZM64.0359 13.3763C66.6124 9.54293 70.1682 6.54562 74.7352 4.38899L73.8812 2.5805C69.0161 4.87788 65.1704 8.10306 62.376 12.2607L64.0359 13.3763ZM74.7454 4.38411C79.3047 2.16775 84.555 1.046 90.5194 1.046V-0.954001C84.3009 -0.954001 78.7436 0.216746 73.871 2.58538L74.7454 4.38411ZM90.5194 1.046C95.5187 1.046 99.8278 1.87923 103.472 3.513L104.29 1.68799C100.337 -0.0842314 95.7382 -0.954001 90.5194 -0.954001V1.046ZM103.491 3.52125C107.202 5.09362 110.021 7.33711 111.996 10.2373L113.649 9.11171C111.431 5.85488 108.29 3.38237 104.272 1.67974L103.491 3.52125ZM112.01 10.2574C114.036 13.0815 115.064 16.4417 115.064 20.3838H117.064C117.064 16.0728 115.932 12.2935 113.635 9.09159L112.01 10.2574ZM115.064 20.3838C115.064 23.9717 114.31 27.3276 112.805 30.4638L114.608 31.3292C116.247 27.9154 117.064 24.2628 117.064 20.3838H115.064ZM112.805 30.4638C111.312 33.5734 108.372 37.2061 103.889 41.3638L105.249 42.8302C109.806 38.6039 112.957 34.7696 114.608 31.3292L112.805 30.4638ZM103.883 41.3699L88.0644 56.3039L89.4374 57.7581L105.256 42.8241L103.883 41.3699ZM88.7509 58.031H118.324V56.031H88.7509V58.031ZM128.111 68.035L128.818 67.3279L128.111 68.035ZM128.111 54.3783L128.791 55.111L128.798 55.1046L128.805 55.0981L128.111 54.3783ZM141.669 54.3783L140.975 55.0981L140.982 55.1046L140.989 55.111L141.669 54.3783ZM141.669 68.035L140.962 67.3279L141.669 68.035ZM134.89 69.786C132.459 69.786 130.457 68.9671 128.818 67.3279L127.404 68.7421C129.433 70.7709 131.95 71.786 134.89 71.786V69.786ZM128.818 67.3279C127.184 65.6937 126.36 63.6611 126.36 61.1575H124.36C124.36 64.1559 125.37 66.7083 127.404 68.7421L128.818 67.3279ZM126.36 61.1575C126.36 58.5806 127.188 56.6001 128.791 55.111L127.43 53.6455C125.366 55.5624 124.36 58.1014 124.36 61.1575H126.36ZM128.805 55.0981C130.442 53.5198 132.448 52.7255 134.89 52.7255V50.7255C131.961 50.7255 129.448 51.6997 127.417 53.6584L128.805 55.0981ZM134.89 52.7255C137.332 52.7255 139.338 53.5198 140.975 55.0981L142.363 53.6584C140.332 51.6997 137.819 50.7255 134.89 50.7255V52.7255ZM140.989 55.111C142.592 56.6001 143.42 58.5806 143.42 61.1575H145.42C145.42 58.1014 144.414 55.5624 142.35 53.6455L140.989 55.111ZM143.42 61.1575C143.42 63.6611 142.596 65.6937 140.962 67.3279L142.376 68.7421C144.41 66.7083 145.42 64.1559 145.42 61.1575H143.42ZM140.962 67.3279C139.323 68.9671 137.321 69.786 134.89 69.786V71.786C137.83 71.786 140.348 70.7709 142.376 68.7421L140.962 67.3279Z" fill="#8468F6"/>
</svg>
