<svg width="76" height="76" viewBox="0 0 76 76" fill="none" xmlns="http://www.w3.org/2000/svg">
<path d="M69.6738 0H6.32617C2.83646 0 0 2.83646 0 6.32617V57.8466C0 61.3363 2.83646 64.1728 6.32617 64.1728H69.6738C73.1635 64.1728 76 61.3363 76 57.8466V6.32617C76 2.83646 73.1635 0 69.6738 0ZM73.6449 13.5119V57.8638C73.6449 60.0814 71.9086 61.8349 69.691 61.8349H6.32617C4.10857 61.8349 2.35512 60.0986 2.35512 57.8638V13.5119H73.6449ZM73.6449 6.32617V11.1396H2.37231V6.32617C2.37231 4.10857 4.10857 2.35512 6.34336 2.35512H69.691C71.8914 2.37231 73.6449 4.10857 73.6449 6.32617Z" fill="#947BFB"/>
<path d="M8.44062 4.2461C7.83895 4.31486 7.39199 4.83058 7.39199 5.43225V8.07962C7.39199 8.40624 7.51233 8.69848 7.73581 8.92196C7.95928 9.14544 8.25153 9.26578 8.57815 9.26578C8.90477 9.26578 9.19701 9.14544 9.42049 8.92196C9.64397 8.69848 9.76431 8.38905 9.76431 8.07962V5.44945C9.76431 5.10563 9.62678 4.77901 9.36892 4.55553C9.11106 4.31486 8.78444 4.21172 8.44062 4.2461Z" fill="#947BFB"/>
<path d="M13.6494 4.2461C13.0477 4.31486 12.6008 4.83058 12.6008 5.43225V8.07962C12.6008 8.40624 12.7211 8.69848 12.9446 8.92196C13.1681 9.14544 13.4603 9.26578 13.7869 9.26578C14.0964 9.26578 14.4058 9.14544 14.6293 8.92196C14.8527 8.69848 14.9731 8.38905 14.9731 8.07962V5.44945C14.9731 5.10563 14.8356 4.77901 14.5777 4.55553C14.3198 4.31486 13.976 4.21172 13.6494 4.2461Z" fill="#947BFB"/>
<path d="M45.2631 44.7817H8.45782C7.85614 44.8505 7.39199 45.349 7.39199 45.9679V55.5431C7.39199 56.1963 7.9249 56.7292 8.57815 56.7292H45.2631C45.9163 56.7292 46.4492 56.1963 46.4492 55.5431V45.9679C46.432 45.3146 45.8991 44.7817 45.2631 44.7817ZM44.0769 47.154V54.3741H9.76431V47.154H44.0769Z" fill="#947BFB"/>
<path d="M67.4562 44.7817H52.8785C52.294 44.7817 51.7783 45.3318 51.7783 45.9679V55.5431C51.7783 56.1963 52.3112 56.7292 52.9645 56.7292H67.439C68.0923 56.7292 68.6252 56.1963 68.6252 55.5431V45.9679C68.6252 45.3146 68.0923 44.7817 67.4562 44.7817ZM66.2701 47.154V54.3741H54.1506V47.154H66.2701Z" fill="#947BFB"/>
<path d="M8.57815 39.6933H67.4562C68.1095 39.6933 68.6424 39.1604 68.6424 38.5071V19.7865C68.6424 19.1332 68.1095 18.6003 67.4562 18.6003H8.57815C7.9249 18.6003 7.39199 19.1332 7.39199 19.7865V38.5071C7.39199 39.1604 7.9249 39.6933 8.57815 39.6933ZM40.9482 26.9034L37.0631 30.8229L31.6824 25.3047C31.4246 25.0296 31.1323 24.8921 30.8401 24.8921C30.5478 24.8921 30.2556 25.0296 29.9977 25.3047L18.2737 37.321H9.76431V20.9554H66.2701V37.321H52.9301L42.6329 26.9034C42.375 26.6456 42.0828 26.508 41.7905 26.508C41.4983 26.508 41.2061 26.6456 40.9482 26.9034ZM40.123 37.321H21.5571L30.8401 27.8145L40.123 37.321ZM49.5951 37.321H43.4065L38.7134 32.5076L41.7734 29.4133L49.5951 37.321Z" fill="#947BFB"/>
<path d="M51.933 31.4933C54.2538 31.4933 56.1448 29.6024 56.1448 27.2816C56.1448 24.9609 54.2538 23.0699 51.933 23.0699C49.6123 23.0699 47.7213 24.9609 47.7213 27.2816C47.7385 29.6024 49.6295 31.4933 51.933 31.4933ZM50.0936 27.2816C50.0936 26.2502 50.9016 25.4422 51.933 25.4422C52.9645 25.4422 53.7896 26.2502 53.7896 27.2816C53.7896 28.313 52.9817 29.1382 51.933 29.1382C50.9016 29.1382 50.0936 28.313 50.0936 27.2816Z" fill="#947BFB"/>
</svg>
