<svg width="76" height="76" viewBox="0 0 76 76" fill="none" xmlns="http://www.w3.org/2000/svg">
<path d="M66.8803 5.66943H9.12031C7.02274 5.66943 5.32031 7.37186 5.32031 9.46943V19.0454V44.3839V51.0719V66.8799C5.32031 68.9774 7.02274 70.6799 9.12031 70.6799H66.8803C68.9779 70.6799 70.6803 68.9774 70.6803 66.8799V51.0719V44.3839V19.0454V9.46943C70.6803 7.37186 68.9779 5.66943 66.8803 5.66943ZM69.1603 43.6239H41.3443V41.9214C41.3443 40.5839 40.2499 39.4894 38.9123 39.4894H37.1795C36.7843 39.4894 36.4499 39.2614 36.3283 38.9119C36.1612 38.3647 35.9332 37.863 35.7355 37.4374C35.7203 37.4374 35.7203 37.4223 35.7203 37.4223C35.5532 37.0879 35.6443 36.6774 35.9179 36.4039L37.1187 35.203C37.5747 34.747 37.8332 34.1239 37.8332 33.4854C37.8332 32.847 37.5747 32.2239 37.1187 31.7679L36.1003 30.7494C35.6443 30.2934 35.0363 30.035 34.3827 30.035C33.7292 30.035 33.1212 30.2934 32.6652 30.7494L31.4643 31.9503C31.1907 32.2087 30.7803 32.2847 30.4307 32.1327C29.9899 31.9199 29.5036 31.7223 28.9563 31.5399C28.6067 31.4183 28.3635 31.0687 28.3635 30.6734V28.971C28.3635 27.6334 27.269 26.539 25.9315 26.539H24.5026C23.165 26.539 22.0706 27.6334 22.0706 28.971V30.6734C22.0706 31.0686 21.8426 31.403 21.493 31.5246C20.9459 31.6917 20.4139 31.935 20.0186 32.1174C20.0186 32.1326 20.0035 32.1326 20.0035 32.1326C19.669 32.2997 19.2586 32.2086 18.985 31.935L17.7842 30.7341C17.3282 30.2781 16.705 30.0197 16.0666 30.0197C15.4282 30.0197 14.805 30.2781 14.349 30.7341L13.3306 31.7526C12.8746 32.2086 12.6162 32.8166 12.6162 33.4701C12.6162 34.1237 12.8746 34.7317 13.3306 35.1877L14.5315 36.3886C14.7899 36.6621 14.8659 37.0726 14.7139 37.4221C14.501 37.863 14.3035 38.3493 14.121 38.8966C13.9995 39.2461 13.6499 39.4894 13.2546 39.4894H11.5523C10.2147 39.4894 9.12031 40.5839 9.12031 41.9214V43.6239H6.84031V19.8054H69.1603V43.6239ZM20.1428 43.6239C20.5142 41.1386 22.6839 39.231 25.2626 39.231C27.8413 39.231 29.9958 41.1384 30.3672 43.6239H20.1428ZM31.8894 43.6239C31.505 40.2956 28.6787 37.711 25.2476 37.711C21.8163 37.711 18.9902 40.2956 18.6058 43.6239H10.6403V41.9063C10.6403 41.3894 11.0355 40.9943 11.5523 40.9943H13.2395C14.2883 40.9943 15.2155 40.3407 15.5499 39.3527C15.717 38.8663 15.8843 38.4559 16.0667 38.0911C16.0819 38.0911 16.0819 38.076 16.0819 38.076C16.5227 37.1489 16.325 36.0392 15.5955 35.3096L14.3946 34.1087C14.2122 33.9263 14.121 33.7136 14.121 33.4552C14.121 33.1967 14.2275 32.9687 14.3946 32.8016L15.413 31.7832C15.5955 31.6007 15.8082 31.5096 16.0666 31.5096C16.325 31.5096 16.553 31.616 16.7202 31.7832L17.921 32.984C18.6659 33.7289 19.7755 33.9264 20.6875 33.4704C21.0523 33.288 21.5083 33.0904 21.9795 32.9384C22.9523 32.6193 23.6059 31.692 23.6059 30.6433V28.9407C23.6059 28.4239 24.001 28.0287 24.5179 28.0287H25.9467C26.4636 28.0287 26.8587 28.4239 26.8587 28.9407V30.6432C26.8587 31.692 27.5123 32.6192 28.5003 32.9536C28.9867 33.1207 29.3972 33.288 29.7619 33.4704C29.7619 33.4856 29.777 33.4856 29.777 33.4856C30.7042 33.9264 31.8139 33.7287 32.5435 32.9992L33.7443 31.7983C33.9267 31.6159 34.1395 31.5247 34.3979 31.5247C34.6563 31.5247 34.8843 31.6312 35.0515 31.7983L36.0699 32.8167C36.2523 32.9992 36.3435 33.2119 36.3435 33.4703C36.3435 33.7287 36.237 33.9567 36.0699 34.1239L34.869 35.3247C34.1242 36.0696 33.9266 37.1791 34.3826 38.0911C34.565 38.456 34.7626 38.912 34.9146 39.3832C35.2337 40.356 36.161 41.0096 37.2097 41.0096H38.9122C39.429 41.0096 39.8242 41.4047 39.8242 41.9216V43.624H31.8894V43.6239ZM6.84031 45.1439H9.72549C9.77537 45.1538 9.82717 45.159 9.88031 45.159H19.3195H31.1755H40.5843C40.6375 45.159 40.6893 45.1538 40.7391 45.1439H69.1603V50.3119H6.84031V45.1439ZM6.84031 9.46943C6.84031 8.20786 7.85874 7.18943 9.12031 7.18943H66.8803C68.1419 7.18943 69.1603 8.20786 69.1603 9.46943V18.2854H6.84031V9.46943ZM69.1603 66.8799C69.1603 68.1414 68.1419 69.1599 66.8803 69.1599H9.12031C7.85874 69.1599 6.84031 68.1414 6.84031 66.8799V51.8319H69.1603V66.8799Z" fill="#947BFB"/>
<path d="M70.68 0H5.32C2.38643 0 0 2.38643 0 5.32V70.68C0 73.6136 2.38643 76 5.32 76H70.68C73.6136 76 76 73.6136 76 70.68V5.32C76 2.38643 73.6136 0 70.68 0ZM74.48 70.68C74.48 72.7776 72.7776 74.48 70.68 74.48H5.32C3.22243 74.48 1.52 72.7776 1.52 70.68V5.32C1.52 3.22243 3.22243 1.52 5.32 1.52H70.68C72.7776 1.52 74.48 3.22243 74.48 5.32V70.68Z" fill="#947BFB"/>
<path d="M12.114 64.8584H19.5011C20.702 64.8584 21.6747 63.9312 21.7811 62.7608C21.7811 62.7 21.7963 62.6392 21.7963 62.5784V57.5168C21.7963 56.2552 20.7778 55.2368 19.5163 55.2368H12.114C10.8524 55.2368 9.83398 56.2552 9.83398 57.5168V62.5784C9.83398 63.84 10.8524 64.8584 12.114 64.8584ZM11.354 57.5168C11.354 57.0912 11.6884 56.7568 12.114 56.7568H19.5164C19.942 56.7568 20.2764 57.0912 20.2764 57.5168V62.4264C20.2613 62.472 20.2613 62.5328 20.2613 62.5784C20.2613 63.004 19.9268 63.3384 19.5013 63.3384H12.114C11.6884 63.3384 11.354 63.004 11.354 62.5784V57.5168Z" fill="#947BFB"/>
<path d="M26.904 64.8584H34.3065C35.568 64.8584 36.5865 63.84 36.5865 62.5784V57.5168C36.5865 56.2552 35.568 55.2368 34.3065 55.2368H26.904C25.6425 55.2368 24.624 56.2552 24.624 57.5168V62.5784C24.624 63.84 25.6425 64.8584 26.904 64.8584ZM26.144 57.5168C26.144 57.0912 26.4785 56.7568 26.904 56.7568H34.3065C34.732 56.7568 35.0665 57.0912 35.0665 57.5168V62.5784C35.0665 63.004 34.732 63.3384 34.3065 63.3384H26.904C26.4785 63.3384 26.144 63.004 26.144 62.5784V57.5168Z" fill="#947BFB"/>
<path d="M41.6931 64.8584H49.0955C50.3571 64.8584 51.3755 63.84 51.3755 62.5784V57.5168C51.3755 56.2552 50.3571 55.2368 49.0955 55.2368H41.6931C40.4315 55.2368 39.4131 56.2552 39.4131 57.5168V62.5784C39.4131 63.84 40.4315 64.8584 41.6931 64.8584ZM40.9331 57.5168C40.9331 57.0912 41.2675 56.7568 41.6931 56.7568H49.0955C49.5211 56.7568 49.8555 57.0912 49.8555 57.5168V62.5784C49.8555 63.004 49.5211 63.3384 49.0955 63.3384H41.6931C41.2675 63.3384 40.9331 63.004 40.9331 62.5784V57.5168Z" fill="#947BFB"/>
<path d="M56.4831 64.8584H63.8856C65.1471 64.8584 66.1656 63.84 66.1656 62.5784V57.5168C66.1656 56.2552 65.1471 55.2368 63.8856 55.2368H56.4831C55.2216 55.2368 54.2031 56.2552 54.2031 57.5168V62.5784C54.2031 63.84 55.2216 64.8584 56.4831 64.8584ZM55.7231 57.5168C55.7231 57.0912 56.0576 56.7568 56.4831 56.7568H63.8856C64.3111 56.7568 64.6456 57.0912 64.6456 57.5168V62.5784C64.6456 63.004 64.3111 63.3384 63.8856 63.3384H56.4831C56.0576 63.3384 55.7231 63.004 55.7231 62.5784V57.5168Z" fill="#947BFB"/>
<path d="M44.1252 28.0439H65.4052C65.8308 28.0439 66.1652 27.7095 66.1652 27.2839C66.1652 26.8584 65.8308 26.5239 65.4052 26.5239H44.1252C43.6997 26.5239 43.3652 26.8584 43.3652 27.2839C43.3652 27.7095 43.6997 28.0439 44.1252 28.0439Z" fill="#947BFB"/>
<path d="M44.1252 34.0176H65.4052C65.8308 34.0176 66.1652 33.6831 66.1652 33.2576C66.1652 32.832 65.8308 32.4976 65.4052 32.4976H44.1252C43.6997 32.4976 43.3652 32.832 43.3652 33.2576C43.3652 33.6831 43.6997 34.0176 44.1252 34.0176Z" fill="#947BFB"/>
<path d="M44.1252 40.0063H65.4052C65.8308 40.0063 66.1652 39.6719 66.1652 39.2463C66.1652 38.8208 65.8308 38.4863 65.4052 38.4863H44.1252C43.6997 38.4863 43.3652 38.8208 43.3652 39.2463C43.3652 39.6719 43.6997 40.0063 44.1252 40.0063Z" fill="#947BFB"/>
</svg>
