<svg width="70" height="70" viewBox="0 0 70 70" fill="none" xmlns="http://www.w3.org/2000/svg">
<path fill-rule="evenodd" clip-rule="evenodd" d="M15.8238 34.6214C26.0237 30.1917 32.8138 27.2483 36.2235 25.8204C45.9279 21.7696 47.9679 21.0702 49.2793 21.041C49.5707 21.041 50.2118 21.0993 50.649 21.449C50.9987 21.7404 51.0861 22.1193 51.1444 22.4107C51.2027 22.7021 51.261 23.3141 51.2027 23.7804C50.6781 29.3174 48.405 42.7521 47.2393 48.9303C46.7439 51.5531 45.7822 52.4273 44.8496 52.5148C42.8097 52.6896 41.2651 51.1742 39.3126 49.892C36.2235 47.8811 34.5041 46.628 31.5024 44.6463C28.0345 42.3732 30.2785 41.1201 32.2601 39.0801C32.7847 38.5556 41.7314 30.3957 41.9063 29.6672C41.9354 29.5797 41.9354 29.23 41.7314 29.0552C41.5274 28.8803 41.236 28.9386 41.0029 28.9969C40.6823 29.0552 35.7864 32.3191 26.2568 38.7596C24.858 39.7213 23.6049 40.1875 22.4683 40.1584C21.2152 40.1293 18.8255 39.459 17.0187 38.8761C14.833 38.1767 13.0845 37.7979 13.2302 36.5739C13.3176 35.9328 14.1919 35.2916 15.8238 34.6214Z" fill="white"/>
</svg>
