<svg width="80" height="80" viewBox="0 0 80 80" fill="none" xmlns="http://www.w3.org/2000/svg">
<path d="M69.1198 19.5201C69.9198 20.3201 70.8798 20.3201 71.5198 19.6801C72.1598 19.0401 72.1598 18.0801 71.5198 17.4401L68.9598 14.8801C68.3198 14.2401 67.3598 14.2401 66.7198 14.8801C66.0798 15.5201 66.0798 16.4801 66.7198 17.1201L66.8798 17.2801L64.3198 19.8401C59.1998 14.7201 52.4798 11.2001 44.7998 10.2401V4.8001H46.8798C47.8398 4.8001 48.4798 4.1601 48.4798 3.2001C48.4798 2.2401 47.8398 1.6001 46.8798 1.6001H33.2798C32.3198 1.6001 31.6798 2.2401 31.6798 3.2001C31.6798 4.1601 32.3198 4.8001 33.2798 4.8001H35.1998V10.2401C27.6798 11.3601 20.7998 14.8801 15.6798 20.0001L12.9598 17.2801L13.1198 17.1201C13.7598 16.4801 13.7598 15.5201 13.1198 14.8801C12.4798 14.2401 11.5198 14.2401 10.8798 14.8801L8.31977 17.4401C7.67977 18.0801 7.67977 19.0401 8.31977 19.6801C8.95977 20.3201 9.91977 20.3201 10.5598 19.6801L10.7198 19.5201L13.5998 22.4001C8.63977 28.3201 5.75977 36.0001 5.75977 44.1601C5.75977 63.0401 21.1198 78.4001 39.9998 78.4001C58.8798 78.4001 74.2398 63.0401 74.2398 44.1601C74.2398 35.8401 71.1998 28.3201 66.3998 22.2401L69.1198 19.5201ZM38.3998 4.8001H41.5998V9.9201C41.1198 9.9201 40.6398 9.9201 39.9998 9.9201C39.5198 9.9201 39.0398 9.9201 38.3998 9.9201V4.8001ZM71.0398 44.1601C71.0398 61.2801 57.1198 75.2001 39.9998 75.2001C22.8798 75.2001 8.95977 61.2801 8.95977 44.1601C8.95977 27.0401 22.8798 13.1201 39.9998 13.1201C57.1198 13.1201 71.0398 27.0401 71.0398 44.1601Z" fill="#947BFB"/>
<path d="M39.9996 20.8C27.1996 20.8 16.6396 31.2 16.6396 44.16C16.6396 56.96 27.0396 67.5201 39.9996 67.5201C52.9597 67.5201 63.3596 57.1201 63.3596 44.16C63.3596 31.36 52.7996 20.8 39.9996 20.8ZM54.7197 45.76H59.9996C59.1996 55.5201 51.3596 63.36 41.5996 64.16V58.88C41.5996 57.92 40.9597 57.28 39.9996 57.28C39.0396 57.28 38.3996 57.92 38.3996 58.88V64.16C28.6396 63.36 20.7996 55.5201 19.9996 45.76H25.2796C26.2396 45.76 26.8796 45.1201 26.8796 44.16C26.8796 43.2001 26.2396 42.56 25.2796 42.56H19.9996C20.7996 32.8 28.6396 24.96 38.3996 24.16V29.44C38.3996 30.4 39.0396 31.04 39.9996 31.04C40.9597 31.04 41.5996 30.4 41.5996 29.44V24.16C51.3596 24.96 59.1996 32.8 59.9996 42.56H54.7197C53.7597 42.56 53.1197 43.2001 53.1197 44.16C53.1197 45.1201 53.9197 45.76 54.7197 45.76Z" fill="#947BFB"/>
<path d="M41.5994 43.5201V37.9201C41.5994 36.9601 40.9594 36.3201 39.9994 36.3201C39.0394 36.3201 38.3994 36.9601 38.3994 37.9201V44.3201C38.3994 44.8001 38.5594 45.1201 38.8794 45.4401L43.9994 50.5601C44.3194 50.8801 44.7994 51.0401 45.1194 51.0401C45.4394 51.0401 45.9194 50.8801 46.2394 50.5601C46.8794 49.9201 46.8794 48.9601 46.2394 48.3201L41.5994 43.5201Z" fill="#947BFB"/>
</svg>
