<svg width="76" height="77" viewBox="0 0 76 77" fill="none" xmlns="http://www.w3.org/2000/svg">
<path d="M72.4388 15.5942V18.142C72.7987 18.3488 73.0983 18.6468 73.3066 19.0057C73.5149 19.3651 73.6252 19.7728 73.6263 20.1879V66.5012C73.6263 67.131 73.376 67.7354 72.9307 68.1807C72.4854 68.626 71.881 68.8762 71.2512 68.8762H4.75004C4.12024 68.8762 3.51586 68.626 3.07055 68.1807C2.62524 67.7354 2.375 67.131 2.375 66.5012V20.1879C2.37606 19.7728 2.48633 19.3651 2.69468 19.0057C2.90303 18.6468 3.20256 18.3488 3.56252 18.142V15.5942C2.54412 15.8577 1.64186 16.452 0.997206 17.2832C0.352552 18.1145 0.00213075 19.136 0 20.1878V66.5012C0.00159046 67.7608 0.502573 68.968 1.39272 69.8585C2.28337 70.7486 3.4905 71.2496 4.75008 71.2513H27.9061V73.6263H21.9685C21.3127 73.6263 20.7809 74.158 20.7809 74.8138C20.7809 75.4696 21.3127 76.0013 21.9685 76.0013H54.0315C54.6873 76.0013 55.2191 75.4696 55.2191 74.8138C55.2191 74.158 54.6873 73.6263 54.0315 73.6263H48.0939V71.2513H71.2499C72.5095 71.2497 73.7167 70.7487 74.6073 69.8585C75.4974 68.9679 75.9984 67.7608 76 66.5012V20.1878C75.9979 19.136 75.6474 18.1145 75.0028 17.2832C74.3581 16.452 73.4559 15.8577 72.4375 15.5942H72.4388ZM45.7188 73.6267H30.2811V71.2517H45.7188V73.6267Z" fill="#947BFB"/>
<path d="M64.126 4.75H61.751C61.0952 4.75 60.5635 5.28174 60.5635 5.93752C60.5635 6.5933 61.0952 7.12504 61.751 7.12504H64.126C64.7818 7.12504 65.3136 6.5933 65.3136 5.93752C65.3136 5.28174 64.7818 4.75 64.126 4.75Z" fill="#947BFB"/>
<path d="M57.001 4.75H54.626C53.9702 4.75 53.4385 5.28174 53.4385 5.93752C53.4385 6.5933 53.9702 7.12504 54.626 7.12504H57.001C57.6568 7.12504 58.1886 6.5933 58.1886 5.93752C58.1886 5.28174 57.6568 4.75 57.001 4.75Z" fill="#947BFB"/>
<path d="M38.0005 30.8758V16.6255C38.0005 15.9957 37.7503 15.3914 37.3049 14.946C36.8596 14.5007 36.2553 14.2505 35.6254 14.2505H13.0625C12.4327 14.2505 11.8284 14.5007 11.383 14.946C10.9377 15.3914 10.6875 15.9957 10.6875 16.6255V30.8758C10.6875 31.5056 10.9377 32.11 11.383 32.5553C11.8284 33.0006 12.4327 33.2508 13.0625 33.2508H35.6254C36.2553 33.2508 36.8596 33.0006 37.3049 32.5553C37.7503 32.11 38.0005 31.5056 38.0005 30.8758ZM13.0625 16.6255H35.6254V30.8758H13.0625V16.6255Z" fill="#947BFB"/>
<path d="M43.9385 17.813H64.1264C64.7821 17.813 65.3139 17.2813 65.3139 16.6255C65.3139 15.9697 64.7821 15.438 64.1264 15.438H43.9385C43.2827 15.438 42.751 15.9697 42.751 16.6255C42.751 17.2813 43.2827 17.813 43.9385 17.813Z" fill="#947BFB"/>
<path d="M43.9385 22.563H64.1264C64.7821 22.563 65.3139 22.0313 65.3139 21.3755C65.3139 20.7197 64.7821 20.188 64.1264 20.188H43.9385C43.2827 20.188 42.751 20.7197 42.751 21.3755C42.751 22.0313 43.2827 22.563 43.9385 22.563Z" fill="#947BFB"/>
<path d="M43.9385 27.313H64.1264C64.7821 27.313 65.3139 26.7813 65.3139 26.1255C65.3139 25.4697 64.7821 24.938 64.1264 24.938H43.9385C43.2827 24.938 42.751 25.4697 42.751 26.1255C42.751 26.7813 43.2827 27.313 43.9385 27.313Z" fill="#947BFB"/>
<path d="M65.3139 30.8755C65.3139 30.2197 64.7821 29.688 64.1264 29.688H43.9385C43.2827 29.688 42.751 30.2197 42.751 30.8755C42.751 31.5313 43.2827 32.063 43.9385 32.063H64.1264C64.7821 32.063 65.3139 31.5313 65.3139 30.8755Z" fill="#947BFB"/>
<path d="M7.12497 59.3761H27.6087C27.1125 58.6768 26.8145 57.8562 26.7483 57.001H8.31252V11.8752H67.6886V57.001H49.2528C49.1865 57.8561 48.8886 58.6768 48.3924 59.3761H68.8761C69.5319 59.3761 70.0636 58.8443 70.0636 57.5948V2.9688C70.0636 1.59779 68.4658 0 66.5011 0H9.50006C7.53529 0 5.9375 1.59779 5.9375 2.9688V57.5948C5.9375 58.8443 6.46924 59.3761 7.12502 59.3761H7.12497ZM8.31249 3.56256C8.31355 2.90731 8.84476 2.3761 9.50001 2.37504H66.501C67.1563 2.3761 67.6875 2.90731 67.6885 3.56256V9.50017H8.31249V3.56256Z" fill="#947BFB"/>
<path d="M36.2093 65.687C36.6605 66.2044 37.3136 66.5018 38.0001 66.5018C38.6866 66.5018 39.3398 66.2044 39.7909 65.687L46.2867 58.23C46.7028 57.7741 46.9255 57.174 46.9069 56.5575C46.8884 55.9404 46.6302 55.3546 46.1875 54.9247C45.7443 54.4953 45.1516 54.2546 44.5345 54.254H42.1563V42.7515C42.1563 42.1217 41.9061 41.5173 41.4608 41.072C41.0155 40.6267 40.4111 40.3765 39.7813 40.3765H36.2187C35.5889 40.3765 34.9846 40.6267 34.5392 41.072C34.0939 41.5173 33.8437 42.1217 33.8437 42.7515V54.254H31.4687C30.8574 54.254 30.27 54.49 29.8284 54.912C29.3862 55.334 29.1244 55.9102 29.0963 56.5205C29.0682 57.1307 29.2765 57.7287 29.6778 58.1894L36.2093 65.687ZM36.2189 56.629V42.752H39.7814V56.629H44.5315L38.0001 64.1268L31.4688 56.629H36.2189Z" fill="#947BFB"/>
</svg>
