<svg width="76" height="76" viewBox="0 0 76 76" fill="none" xmlns="http://www.w3.org/2000/svg">
<g clip-path="url(#clip0_252_66)">
<path d="M39.3656 55.2781H14.725C14.3687 55.2781 14.1312 55.5156 14.1312 55.8719C14.1312 56.2281 14.3687 56.4656 14.725 56.4656H39.3656C39.7219 56.4656 39.9594 56.2281 39.9594 55.8719C39.9594 55.5156 39.6625 55.2781 39.3656 55.2781ZM34.5563 65.7281C35.0906 65.7281 35.5656 65.3125 35.5656 64.7188C35.5656 64.1844 35.15 63.7094 34.5563 63.7094C34.0219 63.7094 33.5469 64.1844 33.5469 64.7188C33.6063 65.2531 34.0219 65.7281 34.5563 65.7281ZM38 65.7281C38.5344 65.7281 39.0094 65.3125 39.0094 64.7188C39.0094 64.1844 38.5938 63.7094 38 63.7094C37.4656 63.7094 36.9906 64.1844 36.9906 64.7188C36.9906 65.2531 37.4656 65.7281 38 65.7281ZM41.3844 65.7281C41.9187 65.7281 42.3937 65.3125 42.3937 64.7188C42.3937 64.1844 41.9781 63.7094 41.3844 63.7094C40.85 63.7094 40.375 64.1844 40.375 64.7188C40.4344 65.2531 40.85 65.7281 41.3844 65.7281ZM73.625 16.4469C73.625 14.9031 72.3781 13.7156 70.8344 13.7156H67.2125V4.63125C67.2125 2.07812 65.1344 0 62.5812 0H13.4187C10.8656 0 8.7875 2.07812 8.7875 4.63125V13.6562H5.10625C3.5625 13.7156 2.375 14.9031 2.375 16.4469V66.025C2.375 67.5687 3.62188 68.7562 5.10625 68.7562H30.1031L27.1938 74.8125H24.1062C23.75 74.8125 23.5125 75.05 23.5125 75.4062C23.5125 75.7625 23.75 76 24.1062 76H51.8937C52.25 76 52.4875 75.7625 52.4875 75.4062C52.4875 75.05 52.25 74.8125 51.8937 74.8125H48.8062L45.8969 68.8156H70.8938C72.4375 68.8156 73.6844 67.5687 73.6844 66.0844C73.625 55.6938 73.625 24.1656 73.625 16.4469ZM70.8938 14.9031C71.7844 14.9031 72.4969 15.6156 72.4969 16.4469V60.6812H67.2719V14.9031H70.8938ZM9.975 10.45H66.0844V60.6219H9.975V10.45ZM13.4187 1.1875H62.5812C64.4813 1.1875 66.025 2.73125 66.025 4.63125V9.2625H9.975V4.63125C9.975 2.73125 11.5188 1.1875 13.4187 1.1875ZM3.5625 16.4469C3.5625 15.5563 4.275 14.9031 5.10625 14.9031H8.7875V60.6812H3.5625V16.4469ZM47.5 74.8125H28.5L31.4094 68.8156H44.5312L47.5 74.8125ZM72.4375 66.025C72.4375 66.9156 71.725 67.5687 70.8344 67.5687C-14.4281 67.5687 90.3094 67.5687 5.04688 67.5687C4.15625 67.5687 3.50313 66.8562 3.50313 66.025V61.8094H72.4375V66.025ZM16.0312 7.8375C17.4563 7.8375 18.6437 6.65 18.6437 5.225C18.6437 3.8 17.4563 2.6125 16.0312 2.6125C14.6062 2.6125 13.4187 3.8 13.4187 5.225C13.4187 6.65 14.5469 7.8375 16.0312 7.8375ZM16.0312 3.8C16.8031 3.8 17.4563 4.45312 17.4563 5.225C17.4563 5.99688 16.8031 6.65 16.0312 6.65C15.2594 6.65 14.6062 5.99688 14.6062 5.225C14.6062 4.45312 15.2 3.8 16.0312 3.8ZM22.8594 7.8375C24.2844 7.8375 25.4719 6.65 25.4719 5.225C25.4719 3.8 24.2844 2.6125 22.8594 2.6125C21.4344 2.6125 20.2469 3.8 20.2469 5.225C20.2469 6.65 21.4344 7.8375 22.8594 7.8375ZM22.8594 3.8C23.6313 3.8 24.2844 4.45312 24.2844 5.225C24.2844 5.99688 23.6313 6.65 22.8594 6.65C22.0875 6.65 21.4344 5.99688 21.4344 5.225C21.4344 4.45312 22.0875 3.8 22.8594 3.8ZM29.7469 7.8375C31.1719 7.8375 32.3594 6.65 32.3594 5.225C32.3594 3.8 31.1719 2.6125 29.7469 2.6125C28.3219 2.6125 27.1344 3.8 27.1344 5.225C27.1344 6.65 28.3219 7.8375 29.7469 7.8375ZM29.7469 3.8C30.5187 3.8 31.1719 4.45312 31.1719 5.225C31.1719 5.99688 30.5187 6.65 29.7469 6.65C28.975 6.65 28.3219 5.99688 28.3219 5.225C28.3219 4.45312 28.975 3.8 29.7469 3.8ZM36.2781 5.81875H61.9875C62.3438 5.81875 62.5812 5.58125 62.5812 5.225C62.5812 4.86875 62.3438 4.63125 61.9875 4.63125H36.2781C35.9219 4.63125 35.6844 4.86875 35.6844 5.225C35.6844 5.58125 35.9813 5.81875 36.2781 5.81875ZM14.725 31.2906H25.175C25.5312 31.2906 25.7688 31.0531 25.7688 30.6969C25.7688 30.3406 25.5312 30.1031 25.175 30.1031H14.725C14.3687 30.1031 14.1312 30.3406 14.1312 30.6969C14.1312 31.0531 14.3687 31.2906 14.725 31.2906ZM39.3656 50.2906H14.725C14.3687 50.2906 14.1312 50.5281 14.1312 50.8844C14.1312 51.2406 14.3687 51.4781 14.725 51.4781H39.3656C39.7219 51.4781 39.9594 51.2406 39.9594 50.8844C39.9594 50.5281 39.6625 50.2906 39.3656 50.2906ZM39.3656 45.2437H14.725C14.3687 45.2437 14.1312 45.4812 14.1312 45.8375C14.1312 46.1937 14.3687 46.4312 14.725 46.4312H39.3656C39.7219 46.4312 39.9594 46.1937 39.9594 45.8375C39.9594 45.4812 39.6625 45.2437 39.3656 45.2437ZM39.3656 35.15H14.725C14.3687 35.15 14.1312 35.3875 14.1312 35.7438C14.1312 36.1 14.3687 36.3375 14.725 36.3375H39.3656C39.7219 36.3375 39.9594 36.1 39.9594 35.7438C39.9594 35.3875 39.6625 35.15 39.3656 35.15ZM39.3656 40.1969H14.725C14.3687 40.1969 14.1312 40.4344 14.1312 40.7906C14.1312 41.1469 14.3687 41.3844 14.725 41.3844H39.3656C39.7219 41.3844 39.9594 41.1469 39.9594 40.7906C39.9594 40.4344 39.6625 40.1969 39.3656 40.1969ZM61.275 30.1031H44.65C44.2937 30.1031 44.0562 30.3406 44.0562 30.6969V55.9312C44.0562 56.2875 44.2937 56.525 44.65 56.525H61.275C61.6312 56.525 61.8687 56.2875 61.8687 55.9312V30.6969C61.8687 30.3406 61.6312 30.1031 61.275 30.1031ZM60.6812 55.2781H45.2437V31.2906H60.6812V55.2781ZM61.275 14.6062H14.725C14.3687 14.6062 14.1312 14.8438 14.1312 15.2V25.3531C14.1312 25.7094 14.3687 25.9469 14.725 25.9469H61.3344C61.6906 25.9469 61.9281 25.7094 61.9281 25.3531V15.2C61.8688 14.9031 61.6312 14.6062 61.275 14.6062ZM60.6812 24.7594H15.3187V15.7937H60.7406V24.7594H60.6812Z" fill="#947BFB"/>
</g>
<defs>
<clipPath id="clip0_252_66">
<rect width="76" height="76" fill="white"/>
</clipPath>
</defs>
</svg>
