<svg width="77" height="76" viewBox="0 0 77 76" fill="none" xmlns="http://www.w3.org/2000/svg">
<path d="M46.833 61.5334H15.2054C14.6151 61.5334 14.1082 61.1127 14.0002 60.5319L9.66326 37.2206C9.5969 36.8621 9.69267 36.4934 9.92593 36.213C10.1592 35.9325 10.5046 35.7704 10.8685 35.7704H51.1696C51.5342 35.7704 51.8796 35.9325 52.1122 36.213C52.3447 36.4928 52.4412 36.8628 52.3748 37.2206L48.0372 60.5302C47.9298 61.1116 47.423 61.533 46.8326 61.533L46.833 61.5334ZM16.2246 59.0818H45.8138L49.6951 38.222H12.343L16.2246 59.0818Z" fill="#947BFB"/>
<path d="M23.611 73.7774C20.7305 73.7774 18.3869 71.4339 18.3869 68.5534C18.3869 65.6729 20.7305 63.3293 23.611 63.3293C26.4914 63.3293 28.835 65.6729 28.835 68.5534C28.835 71.4339 26.4914 73.7774 23.611 73.7774ZM23.611 65.781C22.0821 65.781 20.8386 67.0246 20.8386 68.5534C20.8386 70.0822 22.0821 71.3258 23.611 71.3258C25.1398 71.3258 26.3834 70.0822 26.3834 68.5534C26.3834 67.0246 25.1398 65.781 23.611 65.781Z" fill="#947BFB"/>
<path d="M38.4275 73.7774C35.5477 73.7774 33.2041 71.4339 33.2041 68.5534C33.2041 65.6729 35.5477 63.3293 38.4275 63.3293C41.3079 63.3293 43.6515 65.6729 43.6515 68.5534C43.6515 71.4339 41.3079 73.7774 38.4275 73.7774ZM38.4275 65.781C36.8993 65.781 35.6558 67.0246 35.6558 68.5534C35.6558 70.0822 36.8993 71.3258 38.4275 71.3258C39.9563 71.3258 41.1999 70.0822 41.1999 68.5534C41.1999 67.0246 39.9563 65.781 38.4275 65.781Z" fill="#947BFB"/>
<path d="M10.8678 38.222C10.2891 38.222 9.77337 37.8102 9.66392 37.2206L8.65016 31.7729H1.56272C0.885515 31.7729 0.336914 31.2243 0.336914 30.5471C0.336914 29.8699 0.885515 29.3213 1.56272 29.3213H9.66933C10.2597 29.3213 10.7665 29.742 10.8746 30.3228L12.0744 36.7719C12.1982 37.4375 11.7591 38.077 11.0935 38.2009C11.0176 38.2152 10.9424 38.222 10.8678 38.222Z" fill="#947BFB"/>
<path d="M69.1479 55.5689H47.9397C47.5751 55.5689 47.2297 55.4068 46.9971 55.1264C46.7646 54.8459 46.6681 54.4765 46.7345 54.1188L49.6956 38.2209H20.8979C20.2207 38.2209 19.6721 37.6723 19.6721 36.9951V28.1909C19.6721 27.7921 19.8657 27.4179 20.1927 27.188C20.519 26.9589 20.9369 26.9014 21.3118 27.0369C21.9213 27.2558 22.5663 27.3666 23.2291 27.3666C26.018 27.3666 28.4586 25.3862 29.0339 22.6583C29.1536 22.0912 29.6536 21.6855 30.233 21.6855H30.235C30.8151 21.6862 31.3158 22.0946 31.4335 22.663C31.9978 25.3882 34.4302 27.3672 37.2158 27.3672C40.0068 27.3672 42.4426 25.3799 43.009 22.6418C43.1266 22.0727 43.628 21.6644 44.2095 21.6644C44.7909 21.6644 45.2923 22.0727 45.41 22.6418C45.9757 25.3801 48.4123 27.3672 51.2031 27.3672C53.9852 27.3672 56.4217 25.3868 56.997 22.6588C57.1167 22.0918 57.6168 21.6861 58.1961 21.6861H58.1982C58.7783 21.6868 59.279 22.0945 59.3966 22.6629C59.9617 25.3888 62.3983 27.3678 65.1898 27.3678C66.3547 27.3678 67.4882 27.023 68.4678 26.3704C68.8433 26.1187 69.3276 26.0954 69.7264 26.3095C70.1245 26.523 70.3735 26.9382 70.3735 27.3903L70.3728 54.3423C70.3728 55.0195 69.8242 55.5681 69.147 55.5681L69.1479 55.5689ZM49.416 53.1173H67.9221V29.3577C67.0479 29.6621 66.1265 29.8181 65.1907 29.8181C62.317 29.8181 59.7087 28.3343 58.1943 26.038C56.6757 28.3343 54.0695 29.8181 51.2041 29.8181C48.3318 29.8181 45.7256 28.3309 44.2103 26.0305C42.6945 28.331 40.089 29.8181 37.2166 29.8181C34.3469 29.8181 31.7428 28.3343 30.2298 26.038C28.7092 28.3336 26.0995 29.8181 23.2299 29.8181C22.8571 29.8181 22.4884 29.7934 22.1245 29.7442V35.7692H51.1709C51.5355 35.7692 51.8809 35.9313 52.1135 36.2118C52.3461 36.4915 52.4425 36.8616 52.3762 37.2193L49.416 53.1173Z" fill="#947BFB"/>
<path d="M75.1106 22.684H13.3089C12.8684 22.684 12.4614 22.4474 12.2432 22.0643C12.025 21.6819 12.0298 21.2113 12.2548 20.8323L23.0969 2.57306C23.3179 2.20094 23.7187 1.97314 24.151 1.97314H64.2682C64.7005 1.97314 65.1013 2.20094 65.3223 2.57306L76.1651 20.8323C76.3901 21.2113 76.3942 21.6819 76.1767 22.0643C75.9585 22.4474 75.5515 22.6834 75.111 22.6834L75.1106 22.684ZM15.4629 20.2324H72.9585L63.5719 4.42478H24.8504L15.4629 20.2324Z" fill="#947BFB"/>
<path d="M65.1903 29.8182C62.3167 29.8182 59.7084 28.3345 58.194 26.0382C56.6754 28.3345 54.0691 29.8182 51.2037 29.8182C48.3315 29.8182 45.7252 28.3311 44.21 26.0307C42.6941 28.3312 40.0886 29.8182 37.2162 29.8182C34.3466 29.8182 31.7424 28.3345 30.2295 26.0382C28.7088 28.3338 26.0992 29.8182 23.2296 29.8182C22.2835 29.8182 21.36 29.6589 20.4845 29.3449C17.1314 28.1888 14.8692 25.0169 14.8692 21.4579C14.8692 20.7807 15.4178 20.2321 16.095 20.2321H72.3245C73.0017 20.2321 73.5503 20.7807 73.5503 21.4579C73.5503 24.2562 72.1583 26.8542 69.8277 28.4084C68.4439 29.3305 66.8404 29.8182 65.19 29.8182L65.1903 29.8182ZM59.4012 22.6837C59.9751 25.398 62.4055 27.3659 65.1896 27.3659C66.3546 27.3659 67.4887 27.0212 68.4676 26.3686C69.768 25.5019 70.6545 24.1756 70.9705 22.6836L59.4012 22.6837ZM45.4193 22.6837C46.0014 25.3994 48.4271 27.3659 51.2035 27.3659C53.9767 27.3659 56.4071 25.3987 56.992 22.6837H45.4193ZM31.4388 22.6837C32.0127 25.398 34.4384 27.3659 37.2162 27.3659C39.9927 27.3659 42.4177 25.3994 42.9997 22.6837H31.4388ZM17.4494 22.6837C17.8735 24.677 19.3147 26.3475 21.2979 27.0322C21.921 27.2558 22.5661 27.3667 23.2296 27.3667C26.0095 27.3667 28.444 25.3994 29.0289 22.6844L17.4494 22.6837Z" fill="#947BFB"/>
</svg>
