<svg width="131" height="98" viewBox="0 0 131 98" fill="none" xmlns="http://www.w3.org/2000/svg">
<path d="M18.078 80.9542L18.6125 80.1091H18.6125L18.078 80.9542ZM7.56525 68.7712L6.65794 69.1917L6.66105 69.1984L6.66425 69.2051L7.56525 68.7712ZM7.56525 30.552L6.66217 30.1225L6.65993 30.1273L7.56525 30.552ZM18.078 18.2707L18.6125 19.1159L18.078 18.2707ZM48.5355 18.2707L48.001 19.1159L48.5355 18.2707ZM58.95 30.552L58.0427 30.9725L58.0458 30.9792L58.049 30.9858L58.95 30.552ZM58.95 68.7712L58.0469 68.3417L58.0447 68.3465L58.95 68.7712ZM48.5355 80.9542L48.001 80.1091L48.5355 80.9542ZM43.1318 66.315L42.302 65.7568L42.295 65.7673L43.1318 66.315ZM43.1318 32.91L42.295 33.4577L42.302 33.4682L43.1318 32.91ZM23.4818 32.91L22.652 32.3518L22.6451 32.3623L23.4818 32.91ZM23.4818 66.315L22.645 66.8627L22.652 66.8732L23.4818 66.315ZM33.3068 84.179C27.7814 84.179 22.8935 82.8162 18.6125 80.1091L17.5435 81.7994C22.1705 84.7253 27.4351 86.179 33.3068 86.179V84.179ZM18.6125 80.1091C14.3349 77.4041 10.9493 73.4946 8.46625 68.3374L6.66425 69.2051C9.29017 74.6589 12.9131 78.8714 17.5435 81.7994L18.6125 80.1091ZM8.47256 68.3508C6.05791 63.1402 4.83175 56.9041 4.83175 49.6125H2.83175C2.83175 57.1239 4.09459 63.6603 6.65794 69.1917L8.47256 68.3508ZM4.83175 49.6125C4.83175 42.3204 6.05808 36.1191 8.47058 30.9767L6.65993 30.1273C4.09442 35.5959 2.83175 42.1016 2.83175 49.6125H4.83175ZM8.46832 30.9815C10.9524 25.7585 14.338 21.8189 18.6125 19.1159L17.5435 17.4256C12.91 20.3556 9.2871 24.6034 6.66219 30.1225L8.46832 30.9815ZM18.6125 19.1159C22.8935 16.4088 27.7814 15.046 33.3068 15.046V13.046C27.4351 13.046 22.1705 14.4997 17.5435 17.4256L18.6125 19.1159ZM33.3068 15.046C38.8321 15.046 43.72 16.4088 48.001 19.1159L49.07 17.4256C44.443 14.4997 39.1784 13.046 33.3068 13.046V15.046ZM48.001 19.1159C52.273 21.8173 55.6243 25.7537 58.0427 30.9725L59.8573 30.1315C57.2977 24.6083 53.706 20.3572 49.07 17.4256L48.001 19.1159ZM58.049 30.9858C60.5238 36.1258 61.7818 42.3237 61.7818 49.6125H63.7818C63.7818 42.0983 62.4852 35.5892 59.851 30.1182L58.049 30.9858ZM61.7818 49.6125C61.7818 56.9008 60.524 63.1336 58.0469 68.3417L59.8531 69.2008C62.485 63.6669 63.7818 57.1272 63.7818 49.6125H61.7818ZM58.0447 68.3465C55.6273 73.4994 52.2761 77.4057 48.001 80.1091L49.07 81.7994C53.7029 78.8698 57.2947 74.6541 59.8553 69.196L58.0447 68.3465ZM48.001 80.1091C43.72 82.8162 38.8321 84.179 33.3068 84.179V86.179C39.1784 86.179 44.443 84.7253 49.07 81.7994L48.001 80.1091ZM33.3068 72.7188C37.847 72.7188 41.4317 70.7382 43.9685 66.8627L42.295 65.7673C40.1158 69.0968 37.1505 70.7188 33.3068 70.7188V72.7188ZM43.9615 66.8732C46.551 63.0239 47.767 57.2147 47.767 49.6125H45.767C45.767 57.0753 44.5595 62.4011 42.302 65.7568L43.9615 66.8732ZM47.767 49.6125C47.767 42.0103 46.551 36.2011 43.9615 32.3518L42.302 33.4682C44.5595 36.8239 45.767 42.1497 45.767 49.6125H47.767ZM43.9685 32.3623C41.4317 28.4868 37.847 26.5062 33.3068 26.5062V28.5062C37.1505 28.5062 40.1158 30.1282 42.295 33.4577L43.9685 32.3623ZM33.3068 26.5062C28.8272 26.5062 25.2498 28.4903 22.652 32.3518L24.3115 33.4682C26.5607 30.1247 29.5333 28.5062 33.3068 28.5062V26.5062ZM22.6451 32.3623C20.1272 36.2091 18.9448 42.0135 18.9448 49.6125H20.9448C20.9448 42.1465 22.1203 36.8159 24.3185 33.4577L22.6451 32.3623ZM18.9448 49.6125C18.9448 57.2115 20.1272 63.0159 22.6451 66.8627L24.3185 65.7673C22.1203 62.4091 20.9448 57.0785 20.9448 49.6125H18.9448ZM22.652 66.8732C25.2498 70.7347 28.8272 72.7188 33.3068 72.7188V70.7188C29.5333 70.7188 26.5607 69.1003 24.3115 65.7568L22.652 66.8732ZM96.4669 15.225H97.4669V14.225H96.4669V15.225ZM96.4669 84V85H97.4669V84H96.4669ZM80.5504 84H79.5504V85H80.5504V84ZM80.5504 27.9975H81.5504V26.9975H80.5504V27.9975ZM66.7954 27.9975H65.7954V28.9975H66.7954V27.9975ZM66.7954 15.225V14.225H65.7954V15.225H66.7954ZM95.4669 15.225V84H97.4669V15.225H95.4669ZM96.4669 83H80.5504V85H96.4669V83ZM81.5504 84V27.9975H79.5504V84H81.5504ZM80.5504 26.9975H66.7954V28.9975H80.5504V26.9975ZM67.7954 27.9975V15.225H65.7954V27.9975H67.7954ZM66.7954 16.225H96.4669V14.225H66.7954V16.225ZM110.674 82.035L111.381 81.3279L110.674 82.035ZM110.674 68.3783L111.354 69.111L111.361 69.1046L111.368 69.0981L110.674 68.3783ZM124.233 68.3783L123.538 69.0981L123.545 69.1046L123.552 69.111L124.233 68.3783ZM124.233 82.035L123.525 81.3279L124.233 82.035ZM117.453 83.786C115.022 83.786 113.02 82.9671 111.381 81.3279L109.967 82.7421C111.996 84.7709 114.513 85.786 117.453 85.786V83.786ZM111.381 81.3279C109.747 79.6937 108.923 77.6611 108.923 75.1575H106.923C106.923 78.1559 107.933 80.7083 109.967 82.7421L111.381 81.3279ZM108.923 75.1575C108.923 72.5806 109.751 70.6001 111.354 69.111L109.994 67.6455C107.929 69.5624 106.923 72.1014 106.923 75.1575H108.923ZM111.368 69.0981C113.005 67.5198 115.011 66.7255 117.453 66.7255V64.7255C114.524 64.7255 112.011 65.6997 109.98 67.6584L111.368 69.0981ZM117.453 66.7255C119.895 66.7255 121.902 67.5198 123.538 69.0981L124.927 67.6584C122.895 65.6997 120.382 64.7255 117.453 64.7255V66.7255ZM123.552 69.111C125.156 70.6001 125.984 72.5806 125.984 75.1575H127.984C127.984 72.1014 126.977 69.5624 124.913 67.6455L123.552 69.111ZM125.984 75.1575C125.984 77.6611 125.16 79.6937 123.525 81.3279L124.94 82.7421C126.973 80.7083 127.984 78.1559 127.984 75.1575H125.984ZM123.525 81.3279C121.886 82.9671 119.884 83.786 117.453 83.786V85.786C120.394 85.786 122.911 84.7709 124.94 82.7421L123.525 81.3279Z" fill="#8468F6"/>
</svg>
