<svg width="70" height="70" viewBox="0 0 70 70" fill="none" xmlns="http://www.w3.org/2000/svg">
<path d="M44.3539 39.0553C43.8418 38.8001 41.3476 37.5802 40.8831 37.4118C40.4186 37.2399 40.0783 37.1566 39.738 37.667C39.4029 38.1689 38.4263 39.3071 38.1319 39.644C37.8342 39.9758 37.5381 40.0013 37.0328 39.7716C36.5224 39.5164 34.884 38.9804 32.9444 37.245C31.4336 35.8924 30.4195 34.2336 30.1201 33.7232C29.824 33.2127 30.0878 32.932 30.3413 32.6768C30.5727 32.4471 30.8534 32.0898 31.1086 31.787C31.357 31.479 31.4387 31.2749 31.6139 30.9431C31.784 30.5858 31.6973 30.3051 31.5714 30.0516C31.4438 29.7964 30.428 27.2953 30.0027 26.2983C29.5944 25.3047 29.1741 25.4306 28.8594 25.4306C28.5667 25.4051 28.2281 25.4051 27.8879 25.4051C27.5476 25.4051 26.998 25.531 26.5319 26.0159C26.0674 26.5263 24.7539 27.7513 24.7539 30.2268C24.7539 32.7023 26.5744 35.1013 26.8279 35.4586C27.0814 35.7903 30.4093 40.8945 35.505 43.0893C36.7198 43.5997 37.6657 43.906 38.4042 44.1595C39.6189 44.5457 40.7265 44.4912 41.6028 44.3653C42.5794 44.2105 44.6091 43.1386 45.0328 41.9392C45.4666 40.7397 45.4666 39.7444 45.339 39.5147C45.2131 39.285 44.8796 39.1574 44.3692 38.9277L44.3539 39.0553ZM35.1035 51.5911H35.0762C32.0648 51.5911 29.0805 50.7745 26.4757 49.2432L25.8632 48.8791L19.483 50.538L21.1929 44.3364L20.7863 43.6984C19.1019 41.017 18.207 37.929 18.207 34.7491C18.207 25.485 25.7867 17.9309 35.1222 17.9309C39.6377 17.9309 43.8758 19.6918 47.0676 22.8819C50.2577 26.0448 52.017 30.2829 52.017 34.7746C52.0102 44.037 44.4288 51.5928 35.1137 51.5928L35.1035 51.5911ZM49.4955 20.454C45.6163 16.7042 40.5122 14.5859 35.0762 14.5859C23.8777 14.5859 14.76 23.6611 14.7548 34.8206C14.7548 38.3867 15.6889 41.8643 17.4686 44.9353L14.583 55.4193L25.3613 52.6086C28.3319 54.213 31.6735 55.0654 35.0762 55.0705H35.0864C46.2901 55.0705 55.4112 45.9919 55.4163 34.8308C55.4163 29.4272 53.3066 24.3417 49.47 20.5204" fill="white"/>
</svg>
