<svg width="60" height="60" viewBox="0 0 60 60" fill="none" xmlns="http://www.w3.org/2000/svg">
<path d="M57.1876 12.311V14.3224C57.4718 14.4857 57.7083 14.7209 57.8728 15.0042C58.0372 15.288 58.1243 15.6098 58.1251 15.9375V52.5001C58.1251 52.9973 57.9276 53.4745 57.576 53.826C57.2245 54.1776 56.7473 54.3751 56.2501 54.3751H3.74998C3.25277 54.3751 2.77564 54.1776 2.42408 53.826C2.07252 53.4745 1.87497 52.9973 1.87497 52.5001V15.9375C1.87581 15.6098 1.96286 15.288 2.12735 15.0042C2.29184 14.7209 2.5283 14.4857 2.81248 14.3224V12.311C2.00848 12.519 1.29619 12.9882 0.787256 13.6444C0.278326 14.3007 0.00168215 15.1071 0 15.9375V52.5001C0.00125561 53.4945 0.396762 54.4476 1.0995 55.1506C1.80263 55.8533 2.75562 56.2488 3.75001 56.2501H22.0308V58.1251H17.3433C16.8255 58.1251 16.4058 58.5449 16.4058 59.0626C16.4058 59.5804 16.8255 60.0001 17.3433 60.0001H42.6558C43.1736 60.0001 43.5933 59.5804 43.5933 59.0626C43.5933 58.5449 43.1736 58.1251 42.6558 58.1251H37.9683V56.2501H56.2491C57.2435 56.2489 58.1965 55.8534 58.8996 55.1506C59.6023 54.4475 59.9978 53.4945 59.9991 52.5001V15.9375C59.9974 15.1071 59.7208 14.3007 59.2118 13.6444C58.7029 12.9882 57.9906 12.519 57.1866 12.311H57.1876ZM36.0933 58.1255H23.9058V56.2505H36.0933V58.1255Z" fill="#947BFB"/>
<path d="M50.625 3.75H48.75C48.2323 3.75 47.8125 4.16979 47.8125 4.6875C47.8125 5.20522 48.2323 5.62501 48.75 5.62501H50.625C51.1427 5.62501 51.5625 5.20522 51.5625 4.6875C51.5625 4.16979 51.1427 3.75 50.625 3.75Z" fill="#947BFB"/>
<path d="M45 3.75H43.125C42.6073 3.75 42.1875 4.16979 42.1875 4.6875C42.1875 5.20522 42.6073 5.62501 43.125 5.62501H45C45.5177 5.62501 45.9375 5.20522 45.9375 4.6875C45.9375 4.16979 45.5177 3.75 45 3.75Z" fill="#947BFB"/>
<path d="M30.0001 24.375V13.125C30.0001 12.6278 29.8025 12.1507 29.451 11.7991C29.0994 11.4476 28.6223 11.25 28.1251 11.25H10.3125C9.8153 11.25 9.33817 11.4476 8.98661 11.7991C8.63505 12.1507 8.4375 12.6278 8.4375 13.125V24.375C8.4375 24.8722 8.63505 25.3494 8.98661 25.7009C9.33817 26.0525 9.8153 26.25 10.3125 26.25H28.1251C28.6223 26.25 29.0994 26.0525 29.451 25.7009C29.8025 25.3494 30.0001 24.8722 30.0001 24.375ZM10.3125 13.125H28.1251V24.375H10.3125V13.125Z" fill="#947BFB"/>
<path d="M34.6875 14.0625H50.625C51.1428 14.0625 51.5625 13.6427 51.5625 13.125C51.5625 12.6073 51.1428 12.1875 50.625 12.1875H34.6875C34.1698 12.1875 33.75 12.6073 33.75 13.125C33.75 13.6427 34.1698 14.0625 34.6875 14.0625Z" fill="#947BFB"/>
<path d="M34.6875 17.8125H50.625C51.1428 17.8125 51.5625 17.3927 51.5625 16.875C51.5625 16.3573 51.1428 15.9375 50.625 15.9375H34.6875C34.1698 15.9375 33.75 16.3573 33.75 16.875C33.75 17.3927 34.1698 17.8125 34.6875 17.8125Z" fill="#947BFB"/>
<path d="M34.6875 21.5625H50.625C51.1428 21.5625 51.5625 21.1427 51.5625 20.625C51.5625 20.1073 51.1428 19.6875 50.625 19.6875H34.6875C34.1698 19.6875 33.75 20.1073 33.75 20.625C33.75 21.1427 34.1698 21.5625 34.6875 21.5625Z" fill="#947BFB"/>
<path d="M51.5625 24.375C51.5625 23.8573 51.1428 23.4375 50.625 23.4375H34.6875C34.1698 23.4375 33.75 23.8573 33.75 24.375C33.75 24.8927 34.1698 25.3125 34.6875 25.3125H50.625C51.1428 25.3125 51.5625 24.8927 51.5625 24.375Z" fill="#947BFB"/>
<path d="M5.62496 46.8751H21.7961C21.4043 46.3231 21.1691 45.6752 21.1168 45.0001H6.56248V9.37503H53.4376V45.0001H38.8833C38.831 45.6752 38.5958 46.3231 38.204 46.8751H54.3751C54.8929 46.8751 55.3126 46.4553 55.3126 45.4689V2.34376C55.3126 1.2614 54.0513 0 52.5001 0H7.50001C5.9489 0 4.6875 1.2614 4.6875 2.34376V45.4689C4.6875 46.4553 5.10729 46.8751 5.625 46.8751H5.62496ZM6.56246 2.81251C6.5633 2.29521 6.98267 1.87584 7.49997 1.87501H52.5001C53.0174 1.87584 53.4368 2.29521 53.4376 2.81251V7.50002H6.56246V2.81251Z" fill="#947BFB"/>
<path d="M28.5862 51.8572C28.9424 52.2657 29.458 52.5005 30 52.5005C30.5419 52.5005 31.0576 52.2657 31.4137 51.8572L36.5419 45.9702C36.8705 45.6103 37.0462 45.1365 37.0316 44.6498C37.0169 44.1626 36.8131 43.7001 36.4636 43.3607C36.1138 43.0217 35.6458 42.8317 35.1586 42.8313H33.2812V33.7505C33.2812 33.2533 33.0836 32.7762 32.7321 32.4246C32.3805 32.073 31.9034 31.8755 31.4062 31.8755H28.5937C28.0965 31.8755 27.6193 32.073 27.2678 32.4246C26.9162 32.7762 26.7187 33.2533 26.7187 33.7505V42.8313H24.8436C24.3611 42.8313 23.8974 43.0176 23.5487 43.3507C23.1997 43.6839 22.9929 44.1388 22.9707 44.6206C22.9486 45.1023 23.113 45.5744 23.4299 45.9381L28.5862 51.8572ZM28.5937 44.7062V33.7509H31.4063V44.7062H35.1563L30 50.6255L24.8437 44.7062H28.5937Z" fill="#947BFB"/>
</svg>
