<svg width="76" height="76" viewBox="0 0 76 76" fill="none" xmlns="http://www.w3.org/2000/svg">
<path d="M38.001 28.3872C32.7762 28.3872 28.501 32.6624 28.501 37.8873C28.501 43.1121 32.7762 47.3873 38.001 47.3873C43.2259 47.3873 47.5011 43.1121 47.5011 37.8873C47.5011 32.6624 43.2259 28.3872 38.001 28.3872ZM38.001 45.0126C34.0823 45.0126 30.8759 41.8062 30.8759 37.8874C30.8759 33.9686 34.0823 30.7623 38.001 30.7623C41.9198 30.7623 45.1262 33.9686 45.1262 37.8874C45.1262 41.8062 41.9198 45.0126 38.001 45.0126Z" fill="#947BFB"/>
<path d="M64.3629 39.0741H67.8066C68.2816 40.8553 69.9441 42.0427 71.844 42.0427C74.2189 42.0427 76 40.1429 76 37.8867C76 35.6304 74.1002 33.7307 71.844 33.7307C69.9442 33.7307 68.4004 35.0367 67.8066 36.6993H64.3629V17.3434H67.8066C68.2816 19.1246 69.9441 20.312 71.844 20.312C74.2189 20.312 76 18.4122 76 16.156C76 13.8998 74.1002 12 71.844 12C69.9442 12 68.4004 13.3061 67.8066 14.9686H63.1754C62.4631 14.9686 61.988 15.4437 61.988 16.156V36.7002H57.3568V35.3941C57.3568 34.6818 56.8817 34.2067 56.1694 34.2067H53.5567C53.2002 32.5441 52.4879 31.0003 51.6569 29.4568L53.4381 27.6756C53.9132 27.2005 53.9132 26.4882 53.4381 26.0131L49.8759 22.4508C49.4008 21.9757 48.6884 21.9757 48.2133 22.4508L46.4321 24.232C45.0068 23.2818 43.3444 22.6882 41.6823 22.213V19.6003C41.6823 18.888 41.2072 18.4129 40.4948 18.4129H35.3887C34.6763 18.4129 34.2012 18.8879 34.2012 19.6003V22.213C32.5387 22.5695 30.9948 23.2818 29.4514 24.1128L27.6702 22.3315C27.1951 21.8565 26.4828 21.8565 26.0077 22.3315L22.4454 25.8938C21.9703 26.3689 21.9703 27.0813 22.4454 27.5564L24.2266 29.3376C23.2764 30.7629 22.6827 32.4253 22.3268 34.0874H19.7141C19.0018 34.0874 18.5267 34.5625 18.5267 35.2749L18.525 36.7002H14.0126V16.156C14.0126 15.4437 13.5375 14.9686 12.8251 14.9686H8.194C7.71892 13.1874 6.05645 12 4.15655 12C1.78164 12 0.000559516 13.8998 0.000559516 16.156C0.000559516 18.4122 1.90032 20.312 4.15655 20.312C6.05631 20.312 7.60017 19.0059 8.194 17.3434H11.6376V36.6993H8.194C7.71892 34.9181 6.05645 33.7307 4.15655 33.7307C1.90032 33.7307 0 35.5119 0 37.8867C0 40.2614 1.89976 42.0427 4.15599 42.0427C6.05575 42.0427 7.59961 40.7366 8.19344 39.0741H11.6371V58.43H8.19386C7.71878 56.6487 6.05631 55.4613 4.15641 55.4613C1.7815 55.4613 0.000419637 57.3611 0.000419637 59.6173C0.000419637 61.9923 1.90018 63.7733 4.15641 63.7733C6.05617 63.7733 7.60003 62.4673 8.19386 60.8047H12.825C13.5373 60.8047 14.0124 60.3296 14.0124 59.6173V39.0732H18.5249V40.3792C18.5249 41.0916 19 41.5667 19.7123 41.5667H22.325C22.6815 43.2292 23.3938 44.7731 24.2248 46.3165L22.4436 48.0977C22.2063 48.335 22.0871 48.5728 22.0871 48.9287C22.0871 49.2851 22.2058 49.5224 22.4436 49.7597L26.0059 53.322C26.481 53.7971 27.1933 53.7971 27.6684 53.322L29.4496 51.5408C30.8749 52.4909 32.5373 53.0846 34.1995 53.4405V56.0532C34.1995 56.7656 34.6745 57.2407 35.3869 57.2407H40.493C41.2054 57.2407 41.6805 56.7656 41.6805 56.0532V53.4405C43.343 53.0841 44.8869 52.3717 46.4303 51.5408L48.2115 53.322C48.6866 53.7971 49.399 53.7971 49.8741 53.322L53.4364 49.7597C53.9114 49.2846 53.9114 48.5722 53.4364 48.0971L51.6552 46.3159C52.6053 44.8906 53.199 43.2282 53.5549 41.5661H56.1676C56.88 41.5661 57.355 41.091 57.355 40.3787L57.3567 39.0731H61.9878V59.6173C61.9878 60.3296 62.4629 60.8047 63.1753 60.8047H67.8064C68.2815 62.5859 69.944 63.7733 71.8439 63.7733C74.2188 63.7733 75.9999 61.8736 75.9999 59.6173C75.9999 57.2424 74.1001 55.4613 71.8439 55.4613C69.9441 55.4613 68.4002 56.7674 67.8064 58.4299H64.3628L64.3629 39.0741ZM71.844 36.1054C72.9128 36.1054 73.6252 36.9364 73.6252 37.8867C73.6252 38.9555 72.7942 39.6679 71.844 39.6679C70.7752 39.6679 70.0628 38.8369 70.0628 37.8867C69.9441 36.8179 70.7757 36.1054 71.844 36.1054ZM71.844 14.2555C72.9128 14.2555 73.6252 15.0865 73.6252 16.0367C73.6252 17.1055 72.7942 17.818 71.844 17.818C70.7752 17.818 70.0628 16.987 70.0628 16.0367C69.9441 15.0866 70.7757 14.2555 71.844 14.2555ZM4.15713 17.9365C3.08833 17.9365 2.37591 17.1055 2.37591 16.1553C2.37591 15.0865 3.2069 14.3741 4.15713 14.3741C5.1073 14.3741 5.93835 15.2051 5.93835 16.1553C6.05698 17.1055 5.22544 17.9365 4.15713 17.9365ZM4.15713 61.5174C3.08833 61.5174 2.37591 60.6864 2.37591 59.7362C2.37591 58.6674 3.2069 57.9549 4.15713 57.9549C5.1073 57.9549 5.93835 58.7859 5.93835 59.7362C6.05698 60.6863 5.22544 61.5174 4.15713 61.5174ZM4.15713 39.6675C3.20695 39.6675 2.37549 38.9551 2.37549 37.8862C2.37549 36.8174 3.20648 36.105 4.15671 36.105C5.10688 36.105 5.93793 36.936 5.93793 37.8862C6.05711 38.955 5.22558 39.6675 4.15727 39.6675H4.15713ZM55.1011 39.1924H52.7262C52.1324 39.1924 51.6574 39.6675 51.5387 40.1426C51.1823 42.1616 50.3513 44.0613 49.2825 45.7239C48.926 46.1989 49.0452 46.7927 49.4011 47.2677L51.0637 48.9303L49.0447 50.9487L47.3821 49.2862C47.0257 48.9297 46.3133 48.8111 45.8383 49.1675C44.1757 50.355 42.276 51.1865 40.257 51.4238C39.6632 51.5424 39.3068 52.0175 39.3068 52.6112V54.9861H36.5754V52.6112C36.5754 52.0175 36.1003 51.5424 35.6252 51.4238C33.6062 51.0673 31.7065 50.3549 30.0439 49.1675C29.5689 48.8111 28.9751 48.9303 28.5001 49.2862L26.8381 50.9487L24.9383 48.9303L26.6009 47.2677C26.9573 46.9113 27.076 46.1989 26.7195 45.7239C25.5321 44.0613 24.7005 42.1616 24.4633 40.1426C24.3447 39.5488 23.8696 39.1924 23.2758 39.1924H20.9009V36.461H23.2758C23.8696 36.461 24.3447 35.9859 24.4633 35.5108C24.8197 33.4918 25.5321 31.5921 26.7195 29.9295C27.076 29.4544 26.9568 28.8607 26.6009 28.3857L24.9383 26.7237L26.8381 24.8239L28.5006 26.4865C28.8571 26.8429 29.5694 26.9616 30.0445 26.6051C31.707 25.4177 33.6068 24.5861 35.6258 24.3489C36.2195 24.2302 36.576 23.7552 36.576 23.1614V20.7865H39.3074V23.1614C39.3074 23.7552 39.7824 24.2302 40.2575 24.3489C42.2765 24.7053 44.1763 25.4177 45.8388 26.6051C46.3139 26.9616 46.9076 26.8424 47.3827 26.4865L49.0452 24.8239L50.945 26.7237L49.2824 28.3862C48.926 28.7427 48.8074 29.455 49.1638 29.9301C50.3512 31.5926 51.1828 33.4924 51.42 35.5114C51.5387 36.1051 52.0138 36.4616 52.6075 36.4616H54.9824L54.9818 39.1924H55.1011ZM71.844 57.8359C72.9128 57.8359 73.6252 58.6669 73.6252 59.6171C73.6252 60.6859 72.7942 61.3983 71.844 61.3983C70.7752 61.3983 70.0628 60.5674 70.0628 59.6171C69.9441 58.667 70.7757 57.8359 71.844 57.8359Z" fill="#947BFB"/>
</svg>
