<svg width="80" height="80" viewBox="0 0 80 80" fill="none" xmlns="http://www.w3.org/2000/svg">
<path d="M29.5994 1.6001C21.2794 1.6001 14.3994 8.3201 14.3994 16.6401C14.3994 24.9601 21.1194 34.8801 29.5994 34.8801C38.0794 34.8801 44.7994 24.9601 44.7994 16.6401C44.9594 8.3201 38.0794 1.6001 29.5994 1.6001ZM29.5994 31.6801C23.1994 31.6801 17.5994 23.3601 17.5994 16.6401C17.5994 10.0801 23.0394 4.8001 29.5994 4.8001C36.1594 4.8001 41.5994 10.0801 41.5994 16.6401C41.7594 23.3601 36.1594 31.6801 29.5994 31.6801Z" fill="#947BFB"/>
<path d="M1.59961 76.8C1.59961 77.76 2.23961 78.4 3.19961 78.4H56.1596C57.1196 78.4 57.7596 77.76 57.7596 76.8V73.28C58.3996 73.28 59.0396 73.44 59.6796 73.44C70.0796 73.44 78.3996 64.96 78.3996 54.72C78.3996 44.48 69.9196 36 59.6796 36C55.9996 36 52.4796 37.12 49.5996 39.04C47.6796 38.24 45.7596 37.76 43.6796 37.76H15.6796C7.99961 37.76 1.59961 44 1.59961 51.68V76.8ZM59.6796 39.04C68.3196 39.04 75.1996 46.08 75.1996 54.56C75.1996 63.04 68.1596 70.08 59.6796 70.08C51.0396 70.08 44.1596 63.04 44.1596 54.56C44.1596 46.08 51.0396 39.04 59.6796 39.04ZM37.5996 40.8C37.2796 41.12 35.3596 45.92 29.7596 45.92C24.1596 45.92 22.2396 41.12 21.9196 40.8H37.5996ZM30.3996 49.12L34.8796 63.04L29.7596 69.28L24.6396 63.04L29.1196 49.12H29.7596C29.7596 49.12 30.0796 49.12 30.3996 49.12ZM4.79961 51.36C4.79961 45.44 9.59961 40.64 15.6796 40.64H18.2396C18.2396 41.44 18.5596 41.6 19.8396 43.68C21.2796 45.92 23.3596 47.52 25.7596 48.32L21.1196 62.72C20.9596 63.2 21.1196 63.84 21.4396 64.16L28.3196 72.64C28.6396 72.96 29.1196 73.28 29.5996 73.28C30.0796 73.28 30.5596 73.12 30.8796 72.64L37.7596 64.16C38.0796 63.68 38.2396 63.2 38.0796 62.72L33.4396 48.32C38.3996 46.56 39.8396 42.56 40.7996 41.44C40.9596 41.12 40.9596 40.96 40.9596 40.64C42.8796 40.64 44.3196 40.48 46.5596 41.12C43.0396 44.48 40.7996 49.28 40.7996 54.56C40.7996 63.04 46.5596 70.24 54.3996 72.64V75.2H4.79961V51.36Z" fill="#947BFB"/>
<path d="M48.1597 56.0002L54.8797 62.7202C55.1997 63.0402 55.6797 63.2002 55.9997 63.2002C56.3197 63.2002 56.7997 63.0402 57.1197 62.7202L71.1997 48.6402C71.8397 48.0002 71.8397 47.0402 71.1997 46.4002C70.5597 45.7602 69.5997 45.7602 68.9597 46.4002L55.9997 59.3602L50.3997 53.7602C49.7597 53.1202 48.7997 53.1202 48.1597 53.7602C47.5197 54.4002 47.5197 55.3602 48.1597 56.0002Z" fill="#947BFB"/>
</svg>
