<svg width="80" height="80" viewBox="0 0 80 80" fill="none" xmlns="http://www.w3.org/2000/svg">
<path d="M41.6006 50.4001C45.1206 49.2801 46.5606 45.6001 45.1206 42.4001C44.1606 40.3201 42.0806 39.0401 39.8406 39.0401C36.3206 38.2401 37.4406 33.9201 40.1606 33.9201H40.4806C41.1206 33.9201 41.7606 34.2401 42.2406 34.8801C42.8806 35.5201 43.8406 35.5201 44.4806 35.0401C45.1206 34.4001 45.1206 33.4401 44.6406 32.8001C43.8406 31.8401 42.8806 31.3601 41.7606 31.0401C41.6006 30.4001 42.4006 27.3601 40.1606 27.3601C39.2006 27.3601 38.5606 28.0001 38.5606 28.9601V31.2001C37.7606 31.5201 37.1206 31.8401 36.4806 32.4801C34.4006 34.4001 33.6006 37.9201 36.1606 40.6401C38.7206 43.5201 41.2806 41.4401 42.4006 44.0001C43.2006 45.7601 42.2406 47.6801 40.0006 47.6801C39.2006 47.6801 38.5606 47.3601 38.0806 46.8801C37.4406 46.2401 36.4806 46.2401 35.8406 46.7201C34.2406 48.1601 36.4806 50.0801 38.5606 50.7201C38.7206 51.3601 37.9206 54.4001 40.1606 54.4001C42.2406 54.2401 41.4406 51.2001 41.6006 50.4001Z" fill="#947BFB"/>
<path d="M5.60039 40.8001C5.60039 39.8401 4.96039 39.2001 4.00039 39.2001C3.04039 39.2001 2.40039 39.8401 2.40039 40.8001C2.40039 61.4401 19.2004 78.4001 40.0004 78.4001C60.8004 78.4001 77.6004 61.4401 77.6004 40.8001C77.6004 20.1601 60.8004 3.2001 40.0004 3.2001C30.2404 3.2001 20.9604 6.8801 13.9204 13.6001V3.2001C13.9204 2.4001 13.1204 1.6001 12.3204 1.6001C11.3604 1.6001 10.7204 2.4001 10.7204 3.2001L10.8804 17.6001C10.8804 18.4001 11.6804 19.2001 12.4804 19.2001L26.8804 19.0401C27.8404 19.0401 28.4804 18.2401 28.4804 17.4401C28.4804 16.6401 27.6804 15.8401 26.8804 15.8401L16.1604 16.0001C22.5604 9.9201 31.0404 6.4001 40.0004 6.4001C59.0404 6.4001 74.4004 21.9201 74.4004 40.8001C74.4004 59.6801 59.0404 75.2001 40.0004 75.2001C20.9604 75.2001 5.60039 59.6801 5.60039 40.8001Z" fill="#947BFB"/>
<path d="M62.2407 40.8001C62.2407 28.4801 52.3207 18.5601 40.0007 18.5601C27.6807 18.5601 17.7607 28.4801 17.7607 40.8001C17.7607 53.1201 27.6807 63.0401 40.0007 63.0401C52.3207 63.0401 62.2407 52.9601 62.2407 40.8001ZM20.9607 40.8001C20.9607 30.4001 29.4407 21.7601 40.0007 21.7601C50.5607 21.7601 59.0407 30.2401 59.0407 40.8001C59.0407 51.3601 50.4007 59.8401 40.0007 59.8401C29.6007 59.8401 20.9607 51.2001 20.9607 40.8001Z" fill="#947BFB"/>
</svg>
