<svg width="80" height="81" viewBox="0 0 80 81" fill="none" xmlns="http://www.w3.org/2000/svg">
<path d="M56.1604 43.1306C63.3604 30.7386 54.2404 15.2888 40.1604 15.2888C26.0804 15.2888 16.9604 30.5776 24.3204 43.2915C24.3204 43.2915 28.4804 49.407 30.5604 53.4304C31.0404 54.5569 31.3604 55.6835 31.3604 56.81L31.3604 67.1099C31.3604 69.0411 32.6404 70.8114 34.2404 71.4551L34.2404 74.0301C34.2404 76.766 36.3204 78.8581 39.0404 78.8581L41.2804 78.8581C44.0004 78.8581 46.0804 76.766 46.0804 74.0301L46.0804 71.616C47.8404 70.9723 48.9604 69.202 48.9604 67.2708L48.9604 56.971C48.9604 55.8444 49.2804 54.7179 49.7604 53.7523C51.8404 49.407 56.0004 43.2915 56.1604 43.1306ZM42.8804 74.0301C42.8804 74.9957 42.2404 75.6394 41.2804 75.6394L39.0404 75.6394C38.0804 75.6394 37.4404 74.9957 37.4404 74.0301L37.4404 71.9379L42.8804 71.9379L42.8804 74.0301ZM45.9204 67.1099C45.9204 67.9145 45.2804 68.7192 44.3204 68.7192L36.0004 68.7192C35.2004 68.7192 34.4004 68.0755 34.4004 67.1099L34.4004 65.1786L40.1604 65.1786C41.1204 65.1786 41.7604 64.5349 41.7604 63.5693C41.7604 62.6037 41.1204 61.9599 40.1604 61.9599L34.4004 61.9599L34.4004 58.4194L45.7604 58.4194L45.7604 67.1099L45.9204 67.1099ZM46.8804 52.1429C46.4004 53.1085 46.0804 54.0741 45.9204 55.2007L34.2404 55.2007C34.0804 54.0741 33.7604 52.9476 33.2804 51.982C31.2004 47.7977 27.0404 41.6821 26.8804 41.5212C20.9604 31.3823 28.3204 18.5075 40.1604 18.5075C51.8404 18.5075 59.2004 31.3823 53.4404 41.3603C53.2804 41.6821 48.9604 47.7977 46.8804 52.1429Z" fill="#947BFB"/>
<path d="M40.1605 9.97799C41.1205 9.97799 41.7605 9.33425 41.7605 8.36864L41.7605 3.21872C41.7605 2.25311 41.1205 1.60937 40.1605 1.60937C39.2005 1.60937 38.5605 2.25311 38.5605 3.21872L38.5605 8.36864C38.5605 9.33425 39.3605 9.97799 40.1605 9.97799Z" fill="#947BFB"/>
<path d="M60.4806 17.7028L64.0006 14.0013C64.6406 13.3575 64.6406 12.3919 64.0006 11.7482C63.3606 11.1044 62.4006 11.1044 61.7606 11.7482L58.0806 15.4497C57.4406 16.0934 57.4406 17.059 58.0806 17.7028C58.7206 18.3465 59.8406 18.3465 60.4806 17.7028Z" fill="#947BFB"/>
<path d="M67.0404 34.2791C66.0804 34.2791 65.4404 34.9228 65.4404 35.8884C65.4404 36.854 66.0804 37.4978 67.0404 37.4978L72.1604 37.4978C73.1204 37.4978 73.7604 36.854 73.7604 35.8884C73.7604 34.9228 73.1204 34.2791 72.1604 34.2791L67.0404 34.2791Z" fill="#947BFB"/>
<path d="M12.9602 33.7964L7.84023 33.7964C6.88023 33.7964 6.24023 34.4401 6.24023 35.4057C6.24023 36.3713 6.88023 37.0151 7.84023 37.0151L12.9602 37.0151C13.9202 37.0151 14.5602 36.3713 14.5602 35.4057C14.5602 34.6011 13.7602 33.7964 12.9602 33.7964Z" fill="#947BFB"/>
<path d="M22.0807 15.1279L18.4007 11.4264C17.7607 10.7827 16.8007 10.7827 16.1607 11.4264C15.5207 12.0701 15.5207 13.0358 16.1607 13.6795L19.8407 17.381C20.4807 18.0247 21.4407 18.0247 22.0807 17.381C22.7207 16.7373 22.7207 15.7717 22.0807 15.1279Z" fill="#947BFB"/>
</svg>
