<svg width="76" height="76" viewBox="0 0 76 76" fill="none" xmlns="http://www.w3.org/2000/svg">
<path d="M24.0209 9.87969H36.4573C37.0561 9.87969 37.5397 9.39606 37.5397 8.79727C37.5397 8.19848 37.0561 7.71484 36.4573 7.71484H24.0209C23.4221 7.71484 22.9385 8.19848 22.9385 8.79727C22.9385 9.39606 23.4221 9.87969 24.0209 9.87969Z" fill="#947BFB"/>
<path d="M24.0209 68.2503H36.4573C37.0561 68.2503 37.5397 67.7667 37.5397 67.1679C37.5397 66.5691 37.0561 66.0854 36.4573 66.0854H24.0209C23.4221 66.0854 22.9385 66.5691 22.9385 67.1679C22.9385 67.7667 23.4221 68.2503 24.0209 68.2503Z" fill="#947BFB"/>
<path d="M60.6506 54.8353C60.5469 54.605 60.4203 54.3747 60.2821 54.1444C59.9596 53.6147 59.5681 53.131 59.1075 52.6935C56.2633 49.9759 51.7378 50.0795 49.0318 52.9122C47.719 54.2825 47.0166 56.0904 47.0627 58.0019C47.1087 59.9019 47.8918 61.6753 49.2736 62.9995C50.6093 64.2777 52.3827 64.9801 54.2136 64.9801C54.4439 64.9801 54.6627 64.9686 54.893 64.9456C56.2172 64.8189 57.4724 64.3353 58.5203 63.5177C58.5663 63.4832 58.6124 63.4486 58.6584 63.4141C58.9003 63.2183 59.1306 63.011 59.3493 62.7807C60.2936 61.7904 60.9269 60.5698 61.1803 59.2571C61.376 58.3013 61.3645 57.3341 61.1572 56.3668C61.0536 55.8371 60.8809 55.3189 60.6506 54.8353ZM59.0615 58.831C58.8887 59.7522 58.4512 60.5928 57.7948 61.2722C57.6451 61.4219 57.4954 61.5601 57.3227 61.6983C57.2881 61.7213 57.2536 61.7444 57.2306 61.7674C56.5051 62.3316 55.63 62.6771 54.6972 62.7692C53.2578 62.9074 51.8299 62.4122 50.7821 61.4104C49.8263 60.4892 49.2736 59.2571 49.239 57.9328C49.2045 56.6086 49.6881 55.3535 50.5978 54.3977C51.5651 53.3844 52.8663 52.8777 54.1675 52.8777C55.3996 52.8777 56.6433 53.3383 57.6106 54.2595C57.9215 54.5589 58.1978 54.9044 58.4281 55.2728C58.5203 55.4225 58.6124 55.5838 58.6815 55.745C58.8427 56.0904 58.9578 56.4474 59.0384 56.8159C59.1881 57.4953 59.1881 58.1632 59.0615 58.831Z" fill="#947BFB"/>
<path d="M70.3346 54.6969C70.3231 54.1672 69.9316 53.7296 69.4134 53.649L67.1795 53.3035C67.0298 52.866 66.857 52.4399 66.6613 52.0254C66.5461 51.7835 66.431 51.5532 66.3158 51.3345L67.5479 49.469C67.8358 49.0314 67.7783 48.4441 67.3983 48.0872L63.3334 44.2066C62.9534 43.8381 62.3661 43.8035 61.9401 44.1145L60.1322 45.4387C59.4758 45.1163 58.7964 44.8629 58.1401 44.6672L57.691 42.4448C57.5873 41.9381 57.1498 41.5811 56.6316 41.5811H54.9504V9.16597C54.9504 5.30839 51.8067 2.17627 47.9492 2.17627H12.5286C8.67098 2.17627 5.52734 5.30839 5.52734 9.16597V66.8108C5.52734 70.6454 8.65946 73.789 12.5286 73.8351H57.1037C57.5989 73.8351 58.0249 73.5011 58.1516 73.029L58.7158 70.8872C59.4067 70.6569 60.0861 70.3575 60.731 70.0005L62.6195 71.2672C63.057 71.5551 63.6443 71.4975 64.0128 71.1175L67.8934 67.0641C68.2619 66.6841 68.2964 66.0969 67.9855 65.6708L66.6383 63.8514C66.9492 63.2066 67.2025 62.5387 67.3983 61.8708L69.5976 61.4332C70.1158 61.3296 70.4843 60.869 70.4728 60.3393L70.3346 54.6969ZM51.0122 41.5811C50.471 41.5811 50.0219 41.9726 49.9413 42.5138L49.5958 44.8399C48.9279 45.0702 48.2831 45.3581 47.6498 45.692L45.7728 44.4369C45.3352 44.149 44.748 44.2066 44.3795 44.5866L40.5104 48.6399C40.1419 49.0199 40.1073 49.6072 40.4183 50.0332L41.754 51.8411C41.4546 52.4745 41.1898 53.1423 40.9825 53.8332L38.7831 54.2708C38.2649 54.3745 37.8964 54.8351 37.9079 55.3648L38.0346 60.5235H7.70371V15.4302H52.7855V41.5926H51.0122V41.5811ZM12.5286 4.34112H47.9492C50.6092 4.34112 52.774 6.50597 52.774 9.15445V13.2423H7.70371V9.16597C7.70371 6.50597 9.86856 4.34112 12.5286 4.34112ZM7.70371 66.7993V62.6999H41.3395C41.5583 63.2641 41.7886 63.8054 42.0764 64.3235L40.8328 66.2005C40.5449 66.6381 40.6025 67.2254 40.9825 67.5823L45.0473 71.4629C45.1164 71.532 45.197 71.5666 45.2776 71.6126H12.5286C12.494 71.6126 12.4595 71.6357 12.4249 71.6357C9.81098 71.5551 7.70371 69.4132 7.70371 66.7993ZM48.1104 71.6587C48.0528 71.6472 48.0067 71.6241 47.9492 71.6241H46.3255C46.3716 71.6011 46.4061 71.5896 46.4522 71.5666L46.7055 71.3823C46.7516 71.3593 46.7861 71.3363 46.8322 71.3017L48.2601 70.2423C48.8934 70.5417 49.5383 70.7951 50.1946 71.0023L50.2752 71.6587H48.1104ZM66.3043 59.8441C65.8898 59.9248 65.5558 60.2472 65.4522 60.6617C65.2334 61.5945 64.8764 62.5272 64.3928 63.4254C64.197 63.7938 64.2316 64.2429 64.4734 64.5769L65.671 66.2005L63.057 68.9411L61.3758 67.8126C61.0189 67.5708 60.5698 67.5708 60.2013 67.7896C59.3376 68.3193 58.4395 68.7108 57.5067 68.9872C57.1383 69.0908 56.8504 69.3902 56.7583 69.7587L56.2631 71.6702H52.4516L52.2558 70.0351C52.1983 69.586 51.8758 69.2175 51.4383 69.1023C50.4825 68.872 49.5498 68.5151 48.6746 68.0314C48.3061 67.8241 47.8455 67.8587 47.5116 68.112L45.8995 69.2981L43.1473 66.6611L44.2643 64.9799C44.4946 64.6229 44.5061 64.1738 44.2873 63.8169C43.7807 62.9878 43.3776 62.0896 43.0898 61.1223C42.9746 60.7193 42.6292 60.4199 42.2146 60.3623L40.211 60.0514L40.1189 56.2514L42.0879 55.8599C42.5025 55.7793 42.8249 55.4684 42.9286 55.0538C43.1819 54.0635 43.5389 53.1308 43.9995 52.2902C44.2067 51.9217 44.1722 51.4611 43.9189 51.1157L42.7213 49.5035L45.3352 46.7629L47.0164 47.8914C47.3734 48.1217 47.8225 48.1332 48.1795 47.9145C49.0201 47.4078 49.9298 47.0048 50.8855 46.7284C51.2886 46.6132 51.588 46.2678 51.657 45.8417L51.9449 43.7575H55.7334L56.1364 45.7496C56.217 46.1526 56.551 46.4866 56.954 46.5902L57.1383 46.6478C58.0364 46.8896 58.9001 47.2235 59.7061 47.6726C60.0746 47.8799 60.5352 47.8454 60.8692 47.592L62.4813 46.406L65.2334 49.0314L64.1279 50.7011C63.8976 51.0581 63.8861 51.5187 64.1164 51.8757C64.3122 52.1866 64.4964 52.5435 64.6922 52.9466C64.934 53.4648 65.1413 54.006 65.3025 54.5702C65.4176 54.9732 65.7631 55.2726 66.1776 55.3417L68.1813 55.6526L68.2734 59.4526L66.3043 59.8441Z" fill="#947BFB"/>
<path d="M33.8543 18.8965C33.601 18.8965 33.3822 18.9771 33.2095 19.1153C33.0368 19.2535 32.9101 19.4262 32.841 19.6335L25.2986 41.2819C25.2525 41.4201 25.2295 41.5468 25.2295 41.6619C25.2295 41.9613 25.3216 42.2032 25.5289 42.4219C25.7246 42.6292 25.9895 42.7328 26.3004 42.7328C26.5537 42.7328 26.7725 42.6638 26.9568 42.5256C27.1295 42.3874 27.2562 42.2147 27.3252 42.0074L34.8562 20.3589C34.9022 20.2207 34.9368 20.0941 34.9368 19.9789C34.9368 19.6795 34.8446 19.4377 34.6374 19.2189C34.4301 19.0116 34.1768 18.8965 33.8543 18.8965Z" fill="#947BFB"/>
<path d="M44.5749 29.2138L36.4337 25.552C36.0652 25.4023 35.5701 25.4714 35.2592 25.7823C35.0634 25.9781 34.9482 26.2314 34.9482 26.5308C34.9482 26.7496 35.0173 26.9568 35.144 27.1296C35.2707 27.3138 35.4434 27.4405 35.6392 27.5211L42.4907 30.5726L35.6392 33.6241C35.4434 33.7047 35.2707 33.8429 35.144 34.0156C35.0058 34.2114 34.9482 34.4071 34.9482 34.6144C34.9482 34.9138 35.0519 35.1556 35.2592 35.3744C35.4549 35.5702 35.7198 35.6738 36.0192 35.6738C36.1688 35.6738 36.307 35.6508 36.4452 35.5932L44.5979 31.9314C44.8628 31.8047 45.0701 31.632 45.2313 31.4132C45.3925 31.1944 45.4731 30.9411 45.4731 30.6532V30.492C45.4731 30.2041 45.3925 29.9508 45.2313 29.732C45.0585 29.5132 44.8513 29.3405 44.5749 29.2138Z" fill="#947BFB"/>
<path d="M15.9025 31.9428L24.0437 35.5931H24.0667C24.2049 35.6507 24.3316 35.6737 24.4813 35.6737C24.7807 35.6737 25.0225 35.5816 25.2298 35.3743C25.437 35.167 25.5407 34.9137 25.5407 34.6143C25.5407 34.407 25.4716 34.1882 25.3449 34.027C25.2067 33.8428 25.0455 33.7161 24.8498 33.624L17.9867 30.5725L24.8383 27.5325C25.0455 27.4519 25.2067 27.3137 25.3334 27.1294C25.4716 26.9452 25.5292 26.7494 25.5292 26.5307C25.5292 26.2313 25.437 25.9894 25.2183 25.7822C24.9189 25.4828 24.5158 25.3791 24.0437 25.5519L15.9025 29.2137C15.6376 29.3404 15.4304 29.5131 15.2692 29.7319C15.1079 29.9622 15.0273 30.204 15.0273 30.4919V30.6531C15.0273 30.9294 15.1079 31.1828 15.2692 31.4131C15.4189 31.6319 15.6376 31.8046 15.9025 31.9428Z" fill="#947BFB"/>
<path d="M33.7626 47.5459H12.9662C12.3674 47.5459 11.8838 48.0295 11.8838 48.6283C11.8838 49.2271 12.3674 49.7107 12.9662 49.7107H33.7626C34.3614 49.7107 34.845 49.2271 34.845 48.6283C34.845 48.0295 34.3614 47.5459 33.7626 47.5459Z" fill="#947BFB"/>
<path d="M25.5294 53.3955H12.9779C12.3791 53.3955 11.8955 53.8791 11.8955 54.4779C11.8955 55.0767 12.3791 55.5604 12.9779 55.5604H25.5294C26.1282 55.5604 26.6119 55.0767 26.6119 54.4779C26.6119 53.8907 26.1282 53.3955 25.5294 53.3955Z"/>
</svg>
