<svg width="44" height="44" viewBox="0 0 44 44" fill="none" xmlns="http://www.w3.org/2000/svg">
<path d="M43.5 22C43.5 33.8741 33.8741 43.5 22 43.5C10.1259 43.5 0.5 33.8741 0.5 22C0.5 10.1259 10.1259 0.5 22 0.5C33.8741 0.5 43.5 10.1259 43.5 22Z" stroke="#947BFB"/>
<path d="M29.2503 15.4168C27.5837 16.0001 25.2503 16.5835 22.0003 16.5835C18.7503 16.5835 16.2503 15.9168 14.7503 15.4168C14.2503 15.1668 13.667 15.5835 13.667 16.1668V27.8335C13.667 28.4168 14.2503 28.8335 14.7503 28.6668C16.5003 28.0835 18.7503 27.4168 22.0003 27.4168C25.2503 27.4168 27.5837 28.0835 29.2503 28.6668C29.8337 28.8335 30.3337 28.4168 30.3337 27.8335V16.1668C30.3337 15.5835 29.7503 15.1668 29.2503 15.4168ZM22.0003 24.5001C20.0837 24.5001 18.2503 24.5835 16.5837 24.8335L19.667 21.1668L21.3337 23.1668L23.667 20.3335L27.417 24.8335C25.7503 24.5835 23.917 24.5001 22.0003 24.5001Z" fill="#947BFB"/>
</svg>
