<svg width="76" height="76" viewBox="0 0 76 76" fill="none" xmlns="http://www.w3.org/2000/svg">
<path d="M60.0648 51.484C55.3335 51.484 51.4842 55.3343 51.4842 60.0646C51.4842 64.795 55.3335 68.6453 60.0648 68.6453C64.7962 68.6453 68.6455 64.795 68.6455 60.0646C68.6455 55.3343 64.7962 51.484 60.0648 51.484ZM60.0648 66.1936C56.6851 66.1936 53.9358 63.4443 53.9358 60.0646C53.9358 56.6849 56.6851 53.9356 60.0648 53.9356C63.4445 53.9356 66.1939 56.6849 66.1939 60.0646C66.1939 63.4443 63.4445 66.1936 60.0648 66.1936Z" fill="#947BFB"/>
<path d="M60.0649 56.3872C58.0373 56.3872 56.3874 58.037 56.3874 60.0646C56.3874 62.0922 58.0373 63.742 60.0649 63.742C62.0924 63.742 63.7423 62.0922 63.7423 60.0646C63.7423 58.037 62.0924 56.3872 60.0649 56.3872ZM60.0649 61.2904C59.3896 61.2904 58.8391 60.741 58.8391 60.0646C58.8391 59.3882 59.3896 58.8388 60.0649 58.8388C60.7401 58.8388 61.2907 59.3882 61.2907 60.0646C61.2907 60.741 60.7401 61.2904 60.0649 61.2904Z" fill="#947BFB"/>
<path d="M73.4072 55.873C73.0357 55.7505 72.7467 55.4856 72.6154 55.1447C72.553 54.9816 72.4868 54.8213 72.4167 54.6615C72.2723 54.3282 72.2892 53.9369 72.4632 53.5911C73.1998 52.1348 72.9191 50.3804 71.7644 49.2258L70.9003 48.3617C69.7457 47.2071 67.9929 46.9275 66.5351 47.664C66.1881 47.8391 65.7996 47.855 65.4625 47.7094C65.3071 47.6421 65.1473 47.577 64.9842 47.5135C64.6422 47.38 64.3751 47.0905 64.2536 46.7189C63.7458 45.1708 62.3076 44.1289 60.6753 44.1289H59.4544C57.823 44.1289 56.3839 45.1719 55.8738 46.7228C55.7523 47.0928 55.4863 47.3812 55.1383 47.5158C54.9801 47.5782 54.8209 47.6433 54.6638 47.7117C54.4357 47.8096 54.1845 47.8058 53.9355 47.756V6.12903C53.9355 2.74931 51.1862 0 47.8064 0H15.9355C12.5558 0 9.80645 2.74931 9.80645 6.12903V14.7097H3.67742C1.64987 14.7097 0 16.3595 0 18.3871V50.2581C0 52.2856 1.64987 53.9355 3.67742 53.9355H9.80645V69.871C9.80645 73.2507 12.5558 76 15.9355 76H47.8064C50.1366 76 52.2561 74.6467 53.2821 72.5896C53.3861 72.548 53.4917 72.5135 53.5924 72.4621C53.9382 72.287 54.3278 72.2711 54.6649 72.4167C54.822 72.484 54.9801 72.5491 55.1432 72.6126C55.4863 72.7461 55.7523 73.0356 55.8738 73.4072C56.3833 74.958 57.8213 76 59.4538 76H60.6747C62.3061 76 63.7453 74.957 64.2553 73.406C64.3768 73.0361 64.6428 72.7477 64.9886 72.6131C65.149 72.5507 65.3071 72.4856 65.4653 72.4172C65.8013 72.2738 66.1909 72.2897 66.5356 72.4637C67.9929 73.2014 69.7463 72.9185 70.9009 71.766L71.7639 70.9019C72.9186 69.7483 73.1993 67.9944 72.4627 66.5366C72.2876 66.1908 72.2717 65.8 72.4162 65.4651C72.4846 65.307 72.5508 65.1467 72.6138 64.9858C72.7462 64.6437 73.0368 64.3778 73.4067 64.2552C74.9581 63.7468 76.0001 62.3076 76.0001 60.6751V59.4543C76.0001 57.8214 74.957 56.3819 73.4072 55.873ZM15.9358 2.45169H47.8068C49.8343 2.45169 51.4842 4.10156 51.4842 6.12911V9.80541L12.2584 9.80651V6.12909C12.2584 4.10153 13.9083 2.45169 15.9358 2.45169ZM3.67775 17.1614H40.4519C41.1272 17.1614 41.6777 17.7108 41.6777 18.3872V24.5162H2.45195V18.3872C2.45195 17.7108 3.00247 17.1614 3.67775 17.1614ZM2.45195 50.2581V26.9678H41.6777V50.2581C41.6777 50.9345 41.1272 51.484 40.4519 51.484H3.67775C3.00247 51.484 2.45195 50.9345 2.45195 50.2581ZM40.4519 53.9356C42.4795 53.9356 44.1294 52.2857 44.1294 50.2581V18.3872C44.1294 16.3596 42.4795 14.7098 40.4519 14.7098H12.2584V12.2581L51.4842 12.2571V47.2913C50.6519 47.3821 49.8513 47.7411 49.2275 48.3639L48.3645 49.228C47.2098 50.3815 46.9291 52.1354 47.6656 53.5932C47.8407 53.9391 47.8566 54.3298 47.7122 54.6647C47.6437 54.8229 47.5775 54.9832 47.5146 55.1441C47.3822 55.4861 47.0916 55.7521 46.7216 55.8746C45.3694 56.3185 44.4047 57.4693 44.1802 58.8401L12.2588 58.8396V53.9363L40.4519 53.9356ZM47.8068 73.5485H15.9358C13.9083 73.5485 12.2584 71.8986 12.2584 69.871V61.2904H44.1812C44.4067 62.6607 45.3714 63.8121 46.7236 64.2559C47.0935 64.3785 47.383 64.6433 47.5154 64.9842C47.5778 65.1473 47.644 65.3077 47.7141 65.4674C47.8585 65.8007 47.8416 66.192 47.6676 66.5378C46.931 67.9941 47.2117 69.7485 48.3664 70.9031L49.2305 71.7672C49.5588 72.0955 49.9402 72.3456 50.3457 72.5295C49.6726 73.1659 48.7677 73.5485 47.8068 73.5485ZM73.5487 60.6753C73.5487 61.2466 73.1848 61.7478 72.6403 61.9268C71.5716 62.2787 70.7293 63.0705 70.3282 64.1005C70.2768 64.2318 70.2242 64.3615 70.169 64.489C69.7328 65.4943 69.7706 66.644 70.2757 67.6416C70.5329 68.1506 70.4349 68.7635 70.0305 69.1668L69.1675 70.0309C68.7642 70.4315 68.1513 70.5311 67.6412 70.2739C66.642 69.7715 65.4939 69.731 64.4897 70.1661C64.36 70.2235 64.2276 70.2777 64.0962 70.3291C63.068 70.7286 62.2773 71.5735 61.9254 72.6423C61.7492 73.1847 61.2452 73.5486 60.6755 73.5486H59.4546C58.8844 73.5486 58.382 73.183 58.2031 72.6429C57.8523 71.5725 57.0605 70.7292 56.0345 70.3308C55.902 70.2783 55.7696 70.2241 55.6399 70.1677C55.1764 69.9669 54.6828 69.8662 54.1859 69.8662C53.6058 69.8662 53.0252 70.0025 52.4856 70.2745C51.9756 70.5317 51.3627 70.4326 50.9604 70.0315L50.0963 69.1674C49.693 68.7641 49.5951 68.1512 49.8523 67.6422C50.3574 66.6446 50.3951 65.4949 49.959 64.4907C49.9037 64.3621 49.8501 64.2319 49.797 64.0983C49.3975 63.0701 48.5542 62.2794 47.4838 61.9275C46.9448 61.7491 46.5809 61.2462 46.5809 60.6754V59.4545C46.5809 58.8832 46.9448 58.3808 47.4882 58.203C48.5569 57.8511 49.4002 57.0593 49.8014 56.0293C49.8528 55.898 49.9054 55.7683 49.9606 55.6408C50.3968 54.6355 50.359 53.4858 49.8539 52.4882C49.5967 51.9792 49.6947 51.3663 50.0991 50.963L50.9621 50.0989C51.3654 49.6956 51.9794 49.5987 52.4884 49.8559C53.4887 50.3599 54.6357 50.4004 55.6399 49.9637C55.7712 49.9062 55.9036 49.8521 56.0322 49.8006C57.0605 49.4011 57.8523 48.5579 58.2042 47.4874C58.3804 46.9446 58.8845 46.5807 59.4541 46.5807H60.675C61.2452 46.5807 61.7476 46.9462 61.9265 47.4863C62.2773 48.5567 63.0691 49.4 64.0936 49.7984C64.2271 49.8509 64.3596 49.9051 64.4898 49.9615C65.494 50.3954 66.6409 50.3588 67.6424 49.8548C68.1525 49.5976 68.7654 49.6944 69.1676 50.0978L70.0317 50.9618C70.435 51.3652 70.533 51.9781 70.2758 52.487C69.7707 53.4846 69.7329 54.6344 70.1691 55.6385C70.2243 55.7671 70.278 55.8974 70.331 56.0309C70.7305 57.0592 71.5738 57.8499 72.6442 58.2018C73.1849 58.3802 73.5488 58.8831 73.5488 59.4538L73.5487 60.6753Z" fill="#947BFB"/>
<path d="M17.1616 6.12912C17.1616 6.80604 16.6127 7.35492 15.9358 7.35492C15.2589 7.35492 14.71 6.80604 14.71 6.12912C14.71 5.45219 15.2589 4.90331 15.9358 4.90331C16.6127 4.90331 17.1616 5.45219 17.1616 6.12912Z" fill="#947BFB"/>
<path d="M24.5165 4.90331H39.2262V7.35492H24.5165V4.90331Z" fill="#947BFB"/>
<path d="M35.5488 63.742H28.1939C26.1664 63.742 24.5165 65.3919 24.5165 67.4194C24.5165 69.447 26.1664 71.0969 28.1939 71.0969H35.5488C37.5763 71.0969 39.2262 69.447 39.2262 67.4194C39.2262 65.3919 37.5763 63.742 35.5488 63.742ZM35.5488 68.6452H28.1939C27.5186 68.6452 26.9681 68.0958 26.9681 67.4194C26.9681 66.7431 27.5186 66.1936 28.1939 66.1936H35.5488C36.224 66.1936 36.7746 66.7431 36.7746 67.4194C36.7746 68.0958 36.224 68.6452 35.5488 68.6452Z" fill="#947BFB"/>
<path d="M14.71 19.613H17.1616V22.0646H14.71V19.613Z" fill="#947BFB"/>
<path d="M9.80683 19.613H12.2584V22.0646H9.80683V19.613Z" fill="#947BFB"/>
<path d="M4.90357 19.613H7.35518V22.0646H4.90357V19.613Z" fill="#947BFB"/>
<path d="M4.90357 39.2259H39.2262V29.4195H4.90357V39.2259ZM7.35518 31.8711H36.7745V36.7743H7.35518V31.8711Z" fill="#947BFB"/>
<path d="M4.90357 41.6775H9.80679V44.1291H4.90357V41.6775Z" fill="#947BFB"/>
<path d="M12.2584 41.6775H39.2261V44.1291H12.2584V41.6775Z" fill="#947BFB"/>
<path d="M4.90357 46.5807H39.2262V49.0323H4.90357V46.5807Z" fill="#947BFB"/>
</svg>
