<svg width="56" height="56" viewBox="0 0 56 56" fill="none" xmlns="http://www.w3.org/2000/svg">
<circle cx="28" cy="28" r="27.5" stroke="#947BFB"/>
<path d="M49.5 28C49.5 39.8741 39.8741 49.5 28 49.5C16.1259 49.5 6.5 39.8741 6.5 28C6.5 16.1259 16.1259 6.5 28 6.5C39.8741 6.5 49.5 16.1259 49.5 28Z" stroke="#947BFB"/>
<path fill-rule="evenodd" clip-rule="evenodd" d="M20.8841 17H35.0925C37.2466 17 38.9883 18.7863 38.9883 20.9957V35.0043C38.9883 37.2137 37.2466 39 35.0925 39H20.8841C18.73 39 16.9883 37.2137 16.9883 35.0043V20.9957C16.9883 18.7863 18.73 17 20.8841 17ZM27.6502 30.2H24.2402L23.5436 32.4094C23.5252 32.494 23.4519 32.5504 23.3694 32.541H21.6461C21.5452 32.541 21.5177 32.4846 21.5452 32.3718L24.4969 23.6564C24.5049 23.629 24.5129 23.6008 24.5212 23.5718C24.5412 23.5013 24.5626 23.4261 24.5886 23.3461C24.6252 23.1487 24.6436 22.9418 24.6436 22.735C24.6344 22.688 24.6711 22.641 24.7169 22.6316H24.7444H27.091C27.1644 22.6316 27.2011 22.6598 27.2102 22.7068L30.556 32.3906C30.5836 32.494 30.556 32.541 30.4644 32.541H28.5486C28.4844 32.5504 28.4202 32.5034 28.4019 32.4376L27.6502 30.2ZM24.7719 28.2914H27.1002C27.0452 28.094 26.9719 27.8589 26.8894 27.6145C26.8069 27.3606 26.7244 27.088 26.6419 26.8059C26.596 26.6602 26.5525 26.5168 26.509 26.3734C26.4654 26.2301 26.4219 26.0867 26.3761 25.941C26.2844 25.6495 26.2019 25.3769 26.1286 25.1042C26.0961 24.9877 26.0654 24.8749 26.0358 24.7658V24.7657C25.9984 24.6283 25.9626 24.4967 25.9269 24.3709H25.9086C25.8261 24.7752 25.7252 25.1795 25.5969 25.5837C25.5445 25.7556 25.4921 25.9303 25.4392 26.1066C25.3533 26.3931 25.266 26.6842 25.1752 26.9752C25.0469 27.4547 24.9094 27.8965 24.7719 28.2914ZM31.738 23.9102C31.958 24.1264 32.2513 24.2486 32.5538 24.2392C32.8655 24.258 33.1772 24.1358 33.388 23.9102C33.608 23.6751 33.718 23.3649 33.7088 23.0452C33.718 22.735 33.608 22.4341 33.4063 22.2085C33.2047 21.9922 32.9297 21.8794 32.5722 21.8794C32.2697 21.8794 31.9763 21.9922 31.7563 22.2085C31.5363 22.4247 31.4172 22.7255 31.4263 23.0452C31.4172 23.3649 31.5272 23.6751 31.738 23.9102ZM31.5272 25.1606V32.3999C31.5272 32.4939 31.573 32.5503 31.6647 32.5503H33.4613C33.5438 32.5503 33.5805 32.5033 33.5805 32.3999V25.1606C33.5805 25.076 33.5438 25.029 33.4613 25.029H31.6463C31.5638 25.029 31.5272 25.0666 31.5272 25.1606Z" fill="#947BFB"/>
</svg>
