<svg width="44" height="44" viewBox="0 0 44 44" fill="none" xmlns="http://www.w3.org/2000/svg">
  <path d="M49.5 28C49.5 39.8741 39.8741 49.5 28 49.5C16.1259 49.5 6.5 39.8741 6.5 28C6.5 16.1259 16.1259 6.5 28 6.5C39.8741 6.5 49.5 16.1259 49.5 28Z" stroke="#947BFB"/>
  <g clip-path="url(#clip0_895_281)">
  <path fill-rule="evenodd" clip-rule="evenodd" d="M27.9768 16C27.0846 16 26.2152 16.0915 25.3686 16.2745V27.9886C25.3686 29.4299 26.5355 30.5968 27.9768 30.5968C29.4182 30.5968 30.585 29.4299 30.585 27.9886C30.585 26.6158 29.5097 25.4719 28.1599 25.3804V23.3213C30.6766 23.4128 32.6899 25.4719 32.6899 28.0114C32.6899 30.5968 30.585 32.7016 27.9997 32.7016C25.4144 32.7016 23.3095 30.5968 23.3095 28.0114V16.9609C23.0121 17.0982 22.7147 17.2355 22.4401 17.3727V28.0114C22.4401 31.0772 24.9339 33.571 27.9997 33.571C31.0655 33.571 33.5593 31.0772 33.5593 28.0114C33.5593 25.0143 31.157 22.5434 28.1599 22.4519V20.3699C32.301 20.4614 35.6413 23.8704 35.6413 28.0114C35.6413 32.2212 32.2094 35.653 27.9997 35.653C23.79 35.653 20.3582 32.2212 20.3582 28.0114V18.7455C17.6813 20.9418 15.9883 24.2822 15.9883 27.9886C15.9883 34.6235 21.3648 39.9771 27.9768 39.9771C34.6117 39.9771 39.9654 34.6006 39.9654 27.9886C39.9883 21.3765 34.6117 16 27.9768 16Z" fill="#947BFB"/>
  </g>
  <defs>
  <clipPath id="clip0_895_281">
  <rect width="24" height="24" fill="white" transform="translate(15.9883 16)"/>
  </clipPath>
  </defs>
</svg>
