<svg width="56" height="56" viewBox="0 0 56 56" fill="none" xmlns="http://www.w3.org/2000/svg">
<circle cx="28" cy="28" r="27.5" stroke="#947BFB"/>
<path d="M49.5 28C49.5 39.8741 39.8741 49.5 28 49.5C16.1259 49.5 6.5 39.8741 6.5 28C6.5 16.1259 16.1259 6.5 28 6.5C39.8741 6.5 49.5 16.1259 49.5 28Z" stroke="#947BFB"/>
<path fill-rule="evenodd" clip-rule="evenodd" d="M38.4186 26.7149C38.4186 33.185 33.1736 38.43 26.7035 38.43C20.6335 38.43 15.6417 33.8137 15.0475 27.9003C15.0471 27.9437 15.0469 27.9871 15.0469 28.0305C15.0469 35.1937 20.8538 41.0005 28.0169 41.0005C35.18 41.0005 40.9869 35.1937 40.9869 28.0305C40.9869 20.8674 35.18 15.0605 28.0169 15.0605C27.9808 15.0605 27.9447 15.0607 27.9086 15.061C33.8125 15.6643 38.4186 20.6517 38.4186 26.7149Z" fill="#7362CF"/>
<path fill-rule="evenodd" clip-rule="evenodd" d="M29.5137 35.3124C29.1212 35.3584 28.7219 35.3821 28.3171 35.3821C22.7054 35.3821 18.1562 30.8329 18.1562 25.2213C18.1562 19.6097 22.7054 15.0605 28.3171 15.0605C33.9287 15.0605 38.4778 19.6097 38.4778 25.2213C38.4778 25.6272 38.454 26.0276 38.4078 26.4211C38.414 26.2808 38.4172 26.1397 38.4172 25.9978C38.4172 20.8484 34.2428 16.6741 29.0934 16.6741C23.944 16.6741 19.7695 20.8484 19.7695 25.9978C19.7695 31.1473 23.944 35.3217 29.0934 35.3217C29.2342 35.3217 29.3743 35.3185 29.5137 35.3124Z" fill="#10164A"/>
<path d="M28.4364 35.3824C33.2229 35.3824 37.1032 31.5022 37.1032 26.7156C37.1032 21.9291 33.2229 18.0488 28.4364 18.0488C23.6498 18.0488 19.7695 21.9291 19.7695 26.7156C19.7695 31.5022 23.6498 35.3824 28.4364 35.3824Z" fill="#7362CF"/>
<path d="M27.064 32.5128C31.0582 32.5128 34.2961 29.275 34.2961 25.2808C34.2961 21.2867 31.0582 18.0488 27.064 18.0488C23.0699 18.0488 19.832 21.2867 19.832 25.2808C19.832 29.275 23.0699 32.5128 27.064 32.5128Z" fill="#10164A"/>
<path d="M28.1983 30.1807C31.5654 30.1807 34.295 27.4511 34.295 24.084C34.295 20.7169 31.5654 17.9873 28.1983 17.9873C24.8312 17.9873 22.1016 20.7169 22.1016 24.084C22.1016 27.4511 24.8312 30.1807 28.1983 30.1807Z" fill="#7362CF"/>
<path d="M28.9724 30.2418C31.9106 30.2418 34.2925 27.8599 34.2925 24.9217C34.2925 21.9834 31.9106 19.6016 28.9724 19.6016C26.0342 19.6016 23.6523 21.9834 23.6523 24.9217C23.6523 27.8599 26.0342 30.2418 28.9724 30.2418Z" fill="#10164A"/>
<path d="M28.1986 30.1814C30.7073 30.1814 32.741 28.1477 32.741 25.639C32.741 23.1304 30.7073 21.0967 28.1986 21.0967C25.6899 21.0967 23.6562 23.1304 23.6562 25.639C23.6562 28.1477 25.6899 30.1814 28.1986 30.1814Z" fill="#10164A"/>
<path d="M30.8322 24.3635C31.1566 23.6405 31.0535 22.8902 30.602 22.6875C30.1504 22.4849 29.5214 22.9068 29.197 23.6297C28.8726 24.3527 28.9757 25.1031 29.4272 25.3057C29.8788 25.5083 30.5078 25.0865 30.8322 24.3635Z" fill="#7362CF"/>
</svg>
