<svg width="56" height="56" viewBox="0 0 56 56" fill="none" xmlns="http://www.w3.org/2000/svg">
<circle cx="28" cy="28" r="27.5" stroke="#947BFB"/>
<path d="M49.5 28C49.5 39.8741 39.8741 49.5 28 49.5C16.1259 49.5 6.5 39.8741 6.5 28C6.5 16.1259 16.1259 6.5 28 6.5C39.8741 6.5 49.5 16.1259 49.5 28Z" stroke="#947BFB"/>
<path d="M35.1165 36.0747L27.8867 38.0214L20.6567 36.0747L18.9883 18H36.7851L35.1165 36.0747Z" fill="#947BFB"/>
<path d="M27.8867 19.4639V36.4687L27.9031 36.4732L33.7539 34.8977L35.1044 19.4639H27.8867Z" fill="#947BFB"/>
<path d="M27.8816 23.9832L22.707 26.1383L22.8786 28.272L27.8816 26.1329L33.2036 23.8575L33.4242 21.6748L27.8816 23.9832Z" fill="#947BFB"/>
<path d="M22.7031 26.1385L22.8747 28.2722L27.8778 26.1331V23.9834L22.7031 26.1385Z" fill="#10164A"/>
<path d="M33.4216 21.6748L27.8789 23.9832V26.1329L33.2009 23.8575L33.4216 21.6748Z" fill="#10164A"/>
<path d="M22.7148 26.1382L22.8864 28.2719L30.563 28.2964L30.3913 31.1413L27.8652 31.8525L25.437 31.2394L25.2898 29.4735H23.0336L23.3279 32.8825L27.8898 34.2314L32.4269 32.907L33.0155 26.1382H22.7148Z" fill="#10164A"/>
<path opacity="0.05" d="M27.8816 26.1382H22.707L22.8786 28.2719L27.8816 28.2879V26.1382ZM27.8816 31.8457L27.8571 31.8525L25.4291 31.2394L25.282 29.4736H23.0258L23.3201 32.8826L27.8816 34.2314V31.8457Z" fill="#10164A"/>
<path d="M22.2383 21.6748H33.4216L33.201 23.8576H22.508L22.2383 21.6748Z" fill="#10164A"/>
<path opacity="0.05" d="M27.879 21.6748H22.2383L22.508 23.8576H27.879V21.6748Z" fill="#10164A"/>
</svg>
