<svg width="56" height="56" viewBox="0 0 56 56" fill="none" xmlns="http://www.w3.org/2000/svg">
<circle cx="28" cy="28" r="27.5" stroke="#947BFB"/>
<path d="M49.5 28C49.5 39.8741 39.8741 49.5 28 49.5C16.1259 49.5 6.5 39.8741 6.5 28C6.5 16.1259 16.1259 6.5 28 6.5C39.8741 6.5 49.5 16.1259 49.5 28Z" stroke="#947BFB"/>
<path d="M24.6032 38.8415C26.5986 38.8415 28.2181 37.2107 28.2181 35.2013V31.561H24.6032C22.6078 31.561 20.9883 33.1919 20.9883 35.2013C20.9883 37.2107 22.6078 38.8415 24.6032 38.8415Z" fill="#9D8DF0"/>
<path d="M20.9883 27.9205C20.9883 25.9111 22.6078 24.2803 24.6032 24.2803H28.2181V31.5608H24.6032C22.6078 31.5608 20.9883 29.93 20.9883 27.9205Z" fill="#7362CF"/>
<path d="M20.9883 20.6402C20.9883 18.6308 22.6078 17 24.6032 17H28.2181V24.2805H24.6032C22.6078 24.2805 20.9883 22.6496 20.9883 20.6402Z" fill="#9D8DF0"/>
<path d="M28.2148 17H31.8297C33.8251 17 35.4446 18.6308 35.4446 20.6402C35.4446 22.6496 33.8251 24.2805 31.8297 24.2805H28.2148V17Z" fill="#7362CF"/>
<path d="M35.4446 27.9205C35.4446 29.93 33.8251 31.5608 31.8297 31.5608C29.8342 31.5608 28.2148 29.93 28.2148 27.9205C28.2148 25.9111 29.8342 24.2803 31.8297 24.2803C33.8251 24.2803 35.4446 25.9111 35.4446 27.9205Z" fill="#9D8DF0"/>
</svg>
