<svg width="56" height="56" viewBox="0 0 56 56" fill="none" xmlns="http://www.w3.org/2000/svg">
<circle cx="28" cy="28" r="27.5" stroke="#947BFB"/>
<path d="M49.5 28C49.5 39.8741 39.8741 49.5 28 49.5C16.1259 49.5 6.5 39.8741 6.5 28C6.5 16.1259 16.1259 6.5 28 6.5C39.8741 6.5 49.5 16.1259 49.5 28Z" stroke="#947BFB"/>
<path d="M26.2686 22.925C28.3997 22.9455 30.5238 22.9729 32.6618 22.9934C32.6618 20.826 32.6618 18.6791 32.6618 16.5186C34.1079 16.5186 35.5332 16.5186 36.9862 16.5186C36.9862 19.2876 36.9862 22.043 36.9862 24.8189C37.8026 24.8189 38.5914 24.8189 39.3871 24.8189C39.4424 24.983 39.4078 25.0993 39.2902 25.2155C38.4322 26.0496 37.5812 26.8975 36.7302 27.7384C36.6886 27.7795 36.6471 27.8273 36.5849 27.8889C36.661 27.8957 36.7094 27.8957 36.7578 27.8957C37.2975 27.8957 37.8441 27.8889 38.3838 27.8957C38.5706 27.9025 38.7643 27.923 38.9442 27.9777C39.221 28.0666 39.3525 28.2991 39.2971 28.5794C39.2694 28.7162 39.2279 28.8597 39.1656 28.9828C37.7888 31.7519 36.4119 34.5141 35.0281 37.2832C34.6268 38.09 33.9626 38.466 33.0562 38.466C27.9776 38.4592 22.8991 38.4592 17.8205 38.4592C17.606 38.4592 17.3916 38.4592 17.184 38.425C16.7343 38.3498 16.5474 38.0558 16.7066 37.6319C16.838 37.2764 17.0179 36.9345 17.1909 36.5926C18.4363 34.0902 19.6887 31.5946 20.941 29.0922C21.1486 28.6751 21.4253 28.3196 21.8543 28.1008C21.8889 28.0803 21.9374 28.0256 21.9374 27.9914C21.9443 27.7248 21.9443 27.4581 21.9443 27.1846C21.1901 27.2667 20.5812 27.547 20.2284 28.2239C19.7094 29.2016 19.2043 30.1862 18.6923 31.1639C18.0143 32.4835 17.3431 33.8031 16.6651 35.1226C16.6512 35.15 16.6305 35.1773 16.582 35.191C16.582 35.1226 16.582 35.0474 16.582 34.9791C16.582 31.1776 16.582 27.3829 16.582 23.5814C16.582 23.4515 16.6235 23.3558 16.7135 23.2669C16.9903 22.9866 17.3431 22.8567 17.7237 22.8567C18.9622 22.8498 20.2007 22.8567 21.4392 22.8567C21.5983 22.8567 21.7575 22.8567 21.9304 22.8567C21.9304 22.3302 21.9304 21.8242 21.9304 21.2841C21.0586 21.2841 20.1868 21.2841 19.322 21.2841C20.9203 19.7115 22.5185 18.1253 24.1099 16.5527C25.6805 18.1048 27.2788 19.6774 28.8909 21.2704C28.0191 21.2704 27.1543 21.2704 26.2756 21.2704C26.2686 21.8242 26.2686 22.3575 26.2686 22.925ZM31.8315 35.5534C31.9145 35.5534 31.9768 35.5534 32.0391 35.5534C32.392 35.5465 32.7448 35.5534 33.0908 35.5192C33.5889 35.4645 34.011 35.2594 34.2324 34.7808C34.6406 33.8783 34.1009 32.9005 33.1046 32.8048C32.4265 32.7433 31.7346 32.7706 31.0497 32.7638C31.0289 32.7638 31.0082 32.7706 30.9736 32.7775C30.9736 34.2406 30.9736 35.6901 30.9736 37.1465C31.2642 37.1465 31.5409 37.1465 31.8246 37.1465C31.8315 36.6131 31.8315 36.1004 31.8315 35.5534ZM23.6948 32.7706C23.6948 34.2338 23.6948 35.6901 23.6948 37.1533C23.9854 37.1533 24.2552 37.1533 24.5527 37.1533C24.5527 36.5516 24.5527 35.9568 24.5527 35.3483C25.1685 35.3483 25.7566 35.3483 26.3448 35.3483C26.3448 35.0953 26.3448 34.856 26.3448 34.603C25.7428 34.603 25.1478 34.603 24.5666 34.603C24.5666 34.227 24.5666 33.8714 24.5666 33.5022C25.2654 33.5022 25.9504 33.5022 26.6492 33.5022C26.6492 33.2492 26.6492 33.0168 26.6492 32.7706C25.6667 32.7706 24.6911 32.7706 23.6948 32.7706ZM30.4892 32.7706C29.2784 32.7706 28.0814 32.7706 26.8775 32.7706C26.8775 33.0168 26.8775 33.2561 26.8775 33.509C27.3342 33.509 27.7839 33.509 28.2544 33.509C28.2544 34.7329 28.2544 35.9431 28.2544 37.1465C28.5519 37.1465 28.8218 37.1465 29.1193 37.1465C29.1193 35.9294 29.1193 34.7261 29.1193 33.5022C29.5898 33.5022 30.0326 33.5022 30.4961 33.5022C30.4892 33.2492 30.4892 33.0168 30.4892 32.7706ZM33.1046 27.8957C32.8486 27.6427 32.6272 27.4239 32.392 27.212C32.3228 27.1504 32.2121 27.1026 32.1221 27.1026C30.2332 27.0889 28.3443 27.0889 26.4485 27.0821C26.3863 27.0821 26.324 27.0889 26.2686 27.0889C26.2686 27.3692 26.2686 27.629 26.2686 27.8957C28.5381 27.8957 30.7867 27.8957 33.1046 27.8957Z" fill="#947BFB"/>
<path d="M31.8516 33.4245C32.2533 33.4245 32.6392 33.4011 33.0252 33.4322C33.5529 33.4712 33.8364 33.8915 33.7104 34.3974C33.6395 34.6932 33.419 34.88 33.0488 34.9033C32.655 34.9267 32.269 34.9111 31.8595 34.9111C31.8516 34.413 31.8516 33.9304 31.8516 33.4245Z" fill="#7362CF"/>
</svg>
