<svg width="45" height="44" viewBox="0 0 45 44" fill="none" xmlns="http://www.w3.org/2000/svg">
<path d="M43.5107 22C43.5107 33.8741 33.8849 43.5 22.0107 43.5C10.1366 43.5 0.510742 33.8741 0.510742 22C0.510742 10.1259 10.1366 0.5 22.0107 0.5C33.8849 0.5 43.5107 10.1259 43.5107 22Z" stroke="#947BFB"/>
<path fill-rule="evenodd" clip-rule="evenodd" d="M21.977 30.0698C20.4126 30.0698 19.2037 29.8348 18.6224 29.6948C18.2249 29.599 17.9057 29.4999 17.6632 29.3981L18.4385 30.7227L18.7418 34.8613C18.7418 35.3252 20.2157 35.7013 22.0338 35.7013C23.8519 35.7013 25.3258 35.3252 25.3258 34.8613L25.5659 30.6776L26.2995 29.3942C26.056 29.4974 25.7339 29.5978 25.3314 29.6948C24.7501 29.8348 23.5413 30.0698 21.977 30.0698ZM26.3247 16.6027C25.1765 16.763 23.6526 16.8514 22.0338 16.8514C20.415 16.8514 18.8911 16.763 17.7429 16.6027C17.1742 16.5232 16.7242 16.4295 16.4055 16.3243C16.3295 16.2992 16.2006 16.2563 16.0766 16.188L16.788 22.7351C16.8211 22.6223 16.8579 22.5097 16.8987 22.3975C16.9822 22.1676 17.0788 21.9427 17.1884 21.7231C17.2982 21.5036 17.4176 21.296 17.5467 21.1005C17.6757 20.9051 17.8131 20.7251 17.9587 20.5607C18.1044 20.3963 18.2538 20.2549 18.4073 20.1364C18.5606 20.018 18.7154 19.9254 18.8717 19.8588C19.0281 19.7921 19.1829 19.7587 19.3362 19.7587C19.5129 19.7587 19.6838 19.807 19.8489 19.9036C20.0139 20.0002 20.1681 20.1566 20.3119 20.3727C20.3448 20.421 20.3658 20.4699 20.3744 20.5193C20.3832 20.5688 20.3875 20.6153 20.3875 20.659C20.3875 20.7625 20.3628 20.8442 20.3133 20.9039C20.2638 20.9637 20.2051 20.9936 20.1372 20.9936C20.0749 20.9936 20.0172 20.9608 19.9638 20.8953C19.9104 20.8298 19.8507 20.7361 19.7847 20.6142C19.7225 20.5038 19.6541 20.4239 19.5794 20.3744C19.5046 20.325 19.4236 20.3003 19.3362 20.3003C19.2003 20.3003 19.0552 20.3566 18.9009 20.4693C18.7465 20.5819 18.5936 20.7309 18.4422 20.916C18.2908 21.1011 18.1456 21.3127 18.0068 21.5507C17.868 21.7887 17.7451 22.0324 17.6384 22.2819C17.5316 22.5315 17.4467 22.7776 17.3836 23.0202C17.3205 23.2627 17.2889 23.4806 17.2889 23.6737C17.2889 23.7382 17.2934 23.8044 17.302 23.8721C17.3108 23.94 17.3273 24.0015 17.3516 24.0567C17.3758 24.1119 17.4088 24.1573 17.4505 24.1928C17.4923 24.2286 17.5452 24.2463 17.6092 24.2463C17.6811 24.2463 17.7626 24.2222 17.854 24.1739C17.9452 24.1257 18.0398 24.0624 18.1378 23.9843C18.2359 23.906 18.3344 23.8175 18.4334 23.7186C18.5325 23.6198 18.6247 23.5198 18.7101 23.4185C18.7955 23.3174 18.8712 23.2202 18.9372 23.1271C19.0032 23.034 19.0527 22.9529 19.0858 22.8839L19.3566 22.0732C19.3896 21.9859 19.4328 21.9238 19.4862 21.887C19.5396 21.8502 19.5945 21.8318 19.6508 21.8318C19.6779 21.8318 19.7051 21.8364 19.7323 21.8456C19.7595 21.8548 19.7837 21.8692 19.8051 21.8887C19.8265 21.9083 19.8435 21.9335 19.8561 21.9646C19.8687 21.9956 19.875 22.0319 19.875 22.0732C19.875 22.1836 19.8653 22.287 19.8459 22.3837C19.8265 22.4804 19.8017 22.5746 19.7716 22.6666C19.7415 22.7585 19.708 22.8511 19.6711 22.9442C19.6342 23.0374 19.5983 23.1345 19.5634 23.2358C19.5556 23.2473 19.5416 23.2834 19.5211 23.3443C19.5008 23.4053 19.4761 23.4819 19.4469 23.5737C19.4178 23.6658 19.3862 23.7686 19.3522 23.8825C19.3182 23.9963 19.2834 24.1124 19.2475 24.2309C19.2115 24.3493 19.1771 24.4654 19.1441 24.5793C19.111 24.6931 19.0813 24.796 19.0552 24.888C19.029 24.9799 19.0072 25.0569 18.9897 25.1191C18.9722 25.1812 18.9615 25.2179 18.9576 25.2296C18.9479 25.2662 18.9323 25.3071 18.9111 25.3519C18.8897 25.3967 18.8645 25.4393 18.8353 25.4795C18.8062 25.5197 18.7742 25.5532 18.7392 25.5795C18.7043 25.6059 18.6684 25.6192 18.6314 25.6192C18.5693 25.6192 18.5242 25.5985 18.4961 25.5572C18.4679 25.5158 18.4539 25.4399 18.4539 25.3296V25.2813C18.4539 25.2651 18.4548 25.2478 18.4567 25.2296C18.4586 25.1927 18.4732 25.1237 18.5005 25.0224C18.5276 24.9213 18.5601 24.807 18.598 24.6793C18.6359 24.5517 18.6767 24.4194 18.7204 24.2826C18.7639 24.1458 18.8033 24.0234 18.8383 23.9153C18.7353 24.0303 18.6237 24.1447 18.5034 24.2585C18.3829 24.3723 18.2596 24.4747 18.1335 24.5654C18.0072 24.6563 17.8801 24.7305 17.752 24.788C17.6239 24.8454 17.5006 24.8743 17.3821 24.8743C17.2462 24.8743 17.1293 24.8443 17.0311 24.7845C17.0135 24.7736 16.9968 24.7615 16.9801 24.7494L17.376 28.8998C17.479 29.1581 19.4191 29.7926 21.977 29.7926C24.5361 29.7926 26.4768 29.1574 26.5781 28.8993L27.1467 23.965C27.0997 24.0081 27.0538 24.0503 27.01 24.0912C26.8469 24.2429 26.693 24.3734 26.5484 24.4826C26.4038 24.5919 26.2625 24.6765 26.1247 24.7361C25.9867 24.796 25.8392 24.8259 25.682 24.8259C25.5344 24.8259 25.4203 24.7937 25.3397 24.7293C25.2592 24.665 25.2189 24.5765 25.2189 24.4637V24.4379C25.2189 24.4298 25.2199 24.42 25.2219 24.4085C25.2296 24.3396 25.2598 24.2601 25.3122 24.1705C25.3646 24.0808 25.4276 23.9877 25.5014 23.8911C25.5752 23.7945 25.6537 23.6968 25.7373 23.5979C25.8208 23.499 25.898 23.4053 25.9689 23.3167C26.0397 23.2283 26.0984 23.1473 26.145 23.0736C26.1917 23 26.215 22.9403 26.215 22.8942C26.215 22.8667 26.2052 22.8448 26.1858 22.8286C26.1664 22.8127 26.1343 22.8045 26.0897 22.8045C26.012 22.8045 25.9319 22.8247 25.8495 22.8649C25.7669 22.9051 25.6853 22.9593 25.6048 23.027C25.5242 23.0949 25.4456 23.1726 25.3689 23.2599C25.2923 23.3473 25.2204 23.4381 25.1534 23.5323C25.0864 23.6267 25.0253 23.7216 24.97 23.817C24.9146 23.9124 24.8675 24.0004 24.8286 24.0808C24.817 24.1061 24.8005 24.1418 24.7791 24.1877C24.7578 24.2337 24.7345 24.2855 24.7092 24.343C24.6839 24.4005 24.6573 24.4598 24.6291 24.5205C24.601 24.5816 24.5753 24.6391 24.552 24.6931C24.5287 24.7472 24.5079 24.7953 24.4895 24.8379C24.4709 24.8804 24.4578 24.9098 24.4501 24.926C24.4404 24.9466 24.4243 24.9856 24.402 25.0431C24.3797 25.1007 24.3539 25.168 24.3249 25.2449C24.2958 25.3219 24.2652 25.403 24.2331 25.4882C24.2012 25.5732 24.171 25.6538 24.1428 25.7296C24.1146 25.8055 24.0899 25.8722 24.0686 25.9297C24.0473 25.9871 24.0336 26.0263 24.0277 26.047C24.0084 26.1068 23.9855 26.163 23.9594 26.2161C23.9331 26.2689 23.9031 26.3154 23.8691 26.3558C23.8351 26.396 23.7963 26.4281 23.7526 26.4522C23.7089 26.4765 23.6599 26.4885 23.6056 26.4885C23.5356 26.4885 23.478 26.4717 23.4322 26.4385C23.3867 26.4051 23.3638 26.3412 23.3638 26.247C23.3638 26.201 23.3696 26.1539 23.3813 26.1057C23.3929 26.0574 23.4076 26.0095 23.425 25.9625C23.4425 25.9152 23.4605 25.8694 23.4789 25.8245C23.4973 25.7796 23.5143 25.7366 23.5298 25.6951C23.6347 25.4652 23.7415 25.2347 23.8502 25.0035C23.9588 24.7725 24.0632 24.5437 24.1633 24.3171C24.1841 24.2699 24.2032 24.2236 24.2235 24.1766C24.2174 24.1826 24.2114 24.1888 24.2055 24.1946C24.0792 24.3166 23.9536 24.424 23.8284 24.5171C23.7031 24.6103 23.5788 24.6844 23.4556 24.7397C23.3323 24.7948 23.2124 24.8224 23.0958 24.8224C23.0163 24.8224 22.9498 24.8098 22.8965 24.7845C22.843 24.7591 22.8004 24.7246 22.7683 24.681C22.7362 24.6374 22.7134 24.5856 22.6998 24.5258C22.6952 24.5054 22.6924 24.484 22.6894 24.4627C22.6553 24.4893 22.6209 24.5151 22.5863 24.5397C22.4659 24.6246 22.3475 24.6931 22.231 24.7448C22.1145 24.7966 22.0096 24.8224 21.9165 24.8224C21.8233 24.8224 21.7476 24.7914 21.6892 24.7293C21.631 24.6673 21.602 24.5614 21.602 24.412C21.602 24.3061 21.6175 24.1831 21.6485 24.0429C21.598 24.1326 21.535 24.2234 21.4593 24.3153C21.3835 24.4074 21.2971 24.4913 21.2001 24.5672C21.1029 24.6431 20.9942 24.7046 20.8739 24.7517C20.7535 24.7989 20.6224 24.8224 20.4807 24.8224C20.4166 24.8224 20.355 24.8144 20.2958 24.7983C20.2365 24.7822 20.1846 24.7546 20.14 24.7155C20.0953 24.6765 20.0595 24.6241 20.0322 24.5586C20.0051 24.4931 19.9915 24.4108 19.9915 24.3119C19.9915 24.3097 19.9954 24.2746 20.0031 24.2067C20.0109 24.1388 20.0356 24.0319 20.0774 23.8859C20.1191 23.7399 20.1837 23.5507 20.271 23.3184C20.3584 23.0862 20.4817 22.8045 20.6409 22.4734C20.6817 22.386 20.7288 22.3233 20.7821 22.2854C20.8356 22.2475 20.8932 22.2285 20.9553 22.2285C20.9826 22.2285 21.0107 22.2326 21.0398 22.2405C21.069 22.2486 21.0961 22.2612 21.1214 22.2785C21.1466 22.2958 21.167 22.3177 21.1826 22.3441C21.198 22.3705 21.2059 22.4009 21.2059 22.4354C21.2059 22.4584 21.2029 22.4804 21.1971 22.5009C21.1873 22.5402 21.1665 22.5912 21.1346 22.6544C21.1025 22.7177 21.0651 22.7902 21.0223 22.8718C20.9797 22.9534 20.9345 23.0414 20.887 23.1358C20.8394 23.2299 20.7952 23.3277 20.7545 23.4289C20.7137 23.5302 20.6787 23.633 20.6496 23.7376C20.6205 23.8423 20.604 23.9441 20.6002 24.0429C20.6002 24.0843 20.6098 24.1222 20.6293 24.1567C20.6487 24.1912 20.6808 24.2084 20.7254 24.2084C20.8515 24.2084 20.9719 24.167 21.0865 24.0843C21.201 24.0015 21.3068 23.8986 21.4039 23.7756C21.501 23.6525 21.5888 23.5202 21.6675 23.3788C21.7461 23.2374 21.8116 23.1081 21.864 22.9908C21.9009 22.9127 21.9334 22.8286 21.9616 22.739C21.9897 22.6493 22.0203 22.5666 22.0533 22.4906C22.0864 22.4147 22.1242 22.3515 22.1669 22.3009C22.2095 22.2504 22.263 22.225 22.327 22.225C22.397 22.225 22.4522 22.2515 22.4931 22.3044C22.5339 22.3573 22.5542 22.4205 22.5542 22.494C22.5542 22.5354 22.5411 22.5924 22.5149 22.6649C22.4886 22.7373 22.4556 22.8201 22.4159 22.9132C22.376 23.0064 22.3328 23.1058 22.2863 23.2115C22.2398 23.3174 22.1964 23.4248 22.1568 23.5341C22.1168 23.6433 22.084 23.7503 22.0577 23.8549C22.0314 23.9595 22.0184 24.0567 22.0184 24.1463C22.0184 24.2291 22.0611 24.2706 22.1465 24.2706C22.2067 24.2706 22.2814 24.2499 22.3707 24.2084C22.4601 24.167 22.5538 24.109 22.6518 24.0342C22.6762 24.0155 22.7009 23.9961 22.7254 23.9756C22.7527 23.8627 22.7848 23.7584 22.8222 23.6635C22.8901 23.484 22.959 23.3059 23.029 23.1288C23.0988 22.9518 23.1629 22.7896 23.2212 22.6424L24.1035 20.4176C24.1385 20.3279 24.1856 20.2646 24.2447 20.2278C24.304 20.1911 24.3637 20.1726 24.4239 20.1726C24.484 20.1726 24.5388 20.1922 24.5884 20.2313C24.6379 20.2704 24.6627 20.3336 24.6627 20.421C24.6627 20.4624 24.6544 20.5061 24.6379 20.5521C24.6214 20.5981 24.6006 20.6475 24.5753 20.7004C24.5268 20.8086 24.469 20.9407 24.402 21.0971C24.335 21.2535 24.2631 21.4237 24.1865 21.6076C24.1098 21.7916 24.0311 21.983 23.9506 22.1819C23.8701 22.3809 23.7914 22.5746 23.7147 22.7631C23.6381 22.9518 23.5662 23.1304 23.4992 23.2995C23.4322 23.4685 23.3746 23.6152 23.3259 23.7393C23.3046 23.7922 23.2837 23.8538 23.2634 23.9239C23.243 23.994 23.2328 24.0567 23.2328 24.1119C23.2328 24.1463 23.2387 24.1739 23.2503 24.1946C23.262 24.2153 23.2843 24.2257 23.3173 24.2257C23.358 24.2257 23.4089 24.2114 23.4701 24.1826C23.5313 24.1539 23.5972 24.1158 23.6681 24.0687C23.7391 24.0216 23.8128 23.9676 23.8894 23.9066C23.9662 23.8457 24.0424 23.7825 24.118 23.7169C24.1938 23.6513 24.2661 23.5858 24.335 23.5202C24.4039 23.4548 24.4656 23.3944 24.52 23.3392C24.5328 23.3259 24.548 23.3166 24.5648 23.3096C24.5976 23.2116 24.6275 23.1157 24.6539 23.0219C24.6695 22.9805 24.6909 22.9219 24.718 22.8459C24.7451 22.77 24.7763 22.6953 24.8112 22.6217C24.8461 22.5482 24.8855 22.4843 24.9291 22.4303C24.9728 22.3763 25.0199 22.3492 25.0704 22.3492C25.1481 22.3492 25.2044 22.3671 25.2393 22.4026C25.2743 22.4384 25.2917 22.4906 25.2917 22.5597C25.2917 22.5735 25.2898 22.5953 25.2859 22.6251C25.2819 22.6551 25.2772 22.6868 25.2714 22.7201C25.2656 22.7534 25.2592 22.785 25.2524 22.815C25.2456 22.8448 25.2393 22.8667 25.2335 22.8805C25.3052 22.8022 25.3829 22.7247 25.4664 22.6477C25.5499 22.5706 25.6363 22.5009 25.7256 22.4389C25.815 22.3768 25.9062 22.3263 25.9995 22.287C26.0926 22.2481 26.1858 22.2285 26.279 22.2285C26.343 22.2285 26.4066 22.2377 26.4697 22.2561C26.5328 22.2745 26.5892 22.3015 26.6386 22.3371C26.6881 22.3729 26.7285 22.4177 26.7595 22.4717C26.7905 22.5257 26.806 22.5883 26.806 22.6597C26.806 22.754 26.7823 22.8546 26.7347 22.9615C26.6872 23.0685 26.6275 23.176 26.5556 23.2839C26.4838 23.3921 26.4061 23.4972 26.3227 23.5996C26.2392 23.702 26.1611 23.795 26.0883 23.879C26.0154 23.963 25.9542 24.0342 25.9047 24.0928C25.8553 24.1516 25.8294 24.1912 25.8276 24.2119C25.8276 24.2395 25.8364 24.2619 25.8538 24.2792C25.8713 24.2964 25.9004 24.3051 25.9411 24.3051C25.9741 24.3051 26.0228 24.2866 26.0867 24.2499C26.1508 24.2131 26.2407 24.1493 26.3561 24.0584C26.4716 23.9676 26.6183 23.8457 26.7959 23.6927C26.9177 23.588 27.0604 23.463 27.2211 23.3209L27.9913 16.1877C27.8672 16.2562 27.7382 16.2992 27.6621 16.3243C27.3435 16.4295 26.8935 16.5232 26.3247 16.6027ZM22.0292 14.9102C18.6994 14.9102 16 15.2826 16 15.7419C16 16.2012 18.6994 16.5735 22.0292 16.5735C25.359 16.5735 28.0584 16.2012 28.0584 15.7419C28.0584 15.2826 25.359 14.9102 22.0292 14.9102ZM24.4366 15.9849C24.4366 16.0927 24.1158 16.1801 23.72 16.1801C23.3243 16.1801 23.0035 16.0927 23.0035 15.9849C23.0035 15.8771 23.3243 15.7897 23.72 15.7897C24.1158 15.7897 24.4366 15.8771 24.4366 15.9849Z" fill="#947BFB"/>
<path fill-rule="evenodd" clip-rule="evenodd" d="M23.1499 15.899C23.1464 15.9046 23.1445 15.9104 23.1445 15.9163C23.1445 15.9861 23.4028 16.0426 23.7213 16.0426C24.0399 16.0426 24.2981 15.9861 24.2981 15.9163L25.0515 12.8616L28.0476 9.69839C28.0486 9.69742 28.0495 9.69642 28.0504 9.69539C28.1139 9.62366 27.9852 9.40169 27.7716 9.21132C27.5581 9.02095 27.3276 8.9565 27.2559 9.02899C27.2554 9.02953 27.2548 9.03008 27.2543 9.03064L24.0576 12.3944L23.1499 15.899Z" fill="#947BFB"/>
</svg>
