<svg width="56" height="56" viewBox="0 0 56 56" fill="none" xmlns="http://www.w3.org/2000/svg">
<circle cx="28" cy="28" r="27.5" stroke="#947BFB"/>
<path d="M49.5 28C49.5 39.8741 39.8741 49.5 28 49.5C16.1259 49.5 6.5 39.8741 6.5 28C6.5 16.1259 16.1259 6.5 28 6.5C39.8741 6.5 49.5 16.1259 49.5 28Z" stroke="#947BFB"/>
<path d="M38.3784 22.27C37.3054 20.4314 35.8498 18.9758 34.0114 17.9028C32.1727 16.8298 30.1654 16.2935 27.9881 16.2935C25.8111 16.2935 23.8031 16.83 21.9648 17.9028C20.1262 18.9757 18.6707 20.4314 17.5977 22.27C16.5248 24.1085 15.9883 26.1162 15.9883 28.293C15.9883 30.9078 16.7512 33.2591 18.2773 35.3475C19.8033 37.436 21.7746 38.8812 24.1912 39.6833C24.4725 39.7355 24.6807 39.6987 24.8161 39.574C24.9515 39.4491 25.0192 39.2927 25.0192 39.1055C25.0192 39.0742 25.0165 38.7931 25.0113 38.2617C25.0059 37.7304 25.0034 37.2669 25.0034 36.8714L24.644 36.9335C24.4149 36.9755 24.1258 36.9933 23.7768 36.9883C23.428 36.9834 23.0659 36.9468 22.691 36.8789C22.3159 36.8115 21.967 36.6553 21.6441 36.4105C21.3213 36.1657 21.0921 35.8453 20.9567 35.4497L20.8005 35.0902C20.6963 34.8508 20.5324 34.5849 20.3084 34.2934C20.0844 34.0017 19.8578 33.8039 19.6287 33.6997L19.5193 33.6214C19.4464 33.5694 19.3788 33.5066 19.3162 33.4338C19.2537 33.3609 19.2069 33.288 19.1757 33.215C19.1444 33.142 19.1703 33.082 19.2538 33.035C19.3372 32.988 19.4881 32.9652 19.7069 32.9652L20.0193 33.0119C20.2276 33.0536 20.4853 33.1784 20.7927 33.3868C21.1 33.5951 21.3525 33.8659 21.5505 34.1991C21.7902 34.6262 22.079 34.9518 22.4177 35.1758C22.7561 35.3997 23.0973 35.5115 23.441 35.5115C23.7847 35.5115 24.0815 35.4855 24.3316 35.4337C24.5814 35.3816 24.8158 35.3033 25.0347 35.1992C25.1284 34.501 25.3836 33.9646 25.8002 33.5897C25.2065 33.5273 24.6728 33.4333 24.1987 33.3084C23.7248 33.1833 23.2352 32.9803 22.7301 32.6987C22.2247 32.4176 21.8054 32.0685 21.4722 31.6521C21.1389 31.2354 20.8654 30.6883 20.652 30.0114C20.4386 29.3343 20.3318 28.5531 20.3318 27.6677C20.3318 26.4071 20.7433 25.3344 21.5662 24.4489C21.1808 23.5012 21.2171 22.4387 21.6755 21.2617C21.9776 21.1678 22.4256 21.2383 23.0193 21.4725C23.613 21.7069 24.0478 21.9077 24.3239 22.0742C24.6001 22.2406 24.8213 22.3817 24.988 22.496C25.957 22.2253 26.9569 22.0899 27.988 22.0899C29.0191 22.0899 30.0193 22.2253 30.9882 22.496L31.582 22.1212C31.988 21.8711 32.4674 21.6419 33.0192 21.4336C33.5712 21.2253 33.9934 21.168 34.2852 21.2618C34.7538 22.4389 34.7955 23.5013 34.4099 24.4491C35.2328 25.3346 35.6445 26.4076 35.6445 27.6679C35.6445 28.5533 35.5373 29.3369 35.3242 30.0193C35.1107 30.7017 34.8349 31.2482 34.4964 31.6599C34.1576 32.0715 33.7357 32.4178 33.2306 32.6989C32.7253 32.9802 32.2356 33.1832 31.7617 33.3083C31.2877 33.4334 30.754 33.5275 30.1603 33.59C30.7017 34.0585 30.9725 34.7981 30.9725 35.8085V39.105C30.9725 39.2923 31.0377 39.4486 31.168 39.5736C31.2982 39.6983 31.5038 39.735 31.7851 39.6828C34.202 38.8809 36.1733 37.4356 37.6992 35.347C39.225 33.2586 39.9881 30.9073 39.9881 28.2925C39.9876 26.116 39.4508 24.1085 38.3784 22.27Z" fill="#7362CF"/>
</svg>
