<svg width="56" height="56" viewBox="0 0 56 56" fill="none" xmlns="http://www.w3.org/2000/svg">
<circle cx="28" cy="28" r="27.5" stroke="#947BFB"/>
<path d="M49.5 28C49.5 39.8741 39.8741 49.5 28 49.5C16.1259 49.5 6.5 39.8741 6.5 28C6.5 16.1259 16.1259 6.5 28 6.5C39.8741 6.5 49.5 16.1259 49.5 28Z" stroke="#947BFB"/>
<path fill-rule="evenodd" clip-rule="evenodd" d="M27.9941 38.9609L32.4101 25.4751H23.5781L27.9941 38.9609Z" fill="#7362CF"/>
<path fill-rule="evenodd" clip-rule="evenodd" d="M27.9956 38.9609L23.5796 25.4751H17.3906L27.9956 38.9609Z" fill="#B3A4FF"/>
<path fill-rule="evenodd" clip-rule="evenodd" d="M17.3907 25.4751L16.0487 29.5733C15.9263 29.9471 16.0604 30.3566 16.3808 30.5876L27.9956 38.9609L17.3907 25.4751Z" fill="#7655FF"/>
<path fill-rule="evenodd" clip-rule="evenodd" d="M17.3906 25.4749H23.5796L20.9198 17.3525C20.783 16.9345 20.1871 16.9346 20.0503 17.3525L17.3906 25.4749Z" fill="#7362CF"/>
<path fill-rule="evenodd" clip-rule="evenodd" d="M27.9961 38.9609L32.4121 25.4751H38.601L27.9961 38.9609Z" fill="#B3A4FF"/>
<path fill-rule="evenodd" clip-rule="evenodd" d="M38.601 25.4751L39.943 29.5733C40.0654 29.9471 39.9313 30.3566 39.6109 30.5876L27.9961 38.9609L38.601 25.4751Z" fill="#7655FF"/>
<path fill-rule="evenodd" clip-rule="evenodd" d="M38.5991 25.4749H32.4102L35.0699 17.3525C35.2067 16.9345 35.8026 16.9346 35.9394 17.3525L38.5991 25.4749Z" fill="#7362CF"/>
</svg>
