<svg width="56" height="56" viewBox="0 0 56 56" fill="none" xmlns="http://www.w3.org/2000/svg">
<circle cx="28" cy="28" r="27.5" stroke="#947BFB"/>
<path d="M49.5 28C49.5 39.8741 39.8741 49.5 28 49.5C16.1259 49.5 6.5 39.8741 6.5 28C6.5 16.1259 16.1259 6.5 28 6.5C39.8741 6.5 49.5 16.1259 49.5 28Z" stroke="#947BFB"/>
<path fill-rule="evenodd" clip-rule="evenodd" d="M27.9897 40.8333C35.0774 40.8333 40.8231 35.0876 40.8231 27.9999C40.8231 20.9122 35.0774 15.1665 27.9897 15.1665C20.902 15.1665 15.1562 20.9122 15.1562 27.9999C15.1562 32.7764 17.7657 36.9434 21.6368 39.1531L23.2677 28.1456H22.1563V25.8124H23.3229V21.1456L27.9897 18.229L32.6563 21.1456V25.8124H33.8229V28.1456H32.709L34.3398 39.1538C32.4671 40.2226 30.299 40.8332 27.9884 40.8332C27.5266 40.8332 27.0704 40.8088 26.6212 40.7612C27.0709 40.8089 27.5274 40.8333 27.9897 40.8333ZM30.3229 25.8123V22.4388L27.9897 20.9809L25.6563 22.4388V25.8123H30.3229ZM25.1116 31.6212L30.6009 29.8375V29.8373L31.2068 33.9266L24.4444 36.1241L25.1116 31.6212Z" fill="#7362CF"/>
<g opacity="0.1">
<path opacity="0.1" d="M27.9897 15.3006C35.0553 15.3006 40.785 21.01 40.8215 28.0668C40.8215 28.045 40.8229 28.0231 40.8229 27.9999C40.8229 20.9124 35.0772 15.1665 27.9897 15.1665C20.9022 15.1665 15.1562 20.9124 15.1562 27.9999C15.1562 28.0218 15.1578 28.0437 15.1578 28.0668C15.1941 21.01 20.924 15.3006 27.9897 15.3006Z" fill="#7362CF"/>
<path opacity="0.1" d="M40.8215 27.9331C40.785 34.9899 35.0553 40.6993 27.9897 40.6993C20.924 40.6993 15.1941 34.9899 15.1578 27.9331C15.1578 27.9565 15.1562 27.9783 15.1562 28.0002C15.1562 35.0877 20.9022 40.8334 27.9897 40.8334C35.0772 40.8334 40.8229 35.0877 40.8229 28.0002C40.8229 27.9783 40.8215 27.9565 40.8215 27.9331Z" fill="#263238"/>
</g>
</svg>
