<svg width="56" height="56" viewBox="0 0 56 56" fill="none" xmlns="http://www.w3.org/2000/svg">
<path d="M49.5 28C49.5 39.8741 39.8741 49.5 28 49.5C16.1259 49.5 6.5 39.8741 6.5 28C6.5 16.1259 16.1259 6.5 28 6.5C39.8741 6.5 49.5 16.1259 49.5 28Z" stroke="#947BFB"/>
<path d="M18.2488 26.3C17.5481 26.6296 15.6938 28.1132 15.3366 28.5527C14.9657 28.9923 14.8558 28.3055 15.2404 27.1654C15.5426 26.245 16.3119 24.995 17.6031 23.9236C18.3585 23.3054 20.0207 22.4126 21.0372 21.8906C21.2433 21.7806 23.9081 20.6543 26.2845 20.0911C26.4906 20.0361 26.0373 20.4345 25.9686 20.6543C25.6114 21.6982 18.4822 26.1763 18.4822 26.1763L18.2488 26.3Z" fill="#947BFB"/>
<path d="M28.2909 38.8961C28.4145 39.6379 28.3047 39.6928 27.5355 39.789C26.7662 39.8852 26.203 39.5966 25.997 39.4044C25.7909 39.212 25.7498 38.7862 25.9558 38.4016C26.0795 38.1543 26.2031 38.0719 26.2718 37.7697C26.3405 37.4813 26.3954 37.4126 26.4503 37.3027C26.5052 37.2065 26.519 37.1103 26.5327 36.4373C26.5465 35.7642 26.5327 34.5004 26.6014 33.9647C26.6702 33.4153 29.0466 34.212 29.0466 34.212C29.0466 34.212 28.4833 35.6131 28.3323 35.9565C28.1811 36.3 28.1949 36.9592 28.1949 37.0966C28.1949 37.234 28.14 37.5087 28.0987 37.5224C28.0575 37.5361 28.2361 37.8933 28.1536 38.0994C28.0987 38.2917 28.2772 38.7862 28.2909 38.8961Z" fill="#947BFB"/>
<path d="M29.1966 17.8932C29.1141 17.3712 29.1966 16.3409 29.3065 16.1761C29.6499 15.709 31.4631 15.6542 31.8478 16.2036C32.0126 16.4508 31.9988 17.0278 31.9714 17.3987C31.9439 17.7695 31.8478 18.5662 31.834 18.8273C31.8203 19.0196 29.8285 19.3218 29.3889 18.7998C29.2652 18.6625 29.1966 17.8932 29.1966 17.8932Z" fill="#947BFB"/>
<path d="M33.2354 37.5647C34.0733 38.1692 34.7189 38.279 35.1447 38.4988C35.5705 38.7187 35.4607 39.1445 34.7463 39.2681C34.1694 39.378 33.2628 39.1582 32.6584 39.1582C32.054 39.1582 30.7078 39.2269 30.3507 38.9797C29.9386 38.6912 30.1171 38.1554 30.1171 38.1554C30.227 37.8533 30.5017 37.1801 30.4193 36.6307C30.3369 36.0813 30.227 35.7791 30.0209 35.2708C29.8149 34.7626 29.6639 33.5126 29.8562 33.4439C30.0485 33.3751 29.9935 33.4439 30.2408 33.4988C30.488 33.5537 30.7628 33.6361 31.2985 33.6361C31.8342 33.6361 32.4249 33.5537 32.631 33.5125C32.837 33.4713 33.0018 33.43 32.9331 33.8559C32.8644 34.2817 32.6584 35.0785 32.6447 35.6966C32.631 36.3147 32.631 37.0291 32.6722 37.1527C32.7133 37.2763 33.0156 37.4137 33.2354 37.5647Z" fill="#947BFB"/>
<path d="M30.2962 19.2663C28.7852 20.5713 25.8593 20.9284 21.5187 22.6042C20.406 23.03 17.4389 24.3075 16.7246 25.64C19.1285 24.2526 20.0214 26.162 20.2136 28.1263C20.3921 29.967 21.3126 30.9286 23.6752 30.8735C26.1066 30.8187 26.8484 32.2335 27.5214 33.8956C28.8264 27.5356 30.9143 26.2994 32.2604 25.2142C35.1177 22.8927 31.6011 18.7992 30.2962 19.2663Z" fill="#B3A0FF"/>
<path d="M30.2959 19.2656C26.6695 20.5294 23.0842 20.8453 18.8672 23.4415C17.8645 24.0597 15.749 25.4607 15.3369 28.1394C16.8753 26.436 20.4331 24.2932 24.7876 22.9333C26.9854 22.2464 28.5926 21.7932 30.5431 21.0377C30.4058 20.1585 30.4058 19.8151 30.2959 19.2656Z" fill="#B3A0FF"/>
<path d="M34.9247 26.7952C34.9247 26.7952 34.6637 27.6881 34.1417 27.9766C34.1417 27.9766 33.7571 28.114 32.9879 27.6882C32.7681 27.5646 32.6033 27.1387 32.617 27.0013C32.6308 26.6716 32.8368 26.5205 32.8368 26.5205C32.8368 26.5205 33.0566 26.1496 33.3176 26.1634C33.5786 26.1771 34.0182 26.2183 34.1556 26.0947C34.2791 25.9573 34.9522 26.3419 34.9247 26.7952Z" fill="#947BFB"/>
<path d="M29.3215 18.154C29.3215 18.154 29.2666 18.8546 29.1705 19.2941C29.1567 19.3766 28.7446 19.4178 28.4424 19.5414C29.0193 21.1898 32.4947 21.176 32.948 20.3656C32.7282 20.2146 32.2886 19.981 32.0826 19.8986C31.8765 19.8161 31.8903 19.8299 31.8765 19.4453C31.8628 19.0606 31.8353 18.3464 31.8078 18.154C31.7803 17.9617 29.6512 17.9617 29.3215 18.154Z" fill="#947BFB"/>
<path d="M29.4577 18.1538C29.4577 18.1538 29.4577 18.5521 29.4165 18.9367C29.4028 19.1153 29.3891 19.2252 29.3616 19.3625C29.3479 19.445 29.8286 19.7746 29.966 20.5027C30.6254 21.9724 32.1502 21.2444 32.782 20.5439C32.5622 20.3927 32.2051 20.1867 31.793 20.0219C31.5869 19.9394 31.6831 19.7609 31.6694 19.3763C31.6556 18.9917 31.6007 18.4284 31.5732 18.2224C31.5456 18.0164 29.7874 17.9614 29.4577 18.1538Z" fill="#D2CAFF"/>
<path d="M29.3205 18.154C29.3205 18.154 29.3068 18.4013 29.2656 18.6898C29.4441 18.8683 29.6777 19.1156 29.8563 19.2667C29.9799 19.3766 30.2821 19.3629 30.5569 19.3629C30.8041 19.3629 31.0239 19.3903 31.1201 19.3354C31.3399 19.2255 31.6558 18.9508 31.8344 18.7447C31.8207 18.4975 31.8069 18.2639 31.7932 18.154C31.7793 17.9617 29.6502 17.9617 29.3205 18.154Z" fill="#947BFB"/>
<path d="M30.5706 19.1978C30.4057 19.1978 30.2134 19.1842 30.0623 19.1566C29.9936 19.1429 29.9249 19.1017 29.87 19.0742C29.7738 19.0055 29.6776 18.9232 29.5678 18.8407C29.348 18.6759 29.3343 18.5797 29.3343 18.5386C29.4305 17.6731 29.3068 16.9451 29.3068 16.9451C29.3068 16.9451 29.2106 16.5742 29.7326 16.478C30.2546 16.3819 30.5705 16.3682 30.5705 16.3682C30.5705 16.3682 30.9002 16.3682 31.4084 16.478C31.9304 16.5742 31.8343 16.9451 31.8343 16.9451C31.8343 16.9451 31.7106 17.6731 31.8068 18.5386C31.8068 18.5797 31.7931 18.6759 31.5733 18.8407C31.3809 18.9781 31.2299 19.1291 31.0788 19.1566C30.9277 19.1842 30.7353 19.1978 30.5706 19.1978Z" fill="#947BFB"/>
<path d="M30.571 16.0117C29.6644 16.0117 29.4858 16.259 29.2248 16.5337C29.1699 16.6024 29.211 17.0145 29.3073 17.8936H29.4309C29.4309 17.8936 29.3484 17.6463 29.3622 17.3579C29.3759 17.0694 29.4309 17.0832 29.3896 17.0145C29.3347 16.932 29.2248 16.7946 29.4721 16.6573C29.7193 16.5199 30.1039 16.7672 30.571 16.7809C31.038 16.7672 31.4364 16.5199 31.6836 16.6573C31.9308 16.7946 31.821 16.932 31.7661 17.0145C31.7111 17.0969 31.7798 17.0694 31.7935 17.3579C31.8072 17.6463 31.7248 17.8936 31.7248 17.8936H31.8484C31.9308 17.0145 31.9858 16.6299 31.9446 16.5611C31.7111 16.259 31.4776 16.0254 30.571 16.0117Z" fill="#947BFB"/>
<path d="M34.9247 26.8362C34.9247 26.8362 34.6637 27.6742 34.1555 27.9626C34.0456 27.9077 34.0594 27.8253 33.9632 27.7016C33.9357 27.6605 33.8395 27.6329 33.7984 27.5918C33.7572 27.5505 33.7709 27.4818 33.7022 27.4269C33.6472 27.372 33.606 27.4132 33.5511 27.372C33.4962 27.3171 33.4823 27.2484 33.4412 27.2072C33.4137 27.1797 33.3038 27.166 33.2764 27.1385C33.2077 27.0698 32.6033 26.9462 32.6308 26.8088C32.6857 26.6027 32.7956 26.4516 32.7956 26.4516C32.7956 26.4516 33.0566 26.067 33.3175 26.0807C33.5785 26.0945 33.8258 26.1494 33.9632 26.0258C34.1143 25.8884 34.966 26.3967 34.9247 26.8362Z" fill="#947BFB"/>
<path d="M33.1388 20.7643C33.1388 20.7643 34.0042 20.5582 34.5949 21.1215C35.1856 21.6984 35.1443 22.4127 34.9658 22.8523C35.1169 23.0308 35.3916 23.5253 35.1856 24.116C36.0922 24.8852 35.6938 26.0666 34.8834 26.8496C34.8834 26.8496 34.6911 26.1353 33.9219 26.0941C33.9493 25.8194 33.2075 25.5995 33.5509 24.8852C33.029 24.7616 33.0427 24.4044 32.9603 23.9649C32.8916 23.5253 33.1388 20.7643 33.1388 20.7643Z" fill="#947BFB"/>
<path d="M32.8239 21.1492C32.8239 21.1492 33.8266 20.641 34.4173 21.2179C35.008 21.7949 34.8431 22.4267 34.6646 22.8663C34.8156 23.0448 35.1728 23.5531 34.953 24.1575C34.9118 24.2948 34.6096 24.2948 34.3897 24.652C34.9392 24.336 35.2826 24.4184 35.4063 24.8167C35.5986 25.4349 35.1727 26.1766 34.8019 26.5888C34.8019 26.575 34.7881 26.5612 34.7881 26.5476C34.7332 26.7537 34.6645 27.1519 34.2524 27.5915C34.0463 27.8113 33.8815 27.7839 33.648 27.7289C33.3733 27.6602 33.2771 27.5365 32.8925 27.3305C32.6727 27.2069 32.7964 27.0558 32.7964 26.9322C32.7964 26.9047 32.8238 26.8634 32.8651 26.8085C32.8925 26.7398 32.9749 26.63 33.0986 26.5064C33.0986 26.5064 33.2771 26.2591 33.5382 26.2728C33.7992 26.2866 34.0739 26.2317 34.1426 26.163C34.1426 25.6822 33.5932 25.6684 33.7854 24.8443C33.7992 24.803 33.8679 24.7343 34.0876 24.7069C33.7579 24.6382 33.6068 24.6244 33.3733 24.4047C33.2085 24.2536 33.0849 24.0613 33.0436 23.8141C32.9612 23.3882 32.8239 21.1492 32.8239 21.1492Z" fill="#D2CAFF"/>
<path d="M29.9241 20.2842C29.8417 20.1742 29.4159 19.6248 28.6054 19.405C28.3719 19.3363 28.2208 19.5286 27.9873 19.666C27.9186 19.6248 27.6164 19.4874 27.4516 19.5835C27.2868 19.6796 27.1769 19.7759 27.012 19.8445C26.9296 19.8033 26.7098 19.8033 26.5313 19.872C26.3527 19.9269 26.0779 20.0505 25.8169 20.4077C25.6521 20.9984 28.729 20.5588 28.729 20.5588L29.9241 20.2842Z" fill="#947BFB"/>
<path d="M29.9523 20.2837C29.5127 20.1325 29.5814 19.6243 28.6061 19.5419C28.4137 19.5281 28.2901 19.6792 28.1527 19.7754C28.2215 19.8441 28.2901 19.9539 28.3313 20.0638C28.2077 19.9265 27.9879 19.7479 27.7681 19.7066C27.562 19.6655 27.4247 19.8166 27.2049 19.9265C27.246 19.9676 27.2873 20.0364 27.3422 20.1188C27.1499 19.9952 27.0126 19.954 26.7516 20.0501C26.573 20.105 26.2296 20.2561 25.9686 20.6271C25.8038 21.2178 28.7434 20.5583 28.7434 20.5583L29.9523 20.2837Z" fill="#B3A0FF"/>
<path d="M32.5349 20.5035C32.5349 20.5035 32.5349 20.3524 32.5211 20.2151C32.5211 20.1877 32.4112 20.1189 32.4112 20.0915L32.3838 20.064C32.3838 20.064 32.6036 19.9404 32.7684 20.0091C32.9469 20.064 33.0431 20.2975 33.0431 20.2975C33.359 20.1877 33.3865 20.3113 33.5376 20.4761C33.8673 20.4074 33.9085 20.531 34.1145 20.8332C34.1145 20.8332 33.8673 20.792 33.3865 20.8744C32.9195 20.943 32.5349 20.4898 32.5349 20.5035Z" fill="#947BFB"/>
<path d="M32.4808 20.4337C32.4808 20.4337 32.5632 20.365 32.5357 20.3513C32.6867 20.2688 32.8928 20.1727 32.989 20.4337C33.3049 20.3238 33.3462 20.4749 33.4972 20.6398C33.8818 20.4613 33.9093 20.681 33.9368 20.7771C33.8132 20.7771 33.6347 20.7909 33.3874 20.8183C32.9203 20.8871 32.467 20.42 32.4808 20.4337Z" fill="#B3A0FF"/>
<path d="M27.8104 20.0908C27.8104 20.0908 28.5934 20.3655 29.2527 20.3243C29.9121 20.2694 31.0384 20.2144 31.6428 20.5716C31.6428 20.5716 32.261 20.3517 32.8379 20.5029C33.4149 20.6539 34.4726 21.643 34.1567 22.687C34.1292 22.7557 33.9506 22.8655 33.7446 22.9343C33.7446 22.9343 33.8545 23.4013 33.6621 23.7859C33.4698 24.1568 33.044 24.8711 33.0302 25.8601C33.0166 26.0249 32.9891 26.3683 32.9616 26.5331C31.8901 26.492 30.2418 26.0936 28.6209 26.1211C28.6346 25.9426 28.6483 25.8327 28.6621 25.6541H28.7032C28.6208 25.2007 28.5934 24.9672 28.5109 24.6238C27.9889 24.2942 27.4394 23.9096 26.9725 23.1815C26.5191 22.4534 27.8104 20.0908 27.8104 20.0908Z" fill="#947BFB"/>
<path d="M33.1119 27.5088C33.1119 27.5088 33.9636 30.5583 32.9609 31.8358C32.9609 31.8358 33.1119 32.4264 32.7685 33.0584C32.7136 33.333 32.6448 33.5803 32.6037 33.855C32.4251 34.9951 32.1229 35.4759 32.0405 37.3028L31.2162 37.2891C31.2162 37.2891 31.12 35.9704 30.8316 35.2699C30.6669 34.8716 30.0211 34.3358 30.0487 33.8001C30.0762 33.388 30.1586 33.0446 30.8592 32.4951C30.9141 31.6984 30.1174 30.9429 30.241 27.9758L33.1119 27.5088Z" fill="#947BFB"/>
<path d="M32.864 27.3857C33.0838 28.7869 33.592 30.8611 32.6716 31.8775C32.7128 32.0699 32.7403 32.3446 32.6853 32.6605C32.6579 32.8253 32.6029 33.0039 32.5343 33.1962C32.3969 33.5259 32.3419 34.0066 32.3007 34.2951C32.1221 35.4352 32.1221 35.4902 32.0397 37.3172L31.2155 37.3034C31.2155 37.3034 31.1193 35.9847 30.8309 35.2842C30.6661 34.8858 30.3227 34.5424 30.2952 34.0067C30.2678 33.5947 30.5562 32.7705 31.2431 32.7979C31.2019 31.1358 30.4326 31.4655 30.2266 28.0039L32.864 27.3857Z" fill="#D2CAFF"/>
<path d="M27.8091 20.0908C27.8091 20.0908 28.1113 20.187 28.4409 20.2144C28.7706 20.2419 29.1278 20.2144 29.4437 20.2007C30.103 20.1458 31.0371 20.0771 31.6553 20.4342C31.6553 20.4342 31.9987 20.3243 32.3696 20.3517C32.5344 20.3655 32.6993 20.5029 32.8916 20.5578C33.4959 20.7089 34.0729 21.7117 33.8118 22.6183C33.7844 22.687 33.592 22.6183 33.3723 22.687C33.4134 22.8794 33.441 23.3189 33.2211 23.7859C32.9877 24.253 32.6855 24.8574 32.7404 26.0113C31.298 25.9426 30.6524 25.8465 29.2238 25.7778C29.1002 25.2695 29.0177 24.7612 29.004 24.5003C29.1964 24.4041 29.3062 24.3217 29.4574 24.1569C29.0453 24.2256 28.8804 24.1981 28.6331 24.0607C28.3859 23.9233 27.9463 23.4837 27.7265 23.1953C27.6991 23.1678 27.548 23.6211 27.2046 23.6349C27.0809 23.4563 27.6029 22.948 27.5067 22.7557C27.1634 22.0551 27.8091 20.0908 27.8091 20.0908Z" fill="#D2CAFF"/>
<path d="M32.9748 26.2451C32.9748 26.2451 33.0022 26.7396 33.0022 26.8632C33.0022 27.0006 33.1121 27.4126 33.1258 27.605C32.9748 27.866 32.3154 28.4567 31.1203 28.6764C29.939 28.9237 28.373 27.0693 28.373 27.0693C28.4143 26.8907 28.5516 26.3687 28.6478 26.094C28.6616 26.0665 28.689 25.9978 28.689 25.9704C28.8127 25.7918 32.9748 26.2451 32.9748 26.2451Z" fill="#947BFB"/>
<path d="M32.6724 26.2861C32.6724 26.6295 32.7273 26.8768 32.7686 27.0966C32.8372 27.495 32.9471 27.756 32.9471 28.017C32.9471 28.8136 31.9031 28.6762 31.0239 28.7038C29.8426 28.9511 28.8398 27.0966 28.8398 27.0966C28.9223 26.7807 28.9772 26.4236 29.1008 26.1213C29.1145 25.9565 29.142 25.7505 29.1557 25.6543C30.8316 25.6543 32.0129 25.7505 32.6998 25.8191C32.7273 25.9702 32.6999 26.2312 32.6724 26.2861Z" fill="#D2CAFF"/>
<path d="M31.3539 28.0583C31.3539 28.0583 30.6259 26.4374 28.4418 26.9183C27.9199 28.388 27.2192 30.0776 27.6726 31.9046C27.2192 32.5227 26.6973 32.8662 26.6973 34.0062C26.6973 35.1464 26.7522 35.3387 26.7522 35.3387L28.3594 35.4212C28.3594 35.4212 28.8813 34.7481 29.0874 34.0201C29.1423 33.814 29.1973 33.4431 29.1561 33.0173C29.211 32.9349 29.4445 32.7426 29.472 32.3717C29.472 32.3717 30.255 31.9597 30.7083 30.9569C31.1342 30.0501 31.0243 29.2672 31.3539 28.0583Z" fill="#947BFB"/>
<path d="M31.3531 28.0584C31.312 27.9073 30.7625 26.4238 28.7295 26.8633C27.5344 30.0502 27.974 31.3689 28.1525 31.9458C27.342 32.976 26.9712 33.1958 27.1361 35.2837H28.2075C28.702 34.5008 28.8119 34.2123 28.8394 33.1821C28.8394 33.1409 28.6883 33.2645 28.5784 33.4019C28.6609 32.976 28.8943 32.8936 29.0729 32.6326C29.1553 32.5227 29.224 32.3579 29.224 32.1381C30.1855 31.4925 30.5427 30.682 30.7487 29.8441C30.9136 29.2672 31.1059 28.3194 31.3531 28.0584Z" fill="#D2CAFF"/>
<path d="M27.9608 25.8477C27.9608 25.8477 28.3317 25.8613 28.6614 25.9713C28.9774 26.0811 28.9774 26.1498 29.101 26.2872C29.2246 26.4247 29.5268 26.6306 29.4719 26.8367C29.4444 26.9466 29.3757 26.974 29.2796 27.0702C29.2384 27.1114 28.9361 27.441 28.8675 27.4822C28.8262 27.5097 28.7713 27.551 28.7301 27.5784C28.6889 27.6059 28.5653 27.6883 28.5241 27.7158C28.3867 27.7845 28.2905 27.8257 28.1395 27.812C28.1395 27.812 27.7961 27.7982 27.5762 27.5647C27.5762 27.5647 27.5488 27.4548 27.6037 27.3999C27.6037 27.3999 27.3152 27.1526 27.2328 26.9878C27.1503 26.823 27.1503 26.5895 27.2054 26.4659C27.2328 26.3421 27.7685 25.9987 27.9608 25.8477Z" fill="#947BFB"/>
<path d="M28.3042 39.2127L28.263 39.5562C28.263 39.5562 28.1394 39.7072 27.219 39.6935C26.2849 39.6798 26.0377 39.3913 25.9553 39.2402L25.9004 38.8831C25.9004 38.8831 26.079 38.6221 26.1202 38.6221C26.4224 38.6495 27.4526 39.0616 28.167 39.1715C28.2355 39.1715 28.2492 39.1989 28.3042 39.2127Z" fill="#947BFB"/>
<path d="M30.296 38.5119C30.296 38.663 30.2822 38.663 30.2822 38.8141C30.447 38.9377 30.8592 39.0064 31.6421 38.9926C32.7823 38.9651 33.84 39.3361 35.1312 39.1162L35.1449 38.869L35.0213 38.8553L30.447 38.4844L30.296 38.5119Z" fill="#947BFB"/>
<path d="M31.2995 38.9928C31.4095 38.9928 31.5193 38.9928 31.6429 38.9928C32.3848 38.9654 33.0853 39.1302 33.8408 39.1714C34.2391 39.1577 34.7337 39.0615 34.6925 38.7731L30.7913 38.4434C30.5578 38.7043 30.7363 38.9241 31.2995 38.9928Z" fill="#947BFB"/>
<path d="M26.8204 33.21C26.944 33.2924 27.782 33.7869 29.1419 33.7182C29.1144 33.9792 29.1281 34.4875 28.5237 35.3803C28.2215 35.8199 27.9605 36.5891 27.9056 37.5644C27.9193 37.7842 28.043 37.9765 27.8781 38.265C27.933 38.4435 28.1528 38.8007 28.2627 39.0204C28.3726 39.2403 28.4276 39.4875 27.6995 39.5013C26.9577 39.515 25.7626 39.4326 25.9275 38.8557C26.01 38.5535 26.2435 38.2375 26.271 38.1139C26.2984 37.9902 26.2984 37.6194 26.5319 37.3721C26.738 36.6853 26.6693 36.0259 26.6282 35.4078C26.5594 34.7621 26.5457 33.7319 26.8204 33.21Z" fill="#947BFB"/>
<path d="M28.0978 22.0147C29.0732 20.7097 28.2489 19.6658 26.683 19.9817C26.0511 20.1053 25.4193 20.5449 25.378 21.3416C25.172 21.3691 24.705 21.3965 24.4714 22.2482C24.2929 22.9075 24.1968 23.0312 23.8807 23.3608C23.6747 23.5943 23.8945 24.0751 24.0456 24.4186C24.5539 25.5999 26.1198 25.7098 27.1775 26.6027C27.5347 26.5065 27.9055 26.1082 28.0154 25.8472C27.1225 24.7894 27.3148 24.3774 26.9577 23.828C27.3423 23.6905 28.2215 23.1548 28.0978 22.0147Z" fill="#947BFB"/>
<path d="M27.9064 21.932C27.9613 21.8495 28.0575 21.671 28.0987 21.6023C28.1125 21.5885 28.2636 21.8495 28.2773 21.8358C28.6482 21.2313 28.7443 20.3522 28.3184 20.2698C28.2223 20.256 28.0438 20.2149 27.8926 20.1599C27.618 20.0637 27.3707 20.0637 26.9311 20.1462C26.3267 20.256 25.7223 20.6956 25.7223 21.3275C25.7223 21.3687 26.1481 21.4923 26.2717 22.0006C26.0656 21.7121 25.7085 21.3962 25.2827 21.6709C24.8294 21.9594 25.0629 22.6187 24.4585 23.3055C24.2524 23.539 24.2799 23.8138 24.4996 24.3632C24.8568 25.2287 26.5464 25.6957 27.4668 26.5199C27.6865 26.4237 27.8376 26.2039 27.9475 26.0391C27.3294 25.3935 27.0821 24.789 26.9036 24.3495C26.6838 23.8412 26.4365 23.5528 25.9557 23.1681C26.203 23.2642 26.3954 23.3604 26.5051 23.4428C26.6288 23.5252 26.8073 23.539 26.9722 23.484C27.563 23.2781 27.8789 22.4539 27.9064 21.932Z" fill="#D2CAFF"/>
<path d="M33.8809 22.152C33.8397 22.674 33.4551 22.413 33.2491 22.3169C32.837 22.1383 32.4248 22.0147 31.9441 22.0147C31.4633 22.0147 30.8452 22.0559 30.3095 22.1932C29.5677 22.3993 29.3479 22.3856 29.0182 22.2207C28.6886 22.0421 28.1117 21.6025 28.1117 21.6025C28.1117 21.6025 28.098 21.7399 28.2353 21.9185C28.4138 22.1383 28.8123 22.413 29.3479 22.5915C29.6089 22.674 29.815 22.619 30.0486 22.5641C31.2711 22.2619 32.5623 22.2069 33.6474 22.8663C33.7024 22.8937 33.8947 22.8113 33.9772 22.6877C34.0869 22.5092 33.8809 22.152 33.8809 22.152Z" fill="#947BFB"/>
<path d="M27.6309 27.3857C27.7407 27.4545 27.8781 27.4957 28.0292 27.6193C28.0292 27.6193 27.9055 27.6193 27.8506 27.5644C27.7819 27.5232 27.6445 27.3996 27.6309 27.3857Z" fill="#947BFB"/>
<path d="M31.6007 16.4919C31.5595 16.3683 31.2572 16.1484 30.5567 16.1484C29.8012 16.1484 29.5814 16.382 29.5677 16.5056C29.5677 16.5468 29.5128 16.9864 29.499 17.1649C29.499 17.1649 29.499 17.3847 29.5127 17.7144C29.5265 17.9342 29.5814 18.0578 29.6089 18.3463C29.6363 18.6484 29.7188 18.8407 29.8699 19.088C29.9386 19.1292 29.9935 19.1704 30.0622 19.1842C30.337 19.2391 30.8177 19.2529 31.0787 19.1842C31.2298 19.143 31.4221 18.882 31.4633 18.6485C31.5182 18.36 31.5732 18.1539 31.5869 17.9754C31.6144 17.7969 31.6281 17.3985 31.6418 17.2886C31.6831 16.9864 31.6144 16.5194 31.6007 16.4919Z" fill="#D2CAFF"/>
<path d="M30.1585 33.4707C30.1585 33.4707 30.8865 33.7867 32.686 33.5119C32.686 33.5119 32.1778 36.0669 32.4113 37.3443C32.4113 37.3443 32.6448 37.674 34.3756 38.3059C34.3756 38.3059 35.1448 38.4982 35.1174 38.8829C35.1174 38.8829 35.1448 38.9653 34.2108 38.9378C33.2768 38.9103 32.3976 38.7454 31.7794 38.7454C31.1613 38.7454 30.5019 38.7729 30.3921 38.5944C30.2685 38.4296 30.4195 38.0037 30.5981 37.7564C30.7905 37.4955 30.7355 37.3031 30.7218 36.8361C30.6804 35.6136 29.7463 34.3498 30.1585 33.4707Z" fill="#947BFB"/>
<path d="M30.0071 33.7043C29.9109 33.8417 30.0208 34.3636 30.1581 34.8719C30.2955 35.3801 30.5978 35.6824 30.6664 36.5203C30.7351 37.3444 30.7488 37.4544 30.5153 37.9351C30.2818 38.4158 30.2131 38.8554 31.0235 38.8692C31.8339 38.8829 32.2736 38.8554 33.0977 38.9791C33.922 39.1027 34.2104 39.1439 34.6637 39.0753C35.1171 39.0066 35.2132 38.8554 35.0209 38.7181C34.8286 38.5807 34.0318 38.4297 33.6884 38.1548C33.3587 37.9076 32.4247 37.4955 32.411 37.3856C32.3698 37.0147 32.356 35.6686 32.4247 35.229C32.4934 34.7894 32.5895 34.1575 32.617 33.9927C32.6446 33.8279 32.7819 33.663 32.5483 33.718C32.3148 33.7729 31.4357 33.8965 30.7764 33.8553C30.117 33.8142 30.0483 33.6631 30.0071 33.7043Z" fill="#B3A0FF"/>
<path opacity="0.3" d="M30.4749 37.9492C30.7083 38.0591 31.0518 38.1416 31.3128 38.1416C31.3128 38.1416 31.2166 38.5949 31.3677 38.8696C31.5187 39.1443 30.2688 38.9795 30.2688 38.9795L30.2139 38.0042L30.4749 37.9492Z" fill="#947BFB"/>
<path opacity="0.3" d="M34.1156 39.1301C34.3354 39.0614 34.4865 38.8142 34.3079 38.5807C34.1156 38.3471 33.9508 38.3059 34.198 38.2922C34.4453 38.2785 35.3519 38.8279 35.3519 38.8279L34.8848 39.2537L34.1156 39.1301Z" fill="#947BFB"/>
<path opacity="0.3" d="M29.9659 34.2406C30.2819 34.3505 30.7626 34.378 31.1748 34.3642C31.5868 34.3505 32.205 34.2955 32.6034 34.1582C33.0017 34.0208 32.8369 34.3093 32.8369 34.3093L32.6171 34.5153C32.6171 34.5153 32.0951 34.7214 31.2435 34.7077C30.2407 34.6939 29.9385 34.5841 29.9385 34.5841L29.9659 34.2406Z" fill="#947BFB"/>
<path opacity="0.3" d="M29.9941 34.9275C30.3102 35.0374 30.7909 35.0649 31.203 35.0511C31.615 35.0374 32.1645 35.0374 32.5629 34.8863C32.7277 34.8314 32.6316 35.0649 32.6316 35.0649L32.5629 35.1885C32.5629 35.1885 32.0272 35.3808 31.1892 35.367C30.1865 35.3533 30.0079 35.2708 30.0079 35.2708L29.9941 34.9275Z" fill="#947BFB"/>
<path d="M29.0869 25.2979C29.0869 25.394 30.1584 25.9297 30.749 26.0396C31.3397 26.1495 32.576 26.0396 32.7683 25.9984L32.7408 26.1907C32.7408 26.1907 31.271 26.4105 30.1446 26.1083C29.0182 25.8061 29.1419 25.7374 29.1419 25.7374L29.0869 25.2979Z" fill="#947BFB"/>
<path d="M26.7939 37.0143C26.9588 37.0967 27.5495 37.2478 27.9341 37.1654C27.989 37.1516 27.9341 36.2175 28.0852 35.7917C28.305 35.201 28.6621 34.7203 28.8269 33.6764C28.25 33.6214 27.5907 33.4703 27.2472 33.3604C26.8077 34.7066 26.9588 35.8604 26.7939 37.0143Z" fill="#D2CAFF"/>
<path d="M27.7139 37.8796C27.81 37.907 27.8787 38.0169 27.9062 37.9483C27.9611 37.8246 27.81 37.5911 27.7963 37.4263C27.7963 37.4126 27.7963 37.4263 27.7963 37.4126C27.6727 37.3027 26.8347 37.289 26.8897 37.3438C26.7935 37.5224 26.6425 37.495 26.5876 37.8521C26.5601 38.0306 26.7799 37.8796 26.9859 37.8658C26.615 38.1131 26.1892 38.4291 26.1205 38.7038C26.0381 39.0884 26.1754 39.1983 26.5876 39.4044C26.9447 39.4868 27.3705 39.5006 27.7002 39.4868C28.0711 39.4181 28.1398 39.2396 28.0299 38.9923C27.8649 38.6213 27.7551 38.1406 27.7139 37.8796Z" fill="#D2CAFF"/>
<path d="M27.8645 20.0352C28.3178 20.2961 28.9497 20.2275 29.1832 20.2137C29.2381 20.2137 29.7876 20.1176 29.8151 20.1313C29.87 20.145 29.87 20.1862 29.87 20.1862C29.87 20.1862 29.6639 20.2961 29.1969 20.3235C28.7574 20.351 28.2354 20.3235 27.9469 20.1862C27.6035 20.0352 27.8645 20.0352 27.8645 20.0352Z" fill="#947BFB"/>
<path d="M32.5357 20.2974C32.6181 20.3523 33.1539 20.5583 33.3874 20.8056C33.5934 21.0254 33.4836 21.0117 33.4423 20.9567C33.3874 20.888 32.9615 20.5996 32.7967 20.5309C32.6319 20.4622 32.4258 20.3386 32.4258 20.3111C32.4258 20.2837 32.5357 20.2974 32.5357 20.2974Z" fill="#947BFB"/>
<path d="M27.7947 25.9977C28.193 25.9702 28.6052 26.0664 28.8661 26.3411C29.0035 26.4784 29.2233 26.6295 29.1959 26.7669C29.1959 26.8081 29.1134 26.918 29.0448 27.0004C29.0036 27.0553 28.88 27.1789 28.8387 27.2202C28.7838 27.2614 28.5915 27.4125 28.5503 27.44C28.5091 27.4675 28.4541 27.5362 28.4129 27.5499C28.2756 27.6186 28.1244 27.5637 27.9871 27.495C27.8498 27.4263 28.0146 27.4125 27.8635 27.3027C27.4926 27.0417 27.2865 26.863 27.4376 26.3548C27.4513 26.2587 27.6024 26.1487 27.7947 25.9977Z" fill="#D2CAFF"/>
<path opacity="0.4" d="M24.2934 22.8528C23.0571 23.3473 19.9114 24.9133 19.0186 25.3941C19.7603 25.8611 20.1037 26.9875 20.2136 28.1276C20.2273 28.2375 20.2411 28.3337 20.2548 28.4435C20.2685 28.5397 20.2823 28.6083 20.296 28.6496C20.296 28.6634 20.296 28.6908 20.3097 28.7045C21.1202 26.493 24.0186 24.1578 24.1285 23.9792C24.1834 23.8968 24.0598 23.5396 24.2521 23.1963C24.4994 22.7566 24.9802 22.5643 24.2934 22.8528Z" fill="#947BFB"/>
<path opacity="0.4" d="M27.2316 33.2232C27.8634 31.9595 27.8772 30.7506 27.8634 29.3358C27.8634 28.7451 28.2892 27.9071 28.0695 28.1407C27.2453 29.0609 25.1711 30.7918 23.6738 30.8879C25.7755 30.8193 26.5997 31.877 27.2316 33.2232Z" fill="#947BFB"/>
<path d="M17.8086 26.5604C18.5916 25.9973 22.6438 23.8407 23.6191 23.5384C24.5944 23.2225 24.2922 22.8516 24.2922 22.8516C24.2922 22.8516 20.3361 24.5549 17.9734 26.0247" fill="#947BFB"/>
<path opacity="0.4" d="M29.3473 22.5906C29.0313 22.4669 28.7841 22.8379 28.8665 23.195C28.949 23.5522 29.6907 23.9505 29.6495 25.2555C29.622 26.327 29.3885 26.7665 29.3885 26.7665L28.8665 26.1072C28.8665 26.1072 28.7841 24.6236 28.6055 24.4038C28.427 24.184 27.8637 23.7856 27.644 23.5796C27.4242 23.3735 27.8912 23.0988 27.8637 22.7142C27.8363 22.3433 28.0973 21.6016 28.0973 21.6016L29.3473 22.5906Z" fill="#947BFB"/>
<path opacity="0.4" d="M31.2574 28.4424C31.23 29.4726 31.4635 30.9974 31.5596 31.7255C31.6558 32.4535 31.7794 32.5084 31.5596 32.8381C31.3398 33.1541 31.0514 33.6761 31.0514 33.6761L30.1035 33.5936C30.1035 33.5936 30.859 32.632 30.9002 32.4535C30.9414 32.2749 30.5156 30.915 30.5156 30.915L31.2574 28.4424Z" fill="#947BFB"/>
<path opacity="0.4" d="M29.4297 18.8267C29.622 19.2525 29.8555 19.4448 30.2263 19.5685C30.4461 19.6509 31.3115 19.7608 31.655 19.3761C31.806 19.1976 31.7099 18.7168 31.7099 18.7168L30.9269 19.3486L29.8692 19.1564L29.7456 18.8404L29.4297 18.8267Z" fill="#947BFB"/>
<path d="M29.5112 19.7754C29.8684 20.0089 30.7613 20.2287 31.0085 20.2699C31.2557 20.3248 31.6541 20.0089 31.8464 19.9265C32.0525 19.8304 32.4097 19.7754 32.8217 20.1463C32.8629 20.1875 32.7256 20.3661 32.7256 20.3661C32.7118 20.3523 32.6294 20.3523 32.5195 20.2974C32.4096 20.2425 32.3135 20.2012 32.1486 20.215C31.4618 20.2974 31.3519 20.5309 30.7475 20.3935C30.1431 20.256 29.992 20.1462 29.4014 20.1737" fill="#B3A0FF"/>
<path d="M29.5112 19.7754C29.8684 20.0089 30.7613 20.2287 31.0085 20.2699C31.2557 20.3248 31.6541 20.0089 31.8464 19.9265C32.0525 19.8304 32.4097 19.7754 32.8217 20.1463C32.8629 20.1875 32.7256 20.3661 32.7256 20.3661C32.7118 20.3523 32.6294 20.3523 32.5195 20.2974C32.4096 20.2425 32.3135 20.2012 32.1486 20.215C31.4618 20.2974 31.3519 20.5309 30.7475 20.3935C30.1431 20.256 29.992 20.1462 29.4014 20.1737" stroke="#947BFB" stroke-width="1.586" stroke-miterlimit="10" stroke-linejoin="round"/>
<path d="M29.3886 19.8164C29.842 20.0087 30.7211 20.2148 30.9683 20.2697C31.2156 20.3247 31.6139 20.0774 31.8063 19.9538C32.1497 19.734 32.5892 19.9126 32.7953 20.1461C32.9326 20.2972 32.9877 20.3933 32.9877 20.4346C32.9877 20.4894 32.8228 20.4346 32.8228 20.4346C32.7267 20.3933 32.6167 20.3797 32.5344 20.3246C32.4245 20.2697 32.3146 20.1873 32.1498 20.201C31.4629 20.2835 31.3256 20.517 30.7349 20.3796C30.1443 20.2422 29.9932 20.1186 29.3613 20.1597" fill="#B3A0FF"/>
<path d="M27.2599 32.6463C27.2324 32.6189 27.2873 32.5914 27.2599 32.5914C27.0814 32.5914 26.8341 32.454 26.6966 32.2617C26.106 31.4101 25.2405 30.8469 23.6746 30.8881C21.3256 30.943 20.3915 29.9815 20.213 28.1408C20.1169 27.1381 19.8421 26.1628 19.2789 25.6133L18.9492 25.8194C19.5811 26.3688 19.7871 27.2617 19.9245 28.4842C20.1443 30.3249 21.6278 31.1766 23.3587 31.204C25.1581 31.2315 25.8037 31.6024 26.4768 32.5091C26.6966 32.7975 26.9439 32.8937 27.1361 32.9349L27.2599 32.6463Z" fill="#947BFB"/>
<path opacity="0.4" d="M33.633 23.8135C33.6742 24.0195 33.7841 24.4179 34.0039 24.6101C34.1001 24.7063 34.1138 24.7338 34.0314 24.7338C33.9489 24.7338 33.3445 24.7063 33.3445 24.7063L33.1797 24.4179L33.633 23.8135Z" fill="#947BFB"/>
<circle cx="28" cy="28" r="27.5" stroke="#947BFB"/>
</svg>
