<svg width="56" height="56" viewBox="0 0 56 56" fill="none" xmlns="http://www.w3.org/2000/svg">
<circle cx="28" cy="28" r="27.5" stroke="#947BFB"/>
<path d="M49.5 28C49.5 39.8741 39.8741 49.5 28 49.5C16.1259 49.5 6.5 39.8741 6.5 28C6.5 16.1259 16.1259 6.5 28 6.5C39.8741 6.5 49.5 16.1259 49.5 28Z" stroke="#947BFB"/>
<path fill-rule="evenodd" clip-rule="evenodd" d="M27.9663 36.0702C26.4019 36.0702 25.193 35.8352 24.6117 35.6952C24.2142 35.5994 23.895 35.5003 23.6525 35.3985L24.4278 36.7231L24.7311 40.8617C24.7311 41.3256 26.205 41.7017 28.0231 41.7017C29.8412 41.7017 31.3151 41.3256 31.3151 40.8617L31.5552 36.678L32.2888 35.3946C32.0453 35.4978 31.7232 35.5982 31.3207 35.6952C30.7394 35.8352 29.5306 36.0702 27.9663 36.0702ZM32.314 22.6031C31.1658 22.7634 29.6419 22.8518 28.0231 22.8518C26.4043 22.8518 24.8804 22.7634 23.7322 22.6031C23.1635 22.5236 22.7135 22.4299 22.3948 22.3247C22.3188 22.2996 22.1899 22.2567 22.0659 22.1884L22.7773 28.7355C22.8104 28.6227 22.8472 28.5101 22.888 28.3979C22.9715 28.168 23.0681 27.9431 23.1777 27.7235C23.2875 27.504 23.4069 27.2964 23.536 27.1009C23.665 26.9055 23.8024 26.7255 23.948 26.5611C24.0937 26.3967 24.2431 26.2553 24.3966 26.1368C24.5499 26.0184 24.7047 25.9258 24.861 25.8592C25.0174 25.7925 25.1722 25.7591 25.3255 25.7591C25.5022 25.7591 25.6731 25.8074 25.8382 25.904C26.0032 26.0006 26.1574 26.157 26.3012 26.3731C26.3341 26.4214 26.3551 26.4703 26.3637 26.5197C26.3725 26.5692 26.3768 26.6157 26.3768 26.6594C26.3768 26.7629 26.3521 26.8446 26.3026 26.9043C26.2531 26.9641 26.1944 26.994 26.1265 26.994C26.0642 26.994 26.0065 26.9612 25.9531 26.8957C25.8997 26.8302 25.84 26.7365 25.774 26.6146C25.7118 26.5042 25.6434 26.4243 25.5687 26.3748C25.4939 26.3254 25.4129 26.3007 25.3255 26.3007C25.1896 26.3007 25.0445 26.357 24.8902 26.4697C24.7358 26.5823 24.5829 26.7313 24.4315 26.9164C24.2801 27.1015 24.1349 27.3131 23.9961 27.5511C23.8573 27.7891 23.7344 28.0328 23.6277 28.2823C23.5209 28.5319 23.436 28.778 23.3729 29.0206C23.3098 29.2631 23.2782 29.481 23.2782 29.6741C23.2782 29.7386 23.2827 29.8048 23.2913 29.8725C23.3001 29.9404 23.3166 30.0019 23.3409 30.0571C23.3651 30.1123 23.3981 30.1577 23.4398 30.1932C23.4816 30.229 23.5345 30.2467 23.5985 30.2467C23.6704 30.2467 23.7519 30.2226 23.8433 30.1743C23.9345 30.1261 24.0291 30.0628 24.1271 29.9847C24.2252 29.9064 24.3237 29.8179 24.4227 29.719C24.5218 29.6202 24.614 29.5202 24.6994 29.4189C24.7848 29.3178 24.8605 29.2206 24.9265 29.1275C24.9925 29.0344 25.042 28.9533 25.0751 28.8843L25.3459 28.0736C25.3789 27.9863 25.4221 27.9242 25.4755 27.8874C25.5289 27.8506 25.5838 27.8322 25.6401 27.8322C25.6672 27.8322 25.6944 27.8368 25.7216 27.846C25.7488 27.8552 25.773 27.8696 25.7944 27.8891C25.8158 27.9087 25.8328 27.9339 25.8454 27.965C25.858 27.996 25.8643 28.0323 25.8643 28.0736C25.8643 28.184 25.8546 28.2874 25.8352 28.3841C25.8158 28.4808 25.791 28.575 25.7609 28.667C25.7308 28.7589 25.6973 28.8515 25.6604 28.9446C25.6235 29.0378 25.5876 29.1349 25.5527 29.2362C25.5449 29.2477 25.5309 29.2838 25.5104 29.3447C25.4901 29.4057 25.4654 29.4823 25.4362 29.5741C25.4071 29.6662 25.3755 29.769 25.3415 29.8829C25.3075 29.9967 25.2727 30.1128 25.2368 30.2313C25.2008 30.3497 25.1664 30.4658 25.1334 30.5797C25.1003 30.6935 25.0706 30.7964 25.0445 30.8884C25.0183 30.9803 24.9965 31.0573 24.979 31.1195C24.9615 31.1816 24.9508 31.2183 24.9469 31.23C24.9372 31.2666 24.9216 31.3075 24.9004 31.3523C24.879 31.3971 24.8538 31.4397 24.8246 31.4799C24.7955 31.5201 24.7635 31.5536 24.7285 31.5799C24.6936 31.6063 24.6577 31.6196 24.6207 31.6196C24.5586 31.6196 24.5135 31.5989 24.4854 31.5576C24.4572 31.5162 24.4432 31.4403 24.4432 31.33V31.2817C24.4432 31.2655 24.4441 31.2482 24.446 31.23C24.4479 31.1931 24.4625 31.1241 24.4898 31.0228C24.5169 30.9217 24.5494 30.8074 24.5873 30.6797C24.6252 30.5521 24.666 30.4198 24.7097 30.283C24.7532 30.1462 24.7926 30.0238 24.8276 29.9157C24.7246 30.0307 24.613 30.1451 24.4927 30.2589C24.3722 30.3727 24.2489 30.4751 24.1228 30.5658C23.9965 30.6567 23.8694 30.7309 23.7413 30.7884C23.6132 30.8458 23.4899 30.8747 23.3714 30.8747C23.2355 30.8747 23.1186 30.8447 23.0204 30.7849C23.0028 30.774 22.9861 30.7619 22.9694 30.7498L23.3653 34.9002C23.4683 35.1585 25.4084 35.793 27.9663 35.793C30.5254 35.793 32.4661 35.1578 32.5674 34.8997L33.136 29.9654C33.089 30.0085 33.0431 30.0507 32.9993 30.0916C32.8362 30.2433 32.6823 30.3738 32.5377 30.483C32.3931 30.5923 32.2518 30.6769 32.114 30.7365C31.976 30.7964 31.8285 30.8263 31.6713 30.8263C31.5237 30.8263 31.4096 30.7941 31.329 30.7297C31.2485 30.6654 31.2082 30.5769 31.2082 30.4641V30.4383C31.2082 30.4302 31.2092 30.4204 31.2112 30.4089C31.2189 30.34 31.2491 30.2605 31.3015 30.1709C31.3539 30.0812 31.4169 29.9881 31.4907 29.8915C31.5645 29.7949 31.643 29.6972 31.7266 29.5983C31.8101 29.4994 31.8873 29.4057 31.9582 29.3171C32.029 29.2287 32.0877 29.1477 32.1343 29.074C32.181 29.0004 32.2043 28.9407 32.2043 28.8946C32.2043 28.8671 32.1945 28.8452 32.1751 28.829C32.1557 28.8131 32.1236 28.8049 32.079 28.8049C32.0013 28.8049 31.9212 28.8251 31.8388 28.8653C31.7562 28.9055 31.6746 28.9597 31.5941 29.0274C31.5135 29.0953 31.4349 29.173 31.3582 29.2603C31.2816 29.3477 31.2097 29.4385 31.1427 29.5327C31.0757 29.6271 31.0146 29.722 30.9593 29.8174C30.9039 29.9128 30.8568 30.0008 30.8179 30.0812C30.8063 30.1065 30.7898 30.1422 30.7684 30.1881C30.7471 30.2341 30.7238 30.2859 30.6985 30.3434C30.6732 30.4009 30.6466 30.4602 30.6184 30.5209C30.5903 30.582 30.5646 30.6395 30.5413 30.6935C30.518 30.7476 30.4972 30.7957 30.4788 30.8383C30.4602 30.8808 30.4471 30.9102 30.4394 30.9264C30.4297 30.947 30.4136 30.986 30.3913 31.0435C30.369 31.1011 30.3432 31.1684 30.3142 31.2453C30.2851 31.3223 30.2545 31.4034 30.2224 31.4886C30.1905 31.5736 30.1603 31.6542 30.1321 31.73C30.1039 31.8059 30.0792 31.8726 30.0579 31.9301C30.0366 31.9875 30.0229 32.0267 30.017 32.0474C29.9977 32.1072 29.9748 32.1634 29.9487 32.2165C29.9224 32.2693 29.8924 32.3158 29.8584 32.3562C29.8244 32.3964 29.7856 32.4285 29.7419 32.4526C29.6982 32.4769 29.6492 32.4889 29.5949 32.4889C29.5249 32.4889 29.4673 32.4721 29.4215 32.4389C29.376 32.4055 29.3531 32.3416 29.3531 32.2474C29.3531 32.2014 29.3589 32.1543 29.3706 32.1061C29.3822 32.0578 29.3969 32.0099 29.4143 31.9629C29.4318 31.9156 29.4498 31.8698 29.4682 31.8249C29.4866 31.78 29.5036 31.737 29.5191 31.6955C29.624 31.4656 29.7308 31.2351 29.8395 31.0039C29.9481 30.7729 30.0525 30.5441 30.1526 30.3175C30.1734 30.2703 30.1925 30.224 30.2128 30.177C30.2067 30.183 30.2007 30.1892 30.1948 30.195C30.0685 30.317 29.9429 30.4244 29.8177 30.5175C29.6924 30.6107 29.5681 30.6848 29.4449 30.7401C29.3216 30.7952 29.2017 30.8228 29.0851 30.8228C29.0056 30.8228 28.9391 30.8102 28.8858 30.7849C28.8323 30.7595 28.7897 30.725 28.7576 30.6814C28.7255 30.6378 28.7027 30.586 28.6891 30.5262C28.6845 30.5058 28.6817 30.4844 28.6787 30.4631C28.6446 30.4897 28.6102 30.5155 28.5756 30.5401C28.4552 30.625 28.3368 30.6935 28.2203 30.7452C28.1038 30.797 27.9989 30.8228 27.9058 30.8228C27.8126 30.8228 27.7369 30.7918 27.6785 30.7297C27.6203 30.6677 27.5913 30.5618 27.5913 30.4124C27.5913 30.3065 27.6068 30.1835 27.6378 30.0433C27.5873 30.133 27.5243 30.2238 27.4486 30.3157C27.3728 30.4078 27.2864 30.4917 27.1894 30.5676C27.0922 30.6435 26.9835 30.705 26.8632 30.7521C26.7428 30.7993 26.6117 30.8228 26.47 30.8228C26.4059 30.8228 26.3443 30.8148 26.2851 30.7987C26.2258 30.7826 26.1739 30.755 26.1293 30.7159C26.0846 30.6769 26.0488 30.6245 26.0215 30.559C25.9944 30.4935 25.9808 30.4112 25.9808 30.3123C25.9808 30.3101 25.9847 30.275 25.9924 30.2071C26.0002 30.1392 26.0249 30.0323 26.0667 29.8863C26.1084 29.7403 26.173 29.5511 26.2603 29.3188C26.3477 29.0866 26.471 28.8049 26.6302 28.4738C26.671 28.3864 26.7181 28.3237 26.7714 28.2858C26.8249 28.2479 26.8825 28.2289 26.9446 28.2289C26.9719 28.2289 27 28.233 27.0291 28.2409C27.0583 28.249 27.0854 28.2616 27.1107 28.2789C27.1359 28.2962 27.1563 28.3181 27.1719 28.3445C27.1873 28.3709 27.1952 28.4013 27.1952 28.4358C27.1952 28.4588 27.1922 28.4808 27.1864 28.5013C27.1766 28.5406 27.1558 28.5916 27.1239 28.6548C27.0918 28.7181 27.0544 28.7906 27.0116 28.8722C26.969 28.9538 26.9238 29.0418 26.8763 29.1362C26.8287 29.2303 26.7845 29.3281 26.7438 29.4293C26.703 29.5306 26.668 29.6334 26.6389 29.738C26.6098 29.8427 26.5933 29.9445 26.5895 30.0433C26.5895 30.0847 26.5991 30.1226 26.6186 30.1571C26.638 30.1916 26.6701 30.2088 26.7147 30.2088C26.8408 30.2088 26.9612 30.1674 27.0758 30.0847C27.1903 30.0019 27.2961 29.899 27.3932 29.776C27.4903 29.6529 27.5781 29.5206 27.6568 29.3792C27.7354 29.2378 27.8009 29.1085 27.8533 28.9912C27.8902 28.9131 27.9227 28.829 27.9509 28.7394C27.979 28.6497 28.0096 28.567 28.0426 28.491C28.0757 28.4151 28.1135 28.3519 28.1562 28.3013C28.1988 28.2508 28.2523 28.2254 28.3163 28.2254C28.3863 28.2254 28.4415 28.2519 28.4824 28.3048C28.5232 28.3577 28.5435 28.4209 28.5435 28.4944C28.5435 28.5358 28.5304 28.5928 28.5042 28.6653C28.4779 28.7377 28.4449 28.8205 28.4052 28.9136C28.3653 29.0068 28.3221 29.1062 28.2756 29.2119C28.2291 29.3178 28.1857 29.4252 28.1461 29.5345C28.1061 29.6437 28.0733 29.7507 28.047 29.8553C28.0207 29.9599 28.0077 30.0571 28.0077 30.1467C28.0077 30.2295 28.0504 30.271 28.1358 30.271C28.196 30.271 28.2707 30.2503 28.36 30.2088C28.4494 30.1674 28.5431 30.1094 28.6411 30.0346C28.6655 30.0159 28.6902 29.9965 28.7147 29.976C28.742 29.8631 28.7741 29.7588 28.8115 29.6639C28.8794 29.4844 28.9483 29.3063 29.0183 29.1292C29.0881 28.9522 29.1522 28.79 29.2105 28.6428L30.0928 26.418C30.1278 26.3283 30.1749 26.265 30.234 26.2282C30.2933 26.1915 30.353 26.173 30.4132 26.173C30.4733 26.173 30.5281 26.1926 30.5777 26.2317C30.6272 26.2708 30.652 26.334 30.652 26.4214C30.652 26.4628 30.6437 26.5065 30.6272 26.5525C30.6107 26.5985 30.5899 26.6479 30.5646 26.7008C30.5161 26.809 30.4583 26.9411 30.3913 27.0975C30.3243 27.2539 30.2524 27.4241 30.1758 27.608C30.0991 27.792 30.0204 27.9834 29.9399 28.1823C29.8594 28.3813 29.7807 28.575 29.704 28.7635C29.6274 28.9522 29.5555 29.1308 29.4885 29.2999C29.4215 29.4689 29.3639 29.6156 29.3152 29.7397C29.2939 29.7926 29.273 29.8542 29.2527 29.9243C29.2323 29.9944 29.2221 30.0571 29.2221 30.1123C29.2221 30.1467 29.228 30.1743 29.2396 30.195C29.2513 30.2157 29.2736 30.2261 29.3066 30.2261C29.3473 30.2261 29.3982 30.2118 29.4594 30.183C29.5206 30.1543 29.5865 30.1162 29.6574 30.0691C29.7284 30.022 29.8021 29.968 29.8787 29.907C29.9555 29.8461 30.0317 29.7829 30.1073 29.7173C30.1831 29.6517 30.2554 29.5862 30.3243 29.5206C30.3932 29.4552 30.4549 29.3948 30.5093 29.3396C30.5221 29.3263 30.5373 29.317 30.5541 29.31C30.5869 29.212 30.6168 29.1161 30.6432 29.0223C30.6588 28.9809 30.6802 28.9223 30.7073 28.8463C30.7344 28.7704 30.7656 28.6957 30.8005 28.6221C30.8354 28.5486 30.8748 28.4847 30.9184 28.4307C30.9621 28.3767 31.0092 28.3496 31.0597 28.3496C31.1374 28.3496 31.1937 28.3675 31.2286 28.403C31.2636 28.4388 31.281 28.491 31.281 28.5601C31.281 28.5739 31.2791 28.5957 31.2752 28.6255C31.2712 28.6555 31.2665 28.6872 31.2607 28.7205C31.2549 28.7538 31.2485 28.7854 31.2417 28.8154C31.2349 28.8452 31.2286 28.8671 31.2228 28.8809C31.2945 28.8026 31.3722 28.7251 31.4557 28.6481C31.5392 28.571 31.6256 28.5013 31.7149 28.4393C31.8043 28.3772 31.8955 28.3267 31.9888 28.2874C32.0819 28.2485 32.1751 28.2289 32.2683 28.2289C32.3323 28.2289 32.3959 28.2381 32.459 28.2565C32.5221 28.2749 32.5785 28.3019 32.6279 28.3375C32.6774 28.3733 32.7178 28.4181 32.7488 28.4721C32.7798 28.5261 32.7953 28.5887 32.7953 28.6601C32.7953 28.7544 32.7716 28.855 32.724 28.9619C32.6765 29.0689 32.6168 29.1764 32.5449 29.2843C32.4731 29.3925 32.3954 29.4976 32.312 29.6C32.2285 29.7024 32.1504 29.7954 32.0776 29.8794C32.0047 29.9634 31.9435 30.0346 31.894 30.0932C31.8446 30.152 31.8187 30.1916 31.8169 30.2123C31.8169 30.2399 31.8257 30.2623 31.8431 30.2796C31.8606 30.2968 31.8897 30.3055 31.9304 30.3055C31.9634 30.3055 32.0121 30.287 32.076 30.2503C32.1401 30.2135 32.23 30.1497 32.3454 30.0588C32.4609 29.968 32.6076 29.8461 32.7852 29.6931C32.907 29.5884 33.0497 29.4634 33.2104 29.3213L33.9806 22.1881C33.8565 22.2566 33.7275 22.2996 33.6514 22.3247C33.3328 22.4299 32.8828 22.5236 32.314 22.6031ZM28.0185 20.9106C24.6887 20.9106 21.9893 21.283 21.9893 21.7423C21.9893 22.2016 24.6887 22.5739 28.0185 22.5739C31.3483 22.5739 34.0477 22.2016 34.0477 21.7423C34.0477 21.283 31.3483 20.9106 28.0185 20.9106ZM30.4259 21.9853C30.4259 22.0931 30.1051 22.1805 29.7093 22.1805C29.3136 22.1805 28.9928 22.0931 28.9928 21.9853C28.9928 21.8775 29.3136 21.7901 29.7093 21.7901C30.1051 21.7901 30.4259 21.8775 30.4259 21.9853Z" fill="#947BFB"/>
<path fill-rule="evenodd" clip-rule="evenodd" d="M29.1392 21.899C29.1357 21.9046 29.1338 21.9104 29.1338 21.9163C29.1338 21.9861 29.3921 22.0426 29.7106 22.0426C30.0292 22.0426 30.2874 21.9861 30.2874 21.9163L31.0408 18.8616L34.0369 15.6984C34.0379 15.6974 34.0388 15.6964 34.0397 15.6954C34.1032 15.6237 33.9745 15.4017 33.7609 15.2113C33.5474 15.0209 33.3169 14.9565 33.2452 15.029C33.2447 15.0295 33.2441 15.0301 33.2436 15.0306L30.0469 18.3944L29.1392 21.899Z" fill="#947BFB"/>
</svg>
