<svg width="56" height="56" viewBox="0 0 56 56" fill="none" xmlns="http://www.w3.org/2000/svg">
<circle cx="28" cy="28" r="27.5" stroke="#947BFB"/>
<path d="M49.5 28C49.5 39.8741 39.8741 49.5 28 49.5C16.1259 49.5 6.5 39.8741 6.5 28C6.5 16.1259 16.1259 6.5 28 6.5C39.8741 6.5 49.5 16.1259 49.5 28Z" stroke="#947BFB"/>
<path d="M20.6043 36.0068L19 18H36.6373L35.0331 35.9971L27.8041 38" fill="#947BFB"/>
<path d="M27.8203 36.4684V19.4775H35.0298L33.6541 34.8398" fill="#AD9AFC"/>
<path d="M22.2773 21.6802H27.8194V23.8873H24.6983L24.9025 26.1478H27.8194V28.3501H22.8802L22.2773 21.6802ZM22.9774 29.4585H25.1942L25.3498 31.2232L27.8194 31.8844V34.1887L23.2885 32.9247" fill="#10164A"/>
<path d="M33.3409 21.6802H27.8086V23.8873H33.1367L33.3409 21.6802ZM32.9374 26.1478H27.8086V28.3549H30.531L30.2733 31.2232L27.8086 31.8844V34.179L32.3297 32.9247" fill="#10164A"/>
</svg>
