<svg width="56" height="56" viewBox="0 0 56 56" fill="none" xmlns="http://www.w3.org/2000/svg">
<path d="M49.5 28C49.5 39.8741 39.8741 49.5 28 49.5C16.1259 49.5 6.5 39.8741 6.5 28C6.5 16.1259 16.1259 6.5 28 6.5C39.8741 6.5 49.5 16.1259 49.5 28Z" stroke="#947BFB"/>
<path fill-rule="evenodd" clip-rule="evenodd" d="M34.62 29.3781C35.4734 29.3781 36.1675 28.6839 36.1675 27.8306C36.1675 26.9773 35.4734 26.2831 34.62 26.2831C33.7668 26.2831 33.0725 26.9773 33.0725 27.8306C33.0725 28.6839 33.7668 29.3781 34.62 29.3781ZM34.0263 25.3536L36.5195 18H25.9634L28.4481 25.3323C28.5608 25.3547 28.6706 25.3849 28.7774 25.4217L31.2476 20.427L33.7105 25.4515C33.8129 25.4122 33.9182 25.3795 34.0263 25.3536ZM29.4973 27.8306C29.4973 26.9773 28.8032 26.2831 27.9499 26.2831C27.0967 26.2831 26.4024 26.9773 26.4024 27.8306C26.4024 28.6839 27.0967 29.3781 27.9499 29.3781C28.8032 29.3781 29.4973 28.6839 29.4973 27.8306ZM22.802 27.8453C22.802 26.992 22.1078 26.2978 21.2544 26.2978C20.4012 26.2978 19.707 26.992 19.707 27.8453C19.707 28.6986 20.4012 29.3928 21.2544 29.3928C22.1078 29.3928 22.802 28.6986 22.802 27.8453ZM34.8819 33.903C35.6654 33.4493 36.2012 32.6915 36.3517 31.8242C36.4658 31.1672 36.3591 30.5078 36.0728 29.9217C35.6604 30.2091 35.1597 30.3782 34.62 30.3782C33.2277 30.3782 32.0927 29.2556 32.0727 27.8678L30.4975 27.8451C30.4897 29.2433 29.3498 30.3782 27.9499 30.3782C27.8202 30.3782 27.6929 30.3683 27.5684 30.3496C27.1534 31.0046 26.6487 31.6177 26.0613 32.1717C25.1527 33.0289 24.1284 33.6642 23.0167 34.0601L22.8129 34.1327L22.6205 34.0338C21.2143 33.3114 20.5443 31.7827 20.9703 30.3767C20.7402 30.351 20.5195 30.2944 20.3119 30.2114C20.2429 30.3562 20.1726 30.5019 20.1001 30.6507C19.6816 31.5104 19.2489 32.3993 19.0888 33.3645C18.9161 34.4063 18.8476 36.3074 20.3302 37.3349C22.3541 38.7377 24.5007 37.6716 26.9862 36.4371C28.2282 35.8201 29.5125 35.1822 30.8385 34.8553C31.3399 34.7316 31.8533 34.6575 32.3497 34.5859C33.2763 34.4523 34.1515 34.3261 34.8819 33.903Z" fill="#947BFB"/>
<circle cx="28" cy="28" r="27.5" stroke="#947BFB"/>
</svg>
