<svg width="56" height="56" viewBox="0 0 56 56" fill="none" xmlns="http://www.w3.org/2000/svg">
<circle cx="28" cy="28" r="27.5" stroke="#947BFB"/>
<path d="M49.5 28C49.5 39.8741 39.8741 49.5 28 49.5C16.1259 49.5 6.5 39.8741 6.5 28C6.5 16.1259 16.1259 6.5 28 6.5C39.8741 6.5 49.5 16.1259 49.5 28Z" stroke="#947BFB"/>
<path d="M37.9883 18H17.9883V38H37.9883V18Z" fill="#947BFB"/>
<path d="M31.4228 33.6254C31.8257 34.2832 32.3498 34.7667 33.2768 34.7667C34.0555 34.7667 34.553 34.3775 34.553 33.8397C34.553 33.1953 34.0419 32.967 33.1847 32.5921L32.7149 32.3905C31.3587 31.8127 30.4577 31.0889 30.4577 29.5588C30.4577 28.1492 31.5317 27.0762 33.2101 27.0762C34.405 27.0762 35.2641 27.4921 35.8831 28.581L34.4196 29.5207C34.0974 28.9429 33.7498 28.7153 33.2101 28.7153C32.6596 28.7153 32.3108 29.0645 32.3108 29.5207C32.3108 30.0845 32.66 30.3127 33.4663 30.6619L33.9361 30.8632C35.533 31.548 36.4346 32.2461 36.4346 33.8156C36.4346 35.5077 35.1054 36.4346 33.3203 36.4346C31.5749 36.4346 30.4473 35.6029 29.8955 34.5127L31.4228 33.6254ZM24.7838 33.7883C25.079 34.3121 25.3476 34.755 25.9933 34.755C26.6108 34.755 27.0003 34.5134 27.0003 33.574V27.1835H28.8796V33.5994C28.8796 35.5454 27.7387 36.4311 26.0733 36.4311C24.5685 36.4311 23.6971 35.6524 23.2539 34.7145L24.7838 33.7883Z" fill="#10164A"/>
</svg>
