<svg width="56" height="56" viewBox="0 0 56 56" fill="none" xmlns="http://www.w3.org/2000/svg">
<circle cx="28" cy="28" r="27.5" stroke="#947BFB"/>
<path d="M49.5 28C49.5 39.8741 39.8741 49.5 28 49.5C16.1259 49.5 6.5 39.8741 6.5 28C6.5 16.1259 16.1259 6.5 28 6.5C39.8741 6.5 49.5 16.1259 49.5 28Z" stroke="#947BFB"/>
<path d="M17.8441 17.1709H39.2866C39.7349 17.1709 40.1649 17.3466 40.4822 17.6593C40.7994 17.9721 40.9778 18.3963 40.9783 18.8389V20.5168H16.1523V18.8416C16.1522 18.6223 16.1959 18.4052 16.2808 18.2025C16.3657 17.9999 16.4902 17.8157 16.6472 17.6606C16.8042 17.5055 16.9906 17.3824 17.1958 17.2983C17.401 17.2143 17.621 17.171 17.8432 17.1709H17.8441Z" fill="#7362CF"/>
<path d="M39.2866 17.1709H17.8441C17.3957 17.1723 16.9661 17.3488 16.6491 17.6619C16.3321 17.9749 16.1535 18.399 16.1523 18.8416V18.9746C16.155 18.533 16.3342 18.1102 16.651 17.7983C16.9679 17.4865 17.3966 17.3107 17.8441 17.3093H39.2866C39.735 17.3107 40.1646 17.4872 40.4815 17.8003C40.7985 18.1133 40.9771 18.5374 40.9783 18.98V18.847C40.9785 18.4035 40.8006 17.978 40.4835 17.6638C40.1663 17.3496 39.7359 17.1723 39.2866 17.1709Z" fill="white" fill-opacity="0.2"/>
<path d="M16.1523 20.5171H40.9783V20.6501H16.1523V20.5171Z" fill="white" fill-opacity="0.1"/>
<path fill-rule="evenodd" clip-rule="evenodd" d="M40.9792 36.6651V20.5171H16.1523V36.6678C16.1528 37.1105 16.3314 37.5349 16.6488 37.8476C16.9662 38.1604 17.3965 38.336 17.845 38.3358H39.2884C39.5106 38.3356 39.7305 38.2923 39.9357 38.2083C40.1409 38.1243 40.3274 38.0012 40.4844 37.8461C40.6414 37.6909 40.7659 37.5068 40.8508 37.3041C40.9357 37.1015 40.9793 36.8843 40.9792 36.6651ZM25.1085 26.2028C26.2021 25.7557 27.3742 25.5256 28.558 25.5256L28.5571 25.5247C30.5482 25.5225 32.4838 26.1727 34.0602 27.3733L31.2267 30.1701C30.4572 29.7027 29.5755 29.4463 28.6722 29.4272C27.769 29.4081 26.8769 29.627 26.0879 30.0615C25.2989 30.4959 24.6415 31.1301 24.1834 31.8988C23.7254 32.6674 23.4832 33.5427 23.4819 34.4344C23.4713 34.62 23.4713 34.806 23.4819 34.9916H19.5439C19.5366 34.8983 19.5391 34.765 19.5415 34.6312C19.5427 34.5641 19.5439 34.4969 19.5439 34.4344V34.4227C19.5439 32.0631 20.4936 29.8 22.1841 28.1315C23.0211 27.3053 24.0148 26.6499 25.1085 26.2028Z" fill="#7362CF"/>
<path d="M34.058 27.3677L31.2227 30.1663C31.9611 30.6141 32.5711 31.2412 32.9944 31.9876C33.4177 32.7341 33.6403 33.5752 33.641 34.4306C33.6516 34.6162 33.6516 34.8023 33.641 34.9878H37.5917C37.6026 34.8548 37.5917 34.6176 37.5917 34.4306C37.5915 33.0646 37.2727 31.717 36.6599 30.4922C36.0471 29.2673 35.1568 28.1982 34.058 27.3677Z" fill="#7362CF"/>
<path d="M18.4083 19.3991C18.72 19.3991 18.9728 19.1496 18.9728 18.8419C18.9728 18.5341 18.72 18.2847 18.4083 18.2847C18.0965 18.2847 17.8438 18.5341 17.8438 18.8419C17.8438 19.1496 18.0965 19.3991 18.4083 19.3991Z" fill="#10164A"/>
<path d="M20.6661 19.3991C20.9779 19.3991 21.2306 19.1496 21.2306 18.8419C21.2306 18.5341 20.9779 18.2847 20.6661 18.2847C20.3543 18.2847 20.1016 18.5341 20.1016 18.8419C20.1016 19.1496 20.3543 19.3991 20.6661 19.3991Z" fill="#10164A"/>
<path d="M39.2918 38.1946H17.8411C17.3925 38.1934 16.9627 38.017 16.6455 37.704C16.3283 37.3909 16.1496 36.9667 16.1484 36.5239V36.6569C16.1496 37.0997 16.3283 37.5239 16.6455 37.837C16.9627 38.15 17.3925 38.3264 17.8411 38.3276H39.2918C39.7397 38.3255 40.1686 38.1487 40.485 37.8357C40.8014 37.5228 40.9796 37.099 40.9808 36.6569V36.5239C40.9796 36.966 40.8014 37.3898 40.485 37.7027C40.1686 38.0157 39.7397 38.1925 39.2918 38.1946Z" fill="white" fill-opacity="0.1"/>
<path d="M34.0842 27.7068C34.1193 27.6597 34.1381 27.6027 34.138 27.5442C34.1377 27.4704 34.1079 27.3996 34.055 27.3474C34.0021 27.2952 33.9305 27.2658 33.8557 27.2656C33.7923 27.2654 33.7308 27.287 33.6818 27.3267L27.5304 32C27.3335 32.1497 27.1724 32.3404 27.0587 32.5586C26.9449 32.7767 26.8813 33.017 26.8722 33.2621C26.8632 33.5073 26.909 33.7515 27.0065 33.9772C27.1039 34.2029 27.2505 34.4047 27.4359 34.5681C27.6213 34.7316 27.8409 34.8527 28.0791 34.9228C28.3173 34.993 28.5682 35.0105 28.814 34.974C29.0599 34.9376 29.2945 34.8482 29.5013 34.712C29.7082 34.5759 29.882 34.3965 30.0106 34.1865L34.0833 27.7068H34.0842Z" fill="#7362CF"/>
<path opacity="0.2" d="M27.5294 32.1409L33.6808 27.4676C33.717 27.4386 33.7601 27.419 33.806 27.4107C33.8519 27.4025 33.8991 27.4057 33.9434 27.4202C33.9877 27.4347 34.0276 27.46 34.0593 27.4938C34.0911 27.5275 34.1137 27.5686 34.1252 27.6132C34.1317 27.5916 34.1354 27.5693 34.1361 27.5467C34.1358 27.4729 34.106 27.4022 34.0531 27.35C34.0003 27.2978 33.9286 27.2683 33.8538 27.2681C33.7904 27.2679 33.7289 27.2896 33.6799 27.3292L27.5303 32.0025C27.325 32.1581 27.1587 32.3583 27.0443 32.5875C26.93 32.8168 26.8707 33.069 26.8711 33.3245V33.3991C26.8807 33.1546 26.9446 32.9151 27.0584 32.6977C27.1721 32.4802 27.3329 32.2902 27.5294 32.1409Z" fill="#7362CF"/>
<path opacity="0.2" d="M34.0856 27.7067L30.0138 34.1899C29.8258 34.496 29.5432 34.7342 29.2075 34.8696C28.8719 35.0049 28.5011 35.0302 28.1498 34.9417C27.7985 34.8532 27.4853 34.6555 27.2565 34.3779C27.0277 34.1003 26.8953 33.7575 26.8789 33.4V33.4638C26.8784 33.8287 26.999 34.1837 27.2222 34.4746C27.4455 34.7654 27.7591 34.9761 28.1151 35.0744C28.4712 35.1726 28.85 35.153 29.1937 35.0186C29.5374 34.8842 29.8271 34.6424 30.0184 34.3301L34.0901 27.8469C34.1252 27.7997 34.144 27.7427 34.1439 27.6842C34.1438 27.6598 34.1402 27.6356 34.1329 27.6123C34.123 27.6463 34.107 27.6783 34.0856 27.7067Z" fill="#10164A"/>
</svg>
