<svg width="56" height="56" viewBox="0 0 56 56" fill="none" xmlns="http://www.w3.org/2000/svg">
<circle cx="28" cy="28" r="27.5" stroke="#947BFB"/>
<path d="M49.5 28C49.5 39.8741 39.8741 49.5 28 49.5C16.1259 49.5 6.5 39.8741 6.5 28C6.5 16.1259 16.1259 6.5 28 6.5C39.8741 6.5 49.5 16.1259 49.5 28Z" stroke="#947BFB"/>
<path fill-rule="evenodd" clip-rule="evenodd" d="M20.8841 17H35.0925C37.2466 17 38.9883 18.7863 38.9883 20.9957V35.0043C38.9883 37.2137 37.2466 39 35.0925 39H20.8841C18.73 39 16.9883 37.2137 16.9883 35.0043V20.9957C16.9883 18.7863 18.73 17 20.8841 17ZM21.9375 32.4282V22.7538C21.9375 22.688 21.965 22.6504 22.0292 22.6504C22.185 22.6504 22.3317 22.6504 22.5425 22.641C22.6558 22.6362 22.7715 22.6338 22.891 22.6314C23.0034 22.6291 23.1191 22.6268 23.2392 22.6222C23.3672 22.6173 23.5001 22.615 23.6379 22.6126H23.638C23.7666 22.6103 23.8995 22.6079 24.0367 22.6034C24.3209 22.594 24.5959 22.594 24.8709 22.594C25.6225 22.594 26.2459 22.688 26.7592 22.8854C27.2175 23.0453 27.6392 23.3085 27.9875 23.6564C28.2809 23.9572 28.51 24.3239 28.6567 24.7282C28.7942 25.1231 28.8675 25.5273 28.8675 25.9504C28.8675 26.759 28.6842 27.4265 28.3175 27.953C27.9509 28.4795 27.4375 28.8743 26.8417 29.1C26.2184 29.335 25.5309 29.4196 24.7792 29.4196C24.5592 29.4196 24.4125 29.4196 24.3209 29.4102C24.2292 29.4008 24.1009 29.4008 23.9267 29.4008V32.4188C23.9359 32.4846 23.89 32.541 23.8259 32.5504H23.7892H22.0475C21.9742 32.5504 21.9375 32.5128 21.9375 32.4282ZM23.9359 24.4649V27.6239L23.9633 27.6259C24.0812 27.6346 24.1912 27.6427 24.2934 27.6427H24.7792C25.1367 27.6427 25.4942 27.5863 25.8334 27.4735C26.1267 27.3889 26.3834 27.2102 26.585 26.9752C26.7775 26.7401 26.8692 26.4205 26.8692 26.0068C26.8784 25.7154 26.805 25.4239 26.6584 25.1701C26.5025 24.9256 26.2825 24.7376 26.0167 24.6342C25.6775 24.4931 25.3109 24.4367 24.935 24.4461C24.6967 24.4461 24.4859 24.4461 24.3117 24.4555C24.1284 24.4461 24 24.4555 23.9359 24.4649ZM33.708 26.7307C34.0197 26.7965 34.313 26.8999 34.588 27.0503C34.6247 27.0691 34.6705 27.0691 34.753 27.0503C34.7805 27.0315 34.7988 26.9939 34.7988 26.9563V25.4238C34.7988 25.3862 34.7897 25.3486 34.7805 25.311C34.7622 25.2734 34.7255 25.2358 34.6889 25.2264C34.4413 25.123 34.1755 25.0478 33.9005 25.0102C33.5247 24.9537 33.1397 24.9255 32.7638 24.9255C32.113 24.9255 31.5722 25.029 31.1413 25.2546C30.7472 25.4426 30.408 25.7435 30.1788 26.1196C29.9772 26.4674 29.8672 26.8529 29.8672 27.2572C29.858 27.5862 29.9313 27.9153 30.078 28.2161C30.2522 28.5358 30.4905 28.8084 30.7747 29.0153C31.178 29.2973 31.6088 29.523 32.0763 29.6922C32.5255 29.8708 32.828 30.0119 32.9747 30.1341C33.1213 30.2563 33.1947 30.3785 33.1947 30.5102C33.1947 30.6794 33.0938 30.8392 32.9472 30.905C32.7822 30.9896 32.5347 31.0366 32.1863 31.0366C31.8197 31.0366 31.453 30.9896 31.1047 30.8956C30.7013 30.8016 30.3255 30.6512 29.968 30.4349C29.9405 30.4161 29.913 30.4067 29.8855 30.4255C29.858 30.4443 29.8488 30.4819 29.8488 30.5102V32.1461C29.8397 32.2213 29.8855 32.2871 29.9497 32.3247C30.243 32.4657 30.5638 32.5691 30.8847 32.6255C31.2972 32.7102 31.7097 32.7478 32.1313 32.7478C32.7913 32.7478 33.3413 32.6443 33.7905 32.4469C34.203 32.2777 34.5605 31.9862 34.8172 31.6102C35.0555 31.2435 35.1838 30.8016 35.1747 30.3597C35.1838 30.0213 35.1105 29.6922 34.9638 29.3913C34.7897 29.0717 34.5422 28.8084 34.2397 28.611C33.7997 28.329 33.323 28.0939 32.828 27.9247C32.608 27.8307 32.388 27.7272 32.1772 27.6144C32.058 27.5486 31.948 27.464 31.8655 27.3606C31.8105 27.2854 31.7738 27.2008 31.7738 27.1161C31.7738 27.0315 31.8013 26.9375 31.8472 26.8623C31.9113 26.7683 32.0122 26.7025 32.1313 26.6743C32.3055 26.6272 32.498 26.599 32.6813 26.6084C33.0297 26.6084 33.3688 26.6555 33.708 26.7307Z" fill="#947BFB"/>
</svg>
