<svg width="56" height="56" viewBox="0 0 56 56" fill="none" xmlns="http://www.w3.org/2000/svg">
<path d="M49.5 28C49.5 39.8741 39.8741 49.5 28 49.5C16.1259 49.5 6.5 39.8741 6.5 28C6.5 16.1259 16.1259 6.5 28 6.5C39.8741 6.5 49.5 16.1259 49.5 28Z" stroke="#947BFB"/>
<path d="M16.9705 24.8916H20.6636C21.7475 24.9007 22.533 25.2132 23.02 25.8286C23.5069 26.4441 23.6676 27.2846 23.5023 28.3504C23.438 28.8374 23.2956 29.315 23.0751 29.7835C22.8637 30.252 22.5699 30.6745 22.1932 31.0513C21.7337 31.5289 21.2423 31.832 20.7187 31.9607C20.1951 32.0894 19.653 32.1537 19.0927 32.1537H17.4391L16.9154 34.7719H15L16.9705 24.8916V24.8916ZM18.5828 26.4625L17.756 30.5965C17.8111 30.6056 17.8662 30.6103 17.9214 30.6103C17.9856 30.6103 18.0501 30.6103 18.1143 30.6103C18.9962 30.6194 19.7312 30.5323 20.3191 30.3485C20.9069 30.1556 21.3021 29.485 21.5042 28.3366C21.6695 27.372 21.5042 26.8161 21.0081 26.6692C20.5211 26.5223 19.9104 26.4534 19.1753 26.4625C19.0651 26.4716 18.9595 26.4763 18.8584 26.4763C18.7666 26.4763 18.6702 26.4763 18.569 26.4763L18.5828 26.4625" fill="#947BFB"/>
<path d="M25.6845 22.2598H27.5862L27.0487 24.8917H28.7575C29.6945 24.9102 30.3926 25.1031 30.852 25.4705C31.3205 25.8379 31.4583 26.5362 31.2654 27.5651L30.3422 32.1538H28.413L29.2949 27.7718C29.3867 27.3123 29.3591 26.9863 29.2122 26.7934C29.0653 26.6005 28.7484 26.504 28.2614 26.504L26.7318 26.4902L25.6018 32.1538H23.7002L25.6845 22.2598Z" fill="#947BFB"/>
<path d="M33.3075 24.8916H37.0005C38.0844 24.9007 38.8699 25.2132 39.3569 25.8286C39.8439 26.4441 40.0045 27.2846 39.8392 28.3504C39.775 28.8374 39.6325 29.315 39.412 29.7835C39.2006 30.252 38.9068 30.6745 38.5301 31.0513C38.0707 31.5289 37.5793 31.832 37.0556 31.9607C36.532 32.0894 35.9899 32.1537 35.4296 32.1537H33.776L33.2523 34.7719H31.3369L33.3075 24.8916V24.8916ZM34.9197 26.4625L34.0929 30.5965C34.148 30.6056 34.2032 30.6103 34.2583 30.6103C34.3225 30.6103 34.387 30.6103 34.4512 30.6103C35.3331 30.6194 36.0681 30.5323 36.656 30.3485C37.2439 30.1556 37.6391 29.485 37.8411 28.3366C38.0064 27.372 37.8411 26.8161 37.345 26.6692C36.858 26.5223 36.2473 26.4534 35.5123 26.4625C35.402 26.4716 35.2965 26.4763 35.1953 26.4763C35.1035 26.4763 35.0071 26.4763 34.9059 26.4763L34.9197 26.4625" fill="#947BFB"/>
<circle cx="28" cy="28" r="27.5" stroke="#947BFB"/>
</svg>
