<svg width="56" height="56" viewBox="0 0 56 56" fill="none" xmlns="http://www.w3.org/2000/svg">
<circle cx="28" cy="28" r="27.5" stroke="#947BFB"/>
<path d="M49.5 28C49.5 39.8741 39.8741 49.5 28 49.5C16.1259 49.5 6.5 39.8741 6.5 28C6.5 16.1259 16.1259 6.5 28 6.5C39.8741 6.5 49.5 16.1259 49.5 28Z" stroke="#947BFB"/>
<path d="M38.3462 24.0482C38.297 22.9664 38.4445 22.0075 37.9528 21.1962C36.7727 19.1801 33.8223 18 27.9217 18V18.1721H27.7987H27.9217V18C22.021 18 18.9231 19.1801 17.743 21.2208C17.2758 22.0567 17.325 22.991 17.2512 24.0728C17.2021 24.9333 16.8087 25.843 16.9808 26.8264C17.1775 28.1049 17.2512 29.3834 17.4479 30.5635C17.5954 31.5224 18.9231 32.3337 19.046 33.2434C19.3902 35.7512 21.9964 36.9068 27.8971 36.9068V37.1035H27.7496H27.7741H27.9217V36.9068C33.8223 36.9068 36.3301 35.7512 36.6498 33.2434C36.7727 32.3092 38.002 31.5224 38.1495 30.5635C38.3462 29.3834 38.42 28.1049 38.6166 26.8264C38.7887 25.843 38.3954 24.9087 38.3462 24.0482Z" fill="#947BFB"/>
<path d="M27.8264 24.9331C28.8836 24.9577 29.6212 25.6216 30.3096 26.2362C31.121 26.9492 32.4978 27.4409 33.0633 28.0556C33.6288 28.6702 34.3664 29.2849 34.6368 30.2438C34.9073 31.2026 34.981 32.4319 34.981 32.7516C34.981 33.0712 35.1531 32.9974 35.6448 32.7516C36.8004 32.1861 38.0789 30.6617 38.0789 30.6617C37.9314 31.6206 36.6775 32.4811 36.5545 33.3908C36.2595 35.8986 33.8255 37.1033 27.8018 37.1033H27.7773H27.9248" fill="#947BFB"/>
<path d="M31.7077 23.0161C31.929 23.7782 32.7158 26.3598 31.1914 25.4993C31.1914 25.4993 31.8307 25.8681 32.224 27.2695C32.642 28.6709 33.65 28.843 33.65 28.843C33.65 28.843 35.2973 29.1626 36.5266 28.1054C37.5592 27.2203 37.7313 25.6468 37.2888 24.4421C36.8462 23.2619 36.0595 22.8931 34.9039 22.6473C33.7484 22.3768 31.4373 22.1556 31.7077 23.0161Z" fill="#947BFB"/>
<path d="M34.6363 27.982C35.8312 27.982 36.7998 27.0133 36.7998 25.8184C36.7998 24.6235 35.8312 23.6548 34.6363 23.6548C33.4413 23.6548 32.4727 24.6235 32.4727 25.8184C32.4727 27.0133 33.4413 27.982 34.6363 27.982Z" fill="#10164A"/>
<path d="M34.0733 25.4254C34.3856 25.4254 34.6388 25.1722 34.6388 24.8599C34.6388 24.5476 34.3856 24.2944 34.0733 24.2944C33.761 24.2944 33.5078 24.5476 33.5078 24.8599C33.5078 25.1722 33.761 25.4254 34.0733 25.4254Z" fill="#947BFB"/>
<path d="M31.3385 25.7202C31.3385 25.7202 33.2808 27.0479 34.338 28.3509C35.3952 29.654 35.3706 29.8999 35.3706 29.8999L34.6084 30.2441C34.6084 30.2441 33.5266 28.2034 32.199 27.4412C30.8468 26.6791 30.6992 26.0398 30.6992 26.0398L31.3385 25.7202Z" fill="#947BFB"/>
<path d="M27.9011 24.9331C26.8439 24.9577 26.0572 25.6216 25.3442 26.2362C24.5328 26.9492 23.1068 27.4409 22.5413 28.0556C21.9759 28.6702 21.2137 29.2849 20.9432 30.2438C20.6728 31.2026 20.5744 32.4319 20.5744 32.7516C20.5744 33.0712 20.6236 33.0958 19.9106 32.7516C18.755 32.2107 17.4766 30.6617 17.4766 30.6617C17.6241 31.6206 18.878 32.4811 19.0009 33.3908C19.3451 35.8986 21.7792 37.1033 27.8028 37.1033H27.8274H27.9257" fill="#947BFB"/>
<path d="M33.6044 29.0885C32.4243 27.6379 30.5311 26.2856 27.9004 26.2856H27.8758C25.2451 26.2856 23.352 27.6379 22.1718 29.0885C20.9425 30.5882 21.0409 31.1783 21.0409 32.6043C21.0409 37.7674 22.8602 36.2922 24.065 36.9315C25.2943 37.5461 26.5727 37.3494 27.8758 37.3494H27.9004C29.2281 37.3494 30.4819 37.5215 31.7113 36.9069C32.916 36.2922 34.7354 37.8166 34.7354 32.6535C34.7599 31.2275 34.8337 30.5882 33.6044 29.0885Z" fill="#947BFB"/>
<path d="M27.7741 27.564C27.7741 27.564 27.602 29.9488 27.2578 30.416L27.8971 30.2684L27.7741 27.564Z" fill="#10164A"/>
<path d="M27.9472 27.564C27.9472 27.564 28.1193 29.9488 28.4635 30.416L27.8242 30.2684L27.9472 27.564Z" fill="#10164A"/>
<path d="M25.8808 26.9987C25.6349 26.4333 26.52 25.5236 27.9214 25.499C29.3228 25.499 30.2079 26.4087 29.9621 26.9987C29.7162 27.5888 28.8311 27.7609 27.9214 27.7855C27.0363 27.7609 26.1266 27.5888 25.8808 26.9987Z" fill="#947BFB"/>
<path d="M27.9217 27.5641C27.9217 27.4657 28.7576 27.4412 29.2001 27.1461C29.2001 27.1461 28.2904 27.4412 28.0938 27.3182C27.8971 27.2199 27.8479 26.9248 27.8479 26.9248C27.8479 26.9248 27.7741 27.2199 27.6266 27.3182C27.4545 27.4166 26.4219 27.1461 26.4219 27.1461C26.4219 27.1461 27.7987 27.4903 27.7987 27.5641C27.7987 27.6378 27.7741 27.8837 27.7741 28.0558C27.7741 28.6705 27.7741 30.1948 27.8725 30.3177C28.02 30.539 27.9708 28.6705 27.9708 28.0558C27.9462 27.8591 27.9462 27.6624 27.9217 27.5641Z" fill="#10164A"/>
<path d="M27.9704 30.8586C28.3883 30.8586 29.1259 31.1536 29.7897 31.6207C29.1505 30.9077 28.3883 30.416 27.9704 30.416C27.5278 30.416 26.5935 30.9569 25.9297 31.7437C26.6181 31.2028 27.5032 30.8586 27.9704 30.8586Z" fill="#10164A"/>
<path d="M27.8003 35.2102C26.866 35.2102 25.9563 34.9152 25.1204 34.6939C24.9483 34.6448 24.7762 34.7677 24.6041 34.7185C23.0551 34.2268 21.8013 33.3909 21.0391 32.3337C21.0391 32.4074 21.0391 32.5058 21.0391 32.5795C21.0391 37.7426 22.8585 36.292 24.0632 36.9067C25.2925 37.5213 26.571 37.3246 27.874 37.3246H27.8986C29.2263 37.3246 30.4802 37.4968 31.7095 36.8821C32.9142 36.2674 34.7336 37.7672 34.7336 32.6041C34.7336 32.4074 34.7336 32.2107 34.7582 32.0386C34.0452 33.1942 32.7421 34.1039 31.1194 34.6448C30.9719 34.6939 30.6277 34.571 30.4802 34.5956C29.5951 34.8906 28.8083 35.2102 27.8003 35.2102Z" fill="#947BFB"/>
<path d="M25.4653 32.4321C25.4653 32.4321 24.8507 34.2761 25.2686 35.0874L24.7031 34.8416C24.7031 34.8416 25.1211 32.973 25.4653 32.4321Z" fill="#10164A"/>
<path d="M30.332 32.4321C30.332 32.4321 30.9466 34.2761 30.5286 35.0874L31.0941 34.8416C31.0941 34.8416 30.6516 32.973 30.332 32.4321Z" fill="#10164A"/>
<path d="M23.8917 23.0161C23.6704 23.7782 22.8837 26.3598 24.408 25.4993C24.408 25.4993 23.7688 25.8681 23.3754 27.2695C22.982 28.6709 21.9494 28.843 21.9494 28.843C21.9494 28.843 20.3021 29.1626 19.0728 28.1054C18.0402 27.2203 17.8681 25.6468 18.3106 24.4421C18.7532 23.2373 19.5399 22.8931 20.6955 22.6473C21.8511 22.3768 24.1376 22.1556 23.8917 23.0161Z" fill="#947BFB"/>
<path d="M27.8982 30.4164C28.562 30.4164 30.6273 31.8424 30.6519 33.588C30.6519 33.5634 30.6519 33.5388 30.6519 33.4896C30.6519 31.6703 28.98 30.2197 27.8982 30.2197C26.8164 30.2197 25.1445 31.6949 25.1445 33.4896C25.1445 33.5142 25.1445 33.5388 25.1445 33.588C25.1691 31.8424 27.2344 30.4164 27.8982 30.4164Z" fill="#10164A"/>
<path d="M28.4414 27.012C28.5465 26.9849 28.5906 26.803 28.5397 26.6058C28.4889 26.4086 28.3624 26.2707 28.2572 26.2978C28.152 26.3249 28.108 26.5068 28.1588 26.704C28.2097 26.9012 28.3362 27.0391 28.4414 27.012Z" fill="#10164A"/>
<path d="M27.1726 27.0082C27.2763 27.0403 27.4093 26.9087 27.4697 26.7142C27.53 26.5197 27.4949 26.3359 27.3911 26.3037C27.2874 26.2715 27.1543 26.4031 27.094 26.5976C27.0336 26.7922 27.0688 26.976 27.1726 27.0082Z" fill="#10164A"/>
<path d="M21.0894 27.982C22.2843 27.982 23.253 27.0133 23.253 25.8184C23.253 24.6235 22.2843 23.6548 21.0894 23.6548C19.8945 23.6548 18.9258 24.6235 18.9258 25.8184C18.9258 27.0133 19.8945 27.982 21.0894 27.982Z" fill="#10164A"/>
<path d="M21.6552 25.4254C21.9676 25.4254 22.2207 25.1722 22.2207 24.8599C22.2207 24.5476 21.9676 24.2944 21.6552 24.2944C21.3429 24.2944 21.0898 24.5476 21.0898 24.8599C21.0898 25.1722 21.3429 25.4254 21.6552 25.4254Z" fill="#947BFB"/>
<path d="M28.5393 25.8429C28.5393 25.8183 27.9738 26.0887 27.8263 26.1133C27.6788 26.0887 27.1133 25.8183 27.1133 25.8429C27.1133 25.8429 27.5804 25.8429 27.8263 25.8429C28.0722 25.8429 28.5393 25.8429 28.5393 25.8429Z" fill="#10164A"/>
<path d="M24.2353 25.7202C24.2353 25.7202 22.293 27.0479 21.2358 28.3509C20.1786 29.654 20.2032 29.8999 20.2032 29.8999L20.9654 30.2441C20.9654 30.2441 22.0472 28.2034 23.3748 27.4412C24.7025 26.6791 24.8746 26.0398 24.8746 26.0398L24.2353 25.7202Z" fill="#947BFB"/>
<path d="M19.9827 21.7866C19.9827 21.7866 19.3189 23.606 17.8438 24.3681C17.8438 24.3681 20.1549 24.0977 19.9827 21.7866Z" fill="#947BFB"/>
<path d="M35.4974 21.7866C35.4974 21.7866 36.1612 23.606 37.6364 24.3681C37.6364 24.3681 35.3253 24.0977 35.4974 21.7866Z" fill="#947BFB"/>
<path d="M31.2913 25.179C31.2913 25.179 29.8407 23.6547 27.8984 23.6055C27.8738 23.6055 27.9476 23.6055 27.923 23.6055C27.8984 23.6055 27.9476 23.6055 27.9476 23.6055C25.9807 23.6547 24.5547 25.179 24.5547 25.179C26.2512 23.9989 27.7017 24.0235 27.9476 24.0235C27.923 24.0235 29.5949 23.9989 31.2913 25.179Z" fill="#947BFB"/>
<path d="M29.591 21.983C29.591 21.983 28.8534 20.9504 27.87 20.9258H27.8945H27.9191C27.1815 20.9504 26.2227 21.983 26.2227 21.983C27.0586 21.1716 27.9191 21.1962 27.9191 21.1962C27.9191 21.1962 28.7305 21.1716 29.591 21.983Z" fill="#947BFB"/>
<path d="M21.0912 29.5311C21.0912 29.5311 19.9356 30.0966 19.0997 29.7524H19.0751C18.3375 29.3345 17.9688 28.0806 17.9688 28.0806C17.9688 28.0806 18.7063 30.2933 21.0912 29.5311Z" fill="#947BFB"/>
<path d="M34.5625 29.5311C34.5625 29.5311 35.7181 30.0966 36.554 29.7524C37.5374 29.3345 37.685 28.0806 37.685 28.0806C37.685 28.0806 36.9474 30.2933 34.5625 29.5311Z" fill="#947BFB"/>
<path d="M22.4141 21.6633C23.0533 21.5404 24.1105 21.5158 24.9465 21.7863C26.0037 22.1551 25.1431 23.5073 25.3644 23.5811C25.5857 23.6548 25.8807 22.6468 27.8476 22.7451C29.8391 22.8435 30.0604 23.7286 30.3308 23.5811C30.6013 23.4335 30.0604 21.1224 33.0353 21.6633C33.0353 21.6633 29.9129 20.8274 30.0604 23.0893C30.0604 23.0893 28.2656 21.7125 25.7578 22.9418C25.7824 22.9418 26.4216 20.8274 22.4141 21.6633Z" fill="#947BFB"/>
<path d="M33.3086 21.6631C33.3578 21.6631 33.3824 21.6877 33.407 21.6877C33.4315 21.6877 33.3824 21.6631 33.3086 21.6631Z" fill="#947BFB"/>
<path d="M21.5567 18.6392C21.5567 18.6392 18.9014 21.9829 18.508 23.2614C18.1146 24.5645 17.8196 29.8997 17.4754 30.6618L16.2461 25.4004L18.508 19.9177L21.5567 18.6392Z" fill="#947BFB"/>
<path d="M34.0469 18.6392C34.0469 18.6392 36.7022 21.9829 37.0956 23.2614C37.489 24.5645 37.784 29.8997 38.1282 30.6618L39.3575 25.4004L37.0956 19.9177L34.0469 18.6392Z" fill="#947BFB"/>
<path d="M33.9265 18.6394C33.9265 18.6394 36.7785 21.0243 37.6145 23.7779C38.4504 26.5316 38.1062 29.8753 38.7454 30.2932C39.6551 30.8833 40.6877 27.3675 41.032 26.9987C41.5728 26.4086 43.3676 24.9089 43.4906 24.6384C43.6135 24.368 39.8518 20.2621 38.2045 19.4508C36.2131 18.5165 33.7544 18.4428 33.9265 18.6394Z" fill="#947BFB"/>
<path d="M36.3594 20.1143C36.3594 20.1143 39.7277 24.4168 39.6785 29.7766L41.0308 27.023C41.0062 27.023 39.826 23.5072 36.3594 20.1143Z" fill="#947BFB"/>
<path d="M21.5553 18.6394C21.5553 18.6394 18.7033 21.0243 17.8673 23.7779C17.0314 26.5316 17.3756 29.8753 16.7364 30.2932C15.8267 30.8833 14.7941 27.3675 14.4498 26.9987C13.9089 26.4086 12.1142 24.9089 11.9912 24.6384C11.8683 24.368 15.63 20.2621 17.2773 19.4508C19.2687 18.5165 21.7274 18.4428 21.5553 18.6394Z" fill="#947BFB"/>
<path d="M19.1194 20.1143C19.1194 20.1143 15.7511 24.4168 15.8003 29.7766L14.4727 27.023C14.4727 27.023 15.6528 23.5072 19.1194 20.1143Z" fill="#947BFB"/>
<path d="M17.3008 29.8752C17.3008 29.8752 17.5466 31.2029 17.94 31.6208C18.3334 32.0388 18.063 31.3012 18.063 31.3012C18.063 31.3012 17.645 31.0799 17.7188 29.3835C17.7925 27.687 17.3008 29.8752 17.3008 29.8752Z" fill="#947BFB"/>
<path d="M38.2747 29.8752C38.2747 29.8752 38.0289 31.2029 37.6355 31.6208C37.2421 32.0388 37.5125 31.3012 37.5125 31.3012C37.5125 31.3012 37.9305 31.0799 37.8567 29.3835C37.783 27.687 38.2747 29.8752 38.2747 29.8752Z" fill="#947BFB"/>
<path d="M25.345 29.0642C25.4537 29.0642 25.5417 28.9762 25.5417 28.8675C25.5417 28.7589 25.4537 28.6709 25.345 28.6709C25.2364 28.6709 25.1484 28.7589 25.1484 28.8675C25.1484 28.9762 25.2364 29.0642 25.345 29.0642Z" fill="#10164A"/>
<path d="M24.2162 30.244C24.3249 30.244 24.4129 30.1559 24.4129 30.0473C24.4129 29.9387 24.3249 29.8506 24.2162 29.8506C24.1076 29.8506 24.0195 29.9387 24.0195 30.0473C24.0195 30.1559 24.1076 30.244 24.2162 30.244Z" fill="#10164A"/>
<path d="M23.845 29.0642C23.9537 29.0642 24.0417 28.9762 24.0417 28.8675C24.0417 28.7589 23.9537 28.6709 23.845 28.6709C23.7364 28.6709 23.6484 28.7589 23.6484 28.8675C23.6484 28.9762 23.7364 29.0642 23.845 29.0642Z" fill="#10164A"/>
<path d="M30.1342 29.0642C30.2428 29.0642 30.3309 28.9762 30.3309 28.8675C30.3309 28.7589 30.2428 28.6709 30.1342 28.6709C30.0256 28.6709 29.9375 28.7589 29.9375 28.8675C29.9375 28.9762 30.0256 29.0642 30.1342 29.0642Z" fill="#10164A"/>
<path d="M31.267 30.244C31.3756 30.244 31.4637 30.1559 31.4637 30.0473C31.4637 29.9387 31.3756 29.8506 31.267 29.8506C31.1584 29.8506 31.0703 29.9387 31.0703 30.0473C31.0703 30.1559 31.1584 30.244 31.267 30.244Z" fill="#10164A"/>
<path d="M31.6342 29.0642C31.7428 29.0642 31.8309 28.9762 31.8309 28.8675C31.8309 28.7589 31.7428 28.6709 31.6342 28.6709C31.5256 28.6709 31.4375 28.7589 31.4375 28.8675C31.4375 28.9762 31.5256 29.0642 31.6342 29.0642Z" fill="#10164A"/>
</svg>
