<svg width="56" height="56" viewBox="0 0 56 56" fill="none" xmlns="http://www.w3.org/2000/svg">
<circle cx="28" cy="28" r="27.5" stroke="#947BFB"/>
<path d="M49.5 28C49.5 39.8741 39.8741 49.5 28 49.5C16.1259 49.5 6.5 39.8741 6.5 28C6.5 16.1259 16.1259 6.5 28 6.5C39.8741 6.5 49.5 16.1259 49.5 28Z" stroke="#947BFB"/>
<path d="M38.0817 29.0686C37.1054 29.0737 36.2569 29.309 35.5464 29.6568C35.2857 29.1402 35.0251 28.6799 34.9791 28.3424C34.928 27.9485 34.8666 27.7082 34.928 27.2376C34.9893 26.7671 35.2653 26.0971 35.2602 26.046C35.2551 25.9948 35.1989 25.7544 34.6366 25.7493C34.0744 25.7442 33.5888 25.8567 33.5326 26.005C33.4763 26.1534 33.369 26.4909 33.2974 26.8387C33.2003 27.3501 32.1729 29.176 31.5851 30.1324C31.396 29.7591 31.2324 29.4317 31.1967 29.1709C31.1456 28.7771 31.0842 28.5367 31.1456 28.0662C31.2069 27.5956 31.4829 26.9256 31.4778 26.8745C31.4727 26.8234 31.4165 26.583 30.8542 26.5779C30.292 26.5727 29.8064 26.6853 29.7501 26.8336C29.6939 26.9819 29.6326 27.3297 29.515 27.6672C29.3975 28.0048 28.0327 31.053 27.6749 31.8406C27.4909 32.2447 27.3325 32.5669 27.22 32.7868C27.22 32.7868 27.2149 32.8022 27.1996 32.8277C27.1025 33.017 27.0462 33.1193 27.0462 33.1193C27.0462 33.1193 27.0462 33.1193 27.0462 33.1244C26.9696 33.2625 26.8878 33.3903 26.8469 33.3903C26.8162 33.3903 26.76 33.0221 26.8571 32.5209C27.0616 31.4622 27.5472 29.8153 27.542 29.7591C27.542 29.7284 27.634 29.442 27.2251 29.2936C26.8265 29.1453 26.6833 29.3908 26.6476 29.3908C26.6118 29.3908 26.5862 29.4778 26.5862 29.4778C26.5862 29.4778 27.0309 27.6263 25.7377 27.6263C24.9301 27.6263 23.8159 28.5111 23.2638 29.309C22.9163 29.4982 22.1751 29.9023 21.3829 30.337C21.0813 30.5058 20.7695 30.6745 20.4782 30.8331C20.4577 30.8126 20.4373 30.7871 20.4168 30.7666C18.8527 29.0942 15.9597 27.9127 16.0823 25.6675C16.1283 24.8492 16.4095 22.7011 21.6384 20.0927C25.9422 17.9702 29.3668 18.5583 29.9597 19.8625C30.8082 21.7242 28.1247 25.1816 23.6779 25.6828C21.9809 25.8721 21.0915 25.2174 20.8666 24.9719C20.6315 24.7162 20.5957 24.7009 20.5088 24.752C20.3657 24.8287 20.4577 25.0589 20.5088 25.1918C20.6417 25.5396 21.1886 26.1534 22.1138 26.4551C22.9316 26.7211 24.9199 26.8694 27.3274 25.9386C30.0211 24.8952 32.1269 21.9953 31.5085 19.5659C30.89 17.1007 26.8009 16.2875 22.9316 17.6633C20.6315 18.4816 18.1371 19.7705 16.343 21.448C14.2116 23.4427 13.8742 25.1765 14.0122 25.9027C14.508 28.4804 18.0604 30.158 19.4814 31.4008C19.4098 31.4417 19.3434 31.4775 19.2872 31.5082C18.5767 31.8611 15.8677 33.2778 15.193 34.7763C14.4263 36.4744 15.3156 37.6916 15.9034 37.8553C17.7282 38.3616 19.6041 37.4512 20.611 35.9476C21.618 34.4439 21.4953 32.4902 21.0302 31.5951C21.0251 31.5849 21.02 31.5747 21.0097 31.5645C21.1937 31.4571 21.3829 31.3445 21.5669 31.2371C21.9298 31.0223 22.2876 30.8229 22.5943 30.6592C22.4205 31.1348 22.2927 31.7026 22.2313 32.5209C22.1547 33.4824 22.5483 34.7303 23.0645 35.2213C23.2945 35.4361 23.5654 35.4412 23.7392 35.4412C24.3423 35.4412 24.6132 34.94 24.9148 34.3467C25.2828 33.6205 25.6151 32.7766 25.6151 32.7766C25.6151 32.7766 25.201 35.0576 26.3255 35.0576C26.7345 35.0576 27.1485 34.5257 27.3325 34.2547C27.3325 34.2598 27.3325 34.2598 27.3325 34.2598C27.3325 34.2598 27.3427 34.2444 27.3631 34.2086C27.404 34.1422 27.4296 34.1012 27.4296 34.1012C27.4296 34.1012 27.4296 34.0961 27.4296 34.091C27.5932 33.8046 27.9612 33.1551 28.5081 32.0759C29.2135 30.6848 29.8933 28.9459 29.8933 28.9459C29.8933 28.9459 29.9546 29.3704 30.1642 30.0762C30.2868 30.4904 30.5424 30.9456 30.7469 31.3855C30.5833 31.6156 30.4811 31.7435 30.4811 31.7435C30.4811 31.7435 30.4811 31.7435 30.4862 31.7486C30.3533 31.9225 30.2102 32.1117 30.0517 32.2958C29.4946 32.9607 28.8301 33.7228 28.7381 33.9427C28.6308 34.2035 28.6563 34.3928 28.8608 34.5462C29.009 34.6587 29.2748 34.6741 29.5457 34.6587C30.0466 34.6229 30.3993 34.5002 30.5731 34.4235C30.844 34.3263 31.1609 34.178 31.4573 33.958C32.0043 33.554 32.3365 32.9761 32.3058 32.214C32.2905 31.7946 32.1525 31.3752 31.9838 30.9814C32.0349 30.9098 32.0809 30.8382 32.132 30.7666C32.9959 29.5033 33.6654 28.1173 33.6654 28.1173C33.6654 28.1173 33.7268 28.5418 33.9363 29.2476C34.0386 29.6056 34.2481 29.9943 34.4322 30.3728C33.6194 31.0326 33.1185 31.7997 32.9396 32.3009C32.6176 33.2318 32.8681 33.6512 33.3434 33.7483C33.5581 33.7944 33.8648 33.6921 34.0897 33.5949C34.3759 33.5028 34.7133 33.3443 35.0353 33.109C35.5822 32.705 36.1087 32.1424 36.078 31.3803C36.0627 31.0326 35.9707 30.6899 35.8429 30.3574C36.5329 30.071 37.4223 29.9125 38.557 30.0455C40.99 30.3319 41.4705 31.8509 41.3785 32.4902C41.2865 33.1295 40.7753 33.4773 40.6067 33.5847C40.438 33.6921 40.3818 33.7279 40.3971 33.8046C40.4175 33.9171 40.4993 33.912 40.6424 33.8915C40.8418 33.8557 41.9203 33.375 41.9663 32.1987C42.043 30.695 40.6118 29.0533 38.0817 29.0686ZM19.3127 35.4003C18.5051 36.28 17.3806 36.6124 16.895 36.3311C16.3737 36.0294 16.5781 34.7303 17.5697 33.7995C18.1729 33.2318 18.9498 32.705 19.4661 32.3828C19.5836 32.3112 19.7574 32.2089 19.967 32.081C20.0028 32.0606 20.0232 32.0503 20.0232 32.0503C20.0641 32.0248 20.105 31.9992 20.1459 31.9736C20.5088 33.3034 20.1612 34.4746 19.3127 35.4003ZM25.1908 31.4008C24.9097 32.0861 24.3219 33.8404 23.9641 33.7432C23.6574 33.6614 23.4683 32.3316 23.9028 31.0172C24.1225 30.3574 24.5877 29.5698 24.8586 29.263C25.2982 28.772 25.7837 28.6083 25.9013 28.8078C26.0495 29.0686 25.3646 30.9712 25.1908 31.4008ZM30.0415 33.7228C29.9239 33.7841 29.8115 33.8251 29.7604 33.7944C29.7246 33.7739 29.8115 33.6921 29.8115 33.6921C29.8115 33.6921 30.4197 33.0374 30.66 32.7408C30.798 32.5669 30.9615 32.3623 31.1353 32.1322C31.1353 32.1526 31.1353 32.1782 31.1353 32.1987C31.1353 32.9812 30.3788 33.508 30.0415 33.7228ZM33.783 32.8687C33.6961 32.8073 33.7114 32.6027 34.0028 31.9634C34.1152 31.7128 34.381 31.2934 34.8359 30.8894C34.8871 31.053 34.9228 31.2116 34.9177 31.3599C34.9126 32.347 34.2073 32.7152 33.783 32.8687Z" fill="#947BFB"/>
</svg>
