<svg width="56" height="56" viewBox="0 0 56 56" fill="none" xmlns="http://www.w3.org/2000/svg">
<circle cx="28" cy="28" r="27.5" stroke="#947BFB"/>
<path d="M49.5 28C49.5 39.8741 39.8741 49.5 28 49.5C16.1259 49.5 6.5 39.8741 6.5 28C6.5 16.1259 16.1259 6.5 28 6.5C39.8741 6.5 49.5 16.1259 49.5 28Z" stroke="#947BFB"/>
<path d="M22.3431 19.5923L27.9681 19L33.5931 19.5923L37.948 25.4153L27.9681 36.9911L17.9883 25.4153L22.3431 19.5923Z" fill="#7362CF"/>
<path d="M22.0306 25.4155L27.9681 36.9912L17.9883 25.4155H22.0306Z" fill="#9D8DF0"/>
<path d="M33.9072 25.4155L27.9697 36.9912L37.9495 25.4155H33.9072Z" fill="#9D8DF0"/>
<path d="M22.0312 25.4155H33.9062L27.9687 36.9912L22.0312 25.4155Z" fill="#7362CF"/>
<path d="M27.9687 19L22.3438 19.5923L22.0312 25.4153L27.9687 19Z" fill="#C7BAFF"/>
<path d="M27.9688 19L33.5938 19.5923L33.9062 25.4153L27.9688 19Z" fill="#C7BAFF"/>
<path d="M37.9495 25.4153L33.5947 19.5923L33.9072 25.4153H37.9495Z" fill="#7362CF"/>
<path d="M17.9883 25.4153L22.3431 19.5923L22.0306 25.4153H17.9883Z" fill="#7362CF"/>
<path d="M27.9687 19L22.0312 25.4153H33.9062L27.9687 19Z" fill="#9D8DF0"/>
</svg>
