<svg width="56" height="56" viewBox="0 0 56 56" fill="none" xmlns="http://www.w3.org/2000/svg">
<circle cx="28" cy="28" r="27.5" stroke="#947BFB"/>
<path d="M49.5 28C49.5 39.8741 39.8741 49.5 28 49.5C16.1259 49.5 6.5 39.8741 6.5 28C6.5 16.1259 16.1259 6.5 28 6.5C39.8741 6.5 49.5 16.1259 49.5 28Z" stroke="#947BFB"/>
<path d="M27.9893 14L39.9893 20.7492V34.2508L27.9893 41L15.9893 34.2508V20.7492L27.9893 14Z" fill="#947BFB"/>
<path d="M37.8463 33.7854L28.3859 39.1071V34.9632L34.2804 31.7382L37.8463 33.7854ZM38.4944 33.2027V22.0753L35.0339 24.064V31.2171L38.4944 33.2027ZM18.0943 33.7854L27.5549 39.1071V34.9632L21.6572 31.7382L18.0943 33.7854ZM17.4463 33.2027V22.0753L20.9068 24.064V31.2171L17.4463 33.2027ZM17.8525 21.3538L27.5549 15.8965V19.9016L21.3378 23.3024L21.2882 23.3302L17.8525 21.3538ZM38.0882 21.3538L28.3859 15.8965V19.9016L34.6029 23.2993L34.6525 23.3271L38.0882 21.3538Z" fill="#10164A"/>
<path d="M27.5564 34.0199L21.7393 30.838V24.5389L27.5564 27.878V34.0199ZM28.3874 34.0199L34.2044 30.841V24.5389L28.3874 27.878V34.0199ZM22.1331 23.8112L27.9719 20.6201L33.8106 23.8112L27.9719 27.1627L22.1331 23.8112Z" fill="#10164A"/>
</svg>
