<svg width="56" height="56" viewBox="0 0 56 56" fill="none" xmlns="http://www.w3.org/2000/svg">
<circle cx="28" cy="28" r="27.5" stroke="#947BFB"/>
<path d="M49.5 28C49.5 39.8741 39.8741 49.5 28 49.5C16.1259 49.5 6.5 39.8741 6.5 28C6.5 16.1259 16.1259 6.5 28 6.5C39.8741 6.5 49.5 16.1259 49.5 28Z" stroke="#947BFB"/>
<g clip-path="url(#clip0_895_282)">
<path fill-rule="evenodd" clip-rule="evenodd" d="M37.0375 23.0755C37.0731 23.3955 37.1086 23.7511 37.1086 24.1422C37.1086 25.1733 36.8953 26.3466 36.3264 27.84L33.1975 36.9422C36.2553 35.1644 38.3175 31.8577 38.3175 28.0533C38.282 26.2044 37.8198 24.5333 37.0375 23.0755ZM28.1842 28.9066L25.0909 37.8666C26.0153 38.1511 26.9753 38.2933 28.0064 38.2933C29.2153 38.2933 30.3531 38.08 31.4198 37.7244C31.3842 37.6889 31.3842 37.6177 31.3486 37.5822L28.1842 28.9066ZM34.9398 27.4844C34.9398 28.3733 34.6909 29.4755 34.1575 30.8266L33.1264 34.24L29.4286 23.1822C30.0331 23.1466 30.602 23.0755 30.602 23.0755C31.1709 23.0044 31.0998 22.1866 30.5309 22.2222C30.5309 22.2222 28.8598 22.3644 27.7931 22.3644C26.7975 22.3644 25.0909 22.2222 25.0909 22.2222C24.522 22.1866 24.4864 23.04 25.0198 23.0755C25.0198 23.0755 25.5531 23.1466 26.0864 23.1822L27.6864 27.5911L25.4464 34.3466L21.6775 23.1822C22.282 23.1466 22.8509 23.0755 22.8509 23.0755C23.4198 23.0044 23.3486 22.1866 22.7798 22.2222C22.7798 22.2222 21.1086 22.3644 20.042 22.3644C19.8642 22.3644 19.6153 22.3644 19.3664 22.3644C21.2153 19.5555 24.3798 17.7422 27.9709 17.7422C30.6375 17.7422 33.0909 18.7733 34.9398 20.4444C34.9042 20.4444 34.8686 20.4444 34.7975 20.4444C33.802 20.4444 33.0553 21.3333 33.0553 22.2577C33.0553 23.1111 33.5531 23.8222 34.0509 24.6755C34.4775 25.3155 34.9398 26.2044 34.9398 27.4844ZM17.6953 28.0177C17.6953 32.1066 20.0775 35.6266 23.4909 37.2977L18.5842 23.8222C18.0153 25.1022 17.6953 26.5244 17.6953 28.0177Z" fill="#947BFB"/>
<path fill-rule="evenodd" clip-rule="evenodd" d="M16.5216 28.0178C16.5216 21.6889 21.6772 16.5333 28.0061 16.5333C34.2994 16.5333 39.4549 21.6889 39.4549 28.0178C39.4549 34.3111 34.2994 39.4667 28.0061 39.4667C21.6772 39.4667 16.5216 34.3111 16.5216 28.0178ZM15.9883 28.0178C15.9883 34.6311 21.3572 40.0356 28.0061 40.0356C34.6194 40.0356 40.0238 34.6667 40.0238 28.0178C39.9883 21.3689 34.6194 16 28.0061 16C21.3572 16 15.9883 21.3689 15.9883 28.0178Z" fill="#947BFB"/>
</g>
<defs>
<clipPath id="clip0_895_282">
<rect width="24" height="24" fill="white" transform="translate(15.9883 16)"/>
</clipPath>
</defs>
</svg>
