<svg width="56" height="56" viewBox="0 0 56 56" fill="none" xmlns="http://www.w3.org/2000/svg">
<circle cx="28" cy="28" r="27.5" stroke="#947BFB"/>
<path d="M49.5 28C49.5 39.8741 39.8741 49.5 28 49.5C16.1259 49.5 6.5 39.8741 6.5 28C6.5 16.1259 16.1259 6.5 28 6.5C39.8741 6.5 49.5 16.1259 49.5 28Z" stroke="#947BFB"/>
<path d="M17.6138 32.168L16.0444 32.6941L15.9609 36.9767L21.3931 35.1562C19.5283 34.5832 18.1684 33.5735 17.6138 32.168Z" fill="#7362CF"/>
<path d="M18.4341 27.6387L12.9883 29.4638L16.0434 32.6955L17.6127 32.1695C17.0593 30.7686 17.4008 29.1871 18.4341 27.6387Z" fill="#B3A0FF"/>
<path d="M27.5952 21.4577C20.6612 23.7814 16.1901 28.5775 17.611 32.1683L42.7211 23.7528C41.3001 20.162 34.5293 19.1339 27.5952 21.4577Z" fill="#7362CF"/>
<path d="M32.7353 34.4646C39.6694 32.1408 44.148 27.3664 42.7195 23.7539L17.6094 32.1683C19.0378 35.782 25.8012 36.7883 32.7353 34.4646Z" fill="#654FDC"/>
<path d="M42.7222 23.7529L17.6133 32.1684C18.1044 33.4126 19.9803 34.0256 22.6104 34.0256C25.1756 34.0256 28.4588 33.4435 31.8816 32.2965C38.8157 29.9728 43.6932 26.2093 42.7222 23.7529Z" fill="#B3A0FF"/>
<path d="M37.7232 21.8965C35.1593 21.8965 31.8748 22.4786 28.452 23.6256C21.5179 25.9493 16.6405 29.7117 17.6115 32.1681L42.7216 23.7525C42.2292 22.5083 40.3545 21.8965 37.7232 21.8965Z" fill="#D2CAFF"/>
<path d="M36.3376 37.2043C35.5985 37.2043 34.509 36.5925 33.098 35.3849C31.429 33.9566 29.5182 31.8639 27.7146 29.4932C25.9122 27.1226 24.4314 24.7531 23.5439 22.8194C22.5779 20.7129 22.4395 19.4183 23.1338 18.9701C23.2946 18.8694 23.4853 18.818 23.6797 18.8225C24.2444 18.8225 25.3463 19.2079 27.3817 21.0468L27.4266 21.0869L27.4204 21.144C27.4067 21.2767 27.3942 21.4093 27.383 21.5409L27.3606 21.8004L27.1611 21.6163C24.9673 19.5887 24.0026 19.3703 23.6885 19.3703C23.5987 19.3703 23.5277 19.3863 23.4766 19.4195C23.1749 19.6139 23.155 20.5654 24.0923 22.6067C24.9636 24.505 26.4232 26.839 28.2019 29.1788C29.9819 31.5196 31.864 33.5804 33.5044 34.9835C35.2719 36.4965 36.0684 36.66 36.3289 36.66C36.4186 36.66 36.4909 36.6428 36.5458 36.6074C36.8636 36.4027 36.8636 35.3838 35.8191 33.1858L35.7705 33.0852L35.8752 33.0326C35.9799 32.98 36.0821 32.9285 36.1768 32.8782L36.3027 32.813L36.3613 32.9342C37.1017 34.4918 37.7947 36.4713 36.8861 37.0568C36.7253 37.1574 36.5333 37.2089 36.3376 37.2043ZM36.3376 36.9642V37.0843V36.9642Z" fill="#CCBFFF"/>
<path d="M32.9049 34.3984L32.8949 34.5173C32.7192 36.5071 32.258 38.8995 31.0539 38.9967C31.029 38.999 31.0041 38.999 30.9804 38.999C30.1627 38.999 29.3886 37.924 28.6819 35.805C28.0113 33.7992 27.4915 31.1072 27.2185 28.2243C26.9443 25.3413 26.9481 22.607 27.2298 20.5246C27.5364 18.2558 28.1197 17.0711 28.9648 17.0025C28.9898 17.0002 29.0159 16.999 29.0409 16.999C29.6342 16.999 30.5279 17.6154 31.4428 20.4857L30.8458 20.5909C30.5404 19.6327 30.2076 18.8528 29.8773 18.3153C29.5719 17.8201 29.274 17.5468 29.0409 17.5468C29.0334 17.5468 29.0259 17.5468 29.0172 17.5479C28.6507 17.5777 28.1172 18.3919 27.8206 20.5921C27.5439 22.6368 27.5401 25.331 27.8106 28.1762C28.0811 31.0226 28.5921 33.6745 29.2503 35.6437C29.5444 36.5254 29.8673 37.2527 30.1851 37.7456C30.4768 38.2008 30.7597 38.4512 30.9804 38.4512C30.9878 38.4512 30.9953 38.4512 31.0028 38.4501C31.3531 38.4226 32.0137 37.5741 32.2916 34.5905L32.9049 34.3984Z" fill="#7362CF"/>
</svg>
