<svg width="167" height="91" fill="none" xmlns="http://www.w3.org/2000/svg">
    <path d="M95.631 54.012h-3.875v-5.335H75.9V29.109h4.407V44.91h8.106v-15.8h4.42v15.8h2.798v9.102Zm14.956-5.335H98.852V29.109h11.285v3.589h-6.878v4.353h6.4v3.575h-6.4v4.476h7.328v3.575Zm20.073 0h-4.421v-7.97h-8.106v7.97h-4.407V29.109h4.407v7.805h8.106V29.11h4.421v19.568Zm18.231-15.98h-5.581v15.98h-4.422v-15.98h-5.553V29.11h15.556v3.589Zm7.041 9.239v6.74h-4.408V29.11h6.905c4.931 0 7.396 2.078 7.396 6.236 0 1.965-.709 3.557-2.129 4.776-1.41 1.21-3.297 1.815-5.663 1.815h-2.101Zm0-9.443v6.1h1.733c2.347 0 3.521-1.028 3.521-3.084 0-2.01-1.174-3.016-3.521-3.016h-1.733Z" fill="#777F88"/>
    <path d="M82.28 67.666h-1.22v-9.3h-2.886c-.334 2.622-.598 4.474-.791 5.557-.194 1.084-.39 1.882-.588 2.394-.198.513-.466.895-.805 1.146-.338.247-.745.37-1.219.37-.382 0-.713-.05-.993-.152v-1.146c.246.14.52.21.82.21.3 0 .58-.179.84-.537.267-.357.535-1.288.806-2.792.276-1.504.58-3.555.914-6.152h5.121v10.402Zm8.552-3.416h-5.245c.02.827.242 1.465.667 1.915.426.45 1.011.675 1.756.675.837 0 1.605-.276 2.307-.827v1.117c-.653.474-1.516.71-2.59.71-1.05 0-1.874-.336-2.474-1.008-.6-.677-.9-1.627-.9-2.85 0-1.156.327-2.097.98-2.822.658-.73 1.473-1.096 2.445-1.096.972 0 1.724.315 2.256.943.532.629.798 1.502.798 2.619v.624Zm-1.219-1.008c-.005-.687-.172-1.221-.5-1.603-.325-.383-.777-.574-1.357-.574-.561 0-1.037.201-1.43.602-.39.402-.633.927-.724 1.575h4.011Zm7.152-1.988h-2.938v6.413h-1.19v-7.429h4.128v1.016Zm6.877 6.413h-1.19v-1.161h-.029c-.517.89-1.279 1.335-2.285 1.335-.74 0-1.32-.196-1.74-.588-.416-.392-.624-.912-.624-1.56 0-1.388.817-2.195 2.451-2.422l2.227-.312c0-1.263-.51-1.894-1.53-1.894-.895 0-1.702.305-2.423.914v-1.218c.73-.465 1.572-.697 2.524-.697 1.746 0 2.619.924 2.619 2.771v4.831Zm-1.19-3.758-1.791.247c-.552.077-.968.215-1.248.413-.28.194-.42.54-.42 1.037 0 .363.128.66.384.893.26.227.607.34 1.037.34.59 0 1.076-.205 1.458-.616.387-.416.58-.94.58-1.574v-.74Zm8.85 3.758h-1.182v-6.42h-1.727c-.198 2.403-.539 4.091-1.022 5.063-.479.972-1.125 1.458-1.937 1.458a1.8 1.8 0 0 1-.639-.102v-1.022c.17.087.354.13.552.13 1.064 0 1.748-2.178 2.053-6.536h3.902v7.428Zm8.64 0h-1.074V61.74c-.106.208-.268.5-.486.878l-3.431 5.048h-1.233v-7.428h1.088v5.854c.058-.14.184-.38.377-.718l3.526-5.136h1.233v7.428Zm1.784-.21v-1.169c.648.363 1.405.544 2.271.544 1.31 0 1.966-.416 1.966-1.247 0-.822-.719-1.234-2.155-1.234h-.733v-1.008h.697c1.262 0 1.893-.392 1.893-1.175 0-.334-.145-.6-.435-.798-.29-.198-.687-.297-1.19-.297-.72 0-1.443.181-2.169.544v-1.11c.822-.3 1.577-.45 2.264-.45 1.808 0 2.713.665 2.713 1.995 0 .43-.136.803-.407 1.117-.266.31-.64.515-1.124.617v.036c.551.043.994.23 1.327.558.334.33.501.745.501 1.248 0 .677-.273 1.216-.82 1.618-.546.401-1.298.602-2.256.602-1.02 0-1.801-.13-2.343-.392Zm12.571.21h-1.189v-1.161h-.029c-.518.89-1.279 1.335-2.285 1.335-.74 0-1.321-.196-1.741-.588-.416-.392-.624-.912-.624-1.56 0-1.388.817-2.195 2.452-2.422l2.227-.312c0-1.263-.51-1.894-1.531-1.894-.895 0-1.702.305-2.423.914v-1.218c.731-.465 1.572-.697 2.525-.697 1.745 0 2.618.924 2.618 2.771v4.831Zm-1.189-3.758-1.792.247c-.551.077-.967.215-1.248.413-.28.194-.42.54-.42 1.037 0 .363.128.66.384.893.261.227.607.34 1.037.34.59 0 1.076-.205 1.458-.616.387-.416.581-.94.581-1.574v-.74Zm10.692 6.463h-1.023v-2.706h-6.238v-7.428h1.189v6.42h3.787v-6.42h1.19v6.42h1.095v3.714Zm7.885-2.706h-1.073V61.74c-.107.208-.269.5-.487.878l-3.431 5.048h-1.233v-7.428h1.088v5.854c.058-.14.184-.38.377-.718l3.526-5.136h1.233v7.428Zm8.632 0h-1.073V61.74c-.107.208-.269.5-.486.878l-3.431 5.048h-1.234v-7.428h1.088v5.854c.059-.14.184-.38.378-.718l3.525-5.136h1.233v7.428Z" fill="#31363A"/>
    <path d="M28.473 75.856V29.768h8.56v38.846H61.13v7.242H28.473Z" fill="#E05863"/>
    <path d="M27.52 61.658c-3.51 0-6.78-.57-9.81-1.711-2.984-1.186-5.596-2.832-7.834-4.938-2.195-2.151-3.907-4.675-5.136-7.572-1.229-2.897-1.843-6.057-1.843-9.48 0-3.425.614-6.585 1.843-9.482 1.23-2.897 2.963-5.399 5.202-7.506 2.238-2.15 4.85-3.796 7.835-4.937 2.984-1.186 6.255-1.778 9.81-1.778 3.775 0 7.22.658 10.337 1.975 3.116 1.273 5.75 3.182 7.9 5.728l-5.53 5.201c-1.668-1.8-3.534-3.138-5.596-4.016-2.063-.921-4.302-1.382-6.716-1.382-2.414 0-4.63.395-6.65 1.185a15.83 15.83 0 0 0-5.201 3.357c-1.449 1.449-2.59 3.16-3.424 5.136-.79 1.975-1.185 4.148-1.185 6.518s.395 4.543 1.185 6.518c.834 1.976 1.975 3.687 3.424 5.136a15.83 15.83 0 0 0 5.201 3.358c2.02.79 4.236 1.185 6.65 1.185 2.414 0 4.653-.44 6.715-1.317 2.063-.922 3.929-2.304 5.597-4.148l5.53 5.267c-2.15 2.502-4.784 4.411-7.9 5.728C34.807 61 31.34 61.658 27.52 61.658Z" fill="#DADADA"/>
</svg>
