<svg xmlns="http://www.w3.org/2000/svg" width="2000" height="489.72" xml:space="preserve">
    <g fill="#80766C">
        <path d="M796.898 176.553c0 1.543-.244 4.146-.703 7.782a216.558 216.558 0 0 1-1.857 11.754 135.113 135.113 0 0 1-2.9 12.313c-1.168 4.039-2.53 7.139-4.083 9.317a82.493 82.493 0 0 1-13.256 18.257c-5.267 5.503-11.155 10.194-17.672 14.041-6.517 3.883-13.53 6.908-21.045 9.076-7.516 2.182-15.313 3.262-23.368 3.262-11.784 0-22.865-2.256-33.251-6.73-10.394-4.498-19.5-10.653-27.326-18.494-7.826-7.826-13.988-16.94-18.486-27.326-4.49-10.386-6.747-21.534-6.747-33.48 0-11.795 2.256-22.865 6.747-33.258 4.498-10.39 10.66-19.496 18.486-27.337 7.827-7.815 16.933-13.981 27.326-18.482 10.386-4.49 21.467-6.743 33.251-6.743 8.056 0 15.808 1.095 23.257 3.263 7.435 2.167 14.373 5.148 20.809 8.954a86.049 86.049 0 0 1 17.562 13.711c5.267 5.359 9.765 11.274 13.485 17.795-3.721 1.867-6.702 3.41-8.958 4.652a129.037 129.037 0 0 1-6.51 3.37 461.332 461.332 0 0 0-6.865 3.38c-2.478 1.247-5.733 2.867-9.757 4.882-4.342-7.294-10.312-13.183-17.909-17.68-7.604-4.498-15.979-6.743-25.114-6.743-6.968 0-13.53 1.313-19.647 3.958-6.132 2.63-11.429 6.195-15.934 10.696-4.498 4.501-8.063 9.798-10.696 15.927-2.641 6.121-3.958 12.675-3.958 19.655 0 6.972 1.316 13.511 3.958 19.647 2.633 6.121 6.199 11.473 10.696 16.038 4.505 4.579 9.802 8.151 15.934 10.7 6.118 2.556 12.679 3.847 19.647 3.847 9.298 0 17.835-2.338 25.587-6.987 7.738-4.649 13.863-10.7 18.36-18.127-4.335-.167-8.137-.207-11.392-.126-3.255.085-6.783.126-10.585.126-3.795 0-7.323.037-10.586.1-3.24.089-5.962.126-8.137.126s-3.248-.078-3.248-.226v-25.118h40.582c7.36 0 14.802.041 22.318.111 7.523.084 14.854.117 21.985.117M817.818 93.533h47.432l37.911 115.114 38.133-115.114h48.143v166.041h-30.929V141.908h-.466l-40.686 117.666h-28.147l-40.692-116.508h-.474v116.508h-30.225zM1064.542 124.236l-52.78.214V93.766h141.623v30.684l-52.322-.214v135.338h-36.521zM1314.344 240.371l-4.32 10.563c-16.807 8.552-34.745 12.842-53.823 12.842-27.325 0-49.518-7.76-66.591-23.287-17.073-15.505-25.609-35.792-25.609-60.858 0-17.258 4.261-32.337 12.782-45.243 8.507-12.916 19.751-22.562 33.718-28.968 13.966-6.388 29.648-9.595 47.062-9.595a140.81 140.81 0 0 1 29.87 3.188c9.832 2.119 18.05 4.657 24.634 7.608l.791 1.128c-1.738 4.242-3.365 14.735-4.874 31.454l-.8.91h-5.341l-.902-.91-1.139-19.303c-5.519-4.394-12.206-7.812-20.04-10.268-7.834-2.46-15.985-3.702-24.47-3.702-12.791 0-24.264 2.748-34.406 8.244-10.148 5.485-18.012 13.434-23.611 23.845-5.607 10.405-8.404 23.15-8.404 38.196 0 15.154 3.3 28.428 9.876 39.857 6.591 11.437 15.571 20.217 26.964 26.354 11.398 6.125 24.707 9.202 39.916 9.202 6.731 0 13.211-.658 19.425-1.938 6.199-1.287 11.37-2.885 15.49-4.778a70.903 70.903 0 0 0 11.873-6.909l1.929 2.368zM1325.011 99.92l.909-.792c18.782.607 29.598.903 32.468.903 2.589 0 13.448-.296 32.601-.903l.902.792v5.674l-.902.792c-5.23.163-9.255.388-12.103.688-2.833.303-4.89.869-6.185 1.701-1.294.829-2.13 2.778-2.56 5.852-.406 3.066-.614 7.319-.614 12.775l-.236 26.112v50.191c0 12.561.074 21.341.236 26.338l.563 19.647h23.169c18.464 0 29.989-.229 34.575-.68a46.858 46.858 0 0 0 13.227-3.3c.836-1.879 2.027-6.243 3.58-13.057 1.539-6.798 2.353-10.748 2.441-11.81l1.014-.906h5.57l.791.906c-.606 3.029-1.235 8.906-1.871 17.602-.651 8.714-.97 15.756-.97 21.126l-.902.902c-14.388-.443-33.266-.68-56.656-.68l-33.162-.223c-7.575 0-15.29.289-23.161.902l-.91-.902v-3.742l.91-1.146c4.689-2.435 7.264-3.914 7.715-4.432.459-.525.925-5.415 1.421-14.65.495-9.229.739-20.354.739-33.37v-48.719l-.229-22.14c-.081-8.632-.28-14.196-.628-16.692-.334-2.497-.866-4.169-1.584-5.001-.717-.836-2.101-1.505-4.143-2.038-2.049-.528-7.079-.95-15.105-1.257l-.909-.792V99.92zM1469.555 99.129l14.188.448c9.321.3 15.416.455 18.286.455 2.574 0 13.441-.296 32.593-.903l.903.792v5.674l-.903.792c-5.222.163-9.254.388-12.095.688-2.833.303-4.904.869-6.191 1.701-1.279.829-2.145 2.778-2.552 5.852-.422 3.066-.622 7.319-.622 12.775l-.236 26.112v52.577l.126 22.14c.073 8.559.296 14.077.673 16.578.377 2.5.925 4.149 1.649 4.985.718.844 2.116 1.531 4.15 2.116 2.049.555 7.071.999 15.098 1.302l.903.681v5.681l-.903.902c-.385 0-7.034-.222-19.987-.68-5.371-.148-9.572-.223-12.605-.223-2.345 0-13.167.289-32.475.902l-.902-.902v-5.681l.902-.681c7.043-.303 11.732-.681 14.078-1.132 2.345-.451 3.928-1.043 4.727-1.769.784-.709 1.42-2.248 1.923-4.601.496-2.338.784-7.56.851-15.667l.111-23.953v-52.577l-.222-22.14c-.074-8.632-.281-14.196-.622-16.692-.354-2.497-.88-4.169-1.598-5.001-.725-.836-2.101-1.505-4.143-2.038-2.041-.528-7.086-.95-15.105-1.257l-.902-.792V99.92l.902-.791zM1548.699 260.366l-1.014-1.028v-5.208l1.014-.925c4.609-.052 8.308-.348 11.074-.791 2.752-.443 4.542-1.198 5.341-2.264.784-1.072 1.324-2.767 1.583-5.119.259-2.337.533-7.642.799-15.893.259-8.237.399-14.163.399-17.713v-91.753c0-3.857-.71-6.713-2.108-8.566-1.397-1.856-3.313-3.029-5.732-3.524-2.427-.492-6.555-.78-12.369-.847l-.917-.91v-5.334l.917-1.028c10.445.377 17.296.566 20.535.566 7.656 0 13.938-.188 18.856-.566l36.225 47.018 53.246 66.765c6.437 8.096 12.99 15.782 19.655 23.046V148.41c0-2.726-.141-8.533-.399-17.432-.274-8.902-.585-14.539-.97-16.921-.385-2.386-1.035-3.999-1.982-4.831-.946-.828-2.722-1.45-5.341-1.875-2.618-.41-6.154-.654-10.607-.736l-.917-.906v-5.219l.917-1.028c6.125.377 14.861.566 26.224.566 10.371 0 17.895-.188 22.599-.566l1.021 1.028v5.219l-.917.906c-4.985.082-8.854.366-11.577.858-2.722.481-4.431 1.295-5.111 2.434-.673 1.14-1.146 2.808-1.42 5.001-.267 2.197-.518 7.419-.784 15.664-.267 8.263-.399 14.191-.399 17.838v53.934l.111 31.217c.141 10.234.303 20.479.451 30.777-3.788-1.288-10.334-2.87-19.641-4.765l-8.063-9.542-24.189-29.534-76.984-96.162v87.089c0 3.48.133 9.688.399 18.62.267 8.936.584 14.351.962 16.237.377 1.901.872 3.211 1.479 3.921.6.718 1.901 1.384 3.921 1.997 1.997.6 6.147.954 12.428 1.006l.917.925v5.326l-.917.91c-3.936-.532-10.29-.792-19.07-.792-11.291 0-21.174.259-29.645.792M1741.156 99.129l14.203.448c9.307.3 15.401.455 18.271.455 2.574 0 13.449-.296 32.593-.903l.91.792v5.674l-.91.792c-5.222.163-9.246.388-12.087.688-2.841.303-4.897.869-6.199 1.701-1.279.829-2.131 2.778-2.545 5.852-.422 3.066-.629 7.319-.629 12.775l-.222 26.112v52.577l.097 22.14c.089 8.559.311 14.077.702 16.578.378 2.5.925 4.149 1.643 4.985.718.844 2.094 1.531 4.143 2.116 2.042.555 7.079.999 15.098 1.302l.91.681v5.681l-.91.902c-.384 0-7.042-.222-19.979-.68-5.379-.148-9.58-.223-12.613-.223-2.338 0-13.167.289-32.475.902l-.902-.902v-5.681l.902-.681c7.043-.303 11.748-.681 14.085-1.132 2.353-.451 3.921-1.043 4.712-1.769.792-.709 1.443-2.248 1.931-4.601.496-2.338.77-7.56.858-15.667l.104-23.953v-52.577l-.222-22.14c-.074-8.632-.281-14.196-.622-16.692-.34-2.497-.872-4.169-1.59-5.001-.718-.836-2.101-1.505-4.143-2.038-2.049-.528-7.079-.95-15.113-1.257l-.902-.792V99.92l.901-.791zM1971.215 240.371l-4.32 10.563c-16.799 8.552-34.745 12.842-53.823 12.842-27.325 0-49.518-7.76-66.583-23.287-17.081-15.505-25.603-35.792-25.603-60.858 0-17.258 4.246-32.337 12.768-45.243 8.507-12.916 19.751-22.562 33.725-28.968 13.959-6.388 29.642-9.595 47.055-9.595 10.075 0 20.032 1.058 29.87 3.188 9.839 2.119 18.05 4.657 24.634 7.608l.799 1.128c-1.738 4.242-3.366 14.735-4.882 31.454l-.792.91h-5.341l-.91-.91-1.139-19.303c-5.519-4.394-12.191-7.812-20.032-10.268-7.834-2.46-15.993-3.702-24.471-3.702-12.798 0-24.264 2.748-34.413 8.244-10.134 5.485-18.012 13.434-23.611 23.845-5.607 10.405-8.404 23.15-8.404 38.196 0 15.154 3.3 28.428 9.883 39.857 6.584 11.437 15.572 20.217 26.964 26.354 11.399 6.125 24.7 9.202 39.916 9.202 6.731 0 13.204-.658 19.411-1.938 6.206-1.287 11.377-2.885 15.505-4.778a71.497 71.497 0 0 0 11.872-6.909l1.922 2.368zM110.689 434.721a235.363 235.363 0 0 1-38.822-41.551c-22.717-30.979-37.164-66.532-43.082-103.578 11.318 19.455 26.127 37.298 44.377 52.618 51.633 43.318 118.661 56.176 179.29 40.522 39.125-10.067 75.601-31.979 103.57-65.282 27.947-33.347 43.164-73.012 46.285-113.313 4.853-62.434-19.425-126.199-71.059-169.57C313.036 19.259 292.886 7.849 271.803.03c37.468-.592 74.965 7.482 109.4 24.418 16.74 8.248 32.77 18.553 47.676 31.058 102.284 85.836 114.008 240.315 26.15 345.039-87.859 104.681-242.05 120-344.34 34.176"/>
        <path d="M235.364 159.983a101.698 101.698 0 0 1 16.807 17.972c9.816 13.389 16.045 28.779 18.626 44.769a86.312 86.312 0 0 0-19.204-22.739c-22.34-18.734-51.323-24.304-77.517-17.524-16.933 4.354-32.704 13.833-44.791 28.25-12.102 14.38-18.671 31.553-20.017 48.966-2.13 27.001 8.389 54.563 30.714 73.353a86.853 86.853 0 0 0 25.713 14.958c-16.193.236-32.401-3.248-47.321-10.608a101.754 101.754 0 0 1-20.587-13.419C53.552 286.841 48.492 220.05 86.47 174.79c38-45.321 104.658-51.923 148.894-14.807"/>
        <path d="M336.397 295.703c-8.314 9.928-17.643 18.523-27.681 25.847-20.631 15.091-44.37 24.655-69.099 28.539a131.885 131.885 0 0 0 35.071-29.516c28.835-34.339 37.275-79.048 26.689-119.549-6.806-26.124-21.526-50.513-43.837-69.25-22.303-18.715-48.867-28.946-75.793-31.121-41.707-3.388-84.271 12.661-113.135 47.032-10.157 12.132-17.798 25.555-22.954 39.609-.451-24.984 4.86-49.98 16.119-72.964 5.474-11.129 12.294-21.833 20.624-31.731 57.123-68.1 160.315-75.564 230.435-16.726 70.127 58.833 80.684 161.755 23.561 229.83M632.299 398.49c-.163.133-.466.185-.91.185h-3.943c-.392 0-.695-.052-.91-.185-.222-.134-.333-.43-.333-.918v-36.144c0-.495.111-.799.333-.917.214-.126.518-.178.91-.178h3.943c.444 0 .747.052.91.178.177.118.266.422.266.917v14.166h6.266c.74 0 1.442-.06 2.123-.185a5.032 5.032 0 0 0 1.931-.77c.622-.393 1.169-.925 1.687-1.612.503-.681.932-1.583 1.28-2.686l2.848-9.136c.089-.385.251-.637.473-.74.208-.088.452-.133.696-.133h4.009c.392 0 .636.126.732.399.097.274.126.519.082.77l-2.781 9.564c-.392 1.562-.947 2.93-1.687 4.12a6.613 6.613 0 0 1-3.063 2.664l-.074.154c1.901.578 3.24 1.473 4.017 2.656.776 1.191 1.413 2.574 1.901 4.135l3.728 12.635c.044.237.044.503 0 .799-.059.281-.34.444-.873.444h-4.32c-.192 0-.414-.037-.651-.111-.251-.073-.414-.303-.51-.688l-3.573-12.058c-.548-1.857-1.495-3.166-2.855-3.943-1.369-.784-2.796-1.176-4.306-1.176h-7.079v16.873c-.001.491-.089.787-.267.921zM672.94 363.988c.044-1.287.414-2.189 1.102-2.781.681-.592 1.568-.873 2.633-.873h18.819c1.413 0 2.367.311 2.855.939.488.644.732 1.539.732 2.715v33.584c0 .488-.096.784-.296.918-.2.133-.569.185-1.109.185h-3.625c-.437 0-.769-.052-.984-.185-.222-.134-.34-.43-.34-.918v-31.697h-14.1l-.437 5.467c-.392 4.882-.792 8.95-1.235 12.242-.444 3.299-1.073 6.007-1.894 8.145-.829 2.146-1.938 3.817-3.329 5.016-1.391 1.19-3.195 2.123-5.43 2.796a6.42 6.42 0 0 1-.991.229c-.37.037-.621-.17-.769-.666l-.947-2.914c-.252-.681.044-1.229.865-1.613 1.317-.576 2.404-1.287 3.262-2.107.843-.836 1.568-2.057 2.145-3.662.584-1.605 1.065-3.743 1.42-6.429.37-2.67.725-6.184 1.065-10.519l.588-7.872zM712.967 361.428c0-.495.089-.813.281-.962.207-.133.488-.207.888-.207h3.995c.444 0 .754.074.925.207.17.148.251.467.251.962v28.185h.303l3.166-5.075a104.963 104.963 0 0 1 3.24-4.927l10.992-17.021c.488-.82.947-1.405 1.376-1.76.444-.333 1.146-.496 2.116-.496h1.894c.829 0 1.524.236 2.086.732.548.488.829 1.213.829 2.183v34.397c0 .437-.089.71-.251.844-.177.133-.473.185-.917.185h-4.017c-.392 0-.681-.052-.88-.185-.185-.134-.281-.407-.281-.844V369.75h-.444a70.675 70.675 0 0 0-1.568 2.448c-.458.755-.932 1.51-1.391 2.264-.458.762-.932 1.517-1.42 2.301a104.55 104.55 0 0 1-1.613 2.479l-11.392 17.229c-.533.836-1.058 1.412-1.568 1.723-.51.318-1.176.481-2.005.481h-1.687c-.873 0-1.576-.237-2.108-.703-.548-.466-.799-1.169-.799-2.146v-34.398zM765.43 398.408c-.215.178-.563.267-1.036.267h-3.551c-.474 0-.843-.089-1.08-.267-.237-.162-.362-.51-.362-1.051v-35.78c0-.54.125-.896.362-1.028.237-.148.606-.215 1.08-.215h3.551c.473 0 .821.066 1.036.215.214.133.325.488.325 1.028v13.804h18.908v-13.804c0-.54.119-.896.34-1.028.222-.148.577-.215 1.065-.215h3.625c.533 0 .902.066 1.073.215.17.133.259.488.259 1.028v35.78c0 .541-.089.889-.259 1.051-.17.178-.54.267-1.073.267h-3.625c-.488 0-.843-.089-1.065-.267-.222-.162-.34-.51-.34-1.051V380.78h-18.908v16.577c0 .541-.111.889-.325 1.051zM805.042 361.428c0-.495.104-.813.296-.962.192-.133.496-.207.895-.207h3.987c.437 0 .747.074.924.207.163.148.252.467.252.962v28.185h.296a637.608 637.608 0 0 0 3.166-5.075 111.74 111.74 0 0 1 3.24-4.927l10.993-17.021c.488-.82.947-1.405 1.391-1.76.437-.333 1.139-.496 2.116-.496h1.879c.829 0 1.524.236 2.079.732.57.488.836 1.213.836 2.183v34.397c0 .437-.082.71-.251.844-.163.133-.466.185-.917.185h-4.009c-.385 0-.681-.052-.873-.185-.207-.134-.296-.407-.296-.844V369.75h-.446a71.428 71.428 0 0 0-1.561 2.448c-.458.755-.925 1.51-1.391 2.264-.466.762-.939 1.517-1.428 2.301-.488.776-1.021 1.605-1.598 2.479l-11.399 17.229c-.533.836-1.058 1.412-1.568 1.723-.511.318-1.176.481-2.005.481h-1.679c-.88 0-1.583-.237-2.123-.703-.533-.466-.806-1.169-.806-2.146v-34.398zM857.445 398.49c-.17.133-.481.185-.91.185h-3.95c-.385 0-.695-.052-.903-.185-.222-.134-.34-.43-.34-.918v-36.144c0-.495.118-.799.34-.917.208-.126.518-.178.903-.178h3.95c.429 0 .74.052.91.178.17.118.259.422.259.917v14.166h6.273c.732 0 1.435-.06 2.116-.185a5.056 5.056 0 0 0 1.938-.77c.614-.393 1.176-.925 1.679-1.612.525-.681.94-1.583 1.28-2.686l2.841-9.136c.104-.385.259-.637.481-.74a1.83 1.83 0 0 1 .695-.133h4.017c.385 0 .629.126.74.399.089.274.111.519.066.77l-2.774 9.564c-.392 1.562-.947 2.93-1.679 4.12a6.717 6.717 0 0 1-3.063 2.664l-.089.154c1.901.578 3.248 1.473 4.024 2.656.784 1.191 1.413 2.574 1.894 4.135l3.721 12.635a1.82 1.82 0 0 1 0 .799c-.044.281-.333.444-.873.444h-4.305c-.192 0-.415-.037-.651-.111-.252-.073-.422-.303-.518-.688l-3.573-12.058c-.547-1.857-1.495-3.166-2.848-3.943-1.361-.784-2.804-1.176-4.32-1.176h-7.072v16.873c0 .491-.088.787-.259.921zM922.771 395.093c0 .962-.37 1.599-1.102 1.901a25.944 25.944 0 0 1-7.116 1.968 55.68 55.68 0 0 1-7.346.511c-3.166 0-5.755-.333-7.775-.991s-3.617-1.554-4.786-2.663c-1.168-1.124-1.982-2.434-2.441-3.892a15.129 15.129 0 0 1-.703-4.615c0-1.657.289-3.285.851-4.867.547-1.584 1.479-2.975 2.737-4.18 1.265-1.199 2.915-2.152 4.927-2.885 2.02-.74 4.498-1.096 7.412-1.096h8.907v-1.598c0-1.169-.104-2.212-.326-3.114a5.244 5.244 0 0 0-1.272-2.39c-.636-.68-1.524-1.198-2.67-1.568-1.146-.354-2.619-.539-4.416-.539-1.702 0-3.521.147-5.452.451-1.916.273-3.484.629-4.712 1.014-.385.141-.695.191-.932.141-.244-.053-.429-.267-.518-.659l-.88-3.136c-.096-.244-.111-.474-.022-.688.067-.237.281-.399.681-.563 1.857-.769 3.98-1.316 6.362-1.642 2.382-.304 4.572-.467 6.569-.467 4.868 0 8.418 1.08 10.652 3.24 2.249 2.175 3.373 5.334 3.373 9.454v22.873zm-6.502-15.26h-8.47c-.873 0-1.894.051-3.033.17a9.658 9.658 0 0 0-3.255.961 7.115 7.115 0 0 0-2.596 2.257c-.703.991-1.058 2.382-1.058 4.128 0 1.316.252 2.419.732 3.328.496.91 1.147 1.598 1.975 2.108.821.511 1.805.881 2.915 1.103 1.125.207 2.353.318 3.654.318.437 0 1.014 0 1.716-.03.71-.022 1.487-.096 2.345-.222a38.551 38.551 0 0 0 2.596-.437 17.125 17.125 0 0 0 2.478-.688v-12.996zM971.106 359.527c5.311 0 9.395 1.605 12.272 4.823 2.87 3.211 4.306 7.968 4.306 14.233 0 6.864-1.45 12.064-4.372 15.593-2.929 3.528-7.235 5.297-12.931 5.297-1.953 0-3.979-.185-6.095-.518s-4.039-1.014-5.741-1.997c-.68-.334-.821-.873-.436-1.562l1.457-3.226c.155-.244.318-.436.518-.547.185-.133.488-.052.873.178 1.117.488 2.471.954 4.054 1.428 1.583.466 3.21.702 4.853.702 2.004 0 3.713-.325 5.148-.954 1.442-.621 2.611-1.502 3.521-2.648.888-1.146 1.554-2.515 1.998-4.105.444-1.605.68-3.351.732-5.296h-14.61a.775.775 0 0 1-.511-.192c-.141-.119-.222-.377-.222-.762v-3.5c0-.251.037-.436.111-.576.082-.155.259-.237.547-.237h14.396c-.208-3.21-1.11-5.755-2.715-7.626-1.605-1.872-4.083-2.812-7.449-2.812-1.598 0-3.159.185-4.668.555-1.501.362-2.848.784-4.017 1.265-.444.252-.74.318-.947.193a1.058 1.058 0 0 1-.429-.555l-1.25-2.989c-.2-.443-.259-.755-.215-.962.044-.178.215-.377.503-.576a19.286 19.286 0 0 1 5.444-2.013 29.558 29.558 0 0 1 5.875-.614zM1015.949 393.932c1.649 0 3.27-.229 4.852-.665 1.584-.437 2.915-.925 3.98-1.465.437-.229.754-.311.954-.178.192.111.362.303.503.547l1.465 3.085c.393.644.273 1.169-.362 1.546-1.856 1.051-3.861 1.731-6.065 2.108a36.786 36.786 0 0 1-6.273.563c-5.355 0-9.454-1.649-12.265-4.919-2.833-3.307-4.246-8.175-4.246-14.662 0-3.106.406-5.91 1.205-8.433.807-2.501 1.946-4.646 3.44-6.421a14.776 14.776 0 0 1 5.437-4.091c2.138-.954 4.55-1.421 7.228-1.421 1.945 0 3.81.2 5.592.585a18.938 18.938 0 0 1 5.149 1.96c.681.407.828.925.429 1.539l-1.523 3.003c-.148.289-.311.488-.481.622-.177.125-.466.059-.909-.193a23.586 23.586 0 0 0-3.803-1.309 18.358 18.358 0 0 0-4.379-.511c-1.953 0-3.617.399-5.016 1.206a10.273 10.273 0 0 0-3.425 3.232c-.896 1.361-1.554 2.922-1.968 4.66-.414 1.754-.614 3.596-.614 5.541s.163 3.766.503 5.459c.341 1.701.933 3.195 1.79 4.476.851 1.302 1.99 2.308 3.403 3.033 1.404.733 3.202 1.103 5.399 1.103zM1053.853 398.408c-.192.178-.54.267-1.021.267h-3.58c-.488 0-.829-.089-1.036-.267-.177-.162-.281-.51-.281-1.035v-31.498h-11.317c-.533 0-.888-.097-1.065-.326-.17-.229-.251-.539-.251-.932v-2.878c0-.443.081-.791.251-1.043.178-.236.532-.362 1.065-.362h29.353c.592 0 .962.126 1.095.362.148.252.222.6.222 1.043v2.878c0 .393-.073.703-.222.932-.133.229-.503.326-1.095.326h-11.828v31.498c-.001.525-.098.873-.29 1.035zM1090.44 359.527c2.773 0 5.163.4 7.19 1.154 2.02.777 3.676 1.894 4.971 3.336 1.279 1.428 2.249 3.137 2.877 5.112.637 1.975.955 4.143.955 6.531 0 1.161-.148 2.116-.444 2.849-.288.732-.688 1.309-1.213 1.73-.503.399-1.08.71-1.738.865a8.743 8.743 0 0 1-2.086.244h-21.031c0 2.294.318 4.254.962 5.852.629 1.605 1.472 2.922 2.529 3.913a9.244 9.244 0 0 0 3.654 2.153c1.392.436 2.893.665 4.513.665 1.599 0 3.196-.222 4.757-.636 1.561-.407 2.863-.881 3.884-1.436.592-.317 1.05-.207 1.391.378l1.538 3.077c.326.681.186 1.154-.443 1.449a15.94 15.94 0 0 1-5.666 2.146 32.24 32.24 0 0 1-5.955.563c-2.715 0-5.171-.392-7.331-1.177-2.167-.776-3.995-1.967-5.519-3.572-1.509-1.605-2.663-3.64-3.462-6.125s-1.206-5.459-1.206-8.922c0-3.203.422-6.058 1.28-8.573.858-2.508 2.034-4.616 3.536-6.317a15.335 15.335 0 0 1 5.341-3.913c2.042-.902 4.275-1.346 6.716-1.346zm10.001 16.719c0-1.51-.148-2.952-.443-4.343-.289-1.383-.814-2.611-1.568-3.646-.77-1.051-1.783-1.879-3.078-2.479-1.294-.614-2.929-.925-4.882-.925-1.605 0-3.033.318-4.275.947a9.602 9.602 0 0 0-3.151 2.529c-.858 1.044-1.531 2.249-2.027 3.61a15.986 15.986 0 0 0-.88 4.306h20.304zM1133.301 398.408c-.192.178-.533.267-1.021.267h-3.58c-.48 0-.813-.089-1.021-.267-.185-.162-.289-.51-.289-1.035v-31.498h-11.325c-.532 0-.88-.097-1.058-.326-.17-.229-.259-.539-.259-.932v-2.878c0-.443.089-.791.259-1.043.178-.236.525-.362 1.058-.362h29.354c.599 0 .961.126 1.109.362.141.252.222.6.222 1.043v2.878c0 .393-.081.703-.222.932-.148.229-.511.326-1.109.326h-11.821v31.498c-.001.525-.113.873-.297 1.035zM1156.669 361.428c0-.495.104-.813.296-.962.199-.133.495-.207.888-.207h3.987c.443 0 .754.074.924.207.186.148.26.467.26.962v28.185h.296a609.875 609.875 0 0 0 3.166-5.075 110.776 110.776 0 0 1 3.239-4.927l10.993-17.021c.495-.82.946-1.405 1.391-1.76.444-.333 1.14-.496 2.108-.496h1.894c.828 0 1.517.236 2.079.732.547.488.836 1.213.836 2.183v34.397c0 .437-.082.71-.26.844-.162.133-.466.185-.902.185h-4.023c-.393 0-.682-.052-.889-.185-.177-.134-.281-.407-.281-.844V369.75h-.429a64.063 64.063 0 0 0-1.583 2.448c-.459.755-.917 1.51-1.383 2.264-.467.762-.939 1.517-1.428 2.301-.488.776-1.021 1.605-1.605 2.479l-11.399 17.229c-.532.836-1.058 1.412-1.561 1.723-.511.318-1.184.481-2.013.481h-1.679c-.873 0-1.583-.237-2.116-.703-.532-.466-.806-1.169-.806-2.146v-34.398zM1209.064 398.49c-.178.133-.466.185-.918.185h-3.935c-.393 0-.695-.052-.917-.185-.223-.134-.326-.43-.326-.918v-36.144c0-.495.104-.799.326-.917.222-.126.524-.178.917-.178h3.935c.452 0 .74.052.918.178.178.118.252.422.252.917v14.166h6.287c.732 0 1.436-.06 2.115-.185.682-.111 1.324-.377 1.938-.77.606-.393 1.169-.925 1.679-1.612.511-.681.939-1.583 1.28-2.686l2.841-9.136c.104-.385.252-.637.488-.74.207-.088.443-.133.695-.133h4.01c.384 0 .636.126.725.399.104.274.118.519.081.77l-2.774 9.564c-.398 1.562-.954 2.93-1.679 4.12a6.702 6.702 0 0 1-3.069 2.664l-.074.154c1.894.578 3.24 1.473 4.009 2.656.784 1.191 1.413 2.574 1.909 4.135l3.721 12.635a2.88 2.88 0 0 1 0 .799c-.052.281-.341.444-.881.444h-4.305c-.2 0-.414-.037-.651-.111-.251-.073-.429-.303-.518-.688l-3.58-12.058c-.533-1.857-1.487-3.166-2.849-3.943-1.368-.784-2.796-1.176-4.305-1.176h-7.094v16.873c.001.491-.073.787-.251.921zM1244.594 361.428c0-.495.096-.813.296-.962.2-.133.495-.207.88-.207h3.995c.444 0 .755.074.925.207.185.148.259.467.259.962v28.185h.296l3.166-5.075a111.74 111.74 0 0 1 3.24-4.927l10.992-17.021c.488-.82.947-1.405 1.391-1.76.43-.333 1.14-.496 2.108-.496h1.901c.82 0 1.509.236 2.071.732.555.488.843 1.213.843 2.183v34.397c0 .437-.104.71-.266.844-.17.133-.474.185-.91.185h-4.017c-.399 0-.681-.052-.873-.185-.207-.134-.304-.407-.304-.844V369.75h-.436a53.643 53.643 0 0 0-1.568 2.448c-.459.755-.925 1.51-1.377 2.264-.473.762-.946 1.517-1.435 2.301-.488.776-1.028 1.605-1.598 2.479l-11.407 17.229c-.525.836-1.05 1.412-1.561 1.723-.51.318-1.191.481-2.005.481h-1.687c-.873 0-1.583-.237-2.115-.703-.533-.466-.807-1.169-.807-2.146v-34.398zM1315.143 361.428c0-.495.096-.813.296-.962.192-.133.48-.207.88-.207h3.987c.444 0 .755.074.925.207.178.148.259.467.259.962v28.185h.296c1.169-1.85 2.22-3.544 3.166-5.075a105.479 105.479 0 0 1 3.248-4.927l10.992-17.021c.488-.82.947-1.405 1.383-1.76.444-.333 1.14-.496 2.102-.496h1.908c.813 0 1.509.236 2.071.732.555.488.829 1.213.829 2.183v34.397c0 .437-.074.71-.244.844-.171.133-.481.185-.918.185h-4.017c-.385 0-.688-.052-.873-.185-.2-.134-.288-.407-.288-.844V369.75h-.444c-.577.873-1.116 1.687-1.575 2.448l-1.376 2.264c-.474.762-.947 1.517-1.436 2.301-.488.776-1.021 1.605-1.604 2.479l-11.393 17.229c-.532.836-1.051 1.412-1.568 1.723-.518.318-1.176.481-2.004.481h-1.688c-.873 0-1.568-.237-2.115-.703-.532-.466-.799-1.169-.799-2.146v-34.398zM1391.713 398.49c-.17.133-.48.185-.91.185h-3.95c-.392 0-.695-.052-.91-.185-.229-.134-.325-.43-.325-.918v-36.144c0-.495.096-.799.325-.917.215-.126.519-.178.91-.178h3.95c.43 0 .74.052.91.178.162.118.251.422.251.917v14.166h6.28c.726 0 1.436-.06 2.116-.185a5.062 5.062 0 0 0 1.938-.77 6.284 6.284 0 0 0 1.671-1.612c.519-.681.947-1.583 1.288-2.686l2.84-9.136c.104-.385.259-.637.488-.74.207-.088.443-.133.681-.133h4.017c.385 0 .637.126.732.399.104.274.118.519.082.77l-2.774 9.564c-.399 1.562-.947 2.93-1.687 4.12a6.67 6.67 0 0 1-3.07 2.664l-.066.154c1.894.578 3.226 1.473 4.017 2.656.776 1.191 1.413 2.574 1.901 4.135l3.713 12.635c.053.237.053.503 0 .799-.044.281-.332.444-.872.444h-4.306c-.192 0-.414-.037-.666-.111-.236-.073-.414-.303-.503-.688l-3.58-12.058c-.532-1.857-1.494-3.166-2.855-3.943-1.361-.784-2.789-1.176-4.306-1.176h-7.079v16.873c0 .491-.089.787-.251.921zM1457.039 395.093c0 .962-.37 1.599-1.103 1.901a25.853 25.853 0 0 1-7.124 1.968 55.39 55.39 0 0 1-7.338.511c-3.151 0-5.755-.333-7.782-.991-2.012-.658-3.609-1.554-4.778-2.663-1.161-1.124-1.982-2.434-2.441-3.892a15.125 15.125 0 0 1-.695-4.615c0-1.657.281-3.285.844-4.867.555-1.584 1.465-2.975 2.736-4.18 1.266-1.199 2.907-2.152 4.927-2.885 2.02-.74 4.498-1.096 7.412-1.096h8.914v-1.598c0-1.169-.118-2.212-.333-3.114a5.235 5.235 0 0 0-1.272-2.39c-.636-.68-1.538-1.198-2.67-1.568-1.146-.354-2.619-.539-4.424-.539-1.709 0-3.514.147-5.437.451-1.924.273-3.5.629-4.713 1.014-.392.141-.702.191-.946.141-.244-.053-.422-.267-.511-.659l-.873-3.136a.933.933 0 0 1-.044-.688c.073-.237.311-.399.695-.563 1.849-.769 3.972-1.316 6.354-1.642 2.389-.304 4.578-.467 6.576-.467 4.867 0 8.418 1.08 10.659 3.24 2.241 2.175 3.366 5.334 3.366 9.454v22.873zm-6.51-15.26h-8.471c-.865 0-1.886.051-3.025.17a9.513 9.513 0 0 0-3.254.961c-1.021.511-1.879 1.258-2.59 2.257-.71.991-1.064 2.382-1.064 4.128 0 1.316.251 2.419.739 3.328.48.91 1.14 1.598 1.968 2.108s1.805.881 2.93 1.103a19.84 19.84 0 0 0 3.639.318c.451 0 1.006 0 1.717-.03.71-.022 1.494-.096 2.338-.222.85-.111 1.723-.259 2.588-.437a16.747 16.747 0 0 0 2.486-.688v-12.996zM1468.786 361.428c0-.495.104-.799.296-.917.191-.126.473-.178.857-.178h4.047c.385 0 .673.052.865.178.192.118.281.422.281.917v8.537c0 1.856.192 3.358.563 4.534.362 1.161.924 2.086 1.687 2.737.754.65 1.73 1.124 2.929 1.391 1.199.259 2.604.399 4.217.399 1.272 0 2.737-.118 4.401-.326 1.665-.222 3.122-.576 4.394-1.064v-16.208c0-.495.082-.799.252-.917.186-.126.48-.178.925-.178h4.009c.385 0 .688.052.881.178.192.118.289.422.289.917v36.144c0 .488-.097.784-.289.918-.192.133-.496.185-.881.185h-4.009c-.444 0-.739-.052-.925-.185-.17-.134-.252-.43-.252-.918v-14.528c-1.405.481-3.055.858-4.926 1.132-1.872.267-3.499.399-4.854.399-5.155 0-8.898-1.198-11.251-3.61-2.337-2.418-3.506-6.125-3.506-11.14v-8.397zM1529.03 359.527c2.781 0 5.178.4 7.19 1.154 2.026.777 3.684 1.894 4.971 3.336 1.295 1.428 2.256 3.137 2.885 5.112.637 1.975.947 4.143.947 6.531 0 1.161-.134 2.116-.43 2.849s-.695 1.309-1.213 1.73a4.504 4.504 0 0 1-1.746.865 8.653 8.653 0 0 1-2.086.244h-21.03c0 2.294.325 4.254.954 5.852.629 1.605 1.479 2.922 2.522 3.913a9.385 9.385 0 0 0 3.669 2.153c1.398.436 2.9.665 4.513.665 1.604 0 3.188-.222 4.764-.636 1.554-.407 2.862-.881 3.884-1.436.584-.317 1.043-.207 1.391.378l1.531 3.077c.34.681.192 1.154-.443 1.449a15.968 15.968 0 0 1-5.66 2.146 32.203 32.203 0 0 1-5.947.563c-2.736 0-5.178-.392-7.346-1.177-2.167-.776-4.002-1.967-5.511-3.572s-2.663-3.64-3.477-6.125c-.792-2.485-1.198-5.459-1.198-8.922 0-3.203.429-6.058 1.279-8.573.852-2.508 2.027-4.616 3.544-6.317a15.354 15.354 0 0 1 5.326-3.913c2.049-.902 4.291-1.346 6.717-1.346zm10.016 16.719c0-1.51-.147-2.952-.444-4.343-.295-1.383-.813-2.611-1.575-3.646-.762-1.051-1.782-1.879-3.077-2.479-1.295-.614-2.922-.925-4.875-.925-1.612 0-3.04.318-4.283.947a9.711 9.711 0 0 0-3.158 2.529 11.883 11.883 0 0 0-2.013 3.61 15.722 15.722 0 0 0-.88 4.306h20.305zM1573.362 393.932c1.649 0 3.27-.229 4.86-.665 1.583-.437 2.899-.925 3.979-1.465.429-.229.755-.311.946-.178.193.111.355.303.511.547l1.458 3.085c.392.644.266 1.169-.363 1.546-1.856 1.051-3.868 1.731-6.059 2.108-2.189.378-4.29.563-6.287.563-5.349 0-9.439-1.649-12.265-4.919-2.818-3.307-4.231-8.175-4.231-14.662 0-3.106.399-5.91 1.198-8.433.807-2.501 1.953-4.646 3.447-6.421a14.687 14.687 0 0 1 5.43-4.091c2.138-.954 4.557-1.421 7.234-1.421 1.938 0 3.802.2 5.585.585 1.775.385 3.484 1.043 5.148 1.96.674.407.829.925.437 1.539l-1.538 3.003a1.592 1.592 0 0 1-.474.622c-.178.125-.474.059-.91-.193a23.726 23.726 0 0 0-3.795-1.309 18.414 18.414 0 0 0-4.387-.511c-1.945 0-3.617.399-5.008 1.206-1.376.799-2.53 1.871-3.433 3.232s-1.553 2.922-1.953 4.66c-.429 1.754-.636 3.596-.636 5.541s.178 3.766.518 5.459c.333 1.701.933 3.195 1.79 4.476.844 1.302 1.976 2.308 3.396 3.033 1.4.733 3.205 1.103 5.402 1.103zM1611.259 398.408c-.192.178-.532.267-1.021.267h-3.58c-.481 0-.814-.089-1.021-.267-.185-.162-.281-.51-.281-1.035v-31.498h-11.325c-.54 0-.888-.097-1.058-.326-.178-.229-.266-.539-.266-.932v-2.878c0-.443.088-.791.266-1.043.17-.236.518-.362 1.058-.362h29.36c.584 0 .947.126 1.095.362.148.252.215.6.215 1.043v2.878c0 .393-.066.703-.215.932-.147.229-.511.326-1.095.326h-11.836v31.498c0 .525-.104.873-.296 1.035zM1660.555 378.08c2.338.777 3.995 2.027 4.972 3.766.976 1.716 1.457 3.588 1.457 5.578 0 1.701-.325 3.239-.983 4.594a11.27 11.27 0 0 1-2.664 3.551 11.911 11.911 0 0 1-3.979 2.308c-1.538.524-3.195.799-5 .799h-16.659c-1.021 0-1.783-.274-2.293-.799-.518-.54-.762-1.251-.762-2.131V363.25c0-.925.259-1.636.791-2.168.533-.495 1.295-.747 2.264-.747h15.927c3.396 0 6.206.747 8.396 2.301 2.189 1.531 3.285 3.957 3.285 7.257 0 1.664-.43 3.195-1.273 4.608-.857 1.42-1.997 2.456-3.402 3.137l-.077.442zm-19.574-2.337h12.354c.481 0 1.051-.082 1.709-.252a5.496 5.496 0 0 0 1.798-.836c.532-.392.991-.909 1.376-1.568.399-.644.592-1.479.592-2.508 0-1.294-.466-2.403-1.391-3.313-.918-.925-2.168-1.391-3.729-1.391h-12.709v9.868zm19.441 11.302c0-1.894-.637-3.417-1.864-4.586-1.25-1.177-3.106-1.761-5.593-1.761h-11.983v13.004h11.91c1.554 0 2.818-.222 3.802-.65.977-.451 1.738-.999 2.293-1.657a5.174 5.174 0 0 0 1.133-2.152c.198-.77.302-1.509.302-2.198zM1709.274 395.093c0 .962-.37 1.599-1.11 1.901a25.888 25.888 0 0 1-7.108 1.968 55.588 55.588 0 0 1-7.346.511c-3.166 0-5.755-.333-7.767-.991-2.027-.658-3.618-1.554-4.794-2.663-1.169-1.124-1.982-2.434-2.441-3.892-.466-1.457-.688-3.01-.688-4.615 0-1.657.273-3.285.836-4.867.555-1.584 1.464-2.975 2.737-4.18 1.257-1.199 2.899-2.152 4.926-2.885 2.02-.74 4.49-1.096 7.412-1.096h8.906v-1.598c0-1.169-.104-2.212-.325-3.114-.222-.925-.636-1.724-1.272-2.39-.636-.68-1.523-1.198-2.678-1.568-1.139-.354-2.604-.539-4.408-.539-1.702 0-3.521.147-5.445.451-1.923.273-3.498.629-4.704 1.014-.393.141-.71.191-.954.141-.244-.053-.414-.267-.511-.659l-.88-3.136c-.097-.244-.111-.474-.037-.688.074-.237.311-.399.702-.563 1.857-.769 3.958-1.316 6.347-1.642 2.39-.304 4.572-.467 6.577-.467 4.867 0 8.418 1.08 10.667 3.24 2.233 2.175 3.358 5.334 3.358 9.454v22.873zm-6.503-15.26h-8.47c-.888 0-1.894.051-3.032.17a9.616 9.616 0 0 0-3.256.961c-1.021.511-1.879 1.258-2.589 2.257-.71.991-1.05 2.382-1.05 4.128 0 1.316.236 2.419.71 3.328a5.438 5.438 0 0 0 1.982 2.108c.836.511 1.805.881 2.922 1.103 1.117.207 2.337.318 3.646.318.437 0 1.021 0 1.731-.03a20.538 20.538 0 0 0 2.322-.222c.858-.111 1.717-.259 2.597-.437s1.709-.399 2.485-.688v-12.996zM1767.321 380.699h-5.696c-1.509 0-2.943.392-4.305 1.176-1.369.777-2.315 2.086-2.849 3.943l-3.58 12.058c-.104.385-.267.614-.518.688a2.233 2.233 0 0 1-.658.111h-4.224c-.533 0-.844-.163-.918-.444-.074-.296-.089-.562-.037-.799l3.729-12.635c.48-1.561 1.117-2.943 1.901-4.135.769-1.184 2.115-2.078 4.009-2.656l-.074-.154a6.702 6.702 0 0 1-3.069-2.664 14.779 14.779 0 0 1-1.679-4.12l-2.768-9.564c-.059-.251-.021-.495.074-.77.089-.273.355-.399.799-.399h3.936c.244 0 .48.045.695.133.223.104.385.355.48.74l2.849 9.136c.34 1.103.755 2.005 1.243 2.686a5.765 5.765 0 0 0 1.649 1.612 5.025 5.025 0 0 0 1.968.77c.702.125 1.428.185 2.152.185h4.89v-14.166c0-.495.089-.799.259-.917.178-.126.474-.178.917-.178h4.01c.385 0 .681.052.88.178.186.118.289.422.289.917v14.166h4.896c.726 0 1.443-.06 2.152-.185a5.142 5.142 0 0 0 1.976-.77c.606-.393 1.161-.925 1.672-1.612.511-.681.939-1.583 1.28-2.686l2.773-9.136c.096-.385.259-.637.474-.74.222-.088.458-.133.695-.133h3.942c.437 0 .688.126.777.399.059.274.081.519.029.77l-2.707 9.564c-.385 1.562-.962 2.93-1.717 4.12-.754 1.184-1.76 2.087-3.018 2.664l-.089.154c.932.289 1.724.651 2.382 1.096a6.677 6.677 0 0 1 1.643 1.523 8.78 8.78 0 0 1 1.094 1.945c.297.695.563 1.45.807 2.227l3.647 12.635c.044.237.059.503.044.799-.029.281-.311.444-.844.444h-4.305a2.32 2.32 0 0 1-.666-.111c-.236-.073-.414-.303-.503-.688l-3.58-12.058c-.54-1.857-1.479-3.166-2.849-3.943-1.368-.784-2.803-1.176-4.305-1.176h-5.703v16.873c0 .488-.104.784-.289.918-.199.133-.495.185-.88.185h-4.01c-.443 0-.739-.052-.917-.185-.17-.134-.259-.43-.259-.918v-16.873zM1807.563 361.428c0-.495.097-.813.289-.962.199-.133.495-.207.888-.207h3.994c.444 0 .755.074.933.207.162.148.251.467.251.962v28.185h.281c1.177-1.85 2.227-3.544 3.181-5.075.947-1.523 2.02-3.188 3.226-4.927l11.007-17.021c.481-.82.947-1.405 1.376-1.76.444-.333 1.147-.496 2.116-.496h1.9c.821 0 1.517.236 2.064.732.563.488.844 1.213.844 2.183v34.397c0 .437-.09.71-.26.844-.162.133-.473.185-.91.185h-4.009c-.399 0-.688-.052-.888-.185-.192-.134-.281-.407-.281-.844V369.75h-.443a73.104 73.104 0 0 0-1.576 2.448c-.459.755-.925 1.51-1.383 2.264-.459.762-.933 1.517-1.421 2.301a88.42 88.42 0 0 1-1.612 2.479l-11.393 17.229c-.532.836-1.05 1.412-1.567 1.723-.503.318-1.184.481-2.013.481h-1.679c-.88 0-1.575-.237-2.108-.703-.54-.466-.807-1.169-.807-2.146v-34.398zM1873.569 378.435c2.294.592 4.105 1.672 5.46 3.255 1.331 1.575 1.997 3.462 1.997 5.659 0 1.693-.341 3.284-1.021 4.741-.681 1.472-1.679 2.729-2.988 3.81-1.316 1.059-2.959 1.908-4.897 2.537-1.952.645-4.216.962-6.79.962a50.34 50.34 0 0 1-7.486-.584c-2.604-.393-4.809-1.073-6.613-2.05-.636-.392-.829-.828-.585-1.316l1.605-3.277c.148-.311.341-.436.592-.398.237.021.504.088.799.244 1.169.547 2.745 1.064 4.75 1.545 1.997.474 3.994.726 5.984.726 3.75 0 6.442-.695 8.07-2.086 1.627-1.368 2.456-3.077 2.456-5.075 0-1.849-.881-3.344-2.604-4.49-1.73-1.139-4.586-1.708-8.58-1.708-.829 0-1.436-.134-1.835-.407-.378-.267-.569-.762-.569-1.494v-1.25c0-1.266.776-1.879 2.337-1.879 6.621-.155 9.92-2.013 9.92-5.6 0-1.591-.702-2.849-2.115-3.773-1.405-.917-3.507-1.361-6.273-1.361-1.657 0-3.417.193-5.252.614-1.864.399-3.417.873-4.675 1.421a2.958 2.958 0 0 1-.77.185c-.267.007-.474-.163-.621-.548l-1.317-3.158c-.199-.555-.059-.947.437-1.184 1.754-.939 3.751-1.664 5.992-2.152 2.241-.496 4.594-.747 7.079-.747 4.128 0 7.486.865 10.046 2.604 2.552 1.724 3.832 4.18 3.832 7.412 0 1.835-.577 3.521-1.746 5.03s-2.715 2.707-4.616 3.58v.212zM1899.246 398.408c-.215.178-.555.267-1.043.267h-3.536c-.474 0-.844-.089-1.088-.267-.236-.162-.362-.51-.362-1.051v-35.78c0-.54.126-.896.362-1.028.244-.148.614-.215 1.088-.215h3.536c.488 0 .828.066 1.043.215.222.133.332.488.332 1.028v13.804h18.908v-13.804c0-.54.118-.896.333-1.028.229-.148.584-.215 1.072-.215h3.625c.54 0 .896.066 1.065.215.178.133.266.488.266 1.028v35.78c0 .541-.088.889-.266 1.051-.17.178-.525.267-1.065.267h-3.625c-.488 0-.843-.089-1.072-.267-.215-.162-.333-.51-.333-1.051V380.78h-18.908v16.577c0 .541-.11.889-.332 1.051zM1938.866 361.428c0-.495.096-.813.288-.962.207-.133.496-.207.896-.207h3.987c.437 0 .754.074.917.207.178.148.259.467.259.962v28.185h.304c1.153-1.85 2.204-3.544 3.166-5.075a110.776 110.776 0 0 1 3.239-4.927l10.993-17.021c.48-.82.939-1.405 1.376-1.76.443-.333 1.154-.496 2.115-.496h1.895c.82 0 1.523.236 2.086.732.555.488.828 1.213.828 2.183v34.397c0 .437-.082.71-.259.844-.163.133-.466.185-.902.185h-4.017c-.4 0-.695-.052-.889-.185-.191-.134-.295-.407-.295-.844V369.75h-.43a54.519 54.519 0 0 0-1.568 2.448c-.459.755-.924 1.51-1.383 2.264-.467.762-.947 1.517-1.428 2.301a86.357 86.357 0 0 1-1.613 2.479l-11.392 17.229c-.532.836-1.058 1.412-1.568 1.723-.518.318-1.184.481-1.997.481h-1.687c-.88 0-1.583-.237-2.123-.703-.532-.466-.799-1.169-.799-2.146v-34.398z"/>
    </g>
</svg>
