<svg width="449" height="98" fill="none" xmlns="http://www.w3.org/2000/svg">
    <path d="M19.696 26.1c0 2.153-.265 4.094-.795 5.823-.53 1.73-1.325 3.204-2.385 4.421-1.042 1.218-2.35 2.153-3.922 2.806s-3.4.98-5.485.98c-.954 0-1.89-.062-2.81-.186a23.381 23.381 0 0 1-2.888-.53c.053-.705.115-1.411.186-2.117.07-.706.132-1.412.185-2.118.053-.388.203-.697.45-.926.266-.247.637-.37 1.114-.37.3 0 .689.061 1.166.185.494.123 1.113.185 1.855.185 1.007 0 1.899-.141 2.676-.424a4.537 4.537 0 0 0 1.935-1.403c.53-.635.927-1.455 1.192-2.461.265-1.024.398-2.26.398-3.706V1.429h7.128V26.1Zm18.29-13.977c2.014 0 3.842.327 5.485.98 1.66.653 3.074 1.58 4.24 2.78 1.184 1.2 2.094 2.664 2.73 4.393.636 1.73.954 3.662.954 5.797 0 2.154-.318 4.095-.954 5.824-.636 1.73-1.546 3.203-2.73 4.42-1.166 1.218-2.58 2.154-4.24 2.806-1.643.654-3.471.98-5.485.98-2.032 0-3.878-.327-5.539-.98-1.66-.652-3.083-1.588-4.266-2.805-1.166-1.218-2.076-2.691-2.73-4.42-.636-1.73-.954-3.671-.954-5.825 0-2.135.318-4.067.954-5.797.654-1.729 1.564-3.194 2.73-4.394 1.183-1.2 2.605-2.126 4.266-2.78 1.66-.652 3.507-.979 5.539-.979Zm0 22.95c2.261 0 3.93-.758 5.008-2.276 1.096-1.518 1.643-3.741 1.643-6.67 0-2.93-.547-5.162-1.643-6.698-1.078-1.535-2.747-2.302-5.008-2.302-2.297 0-4.002.776-5.115 2.329-1.095 1.535-1.643 3.759-1.643 6.67 0 2.912.548 5.136 1.643 6.671 1.113 1.518 2.818 2.277 5.115 2.277Zm42.169-22.526L65.34 47.171c-.194.458-.45.803-.768 1.032-.3.247-.769.37-1.405.37h-4.876l5.088-10.905-10.997-25.12h5.75c.512 0 .91.123 1.193.37.3.247.52.53.662.847l5.777 14.082c.195.476.353.953.477 1.43.141.476.274.961.398 1.455.159-.494.318-.98.477-1.456.159-.494.335-.979.53-1.455l5.459-14.056c.141-.353.37-.644.689-.874a1.93 1.93 0 0 1 1.113-.344h5.247Z" fill="#222"/>
    <path d="m135.425 1.43-11.898 38.276h-6.44l-8.374-26.153c-.229-.635-.441-1.412-.636-2.33a41.93 41.93 0 0 1-.318 1.245c-.106.388-.221.75-.344 1.085l-8.454 26.153h-6.466L80.623 1.429h5.963c.618 0 1.13.15 1.537.45.424.283.706.671.848 1.165l6.519 22.897c.141.565.274 1.183.397 1.853.142.653.283 1.341.424 2.065.142-.741.292-1.438.45-2.091.178-.653.363-1.262.557-1.827l7.526-22.897c.142-.406.415-.776.822-1.112.424-.335.936-.503 1.537-.503h2.093c.619 0 1.122.15 1.511.45.388.3.68.689.874 1.165l7.5 22.897c.371 1.094.706 2.356 1.007 3.786.229-1.395.486-2.656.768-3.786l6.519-22.897c.106-.441.371-.82.795-1.138.442-.318.963-.477 1.564-.477h5.591Zm12.494 10.694c2.014 0 3.842.326 5.485.979 1.661.653 3.074 1.58 4.24 2.78 1.184 1.2 2.094 2.664 2.73 4.393.636 1.73.954 3.662.954 5.797 0 2.154-.318 4.095-.954 5.824-.636 1.73-1.546 3.203-2.73 4.42-1.166 1.218-2.579 2.154-4.24 2.806-1.643.654-3.471.98-5.485.98-2.031 0-3.878-.327-5.538-.98-1.661-.652-3.083-1.588-4.267-2.805-1.166-1.218-2.076-2.691-2.729-4.42-.636-1.73-.954-3.671-.954-5.825 0-2.135.318-4.067.954-5.797.653-1.729 1.563-3.194 2.729-4.394 1.184-1.2 2.606-2.126 4.267-2.78 1.66-.652 3.507-.979 5.538-.979Zm0 22.95c2.261 0 3.93-.76 5.008-2.277 1.095-1.518 1.643-3.741 1.643-6.67 0-2.93-.548-5.162-1.643-6.698-1.078-1.535-2.747-2.302-5.008-2.302-2.296 0-4.001.776-5.114 2.329-1.096 1.535-1.643 3.759-1.643 6.67 0 2.912.547 5.136 1.643 6.671 1.113 1.518 2.818 2.277 5.114 2.277Zm24.577-17.815c.848-1.624 1.855-2.894 3.021-3.812 1.166-.935 2.544-1.403 4.134-1.403 1.254 0 2.261.274 3.021.82l-.424 4.898c-.088.317-.221.547-.398.688-.159.123-.379.185-.662.185-.265 0-.663-.044-1.193-.132a8.881 8.881 0 0 0-1.51-.132c-.724 0-1.369.106-1.935.317a4.911 4.911 0 0 0-1.537.927 6.42 6.42 0 0 0-1.192 1.43 15.075 15.075 0 0 0-.954 1.931v16.73h-6.546V12.547h3.843c.671 0 1.139.124 1.404.37.265.23.442.654.53 1.271l.398 3.07ZM192.639.37v22.526h1.219c.441 0 .786-.053 1.033-.159.265-.123.53-.361.795-.715l6.758-8.338c.282-.37.592-.653.927-.847.354-.194.804-.29 1.352-.29h5.989l-8.454 10.084c-.6.794-1.254 1.403-1.961 1.827.371.265.698.573.981.926.3.353.583.733.848 1.138l9.063 13.183h-5.91c-.512 0-.954-.08-1.325-.238-.371-.177-.68-.486-.927-.927l-6.943-10.297c-.248-.406-.504-.67-.769-.794-.265-.123-.662-.185-1.192-.185h-1.484v12.44h-6.546V.372h6.546Z" fill="#4CAF50"/>
    <path d="M11.89 91.04c.107 0 .2.043.28.13l.77.83a6.12 6.12 0 0 1-2.14 1.59c-.833.38-1.843.57-3.03.57-1.027 0-1.96-.177-2.8-.53a6.247 6.247 0 0 1-2.15-1.5c-.593-.647-1.053-1.42-1.38-2.32-.327-.9-.49-1.89-.49-2.97 0-1.08.17-2.07.51-2.97.34-.9.817-1.673 1.43-2.32a6.41 6.41 0 0 1 2.22-1.5c.86-.36 1.81-.54 2.85-.54 1.02 0 1.92.163 2.7.49.78.327 1.467.77 2.06 1.33l-.64.89a.554.554 0 0 1-.16.17.447.447 0 0 1-.25.06c-.12 0-.267-.063-.44-.19a6.1 6.1 0 0 0-.68-.44c-.28-.16-.63-.303-1.05-.43-.42-.133-.937-.2-1.55-.2-.74 0-1.417.13-2.03.39a4.424 4.424 0 0 0-1.59 1.11c-.44.487-.783 1.08-1.03 1.78s-.37 1.49-.37 2.37c0 .893.127 1.69.38 2.39.26.7.61 1.293 1.05 1.78.447.48.97.847 1.57 1.1.607.253 1.26.38 1.96.38.427 0 .81-.023 1.15-.07.347-.053.663-.133.95-.24.293-.107.563-.24.81-.4a5.93 5.93 0 0 0 .75-.59c.113-.1.227-.15.34-.15Zm7.27-4.43c.56 0 1.053-.067 1.48-.2a3.09 3.09 0 0 0 1.08-.58c.293-.253.513-.553.66-.9.146-.347.22-.73.22-1.15 0-.853-.28-1.497-.84-1.93-.56-.433-1.4-.65-2.52-.65h-2.12v5.41h2.04ZM25.78 94h-1.72c-.354 0-.614-.137-.78-.41l-3.72-5.12a1.035 1.035 0 0 0-.37-.34c-.127-.073-.327-.11-.6-.11h-1.47V94h-1.93V79.67h4.05c.906 0 1.69.093 2.35.28.66.18 1.203.443 1.63.79.433.347.753.767.96 1.26.206.487.31 1.033.31 1.64 0 .507-.08.98-.24 1.42-.16.44-.394.837-.7 1.19-.3.347-.67.643-1.11.89a5.42 5.42 0 0 1-1.48.56c.246.14.46.343.64.61L25.78 94Zm16.858-14.33V94h-1.7V83.47c0-.14.004-.29.01-.45l.04-.49-4.92 8.96c-.153.3-.386.45-.7.45h-.28c-.313 0-.546-.15-.7-.45l-5.02-9c.04.353.06.68.06.98V94h-1.7V79.67h1.43c.174 0 .307.017.4.05.094.033.184.127.27.28l4.95 8.82c.08.16.157.327.23.5.08.173.154.35.22.53.067-.18.137-.357.21-.53.074-.18.154-.35.24-.51l4.86-8.81c.08-.153.167-.247.26-.28.1-.033.237-.05.41-.05h1.43Zm17.052 4.2V94h-1.78v-6.88c0-.133.007-.277.02-.43.013-.153.03-.307.05-.46-.06.133-.12.257-.18.37-.06.113-.123.217-.19.31l-4.89 6.65c-.073.107-.167.21-.28.31a.532.532 0 0 1-.36.14H51V83.88h1.79v6.88c0 .127-.007.267-.02.42-.014.147-.03.297-.05.45.06-.127.12-.243.18-.35.06-.113.12-.217.18-.31l4.89-6.65a1.47 1.47 0 0 1 .28-.3c.113-.1.236-.15.37-.15h1.07ZM67 81.33A6.798 6.798 0 0 1 69.06 80c.78-.327 1.68-.49 2.7-.49 1.04 0 1.99.18 2.85.54.86.353 1.598.853 2.21 1.5.62.647 1.1 1.42 1.44 2.32.34.9.51 1.89.51 2.97 0 1.08-.162 2.07-.49 2.97-.326.9-.786 1.673-1.38 2.32a6.247 6.247 0 0 1-2.15 1.5c-.84.353-1.772.53-2.8.53-1.186 0-2.2-.19-3.04-.57A6.143 6.143 0 0 1 66.78 92l.77-.83a.37.37 0 0 1 .28-.13c.114 0 .228.05.34.15.248.227.494.423.74.59.254.16.524.293.81.4.294.107.61.187.95.24.34.047.728.07 1.16.07.66 0 1.278-.113 1.85-.34a4.58 4.58 0 0 0 1.52-.98c.44-.433.798-.963 1.07-1.59.274-.627.44-1.34.5-2.14h-7.23v-1.47h7.21c-.08-.753-.26-1.423-.54-2.01a4.758 4.758 0 0 0-1.06-1.5 4.37 4.37 0 0 0-1.51-.94 5.176 5.176 0 0 0-1.87-.33c-.612 0-1.13.067-1.55.2-.42.127-.77.27-1.05.43a6.11 6.11 0 0 0-.68.44c-.172.127-.32.19-.44.19a.5.5 0 0 1-.26-.06.612.612 0 0 1-.15-.17l-.64-.89Zm20.091 3.04c.094-.147.217-.267.37-.36a.927.927 0 0 1 .49-.14h1.39l-2.63 3.86a3.18 3.18 0 0 1-.5.61 1.864 1.864 0 0 1-.64.36c.32.087.59.223.81.41.22.18.417.413.59.7l2.66 4.19h-1.24c-.32 0-.566-.053-.74-.16a1.415 1.415 0 0 1-.45-.46l-1.97-3.15c-.313-.52-.783-.78-1.41-.78h-1.09v4.56h-1.79V83.87h1.79v4.38h.96c.534 0 .95-.227 1.25-.68l2.15-3.2Zm8.081-.66c.74 0 1.407.123 2 .37.594.247 1.1.597 1.52 1.05.42.453.74 1.003.96 1.65.227.64.34 1.357.34 2.15 0 .8-.113 1.52-.34 2.16-.22.64-.54 1.187-.96 1.64-.42.453-.926.803-1.52 1.05-.593.24-1.26.36-2 .36-.746 0-1.42-.12-2.02-.36a4.287 4.287 0 0 1-1.52-1.05c-.42-.453-.743-1-.97-1.64-.22-.64-.33-1.36-.33-2.16 0-.793.11-1.51.33-2.15a4.66 4.66 0 0 1 .97-1.65c.42-.453.927-.803 1.52-1.05.6-.247 1.273-.37 2.02-.37Zm0 9.04c1 0 1.747-.333 2.24-1 .493-.673.74-1.61.74-2.81 0-1.207-.246-2.147-.74-2.82-.493-.673-1.24-1.01-2.24-1.01-.507 0-.95.087-1.33.26a2.512 2.512 0 0 0-.94.75c-.246.327-.433.73-.56 1.21-.12.473-.18 1.01-.18 1.61 0 1.2.247 2.137.74 2.81.5.667 1.257 1 2.27 1Zm19.245-7.08a.795.795 0 0 1-.16.17.36.36 0 0 1-.22.06c-.1 0-.21-.04-.33-.12-.12-.087-.27-.18-.45-.28-.173-.1-.39-.19-.65-.27-.253-.087-.567-.13-.94-.13-.5 0-.94.09-1.32.27-.38.173-.7.427-.96.76a3.583 3.583 0 0 0-.58 1.21 6.138 6.138 0 0 0-.19 1.59c0 .613.07 1.16.21 1.64.14.473.337.873.59 1.2.26.32.57.567.93.74.367.167.777.25 1.23.25.433 0 .79-.05 1.07-.15.28-.107.51-.223.69-.35.187-.127.34-.24.46-.34.127-.107.25-.16.37-.16.147 0 .26.057.34.17l.5.65c-.22.273-.47.507-.75.7-.28.193-.583.357-.91.49-.32.127-.657.22-1.01.28-.353.06-.713.09-1.08.09a4.464 4.464 0 0 1-1.77-.35 4.065 4.065 0 0 1-1.41-1.01c-.4-.447-.713-.993-.94-1.64-.227-.647-.34-1.383-.34-2.21 0-.753.103-1.45.31-2.09.213-.64.52-1.19.92-1.65a4.21 4.21 0 0 1 1.49-1.09c.593-.26 1.273-.39 2.04-.39.713 0 1.34.117 1.88.35a4.43 4.43 0 0 1 1.45.97l-.47.64Zm11.191-1.8V94h-1.78v-6.88c0-.133.006-.277.02-.43.013-.153.03-.307.05-.46-.06.133-.12.257-.18.37-.06.113-.124.217-.19.31l-4.89 6.65c-.074.107-.167.21-.28.31a.534.534 0 0 1-.36.14h-1.08V83.88h1.79v6.88c0 .127-.007.267-.02.42-.014.147-.03.297-.05.45.06-.127.12-.243.18-.35.06-.113.12-.217.18-.31l4.89-6.65a1.44 1.44 0 0 1 .28-.3c.113-.1.236-.15.37-.15h1.07Zm9.864 1.8a.821.821 0 0 1-.16.17.361.361 0 0 1-.22.06c-.1 0-.21-.04-.33-.12-.12-.087-.27-.18-.45-.28a3.2 3.2 0 0 0-.65-.27c-.254-.087-.567-.13-.94-.13-.5 0-.94.09-1.32.27-.38.173-.7.427-.96.76a3.564 3.564 0 0 0-.58 1.21 6.138 6.138 0 0 0-.19 1.59c0 .613.07 1.16.21 1.64.14.473.336.873.59 1.2.26.32.57.567.93.74.366.167.776.25 1.23.25.433 0 .79-.05 1.07-.15.28-.107.51-.223.69-.35.186-.127.34-.24.46-.34.126-.107.25-.16.37-.16.146 0 .26.057.34.17l.5.65c-.22.273-.47.507-.75.7-.28.193-.584.357-.91.49-.32.127-.657.22-1.01.28-.354.06-.714.09-1.08.09a4.457 4.457 0 0 1-1.77-.35 4.065 4.065 0 0 1-1.41-1.01c-.4-.447-.714-.993-.94-1.64-.227-.647-.34-1.383-.34-2.21 0-.753.103-1.45.31-2.09.213-.64.52-1.19.92-1.65.406-.467.903-.83 1.49-1.09.593-.26 1.273-.39 2.04-.39.713 0 1.34.117 1.88.35a4.44 4.44 0 0 1 1.45.97l-.47.64Zm10.921-.44h-3.89V94h-1.78v-8.77h-3.89v-1.36h9.56v1.36Zm8.067 2.6c0-.413-.06-.79-.18-1.13a2.414 2.414 0 0 0-.51-.89 2.153 2.153 0 0 0-.81-.58c-.32-.14-.684-.21-1.09-.21-.854 0-1.53.25-2.03.75-.494.493-.8 1.18-.92 2.06h5.54Zm1.44 4.75c-.22.267-.484.5-.79.7a5.059 5.059 0 0 1-.99.48 5.85 5.85 0 0 1-1.08.28c-.374.067-.744.1-1.11.1-.7 0-1.347-.117-1.94-.35a4.387 4.387 0 0 1-1.53-1.04c-.427-.46-.76-1.027-1-1.7s-.36-1.447-.36-2.32c0-.707.106-1.367.32-1.98.22-.613.533-1.143.94-1.59a4.21 4.21 0 0 1 1.49-1.06c.586-.26 1.246-.39 1.98-.39.606 0 1.166.103 1.68.31.52.2.966.493 1.34.88.38.38.676.853.89 1.42.213.56.32 1.2.32 1.92 0 .28-.03.467-.09.56-.06.093-.174.14-.34.14h-6.77c.02.64.106 1.197.26 1.67.16.473.38.87.66 1.19.28.313.613.55 1 .71.386.153.82.23 1.3.23.446 0 .83-.05 1.15-.15a5.826 5.826 0 0 0 1.42-.67c.16-.107.296-.16.41-.16.146 0 .26.057.34.17l.5.65Zm13.636-8.74V94h-1.61v-6.73c0-.187.01-.393.03-.62.027-.233.06-.45.1-.65l-3.52 6.17a.662.662 0 0 1-.21.24.516.516 0 0 1-.3.09h-.2a.561.561 0 0 1-.31-.09.662.662 0 0 1-.21-.24l-3.58-6.19c.033.2.063.42.09.66.027.233.04.443.04.63V94h-1.61V83.84h1.43c.127 0 .25.03.37.09.12.053.223.157.31.31l3.16 5.28c.153.307.29.63.41.97.113-.353.247-.677.4-.97l3.1-5.28c.087-.16.19-.267.31-.32a.902.902 0 0 1 .37-.08h1.43Zm8.302 5.6c-.82.027-1.52.093-2.1.2-.574.1-1.044.233-1.41.4-.36.167-.624.363-.79.59-.16.227-.24.48-.24.76 0 .267.043.497.13.69.086.193.203.353.35.48.153.12.33.21.53.27.206.053.426.08.66.08.313 0 .6-.03.86-.09.26-.067.503-.16.73-.28.233-.12.453-.263.66-.43.213-.167.42-.357.62-.57v-2.1Zm-5.75-4.14a5.782 5.782 0 0 1 1.81-1.21c.646-.267 1.363-.4 2.15-.4.566 0 1.07.093 1.51.28.44.187.81.447 1.11.78.3.333.526.737.68 1.21.153.473.23.993.23 1.56V94h-.79c-.174 0-.307-.027-.4-.08-.094-.06-.167-.173-.22-.34l-.2-.96c-.267.247-.527.467-.78.66-.254.187-.52.347-.8.48-.28.127-.58.223-.9.29-.314.073-.664.11-1.05.11-.394 0-.764-.053-1.11-.16a2.678 2.678 0 0 1-.91-.5 2.409 2.409 0 0 1-.61-.83c-.147-.34-.22-.74-.22-1.2 0-.4.11-.783.33-1.15.22-.373.576-.703 1.07-.99.493-.287 1.136-.52 1.93-.7.793-.187 1.766-.293 2.92-.32v-.79c0-.787-.17-1.38-.51-1.78-.34-.407-.837-.61-1.49-.61-.44 0-.81.057-1.11.17-.294.107-.55.23-.77.37-.214.133-.4.257-.56.37a.804.804 0 0 1-.46.16.53.53 0 0 1-.31-.09.962.962 0 0 1-.221-.24l-.319-.57Zm22.298 7.4v-7.43h-3.21c-.067 1.04-.16 1.96-.28 2.76-.12.8-.26 1.503-.42 2.11-.153.6-.327 1.11-.52 1.53-.187.42-.383.763-.59 1.03h5.02Zm3.58-.05v4.29c0 .173-.05.307-.15.4a.482.482 0 0 1-.37.15h-1.09V94h-8.52v2.98a.57.57 0 0 1-.12.35c-.073.107-.197.16-.37.16h-1.12V92.7h.33c.233 0 .463-.04.69-.12.233-.08.457-.23.67-.45.213-.227.413-.543.6-.95.193-.407.367-.937.52-1.59.153-.653.287-1.447.4-2.38.113-.94.203-2.053.27-3.34h6.41v8.78h1.85ZM208.649 94h-1.78v-8.73h-3.2c-.08 1.287-.2 2.4-.36 3.34-.16.933-.353 1.73-.58 2.39-.22.653-.47 1.187-.75 1.6-.273.407-.563.723-.87.95-.3.227-.613.38-.94.46-.32.08-.64.12-.96.12-.566 0-.85-.09-.85-.27v-1.13h.52c.227 0 .457-.04.69-.12.234-.08.46-.233.68-.46.227-.227.444-.543.65-.95.207-.413.394-.947.56-1.6.174-.66.32-1.457.44-2.39.127-.94.224-2.053.29-3.34h6.46V94Zm8.15-5.4v-3.53h-1.7c-.38 0-.7.057-.96.17a1.74 1.74 0 0 0-.63.42 1.472 1.472 0 0 0-.33.57 2 2 0 0 0-.1.62c0 .547.2.977.6 1.29.4.307.946.46 1.64.46h1.48Zm1.7-4.73V94h-1.7v-4.27h-.78c-.187 0-.344.017-.47.05-.12.027-.227.067-.32.12a.84.84 0 0 0-.23.21c-.067.08-.137.173-.21.28l-2.22 2.99c-.114.213-.254.37-.42.47-.16.1-.397.15-.71.15h-1.24l2.94-3.82c.24-.4.556-.667.95-.8-.514-.067-.947-.187-1.3-.36a3.085 3.085 0 0 1-.87-.61 2.27 2.27 0 0 1-.48-.79c-.1-.287-.15-.577-.15-.87 0-.347.066-.693.2-1.04.14-.347.36-.653.66-.92.3-.273.686-.493 1.16-.66.48-.173 1.06-.26 1.74-.26h3.45Zm13.44 5.57c-.82.027-1.52.093-2.1.2-.573.1-1.043.233-1.41.4-.36.167-.623.363-.79.59-.16.227-.24.48-.24.76 0 .267.043.497.13.69.087.193.203.353.35.48.153.12.33.21.53.27.207.053.427.08.66.08.313 0 .6-.03.86-.09.26-.067.503-.16.73-.28.233-.12.453-.263.66-.43.213-.167.42-.357.62-.57v-2.1Zm-5.75-4.14a5.782 5.782 0 0 1 1.81-1.21c.647-.267 1.363-.4 2.15-.4.567 0 1.07.093 1.51.28.44.187.81.447 1.11.78.3.333.527.737.68 1.21.153.473.23.993.23 1.56V94h-.79c-.173 0-.307-.027-.4-.08-.093-.06-.167-.173-.22-.34l-.2-.96c-.267.247-.527.467-.78.66-.253.187-.52.347-.8.48-.28.127-.58.223-.9.29-.313.073-.663.11-1.05.11-.393 0-.763-.053-1.11-.16a2.678 2.678 0 0 1-.91-.5 2.421 2.421 0 0 1-.61-.83c-.147-.34-.22-.74-.22-1.2 0-.4.11-.783.33-1.15.22-.373.577-.703 1.07-.99.493-.287 1.137-.52 1.93-.7.793-.187 1.767-.293 2.92-.32v-.79c0-.787-.17-1.38-.51-1.78-.34-.407-.837-.61-1.49-.61-.44 0-.81.057-1.11.17a3.95 3.95 0 0 0-.77.37c-.213.133-.4.257-.56.37a.801.801 0 0 1-.46.16.532.532 0 0 1-.31-.09.94.94 0 0 1-.22-.24l-.32-.57Zm16.771-.07h-4.78V94h-1.79V83.87h6.57v1.36Zm7.984 2.6c0-.413-.06-.79-.18-1.13a2.387 2.387 0 0 0-.51-.89 2.153 2.153 0 0 0-.81-.58c-.32-.14-.683-.21-1.09-.21-.853 0-1.53.25-2.03.75-.493.493-.8 1.18-.92 2.06h5.54Zm1.44 4.75c-.22.267-.483.5-.79.7a5.059 5.059 0 0 1-.99.48 5.85 5.85 0 0 1-1.08.28c-.373.067-.743.1-1.11.1-.7 0-1.347-.117-1.94-.35a4.387 4.387 0 0 1-1.53-1.04c-.427-.46-.76-1.027-1-1.7s-.36-1.447-.36-2.32c0-.707.107-1.367.32-1.98.22-.613.533-1.143.94-1.59a4.219 4.219 0 0 1 1.49-1.06c.587-.26 1.247-.39 1.98-.39.607 0 1.167.103 1.68.31.52.2.967.493 1.34.88.38.38.677.853.89 1.42.213.56.32 1.2.32 1.92 0 .28-.03.467-.09.56-.06.093-.173.14-.34.14h-6.77c.02.64.107 1.197.26 1.67.16.473.38.87.66 1.19.28.313.613.55 1 .71.387.153.82.23 1.3.23.447 0 .83-.05 1.15-.15.327-.107.607-.22.84-.34.233-.12.427-.23.58-.33.16-.107.297-.16.41-.16.147 0 .26.057.34.17l.5.65Zm10.786-8.71V94h-1.79v-4.74h-4.86V94h-1.79V83.87h1.79v4.04h4.86v-4.04h1.79Zm11.25 1.36h-3.89V94h-1.78v-8.77h-3.89v-1.36h9.56v1.36Zm8.337.44a.795.795 0 0 1-.16.17.36.36 0 0 1-.22.06c-.1 0-.21-.04-.33-.12-.12-.087-.27-.18-.45-.28-.173-.1-.39-.19-.65-.27-.253-.087-.567-.13-.94-.13-.5 0-.94.09-1.32.27-.38.173-.7.427-.96.76a3.583 3.583 0 0 0-.58 1.21 6.138 6.138 0 0 0-.19 1.59c0 .613.07 1.16.21 1.64.14.473.337.873.59 1.2.26.32.57.567.93.74.367.167.777.25 1.23.25.433 0 .79-.05 1.07-.15.28-.107.51-.223.69-.35.187-.127.34-.24.46-.34.127-.107.25-.16.37-.16.147 0 .26.057.34.17l.5.65c-.22.273-.47.507-.75.7-.28.193-.583.357-.91.49-.32.127-.657.22-1.01.28-.353.06-.713.09-1.08.09a4.464 4.464 0 0 1-1.77-.35 4.065 4.065 0 0 1-1.41-1.01c-.4-.447-.713-.993-.94-1.64-.227-.647-.34-1.383-.34-2.21 0-.753.103-1.45.31-2.09.213-.64.52-1.19.92-1.65a4.21 4.21 0 0 1 1.49-1.09c.593-.26 1.273-.39 2.04-.39.713 0 1.34.117 1.88.35a4.43 4.43 0 0 1 1.45.97l-.47.64Zm10.921-.44h-3.89V94h-1.78v-8.77h-3.89v-1.36h9.56v1.36Zm5.587 7.52c.667 0 1.193-.153 1.58-.46.387-.313.58-.74.58-1.28 0-.24-.037-.457-.11-.65a1.259 1.259 0 0 0-.36-.52 1.714 1.714 0 0 0-.67-.34c-.273-.08-.61-.12-1.01-.12h-2.19v3.37h2.18Zm-2.18-7.68v3.18h1.95c.293 0 .563-.04.81-.12.253-.087.47-.203.65-.35.18-.153.32-.333.42-.54a1.629 1.629 0 0 0 .05-1.24 1.11 1.11 0 0 0-.34-.47c-.16-.14-.37-.25-.63-.33-.26-.087-.58-.13-.96-.13h-1.95Zm2-1.2c.627 0 1.163.063 1.61.19.447.127.813.3 1.1.52.287.213.497.467.63.76s.2.607.2.94c0 .22-.03.45-.09.69a2.28 2.28 0 0 1-.93 1.29c-.253.173-.573.31-.96.41.773.133 1.37.403 1.79.81.42.4.63.93.63 1.59 0 .493-.1.923-.3 1.29-.193.36-.463.663-.81.91-.34.247-.74.43-1.2.55-.46.12-.953.18-1.48.18h-3.9V83.87h3.71Zm19.769 0V94h-1.79v-4.74h-4.86V94h-1.79V83.87h1.79v4.04h4.86v-4.04h1.79Zm9.609 3.96c0-.413-.06-.79-.18-1.13a2.387 2.387 0 0 0-.51-.89 2.153 2.153 0 0 0-.81-.58c-.32-.14-.683-.21-1.09-.21-.853 0-1.53.25-2.03.75-.493.493-.8 1.18-.92 2.06h5.54Zm1.44 4.75c-.22.267-.483.5-.79.7a5.004 5.004 0 0 1-.99.48c-.346.127-.706.22-1.08.28-.373.067-.743.1-1.11.1-.7 0-1.346-.117-1.94-.35a4.406 4.406 0 0 1-1.53-1.04c-.426-.46-.76-1.027-1-1.7s-.36-1.447-.36-2.32c0-.707.107-1.367.32-1.98.22-.613.534-1.143.94-1.59a4.228 4.228 0 0 1 1.49-1.06c.587-.26 1.247-.39 1.98-.39.607 0 1.167.103 1.68.31.52.2.967.493 1.34.88.38.38.677.853.89 1.42.214.56.32 1.2.32 1.92 0 .28-.03.467-.09.56-.06.093-.173.14-.34.14h-6.77c.02.64.107 1.197.26 1.67.16.473.38.87.66 1.19.28.313.614.55 1 .71.387.153.82.23 1.3.23.447 0 .83-.05 1.15-.15.327-.107.607-.22.84-.34.234-.12.427-.23.58-.33.16-.107.297-.16.41-.16.147 0 .26.057.34.17l.5.65Zm9.249.12v-7.43h-3.21c-.067 1.04-.16 1.96-.28 2.76-.12.8-.26 1.503-.42 2.11-.154.6-.327 1.11-.52 1.53-.187.42-.384.763-.59 1.03h5.02Zm3.58-.05v4.29c0 .173-.05.307-.15.4a.484.484 0 0 1-.37.15h-1.09V94h-8.52v2.98a.57.57 0 0 1-.12.35c-.074.107-.197.16-.37.16h-1.12V92.7h.33c.233 0 .463-.04.69-.12.233-.08.456-.23.67-.45.213-.227.413-.543.6-.95.193-.407.366-.937.52-1.59.153-.653.286-1.447.4-2.38.113-.94.203-2.053.27-3.34h6.41v8.78h1.85Zm5.693.1c.667 0 1.193-.153 1.58-.46.387-.313.58-.74.58-1.28 0-.24-.037-.457-.11-.65a1.259 1.259 0 0 0-.36-.52 1.714 1.714 0 0 0-.67-.34c-.273-.08-.61-.12-1.01-.12h-2.19v3.37h2.18Zm-2.18-7.68v3.18h1.95c.293 0 .563-.04.81-.12.253-.087.47-.203.65-.35.18-.153.32-.333.42-.54a1.629 1.629 0 0 0 .05-1.24 1.11 1.11 0 0 0-.34-.47c-.16-.14-.37-.25-.63-.33-.26-.087-.58-.13-.96-.13h-1.95Zm2-1.2c.627 0 1.163.063 1.61.19.447.127.813.3 1.1.52.287.213.497.467.63.76s.2.607.2.94c0 .22-.03.45-.09.69a2.28 2.28 0 0 1-.93 1.29c-.253.173-.573.31-.96.41.773.133 1.37.403 1.79.81.42.4.63.93.63 1.59 0 .493-.1.923-.3 1.29-.193.36-.463.663-.81.91-.34.247-.74.43-1.2.55-.46.12-.953.18-1.48.18h-3.9V83.87h3.71Zm14.902 0V94h-1.78v-6.88c0-.133.007-.277.02-.43.013-.153.03-.307.05-.46-.06.133-.12.257-.18.37-.06.113-.123.217-.19.31l-4.89 6.65c-.073.107-.167.21-.28.31a.534.534 0 0 1-.36.14h-1.08V83.88h1.79v6.88c0 .127-.007.267-.02.42-.013.147-.03.297-.05.45.06-.127.12-.243.18-.35.06-.113.12-.217.18-.31l4.89-6.65c.073-.107.167-.207.28-.3.113-.1.237-.15.37-.15h1.07ZM380.061 94h-1.24c-.32 0-.567-.05-.74-.15a.984.984 0 0 1-.39-.47l-1.97-3.15c-.327-.52-.797-.78-1.41-.78h-1.02v4.56h-1.73v-4.56h-1.01c-.3 0-.574.067-.82.2-.24.133-.437.327-.59.58l-1.97 3.15c-.1.213-.237.37-.41.47-.167.1-.41.15-.73.15h-1.23l2.66-4.19c.173-.293.37-.53.59-.71.22-.18.49-.317.81-.41a1.84 1.84 0 0 1-.65-.35 2.893 2.893 0 0 1-.49-.61l-2.64-3.86h1.4a.83.83 0 0 1 .47.14c.14.087.25.207.33.36l2.15 3.2c.146.22.323.39.53.51.206.113.45.17.73.17h.87v-4.38h1.73v4.38h.85c.566 0 .993-.227 1.28-.68l2.15-3.2a.908.908 0 0 1 .33-.36.874.874 0 0 1 .48-.14h1.4l-2.64 3.86a2.77 2.77 0 0 1-.5.61c-.174.153-.387.27-.64.35.32.093.59.23.81.41.22.18.416.417.59.71l2.66 4.19Zm10.351-10.13V94h-1.779v-6.88c0-.133.006-.277.02-.43.013-.153.03-.307.05-.46-.06.133-.12.257-.18.37-.06.113-.124.217-.19.31l-4.89 6.65c-.074.107-.167.21-.28.31a.534.534 0 0 1-.36.14h-1.08V83.88h1.79v6.88c0 .127-.007.267-.02.42-.014.147-.03.297-.05.45.06-.127.12-.243.18-.35.06-.113.12-.217.18-.31l4.89-6.65a1.44 1.44 0 0 1 .28-.3c.113-.1.236-.15.37-.15h1.069Zm14.104-.03V94h-1.61v-6.73c0-.187.01-.393.03-.62.027-.233.06-.45.1-.65l-3.52 6.17a.662.662 0 0 1-.21.24.511.511 0 0 1-.3.09h-.2a.564.564 0 0 1-.31-.09.681.681 0 0 1-.21-.24l-3.58-6.19c.034.2.064.42.09.66.027.233.04.443.04.63V94h-1.61V83.84h1.43c.127 0 .25.03.37.09a.69.69 0 0 1 .31.31l3.16 5.28c.154.307.29.63.41.97.114-.353.247-.677.4-.97l3.1-5.28c.087-.16.19-.267.31-.32a.905.905 0 0 1 .37-.08h1.43Zm7.082-.13c.74 0 1.407.123 2 .37a4.29 4.29 0 0 1 1.52 1.05c.42.453.74 1.003.96 1.65.227.64.34 1.357.34 2.15 0 .8-.113 1.52-.34 2.16-.22.64-.54 1.187-.96 1.64a4.29 4.29 0 0 1-1.52 1.05c-.593.24-1.26.36-2 .36-.747 0-1.42-.12-2.02-.36a4.29 4.29 0 0 1-1.52-1.05 4.68 4.68 0 0 1-.97-1.64c-.22-.64-.33-1.36-.33-2.16 0-.793.11-1.51.33-2.15.227-.647.55-1.197.97-1.65a4.29 4.29 0 0 1 1.52-1.05c.6-.247 1.273-.37 2.02-.37Zm0 9.04c1 0 1.747-.333 2.24-1 .493-.673.74-1.61.74-2.81 0-1.207-.247-2.147-.74-2.82s-1.24-1.01-2.24-1.01c-.507 0-.95.087-1.33.26a2.512 2.512 0 0 0-.94.75c-.247.327-.433.73-.56 1.21-.12.473-.18 1.01-.18 1.61 0 1.2.247 2.137.74 2.81.5.667 1.257 1 2.27 1Zm14.128-7.08a.821.821 0 0 1-.16.17.361.361 0 0 1-.22.06c-.1 0-.21-.04-.33-.12-.12-.087-.27-.18-.45-.28a3.2 3.2 0 0 0-.65-.27c-.254-.087-.567-.13-.94-.13-.5 0-.94.09-1.32.27-.38.173-.7.427-.96.76a3.564 3.564 0 0 0-.58 1.21 6.138 6.138 0 0 0-.19 1.59c0 .613.07 1.16.21 1.64.14.473.336.873.59 1.2.26.32.57.567.93.74.366.167.776.25 1.23.25.433 0 .79-.05 1.07-.15.28-.107.51-.223.69-.35.186-.127.34-.24.46-.34.126-.107.25-.16.37-.16.146 0 .26.057.34.17l.5.65c-.22.273-.47.507-.75.7-.28.193-.584.357-.91.49-.32.127-.657.22-1.01.28-.354.06-.714.09-1.08.09a4.457 4.457 0 0 1-1.77-.35 4.065 4.065 0 0 1-1.41-1.01c-.4-.447-.714-.993-.94-1.64-.227-.647-.34-1.383-.34-2.21 0-.753.103-1.45.31-2.09.213-.64.52-1.19.92-1.65.406-.467.903-.83 1.49-1.09.593-.26 1.273-.39 2.04-.39.713 0 1.34.117 1.88.35a4.44 4.44 0 0 1 1.45.97l-.47.64Zm10.92-.44h-3.89V94h-1.78v-8.77h-3.89v-1.36h9.56v1.36Zm10.388-1.36V94h-1.78v-6.88c0-.133.006-.277.02-.43.013-.153.03-.307.05-.46-.06.133-.12.257-.18.37-.06.113-.124.217-.19.31l-4.89 6.65c-.074.107-.167.21-.28.31a.534.534 0 0 1-.36.14h-1.08V83.88h1.79v6.88c0 .127-.007.267-.02.42-.014.147-.03.297-.05.45.06-.127.12-.243.18-.35.06-.113.12-.217.18-.31l4.89-6.65a1.44 1.44 0 0 1 .28-.3c.113-.1.236-.15.37-.15h1.07Z" fill="#242424"/>
</svg>
