<?xml version="1.0" encoding="utf-8"?><svg viewBox="0 0 221 98" xmlns="http://www.w3.org/2000/svg" xmlns:xlink="http://www.w3.org/1999/xlink"><style>:root>svg{display:none}:root>svg:target{display:block}</style><svg viewBox="0 0 131 98" id="icon-01" xmlns="http://www.w3.org/2000/svg"><path d="M18.078 80.954l.535-.845-.535.845zM7.565 68.771l-.907.42.003.007.003.007.901-.434zm0-38.219l-.903-.43-.002.005.905.425zm10.513-12.281l.535.845-.535-.845zm30.457 0l-.534.845.535-.845zM58.95 30.552l-.907.42.003.007.003.007.901-.434zm0 38.22l-.903-.43-.002.005.905.424zM48.535 80.953l-.534-.845.535.845zm-5.403-14.639l-.83-.558-.007.01.837.548zm0-33.405l-.837.548.007.01.83-.558zm-19.65 0l-.83-.558-.007.01.837.548zm0 33.405l-.837.548.007.01.83-.558zm9.825 17.864c-5.526 0-10.414-1.363-14.695-4.07l-1.068 1.69c4.627 2.926 9.891 4.38 15.763 4.38v-2zm-14.695-4.07c-4.277-2.705-7.663-6.614-10.146-11.772l-1.802.868c2.626 5.454 6.25 9.666 10.88 12.594l1.069-1.69zM8.473 68.351c-2.414-5.21-3.64-11.447-3.64-18.739h-2c0 7.512 1.263 14.048 3.826 19.58l1.815-.841zm-3.64-18.739c0-7.292 1.226-13.493 3.639-18.635l-1.811-.85c-2.566 5.469-3.828 11.975-3.828 19.485h2zm3.636-18.63c2.484-5.223 5.87-9.163 10.145-11.866l-1.07-1.69c-4.633 2.93-8.256 7.177-10.88 12.697l1.805.858zm10.145-11.866c4.28-2.707 9.168-4.07 14.694-4.07v-2c-5.872 0-11.137 1.454-15.764 4.38l1.07 1.69zm14.694-4.07c5.525 0 10.413 1.363 14.694 4.07l1.069-1.69c-4.627-2.926-9.892-4.38-15.763-4.38v2zM48 19.116c4.272 2.701 7.623 6.638 10.042 11.857l1.814-.841c-2.56-5.524-6.151-9.775-10.787-12.706L48 19.116zm10.048 11.87c2.475 5.14 3.733 11.338 3.733 18.626h2c0-7.514-1.297-14.023-3.931-19.494l-1.802.868zm3.733 18.626c0 7.289-1.258 13.522-3.735 18.73l1.806.859c2.632-5.534 3.929-12.074 3.929-19.588h-2zm-3.737 18.735C55.627 73.499 52.276 77.406 48 80.109l1.069 1.69c4.633-2.93 8.225-7.145 10.785-12.603l-1.81-.85zM48 80.109c-4.281 2.707-9.169 4.07-14.694 4.07v2c5.871 0 11.136-1.454 15.763-4.38L48 80.109zm-14.694-7.39c4.54 0 8.125-1.98 10.661-5.856l-1.673-1.096c-2.18 3.33-5.145 4.952-8.988 4.952v2zm10.654-5.846c2.59-3.85 3.806-9.658 3.806-17.26h-2c0 7.462-1.208 12.788-3.465 16.144l1.66 1.116zm3.806-17.26c0-7.603-1.216-13.412-3.806-17.261l-1.659 1.116c2.258 3.356 3.465 8.682 3.465 16.144h2zm-3.799-17.25c-2.536-3.876-6.121-5.857-10.661-5.857v2c3.843 0 6.809 1.622 8.988 4.952l1.673-1.096zm-10.661-5.857c-4.48 0-8.057 1.984-10.655 5.846l1.66 1.116c2.249-3.343 5.221-4.962 8.995-4.962v-2zm-10.662 5.856c-2.518 3.847-3.7 9.651-3.7 17.25h2c0-7.465 1.175-12.796 3.373-16.154l-1.673-1.096zm-3.7 17.25c0 7.6 1.182 13.404 3.7 17.25l1.674-1.095c-2.199-3.358-3.374-8.688-3.374-16.154h-2zm3.707 17.261c2.598 3.862 6.175 5.846 10.655 5.846v-2c-3.774 0-6.746-1.619-8.996-4.962l-1.659 1.116zm73.815-51.648h1v-1h-1v1zm0 68.775v1h1v-1h-1zM80.55 84h-1v1h1v-1zm0-56.002h1v-1h-1v1zm-13.755 0h-1v1h1v-1zm0-12.773v-1h-1v1h1zm28.672 0V84h2V15.225h-2zm1 67.775H80.55v2h15.917v-2zM81.55 84V27.998h-2V84h2zm-1-57.002H66.795v2H80.55v-2zm-12.755 1V15.224h-2v12.772h2zm-1-11.773h29.672v-2H66.795v2zm43.879 65.81l.707-.707-.707.707zm0-13.657l.68.733.007-.006.007-.007-.694-.72zm13.559 0l-.695.72.007.007.007.006.681-.733zm0 13.657l-.708-.707.708.707zm-6.78 1.751c-2.431 0-4.433-.819-6.072-2.458l-1.414 1.414c2.029 2.029 4.546 3.044 7.486 3.044v-2zm-6.072-2.458c-1.634-1.634-2.458-3.667-2.458-6.17h-2c0 2.998 1.01 5.55 3.044 7.584l1.414-1.414zm-2.458-6.17c0-2.577.828-4.558 2.431-6.047l-1.36-1.466c-2.065 1.917-3.071 4.456-3.071 7.513h2zm2.445-6.06c1.637-1.578 3.643-2.373 6.085-2.373v-2c-2.929 0-5.442.975-7.473 2.933l1.388 1.44zm6.085-2.373c2.442 0 4.449.795 6.085 2.373l1.389-1.44c-2.032-1.958-4.545-2.933-7.474-2.933v2zm6.099 2.386c1.604 1.49 2.432 3.47 2.432 6.046h2c0-3.056-1.007-5.595-3.071-7.511l-1.361 1.465zm2.432 6.046c0 2.504-.824 4.537-2.459 6.17l1.415 1.415c2.033-2.034 3.044-4.586 3.044-7.585h-2zm-2.459 6.17c-1.639 1.64-3.641 2.459-6.072 2.459v2c2.941 0 5.458-1.015 7.487-3.044l-1.415-1.414z"/></svg><svg viewBox="0 0 145 72" id="icon-02" xmlns="http://www.w3.org/2000/svg"><path d="M15.078 66.954l.535-.845-.535.845zM4.565 54.771l-.907.42.003.007.003.007.901-.434zm0-38.219l-.903-.43-.002.005.905.425zM15.078 4.271l.535.845-.535-.845zm30.457 0l-.534.845.535-.845zM55.95 16.552l-.907.42.003.007.003.007.901-.434zm0 38.22l-.903-.43-.002.005.905.424zM45.535 66.953l-.534-.845.535.845zm-5.403-14.639l-.83-.558-.007.01.837.548zm0-33.405l-.837.548.007.01.83-.558zm-19.65 0l-.83-.558-.007.01.837.548zm0 33.405l-.837.548.007.01.83-.558zm9.825 17.864c-5.526 0-10.413-1.363-14.694-4.07l-1.07 1.69c4.628 2.926 9.892 4.38 15.764 4.38v-2zm-14.694-4.07c-4.278-2.705-7.664-6.614-10.147-11.772l-1.802.868c2.626 5.454 6.25 9.666 10.88 12.594l1.069-1.69zM5.473 54.351c-2.415-5.21-3.641-11.447-3.641-18.739h-2c0 7.512 1.263 14.048 3.826 19.58l1.815-.841zM1.832 35.612c0-7.292 1.226-13.493 3.639-18.635l-1.811-.85C1.094 21.596-.168 28.102-.168 35.612h2zm3.636-18.63c2.484-5.223 5.87-9.163 10.145-11.866l-1.07-1.69c-4.633 2.93-8.256 7.177-10.88 12.696l1.805.86zM15.613 5.116c4.28-2.707 9.168-4.07 14.694-4.07v-2C24.435-.954 19.17.5 14.544 3.426l1.069 1.69zm14.694-4.07c5.525 0 10.413 1.363 14.694 4.07l1.069-1.69C41.443.5 36.178-.954 30.307-.954v2zM45 5.116c4.272 2.701 7.623 6.638 10.042 11.857l1.814-.841c-2.56-5.524-6.151-9.775-10.787-12.706L45 5.116zm10.048 11.87c2.475 5.14 3.733 11.338 3.733 18.626h2c0-7.514-1.297-14.023-3.931-19.494l-1.802.868zm3.733 18.626c0 7.289-1.258 13.522-3.735 18.73l1.806.859c2.632-5.534 3.929-12.074 3.929-19.589h-2zm-3.737 18.734C52.627 59.5 49.276 63.407 45 66.11l1.069 1.69c4.633-2.93 8.225-7.145 10.785-12.603l-1.81-.85zM45 66.11c-4.281 2.707-9.169 4.07-14.694 4.07v2c5.871 0 11.136-1.454 15.763-4.38L45 66.11zm-14.694-7.39c4.54 0 8.125-1.98 10.662-5.856l-1.674-1.096c-2.18 3.33-5.145 4.952-8.988 4.952v2zm10.655-5.846c2.589-3.85 3.805-9.658 3.805-17.26h-2c0 7.462-1.208 12.788-3.465 16.144l1.66 1.116zm3.805-17.26c0-7.603-1.216-13.412-3.806-17.261l-1.659 1.116c2.258 3.356 3.465 8.682 3.465 16.144h2zm-3.799-17.25c-2.536-3.876-6.121-5.857-10.661-5.857v2c3.844 0 6.809 1.622 8.988 4.952l1.673-1.096zm-10.661-5.857c-4.48 0-8.057 1.984-10.655 5.846l1.66 1.116c2.249-3.343 5.221-4.962 8.995-4.962v-2zm-10.662 5.856c-2.518 3.847-3.7 9.652-3.7 17.25h2c0-7.466 1.175-12.796 3.373-16.154l-1.673-1.096zm-3.7 17.25c0 7.6 1.182 13.404 3.7 17.25l1.674-1.095c-2.199-3.358-3.374-8.689-3.374-16.155h-2zm3.707 17.261c2.598 3.862 6.175 5.846 10.655 5.846v-2c-3.774 0-6.746-1.619-8.995-4.962l-1.66 1.116zm98.672 4.158h1v-1h-1v1zm0 12.969v1h1v-1h-1zM66.35 70h-1v1h1v-1zm0-10.316l-.687-.727-.313.296v.43h1zM92.877 34.63l.687.727.004-.003-.69-.724zm5.699-6.878l.888.46.006-.012-.894-.447zM97.2 15.669l-.634.773.015.012.015.011.604-.796zm-16.31-.491l.418.908.01-.004.01-.005-.437-.9zm-6.09 5.108l-.542.841.801.516.554-.775-.814-.582zM63.205 12.82l-.83-.558-.569.846.857.552.542-.84zm11.102-9.334l.427.904.01-.005-.437-.9zm29.573-.885l-.409.913.01.004.009.004.39-.92zm8.941 7.074l-.826.563.006.01.008.01.812-.582zm.884 21.223l.902.432-.902-.433zm-9.137 11.2l-.68-.733-.006.006.686.727zM88.751 57.031l-.687-.727-1.829 1.727h2.516v-1zm28.573 0V70h2V57.031h-2zm1 11.969H66.35v2h51.974v-2zM67.35 70V59.684h-2V70h2zm-.313-9.59l26.527-25.053-1.373-1.454-26.528 25.054 1.374 1.454zm26.53-25.056c2.843-2.71 4.838-5.094 5.897-7.142l-1.776-.919c-.906 1.751-2.71 3.952-5.5 6.613l1.38 1.448zM99.47 28.2c1.041-2.082 1.58-4.167 1.58-6.244h-2c0 1.721-.445 3.501-1.368 5.35l1.788.894zm1.58-6.244c0-3.01-1.056-5.424-3.245-7.085l-1.209 1.593c1.61 1.222 2.454 2.999 2.454 5.492h2zm-3.215-7.061c-2.085-1.713-5.07-2.487-8.79-2.487v2c3.486 0 5.938.732 7.52 2.033l1.27-1.546zm-8.79-2.487c-3.146 0-6.016.617-8.591 1.87l.874 1.798c2.272-1.106 4.838-1.668 7.718-1.668v-2zm-8.572 1.86c-2.59 1.19-4.754 3.01-6.487 5.436l1.627 1.163c1.542-2.16 3.44-3.745 5.695-4.782l-.835-1.817zm-5.132 5.177l-11.594-7.467-1.083 1.681 11.594 7.467 1.083-1.681zm-11.305-6.069c2.576-3.833 6.132-6.83 10.7-8.987L73.88 2.58c-4.865 2.298-8.71 5.523-11.505 9.68l1.66 1.116zm10.71-8.992c4.559-2.216 9.809-3.338 15.773-3.338v-2c-6.218 0-11.775 1.17-16.648 3.54l.874 1.798zm15.773-3.338c5 0 9.309.833 12.953 2.467l.818-1.825C100.337-.084 95.738-.954 90.52-.954v2zm12.972 2.475c3.711 1.573 6.53 3.816 8.505 6.716l1.653-1.125c-2.218-3.257-5.359-5.73-9.377-7.432l-.781 1.841zm8.519 6.736c2.026 2.825 3.054 6.185 3.054 10.127h2c0-4.311-1.132-8.09-3.429-11.292l-1.625 1.165zm3.054 10.127c0 3.588-.754 6.944-2.259 10.08l1.803.865c1.639-3.414 2.456-7.066 2.456-10.945h-2zm-2.259 10.08c-1.493 3.11-4.433 6.742-8.916 10.9l1.36 1.466c4.557-4.226 7.708-8.06 9.359-11.5l-1.803-.866zm-8.922 10.906L88.064 56.304l1.373 1.454 15.819-14.934-1.373-1.454zM88.751 58.03h29.573v-2H88.751v2zm39.36 10.004l.707-.707-.707.707zm0-13.657l.68.733.007-.006.007-.007-.694-.72zm13.558 0l-.694.72.007.007.007.006.68-.733zm0 13.657l-.707-.707.707.707zm-6.779 1.751c-2.431 0-4.433-.819-6.072-2.458l-1.414 1.414c2.029 2.029 4.546 3.044 7.486 3.044v-2zm-6.072-2.458c-1.634-1.634-2.458-3.667-2.458-6.17h-2c0 2.998 1.01 5.55 3.044 7.584l1.414-1.414zm-2.458-6.17c0-2.577.828-4.558 2.431-6.047l-1.361-1.465c-2.064 1.916-3.07 4.455-3.07 7.511h2zm2.445-6.06c1.637-1.578 3.643-2.373 6.085-2.373v-2c-2.929 0-5.442.975-7.473 2.933l1.388 1.44zm6.085-2.373c2.442 0 4.448.795 6.085 2.373l1.388-1.44c-2.031-1.958-4.544-2.933-7.473-2.933v2zm6.099 2.386c1.603 1.49 2.431 3.47 2.431 6.047h2c0-3.057-1.006-5.596-3.07-7.513l-1.361 1.466zm2.431 6.047c0 2.503-.824 4.536-2.458 6.17l1.414 1.414c2.034-2.034 3.044-4.586 3.044-7.585h-2zm-2.458 6.17c-1.639 1.64-3.641 2.458-6.072 2.458v2c2.94 0 5.458-1.015 7.486-3.044l-1.414-1.414z"/></svg><svg viewBox="0 0 144 72" id="icon-03" xmlns="http://www.w3.org/2000/svg"><path d="M15.078 66.954l.535-.845-.535.845zM4.565 54.771l-.907.42.003.007.003.007.901-.434zm0-38.219l-.903-.43-.002.005.905.425zM15.078 4.271l.535.845-.535-.845zm30.457 0l-.534.845.535-.845zM55.95 16.552l-.907.42.003.007.003.007.901-.434zm0 38.22l-.903-.43-.002.005.905.424zM45.535 66.953l-.534-.845.535.845zm-5.403-14.639l-.83-.558-.007.01.837.548zm0-33.405l-.837.548.007.01.83-.558zm-19.65 0l-.83-.558-.007.01.837.548zm0 33.405l-.837.548.007.01.83-.558zm9.825 17.864c-5.526 0-10.413-1.363-14.694-4.07l-1.07 1.69c4.628 2.926 9.892 4.38 15.764 4.38v-2zm-14.694-4.07c-4.278-2.705-7.664-6.614-10.147-11.772l-1.802.868c2.626 5.454 6.25 9.666 10.88 12.594l1.069-1.69zM5.473 54.351c-2.415-5.21-3.641-11.447-3.641-18.739h-2c0 7.512 1.263 14.048 3.826 19.58l1.815-.841zM1.832 35.612c0-7.292 1.226-13.493 3.639-18.635l-1.811-.85C1.094 21.596-.168 28.102-.168 35.612h2zm3.636-18.63c2.484-5.223 5.87-9.163 10.145-11.866l-1.07-1.69c-4.633 2.93-8.256 7.177-10.88 12.696l1.805.86zM15.613 5.116c4.28-2.707 9.168-4.07 14.694-4.07v-2C24.435-.954 19.17.5 14.544 3.426l1.069 1.69zm14.694-4.07c5.525 0 10.413 1.363 14.694 4.07l1.069-1.69C41.443.5 36.178-.954 30.307-.954v2zM45 5.116c4.272 2.701 7.623 6.638 10.042 11.857l1.814-.841c-2.56-5.524-6.151-9.775-10.787-12.706L45 5.116zm10.048 11.87c2.475 5.14 3.733 11.338 3.733 18.626h2c0-7.514-1.297-14.023-3.931-19.494l-1.802.868zm3.733 18.626c0 7.289-1.258 13.522-3.735 18.73l1.806.859c2.632-5.534 3.929-12.074 3.929-19.589h-2zm-3.737 18.734C52.627 59.5 49.276 63.407 45 66.11l1.069 1.69c4.633-2.93 8.225-7.145 10.785-12.603l-1.81-.85zM45 66.11c-4.281 2.707-9.169 4.07-14.694 4.07v2c5.871 0 11.136-1.454 15.763-4.38L45 66.11zm-14.694-7.39c4.54 0 8.125-1.98 10.662-5.856l-1.674-1.096c-2.18 3.33-5.145 4.952-8.988 4.952v2zm10.655-5.846c2.589-3.85 3.805-9.658 3.805-17.26h-2c0 7.462-1.208 12.788-3.465 16.144l1.66 1.116zm3.805-17.26c0-7.603-1.216-13.412-3.806-17.261l-1.659 1.116c2.258 3.356 3.465 8.682 3.465 16.144h2zm-3.799-17.25c-2.536-3.876-6.121-5.857-10.661-5.857v2c3.844 0 6.809 1.622 8.988 4.952l1.673-1.096zm-10.661-5.857c-4.48 0-8.057 1.984-10.655 5.846l1.66 1.116c2.249-3.343 5.221-4.962 8.995-4.962v-2zm-10.662 5.856c-2.518 3.847-3.7 9.652-3.7 17.25h2c0-7.466 1.175-12.796 3.373-16.154l-1.673-1.096zm-3.7 17.25c0 7.6 1.182 13.404 3.7 17.25l1.674-1.095c-2.199-3.358-3.374-8.689-3.374-16.155h-2zm3.707 17.261c2.598 3.862 6.175 5.846 10.655 5.846v-2c-3.774 0-6.746-1.619-8.995-4.962l-1.66 1.116zm79.031-23.647l-.751-.66-1.19 1.357 1.78.29.161-.987zm13.854 6.78l-.741.672.006.006.735-.678zm1.67 24.07l.847.532.005-.007-.852-.524zm-9.629 8.057l-.425-.905-.005.003.43.902zm-30.064 1.18l-.271.962.008.002.008.002.255-.967zM62.626 63.81l-.892-.453-.388.764.695.5.585-.81zm6.19-12.183l.6-.8-.953-.714-.54 1.061.892.453zm9.038 4.618l-.31.95.01.004.011.003.29-.957zm20.043-.688l.55.836.008-.005.008-.006-.566-.825zM81.195 40.525h-1v1h1v-1zm0-10.513l-.75-.662-.25.284v.378h1zm14.148-16.014l.75.662 1.468-1.662h-2.218v1zm-29.279 0h-1v1h1v-1zm0-12.773v-1h-1v1h1zm48.143 0h1v-1h-1v1zm0 10.316l.751.66.249-.283v-.377h-1zM98.523 30.213c5.865.957 10.254 3.137 13.273 6.465l1.481-1.344c-3.399-3.747-8.247-6.086-14.433-7.095l-.322 1.974zm13.279 6.471c3.022 3.269 4.549 7.342 4.549 12.29h2c0-5.4-1.683-9.973-5.08-13.647l-1.469 1.357zm4.549 12.29c0 3.81-.997 7.33-2.996 10.579l1.704 1.048c2.192-3.564 3.292-7.446 3.292-11.627h-2zm-2.991 10.571c-1.975 3.147-5.02 5.717-9.207 7.683l.851 1.81c4.459-2.094 7.832-4.895 10.05-8.43l-1.694-1.063zm-9.212 7.686c-4.087 1.949-9.17 2.948-15.29 2.948v2c6.326 0 11.723-1.032 16.151-3.143l-.861-1.805zm-15.29 2.948c-4.76 0-9.456-.611-14.089-1.834l-.51 1.934a56.992 56.992 0 0014.6 1.9v-2zm-14.073-1.83c-4.56-1.284-8.411-3.073-11.575-5.35l-1.169 1.623c3.387 2.438 7.46 4.317 12.202 5.653l.542-1.925zm-11.268-4.086l6.19-12.183-1.783-.906-6.19 12.183 1.783.906zm4.698-11.836c2.716 2.037 5.828 3.624 9.329 4.769l.621-1.901c-3.312-1.083-6.225-2.574-8.75-4.468l-1.2 1.6zm9.35 4.775a37.523 37.523 0 0010.9 1.615v-2c-3.504 0-6.943-.51-10.322-1.53l-.578 1.915zm10.9 1.615c4.107 0 7.467-.772 9.982-2.424l-1.099-1.672c-2.07 1.361-4.998 2.096-8.883 2.096v2zm9.998-2.435c2.569-1.761 3.873-4.267 3.873-7.407h-2c0 2.492-.988 4.375-3.004 5.758l1.13 1.649zm3.873-7.407c0-3.115-1.211-5.56-3.669-7.174-2.384-1.565-5.834-2.276-10.202-2.276v2c4.213 0 7.199.697 9.105 1.948 1.832 1.203 2.766 2.983 2.766 5.502h2zm-13.87-9.45h-7.271v2h7.27v-2zm-6.271 1V30.012h-2v10.513h2zm-.25-9.85L96.091 14.66l-1.499-1.325L80.445 29.35l1.5 1.324zm13.398-17.678H66.064v2h29.279v-2zm-28.279 1V1.226h-2v12.773h2zm-1-11.772h48.143v-2H66.064v2zm47.143-1v10.316h2V1.225h-2zm.248 9.657L97.932 28.567l1.503 1.319L114.958 12.2l-1.503-1.32zm13.504 57.153l.708-.707-.708.707zm0-13.657l.681.733.007-.006.007-.007-.695-.72zm13.559 0l-.694.72.007.007.006.006.681-.733zm0 13.657l-.707-.707.707.707zm-6.779 1.751c-2.431 0-4.433-.819-6.072-2.458l-1.415 1.414c2.029 2.029 4.546 3.044 7.487 3.044v-2zm-6.072-2.458c-1.635-1.634-2.459-3.667-2.459-6.17h-2c0 2.998 1.011 5.55 3.044 7.584l1.415-1.414zm-2.459-6.17c0-2.577.828-4.558 2.432-6.047l-1.361-1.465c-2.064 1.916-3.071 4.455-3.071 7.511h2zm2.446-6.06c1.636-1.578 3.643-2.373 6.085-2.373v-2c-2.929 0-5.442.975-7.474 2.933l1.389 1.44zm6.085-2.373c2.442 0 4.448.795 6.085 2.373l1.388-1.44c-2.031-1.958-4.544-2.933-7.473-2.933v2zm6.098 2.386c1.604 1.49 2.432 3.47 2.432 6.047h2c0-3.057-1.006-5.596-3.071-7.513l-1.361 1.466zm2.432 6.047c0 2.503-.824 4.536-2.458 6.17l1.414 1.414c2.034-2.034 3.044-4.586 3.044-7.585h-2zm-2.458 6.17c-1.639 1.64-3.642 2.458-6.072 2.458v2c2.94 0 5.457-1.015 7.486-3.044l-1.414-1.414z"/></svg><svg viewBox="0 0 76 76" id="icon-app" xmlns="http://www.w3.org/2000/svg"><path d="M24.02 9.88h12.437c.6 0 1.083-.484 1.083-1.083s-.484-1.082-1.083-1.082H24.021a1.081 1.081 0 100 2.165zm0 58.37h12.437a1.081 1.081 0 100-2.165H24.021c-.599 0-1.082.484-1.082 1.083s.483 1.082 1.082 1.082zm36.63-13.415a7.056 7.056 0 00-1.543-2.142c-2.844-2.717-7.37-2.614-10.075.22a7.062 7.062 0 00-1.97 5.089 7.12 7.12 0 002.212 4.997 7.146 7.146 0 005.619 1.947 6.947 6.947 0 003.627-1.428l.138-.104a7.043 7.043 0 002.522-4.157 6.987 6.987 0 00-.023-2.89 6.461 6.461 0 00-.506-1.532zm-1.588 3.996a4.765 4.765 0 01-1.74 2.867.634.634 0 00-.091.07 4.892 4.892 0 01-2.534 1.001 4.975 4.975 0 01-3.915-1.359 4.987 4.987 0 01-1.543-3.477 4.918 4.918 0 014.928-5.055 4.989 4.989 0 014.261 2.395c.092.15.184.31.254.472.16.345.276.702.356 1.07.15.68.15 1.348.024 2.016z"/><path d="M70.335 54.697a1.085 1.085 0 00-.922-1.048l-2.233-.346a12.47 12.47 0 00-.519-1.278c-.115-.242-.23-.472-.345-.69l1.232-1.866a1.083 1.083 0 00-.15-1.382l-4.065-3.88a1.082 1.082 0 00-1.393-.093l-1.808 1.325a12.898 12.898 0 00-1.992-.772l-.449-2.222a1.074 1.074 0 00-1.06-.864h-1.68V9.166c0-3.858-3.144-6.99-7.002-6.99H12.53c-3.858 0-7.002 3.132-7.002 6.99v57.645c0 3.834 3.132 6.978 7.002 7.024h44.575c.495 0 .92-.334 1.048-.806l.564-2.142c.69-.23 1.37-.53 2.015-.886l1.889 1.266a1.1 1.1 0 001.393-.15l3.88-4.053c.369-.38.403-.967.093-1.393l-1.348-1.82a12.95 12.95 0 00.76-1.98l2.2-.438a1.09 1.09 0 00.875-1.094l-.138-5.642zM51.012 41.58c-.541 0-.99.392-1.07.933l-.346 2.326a13.85 13.85 0 00-1.946.852l-1.877-1.255a1.1 1.1 0 00-1.394.15L40.51 48.64c-.368.38-.403.967-.092 1.393l1.336 1.808c-.3.633-.564 1.301-.771 1.992l-2.2.438a1.09 1.09 0 00-.875 1.094l.127 5.158H7.704V15.43h45.081v26.163h-1.773v-.012zM12.53 4.341h35.42c2.66 0 4.825 2.165 4.825 4.813v4.088H7.704V9.166a4.83 4.83 0 014.825-4.825zM7.704 66.8v-4.1H41.34c.218.565.449 1.106.736 1.624l-1.243 1.878a1.083 1.083 0 00.15 1.381l4.064 3.88c.07.07.15.105.23.15H12.53c-.035 0-.07.024-.104.024-2.614-.08-4.721-2.223-4.721-4.837zm40.406 4.86c-.057-.012-.103-.035-.16-.035h-1.625c.047-.023.081-.034.127-.057l.254-.185a.77.77 0 00.126-.08l1.428-1.06a15.3 15.3 0 001.935.76l.08.657H48.11zm18.194-11.815c-.414.08-.748.403-.852.818a11.293 11.293 0 01-1.06 2.763c-.195.369-.16.818.081 1.152l1.198 1.624-2.614 2.74-1.681-1.128a1.085 1.085 0 00-1.175-.023c-.863.53-1.761.92-2.694 1.197a1.078 1.078 0 00-.749.772l-.495 1.911h-3.811l-.196-1.635a1.109 1.109 0 00-.818-.933 11.083 11.083 0 01-2.763-1.07 1.067 1.067 0 00-1.163.08L45.9 69.298l-2.753-2.637 1.117-1.681c.23-.357.242-.806.023-1.163-.506-.83-.91-1.727-1.197-2.695a1.065 1.065 0 00-.875-.76l-2.004-.31-.092-3.8 1.969-.392c.414-.08.737-.392.84-.806.254-.99.61-1.923 1.072-2.764a1.089 1.089 0 00-.081-1.174l-1.198-1.612 2.614-2.741 1.681 1.128c.357.23.806.242 1.163.023.841-.506 1.75-.91 2.706-1.186.404-.115.703-.46.772-.886l.288-2.084h3.788l.403 1.992c.081.403.415.737.818.84l.184.058c.898.242 1.762.575 2.568 1.025.369.207.83.172 1.163-.081l1.612-1.186 2.752 2.625-1.105 1.67c-.23.357-.242.818-.012 1.175a10.961 10.961 0 011.186 2.694c.116.403.461.703.876.772l2.003.31.092 3.8-1.969.392z"/><path d="M33.854 18.896c-.253 0-.472.081-.645.22a1.1 1.1 0 00-.368.518l-7.542 21.648a1.21 1.21 0 00-.07.38c0 .3.093.541.3.76.196.207.46.31.771.31.254 0 .473-.068.657-.206.172-.139.3-.311.368-.519l7.531-21.648a1.25 1.25 0 00.08-.38c0-.3-.091-.541-.299-.76a1.059 1.059 0 00-.783-.323zm10.721 10.318l-8.141-3.662a1.12 1.12 0 00-1.175.23 1.034 1.034 0 00-.115 1.348c.127.184.3.31.495.391l6.852 3.052-6.852 3.051a1.17 1.17 0 00-.495.392 1.004 1.004 0 00-.196.598c0 .3.104.542.311.76.196.196.46.3.76.3.15 0 .288-.023.426-.08l8.153-3.663c.265-.126.472-.299.633-.518.161-.219.242-.472.242-.76v-.161c0-.288-.08-.541-.242-.76a1.733 1.733 0 00-.656-.518zm-28.673 2.729l8.142 3.65h.023c.138.058.265.08.414.08.3 0 .541-.091.749-.299.207-.207.31-.46.31-.76a.973.973 0 00-.195-.587 1.28 1.28 0 00-.495-.403l-6.863-3.052 6.851-3.04a1.06 1.06 0 00.495-.403.957.957 0 00.196-.598c0-.3-.092-.542-.31-.749-.3-.3-.703-.403-1.175-.23l-8.142 3.662a1.66 1.66 0 00-.633.518 1.27 1.27 0 00-.242.76v.161c0 .276.08.53.242.76.15.219.369.392.633.53zm17.861 15.603H12.966a1.081 1.081 0 100 2.165h20.797a1.082 1.082 0 100-2.165zm-8.233 5.849H12.977c-.599 0-1.082.484-1.082 1.083s.483 1.082 1.082 1.082h12.551a1.081 1.081 0 100-2.165z"/></svg><svg viewBox="0 0 76 76" id="icon-apps" xmlns="http://www.w3.org/2000/svg"><path d="M38.001 28.387c-5.225 0-9.5 4.275-9.5 9.5s4.275 9.5 9.5 9.5 9.5-4.275 9.5-9.5-4.275-9.5-9.5-9.5zm0 16.626c-3.919 0-7.125-3.207-7.125-7.126 0-3.918 3.206-7.125 7.125-7.125s7.125 3.207 7.125 7.125c0 3.92-3.206 7.126-7.125 7.126z"/><path d="M64.363 39.074h3.444c.475 1.781 2.137 2.969 4.037 2.969 2.375 0 4.156-1.9 4.156-4.156 0-2.257-1.9-4.156-4.156-4.156-1.9 0-3.444 1.306-4.037 2.968h-3.444V17.343h3.444c.475 1.782 2.137 2.969 4.037 2.969 2.375 0 4.156-1.9 4.156-4.156S74.1 12 71.844 12c-1.9 0-3.444 1.306-4.037 2.969h-4.632c-.712 0-1.187.475-1.187 1.187V36.7h-4.631v-1.306c0-.712-.475-1.187-1.188-1.187h-2.612c-.357-1.663-1.07-3.207-1.9-4.75l1.781-1.781a1.148 1.148 0 000-1.663l-3.562-3.562a1.148 1.148 0 00-1.663 0l-1.78 1.781c-1.426-.95-3.089-1.544-4.75-2.019V19.6c0-.712-.476-1.187-1.188-1.187h-5.106c-.713 0-1.188.475-1.188 1.187v2.613c-1.662.357-3.206 1.069-4.75 1.9l-1.78-1.782a1.148 1.148 0 00-1.663 0l-3.563 3.563a1.148 1.148 0 000 1.662l1.782 1.782c-.95 1.425-1.544 3.087-1.9 4.75h-2.613c-.712 0-1.187.474-1.187 1.187l-.002 1.425h-4.512V16.156c0-.712-.476-1.187-1.188-1.187H8.194C7.719 13.187 6.056 12 4.157 12 1.782 12 0 13.9 0 16.156s1.9 4.156 4.156 4.156c1.9 0 3.443-1.306 4.037-2.969h3.444V36.7H8.194c-.475-1.78-2.138-2.968-4.037-2.968C1.9 33.73 0 35.51 0 37.887c0 2.374 1.9 4.156 4.156 4.156 1.9 0 3.444-1.306 4.037-2.969h3.444V58.43H8.194c-.475-1.781-2.138-2.969-4.038-2.969-2.374 0-4.156 1.9-4.156 4.156 0 2.375 1.9 4.156 4.156 4.156 1.9 0 3.444-1.306 4.038-2.968h4.631c.712 0 1.187-.475 1.187-1.188V39.073h4.513v1.306c0 .713.475 1.188 1.187 1.188h2.613c.357 1.662 1.069 3.206 1.9 4.75l-1.781 1.78c-.238.238-.357.476-.357.832s.119.593.357.83l3.562 3.563a1.148 1.148 0 001.662 0l1.782-1.781c1.425.95 3.087 1.544 4.75 1.9v2.612c0 .713.474 1.188 1.187 1.188h5.106c.712 0 1.188-.475 1.188-1.188v-2.612c1.662-.357 3.206-1.07 4.75-1.9l1.78 1.781a1.148 1.148 0 001.663 0l3.562-3.562a1.148 1.148 0 000-1.663l-1.78-1.781c.95-1.425 1.543-3.088 1.899-4.75h2.613c.712 0 1.187-.475 1.187-1.187l.002-1.306h4.63v20.544c0 .713.476 1.188 1.188 1.188h4.631c.475 1.78 2.138 2.968 4.038 2.968 2.375 0 4.156-1.9 4.156-4.156 0-2.375-1.9-4.156-4.156-4.156-1.9 0-3.444 1.306-4.038 2.969h-3.443V39.074zm7.481-2.969c1.069 0 1.781.831 1.781 1.782 0 1.069-.83 1.78-1.781 1.78-1.069 0-1.781-.83-1.781-1.78-.119-1.07.713-1.782 1.781-1.782zm0-21.85c1.069 0 1.781.831 1.781 1.782 0 1.069-.83 1.781-1.781 1.781-1.069 0-1.781-.831-1.781-1.781-.119-.95.713-1.781 1.781-1.781zM4.157 17.936c-1.069 0-1.781-.83-1.781-1.78 0-1.07.83-1.782 1.781-1.782.95 0 1.781.831 1.781 1.781.119.95-.713 1.781-1.78 1.781zm0 43.581c-1.069 0-1.781-.83-1.781-1.78 0-1.07.83-1.782 1.781-1.782.95 0 1.781.83 1.781 1.781.119.95-.713 1.781-1.78 1.781zm0-21.85c-.95 0-1.782-.712-1.782-1.78 0-1.07.831-1.782 1.782-1.782.95 0 1.78.831 1.78 1.781.12 1.069-.711 1.781-1.78 1.781zm50.944-.475h-2.375c-.594 0-1.069.475-1.187.95-.357 2.02-1.188 3.92-2.257 5.582-.356.475-.237 1.069.12 1.544l1.662 1.662-2.02 2.019-1.662-1.663c-.356-.356-1.069-.475-1.544-.119-1.662 1.188-3.562 2.02-5.581 2.257-.594.118-.95.593-.95 1.187v2.375h-2.732v-2.375c0-.593-.475-1.069-.95-1.187-2.019-.357-3.919-1.07-5.581-2.257-.475-.356-1.069-.237-1.544.12l-1.662 1.662-1.9-2.019 1.663-1.662c.356-.357.475-1.07.119-1.544-1.188-1.663-2.02-3.562-2.257-5.581-.118-.594-.593-.95-1.187-.95H20.9V36.46h2.375c.594 0 1.069-.475 1.187-.95.357-2.02 1.07-3.919 2.256-5.582.357-.475.238-1.068-.118-1.543l-1.663-1.662 1.9-1.9 1.663 1.662c.356.357 1.068.476 1.543.12 1.663-1.188 3.563-2.02 5.582-2.257.593-.119.95-.594.95-1.188v-2.375h2.731v2.375c0 .594.475 1.07.95 1.188 2.02.356 3.92 1.069 5.582 2.256.475.357 1.069.237 1.544-.119l1.662-1.662 1.9 1.9-1.663 1.662c-.356.357-.475 1.069-.118 1.544 1.187 1.663 2.019 3.562 2.256 5.581.119.594.594.95 1.188.95h2.374v2.731h.12zm16.743 18.644c1.069 0 1.781.83 1.781 1.781 0 1.069-.83 1.781-1.781 1.781-1.069 0-1.781-.83-1.781-1.78-.119-.951.713-1.782 1.781-1.782z"/></svg><svg viewBox="0 0 17 16" id="icon-arrow" xmlns="http://www.w3.org/2000/svg"><path d="M.731 7.065v2h12l-5.5 5.5 1.42 1.42 7.92-7.92-7.92-7.92-1.42 1.42 5.5 5.5h-12z"/></svg><svg viewBox="0 0 22 18" id="icon-burger" xmlns="http://www.w3.org/2000/svg"><path d="M0 0h22v2H0zm8 8h14v2H8zm-8 8h22v2H0z"/></svg><svg viewBox="0 0 80 80" id="icon-clock" xmlns="http://www.w3.org/2000/svg"><path d="M69.12 19.52c.8.8 1.76.8 2.4.16.64-.64.64-1.6 0-2.24l-2.56-2.56c-.64-.64-1.6-.64-2.24 0-.64.64-.64 1.6 0 2.24l.16.16-2.56 2.56c-5.12-5.12-11.84-8.64-19.52-9.6V4.8h2.08c.96 0 1.6-.64 1.6-1.6 0-.96-.64-1.6-1.6-1.6h-13.6c-.96 0-1.6.64-1.6 1.6 0 .96.64 1.6 1.6 1.6h1.92v5.44c-7.52 1.12-14.4 4.64-19.52 9.76l-2.72-2.72.16-.16c.64-.64.64-1.6 0-2.24-.64-.64-1.6-.64-2.24 0l-2.56 2.56c-.64.64-.64 1.6 0 2.24.64.64 1.6.64 2.24 0l.16-.16 2.88 2.88C8.64 28.32 5.76 36 5.76 44.16 5.76 63.04 21.12 78.4 40 78.4c18.88 0 34.24-15.36 34.24-34.24 0-8.32-3.04-15.84-7.84-21.92l2.72-2.72zM38.4 4.8h3.2v5.12h-3.2V4.8zm32.64 39.36C71.04 61.28 57.12 75.2 40 75.2c-17.12 0-31.04-13.92-31.04-31.04 0-17.12 13.92-31.04 31.04-31.04 17.12 0 31.04 13.92 31.04 31.04z"/><path d="M40 20.8c-12.8 0-23.36 10.4-23.36 23.36 0 12.8 10.4 23.36 23.36 23.36 12.96 0 23.36-10.4 23.36-23.36C63.36 31.36 52.8 20.8 40 20.8zm14.72 24.96H60c-.8 9.76-8.64 17.6-18.4 18.4v-5.28c0-.96-.64-1.6-1.6-1.6-.96 0-1.6.64-1.6 1.6v5.28c-9.76-.8-17.6-8.64-18.4-18.4h5.28c.96 0 1.6-.64 1.6-1.6 0-.96-.64-1.6-1.6-1.6H20c.8-9.76 8.64-17.6 18.4-18.4v5.28c0 .96.64 1.6 1.6 1.6.96 0 1.6-.64 1.6-1.6v-5.28c9.76.8 17.6 8.64 18.4 18.4h-5.28c-.96 0-1.6.64-1.6 1.6 0 .96.8 1.6 1.6 1.6z"/><path d="M41.6 43.52v-5.6c0-.96-.64-1.6-1.6-1.6-.96 0-1.6.64-1.6 1.6v6.4c0 .48.16.8.48 1.12L44 50.56c.32.32.8.48 1.12.48.32 0 .8-.16 1.12-.48.64-.64.64-1.6 0-2.24l-4.64-4.8z"/></svg><svg viewBox="0 0 24 24" id="icon-close" xmlns="http://www.w3.org/2000/svg"><path d="M18.53 6.53a.75.75 0 00-1.06-1.06L12 10.94 6.53 5.47a.75.75 0 00-1.06 1.06L10.94 12l-5.47 5.47a.75.75 0 101.06 1.06L12 13.06l5.47 5.47a.75.75 0 101.06-1.06L13.06 12l5.47-5.47z"/></svg><svg viewBox="0 0 76 76" id="icon-corp-site" xmlns="http://www.w3.org/2000/svg"><g clip-path="url(#aja)"><path d="M39.366 55.278H14.725c-.356 0-.594.238-.594.594s.238.594.594.594h24.64c.357 0 .594-.238.594-.594a.595.595 0 00-.593-.594zm-4.81 10.45a1 1 0 001.01-1.01 1 1 0 00-1.01-1.009c-.534 0-1.01.475-1.01 1.01.06.534.476 1.01 1.01 1.01zm3.444 0a1 1 0 001.01-1.01A1 1 0 0038 63.71c-.534 0-1.01.475-1.01 1.01 0 .534.476 1.01 1.01 1.01zm3.384 0a1 1 0 001.01-1.01 1 1 0 00-1.01-1.009c-.534 0-1.009.475-1.009 1.01.06.534.475 1.01 1.01 1.01zm32.241-49.281c0-1.544-1.247-2.731-2.79-2.731h-3.622V4.63A4.637 4.637 0 0062.58 0H13.42a4.637 4.637 0 00-4.632 4.631v9.025h-3.68c-1.545.06-2.732 1.247-2.732 2.79v49.579a2.724 2.724 0 002.731 2.731h24.997l-2.91 6.056h-3.087c-.356 0-.594.238-.594.594s.238.594.594.594h27.788c.356 0 .593-.237.593-.594 0-.356-.237-.594-.593-.594h-3.088l-2.91-5.996h24.998c1.543 0 2.79-1.247 2.79-2.732-.059-10.39-.059-41.918-.059-49.637zm-2.731-1.544c.89 0 1.603.713 1.603 1.544V60.68h-5.225V14.903h3.622zM9.975 10.45h56.11v50.172H9.974V10.45zm3.444-9.262H62.58c1.9 0 3.444 1.543 3.444 3.443v4.631H9.975v-4.63c0-1.9 1.544-3.444 3.444-3.444zM3.562 16.447c0-.89.713-1.544 1.544-1.544h3.681v45.778H3.563V16.447zM47.5 74.812h-19l2.91-5.996h13.12l2.969 5.996zm24.938-8.787c0 .89-.713 1.544-1.604 1.544H5.047c-.89 0-1.544-.713-1.544-1.544v-4.216h68.934v4.216zM16.03 7.837c1.425 0 2.613-1.187 2.613-2.612s-1.188-2.612-2.613-2.612-2.61 1.187-2.61 2.611a2.597 2.597 0 002.612 2.613zm0-4.037c.772 0 1.425.653 1.425 1.425S16.802 6.65 16.03 6.65a1.445 1.445 0 01-1.425-1.425c0-.772.594-1.425 1.425-1.425zm6.828 4.038c1.425 0 2.613-1.188 2.613-2.613s-1.188-2.612-2.613-2.612-2.612 1.187-2.612 2.612 1.187 2.613 2.612 2.613zm0-4.038c.772 0 1.425.653 1.425 1.425S23.631 6.65 22.86 6.65a1.445 1.445 0 01-1.425-1.425c0-.772.653-1.425 1.425-1.425zm6.888 4.038c1.425 0 2.612-1.188 2.612-2.613s-1.187-2.612-2.612-2.612-2.613 1.187-2.613 2.612 1.188 2.613 2.613 2.613zm0-4.038c.772 0 1.425.653 1.425 1.425s-.653 1.425-1.425 1.425a1.445 1.445 0 01-1.425-1.425c0-.772.653-1.425 1.425-1.425zm6.531 2.019h25.71c.356 0 .593-.238.593-.594s-.237-.594-.594-.594H36.278c-.356 0-.594.238-.594.594s.297.594.594.594zM14.725 31.29h10.45c.356 0 .594-.238.594-.594s-.238-.594-.594-.594h-10.45c-.356 0-.594.238-.594.594s.238.594.594.594zm24.64 19h-24.64c-.356 0-.594.237-.594.593 0 .357.238.594.594.594h24.64c.357 0 .594-.237.594-.594a.595.595 0 00-.593-.593zm0-5.047h-24.64c-.356 0-.594.237-.594.593 0 .357.238.594.594.594h24.64c.357 0 .594-.237.594-.593a.595.595 0 00-.593-.594zm0-10.094h-24.64c-.356 0-.594.238-.594.594s.238.593.594.593h24.64c.357 0 .594-.237.594-.593a.595.595 0 00-.593-.594zm0 5.047h-24.64c-.356 0-.594.237-.594.594 0 .356.238.593.594.593h24.64c.357 0 .594-.237.594-.593a.595.595 0 00-.593-.594zm21.91-10.094H44.65c-.356 0-.594.238-.594.594V55.93c0 .357.238.594.594.594h16.625c.356 0 .594-.237.594-.594V30.697c0-.356-.238-.594-.594-.594zm-.594 25.175H45.244V31.291H60.68v23.987zm.594-40.672h-46.55c-.356 0-.594.238-.594.594v10.153c0 .356.238.594.594.594h46.61c.356 0 .593-.238.593-.594V15.2c-.06-.297-.297-.594-.653-.594zm-.594 10.153H15.32v-8.965h45.42v8.965h-.06z"/></g><defs><clipPath id="aja"><path d="M0 0h76v76H0z"/></clipPath></defs></svg><svg viewBox="0 0 60 60" id="icon-desktop-info" xmlns="http://www.w3.org/2000/svg"><path d="M57.188 12.311v2.011a1.87 1.87 0 01.937 1.616V52.5a1.875 1.875 0 01-1.875 1.875H3.75A1.875 1.875 0 011.875 52.5V15.937a1.87 1.87 0 01.937-1.615v-2.011A3.753 3.753 0 000 15.938V52.5a3.756 3.756 0 003.75 3.75h18.28v1.875h-4.687a.938.938 0 000 1.875h25.313a.937.937 0 100-1.875h-4.688V56.25H56.25A3.755 3.755 0 0060 52.5V15.937a3.754 3.754 0 00-2.812-3.626zM36.093 58.126H23.906V56.25h12.187v1.875zM50.625 3.75H48.75a.938.938 0 000 1.875h1.875a.938.938 0 000-1.875zM45 3.75h-1.875a.938.938 0 000 1.875H45a.938.938 0 000-1.875z"/><path d="M30 24.375v-11.25a1.876 1.876 0 00-1.875-1.875H10.312a1.876 1.876 0 00-1.874 1.875v11.25a1.875 1.875 0 001.874 1.875h17.813A1.875 1.875 0 0030 24.375zm-19.688-11.25h17.813v11.25H10.312v-11.25zm24.376.938h15.937a.938.938 0 000-1.876H34.687a.938.938 0 000 1.876zm0 3.75h15.937a.938.938 0 000-1.875H34.687a.938.938 0 000 1.874zm0 3.75h15.937a.938.938 0 000-1.875H34.687a.938.938 0 000 1.875zm16.875 2.812a.938.938 0 00-.938-.938H34.687a.938.938 0 000 1.875h15.938c.518 0 .938-.42.938-.937z"/><path d="M5.625 46.875h16.171a3.739 3.739 0 01-.68-1.875H6.563V9.375h46.876V45H38.883a3.739 3.739 0 01-.679 1.875h16.171c.518 0 .938-.42.938-1.406V2.344C55.313 1.26 54.05 0 52.5 0h-45C5.949 0 4.687 1.261 4.687 2.344v43.125c0 .986.42 1.406.938 1.406zm.937-44.062a.94.94 0 01.938-.938h45a.94.94 0 01.938.938V7.5H6.562V2.813z"/><path d="M28.586 51.857a1.876 1.876 0 002.828 0l5.128-5.887a1.875 1.875 0 00-1.383-3.139H33.28v-9.08a1.876 1.876 0 00-1.875-1.875h-2.812a1.875 1.875 0 00-1.875 1.875v9.08h-1.875a1.875 1.875 0 00-1.414 3.107l5.156 5.92zm.008-7.15V33.75h2.812v10.955h3.75L30 50.626l-5.156-5.92h3.75z"/></svg><svg viewBox="0 0 45 44" id="icon-html" xmlns="http://www.w3.org/2000/svg"><path d="M43.512 22c0 11.874-9.626 21.5-21.5 21.5S.512 33.874.512 22 10.138.5 22.012.5s21.5 9.626 21.5 21.5z"/><path d="M14.604 30.007L13 12h17.637l-1.604 17.997L21.804 32"/><path d="M21.82 30.468v-16.99h7.21L27.654 28.84M16.277 15.68h5.542v2.208H18.7l.203 2.26h2.917v2.203h-4.94l-.603-6.67zm.7 7.779h2.217l.156 1.765 2.47.66v2.305l-4.532-1.264"/><path d="M27.34 15.68h-5.53v2.208h5.328l.204-2.207zm-.403 4.468H21.81v2.207h2.722l-.258 2.869-2.464.66v2.296l4.52-1.255"/></svg><svg viewBox="0 0 80 81" id="icon-lamp" xmlns="http://www.w3.org/2000/svg"><path d="M56.16 43.13c7.2-12.391-1.92-27.841-16-27.841S16.96 30.578 24.32 43.29c0 0 4.16 6.116 6.24 10.14.48 1.126.8 2.253.8 3.379v10.3c0 1.931 1.28 3.701 2.88 4.345v2.575c0 2.736 2.08 4.828 4.8 4.828h2.24c2.72 0 4.8-2.092 4.8-4.828v-2.414c1.76-.644 2.88-2.414 2.88-4.345v-10.3c0-1.127.32-2.253.8-3.219 2.08-4.345 6.24-10.46 6.4-10.621zm-13.28 30.9c0 .966-.64 1.61-1.6 1.61h-2.24c-.96 0-1.6-.644-1.6-1.61v-2.092h5.44v2.092zm3.04-6.92c0 .805-.64 1.61-1.6 1.61H36c-.8 0-1.6-.644-1.6-1.61v-1.931h5.76c.96 0 1.6-.644 1.6-1.61 0-.965-.64-1.61-1.6-1.61H34.4v-3.54h11.36v8.69h.16zm.96-14.967a9.75 9.75 0 00-.96 3.058H34.24c-.16-1.127-.48-2.253-.96-3.219-2.08-4.184-6.24-10.3-6.4-10.46-5.92-10.14 1.44-23.014 13.28-23.014 11.68 0 19.04 12.874 13.28 22.852-.16.322-4.48 6.438-6.56 10.783zM40.16 9.978c.96 0 1.6-.644 1.6-1.61v-5.15c0-.965-.64-1.609-1.6-1.609-.96 0-1.6.644-1.6 1.61v5.15c0 .965.8 1.609 1.6 1.609zm20.32 7.725L64 14c.64-.643.64-1.61 0-2.253-.64-.644-1.6-.644-2.24 0l-3.68 3.702c-.64.643-.64 1.609 0 2.253.64.643 1.76.643 2.4 0zm6.56 16.577c-.96 0-1.6.643-1.6 1.608 0 .966.64 1.61 1.6 1.61h5.12c.96 0 1.6-.644 1.6-1.61 0-.965-.64-1.609-1.6-1.609h-5.12zm-54.08-.484H7.84c-.96 0-1.6.644-1.6 1.61 0 .965.64 1.61 1.6 1.61h5.12c.96 0 1.6-.645 1.6-1.61 0-.805-.8-1.61-1.6-1.61zm9.12-18.668l-3.68-3.702c-.64-.643-1.6-.643-2.24 0-.64.644-.64 1.61 0 2.254l3.68 3.701c.64.644 1.6.644 2.24 0 .64-.644.64-1.61 0-2.253z"/></svg><svg viewBox="0 0 76 76" id="icon-landing" xmlns="http://www.w3.org/2000/svg"><path d="M7.54 6.472a2.66 2.66 0 00-2.67 2.672 2.66 2.66 0 002.672 2.672 2.66 2.66 0 002.671-2.672c0-1.485-1.246-2.672-2.671-2.672zm0 4.156a1.47 1.47 0 01-1.484-1.484 1.47 1.47 0 011.485-1.485 1.47 1.47 0 011.484 1.485c0 .831-.713 1.484-1.484 1.484zm7.363-4.156a2.66 2.66 0 00-2.672 2.672 2.66 2.66 0 002.672 2.672 2.66 2.66 0 002.672-2.672 2.66 2.66 0 00-2.672-2.672zm0 4.156a1.47 1.47 0 01-1.484-1.484 1.47 1.47 0 011.484-1.485 1.47 1.47 0 011.484 1.485 1.47 1.47 0 01-1.484 1.484zm7.422-4.156a2.66 2.66 0 00-2.672 2.672 2.66 2.66 0 002.672 2.672 2.66 2.66 0 002.672-2.672 2.66 2.66 0 00-2.672-2.672zm0 4.156a1.47 1.47 0 01-1.484-1.484 1.47 1.47 0 011.484-1.485 1.47 1.47 0 011.484 1.485 1.47 1.47 0 01-1.484 1.484zm46.134-4.156H34.081a2.66 2.66 0 00-2.672 2.672 2.66 2.66 0 002.672 2.672H68.46a2.66 2.66 0 002.672-2.672 2.66 2.66 0 00-2.672-2.672zm0 4.156H34.081a1.47 1.47 0 01-1.484-1.484 1.47 1.47 0 011.484-1.485H68.46a1.47 1.47 0 011.485 1.485 1.47 1.47 0 01-1.485 1.484zM76 7.838a5.17 5.17 0 00-5.166-5.166H5.166A5.17 5.17 0 000 7.837v60.325a5.17 5.17 0 005.166 5.166h65.668A5.17 5.17 0 0076 68.162V7.837zm-74.813 0a3.978 3.978 0 013.979-3.979h65.668a3.978 3.978 0 013.978 3.979v6.53H1.189v-6.53zm73.626 60.324a3.978 3.978 0 01-3.979 3.979H5.166a3.978 3.978 0 01-3.979-3.979V15.556h73.626v52.606zM8.371 28.975h59.256c.356 0 .594-.238.594-.594v-8.015c0-.357-.297-.594-.653-.594H8.372c-.356 0-.594.237-.594.594v8.015c0 .297.238.594.594.594zm.594-8.016h58.068v6.829H8.966v-6.829zm58.662 17.575H8.372c-.356 0-.594.238-.594.594s.238.594.594.594h59.256c.356 0 .594-.238.594-.594a.595.595 0 00-.594-.594zM8.372 61.81h17.1c.356 0 .594-.237.594-.593V44.65c0-.356-.238-.594-.594-.594h-17.1c-.356 0-.594.238-.594.594v16.566c0 .356.238.593.594.593zm.594-16.565h15.912v15.378H8.966V45.244zm58.662-1.188h-17.1c-.356 0-.594.238-.594.594v16.566c0 .356.238.593.594.593h17.1c.356 0 .594-.237.594-.593V44.65c0-.297-.297-.594-.594-.594zm-.594 16.566H51.122V45.244h15.912v15.378zM41.741 45.244c.356 0 .593-.238.593-.594s-.237-.594-.593-.594h-7.482c-.356 0-.593.238-.593.594s.237.594.593.594h7.482zm-11.875 4.928c0 .356.237.594.593.594h15.082c.356 0 .593-.238.593-.594s-.237-.594-.593-.594H30.459a.595.595 0 00-.593.594zm.593 6.116h15.082c.356 0 .593-.238.593-.594 0-.357-.237-.594-.593-.594H30.459c-.356 0-.593.237-.593.594 0 .356.237.593.593.593zm0 5.521h15.082c.356 0 .593-.237.593-.593 0-.357-.237-.594-.593-.594H30.459c-.356 0-.593.237-.593.594 0 .356.237.593.593.593zm37.17 4.335H8.371c-.356 0-.594.237-.594.593 0 .357.238.594.594.594h59.256c.356 0 .594-.237.594-.594a.595.595 0 00-.594-.593zm0-33.013H8.371c-.356 0-.594.238-.594.594s.238.594.594.594h59.256c.356 0 .594-.238.594-.594a.595.595 0 00-.594-.594z"/></svg><svg viewBox="0 0 221 47" id="icon-logo" xmlns="http://www.w3.org/2000/svg"><path d="M57.893 11.101C53.515 4.814 46.685 1.057 38.147.165 24.482-1.264 8.263 6.514 8.263 26.624l3.776.038c0-19.416 15.83-23.715 25.439-22.647C63.52 6.91 60.283 37.125 53.974 40.887c-10.107 6.026-12.687-5.605-12.687-5.605h-3.7s-1.407 7.823-8.549 6.63c-4.673-.779-6.008-5.63-6.37-7.34 10.41-5.418 9.993-17.446 9.993-17.446l-9.034-2.68s-5.9 9.249-5.521 17.929c-9.06 2.581-15.31-3.63-15.334-3.654L0 31.228c.11.114 7.605 8.286 18.87 4.783.431 1.682 2.463 8.548 9.486 9.72 6.092 1.017 9.637-2.447 10.817-4.243 1.584 2.565 4.618 4.735 9.05 4.932.124.006.249.002.375.01 6.005.267 12.933-4.855 14.043-16.034.687-6.939-1.043-13.971-4.748-19.295zM25.545 18.97l3.034.88c-.204 1.373-.797 7.033-6.374 10.54.253-4.988 2.2-9.195 3.34-11.42z"/><path d="M17.91 15.502l-3.205 3.068 2.46 2.442 3.204-3.07-2.46-2.44zm70.908 5.35l-2.946 2.886 2.261 2.296 2.946-2.886-2.261-2.296zM70.457 22.54h4.21v13.522c0 3.751 3.416 6.332 7.66 6.332h2.035v4.198H82.05c-6.418 0-11.595-4.61-11.595-10.324V22.539h.002zm20.12 6.847v17.206h-4.21V29.387h4.21zm2.873-3.475h4.21v5.541h2.486v4.13h-2.485v3.543c0 1.824 1.517 3.338 3.346 3.338h1.036v4.13h-1.036c-4.175 0-7.558-3.442-7.558-7.572v-13.11h.002zm10.485 0h4.21v5.541h2.485v4.13h-2.485v3.543c0 1.824 1.518 3.338 3.346 3.338h1.036v4.13h-1.036c-4.175 0-7.557-3.442-7.557-7.572v-13.11h.001zm10.34 20.68V22.504h4.244v24.088h-4.244zm16.214-18.135a9.13 9.13 0 012.001.206l.345.068c.105.034.241.069.346.104 3.83 1.101 6.624 4.577 6.624 8.706 0 .24-.034.483-.034.723a8.955 8.955 0 01-.414 1.962c-1.553-.757-3.278-1.135-5.107-1.135-1.828 0-3.555.378-5.175 1.1v-4.025a18.773 18.773 0 015.141-.723c.311 0 .587.034.898.034-.657-1.479-2.313-2.89-4.624-2.89-2.794 0-5.072 2.236-5.072 4.954 0 2.753 2.346 4.921 5.072 4.921 1.416 0 2.622-.482 3.624-1.48.724.791 1.967 2.135 2.898 3.132-1.622 1.513-3.898 2.478-6.522 2.478-5.245 0-9.282-4.13-9.282-9.05-.002-5.06 4.14-9.085 9.281-9.085zm12.15-6.434h4.163v14.454c0 3.2 2.627 5.987 6.074 5.987 3.379 0 6.075-2.65 6.075-5.987V22.023h4.163v14.454a6.01 6.01 0 006.04 5.987c3.379 0 6.075-2.65 6.075-5.987V22.023h4.163v14.454c0 5.677-4.64 10.117-10.238 10.117-3.31 0-6.245-1.514-8.122-3.992-1.91 2.479-4.845 3.992-8.156 3.992-5.664 0-10.237-4.508-10.237-10.117V22.023zm47.958 6.434a9.13 9.13 0 012.001.206l.346.068c.104.034.241.069.345.104 3.83 1.101 6.625 4.577 6.625 8.706 0 .24-.035.483-.035.723a8.954 8.954 0 01-.413 1.962c-1.554-.757-3.278-1.135-5.107-1.135-1.829 0-3.555.378-5.175 1.1v-4.025a18.768 18.768 0 015.141-.723c.311 0 .586.034.897.034-.656-1.479-2.312-2.89-4.623-2.89-2.795 0-5.073 2.236-5.073 4.954 0 2.753 2.347 4.921 5.073 4.921 1.415 0 2.622-.482 3.623-1.48.725.791 1.967 2.135 2.899 3.132-1.622 1.513-3.899 2.478-6.522 2.478-5.246 0-9.283-4.13-9.283-9.05-.001-5.06 4.14-9.085 9.281-9.085zm16.014-6.365v15.416c0 3.165 2.174 5.333 5.073 5.333 2.933 0 5.072-2.684 5.072-5.333 0-2.614-2.035-5.333-5.072-5.333-.725 0-1.415.138-2.036.378a261.302 261.302 0 01-1.415-3.475c1.07-.412 2.208-.619 3.451-.619 5.348 0 9.316 4.164 9.316 9.05 0 5.093-4.244 9.085-9.316 9.085-5.141 0-9.283-4.026-9.283-9.084V22.094h4.21v-.002z"/></svg><svg viewBox="0 0 40 40" id="icon-mail" xmlns="http://www.w3.org/2000/svg"><path d="M33.333 13.335L20 21.668 6.666 13.335V10L20 18.335 33.333 10m0-3.333H6.666A3.322 3.322 0 003.333 10v20a3.333 3.333 0 003.333 3.334h26.667A3.333 3.333 0 0036.666 30V10c0-1.85-1.5-3.333-3.333-3.333z"/></svg><svg viewBox="0 0 80 80" id="icon-man" xmlns="http://www.w3.org/2000/svg"><path d="M29.6 1.6c-8.32 0-15.2 6.72-15.2 15.04s6.72 18.24 15.2 18.24 15.2-9.92 15.2-18.24C44.96 8.32 38.08 1.6 29.6 1.6zm0 30.08c-6.4 0-12-8.32-12-15.04 0-6.56 5.44-11.84 12-11.84s12 5.28 12 11.84c.16 6.72-5.44 15.04-12 15.04zM1.6 76.8c0 .96.64 1.6 1.6 1.6h52.96c.96 0 1.6-.64 1.6-1.6v-3.52c.64 0 1.28.16 1.92.16 10.4 0 18.72-8.48 18.72-18.72C78.4 44.48 69.92 36 59.68 36c-3.68 0-7.2 1.12-10.08 3.04-1.92-.8-3.84-1.28-5.92-1.28h-28C8 37.76 1.6 44 1.6 51.68V76.8zm58.08-37.76c8.64 0 15.52 7.04 15.52 15.52s-7.04 15.52-15.52 15.52c-8.64 0-15.52-7.04-15.52-15.52s6.88-15.52 15.52-15.52zM37.6 40.8c-.32.32-2.24 5.12-7.84 5.12s-7.52-4.8-7.84-5.12H37.6zm-7.2 8.32l4.48 13.92-5.12 6.24-5.12-6.24 4.48-13.92h1.28zM4.8 51.36c0-5.92 4.8-10.72 10.88-10.72h2.56c0 .8.32.96 1.6 3.04 1.44 2.24 3.52 3.84 5.92 4.64l-4.64 14.4c-.16.48 0 1.12.32 1.44l6.88 8.48c.32.32.8.64 1.28.64s.96-.16 1.28-.64l6.88-8.48c.32-.48.48-.96.32-1.44l-4.64-14.4c4.96-1.76 6.4-5.76 7.36-6.88.16-.32.16-.48.16-.8 1.92 0 3.36-.16 5.6.48a18.597 18.597 0 00-5.76 13.44c0 8.48 5.76 15.68 13.6 18.08v2.56H4.8V51.36z"/><path d="M48.16 56l6.72 6.72c.32.32.8.48 1.12.48.32 0 .8-.16 1.12-.48L71.2 48.64c.64-.64.64-1.6 0-2.24-.64-.64-1.6-.64-2.24 0L56 59.36l-5.6-5.6c-.64-.64-1.6-.64-2.24 0-.64.64-.64 1.6 0 2.24z"/></svg><svg viewBox="0 0 80 80" id="icon-money" xmlns="http://www.w3.org/2000/svg"><path d="M41.6 50.4c3.52-1.12 4.96-4.8 3.52-8a5.804 5.804 0 00-5.28-3.36c-3.52-.8-2.4-5.12.32-5.12h.32c.64 0 1.28.32 1.76.96.64.64 1.6.64 2.24.16.64-.64.64-1.6.16-2.24-.8-.96-1.76-1.44-2.88-1.76-.16-.64.64-3.68-1.6-3.68-.96 0-1.6.64-1.6 1.6v2.24c-.8.32-1.44.64-2.08 1.28-2.08 1.92-2.88 5.44-.32 8.16 2.56 2.88 5.12.8 6.24 3.36.8 1.76-.16 3.68-2.4 3.68-.8 0-1.44-.32-1.92-.8-.64-.64-1.6-.64-2.24-.16-1.6 1.44.64 3.36 2.72 4 .16.64-.64 3.68 1.6 3.68 2.08-.16 1.28-3.2 1.44-4z"/><path d="M5.6 40.8c0-.96-.64-1.6-1.6-1.6-.96 0-1.6.64-1.6 1.6 0 20.64 16.8 37.6 37.6 37.6s37.6-16.96 37.6-37.6S60.8 3.2 40 3.2c-9.76 0-19.04 3.68-26.08 10.4V3.2c0-.8-.8-1.6-1.6-1.6-.96 0-1.6.8-1.6 1.6l.16 14.4c0 .8.8 1.6 1.6 1.6l14.4-.16c.96 0 1.6-.8 1.6-1.6s-.8-1.6-1.6-1.6L16.16 16C22.56 9.92 31.04 6.4 40 6.4c19.04 0 34.4 15.52 34.4 34.4S59.04 75.2 40 75.2 5.6 59.68 5.6 40.8z"/><path d="M62.24 40.8c0-12.32-9.92-22.24-22.24-22.24-12.32 0-22.24 9.92-22.24 22.24 0 12.32 9.92 22.24 22.24 22.24 12.32 0 22.24-10.08 22.24-22.24zm-41.28 0c0-10.4 8.48-19.04 19.04-19.04 10.56 0 19.04 8.48 19.04 19.04 0 10.56-8.64 19.04-19.04 19.04-10.4 0-19.04-8.64-19.04-19.04z"/></svg><svg viewBox="0 0 44 44" id="icon-noimage" xmlns="http://www.w3.org/2000/svg"><path d="M43.5 22c0 11.874-9.626 21.5-21.5 21.5S.5 33.874.5 22 10.126.5 22 .5 43.5 10.126 43.5 22z"/><path d="M29.25 15.417c-1.666.583-4 1.167-7.25 1.167s-5.75-.667-7.25-1.167c-.5-.25-1.083.167-1.083.75v11.666c0 .584.583 1 1.083.834 1.75-.584 4-1.25 7.25-1.25s5.584.666 7.25 1.25c.584.166 1.084-.25 1.084-.834V16.168c0-.584-.584-1-1.084-.75zM22 24.5c-1.916 0-3.75.084-5.416.334l3.083-3.667 1.667 2 2.333-2.834 3.75 4.5c-1.667-.25-3.5-.333-5.417-.333z"/></svg><svg viewBox="0 0 40 40" id="icon-phone" xmlns="http://www.w3.org/2000/svg"><path d="M11.033 17.983a25.161 25.161 0 0010.984 10.984l3.666-3.667a1.673 1.673 0 011.7-.417c1.867.617 3.867.95 5.95.95A1.666 1.666 0 0135 27.5v5.833A1.666 1.666 0 0133.333 35 28.334 28.334 0 015 6.667 1.667 1.667 0 016.667 5H12.5a1.667 1.667 0 011.667 1.667c0 2.083.333 4.083.95 5.95.183.583.05 1.233-.417 1.7l-3.667 3.666z"/></svg><svg viewBox="0 0 76 76" id="icon-seo" xmlns="http://www.w3.org/2000/svg"><path d="M66.88 5.67H9.12a3.801 3.801 0 00-3.8 3.8v57.41c0 2.097 1.703 3.8 3.8 3.8h57.76c2.098 0 3.8-1.703 3.8-3.8V9.469c0-2.097-1.702-3.8-3.8-3.8zm2.28 37.954H41.344V41.92a2.44 2.44 0 00-2.432-2.432H37.18c-.395 0-.73-.228-.85-.577-.168-.547-.396-1.049-.593-1.475-.016 0-.016-.015-.016-.015-.167-.334-.076-.745.198-1.018l1.2-1.201a2.44 2.44 0 00.715-1.718 2.44 2.44 0 00-.714-1.717l-1.02-1.018a2.414 2.414 0 00-1.717-.714c-.654 0-1.262.258-1.718.714l-1.2 1.201a.958.958 0 01-1.034.183c-.441-.213-.927-.41-1.475-.593a.912.912 0 01-.593-.867v-1.702a2.44 2.44 0 00-2.431-2.432h-1.43a2.44 2.44 0 00-2.431 2.432v1.702c0 .396-.228.73-.578.852-.547.167-1.08.41-1.474.592 0 .016-.015.016-.015.016-.335.167-.745.076-1.019-.198l-1.2-1.2a2.441 2.441 0 00-1.718-.715 2.44 2.44 0 00-1.718.714l-1.018 1.019a2.414 2.414 0 00-.715 1.717c0 .654.259 1.262.715 1.718l1.2 1.2a.958.958 0 01.183 1.034c-.213.441-.41.927-.593 1.475a.912.912 0 01-.866.592h-1.703a2.44 2.44 0 00-2.432 2.432v1.703H6.84V19.805h62.32v23.819zm-49.017 0c.371-2.485 2.54-4.393 5.12-4.393a5.172 5.172 0 015.104 4.393H20.143zm11.746 0a6.688 6.688 0 00-13.283 0H10.64v-1.718c0-.517.396-.912.912-.912h1.688a2.425 2.425 0 002.31-1.641c.167-.487.334-.897.517-1.262.015 0 .015-.015.015-.015a2.438 2.438 0 00-.487-2.766l-1.2-1.201a.884.884 0 01-.274-.654c0-.258.106-.486.274-.653l1.018-1.019a.884.884 0 01.654-.273c.258 0 .486.106.653.273l1.201 1.201c.745.745 1.855.942 2.767.486.364-.182.82-.38 1.292-.532.972-.319 1.626-1.246 1.626-2.295v-1.702c0-.517.395-.912.912-.912h1.429c.517 0 .912.395.912.912v1.702c0 1.049.653 1.976 1.641 2.31.487.168.897.335 1.262.517 0 .016.015.016.015.016a2.44 2.44 0 002.767-.487l1.2-1.2a.884.884 0 01.654-.274c.258 0 .486.106.653.273l1.019 1.019a.884.884 0 01.273.653.919.919 0 01-.273.654l-1.201 1.2c-.745.746-.942 1.855-.486 2.767.182.365.38.821.532 1.292.319.973 1.246 1.627 2.295 1.627h1.702c.517 0 .912.395.912.912v1.702H31.89zM6.84 45.144h2.885c.05.01.102.015.155.015h30.705a.794.794 0 00.154-.015H69.16v5.168H6.84v-5.168zm0-35.675a2.277 2.277 0 012.28-2.28h57.76a2.277 2.277 0 012.28 2.28v8.816H6.84V9.47zm62.32 57.41a2.277 2.277 0 01-2.28 2.28H9.12a2.277 2.277 0 01-2.28-2.28V51.833h62.32V66.88z"/><path d="M70.68 0H5.32A5.326 5.326 0 000 5.32v65.36A5.326 5.326 0 005.32 76h65.36A5.326 5.326 0 0076 70.68V5.32A5.326 5.326 0 0070.68 0zm3.8 70.68a3.8 3.8 0 01-3.8 3.8H5.32a3.801 3.801 0 01-3.8-3.8V5.32a3.8 3.8 0 013.8-3.8h65.36a3.8 3.8 0 013.8 3.8v65.36z"/><path d="M12.114 64.858h7.387a2.297 2.297 0 002.28-2.097c0-.061.015-.122.015-.183v-5.061a2.277 2.277 0 00-2.28-2.28h-7.402a2.277 2.277 0 00-2.28 2.28v5.061a2.277 2.277 0 002.28 2.28zm-.76-7.341c0-.426.334-.76.76-.76h7.402c.426 0 .76.334.76.76v4.91c-.015.045-.015.106-.015.151 0 .426-.334.76-.76.76h-7.387a.753.753 0 01-.76-.76v-5.061zm15.55 7.341h7.402a2.277 2.277 0 002.28-2.28v-5.061a2.277 2.277 0 00-2.28-2.28h-7.402a2.277 2.277 0 00-2.28 2.28v5.061a2.277 2.277 0 002.28 2.28zm-.76-7.341c0-.426.335-.76.76-.76h7.402c.426 0 .76.334.76.76v5.061c0 .426-.334.76-.76.76h-7.402a.753.753 0 01-.76-.76v-5.061zm15.549 7.341h7.403a2.277 2.277 0 002.28-2.28v-5.061a2.277 2.277 0 00-2.28-2.28h-7.403a2.277 2.277 0 00-2.28 2.28v5.061a2.277 2.277 0 002.28 2.28zm-.76-7.341c0-.426.334-.76.76-.76h7.403c.425 0 .76.334.76.76v5.061c0 .426-.335.76-.76.76h-7.403a.753.753 0 01-.76-.76v-5.061zm15.55 7.341h7.403a2.277 2.277 0 002.28-2.28v-5.061a2.277 2.277 0 00-2.28-2.28h-7.403a2.277 2.277 0 00-2.28 2.28v5.061a2.277 2.277 0 002.28 2.28zm-.76-7.341c0-.426.335-.76.76-.76h7.403c.425 0 .76.334.76.76v5.061c0 .426-.335.76-.76.76h-7.403a.753.753 0 01-.76-.76v-5.061zM44.125 28.044h21.28c.426 0 .76-.335.76-.76a.753.753 0 00-.76-.76h-21.28a.753.753 0 00-.76.76c0 .425.335.76.76.76zm0 5.974h21.28c.426 0 .76-.335.76-.76a.753.753 0 00-.76-.76h-21.28a.753.753 0 00-.76.76c0 .425.335.76.76.76zm0 5.988h21.28c.426 0 .76-.334.76-.76a.753.753 0 00-.76-.76h-21.28a.753.753 0 00-.76.76c0 .426.335.76.76.76z"/></svg><svg viewBox="0 0 76 76" id="icon-shop" xmlns="http://www.w3.org/2000/svg"><g clip-path="url(#ava)"><path d="M44.53 43.284H9.619c-.356 0-.593.238-.593.594v26.719c0 .356.237.594.593.594h34.913c.356 0 .594-.238.594-.594V43.878c0-.356-.238-.594-.594-.594zm-.593 26.66H10.212V44.412h33.725v25.532zm22.444-26.66h-17.1c-.356 0-.594.238-.594.594v26.719c0 .356.238.594.594.594h17.1c.356 0 .594-.238.594-.594V43.878c0-.356-.238-.594-.594-.594zm-.594 26.66H49.875V44.412h15.912v25.532zM52.843 52.25h9.975c.357 0 .594-.237.594-.594v-4.275c0-.356-.237-.593-.594-.593h-9.975c-.356 0-.593.237-.593.593v4.275c0 .357.297.594.593.594zm.594-4.216h8.788v3.029h-8.788v-3.029zm12.944-15.021H9.618c-.356 0-.593.237-.593.593v5.522c0 .356.237.594.593.594H66.44c.356 0 .594-.238.594-.594v-5.522c-.06-.297-.297-.593-.653-.593zm-.594 5.521H10.212V34.2h55.635l-.06 4.334zM64.362 3.8a2.66 2.66 0 00-2.672 2.672 2.66 2.66 0 002.672 2.672 2.66 2.66 0 002.672-2.672c0-1.485-1.247-2.672-2.672-2.672zm0 4.156a1.47 1.47 0 01-1.484-1.484 1.47 1.47 0 011.484-1.485 1.47 1.47 0 011.485 1.485c0 .831-.713 1.484-1.485 1.484zM57.534 3.8a2.66 2.66 0 00-2.672 2.672 2.66 2.66 0 002.672 2.672 2.66 2.66 0 002.672-2.672A2.66 2.66 0 0057.534 3.8zm0 4.156a1.47 1.47 0 01-1.484-1.484 1.47 1.47 0 011.484-1.485 1.47 1.47 0 011.484 1.485 1.47 1.47 0 01-1.484 1.484zM50.706 3.8a2.66 2.66 0 00-2.672 2.672 2.66 2.66 0 002.672 2.672 2.66 2.66 0 002.672-2.672A2.66 2.66 0 0050.706 3.8zm0 4.156a1.47 1.47 0 01-1.485-1.484 1.47 1.47 0 011.485-1.485 1.47 1.47 0 011.484 1.485 1.47 1.47 0 01-1.484 1.484zM40.73 3.8H11.696a2.66 2.66 0 00-2.671 2.672 2.66 2.66 0 002.671 2.672h29.035a2.66 2.66 0 002.672-2.672A2.66 2.66 0 0040.73 3.8zm0 4.156H11.696a1.47 1.47 0 01-1.484-1.484 1.47 1.47 0 011.485-1.485H40.73a1.47 1.47 0 011.484 1.485 1.47 1.47 0 01-1.484 1.484zm34.972 13.716l-3.86-9.5V5.166A5.17 5.17 0 0066.678 0H9.32a5.17 5.17 0 00-5.165 5.166v7.006l-3.919 9.5c0 .06-.06.119-.06.237v.357c0 2.73 1.604 5.047 3.92 6.175v42.393A5.17 5.17 0 009.261 76h57.356a5.17 5.17 0 005.166-5.166V28.441a6.797 6.797 0 003.919-6.175c.06-.416.06-.416 0-.594zm-25.947-8.788h9.975l2.316 8.432H50.943l-1.187-8.432zm-24.7 8.432H14.012l2.316-8.432h9.975l-1.247 8.432zm1.247 0l1.128-8.432h9.975v8.432H26.303zm12.29-8.432h9.975l1.129 8.432H38.593v-8.432zm-33.428 0h9.916l-2.316 8.432H1.721l3.444-8.432zm19.832 9.62c-.12 2.968-2.613 5.343-5.582 5.343a5.567 5.567 0 01-5.581-5.344h11.163zm12.409 0c-.119 2.968-2.613 5.343-5.581 5.343-2.97 0-5.463-2.375-5.582-5.344h11.163zm12.41 0c-.12 2.968-2.613 5.343-5.582 5.343a5.568 5.568 0 01-5.581-5.344h11.162zm12.35 0c-.12 2.968-2.613 5.343-5.582 5.343a5.568 5.568 0 01-5.581-5.344h11.162zm1.068-1.188l-2.316-8.432h9.916l3.444 8.432H63.234zM5.344 5.166A3.978 3.978 0 019.32 1.187h57.357a3.978 3.978 0 013.978 3.979v6.53H5.343v-6.53zm-3.92 17.337h11.223c-.12 2.969-2.613 5.344-5.582 5.344-3.087 0-5.522-2.375-5.64-5.344zm69.232 48.331a3.978 3.978 0 01-3.978 3.978H9.32a3.978 3.978 0 01-3.978-3.978V28.856c.535.119 1.07.238 1.663.238 2.79 0 5.165-1.663 6.175-4.038 1.069 2.375 3.444 4.038 6.175 4.038 2.79 0 5.165-1.663 6.175-4.038 1.069 2.375 3.444 4.038 6.175 4.038 2.79 0 5.165-1.663 6.175-4.038 1.069 2.375 3.444 4.038 6.175 4.038 2.79 0 5.166-1.663 6.175-4.038 1.069 2.375 3.444 4.038 6.175 4.038 2.79 0 5.166-1.663 6.175-4.038 1.069 2.375 3.444 4.038 6.175 4.038.594 0 1.128-.06 1.662-.238v41.978h.238zm-1.663-42.987a5.568 5.568 0 01-5.58-5.344h11.221c-.178 2.969-2.612 5.344-5.64 5.344zM62.818 55.04c-.356 0-.593.237-.593.593v3.147c0 .357.237.594.593.594.357 0 .594-.237.594-.594v-3.206c0-.297-.237-.534-.594-.534z"/></g><defs><clipPath id="ava"><path d="M0 0h76v76H0z"/></clipPath></defs></svg><svg viewBox="0 0 76 76" id="icon-site" xmlns="http://www.w3.org/2000/svg"><path d="M5.997 67.925h39.187c.357 0 .594-.238.594-.594V37.703c0-.356-.237-.594-.594-.594H5.997c-.356 0-.594.238-.594.594v29.569c0 .356.297.653.594.653zm.594-29.628h38v28.381h-38V38.297zM68.459 6.59H34.081a2.66 2.66 0 00-2.672 2.671 2.66 2.66 0 002.672 2.672H68.46a2.66 2.66 0 002.672-2.672A2.66 2.66 0 0068.46 6.59zm0 4.156H34.081a1.47 1.47 0 01-1.484-1.485 1.47 1.47 0 011.484-1.484H68.46a1.47 1.47 0 011.485 1.484 1.47 1.47 0 01-1.485 1.485zM7.541 6.59a2.66 2.66 0 00-2.672 2.671 2.66 2.66 0 002.672 2.672 2.66 2.66 0 002.671-2.672c0-1.484-1.246-2.671-2.671-2.671zm0 4.156a1.47 1.47 0 01-1.485-1.485 1.47 1.47 0 011.485-1.484 1.47 1.47 0 011.484 1.484c0 .832-.713 1.485-1.484 1.485zm7.362-4.156a2.66 2.66 0 00-2.672 2.671 2.66 2.66 0 002.672 2.672 2.66 2.66 0 002.672-2.672 2.66 2.66 0 00-2.672-2.671zm0 4.156a1.47 1.47 0 01-1.484-1.485 1.47 1.47 0 011.484-1.484 1.47 1.47 0 011.484 1.484 1.47 1.47 0 01-1.484 1.485zm7.422-4.156a2.66 2.66 0 00-2.672 2.671 2.66 2.66 0 002.672 2.672 2.66 2.66 0 002.672-2.672 2.66 2.66 0 00-2.672-2.671zm0 4.156a1.47 1.47 0 01-1.484-1.485 1.47 1.47 0 011.484-1.484 1.47 1.47 0 011.484 1.484 1.47 1.47 0 01-1.484 1.485zM76 7.957a5.17 5.17 0 00-5.166-5.166H5.166A5.17 5.17 0 000 7.956v60.088a5.17 5.17 0 005.166 5.165h65.668A5.17 5.17 0 0076 68.044V7.956zm-74.813 0a3.978 3.978 0 013.979-3.979h65.668a3.978 3.978 0 013.978 3.978v6.531H1.189v-6.53zm73.626 60.087a3.978 3.978 0 01-3.979 3.978H5.166a3.978 3.978 0 01-3.979-3.978v-52.37h73.626v52.37zM7.838 32.894h60.324c1.307 0 2.435-1.07 2.435-2.435v-7.422c0-1.306-1.069-2.434-2.434-2.434H7.837c-1.307 0-2.435 1.069-2.435 2.434v7.482c0 1.306 1.128 2.375 2.435 2.375zm61.571-9.857v7.482c0 .653-.534 1.247-1.247 1.247H18.466V21.79h49.637c.713 0 1.306.534 1.306 1.246zm-62.818 0c0-.653.534-1.246 1.247-1.246h9.44v9.915h-9.44A1.254 1.254 0 016.59 30.46v-7.422zm6.412 5.582l1.247 1.247a.574.574 0 00.831 0 .574.574 0 000-.832l-1.247-1.247c.713-1.068.535-2.493-.356-3.443-1.069-1.07-2.85-1.07-3.919 0-1.068 1.068-1.068 2.85 0 3.918a2.77 2.77 0 003.444.357zm-2.612-3.444a1.578 1.578 0 012.197 0 1.577 1.577 0 010 2.197 1.578 1.578 0 01-2.197 0 1.577 1.577 0 010-2.197zM36.1 55.159l3.622-1.9c.475-.237.416-.95-.119-1.128l-12.587-3.266c-.178-.059-.416 0-.594.179-.178.178-.178.356-.119.593l3.8 12.41c.178.534.89.594 1.128.06l1.722-3.682 4.988 4.75a.574.574 0 00.83 0l2.316-2.434a.574.574 0 000-.832L36.1 55.16zm2.197 6.769L33.19 57c-.297-.297-.772-.178-.95.178l-1.425 3.088-3.028-9.975 10.034 2.612-3.028 1.544c-.356.178-.416.653-.119.95l5.166 4.928-1.544 1.603zm31.706-24.819H50.587c-.356 0-.593.238-.593.594v12.112c0 .357.237.594.593.594h19.357c.356 0 .593-.237.593-.593V37.703c.06-.297-.237-.594-.534-.594zm-.594 12.113H51.181V38.297H69.35v10.925h.06zm.594 5.403H50.587c-.356 0-.593.237-.593.594V67.33c0 .356.237.594.593.594h19.357c.356 0 .593-.238.593-.594V55.22c.06-.297-.237-.594-.534-.594zm-.594 12.112H51.181V55.812H69.35v10.925h.06z"/></svg><svg viewBox="0 0 70 70" id="icon-tg" xmlns="http://www.w3.org/2000/svg"><path fill-rule="evenodd" clip-rule="evenodd" d="M15.824 34.621c10.2-4.43 16.99-7.373 20.4-8.8 9.704-4.051 11.744-4.75 13.055-4.78.292 0 .933.058 1.37.408.35.291.437.67.495.962.059.291.117.903.059 1.37-.525 5.536-2.798 18.971-3.964 25.15-.495 2.622-1.457 3.496-2.39 3.584-2.04.175-3.584-1.34-5.536-2.623-3.09-2.01-4.809-3.264-7.81-5.246-3.468-2.273-1.224-3.526.757-5.566.525-.524 9.471-8.684 9.646-9.413.03-.087.03-.437-.175-.612-.204-.175-.495-.116-.728-.058-.32.058-5.217 3.322-14.746 9.763-1.399.961-2.652 1.428-3.789 1.398-1.253-.029-3.642-.699-5.45-1.282-2.185-.7-3.934-1.078-3.788-2.302.088-.641.962-1.282 2.594-1.953z"/></svg><svg viewBox="0 0 70 70" id="icon-vk" xmlns="http://www.w3.org/2000/svg"><path d="M36.612 48.206c-13.316 0-20.91-9.626-21.227-25.642h6.67c.219 11.756 5.137 16.735 9.032 17.762V22.564h6.28v10.139c3.847-.437 7.888-5.057 9.25-10.139H52.9a20.116 20.116 0 01-3.008 7.331 18.984 18.984 0 01-5.537 5.451 19.44 19.44 0 016.31 5.299 20.69 20.69 0 013.695 7.56h-6.913c-.639-2.403-1.935-4.555-3.728-6.185-1.793-1.63-4.002-2.666-6.35-2.978v9.163h-.756z"/></svg><svg viewBox="0 0 76 76" id="icon-web-app" xmlns="http://www.w3.org/2000/svg"><path d="M24.02 9.88h12.437c.6 0 1.083-.484 1.083-1.083s-.484-1.082-1.083-1.082H24.021a1.081 1.081 0 100 2.165zm0 58.37h12.437a1.081 1.081 0 100-2.165H24.021c-.599 0-1.082.484-1.082 1.083s.483 1.082 1.082 1.082zm36.63-13.415a7.056 7.056 0 00-1.543-2.142c-2.844-2.717-7.37-2.614-10.075.22a7.062 7.062 0 00-1.97 5.089 7.12 7.12 0 002.212 4.997 7.146 7.146 0 005.619 1.947 6.947 6.947 0 003.627-1.428l.138-.104a7.043 7.043 0 002.522-4.157 6.987 6.987 0 00-.023-2.89 6.461 6.461 0 00-.506-1.532zm-1.588 3.996a4.765 4.765 0 01-1.74 2.867.634.634 0 00-.091.07 4.892 4.892 0 01-2.534 1.001 4.975 4.975 0 01-3.915-1.359 4.987 4.987 0 01-1.543-3.477 4.918 4.918 0 014.928-5.055 4.989 4.989 0 014.261 2.395c.092.15.184.31.254.472.16.345.276.702.356 1.07.15.68.15 1.348.024 2.016z"/><path d="M70.335 54.697a1.085 1.085 0 00-.922-1.048l-2.233-.346a12.47 12.47 0 00-.519-1.278c-.115-.242-.23-.472-.345-.69l1.232-1.866a1.083 1.083 0 00-.15-1.382l-4.065-3.88a1.082 1.082 0 00-1.393-.093l-1.808 1.325a12.898 12.898 0 00-1.992-.772l-.449-2.222a1.074 1.074 0 00-1.06-.864h-1.68V9.166c0-3.858-3.144-6.99-7.002-6.99H12.53c-3.858 0-7.002 3.132-7.002 6.99v57.645c0 3.834 3.132 6.978 7.002 7.024h44.575c.495 0 .92-.334 1.048-.806l.564-2.142c.69-.23 1.37-.53 2.015-.886l1.889 1.266a1.1 1.1 0 001.393-.15l3.88-4.053c.369-.38.403-.967.093-1.393l-1.348-1.82a12.95 12.95 0 00.76-1.98l2.2-.438a1.09 1.09 0 00.875-1.094l-.138-5.642zM51.012 41.58c-.541 0-.99.392-1.07.933l-.346 2.326a13.85 13.85 0 00-1.946.852l-1.877-1.255a1.1 1.1 0 00-1.394.15L40.51 48.64c-.368.38-.403.967-.092 1.393l1.336 1.808c-.3.633-.564 1.301-.771 1.992l-2.2.438a1.09 1.09 0 00-.875 1.094l.127 5.158H7.704V15.43h45.081v26.163h-1.773v-.012zM12.53 4.341h35.42c2.66 0 4.825 2.165 4.825 4.813v4.088H7.704V9.166a4.83 4.83 0 014.825-4.825zM7.704 66.8v-4.1H41.34c.218.565.449 1.106.736 1.624l-1.243 1.878a1.083 1.083 0 00.15 1.381l4.064 3.88c.07.07.15.105.23.15H12.53c-.035 0-.07.024-.104.024-2.614-.08-4.721-2.223-4.721-4.837zm40.406 4.86c-.057-.012-.103-.035-.16-.035h-1.625c.047-.023.081-.034.127-.057l.254-.185a.77.77 0 00.126-.08l1.428-1.06a15.3 15.3 0 001.935.76l.08.657H48.11zm18.194-11.815c-.414.08-.748.403-.852.818a11.293 11.293 0 01-1.06 2.763c-.195.369-.16.818.081 1.152l1.198 1.624-2.614 2.74-1.681-1.128a1.085 1.085 0 00-1.175-.023c-.863.53-1.761.92-2.694 1.197a1.078 1.078 0 00-.749.772l-.495 1.911h-3.811l-.196-1.635a1.109 1.109 0 00-.818-.933 11.083 11.083 0 01-2.763-1.07 1.067 1.067 0 00-1.163.08L45.9 69.298l-2.753-2.637 1.117-1.681c.23-.357.242-.806.023-1.163-.506-.83-.91-1.727-1.197-2.695a1.065 1.065 0 00-.875-.76l-2.004-.31-.092-3.8 1.969-.392c.414-.08.737-.392.84-.806.254-.99.61-1.923 1.072-2.764a1.089 1.089 0 00-.081-1.174l-1.198-1.612 2.614-2.741 1.681 1.128c.357.23.806.242 1.163.023.841-.506 1.75-.91 2.706-1.186.404-.115.703-.46.772-.886l.288-2.084h3.788l.403 1.992c.081.403.415.737.818.84l.184.058c.898.242 1.762.575 2.568 1.025.369.207.83.172 1.163-.081l1.612-1.186 2.752 2.625-1.105 1.67c-.23.357-.242.818-.012 1.175a10.961 10.961 0 011.186 2.694c.116.403.461.703.876.772l2.003.31.092 3.8-1.969.392z"/><path d="M33.854 18.896c-.253 0-.472.081-.645.22a1.1 1.1 0 00-.368.518l-7.542 21.648a1.21 1.21 0 00-.07.38c0 .3.093.541.3.76.196.207.46.31.771.31.254 0 .473-.068.657-.206.172-.139.3-.311.368-.519l7.531-21.648a1.25 1.25 0 00.08-.38c0-.3-.091-.541-.299-.76a1.059 1.059 0 00-.783-.323zm10.721 10.318l-8.141-3.662a1.12 1.12 0 00-1.175.23 1.034 1.034 0 00-.115 1.348c.127.184.3.31.495.391l6.852 3.052-6.852 3.051a1.17 1.17 0 00-.495.392 1.004 1.004 0 00-.196.598c0 .3.104.542.311.76.196.196.46.3.76.3.15 0 .288-.023.426-.08l8.153-3.663c.265-.126.472-.299.633-.518.161-.219.242-.472.242-.76v-.161c0-.288-.08-.541-.242-.76a1.733 1.733 0 00-.656-.518zm-28.673 2.729l8.142 3.65h.023c.138.058.265.08.414.08.3 0 .541-.091.749-.299.207-.207.31-.46.31-.76a.973.973 0 00-.195-.587 1.28 1.28 0 00-.495-.403l-6.863-3.052 6.851-3.04a1.06 1.06 0 00.495-.403.957.957 0 00.196-.598c0-.3-.092-.542-.31-.749-.3-.3-.703-.403-1.175-.23l-8.142 3.662a1.66 1.66 0 00-.633.518 1.27 1.27 0 00-.242.76v.161c0 .276.08.53.242.76.15.219.369.392.633.53zm17.861 15.603H12.966a1.081 1.081 0 100 2.165h20.797a1.082 1.082 0 100-2.165zM25.53 53.395H12.977c-.599 0-1.082.484-1.082 1.083s.483 1.082 1.082 1.082h12.551a1.081 1.081 0 100-2.165z"/></svg><svg viewBox="0 0 70 70" id="icon-whatsapp" xmlns="http://www.w3.org/2000/svg"><path d="M44.354 39.055c-.512-.255-3.006-1.475-3.47-1.643-.465-.172-.806-.255-1.146.255-.335.502-1.312 1.64-1.606 1.977-.298.332-.594.357-1.1.128-.51-.256-2.148-.792-4.088-2.527-1.51-1.353-2.525-3.011-2.824-3.522-.296-.51-.032-.791.221-1.046.232-.23.512-.587.768-.89.248-.308.33-.512.505-.844.17-.357.083-.638-.043-.891-.127-.256-1.143-2.757-1.568-3.754-.409-.993-.829-.867-1.144-.867-.292-.026-.63-.026-.971-.026-.34 0-.89.126-1.356.61-.465.511-1.778 1.736-1.778 4.212 0 2.475 1.82 4.874 2.074 5.232.253.331 3.581 5.435 8.677 7.63 1.215.51 2.16.817 2.9 1.07 1.214.387 2.322.332 3.198.206.976-.154 3.006-1.226 3.43-2.426.434-1.2.434-2.195.306-2.424-.126-.23-.46-.358-.97-.587l-.015.127zm-9.25 12.536h-.028a17.02 17.02 0 01-8.6-2.348l-.613-.364-6.38 1.659 1.71-6.202-.407-.638a16.79 16.79 0 01-2.579-8.949c0-9.264 7.58-16.818 16.915-16.818 4.516 0 8.754 1.76 11.946 4.95a16.653 16.653 0 014.949 11.894c-.007 9.262-7.588 16.818-16.903 16.818l-.01-.002zm14.392-31.137c-3.88-3.75-8.984-5.868-14.42-5.868-11.198 0-20.316 9.075-20.321 20.235 0 3.566.934 7.043 2.714 10.114L14.583 55.42l10.778-2.81a20.523 20.523 0 009.715 2.462h.01c11.204 0 20.325-9.08 20.33-20.24 0-5.404-2.11-10.49-5.946-14.31"/></svg></svg>