<?xml version="1.0" encoding="utf-8"?><svg viewBox="0 0 221 98" xmlns="http://www.w3.org/2000/svg" xmlns:xlink="http://www.w3.org/1999/xlink"><style>:root>svg{display:none}:root>svg:target{display:block}</style><svg viewBox="0 0 131 98" id="icon-01" xmlns="http://www.w3.org/2000/svg"><path d="M18.078 80.954l.535-.845-.535.845zM7.565 68.771l-.907.42.003.007.003.007.901-.434zm0-38.219l-.903-.43-.002.005.905.425zm10.513-12.281l.535.845-.535-.845zm30.457 0l-.534.845.535-.845zM58.95 30.552l-.907.42.003.007.003.007.901-.434zm0 38.22l-.903-.43-.002.005.905.424zM48.535 80.953l-.534-.845.535.845zm-5.403-14.639l-.83-.558-.007.01.837.548zm0-33.405l-.837.548.007.01.83-.558zm-19.65 0l-.83-.558-.007.01.837.548zm0 33.405l-.837.548.007.01.83-.558zm9.825 17.864c-5.526 0-10.414-1.363-14.695-4.07l-1.068 1.69c4.627 2.926 9.891 4.38 15.763 4.38v-2zm-14.695-4.07c-4.277-2.705-7.663-6.614-10.146-11.772l-1.802.868c2.626 5.454 6.25 9.666 10.88 12.594l1.069-1.69zM8.473 68.351c-2.414-5.21-3.64-11.447-3.64-18.739h-2c0 7.512 1.263 14.048 3.826 19.58l1.815-.841zm-3.64-18.739c0-7.292 1.226-13.493 3.639-18.635l-1.811-.85c-2.566 5.469-3.828 11.975-3.828 19.485h2zm3.636-18.63c2.484-5.223 5.87-9.163 10.145-11.866l-1.07-1.69c-4.633 2.93-8.256 7.177-10.88 12.697l1.805.858zm10.145-11.866c4.28-2.707 9.168-4.07 14.694-4.07v-2c-5.872 0-11.137 1.454-15.764 4.38l1.07 1.69zm14.694-4.07c5.525 0 10.413 1.363 14.694 4.07l1.069-1.69c-4.627-2.926-9.892-4.38-15.763-4.38v2zM48 19.116c4.272 2.701 7.623 6.638 10.042 11.857l1.814-.841c-2.56-5.524-6.151-9.775-10.787-12.706L48 19.116zm10.048 11.87c2.475 5.14 3.733 11.338 3.733 18.626h2c0-7.514-1.297-14.023-3.931-19.494l-1.802.868zm3.733 18.626c0 7.289-1.258 13.522-3.735 18.73l1.806.859c2.632-5.534 3.929-12.074 3.929-19.588h-2zm-3.737 18.735C55.627 73.499 52.276 77.406 48 80.109l1.069 1.69c4.633-2.93 8.225-7.145 10.785-12.603l-1.81-.85zM48 80.109c-4.281 2.707-9.169 4.07-14.694 4.07v2c5.871 0 11.136-1.454 15.763-4.38L48 80.109zm-14.694-7.39c4.54 0 8.125-1.98 10.661-5.856l-1.673-1.096c-2.18 3.33-5.145 4.952-8.988 4.952v2zm10.654-5.846c2.59-3.85 3.806-9.658 3.806-17.26h-2c0 7.462-1.208 12.788-3.465 16.144l1.66 1.116zm3.806-17.26c0-7.603-1.216-13.412-3.806-17.261l-1.659 1.116c2.258 3.356 3.465 8.682 3.465 16.144h2zm-3.799-17.25c-2.536-3.876-6.121-5.857-10.661-5.857v2c3.843 0 6.809 1.622 8.988 4.952l1.673-1.096zm-10.661-5.857c-4.48 0-8.057 1.984-10.655 5.846l1.66 1.116c2.249-3.343 5.221-4.962 8.995-4.962v-2zm-10.662 5.856c-2.518 3.847-3.7 9.651-3.7 17.25h2c0-7.465 1.175-12.796 3.373-16.154l-1.673-1.096zm-3.7 17.25c0 7.6 1.182 13.404 3.7 17.25l1.674-1.095c-2.199-3.358-3.374-8.688-3.374-16.154h-2zm3.707 17.261c2.598 3.862 6.175 5.846 10.655 5.846v-2c-3.774 0-6.746-1.619-8.996-4.962l-1.659 1.116zm73.815-51.648h1v-1h-1v1zm0 68.775v1h1v-1h-1zM80.55 84h-1v1h1v-1zm0-56.002h1v-1h-1v1zm-13.755 0h-1v1h1v-1zm0-12.773v-1h-1v1h1zm28.672 0V84h2V15.225h-2zm1 67.775H80.55v2h15.917v-2zM81.55 84V27.998h-2V84h2zm-1-57.002H66.795v2H80.55v-2zm-12.755 1V15.224h-2v12.772h2zm-1-11.773h29.672v-2H66.795v2zm43.879 65.81l.707-.707-.707.707zm0-13.657l.68.733.007-.006.007-.007-.694-.72zm13.559 0l-.695.72.007.007.007.006.681-.733zm0 13.657l-.708-.707.708.707zm-6.78 1.751c-2.431 0-4.433-.819-6.072-2.458l-1.414 1.414c2.029 2.029 4.546 3.044 7.486 3.044v-2zm-6.072-2.458c-1.634-1.634-2.458-3.667-2.458-6.17h-2c0 2.998 1.01 5.55 3.044 7.584l1.414-1.414zm-2.458-6.17c0-2.577.828-4.558 2.431-6.047l-1.36-1.466c-2.065 1.917-3.071 4.456-3.071 7.513h2zm2.445-6.06c1.637-1.578 3.643-2.373 6.085-2.373v-2c-2.929 0-5.442.975-7.473 2.933l1.388 1.44zm6.085-2.373c2.442 0 4.449.795 6.085 2.373l1.389-1.44c-2.032-1.958-4.545-2.933-7.474-2.933v2zm6.099 2.386c1.604 1.49 2.432 3.47 2.432 6.046h2c0-3.056-1.007-5.595-3.071-7.511l-1.361 1.465zm2.432 6.046c0 2.504-.824 4.537-2.459 6.17l1.415 1.415c2.033-2.034 3.044-4.586 3.044-7.585h-2zm-2.459 6.17c-1.639 1.64-3.641 2.459-6.072 2.459v2c2.941 0 5.458-1.015 7.487-3.044l-1.415-1.414z"/></svg><svg viewBox="0 0 145 72" id="icon-02" xmlns="http://www.w3.org/2000/svg"><path d="M15.078 66.954l.535-.845-.535.845zM4.565 54.771l-.907.42.003.007.003.007.901-.434zm0-38.219l-.903-.43-.002.005.905.425zM15.078 4.271l.535.845-.535-.845zm30.457 0l-.534.845.535-.845zM55.95 16.552l-.907.42.003.007.003.007.901-.434zm0 38.22l-.903-.43-.002.005.905.424zM45.535 66.953l-.534-.845.535.845zm-5.403-14.639l-.83-.558-.007.01.837.548zm0-33.405l-.837.548.007.01.83-.558zm-19.65 0l-.83-.558-.007.01.837.548zm0 33.405l-.837.548.007.01.83-.558zm9.825 17.864c-5.526 0-10.413-1.363-14.694-4.07l-1.07 1.69c4.628 2.926 9.892 4.38 15.764 4.38v-2zm-14.694-4.07c-4.278-2.705-7.664-6.614-10.147-11.772l-1.802.868c2.626 5.454 6.25 9.666 10.88 12.594l1.069-1.69zM5.473 54.351c-2.415-5.21-3.641-11.447-3.641-18.739h-2c0 7.512 1.263 14.048 3.826 19.58l1.815-.841zM1.832 35.612c0-7.292 1.226-13.493 3.639-18.635l-1.811-.85C1.094 21.596-.168 28.102-.168 35.612h2zm3.636-18.63c2.484-5.223 5.87-9.163 10.145-11.866l-1.07-1.69c-4.633 2.93-8.256 7.177-10.88 12.696l1.805.86zM15.613 5.116c4.28-2.707 9.168-4.07 14.694-4.07v-2C24.435-.954 19.17.5 14.544 3.426l1.069 1.69zm14.694-4.07c5.525 0 10.413 1.363 14.694 4.07l1.069-1.69C41.443.5 36.178-.954 30.307-.954v2zM45 5.116c4.272 2.701 7.623 6.638 10.042 11.857l1.814-.841c-2.56-5.524-6.151-9.775-10.787-12.706L45 5.116zm10.048 11.87c2.475 5.14 3.733 11.338 3.733 18.626h2c0-7.514-1.297-14.023-3.931-19.494l-1.802.868zm3.733 18.626c0 7.289-1.258 13.522-3.735 18.73l1.806.859c2.632-5.534 3.929-12.074 3.929-19.589h-2zm-3.737 18.734C52.627 59.5 49.276 63.407 45 66.11l1.069 1.69c4.633-2.93 8.225-7.145 10.785-12.603l-1.81-.85zM45 66.11c-4.281 2.707-9.169 4.07-14.694 4.07v2c5.871 0 11.136-1.454 15.763-4.38L45 66.11zm-14.694-7.39c4.54 0 8.125-1.98 10.662-5.856l-1.674-1.096c-2.18 3.33-5.145 4.952-8.988 4.952v2zm10.655-5.846c2.589-3.85 3.805-9.658 3.805-17.26h-2c0 7.462-1.208 12.788-3.465 16.144l1.66 1.116zm3.805-17.26c0-7.603-1.216-13.412-3.806-17.261l-1.659 1.116c2.258 3.356 3.465 8.682 3.465 16.144h2zm-3.799-17.25c-2.536-3.876-6.121-5.857-10.661-5.857v2c3.844 0 6.809 1.622 8.988 4.952l1.673-1.096zm-10.661-5.857c-4.48 0-8.057 1.984-10.655 5.846l1.66 1.116c2.249-3.343 5.221-4.962 8.995-4.962v-2zm-10.662 5.856c-2.518 3.847-3.7 9.652-3.7 17.25h2c0-7.466 1.175-12.796 3.373-16.154l-1.673-1.096zm-3.7 17.25c0 7.6 1.182 13.404 3.7 17.25l1.674-1.095c-2.199-3.358-3.374-8.689-3.374-16.155h-2zm3.707 17.261c2.598 3.862 6.175 5.846 10.655 5.846v-2c-3.774 0-6.746-1.619-8.995-4.962l-1.66 1.116zm98.672 4.158h1v-1h-1v1zm0 12.969v1h1v-1h-1zM66.35 70h-1v1h1v-1zm0-10.316l-.687-.727-.313.296v.43h1zM92.877 34.63l.687.727.004-.003-.69-.724zm5.699-6.878l.888.46.006-.012-.894-.447zM97.2 15.669l-.634.773.015.012.015.011.604-.796zm-16.31-.491l.418.908.01-.004.01-.005-.437-.9zm-6.09 5.108l-.542.841.801.516.554-.775-.814-.582zM63.205 12.82l-.83-.558-.569.846.857.552.542-.84zm11.102-9.334l.427.904.01-.005-.437-.9zm29.573-.885l-.409.913.01.004.009.004.39-.92zm8.941 7.074l-.826.563.006.01.008.01.812-.582zm.884 21.223l.902.432-.902-.433zm-9.137 11.2l-.68-.733-.006.006.686.727zM88.751 57.031l-.687-.727-1.829 1.727h2.516v-1zm28.573 0V70h2V57.031h-2zm1 11.969H66.35v2h51.974v-2zM67.35 70V59.684h-2V70h2zm-.313-9.59l26.527-25.053-1.373-1.454-26.528 25.054 1.374 1.454zm26.53-25.056c2.843-2.71 4.838-5.094 5.897-7.142l-1.776-.919c-.906 1.751-2.71 3.952-5.5 6.613l1.38 1.448zM99.47 28.2c1.041-2.082 1.58-4.167 1.58-6.244h-2c0 1.721-.445 3.501-1.368 5.35l1.788.894zm1.58-6.244c0-3.01-1.056-5.424-3.245-7.085l-1.209 1.593c1.61 1.222 2.454 2.999 2.454 5.492h2zm-3.215-7.061c-2.085-1.713-5.07-2.487-8.79-2.487v2c3.486 0 5.938.732 7.52 2.033l1.27-1.546zm-8.79-2.487c-3.146 0-6.016.617-8.591 1.87l.874 1.798c2.272-1.106 4.838-1.668 7.718-1.668v-2zm-8.572 1.86c-2.59 1.19-4.754 3.01-6.487 5.436l1.627 1.163c1.542-2.16 3.44-3.745 5.695-4.782l-.835-1.817zm-5.132 5.177l-11.594-7.467-1.083 1.681 11.594 7.467 1.083-1.681zm-11.305-6.069c2.576-3.833 6.132-6.83 10.7-8.987L73.88 2.58c-4.865 2.298-8.71 5.523-11.505 9.68l1.66 1.116zm10.71-8.992c4.559-2.216 9.809-3.338 15.773-3.338v-2c-6.218 0-11.775 1.17-16.648 3.54l.874 1.798zm15.773-3.338c5 0 9.309.833 12.953 2.467l.818-1.825C100.337-.084 95.738-.954 90.52-.954v2zm12.972 2.475c3.711 1.573 6.53 3.816 8.505 6.716l1.653-1.125c-2.218-3.257-5.359-5.73-9.377-7.432l-.781 1.841zm8.519 6.736c2.026 2.825 3.054 6.185 3.054 10.127h2c0-4.311-1.132-8.09-3.429-11.292l-1.625 1.165zm3.054 10.127c0 3.588-.754 6.944-2.259 10.08l1.803.865c1.639-3.414 2.456-7.066 2.456-10.945h-2zm-2.259 10.08c-1.493 3.11-4.433 6.742-8.916 10.9l1.36 1.466c4.557-4.226 7.708-8.06 9.359-11.5l-1.803-.866zm-8.922 10.906L88.064 56.304l1.373 1.454 15.819-14.934-1.373-1.454zM88.751 58.03h29.573v-2H88.751v2zm39.36 10.004l.707-.707-.707.707zm0-13.657l.68.733.007-.006.007-.007-.694-.72zm13.558 0l-.694.72.007.007.007.006.68-.733zm0 13.657l-.707-.707.707.707zm-6.779 1.751c-2.431 0-4.433-.819-6.072-2.458l-1.414 1.414c2.029 2.029 4.546 3.044 7.486 3.044v-2zm-6.072-2.458c-1.634-1.634-2.458-3.667-2.458-6.17h-2c0 2.998 1.01 5.55 3.044 7.584l1.414-1.414zm-2.458-6.17c0-2.577.828-4.558 2.431-6.047l-1.361-1.465c-2.064 1.916-3.07 4.455-3.07 7.511h2zm2.445-6.06c1.637-1.578 3.643-2.373 6.085-2.373v-2c-2.929 0-5.442.975-7.473 2.933l1.388 1.44zm6.085-2.373c2.442 0 4.448.795 6.085 2.373l1.388-1.44c-2.031-1.958-4.544-2.933-7.473-2.933v2zm6.099 2.386c1.603 1.49 2.431 3.47 2.431 6.047h2c0-3.057-1.006-5.596-3.07-7.513l-1.361 1.466zm2.431 6.047c0 2.503-.824 4.536-2.458 6.17l1.414 1.414c2.034-2.034 3.044-4.586 3.044-7.585h-2zm-2.458 6.17c-1.639 1.64-3.641 2.458-6.072 2.458v2c2.94 0 5.458-1.015 7.486-3.044l-1.414-1.414z"/></svg><svg viewBox="0 0 144 72" id="icon-03" xmlns="http://www.w3.org/2000/svg"><path d="M15.078 66.954l.535-.845-.535.845zM4.565 54.771l-.907.42.003.007.003.007.901-.434zm0-38.219l-.903-.43-.002.005.905.425zM15.078 4.271l.535.845-.535-.845zm30.457 0l-.534.845.535-.845zM55.95 16.552l-.907.42.003.007.003.007.901-.434zm0 38.22l-.903-.43-.002.005.905.424zM45.535 66.953l-.534-.845.535.845zm-5.403-14.639l-.83-.558-.007.01.837.548zm0-33.405l-.837.548.007.01.83-.558zm-19.65 0l-.83-.558-.007.01.837.548zm0 33.405l-.837.548.007.01.83-.558zm9.825 17.864c-5.526 0-10.413-1.363-14.694-4.07l-1.07 1.69c4.628 2.926 9.892 4.38 15.764 4.38v-2zm-14.694-4.07c-4.278-2.705-7.664-6.614-10.147-11.772l-1.802.868c2.626 5.454 6.25 9.666 10.88 12.594l1.069-1.69zM5.473 54.351c-2.415-5.21-3.641-11.447-3.641-18.739h-2c0 7.512 1.263 14.048 3.826 19.58l1.815-.841zM1.832 35.612c0-7.292 1.226-13.493 3.639-18.635l-1.811-.85C1.094 21.596-.168 28.102-.168 35.612h2zm3.636-18.63c2.484-5.223 5.87-9.163 10.145-11.866l-1.07-1.69c-4.633 2.93-8.256 7.177-10.88 12.696l1.805.86zM15.613 5.116c4.28-2.707 9.168-4.07 14.694-4.07v-2C24.435-.954 19.17.5 14.544 3.426l1.069 1.69zm14.694-4.07c5.525 0 10.413 1.363 14.694 4.07l1.069-1.69C41.443.5 36.178-.954 30.307-.954v2zM45 5.116c4.272 2.701 7.623 6.638 10.042 11.857l1.814-.841c-2.56-5.524-6.151-9.775-10.787-12.706L45 5.116zm10.048 11.87c2.475 5.14 3.733 11.338 3.733 18.626h2c0-7.514-1.297-14.023-3.931-19.494l-1.802.868zm3.733 18.626c0 7.289-1.258 13.522-3.735 18.73l1.806.859c2.632-5.534 3.929-12.074 3.929-19.589h-2zm-3.737 18.734C52.627 59.5 49.276 63.407 45 66.11l1.069 1.69c4.633-2.93 8.225-7.145 10.785-12.603l-1.81-.85zM45 66.11c-4.281 2.707-9.169 4.07-14.694 4.07v2c5.871 0 11.136-1.454 15.763-4.38L45 66.11zm-14.694-7.39c4.54 0 8.125-1.98 10.662-5.856l-1.674-1.096c-2.18 3.33-5.145 4.952-8.988 4.952v2zm10.655-5.846c2.589-3.85 3.805-9.658 3.805-17.26h-2c0 7.462-1.208 12.788-3.465 16.144l1.66 1.116zm3.805-17.26c0-7.603-1.216-13.412-3.806-17.261l-1.659 1.116c2.258 3.356 3.465 8.682 3.465 16.144h2zm-3.799-17.25c-2.536-3.876-6.121-5.857-10.661-5.857v2c3.844 0 6.809 1.622 8.988 4.952l1.673-1.096zm-10.661-5.857c-4.48 0-8.057 1.984-10.655 5.846l1.66 1.116c2.249-3.343 5.221-4.962 8.995-4.962v-2zm-10.662 5.856c-2.518 3.847-3.7 9.652-3.7 17.25h2c0-7.466 1.175-12.796 3.373-16.154l-1.673-1.096zm-3.7 17.25c0 7.6 1.182 13.404 3.7 17.25l1.674-1.095c-2.199-3.358-3.374-8.689-3.374-16.155h-2zm3.707 17.261c2.598 3.862 6.175 5.846 10.655 5.846v-2c-3.774 0-6.746-1.619-8.995-4.962l-1.66 1.116zm79.031-23.647l-.751-.66-1.19 1.357 1.78.29.161-.987zm13.854 6.78l-.741.672.006.006.735-.678zm1.67 24.07l.847.532.005-.007-.852-.524zm-9.629 8.057l-.425-.905-.005.003.43.902zm-30.064 1.18l-.271.962.008.002.008.002.255-.967zM62.626 63.81l-.892-.453-.388.764.695.5.585-.81zm6.19-12.183l.6-.8-.953-.714-.54 1.061.892.453zm9.038 4.618l-.31.95.01.004.011.003.29-.957zm20.043-.688l.55.836.008-.005.008-.006-.566-.825zM81.195 40.525h-1v1h1v-1zm0-10.513l-.75-.662-.25.284v.378h1zm14.148-16.014l.75.662 1.468-1.662h-2.218v1zm-29.279 0h-1v1h1v-1zm0-12.773v-1h-1v1h1zm48.143 0h1v-1h-1v1zm0 10.316l.751.66.249-.283v-.377h-1zM98.523 30.213c5.865.957 10.254 3.137 13.273 6.465l1.481-1.344c-3.399-3.747-8.247-6.086-14.433-7.095l-.322 1.974zm13.279 6.471c3.022 3.269 4.549 7.342 4.549 12.29h2c0-5.4-1.683-9.973-5.08-13.647l-1.469 1.357zm4.549 12.29c0 3.81-.997 7.33-2.996 10.579l1.704 1.048c2.192-3.564 3.292-7.446 3.292-11.627h-2zm-2.991 10.571c-1.975 3.147-5.02 5.717-9.207 7.683l.851 1.81c4.459-2.094 7.832-4.895 10.05-8.43l-1.694-1.063zm-9.212 7.686c-4.087 1.949-9.17 2.948-15.29 2.948v2c6.326 0 11.723-1.032 16.151-3.143l-.861-1.805zm-15.29 2.948c-4.76 0-9.456-.611-14.089-1.834l-.51 1.934a56.992 56.992 0 0014.6 1.9v-2zm-14.073-1.83c-4.56-1.284-8.411-3.073-11.575-5.35l-1.169 1.623c3.387 2.438 7.46 4.317 12.202 5.653l.542-1.925zm-11.268-4.086l6.19-12.183-1.783-.906-6.19 12.183 1.783.906zm4.698-11.836c2.716 2.037 5.828 3.624 9.329 4.769l.621-1.901c-3.312-1.083-6.225-2.574-8.75-4.468l-1.2 1.6zm9.35 4.775a37.523 37.523 0 0010.9 1.615v-2c-3.504 0-6.943-.51-10.322-1.53l-.578 1.915zm10.9 1.615c4.107 0 7.467-.772 9.982-2.424l-1.099-1.672c-2.07 1.361-4.998 2.096-8.883 2.096v2zm9.998-2.435c2.569-1.761 3.873-4.267 3.873-7.407h-2c0 2.492-.988 4.375-3.004 5.758l1.13 1.649zm3.873-7.407c0-3.115-1.211-5.56-3.669-7.174-2.384-1.565-5.834-2.276-10.202-2.276v2c4.213 0 7.199.697 9.105 1.948 1.832 1.203 2.766 2.983 2.766 5.502h2zm-13.87-9.45h-7.271v2h7.27v-2zm-6.271 1V30.012h-2v10.513h2zm-.25-9.85L96.091 14.66l-1.499-1.325L80.445 29.35l1.5 1.324zm13.398-17.678H66.064v2h29.279v-2zm-28.279 1V1.226h-2v12.773h2zm-1-11.772h48.143v-2H66.064v2zm47.143-1v10.316h2V1.225h-2zm.248 9.657L97.932 28.567l1.503 1.319L114.958 12.2l-1.503-1.32zm13.504 57.153l.708-.707-.708.707zm0-13.657l.681.733.007-.006.007-.007-.695-.72zm13.559 0l-.694.72.007.007.006.006.681-.733zm0 13.657l-.707-.707.707.707zm-6.779 1.751c-2.431 0-4.433-.819-6.072-2.458l-1.415 1.414c2.029 2.029 4.546 3.044 7.487 3.044v-2zm-6.072-2.458c-1.635-1.634-2.459-3.667-2.459-6.17h-2c0 2.998 1.011 5.55 3.044 7.584l1.415-1.414zm-2.459-6.17c0-2.577.828-4.558 2.432-6.047l-1.361-1.465c-2.064 1.916-3.071 4.455-3.071 7.511h2zm2.446-6.06c1.636-1.578 3.643-2.373 6.085-2.373v-2c-2.929 0-5.442.975-7.474 2.933l1.389 1.44zm6.085-2.373c2.442 0 4.448.795 6.085 2.373l1.388-1.44c-2.031-1.958-4.544-2.933-7.473-2.933v2zm6.098 2.386c1.604 1.49 2.432 3.47 2.432 6.047h2c0-3.057-1.006-5.596-3.071-7.513l-1.361 1.466zm2.432 6.047c0 2.503-.824 4.536-2.458 6.17l1.414 1.414c2.034-2.034 3.044-4.586 3.044-7.585h-2zm-2.458 6.17c-1.639 1.64-3.642 2.458-6.072 2.458v2c2.94 0 5.457-1.015 7.486-3.044l-1.414-1.414z"/></svg><svg viewBox="0 0 76 76" id="icon-apps" xmlns="http://www.w3.org/2000/svg"><path d="M38.001 28.387c-5.225 0-9.5 4.275-9.5 9.5s4.275 9.5 9.5 9.5 9.5-4.275 9.5-9.5-4.275-9.5-9.5-9.5zm0 16.626c-3.919 0-7.125-3.207-7.125-7.126 0-3.918 3.206-7.125 7.125-7.125s7.125 3.207 7.125 7.125c0 3.92-3.206 7.126-7.125 7.126z"/><path d="M64.363 39.074h3.444c.475 1.781 2.137 2.969 4.037 2.969 2.375 0 4.156-1.9 4.156-4.156 0-2.257-1.9-4.156-4.156-4.156-1.9 0-3.444 1.306-4.037 2.968h-3.444V17.343h3.444c.475 1.782 2.137 2.969 4.037 2.969 2.375 0 4.156-1.9 4.156-4.156S74.1 12 71.844 12c-1.9 0-3.444 1.306-4.037 2.969h-4.632c-.712 0-1.187.475-1.187 1.187V36.7h-4.631v-1.306c0-.712-.475-1.187-1.188-1.187h-2.612c-.357-1.663-1.07-3.207-1.9-4.75l1.781-1.781a1.148 1.148 0 000-1.663l-3.562-3.562a1.148 1.148 0 00-1.663 0l-1.78 1.781c-1.426-.95-3.089-1.544-4.75-2.019V19.6c0-.712-.476-1.187-1.188-1.187h-5.106c-.713 0-1.188.475-1.188 1.187v2.613c-1.662.357-3.206 1.069-4.75 1.9l-1.78-1.782a1.148 1.148 0 00-1.663 0l-3.563 3.563a1.148 1.148 0 000 1.662l1.782 1.782c-.95 1.425-1.544 3.087-1.9 4.75h-2.613c-.712 0-1.187.474-1.187 1.187l-.002 1.425h-4.512V16.156c0-.712-.476-1.187-1.188-1.187H8.194C7.719 13.187 6.056 12 4.157 12 1.782 12 0 13.9 0 16.156s1.9 4.156 4.156 4.156c1.9 0 3.443-1.306 4.037-2.969h3.444V36.7H8.194c-.475-1.78-2.138-2.968-4.037-2.968C1.9 33.73 0 35.51 0 37.887c0 2.374 1.9 4.156 4.156 4.156 1.9 0 3.444-1.306 4.037-2.969h3.444V58.43H8.194c-.475-1.781-2.138-2.969-4.038-2.969-2.374 0-4.156 1.9-4.156 4.156 0 2.375 1.9 4.156 4.156 4.156 1.9 0 3.444-1.306 4.038-2.968h4.631c.712 0 1.187-.475 1.187-1.188V39.073h4.513v1.306c0 .713.475 1.188 1.187 1.188h2.613c.357 1.662 1.069 3.206 1.9 4.75l-1.781 1.78c-.238.238-.357.476-.357.832s.119.593.357.83l3.562 3.563a1.148 1.148 0 001.662 0l1.782-1.781c1.425.95 3.087 1.544 4.75 1.9v2.612c0 .713.474 1.188 1.187 1.188h5.106c.712 0 1.188-.475 1.188-1.188v-2.612c1.662-.357 3.206-1.07 4.75-1.9l1.78 1.781a1.148 1.148 0 001.663 0l3.562-3.562a1.148 1.148 0 000-1.663l-1.78-1.781c.95-1.425 1.543-3.088 1.899-4.75h2.613c.712 0 1.187-.475 1.187-1.187l.002-1.306h4.63v20.544c0 .713.476 1.188 1.188 1.188h4.631c.475 1.78 2.138 2.968 4.038 2.968 2.375 0 4.156-1.9 4.156-4.156 0-2.375-1.9-4.156-4.156-4.156-1.9 0-3.444 1.306-4.038 2.969h-3.443V39.074zm7.481-2.969c1.069 0 1.781.831 1.781 1.782 0 1.069-.83 1.78-1.781 1.78-1.069 0-1.781-.83-1.781-1.78-.119-1.07.713-1.782 1.781-1.782zm0-21.85c1.069 0 1.781.831 1.781 1.782 0 1.069-.83 1.781-1.781 1.781-1.069 0-1.781-.831-1.781-1.781-.119-.95.713-1.781 1.781-1.781zM4.157 17.936c-1.069 0-1.781-.83-1.781-1.78 0-1.07.83-1.782 1.781-1.782.95 0 1.781.831 1.781 1.781.119.95-.713 1.781-1.78 1.781zm0 43.581c-1.069 0-1.781-.83-1.781-1.78 0-1.07.83-1.782 1.781-1.782.95 0 1.781.83 1.781 1.781.119.95-.713 1.781-1.78 1.781zm0-21.85c-.95 0-1.782-.712-1.782-1.78 0-1.07.831-1.782 1.782-1.782.95 0 1.78.831 1.78 1.781.12 1.069-.711 1.781-1.78 1.781zm50.944-.475h-2.375c-.594 0-1.069.475-1.187.95-.357 2.02-1.188 3.92-2.257 5.582-.356.475-.237 1.069.12 1.544l1.662 1.662-2.02 2.019-1.662-1.663c-.356-.356-1.069-.475-1.544-.119-1.662 1.188-3.562 2.02-5.581 2.257-.594.118-.95.593-.95 1.187v2.375h-2.732v-2.375c0-.593-.475-1.069-.95-1.187-2.019-.357-3.919-1.07-5.581-2.257-.475-.356-1.069-.237-1.544.12l-1.662 1.662-1.9-2.019 1.663-1.662c.356-.357.475-1.07.119-1.544-1.188-1.663-2.02-3.562-2.257-5.581-.118-.594-.593-.95-1.187-.95H20.9V36.46h2.375c.594 0 1.069-.475 1.187-.95.357-2.02 1.07-3.919 2.256-5.582.357-.475.238-1.068-.118-1.543l-1.663-1.662 1.9-1.9 1.663 1.662c.356.357 1.068.476 1.543.12 1.663-1.188 3.563-2.02 5.582-2.257.593-.119.95-.594.95-1.188v-2.375h2.731v2.375c0 .594.475 1.07.95 1.188 2.02.356 3.92 1.069 5.582 2.256.475.357 1.069.237 1.544-.119l1.662-1.662 1.9 1.9-1.663 1.662c-.356.357-.475 1.069-.118 1.544 1.187 1.663 2.019 3.562 2.256 5.581.119.594.594.95 1.188.95h2.374v2.731h.12zm16.743 18.644c1.069 0 1.781.83 1.781 1.781 0 1.069-.83 1.781-1.781 1.781-1.069 0-1.781-.83-1.781-1.78-.119-.951.713-1.782 1.781-1.782z"/></svg><svg viewBox="0 0 17 16" id="icon-arrow" xmlns="http://www.w3.org/2000/svg"><path d="M.731 7.065v2h12l-5.5 5.5 1.42 1.42 7.92-7.92-7.92-7.92-1.42 1.42 5.5 5.5h-12z"/></svg><svg viewBox="0 0 22 18" id="icon-burger" xmlns="http://www.w3.org/2000/svg"><path d="M0 0h22v2H0zm8 8h14v2H8zm-8 8h22v2H0z"/></svg><svg viewBox="0 0 80 80" id="icon-clock" xmlns="http://www.w3.org/2000/svg"><path d="M69.12 19.52c.8.8 1.76.8 2.4.16.64-.64.64-1.6 0-2.24l-2.56-2.56c-.64-.64-1.6-.64-2.24 0-.64.64-.64 1.6 0 2.24l.16.16-2.56 2.56c-5.12-5.12-11.84-8.64-19.52-9.6V4.8h2.08c.96 0 1.6-.64 1.6-1.6 0-.96-.64-1.6-1.6-1.6h-13.6c-.96 0-1.6.64-1.6 1.6 0 .96.64 1.6 1.6 1.6h1.92v5.44c-7.52 1.12-14.4 4.64-19.52 9.76l-2.72-2.72.16-.16c.64-.64.64-1.6 0-2.24-.64-.64-1.6-.64-2.24 0l-2.56 2.56c-.64.64-.64 1.6 0 2.24.64.64 1.6.64 2.24 0l.16-.16 2.88 2.88C8.64 28.32 5.76 36 5.76 44.16 5.76 63.04 21.12 78.4 40 78.4c18.88 0 34.24-15.36 34.24-34.24 0-8.32-3.04-15.84-7.84-21.92l2.72-2.72zM38.4 4.8h3.2v5.12h-3.2V4.8zm32.64 39.36C71.04 61.28 57.12 75.2 40 75.2c-17.12 0-31.04-13.92-31.04-31.04 0-17.12 13.92-31.04 31.04-31.04 17.12 0 31.04 13.92 31.04 31.04z"/><path d="M40 20.8c-12.8 0-23.36 10.4-23.36 23.36 0 12.8 10.4 23.36 23.36 23.36 12.96 0 23.36-10.4 23.36-23.36C63.36 31.36 52.8 20.8 40 20.8zm14.72 24.96H60c-.8 9.76-8.64 17.6-18.4 18.4v-5.28c0-.96-.64-1.6-1.6-1.6-.96 0-1.6.64-1.6 1.6v5.28c-9.76-.8-17.6-8.64-18.4-18.4h5.28c.96 0 1.6-.64 1.6-1.6 0-.96-.64-1.6-1.6-1.6H20c.8-9.76 8.64-17.6 18.4-18.4v5.28c0 .96.64 1.6 1.6 1.6.96 0 1.6-.64 1.6-1.6v-5.28c9.76.8 17.6 8.64 18.4 18.4h-5.28c-.96 0-1.6.64-1.6 1.6 0 .96.8 1.6 1.6 1.6z"/><path d="M41.6 43.52v-5.6c0-.96-.64-1.6-1.6-1.6-.96 0-1.6.64-1.6 1.6v6.4c0 .48.16.8.48 1.12L44 50.56c.32.32.8.48 1.12.48.32 0 .8-.16 1.12-.48.64-.64.64-1.6 0-2.24l-4.64-4.8z"/></svg><svg viewBox="0 0 24 24" id="icon-close" xmlns="http://www.w3.org/2000/svg"><path d="M18.53 6.53a.75.75 0 00-1.06-1.06L12 10.94 6.53 5.47a.75.75 0 00-1.06 1.06L10.94 12l-5.47 5.47a.75.75 0 101.06 1.06L12 13.06l5.47 5.47a.75.75 0 101.06-1.06L13.06 12l5.47-5.47z"/></svg><svg viewBox="0 0 77 76" id="icon-corp-site" xmlns="http://www.w3.org/2000/svg"><path d="M72.77 7.125h-1.188V9.5h1.188c.655 0 1.186.531 1.187 1.187v61.75c0 .656-.532 1.187-1.188 1.188H11.02a1.188 1.188 0 01-1.187-1.188v-1.188H7.457v1.188A3.569 3.569 0 0011.02 76h61.75a3.569 3.569 0 003.562-3.563v-61.75a3.568 3.568 0 00-3.563-3.562z"/><path d="M69.207 65.312V3.562A3.568 3.568 0 0065.644 0H3.894A3.569 3.569 0 00.333 3.562v61.75a3.569 3.569 0 003.563 3.563h61.75a3.569 3.569 0 003.562-3.563zm-2.375-61.75V9.5h-47.5V2.375h46.312c.656 0 1.188.531 1.188 1.187zM3.895 2.375h13.062V9.5H2.707V3.562c0-.656.532-1.187 1.188-1.187zM2.707 65.312V11.874h64.125v53.438c0 .656-.532 1.187-1.188 1.188H3.894a1.188 1.188 0 01-1.187-1.188z"/><path d="M8.645 5.937a1.188 1.188 0 11-2.376 0 1.188 1.188 0 012.376 0zm4.75 0a1.188 1.188 0 11-2.376 0 1.188 1.188 0 012.376 0zm10.687 1.188h38a1.188 1.188 0 000-2.375h-38a1.188 1.188 0 000 2.375zm36.812 7.125H8.644a2.376 2.376 0 00-2.374 2.375v16.624a2.376 2.376 0 002.375 2.375h52.25a2.376 2.376 0 002.374-2.375V16.624a2.376 2.376 0 00-2.375-2.374zm-52.25 19V16.624h52.25l.002 16.624H8.644zm.001 26.124h15.437A2.375 2.375 0 0026.457 57V40.374A2.376 2.376 0 0024.082 38H8.644a2.375 2.375 0 00-2.374 2.375V57a2.375 2.375 0 002.375 2.375zm0-19h15.437L24.084 57H8.644V40.374zM62.082 38H30.019a1.188 1.188 0 000 2.374h32.063a1.188 1.188 0 000-2.375zm0 4.75H30.019a1.188 1.188 0 000 2.374h32.063a1.188 1.188 0 000-2.375zm0 4.75H30.019a1.188 1.188 0 000 2.374h32.063a1.188 1.188 0 000-2.375zm0 4.75H30.019a1.188 1.188 0 000 2.374h32.063a1.188 1.188 0 000-2.375zm0 4.75H30.019a1.188 1.188 0 000 2.374h32.063a1.188 1.188 0 000-2.375zm0 4.75H7.457a1.188 1.188 0 000 2.374h54.625a1.188 1.188 0 000-2.374z"/></svg><svg viewBox="0 0 60 60" id="icon-desktop-info" xmlns="http://www.w3.org/2000/svg"><path d="M57.188 12.311v2.011a1.87 1.87 0 01.937 1.616V52.5a1.875 1.875 0 01-1.875 1.875H3.75A1.875 1.875 0 011.875 52.5V15.937a1.87 1.87 0 01.937-1.615v-2.011A3.753 3.753 0 000 15.938V52.5a3.756 3.756 0 003.75 3.75h18.28v1.875h-4.687a.938.938 0 000 1.875h25.313a.937.937 0 100-1.875h-4.688V56.25H56.25A3.755 3.755 0 0060 52.5V15.937a3.754 3.754 0 00-2.812-3.626zM36.093 58.126H23.906V56.25h12.187v1.875zM50.625 3.75H48.75a.938.938 0 000 1.875h1.875a.938.938 0 000-1.875zM45 3.75h-1.875a.938.938 0 000 1.875H45a.938.938 0 000-1.875z"/><path d="M30 24.375v-11.25a1.876 1.876 0 00-1.875-1.875H10.312a1.876 1.876 0 00-1.874 1.875v11.25a1.875 1.875 0 001.874 1.875h17.813A1.875 1.875 0 0030 24.375zm-19.688-11.25h17.813v11.25H10.312v-11.25zm24.376.938h15.937a.938.938 0 000-1.876H34.687a.938.938 0 000 1.876zm0 3.75h15.937a.938.938 0 000-1.875H34.687a.938.938 0 000 1.874zm0 3.75h15.937a.938.938 0 000-1.875H34.687a.938.938 0 000 1.875zm16.875 2.812a.938.938 0 00-.938-.938H34.687a.938.938 0 000 1.875h15.938c.518 0 .938-.42.938-.937z"/><path d="M5.625 46.875h16.171a3.739 3.739 0 01-.68-1.875H6.563V9.375h46.876V45H38.883a3.739 3.739 0 01-.679 1.875h16.171c.518 0 .938-.42.938-1.406V2.344C55.313 1.26 54.05 0 52.5 0h-45C5.949 0 4.687 1.261 4.687 2.344v43.125c0 .986.42 1.406.938 1.406zm.937-44.062a.94.94 0 01.938-.938h45a.94.94 0 01.938.938V7.5H6.562V2.813z"/><path d="M28.586 51.857a1.876 1.876 0 002.828 0l5.128-5.887a1.875 1.875 0 00-1.383-3.139H33.28v-9.08a1.876 1.876 0 00-1.875-1.875h-2.812a1.875 1.875 0 00-1.875 1.875v9.08h-1.875a1.875 1.875 0 00-1.414 3.107l5.156 5.92zm.008-7.15V33.75h2.812v10.955h3.75L30 50.626l-5.156-5.92h3.75z"/></svg><svg viewBox="0 0 45 44" id="icon-html" xmlns="http://www.w3.org/2000/svg"><path d="M43.512 22c0 11.874-9.626 21.5-21.5 21.5S.512 33.874.512 22 10.138.5 22.012.5s21.5 9.626 21.5 21.5z"/><path d="M14.604 30.007L13 12h17.637l-1.604 17.997L21.804 32"/><path d="M21.82 30.468v-16.99h7.21L27.654 28.84M16.277 15.68h5.542v2.208H18.7l.203 2.26h2.917v2.203h-4.94l-.603-6.67zm.7 7.779h2.217l.156 1.765 2.47.66v2.305l-4.532-1.264"/><path d="M27.34 15.68h-5.53v2.208h5.328l.204-2.207zm-.403 4.468H21.81v2.207h2.722l-.258 2.869-2.464.66v2.296l4.52-1.255"/></svg><svg viewBox="0 0 80 81" id="icon-lamp" xmlns="http://www.w3.org/2000/svg"><path d="M56.16 43.13c7.2-12.391-1.92-27.841-16-27.841S16.96 30.578 24.32 43.29c0 0 4.16 6.116 6.24 10.14.48 1.126.8 2.253.8 3.379v10.3c0 1.931 1.28 3.701 2.88 4.345v2.575c0 2.736 2.08 4.828 4.8 4.828h2.24c2.72 0 4.8-2.092 4.8-4.828v-2.414c1.76-.644 2.88-2.414 2.88-4.345v-10.3c0-1.127.32-2.253.8-3.219 2.08-4.345 6.24-10.46 6.4-10.621zm-13.28 30.9c0 .966-.64 1.61-1.6 1.61h-2.24c-.96 0-1.6-.644-1.6-1.61v-2.092h5.44v2.092zm3.04-6.92c0 .805-.64 1.61-1.6 1.61H36c-.8 0-1.6-.644-1.6-1.61v-1.931h5.76c.96 0 1.6-.644 1.6-1.61 0-.965-.64-1.61-1.6-1.61H34.4v-3.54h11.36v8.69h.16zm.96-14.967a9.75 9.75 0 00-.96 3.058H34.24c-.16-1.127-.48-2.253-.96-3.219-2.08-4.184-6.24-10.3-6.4-10.46-5.92-10.14 1.44-23.014 13.28-23.014 11.68 0 19.04 12.874 13.28 22.852-.16.322-4.48 6.438-6.56 10.783zM40.16 9.978c.96 0 1.6-.644 1.6-1.61v-5.15c0-.965-.64-1.609-1.6-1.609-.96 0-1.6.644-1.6 1.61v5.15c0 .965.8 1.609 1.6 1.609zm20.32 7.725L64 14c.64-.643.64-1.61 0-2.253-.64-.644-1.6-.644-2.24 0l-3.68 3.702c-.64.643-.64 1.609 0 2.253.64.643 1.76.643 2.4 0zm6.56 16.577c-.96 0-1.6.643-1.6 1.608 0 .966.64 1.61 1.6 1.61h5.12c.96 0 1.6-.644 1.6-1.61 0-.965-.64-1.609-1.6-1.609h-5.12zm-54.08-.484H7.84c-.96 0-1.6.644-1.6 1.61 0 .965.64 1.61 1.6 1.61h5.12c.96 0 1.6-.645 1.6-1.61 0-.805-.8-1.61-1.6-1.61zm9.12-18.668l-3.68-3.702c-.64-.643-1.6-.643-2.24 0-.64.644-.64 1.61 0 2.254l3.68 3.701c.64.644 1.6.644 2.24 0 .64-.644.64-1.61 0-2.253z"/></svg><svg viewBox="0 0 76 77" id="icon-landing" xmlns="http://www.w3.org/2000/svg"><path d="M72.439 15.594v2.548a2.367 2.367 0 011.187 2.046V66.5a2.376 2.376 0 01-2.375 2.375H4.75A2.376 2.376 0 012.375 66.5V20.188a2.37 2.37 0 011.188-2.046v-2.548A4.754 4.754 0 000 20.188V66.5a4.757 4.757 0 004.75 4.75h23.156v2.375h-5.938a1.188 1.188 0 000 2.375h32.064a1.188 1.188 0 000-2.375h-5.938V71.25H71.25A4.758 4.758 0 0076 66.5V20.188a4.755 4.755 0 00-3.563-4.594h.002zm-26.72 58.033H30.28v-2.375h15.44v2.375zM64.126 4.75h-2.375a1.188 1.188 0 000 2.375h2.375a1.188 1.188 0 000-2.375zm-7.125 0h-2.375a1.188 1.188 0 000 2.375h2.375a1.188 1.188 0 000-2.375z"/><path d="M38 30.876v-14.25a2.375 2.375 0 00-2.375-2.376H13.062a2.376 2.376 0 00-2.374 2.375v14.25a2.376 2.376 0 002.374 2.376h22.563a2.375 2.375 0 002.376-2.375zm-24.938-14.25h22.563v14.25H13.062v-14.25zm30.876 1.187h20.188a1.188 1.188 0 000-2.375H43.938a1.188 1.188 0 000 2.375zm0 4.75h20.188a1.188 1.188 0 000-2.375H43.938a1.188 1.188 0 000 2.375zm0 4.75h20.188a1.188 1.188 0 000-2.375H43.938a1.188 1.188 0 000 2.375zm21.376 3.562c0-.655-.532-1.187-1.188-1.187H43.938a1.188 1.188 0 000 2.375h20.188c.656 0 1.188-.532 1.188-1.188z"/><path d="M7.125 59.376h20.484a4.736 4.736 0 01-.86-2.375H8.312V11.875h59.376v45.126H49.253a4.738 4.738 0 01-.86 2.375h20.483c.656 0 1.188-.532 1.188-1.781V2.969C70.064 1.598 68.466 0 66.5 0h-57C7.534 0 5.937 1.598 5.937 2.969v54.626c0 1.25.531 1.781 1.187 1.781zM8.312 3.563A1.19 1.19 0 019.5 2.375h57.001a1.19 1.19 0 011.188 1.188V9.5H8.312V3.563z"/><path d="M36.21 65.687a2.377 2.377 0 003.58 0l6.497-7.457a2.376 2.376 0 00-1.752-3.976h-2.379V42.752a2.376 2.376 0 00-2.375-2.376H36.22a2.376 2.376 0 00-2.375 2.376v11.502H31.47a2.374 2.374 0 00-1.791 3.935l6.531 7.498zm.009-9.058V42.752h3.562v13.877h4.75l-6.53 7.498-6.532-7.498h4.75z"/></svg><svg viewBox="0 0 221 47" id="icon-logo" xmlns="http://www.w3.org/2000/svg"><path d="M57.893 11.101C53.515 4.814 46.685 1.057 38.147.165 24.482-1.264 8.263 6.514 8.263 26.624l3.776.038c0-19.416 15.83-23.715 25.439-22.647C63.52 6.91 60.283 37.125 53.974 40.887c-10.107 6.026-12.687-5.605-12.687-5.605h-3.7s-1.407 7.823-8.549 6.63c-4.673-.779-6.008-5.63-6.37-7.34 10.41-5.418 9.993-17.446 9.993-17.446l-9.034-2.68s-5.9 9.249-5.521 17.929c-9.06 2.581-15.31-3.63-15.334-3.654L0 31.228c.11.114 7.605 8.286 18.87 4.783.431 1.682 2.463 8.548 9.486 9.72 6.092 1.017 9.637-2.447 10.817-4.243 1.584 2.565 4.618 4.735 9.05 4.932.124.006.249.002.375.01 6.005.267 12.933-4.855 14.043-16.034.687-6.939-1.043-13.971-4.748-19.295zM25.545 18.97l3.034.88c-.204 1.373-.797 7.033-6.374 10.54.253-4.988 2.2-9.195 3.34-11.42z"/><path d="M17.91 15.502l-3.205 3.068 2.46 2.442 3.204-3.07-2.46-2.44zm70.908 5.35l-2.946 2.886 2.261 2.296 2.946-2.886-2.261-2.296zM70.457 22.54h4.21v13.522c0 3.751 3.416 6.332 7.66 6.332h2.035v4.198H82.05c-6.418 0-11.595-4.61-11.595-10.324V22.539h.002zm20.12 6.847v17.206h-4.21V29.387h4.21zm2.873-3.475h4.21v5.541h2.486v4.13h-2.485v3.543c0 1.824 1.517 3.338 3.346 3.338h1.036v4.13h-1.036c-4.175 0-7.558-3.442-7.558-7.572v-13.11h.002zm10.485 0h4.21v5.541h2.485v4.13h-2.485v3.543c0 1.824 1.518 3.338 3.346 3.338h1.036v4.13h-1.036c-4.175 0-7.557-3.442-7.557-7.572v-13.11h.001zm10.34 20.68V22.504h4.244v24.088h-4.244zm16.214-18.135a9.13 9.13 0 012.001.206l.345.068c.105.034.241.069.346.104 3.83 1.101 6.624 4.577 6.624 8.706 0 .24-.034.483-.034.723a8.955 8.955 0 01-.414 1.962c-1.553-.757-3.278-1.135-5.107-1.135-1.828 0-3.555.378-5.175 1.1v-4.025a18.773 18.773 0 015.141-.723c.311 0 .587.034.898.034-.657-1.479-2.313-2.89-4.624-2.89-2.794 0-5.072 2.236-5.072 4.954 0 2.753 2.346 4.921 5.072 4.921 1.416 0 2.622-.482 3.624-1.48.724.791 1.967 2.135 2.898 3.132-1.622 1.513-3.898 2.478-6.522 2.478-5.245 0-9.282-4.13-9.282-9.05-.002-5.06 4.14-9.085 9.281-9.085zm12.15-6.434h4.163v14.454c0 3.2 2.627 5.987 6.074 5.987 3.379 0 6.075-2.65 6.075-5.987V22.023h4.163v14.454a6.01 6.01 0 006.04 5.987c3.379 0 6.075-2.65 6.075-5.987V22.023h4.163v14.454c0 5.677-4.64 10.117-10.238 10.117-3.31 0-6.245-1.514-8.122-3.992-1.91 2.479-4.845 3.992-8.156 3.992-5.664 0-10.237-4.508-10.237-10.117V22.023zm47.958 6.434a9.13 9.13 0 012.001.206l.346.068c.104.034.241.069.345.104 3.83 1.101 6.625 4.577 6.625 8.706 0 .24-.035.483-.035.723a8.954 8.954 0 01-.413 1.962c-1.554-.757-3.278-1.135-5.107-1.135-1.829 0-3.555.378-5.175 1.1v-4.025a18.768 18.768 0 015.141-.723c.311 0 .586.034.897.034-.656-1.479-2.312-2.89-4.623-2.89-2.795 0-5.073 2.236-5.073 4.954 0 2.753 2.347 4.921 5.073 4.921 1.415 0 2.622-.482 3.623-1.48.725.791 1.967 2.135 2.899 3.132-1.622 1.513-3.899 2.478-6.522 2.478-5.246 0-9.283-4.13-9.283-9.05-.001-5.06 4.14-9.085 9.281-9.085zm16.014-6.365v15.416c0 3.165 2.174 5.333 5.073 5.333 2.933 0 5.072-2.684 5.072-5.333 0-2.614-2.035-5.333-5.072-5.333-.725 0-1.415.138-2.036.378a261.302 261.302 0 01-1.415-3.475c1.07-.412 2.208-.619 3.451-.619 5.348 0 9.316 4.164 9.316 9.05 0 5.093-4.244 9.085-9.316 9.085-5.141 0-9.283-4.026-9.283-9.084V22.094h4.21v-.002z"/></svg><svg viewBox="0 0 40 40" id="icon-mail" xmlns="http://www.w3.org/2000/svg"><path d="M33.333 13.335L20 21.668 6.666 13.335V10L20 18.335 33.333 10m0-3.333H6.666A3.322 3.322 0 003.333 10v20a3.333 3.333 0 003.333 3.334h26.667A3.333 3.333 0 0036.666 30V10c0-1.85-1.5-3.333-3.333-3.333z"/></svg><svg viewBox="0 0 80 80" id="icon-man" xmlns="http://www.w3.org/2000/svg"><path d="M29.6 1.6c-8.32 0-15.2 6.72-15.2 15.04s6.72 18.24 15.2 18.24 15.2-9.92 15.2-18.24C44.96 8.32 38.08 1.6 29.6 1.6zm0 30.08c-6.4 0-12-8.32-12-15.04 0-6.56 5.44-11.84 12-11.84s12 5.28 12 11.84c.16 6.72-5.44 15.04-12 15.04zM1.6 76.8c0 .96.64 1.6 1.6 1.6h52.96c.96 0 1.6-.64 1.6-1.6v-3.52c.64 0 1.28.16 1.92.16 10.4 0 18.72-8.48 18.72-18.72C78.4 44.48 69.92 36 59.68 36c-3.68 0-7.2 1.12-10.08 3.04-1.92-.8-3.84-1.28-5.92-1.28h-28C8 37.76 1.6 44 1.6 51.68V76.8zm58.08-37.76c8.64 0 15.52 7.04 15.52 15.52s-7.04 15.52-15.52 15.52c-8.64 0-15.52-7.04-15.52-15.52s6.88-15.52 15.52-15.52zM37.6 40.8c-.32.32-2.24 5.12-7.84 5.12s-7.52-4.8-7.84-5.12H37.6zm-7.2 8.32l4.48 13.92-5.12 6.24-5.12-6.24 4.48-13.92h1.28zM4.8 51.36c0-5.92 4.8-10.72 10.88-10.72h2.56c0 .8.32.96 1.6 3.04 1.44 2.24 3.52 3.84 5.92 4.64l-4.64 14.4c-.16.48 0 1.12.32 1.44l6.88 8.48c.32.32.8.64 1.28.64s.96-.16 1.28-.64l6.88-8.48c.32-.48.48-.96.32-1.44l-4.64-14.4c4.96-1.76 6.4-5.76 7.36-6.88.16-.32.16-.48.16-.8 1.92 0 3.36-.16 5.6.48a18.597 18.597 0 00-5.76 13.44c0 8.48 5.76 15.68 13.6 18.08v2.56H4.8V51.36z"/><path d="M48.16 56l6.72 6.72c.32.32.8.48 1.12.48.32 0 .8-.16 1.12-.48L71.2 48.64c.64-.64.64-1.6 0-2.24-.64-.64-1.6-.64-2.24 0L56 59.36l-5.6-5.6c-.64-.64-1.6-.64-2.24 0-.64.64-.64 1.6 0 2.24z"/></svg><svg viewBox="0 0 80 80" id="icon-money" xmlns="http://www.w3.org/2000/svg"><path d="M41.6 50.4c3.52-1.12 4.96-4.8 3.52-8a5.804 5.804 0 00-5.28-3.36c-3.52-.8-2.4-5.12.32-5.12h.32c.64 0 1.28.32 1.76.96.64.64 1.6.64 2.24.16.64-.64.64-1.6.16-2.24-.8-.96-1.76-1.44-2.88-1.76-.16-.64.64-3.68-1.6-3.68-.96 0-1.6.64-1.6 1.6v2.24c-.8.32-1.44.64-2.08 1.28-2.08 1.92-2.88 5.44-.32 8.16 2.56 2.88 5.12.8 6.24 3.36.8 1.76-.16 3.68-2.4 3.68-.8 0-1.44-.32-1.92-.8-.64-.64-1.6-.64-2.24-.16-1.6 1.44.64 3.36 2.72 4 .16.64-.64 3.68 1.6 3.68 2.08-.16 1.28-3.2 1.44-4z"/><path d="M5.6 40.8c0-.96-.64-1.6-1.6-1.6-.96 0-1.6.64-1.6 1.6 0 20.64 16.8 37.6 37.6 37.6s37.6-16.96 37.6-37.6S60.8 3.2 40 3.2c-9.76 0-19.04 3.68-26.08 10.4V3.2c0-.8-.8-1.6-1.6-1.6-.96 0-1.6.8-1.6 1.6l.16 14.4c0 .8.8 1.6 1.6 1.6l14.4-.16c.96 0 1.6-.8 1.6-1.6s-.8-1.6-1.6-1.6L16.16 16C22.56 9.92 31.04 6.4 40 6.4c19.04 0 34.4 15.52 34.4 34.4S59.04 75.2 40 75.2 5.6 59.68 5.6 40.8z"/><path d="M62.24 40.8c0-12.32-9.92-22.24-22.24-22.24-12.32 0-22.24 9.92-22.24 22.24 0 12.32 9.92 22.24 22.24 22.24 12.32 0 22.24-10.08 22.24-22.24zm-41.28 0c0-10.4 8.48-19.04 19.04-19.04 10.56 0 19.04 8.48 19.04 19.04 0 10.56-8.64 19.04-19.04 19.04-10.4 0-19.04-8.64-19.04-19.04z"/></svg><svg viewBox="0 0 44 44" id="icon-noimage" xmlns="http://www.w3.org/2000/svg"><path d="M43.5 22c0 11.874-9.626 21.5-21.5 21.5S.5 33.874.5 22 10.126.5 22 .5 43.5 10.126 43.5 22z"/><path d="M29.25 15.417c-1.666.583-4 1.167-7.25 1.167s-5.75-.667-7.25-1.167c-.5-.25-1.083.167-1.083.75v11.666c0 .584.583 1 1.083.834 1.75-.584 4-1.25 7.25-1.25s5.584.666 7.25 1.25c.584.166 1.084-.25 1.084-.834V16.168c0-.584-.584-1-1.084-.75zM22 24.5c-1.916 0-3.75.084-5.416.334l3.083-3.667 1.667 2 2.333-2.834 3.75 4.5c-1.667-.25-3.5-.333-5.417-.333z"/></svg><svg viewBox="0 0 40 40" id="icon-phone" xmlns="http://www.w3.org/2000/svg"><path d="M11.033 17.983a25.161 25.161 0 0010.984 10.984l3.666-3.667a1.673 1.673 0 011.7-.417c1.867.617 3.867.95 5.95.95A1.666 1.666 0 0135 27.5v5.833A1.666 1.666 0 0133.333 35 28.334 28.334 0 015 6.667 1.667 1.667 0 016.667 5H12.5a1.667 1.667 0 011.667 1.667c0 2.083.333 4.083.95 5.95.183.583.05 1.233-.417 1.7l-3.667 3.666z"/></svg><svg viewBox="0 0 77 76" id="icon-shop" xmlns="http://www.w3.org/2000/svg"><path d="M46.833 61.533H15.205c-.59 0-1.097-.42-1.205-1.001L9.663 37.22a1.225 1.225 0 011.205-1.45H51.17a1.224 1.224 0 011.205 1.45l-4.338 23.31a1.225 1.225 0 01-1.204 1.002zm-30.608-2.451h29.589l3.881-20.86H12.343l3.882 20.86zm7.386 14.695a5.23 5.23 0 01-5.224-5.224 5.23 5.23 0 015.224-5.224 5.23 5.23 0 015.224 5.224 5.23 5.23 0 01-5.224 5.224zm0-7.996a2.775 2.775 0 00-2.772 2.772 2.775 2.775 0 002.772 2.773 2.775 2.775 0 002.772-2.773 2.775 2.775 0 00-2.772-2.772zm14.817 7.996a5.23 5.23 0 01-5.224-5.224 5.23 5.23 0 015.224-5.224 5.23 5.23 0 015.224 5.224 5.23 5.23 0 01-5.224 5.224zm0-7.996a2.775 2.775 0 00-2.772 2.772 2.775 2.775 0 002.772 2.773 2.775 2.775 0 002.772-2.773 2.775 2.775 0 00-2.773-2.772z"/><path d="M10.868 38.222a1.226 1.226 0 01-1.204-1.001L8.65 31.773H1.563a1.226 1.226 0 110-2.452h8.106c.59 0 1.098.421 1.206 1.002l1.2 6.449a1.225 1.225 0 01-1.207 1.45zm58.28 17.347H47.94a1.224 1.224 0 01-1.206-1.45l2.962-15.898H20.898a1.226 1.226 0 01-1.226-1.226v-8.804a1.225 1.225 0 011.64-1.154c.61.219 1.254.33 1.917.33a5.96 5.96 0 005.805-4.709c.12-.567.62-.973 1.199-.973h.002c.58.001 1.08.41 1.198.978a5.927 5.927 0 005.783 4.704c2.79 0 5.227-1.987 5.793-4.725a1.226 1.226 0 012.401 0c.566 2.738 3.002 4.725 5.793 4.725 2.782 0 5.219-1.98 5.794-4.708.12-.567.62-.973 1.2-.973h.001c.58 0 1.081.409 1.199.977.565 2.726 3.001 4.705 5.793 4.705a5.897 5.897 0 003.278-.998 1.227 1.227 0 011.906 1.02l-.001 26.952c0 .678-.549 1.226-1.226 1.226zm-19.732-2.452h18.506v-23.76a8.297 8.297 0 01-2.731.461 8.405 8.405 0 01-6.997-3.78c-1.518 2.296-4.125 3.78-6.99 3.78-2.872 0-5.478-1.487-6.994-3.788-1.516 2.301-4.121 3.788-6.993 3.788-2.87 0-5.474-1.484-6.987-3.78-1.52 2.296-4.13 3.78-7 3.78-.373 0-.742-.025-1.105-.074v6.025H51.17a1.224 1.224 0 011.205 1.45l-2.96 15.898z"/><path d="M75.11 22.684h-61.8a1.227 1.227 0 01-1.054-1.852L23.097 2.573c.22-.372.622-.6 1.054-.6h40.117c.433 0 .833.228 1.054.6l10.843 18.26a1.226 1.226 0 01-1.054 1.85v.001zm-59.647-2.452h57.495L63.573 4.425H24.85l-9.387 15.807z"/><path d="M65.19 29.818a8.405 8.405 0 01-6.996-3.78c-1.519 2.296-4.125 3.78-6.99 3.78-2.873 0-5.479-1.487-6.994-3.787-1.516 2.3-4.121 3.787-6.994 3.787-2.87 0-5.474-1.484-6.986-3.78-1.521 2.296-4.13 3.78-7 3.78-.947 0-1.87-.16-2.745-.473a8.348 8.348 0 01-5.616-7.887c0-.677.549-1.226 1.226-1.226h56.23c.677 0 1.225.549 1.225 1.226a8.34 8.34 0 01-3.722 6.95 8.34 8.34 0 01-4.638 1.41zm-5.789-7.134c.574 2.714 3.005 4.682 5.789 4.682a5.9 5.9 0 003.278-.997 5.893 5.893 0 002.502-3.685H59.401zm-13.982 0a5.943 5.943 0 005.785 4.682c2.773 0 5.203-1.967 5.788-4.682H45.419zm-13.98 0a5.928 5.928 0 005.777 4.682c2.777 0 5.202-1.967 5.784-4.682H31.439zm-13.99 0a5.905 5.905 0 003.849 4.348 5.681 5.681 0 001.932.335 5.959 5.959 0 005.799-4.683h-11.58z"/></svg><svg viewBox="0 0 76 76" id="icon-site" xmlns="http://www.w3.org/2000/svg"><path d="M69.674 0H6.326A6.331 6.331 0 000 6.326v51.52a6.332 6.332 0 006.326 6.327h63.348A6.332 6.332 0 0076 57.847V6.327A6.332 6.332 0 0069.674 0zm3.97 13.512v44.352c0 2.217-1.735 3.97-3.953 3.97H6.326c-2.217 0-3.97-1.735-3.97-3.97V13.512h71.289zm0-7.186v4.814H2.373V6.326c0-2.217 1.737-3.97 3.971-3.97h63.348c2.2.016 3.954 1.753 3.954 3.97z"/><path d="M8.44 4.246a1.19 1.19 0 00-1.048 1.186V8.08c0 .326.12.618.344.842.223.223.516.344.842.344.327 0 .619-.12.842-.344.224-.224.344-.533.344-.842V5.45c0-.344-.137-.671-.395-.894a1.162 1.162 0 00-.928-.31zm5.21 0a1.19 1.19 0 00-1.05 1.186V8.08c0 .326.121.618.345.842.223.223.515.344.842.344.31 0 .619-.12.842-.344.224-.224.344-.533.344-.842V5.45c0-.344-.137-.671-.395-.894a1.182 1.182 0 00-.929-.31zm31.613 40.536H8.458a1.193 1.193 0 00-1.066 1.186v9.575c0 .653.533 1.186 1.186 1.186h36.685c.653 0 1.186-.533 1.186-1.186v-9.575c-.017-.653-.55-1.186-1.186-1.186zm-1.186 2.372v7.22H9.764v-7.22h34.313zm23.379-2.372H52.878c-.584 0-1.1.55-1.1 1.186v9.575c0 .653.533 1.186 1.187 1.186h14.474c.653 0 1.186-.533 1.186-1.186v-9.575c0-.653-.533-1.186-1.169-1.186zm-1.186 2.372v7.22H54.15v-7.22h12.12zM8.578 39.693h58.878c.653 0 1.186-.533 1.186-1.186v-18.72c0-.654-.532-1.187-1.186-1.187H8.578c-.653 0-1.186.533-1.186 1.186v18.721c0 .653.533 1.186 1.186 1.186zm32.37-12.79l-3.885 3.92-5.38-5.518c-.258-.275-.55-.413-.843-.413-.292 0-.584.138-.842.413L18.274 37.32h-8.51V20.955H66.27v16.366H52.93L42.633 26.903c-.258-.257-.55-.395-.843-.395-.292 0-.584.138-.842.395zm-.825 10.418H21.557l9.283-9.506 9.283 9.506zm9.472 0h-6.188l-4.694-4.813 3.06-3.095 7.822 7.908z"/><path d="M51.933 31.493c2.32 0 4.212-1.89 4.212-4.211a4.219 4.219 0 00-4.212-4.212 4.219 4.219 0 00-4.212 4.212c.018 2.32 1.909 4.211 4.212 4.211zm-1.84-4.211a1.82 1.82 0 011.84-1.84c1.032 0 1.857.808 1.857 1.84a1.838 1.838 0 01-1.857 1.856 1.834 1.834 0 01-1.84-1.856z"/></svg><svg viewBox="0 0 70 70" id="icon-tg" xmlns="http://www.w3.org/2000/svg"><path fill-rule="evenodd" clip-rule="evenodd" d="M15.824 34.621c10.2-4.43 16.99-7.373 20.4-8.8 9.704-4.051 11.744-4.75 13.055-4.78.292 0 .933.058 1.37.408.35.291.437.67.495.962.059.291.117.903.059 1.37-.525 5.536-2.798 18.971-3.964 25.15-.495 2.622-1.457 3.496-2.39 3.584-2.04.175-3.584-1.34-5.536-2.623-3.09-2.01-4.809-3.264-7.81-5.246-3.468-2.273-1.224-3.526.757-5.566.525-.524 9.471-8.684 9.646-9.413.03-.087.03-.437-.175-.612-.204-.175-.495-.116-.728-.058-.32.058-5.217 3.322-14.746 9.763-1.399.961-2.652 1.428-3.789 1.398-1.253-.029-3.642-.699-5.45-1.282-2.185-.7-3.934-1.078-3.788-2.302.088-.641.962-1.282 2.594-1.953z"/></svg><svg viewBox="0 0 70 70" id="icon-vk" xmlns="http://www.w3.org/2000/svg"><path d="M36.612 48.206c-13.316 0-20.91-9.626-21.227-25.642h6.67c.219 11.756 5.137 16.735 9.032 17.762V22.564h6.28v10.139c3.847-.437 7.888-5.057 9.25-10.139H52.9a20.116 20.116 0 01-3.008 7.331 18.984 18.984 0 01-5.537 5.451 19.44 19.44 0 016.31 5.299 20.69 20.69 0 013.695 7.56h-6.913c-.639-2.403-1.935-4.555-3.728-6.185-1.793-1.63-4.002-2.666-6.35-2.978v9.163h-.756z"/></svg><svg viewBox="0 0 76 76" id="icon-web-app" xmlns="http://www.w3.org/2000/svg"><path d="M60.065 51.484c-4.731 0-8.58 3.85-8.58 8.58 0 4.731 3.849 8.581 8.58 8.581s8.58-3.85 8.58-8.58-3.849-8.581-8.58-8.581zm0 14.71a6.136 6.136 0 01-6.13-6.13c0-3.38 2.75-6.128 6.13-6.128s6.129 2.749 6.129 6.129c0 3.38-2.75 6.129-6.13 6.129z"/><path d="M60.065 56.387a3.682 3.682 0 00-3.678 3.678 3.682 3.682 0 003.678 3.677 3.682 3.682 0 003.677-3.677 3.682 3.682 0 00-3.677-3.678zm0 4.903a1.227 1.227 0 01-1.226-1.225 1.227 1.227 0 012.452 0c0 .676-.55 1.225-1.226 1.225z"/><path d="M73.407 55.873a1.253 1.253 0 01-.792-.728 10.864 10.864 0 00-.198-.484 1.264 1.264 0 01.046-1.07 3.76 3.76 0 00-.699-4.365l-.864-.864a3.76 3.76 0 00-4.365-.698 1.26 1.26 0 01-1.072.045 13.839 13.839 0 00-.479-.196 1.261 1.261 0 01-.73-.794 3.758 3.758 0 00-3.579-2.59h-1.22a3.764 3.764 0 00-3.581 2.594 1.26 1.26 0 01-.736.793c-.158.062-.317.127-.474.196-.228.098-.48.094-.729.044V6.129A6.135 6.135 0 0047.806 0h-31.87a6.136 6.136 0 00-6.13 6.129v8.58H3.677A3.682 3.682 0 000 18.388v31.871a3.682 3.682 0 003.677 3.677h6.13v15.936a6.135 6.135 0 006.128 6.129h31.871c2.33 0 4.45-1.353 5.476-3.41.104-.042.21-.077.31-.128a1.26 1.26 0 011.073-.045c.157.067.315.132.478.196.343.133.61.423.73.794A3.76 3.76 0 0059.454 76h1.222a3.764 3.764 0 003.58-2.594c.122-.37.388-.658.734-.793.16-.062.318-.127.476-.196a1.267 1.267 0 011.07.047 3.762 3.762 0 004.366-.698l.863-.864a3.76 3.76 0 00.699-4.365 1.262 1.262 0 01-.047-1.072c.069-.158.135-.318.198-.48.132-.341.423-.607.793-.73A3.76 3.76 0 0076 60.675v-1.22a3.763 3.763 0 00-2.593-3.582zM15.936 2.452h31.87a3.682 3.682 0 013.678 3.677v3.676l-39.226.002V6.129a3.682 3.682 0 013.678-3.677zM3.678 17.162h36.774c.675 0 1.226.549 1.226 1.225v6.13H2.452v-6.13c0-.676.55-1.226 1.226-1.226zM2.452 50.257v-23.29h39.226v23.29c0 .676-.55 1.226-1.226 1.226H3.678c-.676 0-1.226-.55-1.226-1.226zm38 3.678a3.682 3.682 0 003.677-3.678v-31.87a3.682 3.682 0 00-3.677-3.678H12.258v-2.452h39.226V47.29a3.76 3.76 0 00-2.257 1.073l-.862.864a3.76 3.76 0 00-.7 4.365c.176.346.192.737.047 1.072-.068.158-.135.318-.197.48a1.262 1.262 0 01-.793.73 3.757 3.757 0 00-2.542 2.965H12.26v-4.904h28.193zm7.355 19.613H15.936a3.682 3.682 0 01-3.678-3.678v-8.58h31.923a3.76 3.76 0 002.543 2.965c.37.123.659.387.791.728.063.163.129.324.2.483.143.334.127.725-.047 1.07a3.76 3.76 0 00.698 4.366l.864.864c.329.329.71.579 1.116.763a3.706 3.706 0 01-2.54 1.019zm25.742-12.874c0 .572-.364 1.073-.909 1.252a3.707 3.707 0 00-2.312 2.173c-.051.132-.104.262-.159.389a3.701 3.701 0 00.107 3.153 1.314 1.314 0 01-.245 1.525l-.864.864c-.403.4-1.016.5-1.526.243a3.712 3.712 0 00-3.151-.108 8.38 8.38 0 01-.394.163 3.705 3.705 0 00-2.17 2.313c-.177.543-.68.907-1.25.907h-1.221a1.32 1.32 0 01-1.252-.906 3.696 3.696 0 00-2.169-2.312 13.003 13.003 0 01-.394-.163 3.652 3.652 0 00-1.454-.302c-.58 0-1.16.136-1.7.409a1.317 1.317 0 01-1.526-.244l-.864-.864a1.314 1.314 0 01-.244-1.525 3.699 3.699 0 00.107-3.151 15.241 15.241 0 01-.162-.393 3.701 3.701 0 00-2.313-2.17 1.316 1.316 0 01-.903-1.253v-1.22c0-.572.364-1.074.907-1.252a3.709 3.709 0 002.313-2.174c.052-.131.104-.26.16-.388a3.701 3.701 0 00-.107-3.153 1.313 1.313 0 01.245-1.525l.863-.864a1.316 1.316 0 011.526-.243c1 .504 2.148.544 3.152.108.131-.058.264-.112.392-.163a3.702 3.702 0 002.172-2.314c.176-.542.68-.906 1.25-.906h1.221c.57 0 1.073.365 1.252.905a3.698 3.698 0 002.167 2.312c.133.053.266.107.396.163a3.714 3.714 0 003.152-.106 1.313 1.313 0 011.526.243l.864.864c.403.403.501 1.016.244 1.525a3.699 3.699 0 00-.107 3.151c.055.13.109.26.162.393a3.7 3.7 0 002.313 2.17c.54.18.905.682.905 1.253v1.221z"/><path d="M17.162 6.13a1.226 1.226 0 11-2.452-.001 1.226 1.226 0 012.452 0zm7.355-1.227h14.71v2.452h-14.71V4.903zm11.032 58.839h-7.355a3.682 3.682 0 00-3.677 3.677 3.682 3.682 0 003.677 3.678h7.355a3.682 3.682 0 003.677-3.678 3.682 3.682 0 00-3.677-3.677zm0 4.903h-7.355a1.227 1.227 0 010-2.451h7.355c.675 0 1.226.55 1.226 1.225 0 .677-.551 1.226-1.226 1.226zM14.71 19.613h2.452v2.452H14.71v-2.452zm-4.903 0h2.451v2.452H9.807v-2.452zm-4.903 0h2.451v2.452H4.904v-2.452zm0 19.613h34.322V29.42H4.904v9.806zm2.451-7.355h29.42v4.903H7.355v-4.903zm-2.451 9.807h4.903v2.451H4.904v-2.451zm7.354 0h26.968v2.451H12.258v-2.451zM4.904 46.58h34.322v2.452H4.904v-2.451z"/></svg><svg viewBox="0 0 70 70" id="icon-whapp" xmlns="http://www.w3.org/2000/svg"><path d="M44.354 39.055c-.512-.255-3.006-1.475-3.47-1.643-.465-.172-.806-.255-1.146.255-.335.502-1.312 1.64-1.606 1.977-.298.332-.594.357-1.1.128-.51-.256-2.148-.792-4.088-2.527-1.51-1.353-2.525-3.011-2.824-3.522-.296-.51-.032-.791.221-1.046.232-.23.512-.587.768-.89.248-.308.33-.512.505-.844.17-.357.083-.638-.043-.891-.127-.256-1.143-2.757-1.568-3.754-.409-.993-.829-.867-1.144-.867-.292-.026-.63-.026-.971-.026-.34 0-.89.126-1.356.61-.465.511-1.778 1.736-1.778 4.212 0 2.475 1.82 4.874 2.074 5.232.253.331 3.581 5.435 8.677 7.63 1.215.51 2.16.817 2.9 1.07 1.214.387 2.322.332 3.198.206.976-.154 3.006-1.226 3.43-2.426.434-1.2.434-2.195.306-2.424-.126-.23-.46-.358-.97-.587l-.015.127zm-9.25 12.536h-.028a17.02 17.02 0 01-8.6-2.348l-.613-.364-6.38 1.659 1.71-6.202-.407-.638a16.79 16.79 0 01-2.579-8.949c0-9.264 7.58-16.818 16.915-16.818 4.516 0 8.754 1.76 11.946 4.95a16.653 16.653 0 014.949 11.894c-.007 9.262-7.588 16.818-16.903 16.818l-.01-.002zm14.392-31.137c-3.88-3.75-8.984-5.868-14.42-5.868-11.198 0-20.316 9.075-20.321 20.235 0 3.566.934 7.043 2.714 10.114L14.583 55.42l10.778-2.81a20.523 20.523 0 009.715 2.462h.01c11.204 0 20.325-9.08 20.33-20.24 0-5.404-2.11-10.49-5.946-14.31"/></svg></svg>